<svg width="45" height="45" viewBox="0 0 45 45" fill="none" xmlns="http://www.w3.org/2000/svg">
<g clip-path="url(#clip0_828_252)">
<path d="M41.0109 1.69806H3.99492C2.72704 1.69806 1.69922 2.72588 1.69922 3.99376V41.0098C1.69922 42.2777 2.72704 43.3055 3.99492 43.3055H41.0109C42.2788 43.3055 43.3066 42.2777 43.3066 41.0098V3.99376C43.3066 2.72588 42.2788 1.69806 41.0109 1.69806Z" fill="#3D5A98"/>
<path d="M30.4039 43.3019V27.1898H35.8109L36.6195 20.9109H30.4039V16.9031C30.4039 15.0855 30.9102 13.8445 33.5152 13.8445H36.841V8.2195C35.2305 8.05197 33.6121 7.97216 31.993 7.98044C27.2047 7.98044 23.907 10.8984 23.907 16.2808V20.9109H18.5V27.1898H23.907V43.3019H30.4039Z" fill="white"/>
</g>
<defs>
<clipPath id="clip0_828_252">
<rect width="45" height="45" fill="white"/>
</clipPath>
</defs>
</svg>
