<svg width="38" height="39" viewBox="0 0 38 39" fill="none" xmlns="http://www.w3.org/2000/svg">
<path d="M19 20.5405H7V22.5946H19V20.5405ZM31 20.5405H19V22.5946H31V20.5405ZM36 15.4054C36 16.0798 35.8707 16.7475 35.6194 17.3705C35.3681 17.9936 34.9998 18.5597 34.5355 19.0365C34.0712 19.5133 33.52 19.8916 32.9134 20.1497C32.3068 20.4077 31.6566 20.5405 31 20.5405V22.5946C32.8565 22.5946 34.637 21.8372 35.9497 20.4889C37.2625 19.1407 38 17.3121 38 15.4054H36ZM31 10.2703C31.6566 10.2703 32.3068 10.4031 32.9134 10.6612C33.52 10.9192 34.0712 11.2975 34.5355 11.7743C34.9998 12.2512 35.3681 12.8173 35.6194 13.4403C35.8707 14.0633 36 14.731 36 15.4054H38C38 13.4987 37.2625 11.6701 35.9497 10.3219C34.637 8.97365 32.8565 8.21622 31 8.21622V10.2703ZM29.04 6.67568C28.1718 4.68687 26.7621 2.99843 24.9806 1.81394C23.1992 0.629457 21.1222 -0.000508893 19 3.08446e-07V2.05405C20.7368 2.05351 22.4366 2.56908 23.8944 3.53857C25.3523 4.50806 26.5059 5.89005 27.216 7.51784L29.04 6.67568ZM19 3.08446e-07C16.8778 -0.000508893 14.8008 0.629457 13.0194 1.81394C11.2379 2.99843 9.82816 4.68687 8.96 6.67568L10.784 7.51784C11.4941 5.89005 12.6477 4.50806 14.1056 3.53857C15.5634 2.56908 17.2632 2.05351 19 2.05405V3.08446e-07ZM7 8.21622C5.14348 8.21622 3.36301 8.97365 2.05025 10.3219C0.737498 11.6701 0 13.4987 0 15.4054H2C2 14.0435 2.52678 12.7373 3.46447 11.7743C4.40215 10.8113 5.67392 10.2703 7 10.2703V8.21622ZM0 15.4054C0 17.3121 0.737498 19.1407 2.05025 20.4889C3.36301 21.8372 5.14348 22.5946 7 22.5946V20.5405C5.67392 20.5405 4.40215 19.9995 3.46447 19.0365C2.52678 18.0735 2 16.7673 2 15.4054H0ZM8.96 6.67568C8.542 7.62876 7.77 8.21622 7 8.21622V10.2703C8.79 10.2703 10.154 8.96184 10.784 7.51784L8.96 6.67568ZM31 8.21622C30.23 8.21622 29.458 7.62876 29.04 6.67568L27.216 7.51784C27.848 8.96184 29.21 10.2703 31 10.2703V8.21622Z" fill="black"/>
<path d="M19 33.8913V29.7832M29 35.9454V29.7832M9 37.9994V29.7832" stroke="black" stroke-linecap="round"/>
</svg>
