<svg width="40" height="40" viewBox="0 0 40 40" fill="none" xmlns="http://www.w3.org/2000/svg">
<path d="M1 22.303H8.6M29.5 22.303H39M2.9 38.9993L2.919 38.9764M8.6 30.6616L8.619 30.6387M14.3 38.9993L14.319 38.9764M20 30.6616L20.019 30.6387M25.7 38.9993L25.719 38.9764M31.4 30.6616L31.419 30.6387M37.1 38.9993L37.119 38.9764M14.3 24.3875C14.3 24.3875 16.01 16.5896 20 11.8809" stroke="black" stroke-width="1.5" stroke-linecap="round" stroke-linejoin="round"/>
<path d="M27.9533 1.96172L28.6639 10.0702C29.1256 15.3292 25.5308 20.0129 20.7371 20.5173C16.0346 21.0134 11.7729 17.2427 11.3207 12.0816C11.1031 9.6039 11.7916 7.13281 13.2347 5.21193C14.6777 3.29104 16.7572 2.07768 19.0157 1.83874L26.895 1.00496C27.0219 0.991461 27.15 1.00557 27.2719 1.04648C27.3939 1.0874 27.5073 1.15431 27.6056 1.24339C27.7039 1.33246 27.7852 1.44195 27.8449 1.56558C27.9046 1.6892 27.9414 1.82453 27.9533 1.9638" stroke="black" stroke-width="1.5" stroke-linecap="round" stroke-linejoin="round"/>
</svg>
