<svg width="40" height="40" viewBox="0 0 40 40" fill="none" xmlns="http://www.w3.org/2000/svg">
<path d="M12.9999 13.6667C12.9999 9.73156 12.9999 7.764 12.3939 6.21444C11.9916 5.18901 11.4018 4.25735 10.6581 3.47273C9.91445 2.68811 9.03156 2.06593 8.05993 1.64178V1.64178C4.45027 0.0636976 0.280209 4.34041 1.47876 8.0932C1.51789 8.2157 1.56021 8.33516 1.60599 8.45222C2.00827 9.47765 2.5981 10.4093 3.34176 11.1939C4.08542 11.9786 4.96831 12.6007 5.93995 13.0249C7.40793 13.6667 9.27191 13.6667 12.9999 13.6667ZM12.9999 13.6667C12.9999 11.0426 12.9999 9.73156 13.4059 8.69711C13.9479 7.31856 14.9859 6.22078 16.2918 5.65078V5.65078C18.6989 4.59816 21.4812 7.45051 20.679 9.95221C20.6528 10.0339 20.6245 10.1136 20.5938 10.1918C20.0519 11.5705 19.014 12.6661 17.7078 13.2381C16.7278 13.6667 15.4838 13.6667 12.9999 13.6667ZM12.9999 13.6667V24.2222M20.9998 24.2222H1M20.9998 30.5556H1M20.9998 36.8889H1M32.9997 39C34.1238 39.0001 35.2253 38.6668 36.1788 38.0382C37.1322 37.4095 37.8991 36.5108 38.3921 35.4444C38.8852 34.378 39.0845 33.1869 38.9673 32.0067C38.8502 30.8266 38.4213 29.7049 37.7296 28.7696C36.7216 27.4079 36.2176 26.7281 36.1096 26.3946C36.0016 26.061 35.9996 25.6219 35.9996 24.7458V16.8333C35.9996 15.9935 35.6836 15.188 35.121 14.5942C34.5584 14.0003 33.7953 13.6667 32.9997 13.6667C32.204 13.6667 31.441 14.0003 30.8784 14.5942C30.3158 15.188 29.9997 15.9935 29.9997 16.8333V24.7458C29.9997 25.6219 29.9997 26.0589 29.8897 26.3924C29.7817 26.7281 29.2777 27.4079 28.2697 28.7696C27.578 29.7049 27.1491 30.8266 27.032 32.0067C26.9149 33.1869 27.1142 34.378 27.6072 35.4444C28.1002 36.5108 28.8672 37.4095 29.8206 38.0382C30.774 38.6668 31.8755 39.0001 32.9997 39Z" stroke="black" stroke-width="1.5" stroke-linecap="round" stroke-linejoin="round"/>
</svg>
