<?xml version="1.0" encoding="UTF-8"?>
<!DOCTYPE svg PUBLIC "-//W3C//DTD SVG 1.1//EN" "http://www.w3.org/Graphics/SVG/1.1/DTD/svg11.dtd">
<svg xmlns="http://www.w3.org/2000/svg" version="1.1" width="1028px" height="1496px" style="shape-rendering:geometricPrecision; text-rendering:geometricPrecision; image-rendering:optimizeQuality; fill-rule:evenodd; clip-rule:evenodd" xmlns:xlink="http://www.w3.org/1999/xlink">
<g><path style="opacity:0.987" fill="#1a443b" d="M 463.5,-0.5 C 464.167,-0.5 464.833,-0.5 465.5,-0.5C 467.316,19.0117 469.316,38.5117 471.5,58C 469.967,82.8626 456.634,95.5293 431.5,96C 408.385,100.371 393.219,91.5378 386,69.5C 383.496,49.6216 380.996,29.7883 378.5,10C 388.071,8.14014 397.738,6.97347 407.5,6.5C 409.403,25.5244 411.569,44.5244 414,63.5C 418.492,74.0002 425.992,76.8335 436.5,72C 438.917,70.3374 440.75,68.1707 442,65.5C 441.233,44.4246 439.399,23.4246 436.5,2.5C 445.706,2.08103 454.706,1.08103 463.5,-0.5 Z"/></g>
<g><path style="opacity:0.987" fill="#1a443b" d="M 574.5,1.5 C 583.511,2.14921 592.511,2.98254 601.5,4C 602.578,4.67386 603.245,5.67386 603.5,7C 600.764,28.4609 598.43,49.9609 596.5,71.5C 611.011,72.6479 625.344,74.4812 639.5,77C 638.32,84.107 637.32,91.2736 636.5,98.5C 612.827,96.24 589.16,93.9067 565.5,91.5C 568.5,61.4993 571.5,31.4993 574.5,1.5 Z"/></g>
<g><path style="opacity:0.987" fill="#1a443b" d="M 738.5,27.5 C 748.485,30.489 758.485,33.489 768.5,36.5C 770.68,47.8896 773.18,59.223 776,70.5C 784.687,62.9782 793.521,55.6448 802.5,48.5C 812.315,51.7148 821.981,55.2148 831.5,59C 815.286,72.2154 798.786,85.0487 782,97.5C 777.66,109.018 773.827,120.685 770.5,132.5C 761.114,130.038 751.781,127.372 742.5,124.5C 746.49,112.196 750.49,99.8628 754.5,87.5C 749.162,67.4817 743.829,47.4817 738.5,27.5 Z"/></g>
<g><path style="opacity:0.984" fill="#1a443b" d="M 274.5,31.5 C 275.822,31.33 276.989,31.6634 278,32.5C 280.167,39 282.333,45.5 284.5,52C 276.503,55.8943 268.17,59.2276 259.5,62C 259.043,62.414 258.709,62.914 258.5,63.5C 265.401,84.0373 272.401,104.537 279.5,125C 279.167,125.5 278.833,126 278.5,126.5C 269.946,129.407 261.446,132.407 253,135.5C 245.52,114.057 237.853,92.7239 230,71.5C 221.408,75.1972 212.575,78.1972 203.5,80.5C 201.667,73.1692 199.334,66.0025 196.5,59C 222.636,49.9011 248.636,40.7344 274.5,31.5 Z"/></g>
<g><path style="opacity:0.986" fill="#1a443b" d="M 925.5,104.5 C 928.714,105.44 931.714,106.94 934.5,109C 951.167,120.333 967.833,131.667 984.5,143C 985.99,143.745 986.99,144.912 987.5,146.5C 984.328,152.179 980.661,157.512 976.5,162.5C 964.637,154.138 952.637,145.971 940.5,138C 939.365,137.251 938.365,137.417 937.5,138.5C 935.694,141.472 933.694,144.305 931.5,147C 943.167,155.333 954.833,163.667 966.5,172C 963.189,177.468 959.523,182.635 955.5,187.5C 944.126,179.622 932.626,171.955 921,164.5C 917.497,168.303 914.331,172.469 911.5,177C 924.5,186 937.5,195 950.5,204C 946.695,209.971 942.695,215.804 938.5,221.5C 917.203,207.525 896.203,193.191 875.5,178.5C 892.177,153.805 908.843,129.138 925.5,104.5 Z"/></g>
<g><path style="opacity:0.987" fill="#1a443b" d="M 79.5,116.5 C 106.339,134.423 132.673,153.089 158.5,172.5C 150.494,178.329 142.328,183.996 134,189.5C 130,186.167 126,182.833 122,179.5C 114.176,185.412 106.176,191.079 98,196.5C 98.722,201.355 99.8887,206.188 101.5,211C 93.9622,216.863 86.1289,222.363 78,227.5C 69.7098,196.673 61.8764,165.673 54.5,134.5C 62.8515,128.475 71.1849,122.475 79.5,116.5 Z M 82.5,147.5 C 90.1362,153.658 97.8028,159.825 105.5,166C 100.578,169.378 95.7449,172.878 91,176.5C 87.6954,166.944 84.862,157.277 82.5,147.5 Z"/></g>
<g><path style="opacity:0.998" fill="#1b453c" d="M 1027.5,579.5 C 1027.5,595.833 1027.5,612.167 1027.5,628.5C 1019.18,725.78 982.016,810.113 916,881.5C 833.588,966.967 733.421,1019.8 615.5,1040C 478.376,1062.92 349.043,1040.92 227.5,974C 148.798,928.632 87.6313,866.132 44,786.5C 18.5535,736.7 3.72015,684.033 -0.5,628.5C -0.5,612.167 -0.5,595.833 -0.5,579.5C 9.96689,469.735 55.3002,377.235 135.5,302C 227.425,220.232 335.091,173.566 458.5,162C 588.76,150.401 709.427,178.735 820.5,247C 901.231,298.732 960.731,368.565 999,456.5C 1014.7,496.196 1024.2,537.196 1027.5,579.5 Z"/></g>
<g><path style="opacity:1" fill="#d0ad6c" d="M 763.5,293.5 C 763.333,310.837 763.5,328.17 764,345.5C 764.717,344.956 765.217,344.289 765.5,343.5C 783.687,334.27 802.354,326.103 821.5,319C 849.577,308.41 858.077,316.91 847,344.5C 839.581,361.843 830.748,378.343 820.5,394C 840.033,386.826 860.033,380.826 880.5,376C 891.438,373.35 902.104,374.017 912.5,378C 916.188,380.542 917.854,384.042 917.5,388.5C 915.64,402.22 910.473,414.554 902,425.5C 893.625,437.548 884.125,448.715 873.5,459C 889.745,457.23 906.078,456.063 922.5,455.5C 932.185,455.645 941.852,456.145 951.5,457C 957.395,457.912 963.062,459.578 968.5,462C 970.993,465.308 971.159,468.808 969,472.5C 958.925,486.577 947.425,499.41 934.5,511C 882.77,552.976 826.103,587.31 764.5,614C 706.546,637.095 646.88,643.095 585.5,632C 580.249,630.872 575.083,629.372 570,627.5C 557.997,668.823 563.997,707.49 588,743.5C 593.126,750.96 599.293,757.46 606.5,763C 610.283,761.252 613.616,758.586 616.5,755C 621.477,751.336 626.811,750.67 632.5,753C 635.661,754.413 638.661,756.08 641.5,758C 651.887,768.387 662.221,778.721 672.5,789C 683.578,797.491 695.912,799.824 709.5,796C 729.516,790.494 748.516,782.494 766.5,772C 781.167,763.667 795.833,755.333 810.5,747C 842.138,731.002 874.471,729.335 907.5,742C 917.947,746.8 926.78,753.633 934,762.5C 936.211,766.084 937.711,769.917 938.5,774C 936.983,783.901 934.15,793.401 930,802.5C 916.769,828.299 900.102,851.632 880,872.5C 831.351,920.806 775.851,959.306 713.5,988C 674.919,1003.02 635.252,1007.02 594.5,1000C 564.247,993.205 537.247,980.039 513.5,960.5C 468.302,996.558 416.969,1010.06 359.5,1001C 333.18,996.116 308.18,987.449 284.5,975C 229.575,944.772 180.408,906.939 137,861.5C 118.564,840.975 103.897,817.975 93,792.5C 91.1068,786.427 89.6068,780.26 88.5,774C 90.0085,766.983 93.3418,760.983 98.5,756C 122.138,736.598 149.138,729.598 179.5,735C 189.763,737.066 199.763,740.066 209.5,744C 226.315,752.239 242.649,761.239 258.5,771C 276.704,781.272 295.704,789.605 315.5,796C 333.384,800.363 348.718,796.029 361.5,783C 369.833,773.333 378.833,764.333 388.5,756C 395.618,750.458 402.952,750.124 410.5,755C 413.349,758.016 416.349,760.85 419.5,763.5C 442.076,744.372 455.909,720.038 461,690.5C 463.448,670.058 462.781,649.725 459,629.5C 458.612,628.572 457.945,627.905 457,627.5C 389.624,644.28 323.79,639.447 259.5,613C 201.922,587.567 148.588,555.567 99.5,517C 92.3333,510.5 85.1667,504 78,497.5C 71.9583,491.127 66.2916,484.46 61,477.5C 58.5573,474.395 57.0573,470.895 56.5,467C 56.6467,463.18 58.6467,460.847 62.5,460C 69.3271,457.834 76.3271,456.5 83.5,456C 95.1667,455.333 106.833,455.333 118.5,456C 130.159,457.466 141.825,458.466 153.5,459C 136.953,443.063 123.453,424.896 113,404.5C 110.182,397.745 109.182,390.745 110,383.5C 114.612,376.613 121.112,373.613 129.5,374.5C 137.577,375.082 145.577,376.248 153.5,378C 171.456,382.767 189.123,388.1 206.5,394C 196.252,378.343 187.419,361.843 180,344.5C 176.546,336.82 175.213,328.82 176,320.5C 176.465,319.069 177.299,317.903 178.5,317C 182.711,315.466 187.044,315.133 191.5,316C 216.868,322.123 240.702,331.956 263,345.5C 262.079,323.163 262.413,300.83 264,278.5C 264.316,273.552 265.816,269.052 268.5,265C 278.19,264.993 287.19,267.66 295.5,273C 310.693,282.023 324.527,292.857 337,305.5C 336.408,291.874 336.408,278.207 337,264.5C 337.504,252.481 340.504,241.147 346,230.5C 348.317,227.903 351.15,227.07 354.5,228C 364.785,232.944 373.285,240.11 380,249.5C 385.333,256.833 390.667,264.167 396,271.5C 398.802,255.429 403.802,240.096 411,225.5C 415.55,217.95 421.717,212.116 429.5,208C 433.814,207.545 437.814,208.545 441.5,211C 449.841,217.677 456.341,225.844 461,235.5C 465.583,244.25 469.583,253.25 473,262.5C 480.785,244.927 490.118,228.261 501,212.5C 509.333,201.833 517.667,201.833 526,212.5C 536.882,228.261 546.215,244.927 554,262.5C 559.665,246.166 567.665,231.166 578,217.5C 584.8,208.345 593.3,206.179 603.5,211C 613.483,219.789 620.316,230.623 624,243.5C 626.649,252.761 628.982,262.095 631,271.5C 639.696,258.465 649.529,246.298 660.5,235C 663.997,232.417 667.664,230.084 671.5,228C 675.18,226.973 678.347,227.806 681,230.5C 685.681,238.887 688.347,247.887 689,257.5C 690.01,264.794 690.51,272.127 690.5,279.5C 690.088,288.177 689.922,296.844 690,305.5C 706.869,287.649 726.702,274.149 749.5,265C 753.244,264.071 756.744,264.571 760,266.5C 762.951,275.252 764.118,284.252 763.5,293.5 Z"/></g>
<g><path style="opacity:1" fill="#1c453c" d="M 512.5,252.5 C 520.188,259.373 526.688,267.373 532,276.5C 547.411,304.064 558.078,333.397 564,364.5C 576.274,426.286 577.607,488.286 568,550.5C 560.469,572.092 553.136,593.759 546,615.5C 534.866,658.173 537.866,699.839 555,740.5C 570.379,777.101 592.545,808.934 621.5,836C 679.035,883.543 742.035,892.21 810.5,862C 816.958,857.876 822.458,852.71 827,846.5C 833.606,828.157 827.439,820.657 808.5,824C 800.204,830.627 792.204,837.627 784.5,845C 770.785,853.679 755.785,857.846 739.5,857.5C 699.827,855.325 664.827,841.491 634.5,816C 626.676,809.537 621.343,801.537 618.5,792C 618.976,785.752 622.31,783.419 628.5,785C 653.655,815.896 686.321,829.896 726.5,827C 738.217,825.988 749.217,822.655 759.5,817C 773.884,805.615 788.55,794.615 803.5,784C 825.178,770.441 848.678,762.275 874,759.5C 894.37,759.203 903.703,769.203 902,789.5C 881.39,823.113 854.89,851.279 822.5,874C 760.751,913.262 698.084,914.595 634.5,878C 596.51,853.01 567.344,820.177 547,779.5C 538.163,761.654 530.496,743.321 524,724.5C 522.833,722.667 521.333,721.167 519.5,720C 515.5,719.333 511.5,719.333 507.5,720C 505.667,721.167 504.167,722.667 503,724.5C 487.288,774.791 460.788,818.291 423.5,855C 374.189,898.161 317.522,912.495 253.5,898C 216.873,884.439 185.373,863.272 159,834.5C 146.203,820.235 134.87,804.902 125,788.5C 123.589,769.413 132.422,759.746 151.5,759.5C 181.147,762.66 208.147,772.827 232.5,790C 241.456,796.621 250.123,803.621 258.5,811C 280.89,827.067 305.557,831.734 332.5,825C 359.896,820.313 381.896,806.98 398.5,785C 404.637,783.575 407.97,785.908 408.5,792C 407.738,798.024 405.238,803.19 401,807.5C 361.739,846.031 314.906,861.531 260.5,854C 253.992,851.946 247.992,848.946 242.5,845C 235.167,838.333 227.833,831.667 220.5,825C 213.712,821.518 207.046,821.684 200.5,825.5C 196.292,833.766 196.792,841.766 202,849.5C 215.294,862.566 231.127,871.066 249.5,875C 327.748,888.813 390.581,863.979 438,800.5C 457.078,774.344 471.412,745.677 481,714.5C 490.238,678.968 489.571,643.635 479,608.5C 471.935,589.305 465.268,569.972 459,550.5C 448.892,485.146 450.892,420.146 465,355.5C 470.637,329.586 479.637,304.919 492,281.5C 498.275,271.399 505.109,261.732 512.5,252.5 Z"/></g>
<g><path style="opacity:1" fill="#1d463c" d="M 431.5,254.5 C 445.136,261.648 454.303,272.648 459,287.5C 459.515,305.484 455.015,322.151 445.5,337.5C 437.003,331.531 431.17,323.531 428,313.5C 418.364,293.043 419.53,273.376 431.5,254.5 Z"/></g>
<g><path style="opacity:1" fill="#1d463c" d="M 593.5,253.5 C 605.035,267.675 608.202,283.675 603,301.5C 600.203,311.905 595.87,321.572 590,330.5C 587.572,333.598 584.572,335.931 581,337.5C 571.903,322.003 567.57,305.337 568,287.5C 569.53,282.108 571.863,277.108 575,272.5C 580.698,265.636 586.865,259.303 593.5,253.5 Z"/></g>
<g><path style="opacity:1" fill="#1c453c" d="M 371.5,277.5 C 386.33,299.114 402.163,320.114 419,340.5C 427.484,351.439 430.484,363.772 428,377.5C 422.396,416.074 422.062,454.741 427,493.5C 430.818,521.6 435.984,549.434 442.5,577C 442.167,577.833 441.833,578.667 441.5,579.5C 416.899,559.044 399.066,533.711 388,503.5C 374.421,465.363 367.088,426.029 366,385.5C 364.31,349.293 366.144,313.293 371.5,277.5 Z"/></g>
<g><path style="opacity:1" fill="#1c453c" d="M 654.5,277.5 C 655.507,280.322 656.34,283.322 657,286.5C 664.583,346.182 662.583,405.516 651,464.5C 643.465,500.157 628.465,532.157 606,560.5C 599.618,567.385 592.784,573.718 585.5,579.5C 585.167,578.667 584.833,577.833 584.5,577C 599.062,521.427 605.229,464.927 603,407.5C 601.678,397.522 600.345,387.522 599,377.5C 596.516,363.772 599.516,351.439 608,340.5C 619.667,325.833 631.333,311.167 643,296.5C 647.488,290.523 651.321,284.19 654.5,277.5 Z"/></g>
<g><path style="opacity:1" fill="#1d453c" d="M 293.5,304.5 C 295.308,304.491 296.975,304.991 298.5,306C 310.883,314.71 322.383,324.543 333,335.5C 338.205,341.913 341.205,349.247 342,357.5C 342.667,370.167 342.667,382.833 342,395.5C 341.319,397.895 340.485,400.228 339.5,402.5C 323.113,388.614 308.28,373.281 295,356.5C 292.453,339.173 291.953,321.84 293.5,304.5 Z"/></g>
<g><path style="opacity:1" fill="#1c453c" d="M 730.5,304.5 C 731.822,304.33 732.989,304.663 734,305.5C 735.027,322.573 734.36,339.573 732,356.5C 718.72,373.281 703.887,388.614 687.5,402.5C 686.515,400.228 685.681,397.895 685,395.5C 684.333,382.833 684.333,370.167 685,357.5C 685.795,349.247 688.795,341.913 694,335.5C 705.183,323.801 717.35,313.468 730.5,304.5 Z"/></g>
<g><path style="opacity:1" fill="#5f6b4d" d="M 763.5,293.5 C 764.167,310.167 764.833,326.833 765.5,343.5C 765.217,344.289 764.717,344.956 764,345.5C 763.5,328.17 763.333,310.837 763.5,293.5 Z"/></g>
<g><path style="opacity:1" fill="#1c453c" d="M 214.5,350.5 C 252.046,367.962 287.713,389.128 321.5,414C 333.806,422.637 343.639,433.47 351,446.5C 355.16,475.814 362.827,504.148 374,531.5C 383.505,552.354 396.338,570.854 412.5,587C 403.043,584.782 394.043,581.116 385.5,576C 355.402,558.247 329.235,535.747 307,508.5C 284.59,481.074 264.923,451.741 248,420.5C 235.968,397.44 224.801,374.107 214.5,350.5 Z"/></g>
<g><path style="opacity:1" fill="#1c453c" d="M 810.5,349.5 C 790.562,404.653 762.062,455.653 725,502.5C 701.472,532.037 673.638,556.537 641.5,576C 632.857,580.873 623.857,584.539 614.5,587C 640.072,561.039 657.239,530.206 666,494.5C 669.332,478.508 672.666,462.508 676,446.5C 683.361,433.47 693.194,422.637 705.5,414C 738.892,389.966 773.892,368.466 810.5,349.5 Z"/></g>
<g><path style="opacity:1" fill="#677050" d="M 156.5,405.5 C 154.265,405.205 152.265,405.539 150.5,406.5C 149.957,406.44 149.624,406.107 149.5,405.5C 151.973,404.203 154.307,404.203 156.5,405.5 Z"/></g>
<g><path style="opacity:1" fill="#677050" d="M 870.5,405.5 C 872.693,404.203 875.027,404.203 877.5,405.5C 877.376,406.107 877.043,406.44 876.5,406.5C 874.735,405.539 872.735,405.205 870.5,405.5 Z"/></g>
<g><path style="opacity:1" fill="#1d453c" d="M 156.5,405.5 C 178.874,410.013 200.541,416.846 221.5,426C 233.86,440.192 242.527,456.358 247.5,474.5C 235.059,472.648 222.726,470.148 210.5,467C 202.462,464.793 194.462,462.459 186.5,460C 172.294,443.632 160.294,425.798 150.5,406.5C 152.265,405.539 154.265,405.205 156.5,405.5 Z"/></g>
<g><path style="opacity:1" fill="#1d463c" d="M 870.5,405.5 C 872.735,405.205 874.735,405.539 876.5,406.5C 866.706,425.798 854.706,443.632 840.5,460C 820.407,465.978 800.073,470.812 779.5,474.5C 784.473,456.358 793.14,440.192 805.5,426C 826.319,416.449 847.986,409.616 870.5,405.5 Z"/></g>
<g><path style="opacity:1" fill="#1c453c" d="M 106.5,482.5 C 150.474,482.886 194.14,487.719 237.5,497C 251.105,500.424 264.105,505.424 276.5,512C 290.061,523.228 301.894,536.061 312,550.5C 327.483,565.324 344.65,577.824 363.5,588C 377.888,595.861 392.555,603.194 407.5,610C 390.64,612.226 373.806,611.726 357,608.5C 314.527,598.675 274.027,583.508 235.5,563C 190.763,538.648 147.763,511.815 106.5,482.5 Z"/></g>
<g><path style="opacity:1" fill="#1c453c" d="M 898.5,481.5 C 905.841,481.334 913.174,481.5 920.5,482C 870.787,518.207 818.12,549.873 762.5,577C 727.167,593.778 690.167,605.111 651.5,611C 640.675,611.973 630.008,611.64 619.5,610C 644.956,598.444 669.289,585.111 692.5,570C 700.295,563.873 707.795,557.373 715,550.5C 725.106,536.061 736.939,523.228 750.5,512C 769.954,501.738 790.621,495.071 812.5,492C 841.228,487.825 869.895,484.325 898.5,481.5 Z"/></g>
<g><path style="opacity:1" fill="#1e463c" d="M 504.5,762.5 C 506.857,762.337 509.19,762.503 511.5,763C 513.667,765.167 515.833,767.333 518,769.5C 542.096,824.824 579.263,869.324 629.5,903C 642.372,911.435 656.372,917.102 671.5,920C 690.207,923.118 708.873,926.451 727.5,930C 730.032,930.612 730.865,932.112 730,934.5C 727.929,935.525 725.762,936.358 723.5,937C 697.78,937.438 672.447,934.438 647.5,928C 583.585,902.418 536.752,858.585 507,796.5C 505.333,791.5 503.667,786.5 502,781.5C 501.333,776.5 501.333,771.5 502,766.5C 502.662,765.016 503.496,763.683 504.5,762.5 Z"/></g>
<g><path style="opacity:1" fill="#1e463c" d="M 492.5,805.5 C 498.962,804.959 502.295,807.959 502.5,814.5C 500.744,824.946 496.577,834.279 490,842.5C 462.641,879.253 428.141,907.086 386.5,926C 359.822,936.627 332.156,940.627 303.5,938C 299.375,937.296 295.875,935.463 293,932.5C 292.135,930.112 292.968,928.612 295.5,928C 313.291,927.49 330.958,925.823 348.5,923C 411.416,901.9 459.416,862.733 492.5,805.5 Z"/></g>
<g><path style="opacity:1" fill="#1f473d" d="M 507.5,845.5 C 511.803,844.796 515.303,846.13 518,849.5C 531.01,877.509 550.176,900.342 575.5,918C 584.674,924.423 594.34,930.09 604.5,935C 619.675,940.336 635.009,945.17 650.5,949.5C 591.698,948.184 545.865,923.184 513,874.5C 507.881,866.483 505.214,857.817 505,848.5C 506.045,847.627 506.878,846.627 507.5,845.5 Z"/></g>
<g><path style="opacity:1" fill="#20473d" d="M 484.5,880.5 C 485.675,880.281 486.675,880.614 487.5,881.5C 490.135,887.853 489.968,894.186 487,900.5C 480.5,912.333 471.333,921.5 459.5,928C 434.751,943.479 407.918,950.979 379,950.5C 378.383,949.551 378.549,948.718 379.5,948C 411.451,940.025 440.117,925.691 465.5,905C 471.666,896.672 477.999,888.505 484.5,880.5 Z"/></g>
<g><path style="opacity:1" fill="#1f473d" d="M 510.5,904.5 C 513.32,904.248 515.986,904.748 518.5,906C 536.028,932.847 560.028,951.514 590.5,962C 602.342,965.635 614.342,968.635 626.5,971C 579.903,977.12 541.736,961.954 512,925.5C 509.162,921.323 506.995,916.823 505.5,912C 505.831,908.52 507.498,906.02 510.5,904.5 Z"/></g>
<g><path style="opacity:1" fill="#21473d" d="M 483.5,937.5 C 484.5,937.5 485.5,937.5 486.5,937.5C 487.101,947.466 483.101,954.966 474.5,960C 451.926,972.248 428.26,975.748 403.5,970.5C 427.832,968.444 450.498,961.278 471.5,949C 475.395,944.935 479.395,941.102 483.5,937.5 Z"/></g>
<g><path style="opacity:0.986" fill="#1a443b" d="M 356.5,1127.5 C 380.018,1125.72 393.018,1136.39 395.5,1159.5C 387.143,1160.22 378.809,1160.22 370.5,1159.5C 368.471,1149.83 362.805,1146.33 353.5,1149C 348.223,1153.41 348.556,1157.41 354.5,1161C 365.798,1163.43 376.465,1167.43 386.5,1173C 397.447,1183.74 400.614,1196.58 396,1211.5C 389.314,1227.19 377.314,1234.52 360,1233.5C 335.63,1233.96 323.13,1221.96 322.5,1197.5C 330.823,1196.73 339.156,1196.06 347.5,1195.5C 348.06,1208.92 354.726,1214.08 367.5,1211C 374.338,1203.82 373.338,1197.82 364.5,1193C 355.52,1190.45 346.853,1187.12 338.5,1183C 327.691,1175.26 323.525,1164.76 326,1151.5C 330.277,1135.95 340.443,1127.95 356.5,1127.5 Z"/></g>
<g><path style="opacity:0.988" fill="#1a443b" d="M 96.5,1129.5 C 105.167,1129.5 113.833,1129.5 122.5,1129.5C 122.333,1141.5 122.5,1153.5 123,1165.5C 131.5,1153.67 140,1141.83 148.5,1130C 160.167,1129.33 171.833,1129.33 183.5,1130C 173.309,1142.69 163.309,1155.52 153.5,1168.5C 163.833,1189.17 174.167,1209.83 184.5,1230.5C 173.52,1231.5 162.52,1231.83 151.5,1231.5C 146.498,1218 140.998,1204.67 135,1191.5C 130.76,1196.32 126.76,1201.32 123,1206.5C 122.5,1214.83 122.334,1223.16 122.5,1231.5C 113.833,1231.5 105.167,1231.5 96.5,1231.5C 96.5,1197.5 96.5,1163.5 96.5,1129.5 Z"/></g>
<g><path style="opacity:0.987" fill="#1a443b" d="M 192.5,1129.5 C 211.874,1129.08 231.207,1129.58 250.5,1131C 262.717,1135.75 268.384,1144.75 267.5,1158C 268.078,1171.86 262.078,1181.53 249.5,1187C 254.333,1189.17 257.833,1192.67 260,1197.5C 264.833,1208.5 269.667,1219.5 274.5,1230.5C 264.517,1231.67 254.517,1231.83 244.5,1231C 238.879,1218.13 232.879,1205.46 226.5,1193C 223.978,1191.66 221.311,1190.83 218.5,1190.5C 218.5,1204.17 218.5,1217.83 218.5,1231.5C 209.833,1231.5 201.167,1231.5 192.5,1231.5C 192.5,1197.5 192.5,1163.5 192.5,1129.5 Z M 218.5,1151.5 C 224.176,1151.33 229.843,1151.5 235.5,1152C 241.774,1155.93 242.94,1161.1 239,1167.5C 238.25,1168.13 237.416,1168.63 236.5,1169C 230.593,1170.36 224.593,1170.86 218.5,1170.5C 218.5,1164.17 218.5,1157.83 218.5,1151.5 Z"/></g>
<g><path style="opacity:0.988" fill="#1a443b" d="M 581.5,1129.5 C 590.751,1129.18 599.917,1129.52 609,1130.5C 614.688,1153.92 620.688,1177.25 627,1200.5C 632.994,1176.86 638.828,1153.19 644.5,1129.5C 653.5,1129.5 662.5,1129.5 671.5,1129.5C 661.298,1163.44 651.298,1197.44 641.5,1231.5C 631.584,1231.82 621.75,1231.49 612,1230.5C 601.363,1196.95 591.196,1163.28 581.5,1129.5 Z"/></g>
<g><path style="opacity:0.985" fill="#1a443b" d="M 701.5,1129.5 C 711.19,1129.17 720.856,1129.5 730.5,1130.5C 740.833,1163.83 751.167,1197.17 761.5,1230.5C 752.19,1231.5 742.857,1231.83 733.5,1231.5C 732.554,1226.22 731.221,1221.05 729.5,1216C 720.173,1215.5 710.839,1215.33 701.5,1215.5C 700.554,1220.78 699.221,1225.95 697.5,1231C 688.482,1231.83 679.482,1231.67 670.5,1230.5C 681.04,1196.88 691.373,1163.21 701.5,1129.5 Z M 715.5,1159.5 C 718.611,1170.28 721.277,1181.28 723.5,1192.5C 718.167,1192.5 712.833,1192.5 707.5,1192.5C 710.01,1181.46 712.677,1170.46 715.5,1159.5 Z"/></g>
<g><path style="opacity:0.972" fill="#1a443b" d="M 282.5,1129.5 C 291.5,1129.5 300.5,1129.5 309.5,1129.5C 309.5,1163.5 309.5,1197.5 309.5,1231.5C 300.5,1231.5 291.5,1231.5 282.5,1231.5C 282.5,1197.5 282.5,1163.5 282.5,1129.5 Z"/></g>
<g><path style="opacity:0.997" fill="#1a443b" d="M 409.5,1129.5 C 418.5,1129.5 427.5,1129.5 436.5,1129.5C 436.5,1141.17 436.5,1152.83 436.5,1164.5C 445.5,1164.5 454.5,1164.5 463.5,1164.5C 463.5,1152.83 463.5,1141.17 463.5,1129.5C 472.167,1129.5 480.833,1129.5 489.5,1129.5C 489.5,1163.5 489.5,1197.5 489.5,1231.5C 480.833,1231.5 472.167,1231.5 463.5,1231.5C 463.5,1217.83 463.5,1204.17 463.5,1190.5C 454.5,1190.5 445.5,1190.5 436.5,1190.5C 436.5,1204.17 436.5,1217.83 436.5,1231.5C 427.5,1231.5 418.5,1231.5 409.5,1231.5C 409.5,1197.5 409.5,1163.5 409.5,1129.5 Z"/></g>
<g><path style="opacity:0.981" fill="#1a443b" d="M 506.5,1129.5 C 515.5,1129.5 524.5,1129.5 533.5,1129.5C 533.5,1163.5 533.5,1197.5 533.5,1231.5C 524.5,1231.5 515.5,1231.5 506.5,1231.5C 506.5,1197.5 506.5,1163.5 506.5,1129.5 Z"/></g>
<g><path style="opacity:0.976" fill="#1a443b" d="M 768.5,1129.5 C 776.84,1129.33 785.173,1129.5 793.5,1130C 803.46,1147.42 813.293,1164.92 823,1182.5C 823.5,1164.84 823.667,1147.17 823.5,1129.5C 831.833,1129.5 840.167,1129.5 848.5,1129.5C 848.5,1163.5 848.5,1197.5 848.5,1231.5C 840.16,1231.67 831.827,1231.5 823.5,1231C 813.54,1213.58 803.707,1196.08 794,1178.5C 793.5,1196.16 793.333,1213.83 793.5,1231.5C 785.167,1231.5 776.833,1231.5 768.5,1231.5C 768.5,1197.5 768.5,1163.5 768.5,1129.5 Z"/></g>
<g><path style="opacity:0.986" fill="#1a443b" d="M 887.5,1129.5 C 897.167,1129.5 906.833,1129.5 916.5,1129.5C 926.448,1163.46 936.781,1197.29 947.5,1231C 938.149,1231.83 928.816,1231.67 919.5,1230.5C 918.167,1225.83 916.833,1221.17 915.5,1216.5C 906.167,1215.17 896.833,1215.17 887.5,1216.5C 886.167,1221.17 884.833,1225.83 883.5,1230.5C 874.525,1231.5 865.525,1231.83 856.5,1231.5C 866.526,1197.39 876.86,1163.39 887.5,1129.5 Z M 900.5,1160.5 C 901.586,1160.62 902.253,1161.29 902.5,1162.5C 904.837,1172.51 907.17,1182.51 909.5,1192.5C 904.167,1192.5 898.833,1192.5 893.5,1192.5C 895.833,1181.83 898.167,1171.17 900.5,1160.5 Z"/></g>
<g><path style="opacity:0.965" fill="#d1ad6c" d="M 16.5,1268.5 C 347.833,1268.5 679.167,1268.5 1010.5,1268.5C 1010.5,1275.17 1010.5,1281.83 1010.5,1288.5C 679.167,1288.5 347.833,1288.5 16.5,1288.5C 16.5,1281.83 16.5,1275.17 16.5,1268.5 Z"/></g>
<g><path style="opacity:0.979" fill="#1a443b" d="M 448.5,1312.5 C 457.983,1311.27 466.317,1313.77 473.5,1320C 483.36,1331.55 491.86,1344.05 499,1357.5C 505.445,1358.15 511.945,1358.82 518.5,1359.5C 522.006,1364.98 525.006,1370.64 527.5,1376.5C 520.833,1376.5 514.167,1376.5 507.5,1376.5C 507.667,1406.17 507.5,1435.84 507,1465.5C 501.333,1461.5 495.667,1457.5 490,1453.5C 489.832,1444.48 489.332,1435.48 488.5,1426.5C 475.575,1432.12 464.075,1430.12 454,1420.5C 449.651,1424.68 445.485,1429.01 441.5,1433.5C 442.803,1435.97 444.303,1438.3 446,1440.5C 453.019,1448.02 459.852,1455.68 466.5,1463.5C 463.859,1465.8 461.192,1468.14 458.5,1470.5C 447.77,1457.39 437.27,1444.05 427,1430.5C 422.638,1425.11 419.305,1419.11 417,1412.5C 415.378,1403.21 419.211,1399.71 428.5,1402C 430.321,1403.74 432.321,1405.24 434.5,1406.5C 435.499,1396.52 435.832,1386.52 435.5,1376.5C 425.81,1376.83 416.144,1376.5 406.5,1375.5C 403.5,1370.17 400.5,1364.83 397.5,1359.5C 428.495,1358.67 459.495,1358.17 490.5,1358C 485.256,1350.09 479.256,1342.75 472.5,1336C 466.271,1332.84 459.938,1332.68 453.5,1335.5C 449.3,1329.93 446.3,1323.77 444.5,1317C 445.167,1314.85 446.5,1313.35 448.5,1312.5 Z M 454.5,1376.5 C 465.833,1376.5 477.167,1376.5 488.5,1376.5C 488.666,1386.51 488.5,1396.51 488,1406.5C 477.293,1411.41 466.126,1412.74 454.5,1410.5C 454.5,1399.17 454.5,1387.83 454.5,1376.5 Z"/></g>
<g><path style="opacity:0.974" fill="#1a443b" d="M 155.5,1495.5 C 153.5,1495.5 151.5,1495.5 149.5,1495.5C 139.71,1493.51 132.21,1488.18 127,1479.5C 123.804,1471.5 125.304,1464.66 131.5,1459C 137.523,1456.1 143.69,1453.6 150,1451.5C 150.827,1447.46 150.66,1443.46 149.5,1439.5C 131.545,1450.88 115.378,1448.55 101,1432.5C 89.0673,1415.72 91.5673,1401.55 108.5,1390C 117.386,1387.09 126.386,1386.75 135.5,1389C 142.055,1392.55 146.888,1397.72 150,1404.5C 150.5,1395.17 150.666,1385.84 150.5,1376.5C 128.157,1376.83 105.823,1376.5 83.5,1375.5C 79.9942,1370.02 76.9942,1364.36 74.5,1358.5C 127.837,1358.83 181.171,1358.5 234.5,1357.5C 229.101,1347.85 228.268,1337.85 232,1327.5C 238.182,1319.24 246.515,1315.24 257,1315.5C 279.254,1319.54 299.421,1328.38 317.5,1342C 319.557,1343.72 321.224,1345.72 322.5,1348C 321.777,1350.55 320.444,1352.72 318.5,1354.5C 301.361,1340.29 281.694,1333.12 259.5,1333C 250.222,1336.3 245.556,1342.97 245.5,1353C 246.406,1354.7 246.739,1356.53 246.5,1358.5C 286.501,1358.33 326.501,1358.5 366.5,1359C 370.21,1364.25 373.544,1369.75 376.5,1375.5C 368.528,1376.5 360.528,1376.83 352.5,1376.5C 352.833,1406.17 352.5,1435.84 351.5,1465.5C 345.86,1461.69 340.36,1457.69 335,1453.5C 334.667,1445.5 334.333,1437.5 334,1429.5C 320.876,1442.77 306.709,1443.94 291.5,1433C 286.095,1428.94 282.262,1423.77 280,1417.5C 279.5,1403.84 279.333,1390.17 279.5,1376.5C 270.167,1376.5 260.833,1376.5 251.5,1376.5C 251.667,1406.17 251.5,1435.84 251,1465.5C 245.333,1461.5 239.667,1457.5 234,1453.5C 233.5,1427.84 233.333,1402.17 233.5,1376.5C 212.167,1376.5 190.833,1376.5 169.5,1376.5C 169.334,1385.51 169.5,1394.51 170,1403.5C 188.448,1391.65 202.448,1395.65 212,1415.5C 216.654,1432.55 213.82,1448.21 203.5,1462.5C 197.525,1458.52 191.858,1454.19 186.5,1449.5C 193.369,1439.05 197.536,1427.72 199,1415.5C 197.263,1413.38 195.096,1412.54 192.5,1413C 184.364,1416.23 177.031,1420.73 170.5,1426.5C 169.833,1440.17 169.167,1453.83 168.5,1467.5C 167.167,1466.83 165.833,1466.17 164.5,1465.5C 155.659,1466.96 147.325,1469.79 139.5,1474C 136.241,1478.55 137.407,1481.05 143,1481.5C 149.373,1480.36 155.54,1478.86 161.5,1477C 164.981,1481.31 168.647,1485.48 172.5,1489.5C 172.291,1490.09 171.957,1490.59 171.5,1491C 166.179,1493.06 160.845,1494.56 155.5,1495.5 Z M 298.5,1377.5 C 310.322,1376.5 322.322,1376.17 334.5,1376.5C 334.667,1387.51 334.5,1398.51 334,1409.5C 321.997,1399 310.164,1388.33 298.5,1377.5 Z M 298.5,1391.5 C 306.999,1399.16 315.666,1406.66 324.5,1414C 319.862,1418.65 314.529,1422.32 308.5,1425C 305.833,1425.67 303.167,1425.67 300.5,1425C 299.874,1424.25 299.374,1423.42 299,1422.5C 298.5,1412.17 298.334,1401.84 298.5,1391.5 Z M 126.5,1404.5 C 135.972,1405.07 143.639,1409.07 149.5,1416.5C 141.365,1422.41 132.698,1427.57 123.5,1432C 117.566,1434.76 113.732,1432.92 112,1426.5C 111.581,1415.67 116.414,1408.33 126.5,1404.5 Z"/></g>
<g><path style="opacity:0.976" fill="#1a443b" d="M 800.5,1315.5 C 813.584,1315.02 825.917,1317.85 837.5,1324C 850.732,1330.11 862.732,1337.94 873.5,1347.5C 872.189,1350.14 870.522,1352.47 868.5,1354.5C 851.354,1340.29 831.687,1333.12 809.5,1333C 802.93,1335.24 798.763,1339.74 797,1346.5C 796.501,1350.49 796.334,1354.49 796.5,1358.5C 845.505,1358.17 894.505,1358.5 943.5,1359.5C 947.31,1364.79 950.31,1370.46 952.5,1376.5C 945.167,1376.5 937.833,1376.5 930.5,1376.5C 930.803,1384.89 930.47,1393.22 929.5,1401.5C 928.624,1402.25 927.624,1402.75 926.5,1403C 912.833,1403.33 899.167,1403.67 885.5,1404C 878.963,1407.23 875.63,1412.56 875.5,1420C 877.625,1433.74 885.625,1439.74 899.5,1438C 902.362,1437.07 904.695,1435.4 906.5,1433C 903.092,1428.44 902.759,1423.78 905.5,1419C 907,1418.5 908.5,1418 910,1417.5C 919.306,1420.15 926.64,1425.48 932,1433.5C 932.667,1436.17 932.667,1438.83 932,1441.5C 930.357,1443.98 928.524,1446.31 926.5,1448.5C 931.228,1458.96 936.228,1469.29 941.5,1479.5C 938.176,1481.16 934.842,1482.83 931.5,1484.5C 927.261,1475.02 922.761,1465.69 918,1456.5C 905.043,1479.93 886.877,1485.1 863.5,1472C 858.005,1467.84 855.005,1462.34 854.5,1455.5C 845.611,1454.76 836.945,1452.92 828.5,1450C 814.029,1442.95 810.195,1432.12 817,1417.5C 828.114,1405.19 839.781,1404.52 852,1415.5C 857.797,1426.44 855.297,1434.94 844.5,1441C 848.741,1442.46 853.074,1442.79 857.5,1442C 860.718,1439.22 864.385,1437.22 868.5,1436C 860.842,1424.91 858.342,1412.74 861,1399.5C 863.344,1392.49 868.177,1388.33 875.5,1387C 887.829,1386.5 900.162,1386.33 912.5,1386.5C 912.5,1383.17 912.5,1379.83 912.5,1376.5C 875.833,1376.5 839.167,1376.5 802.5,1376.5C 802.833,1406.17 802.5,1435.84 801.5,1465.5C 795.833,1461.5 790.167,1457.5 784.5,1453.5C 783.5,1427.84 783.167,1402.18 783.5,1376.5C 775.167,1376.5 766.833,1376.5 758.5,1376.5C 758.667,1406.17 758.5,1435.84 758,1465.5C 756.137,1463.79 753.971,1462.79 751.5,1462.5C 744.936,1463.56 738.603,1465.39 732.5,1468C 729.936,1469.06 728.269,1470.9 727.5,1473.5C 728.048,1476.54 729.881,1477.88 733,1477.5C 739.086,1476.69 744.92,1475.02 750.5,1472.5C 754.657,1476.83 758.657,1481.33 762.5,1486C 750.991,1492.6 739.324,1492.93 727.5,1487C 716.855,1480.38 713.355,1471.21 717,1459.5C 723.227,1453.3 730.727,1449.64 739.5,1448.5C 739.407,1442.14 739.74,1435.8 740.5,1429.5C 730.167,1429.5 719.833,1429.5 709.5,1429.5C 709.665,1433.18 709.499,1436.85 709,1440.5C 706.503,1442.48 703.669,1442.98 700.5,1442C 694.37,1437.54 688.87,1432.37 684,1426.5C 681.812,1423.48 680.312,1420.14 679.5,1416.5C 679.632,1414.4 680.632,1412.9 682.5,1412C 685.146,1411.5 687.813,1411.34 690.5,1411.5C 690.5,1399.83 690.5,1388.17 690.5,1376.5C 680.833,1376.5 671.167,1376.5 661.5,1376.5C 661.667,1406.17 661.5,1435.84 661,1465.5C 654.823,1461.41 648.823,1457.08 643,1452.5C 642.667,1443.83 642.333,1435.17 642,1426.5C 629.127,1432.07 617.627,1430.07 607.5,1420.5C 603.648,1425.19 599.315,1429.35 594.5,1433C 602.42,1443.59 611.086,1453.59 620.5,1463C 617.984,1465.68 615.317,1468.18 612.5,1470.5C 600.77,1456.05 589.27,1441.39 578,1426.5C 574.889,1422.61 572.556,1418.28 571,1413.5C 568.606,1404.23 572.106,1400.4 581.5,1402C 583.833,1403.5 586.167,1405 588.5,1406.5C 589.499,1396.52 589.832,1386.52 589.5,1376.5C 579.81,1376.83 570.144,1376.5 560.5,1375.5C 557.041,1370.08 553.708,1364.58 550.5,1359C 628.833,1358.67 707.167,1358.33 785.5,1358C 779.921,1348.63 778.755,1338.79 782,1328.5C 786.222,1321.31 792.389,1316.98 800.5,1315.5 Z M 608.5,1376.5 C 619.833,1376.5 631.167,1376.5 642.5,1376.5C 642.832,1386.52 642.499,1396.52 641.5,1406.5C 630.959,1411.43 619.959,1412.76 608.5,1410.5C 608.5,1399.17 608.5,1387.83 608.5,1376.5 Z M 709.5,1376.5 C 719.5,1376.5 729.5,1376.5 739.5,1376.5C 739.5,1388.5 739.5,1400.5 739.5,1412.5C 729.5,1412.5 719.5,1412.5 709.5,1412.5C 709.5,1400.5 709.5,1388.5 709.5,1376.5 Z M 837.5,1418.5 C 844.648,1419.8 846.815,1423.8 844,1430.5C 841.629,1433.21 838.963,1435.54 836,1437.5C 828.301,1430.28 828.801,1423.95 837.5,1418.5 Z M 881.5,1447.5 C 887.501,1450.56 893.834,1452.72 900.5,1454C 895.551,1460.63 889.217,1465.29 881.5,1468C 873.489,1468.99 869.656,1465.49 870,1457.5C 872.984,1453.11 876.817,1449.77 881.5,1447.5 Z"/></g>
</svg>
