<?xml version="1.0" encoding="UTF-8"?>
<!DOCTYPE svg PUBLIC "-//W3C//DTD SVG 1.1//EN" "http://www.w3.org/Graphics/SVG/1.1/DTD/svg11.dtd">
<svg xmlns="http://www.w3.org/2000/svg" version="1.1" width="1028px" height="1496px" style="shape-rendering:geometricPrecision; text-rendering:geometricPrecision; image-rendering:optimizeQuality; fill-rule:evenodd; clip-rule:evenodd" xmlns:xlink="http://www.w3.org/1999/xlink">
<g><path style="opacity:0.922" fill="#fefffe" d="M 467.5,148.5 C 469.833,148.5 472.167,148.5 474.5,148.5C 476.289,164.314 477.956,180.147 479.5,196C 478.963,214.206 469.63,224.54 451.5,227C 444.167,227.667 436.833,227.667 429.5,227C 418.497,223.329 411.663,215.829 409,204.5C 407.165,188.486 405.331,172.486 403.5,156.5C 411.474,155.337 419.474,154.337 427.5,153.5C 429.297,169.504 431.13,185.504 433,201.5C 433.786,204.583 435.619,206.749 438.5,208C 449.149,211.033 454.815,207.2 455.5,196.5C 453.832,181.152 452.165,165.819 450.5,150.5C 456.389,150.55 462.056,149.884 467.5,148.5 Z"/></g>
<g><path style="opacity:0.92" fill="#fefffe" d="M 563.5,149.5 C 571.684,150.021 579.684,151.354 587.5,153.5C 584.341,171.077 582.675,188.744 582.5,206.5C 593.464,208.073 604.464,209.406 615.5,210.5C 614.986,216.822 614.653,223.155 614.5,229.5C 594.792,227.911 575.125,225.911 555.5,223.5C 557.803,198.777 560.469,174.11 563.5,149.5 Z"/></g>
<g><path style="opacity:0.918" fill="#fefffe" d="M 696.5,170.5 C 704.834,173.167 713.167,175.834 721.5,178.5C 722.749,187.662 724.749,196.662 727.5,205.5C 733.647,200.52 739.647,195.354 745.5,190C 746.729,189.219 748.062,188.719 749.5,188.5C 757.306,190.769 764.973,193.435 772.5,196.5C 759.13,207.276 745.63,217.943 732,228.5C 728.957,238.344 725.457,248.011 721.5,257.5C 714.277,254.759 706.943,252.425 699.5,250.5C 702.603,240.252 705.937,230.086 709.5,220C 705.238,203.882 700.572,187.882 695.5,172C 696.056,171.617 696.389,171.117 696.5,170.5 Z"/></g>
<g><path style="opacity:0.919" fill="#fefffe" d="M 318.5,174.5 C 319.833,174.5 321.167,174.5 322.5,174.5C 323.85,180.055 325.517,185.555 327.5,191C 320.586,194.526 313.586,197.86 306.5,201C 312.673,218.018 318.339,235.185 323.5,252.5C 317.297,253.623 311.297,255.456 305.5,258C 303.741,258.798 302.074,258.631 300.5,257.5C 295.084,240.582 289.084,223.916 282.5,207.5C 275.604,210.297 268.604,212.464 261.5,214C 259.655,208.471 257.655,202.971 255.5,197.5C 255.709,196.914 256.043,196.414 256.5,196C 277.463,189.292 298.13,182.125 318.5,174.5 Z"/></g>
<g><path style="opacity:0.92" fill="#fefffe" d="M 848.5,233.5 C 866.164,244 883.164,255.5 899.5,268C 896.382,272.397 893.382,276.897 890.5,281.5C 880.327,274.914 870.327,268.08 860.5,261C 859.668,260.312 859.002,260.479 858.5,261.5C 857.029,264.136 855.363,266.636 853.5,269C 863.167,275.5 872.833,282 882.5,288.5C 879.813,293.219 876.646,297.552 873,301.5C 863.764,295.463 854.597,289.296 845.5,283C 844.668,282.312 844.002,282.479 843.5,283.5C 841.625,286.751 839.625,289.918 837.5,293C 848.039,300.098 858.373,307.431 868.5,315C 865.742,320.093 862.575,324.927 859,329.5C 841.716,317.78 824.55,305.947 807.5,294C 821.047,273.735 834.714,253.568 848.5,233.5 Z"/></g>
<g><path style="opacity:0.927" fill="#fefffe" d="M 160.5,243.5 C 182.293,258.237 203.959,273.237 225.5,288.5C 219.121,293.778 212.287,298.444 205,302.5C 201.584,300.538 198.417,298.205 195.5,295.5C 188.914,299.709 182.414,304.043 176,308.5C 176.871,312.788 177.538,317.121 178,321.5C 171.667,325.833 165.333,330.167 159,334.5C 152.291,309.496 146.124,284.329 140.5,259C 140.833,258.167 141.167,257.333 141.5,256.5C 148.149,252.499 154.482,248.166 160.5,243.5 Z M 163.5,270.5 C 169.604,274.759 175.604,279.259 181.5,284C 177.833,286.5 174.167,289 170.5,291.5C 167.565,284.696 165.232,277.696 163.5,270.5 Z"/></g>
<g><path style="opacity:0.998" fill="#1b453c" d="M 485.5,278.5 C 578.916,273.856 666.249,294.356 747.5,340C 824.833,384.667 880,448.5 913,531.5C 953.868,665.525 925.035,782.025 826.5,881C 743.704,957.028 645.704,997.362 532.5,1002C 431.433,1005.74 338.767,980.076 254.5,925C 188.591,880.345 141.425,820.845 113,746.5C 75.1527,621.914 99.486,511.247 186,414.5C 255.275,342.941 339.442,299.441 438.5,284C 454.288,281.9 469.955,280.067 485.5,278.5 Z"/></g>
<g><path style="opacity:1" fill="#d0ad6c" d="M 716.5,380.5 C 716.167,396.847 716.501,413.18 717.5,429.5C 718.107,429.376 718.44,429.043 718.5,428.5C 732.761,421.205 747.428,414.705 762.5,409C 786.633,399.799 793.8,406.965 784,430.5C 778.327,444.016 771.494,456.849 763.5,469C 777.345,464.498 791.345,460.165 805.5,456C 816.226,452.944 826.892,452.944 837.5,456C 841.037,458.408 842.704,461.741 842.5,466C 839.002,479.504 832.835,491.671 824,502.5C 818.313,508.686 812.813,515.019 807.5,521.5C 808,521.833 808.5,522.167 809,522.5C 829.1,519.359 849.267,518.859 869.5,521C 875.334,521.055 880.501,522.888 885,526.5C 885.667,528.167 885.667,529.833 885,531.5C 876.655,543.853 866.822,555.02 855.5,565C 811.114,601.298 762.114,630.298 708.5,652C 669.495,665.149 629.495,669.815 588.5,666C 578.647,664.62 568.981,662.453 559.5,659.5C 548.66,698.132 556.16,732.799 582,763.5C 584.479,766.069 587.146,768.402 590,770.5C 593.201,766.964 596.701,763.797 600.5,761C 607.761,760.065 614.094,762.065 619.5,767C 626.269,774.525 633.269,781.858 640.5,789C 650.785,797.568 662.451,799.901 675.5,796C 681.242,794.197 686.909,792.197 692.5,790C 715.647,778.839 738.314,766.839 760.5,754C 790.349,741.006 819.016,743.006 846.5,760C 850.369,763.534 853.869,767.367 857,771.5C 858.534,775.711 858.867,780.044 858,784.5C 854.002,799.827 847.335,813.827 838,826.5C 813.714,858.454 785.214,885.954 752.5,909C 730.449,924.698 707.116,938.365 682.5,950C 638.48,969.239 594.147,970.239 549.5,953C 536.322,947.252 524.322,939.752 513.5,930.5C 474.086,961.154 429.753,971.654 380.5,962C 357.139,956.319 335.139,947.319 314.5,935C 272.061,910.826 234.561,880.326 202,843.5C 187.997,827.169 177.331,808.835 170,788.5C 168.114,782.792 168.114,777.125 170,771.5C 183.794,753.944 201.96,745.277 224.5,745.5C 242.15,745.72 258.817,749.886 274.5,758C 295.231,770.367 316.564,781.7 338.5,792C 351.188,797.694 364.188,798.694 377.5,795C 380.672,793.248 383.672,791.248 386.5,789C 393.731,781.858 400.731,774.525 407.5,767C 418.437,757.595 428.271,758.762 437,770.5C 460.775,748.932 472.608,721.932 472.5,689.5C 472.688,681.062 471.855,672.729 470,664.5C 469.902,662.381 469.069,660.714 467.5,659.5C 412.919,673.195 359.586,669.362 307.5,648C 258.262,626.397 212.929,598.731 171.5,565C 160.178,555.02 150.345,543.853 142,531.5C 141.319,526.004 143.819,523.004 149.5,522.5C 152.152,522.59 154.485,521.924 156.5,520.5C 163.649,519.963 170.816,519.629 178,519.5C 192.166,520.613 206.333,521.446 220.5,522C 205.864,508.036 194.364,491.869 186,473.5C 182.596,465.622 184.43,459.456 191.5,455C 197.415,453.473 203.415,453.139 209.5,454C 214.448,455.256 219.448,456.256 224.5,457C 237.523,461.232 250.523,465.232 263.5,469C 253.684,454.2 245.85,438.367 240,421.5C 235.787,409.388 239.954,404.222 252.5,406C 271.958,411.564 290.625,419.064 308.5,428.5C 308.56,429.043 308.893,429.376 309.5,429.5C 310.499,413.18 310.833,396.847 310.5,380.5C 309.979,375.179 310.979,370.179 313.5,365.5C 316.784,364.343 320.118,364.176 323.5,365C 341.151,372.743 356.651,383.577 370,397.5C 369.217,385.167 369.383,372.834 370.5,360.5C 371.525,357.026 372.192,353.36 372.5,349.5C 373.025,343.74 375.358,338.906 379.5,335C 384.419,334.286 388.753,335.619 392.5,339C 402.129,348.29 410.629,358.456 418,369.5C 419.374,361.336 421.374,353.336 424,345.5C 427.16,336.018 432.327,327.851 439.5,321C 446.268,317.304 452.601,317.971 458.5,323C 468.185,334.535 475.685,347.368 481,361.5C 486.394,348.45 493.061,336.116 501,324.5C 504.249,320.064 508.415,317.064 513.5,315.5C 515.299,315.577 516.966,316.077 518.5,317C 522.036,320.201 525.203,323.701 528,327.5C 534.751,338.403 540.751,349.737 546,361.5C 550.72,350.349 556.387,339.682 563,329.5C 575.537,314.112 586.87,315.112 597,332.5C 599.274,336.714 601.274,341.047 603,345.5C 605.626,353.336 607.626,361.336 609,369.5C 616.705,358.121 625.539,347.621 635.5,338C 645.262,331.496 651.428,333.996 654,345.5C 657.341,362.711 658.341,380.044 657,397.5C 670.349,383.577 685.849,372.743 703.5,365C 710.214,362.667 714.381,364.833 716,371.5C 716.498,374.482 716.665,377.482 716.5,380.5 Z"/></g>
<g><path style="opacity:1" fill="#677050" d="M 372.5,349.5 C 372.192,353.36 371.525,357.026 370.5,360.5C 370.116,356.511 370.783,352.845 372.5,349.5 Z"/></g>
<g><path style="opacity:1" fill="#1c453c" d="M 712.5,882.5 C 702.908,884.089 693.242,884.755 683.5,884.5C 638.615,881.808 601.449,863.474 572,829.5C 549.39,801.758 532.39,770.758 521,736.5C 516.729,734.504 512.229,734.004 507.5,735C 507,735.5 506.5,736 506,736.5C 494.61,770.758 477.61,801.758 455,829.5C 428.724,859.389 395.89,877.389 356.5,883.5C 347.518,884.218 338.518,884.552 329.5,884.5C 307.467,882.767 287.134,875.933 268.5,864C 239.575,845.075 216.075,820.909 198,791.5C 195.622,779.415 200.122,771.249 211.5,767C 216.5,766.333 221.5,766.333 226.5,767C 247.959,771.233 267.626,779.567 285.5,792C 294.5,799 303.5,806 312.5,813C 327.829,821.185 344.162,823.851 361.5,821C 385.374,817.736 404.708,806.736 419.5,788C 428.867,787.899 431.034,792.066 426,800.5C 405.801,823.311 380.635,837.811 350.5,844C 336.486,847.23 322.486,847.23 308.5,844C 296.923,839.705 287.256,832.705 279.5,823C 273.395,818.353 266.729,817.353 259.5,820C 254.871,829.481 256.538,837.815 264.5,845C 289.053,861.22 316.053,867.553 345.5,864C 384.78,858.945 417.28,841.445 443,811.5C 468.741,781.011 485.075,746.011 492,706.5C 493.349,689.671 492.349,673.005 489,656.5C 484.328,639.483 478.661,622.817 472,606.5C 469.249,596.994 467.249,587.327 466,577.5C 461.405,526.192 465.072,475.525 477,425.5C 483.186,402.801 492.853,381.801 506,362.5C 508.711,359.958 511.211,357.291 513.5,354.5C 525.418,367.313 534.585,381.979 541,398.5C 556.762,442.421 563.928,487.754 562.5,534.5C 562.725,551.554 561.892,568.554 560,585.5C 558.615,593.323 556.615,600.99 554,608.5C 545.44,629.178 539.107,650.512 535,672.5C 532.667,699.508 536.667,725.508 547,750.5C 562.604,789.095 587.438,820.262 621.5,844C 658.803,866.214 698.136,870.547 739.5,857C 750.798,853.445 760.298,847.278 768,838.5C 774.091,823.46 769.258,816.96 753.5,819C 745.872,824.96 738.538,831.293 731.5,838C 720.49,844.088 708.657,846.921 696,846.5C 659.43,844.046 628.43,829.713 603,803.5C 600.547,800.425 599.047,796.925 598.5,793C 599.542,787.977 602.542,786.31 607.5,788C 629.842,814.9 658.508,825.9 693.5,821C 700.879,819.318 707.879,816.652 714.5,813C 726.217,803.615 738.217,794.615 750.5,786C 765.468,777.12 781.468,770.787 798.5,767C 807.354,765.403 815.687,766.736 823.5,771C 831.294,780.365 831.461,789.865 824,799.5C 804.6,828.569 779.767,851.735 749.5,869C 737.63,874.79 725.297,879.29 712.5,882.5 Z"/></g>
<g><path style="opacity:1" fill="#1e463c" d="M 447.5,355.5 C 457.825,361.991 464.992,370.991 469,382.5C 470.005,397.305 466.505,410.972 458.5,423.5C 454.525,421.358 451.358,418.358 449,414.5C 440.77,400.833 437.77,386.166 440,370.5C 441.459,364.915 443.959,359.915 447.5,355.5 Z"/></g>
<g><path style="opacity:1" fill="#1e463c" d="M 577.5,355.5 C 579.017,355.511 580.184,356.177 581,357.5C 589.298,370.778 590.632,384.778 585,399.5C 582.94,404.62 580.607,409.62 578,414.5C 575.642,418.358 572.475,421.358 568.5,423.5C 560.792,410.882 557.292,397.216 558,382.5C 559.785,377.596 562.119,372.929 565,368.5C 569.37,364.298 573.537,359.964 577.5,355.5 Z"/></g>
<g><path style="opacity:1" fill="#1c453c" d="M 397.5,375.5 C 411.366,393.891 425.532,412.224 440,430.5C 444.149,438.705 445.483,447.372 444,456.5C 439.689,487.759 439.356,519.092 443,550.5C 447.014,573.894 451.014,597.227 455,620.5C 436.117,604.746 422.117,585.413 413,562.5C 402.078,533.142 395.745,502.809 394,471.5C 392.605,439.388 393.772,407.388 397.5,375.5 Z"/></g>
<g><path style="opacity:1" fill="#1c453c" d="M 580.5,570.5 C 581.222,570.082 581.722,569.416 582,568.5C 582.497,565.854 582.664,563.187 582.5,560.5C 585.319,540.117 586.652,519.617 586.5,499C 586.111,479.743 584.944,460.576 583,441.5C 583.739,437.615 585.073,433.948 587,430.5C 601.41,412.592 615.243,394.258 628.5,375.5C 630.532,383.026 631.699,390.693 632,398.5C 636.183,443.287 633.516,487.621 624,531.5C 618.008,558.146 606.674,582.146 590,603.5C 584.302,609.532 578.302,615.199 572,620.5C 574.717,603.865 577.55,587.199 580.5,570.5 Z"/></g>
<g><path style="opacity:1" fill="#1c453c" d="M 334.5,396.5 C 336.783,396.608 338.783,397.441 340.5,399C 347.167,404.333 353.833,409.667 360.5,415C 371.713,425.143 376.38,437.81 374.5,453C 374.749,460.967 373.916,468.8 372,476.5C 358.593,465.095 346.593,452.429 336,438.5C 333.611,424.5 333.111,410.5 334.5,396.5 Z"/></g>
<g><path style="opacity:1" fill="#1c453c" d="M 689.5,396.5 C 690.822,396.33 691.989,396.663 693,397.5C 693.858,411.239 693.191,424.906 691,438.5C 680.407,452.429 668.407,465.095 655,476.5C 651.692,461.17 651.692,445.837 655,430.5C 658.653,424.035 663.153,418.202 668.5,413C 675.4,407.255 682.4,401.755 689.5,396.5 Z"/></g>
<g><path style="opacity:1" fill="#8b8559" d="M 310.5,380.5 C 310.833,396.847 310.499,413.18 309.5,429.5C 308.893,429.376 308.56,429.043 308.5,428.5C 309.167,412.5 309.833,396.5 310.5,380.5 Z"/></g>
<g><path style="opacity:1" fill="#8a8459" d="M 716.5,380.5 C 717.167,396.5 717.833,412.5 718.5,428.5C 718.44,429.043 718.107,429.376 717.5,429.5C 716.501,413.18 716.167,396.847 716.5,380.5 Z"/></g>
<g><path style="opacity:1" fill="#1c453c" d="M 270.5,434.5 C 302.215,448.881 332.215,466.714 360.5,488C 368.753,494.251 375.586,501.751 381,510.5C 384.934,537.188 392.267,562.855 403,587.5C 410.427,601.848 419.927,614.681 431.5,626C 428.351,626.274 425.351,625.608 422.5,624C 391.015,607.991 364.181,586.158 342,558.5C 312.779,520.406 288.946,479.073 270.5,434.5 Z"/></g>
<g><path style="opacity:1" fill="#1c453c" d="M 754.5,433.5 C 735.895,486.352 707.729,533.686 670,575.5C 650.402,596.542 627.569,613.042 601.5,625C 599.553,625.991 597.553,626.325 595.5,626C 612.413,609.02 624.913,589.187 633,566.5C 638.278,548.054 642.611,529.388 646,510.5C 651.414,501.751 658.247,494.251 666.5,488C 694.415,467.593 723.749,449.426 754.5,433.5 Z"/></g>
<g><path style="opacity:1" fill="#1d463c" d="M 218.5,478.5 C 238.157,481.663 257.157,487.163 275.5,495C 286.368,506.57 293.702,520.07 297.5,535.5C 280.542,532.507 263.875,528.34 247.5,523C 235.575,509.587 225.908,494.754 218.5,478.5 Z"/></g>
<g><path style="opacity:1" fill="#1d453c" d="M 800.5,478.5 C 803.167,478.5 805.833,478.5 808.5,478.5C 801.092,494.754 791.425,509.587 779.5,523C 763.019,527.863 746.352,532.03 729.5,535.5C 733.298,520.07 740.632,506.57 751.5,495C 757.005,492.276 762.672,489.943 768.5,488C 779.183,484.507 789.85,481.34 800.5,478.5 Z"/></g>
<g><path style="opacity:1" fill="#8b855a" d="M 156.5,520.5 C 154.485,521.924 152.152,522.59 149.5,522.5C 151.515,521.076 153.848,520.41 156.5,520.5 Z"/></g>
<g><path style="opacity:1" fill="#1c453c" d="M 252.5,546.5 C 255.627,547.581 258.96,548.247 262.5,548.5C 281.204,550.792 299.204,555.625 316.5,563C 328,570.5 337.5,580 345,591.5C 359.23,607.072 375.73,619.572 394.5,629C 405.066,634.45 415.733,639.617 426.5,644.5C 417.348,645.494 408.015,645.827 398.5,645.5C 383.811,644.079 369.478,640.912 355.5,636C 321.483,624.49 289.15,609.49 258.5,591C 232.482,575.328 207.148,558.661 182.5,541C 205.921,541.649 229.255,543.483 252.5,546.5 Z"/></g>
<g><path style="opacity:1" fill="#1c453c" d="M 833.5,540.5 C 837.182,540.335 840.848,540.501 844.5,541C 793.257,579.466 737.59,610.466 677.5,634C 660.754,639.103 643.754,643.103 626.5,646C 617.482,646.832 608.482,646.665 599.5,645.5C 619.746,635.711 639.412,624.877 658.5,613C 670.707,603.793 681.207,592.96 690,580.5C 701.649,566.421 716.482,557.588 734.5,554C 767.235,546.47 800.235,541.97 833.5,540.5 Z"/></g>
<g><path style="opacity:1" fill="#8b855a" d="M 252.5,546.5 C 255.187,546.336 257.854,546.503 260.5,547C 261.416,547.278 262.082,547.778 262.5,548.5C 258.96,548.247 255.627,547.581 252.5,546.5 Z"/></g>
<g><path style="opacity:1" fill="#5b694c" d="M 582.5,560.5 C 582.664,563.187 582.497,565.854 582,568.5C 581.722,569.416 581.222,570.082 580.5,570.5C 580.753,566.96 581.419,563.627 582.5,560.5 Z"/></g>
<g><path style="opacity:1" fill="#3e5845" d="M 426.5,644.5 C 427.043,644.56 427.376,644.893 427.5,645.5C 417.675,646.823 408.008,646.823 398.5,645.5C 408.015,645.827 417.348,645.494 426.5,644.5 Z"/></g>
<g><path style="opacity:1" fill="#1e463c" d="M 506.5,769.5 C 508.527,769.338 510.527,769.505 512.5,770C 514,771.5 515.5,773 517,774.5C 536.792,819.898 567.292,856.398 608.5,884C 618.008,890.253 628.341,894.586 639.5,897C 656.363,899.206 673.03,902.373 689.5,906.5C 690.386,907.325 690.719,908.325 690.5,909.5C 682.289,911.45 673.955,911.95 665.5,911C 643.082,909.72 621.749,904.386 601.5,895C 559.007,871.84 527.507,838.34 507,794.5C 504.061,787.416 503.061,780.083 504,772.5C 505.045,771.627 505.878,770.627 506.5,769.5 Z"/></g>
<g><path style="opacity:1" fill="#1e463c" d="M 497.5,803.5 C 501.908,804.247 504.241,806.913 504.5,811.5C 502.733,821.367 498.566,830.033 492,837.5C 468.572,867.923 439.072,890.423 403.5,905C 393.7,908.162 383.7,910.496 373.5,912C 363.167,912.667 352.833,912.667 342.5,912C 340.051,911.275 337.717,910.275 335.5,909C 333.963,907.89 333.297,906.39 333.5,904.5C 350.694,903.781 367.694,901.614 384.5,898C 425.29,883.205 458.457,858.371 484,823.5C 487,818.167 490,812.833 493,807.5C 494.397,805.93 495.897,804.596 497.5,803.5 Z"/></g>
<g><path style="opacity:1" fill="#1f463c" d="M 623.5,920.5 C 620.038,921.482 616.371,921.815 612.5,921.5C 570.619,916.152 537.786,896.152 514,861.5C 511.667,856.833 509.333,852.167 507,847.5C 506.333,844.5 506.333,841.5 507,838.5C 509.925,835.941 512.925,835.941 516,838.5C 531.889,870.723 556.056,894.556 588.5,910C 599.998,914.084 611.665,917.584 623.5,920.5 Z"/></g>
<g><path style="opacity:1" fill="#1e463c" d="M 489.5,865.5 C 490.822,865.33 491.989,865.663 493,866.5C 494.456,874.045 493.123,881.045 489,887.5C 469.563,906.302 446.396,917.802 419.5,922C 414.136,922.829 408.802,922.663 403.5,921.5C 430.342,913.995 454.509,901.328 476,883.5C 479.947,877.057 484.447,871.057 489.5,865.5 Z"/></g>
<g><path style="opacity:1" fill="#9c8f5e" d="M 356.5,883.5 C 351.243,884.975 345.743,885.642 340,885.5C 336.317,885.499 332.817,885.165 329.5,884.5C 338.518,884.552 347.518,884.218 356.5,883.5 Z"/></g>
<g><path style="opacity:1" fill="#a89661" d="M 712.5,882.5 C 709.797,883.963 706.797,884.796 703.5,885C 704.696,885.654 704.696,886.154 703.5,886.5C 696.703,885.868 690.037,885.201 683.5,884.5C 693.242,884.755 702.908,884.089 712.5,882.5 Z"/></g>
<g><path style="opacity:1" fill="#1f473d" d="M 511.5,884.5 C 513.655,884.372 515.655,884.872 517.5,886C 531.713,906.954 550.713,921.954 574.5,931C 584.275,934.61 594.275,937.277 604.5,939C 566.854,943.339 536.021,930.839 512,901.5C 509.557,898.395 508.057,894.895 507.5,891C 507.434,887.913 508.768,885.746 511.5,884.5 Z"/></g>
<g><path style="opacity:1" fill="#20473d" d="M 488.5,911.5 C 489.5,911.5 490.5,911.5 491.5,911.5C 491.705,919.591 488.371,925.758 481.5,930C 463.322,939.947 444.322,942.78 424.5,938.5C 444.03,936.379 462.364,930.545 479.5,921C 482.704,917.964 485.704,914.797 488.5,911.5 Z"/></g>
<g><path style="opacity:1" fill="#6a7251" d="M 623.5,920.5 C 624.043,920.56 624.376,920.893 624.5,921.5C 620.351,922.809 616.351,922.809 612.5,921.5C 616.371,921.815 620.038,921.482 623.5,920.5 Z"/></g>
<g><path style="opacity:0.922" fill="#fefffe" d="M 380.5,1066.5 C 386.176,1066.33 391.843,1066.5 397.5,1067C 410.95,1070.02 417.616,1078.52 417.5,1092.5C 410.49,1092.67 403.49,1093 396.5,1093.5C 395.767,1083.76 390.934,1080.76 382,1084.5C 380.276,1086.9 380.276,1089.23 382,1091.5C 388.756,1093.98 395.59,1096.48 402.5,1099C 411.123,1101.95 416.623,1107.79 419,1116.5C 422.308,1134.4 415.475,1146.24 398.5,1152C 389.658,1153.13 380.992,1152.46 372.5,1150C 362.708,1143.59 357.708,1134.43 357.5,1122.5C 364.491,1121.74 371.491,1121.58 378.5,1122C 379.246,1132.08 384.579,1136.08 394.5,1134C 399.336,1130.17 399.67,1126 395.5,1121.5C 388.208,1118.67 380.874,1115.84 373.5,1113C 360.267,1104.67 356.767,1093.17 363,1078.5C 367.39,1072.26 373.223,1068.26 380.5,1066.5 Z"/></g>
<g><path style="opacity:0.916" fill="#fefffe" d="M 173.5,1067.5 C 181.167,1067.5 188.833,1067.5 196.5,1067.5C 196.334,1076.84 196.5,1086.17 197,1095.5C 203.5,1086.33 210,1077.17 216.5,1068C 225.827,1067.5 235.161,1067.33 244.5,1067.5C 244.649,1068.55 244.483,1069.55 244,1070.5C 236.286,1080.09 228.453,1089.59 220.5,1099C 229.295,1116.09 237.961,1133.26 246.5,1150.5C 237.518,1151.67 228.518,1151.83 219.5,1151C 214.926,1140.44 210.26,1129.94 205.5,1119.5C 202.009,1123.16 198.676,1126.99 195.5,1131C 196.643,1137.42 196.81,1143.92 196,1150.5C 188.587,1151.48 181.087,1151.81 173.5,1151.5C 173.5,1123.5 173.5,1095.5 173.5,1067.5 Z"/></g>
<g><path style="opacity:0.916" fill="#fefffe" d="M 251.5,1067.5 C 267.876,1067.09 284.21,1067.59 300.5,1069C 307.07,1071.24 311.237,1075.74 313,1082.5C 316.845,1096.96 312.345,1107.79 299.5,1115C 302.973,1117.14 305.806,1119.97 308,1123.5C 311.833,1132.5 315.667,1141.5 319.5,1150.5C 311.167,1151.83 302.833,1151.83 294.5,1150.5C 289.903,1140.54 285.403,1130.54 281,1120.5C 279.448,1119.03 277.614,1118.03 275.5,1117.5C 274.501,1128.81 274.168,1140.15 274.5,1151.5C 266.833,1151.5 259.167,1151.5 251.5,1151.5C 251.5,1123.5 251.5,1095.5 251.5,1067.5 Z M 274.5,1085.5 C 279.58,1085.25 284.58,1085.75 289.5,1087C 292.167,1091 292.167,1095 289.5,1099C 284.599,1100.33 279.599,1100.83 274.5,1100.5C 274.5,1095.5 274.5,1090.5 274.5,1085.5 Z"/></g>
<g><path style="opacity:0.928" fill="#fefffe" d="M 325.5,1067.5 C 332.833,1067.5 340.167,1067.5 347.5,1067.5C 347.5,1095.5 347.5,1123.5 347.5,1151.5C 340.167,1151.5 332.833,1151.5 325.5,1151.5C 325.5,1123.5 325.5,1095.5 325.5,1067.5 Z"/></g>
<g><path style="opacity:0.939" fill="#fefffe" d="M 429.5,1067.5 C 436.833,1067.5 444.167,1067.5 451.5,1067.5C 451.5,1077.17 451.5,1086.83 451.5,1096.5C 458.5,1096.5 465.5,1096.5 472.5,1096.5C 472.5,1086.83 472.5,1077.17 472.5,1067.5C 479.833,1067.5 487.167,1067.5 494.5,1067.5C 494.5,1095.5 494.5,1123.5 494.5,1151.5C 487.167,1151.5 479.833,1151.5 472.5,1151.5C 472.5,1140.17 472.5,1128.83 472.5,1117.5C 465.5,1117.5 458.5,1117.5 451.5,1117.5C 451.5,1128.83 451.5,1140.17 451.5,1151.5C 444.167,1151.5 436.833,1151.5 429.5,1151.5C 429.5,1123.5 429.5,1095.5 429.5,1067.5 Z"/></g>
<g><path style="opacity:0.887" fill="#fefffe" d="M 507.5,1067.5 C 515.167,1067.5 522.833,1067.5 530.5,1067.5C 530.5,1095.5 530.5,1123.5 530.5,1151.5C 522.833,1151.5 515.167,1151.5 507.5,1151.5C 507.5,1123.5 507.5,1095.5 507.5,1067.5 Z"/></g>
<g><path style="opacity:0.913" fill="#fefffe" d="M 568.5,1067.5 C 576.167,1067.5 583.833,1067.5 591.5,1067.5C 595.562,1086.08 600.395,1104.42 606,1122.5C 610.947,1104.26 615.447,1085.93 619.5,1067.5C 627.196,1067.17 634.862,1067.5 642.5,1068.5C 634.234,1095.46 626.068,1122.46 618,1149.5C 614.091,1150.8 609.925,1151.46 605.5,1151.5C 601.075,1151.46 596.909,1150.8 593,1149.5C 584.309,1122.27 576.143,1094.93 568.5,1067.5 Z"/></g>
<g><path style="opacity:0.924" fill="#fefffe" d="M 665.5,1067.5 C 674.27,1066.88 682.77,1067.55 691,1069.5C 699.069,1096.54 707.236,1123.54 715.5,1150.5C 707.855,1151.66 700.188,1151.83 692.5,1151C 691.111,1146.61 690.111,1142.11 689.5,1137.5C 681.833,1137.5 674.167,1137.5 666.5,1137.5C 665.815,1142.24 664.815,1146.91 663.5,1151.5C 655.804,1151.83 648.138,1151.5 640.5,1150.5C 649.446,1123 657.78,1095.33 665.5,1067.5 Z M 677.5,1092.5 C 680.047,1100.84 682.38,1109.34 684.5,1118C 680.129,1118.83 675.795,1118.66 671.5,1117.5C 674.264,1109.34 676.264,1101.01 677.5,1092.5 Z"/></g>
<g><path style="opacity:0.925" fill="#fefffe" d="M 720.5,1067.5 C 727.508,1067.33 734.508,1067.5 741.5,1068C 749.46,1082.09 757.294,1096.25 765,1110.5C 765.5,1096.17 765.667,1081.84 765.5,1067.5C 772.5,1067.5 779.5,1067.5 786.5,1067.5C 786.5,1095.5 786.5,1123.5 786.5,1151.5C 779.492,1151.67 772.492,1151.5 765.5,1151C 757.554,1136.95 749.721,1122.78 742,1108.5C 741.5,1122.83 741.333,1137.16 741.5,1151.5C 734.5,1151.5 727.5,1151.5 720.5,1151.5C 720.5,1123.5 720.5,1095.5 720.5,1067.5 Z"/></g>
<g><path style="opacity:0.926" fill="#fefffe" d="M 817.5,1067.5 C 825.5,1067.5 833.5,1067.5 841.5,1067.5C 849.837,1095.51 858.171,1123.51 866.5,1151.5C 858.833,1151.5 851.167,1151.5 843.5,1151.5C 842.185,1146.91 841.185,1142.24 840.5,1137.5C 832.833,1137.5 825.167,1137.5 817.5,1137.5C 816.503,1142.16 815.503,1146.83 814.5,1151.5C 806.804,1151.83 799.138,1151.5 791.5,1150.5C 800.33,1122.83 808.997,1095.17 817.5,1067.5 Z M 828.5,1092.5 C 830.652,1100.76 832.985,1109.09 835.5,1117.5C 831.205,1118.66 826.871,1118.83 822.5,1118C 825.203,1109.69 827.203,1101.19 828.5,1092.5 Z"/></g>
<g><path style="opacity:0.924" fill="#fefffe" d="M 108.5,1180.5 C 378.5,1180.5 648.5,1180.5 918.5,1180.5C 918.5,1186.17 918.5,1191.83 918.5,1197.5C 648.5,1197.5 378.5,1197.5 108.5,1197.5C 108.5,1191.83 108.5,1186.17 108.5,1180.5 Z"/></g>
<g><path style="opacity:0.888" fill="#fefffe" d="M 459.5,1216.5 C 467.395,1215.23 474.395,1217.06 480.5,1222C 488.858,1231.21 495.858,1241.38 501.5,1252.5C 507.052,1253.19 512.552,1253.85 518,1254.5C 520.3,1258.96 522.8,1263.3 525.5,1267.5C 520.208,1268.49 514.875,1268.83 509.5,1268.5C 509.833,1292.84 509.5,1317.18 508.5,1341.5C 503.833,1338.17 499.167,1334.83 494.5,1331.5C 493.669,1324.19 493.169,1316.86 493,1309.5C 482.465,1314.61 473.131,1312.95 465,1304.5C 462.167,1308.67 458.667,1312.17 454.5,1315C 461.313,1323.31 468.313,1331.48 475.5,1339.5C 473.167,1341.5 470.833,1343.5 468.5,1345.5C 456.6,1330.7 445.433,1315.36 435,1299.5C 432.851,1293.36 434.851,1289.69 441,1288.5C 444.072,1289.04 446.739,1290.37 449,1292.5C 449.5,1284.51 449.666,1276.51 449.5,1268.5C 441.826,1268.67 434.159,1268.5 426.5,1268C 423.409,1263.31 420.742,1258.48 418.5,1253.5C 443.836,1253.67 469.169,1253.5 494.5,1253C 490.211,1247.04 485.544,1241.38 480.5,1236C 475.491,1233.22 470.324,1233.05 465,1235.5C 461.673,1230.85 458.84,1225.85 456.5,1220.5C 457.172,1218.84 458.172,1217.51 459.5,1216.5 Z M 465.5,1269.5 C 474.652,1268.51 483.985,1268.17 493.5,1268.5C 493.666,1276.51 493.5,1284.51 493,1292.5C 484.658,1297.04 475.991,1298.04 467,1295.5C 466.83,1286.66 466.33,1277.99 465.5,1269.5 Z"/></g>
<g><path style="opacity:0.895" fill="#fefffe" d="M 300.5,1218.5 C 309.985,1218.62 318.985,1220.79 327.5,1225C 339.054,1229.93 349.387,1236.6 358.5,1245C 357.952,1247.27 356.786,1249.1 355,1250.5C 344.411,1242.46 332.578,1236.96 319.5,1234C 303.014,1230.33 295.347,1236.83 296.5,1253.5C 329.173,1253.17 361.84,1253.5 394.5,1254.5C 398.128,1259.09 400.628,1264.09 402,1269.5C 395.924,1268.52 389.758,1268.19 383.5,1268.5C 383.833,1292.84 383.5,1317.18 382.5,1341.5C 377.529,1338.36 372.696,1335.03 368,1331.5C 367.667,1325.17 367.333,1318.83 367,1312.5C 357.164,1322.86 346.33,1324.02 334.5,1316C 329.114,1312.39 325.281,1307.56 323,1301.5C 322.5,1290.51 322.333,1279.51 322.5,1268.5C 315.167,1268.5 307.833,1268.5 300.5,1268.5C 300.524,1293.01 300.524,1317.35 300.5,1341.5C 295.529,1338.36 290.696,1335.03 286,1331.5C 285.5,1310.5 285.333,1289.5 285.5,1268.5C 268.163,1268.33 250.83,1268.5 233.5,1269C 234.15,1275.78 234.817,1282.61 235.5,1289.5C 252.615,1280.94 264.115,1285.94 270,1304.5C 271.945,1317.14 269.112,1328.47 261.5,1338.5C 256.39,1335.55 251.723,1332.05 247.5,1328C 252.263,1320.14 255.93,1311.81 258.5,1303C 257.488,1299.33 255.155,1297.99 251.5,1299C 245.465,1301.71 239.965,1305.21 235,1309.5C 234.832,1320.85 234.332,1332.18 233.5,1343.5C 232.389,1342.39 231.055,1341.72 229.5,1341.5C 222.352,1342.62 215.685,1344.95 209.5,1348.5C 206.53,1352.22 207.53,1353.88 212.5,1353.5C 217.23,1352.82 221.897,1351.82 226.5,1350.5C 230.515,1353.52 233.848,1357.18 236.5,1361.5C 222.405,1368.76 210.239,1366.43 200,1354.5C 195.754,1346.94 196.92,1340.44 203.5,1335C 207.958,1333.02 212.458,1331.19 217,1329.5C 217.667,1326.5 217.667,1323.5 217,1320.5C 206.629,1328.28 196.129,1328.45 185.5,1321C 168.587,1309.05 167.254,1295.72 181.5,1281C 189.862,1277.13 198.528,1276.47 207.5,1279C 211.232,1281.95 214.399,1285.45 217,1289.5C 217.5,1282.51 217.666,1275.51 217.5,1268.5C 199.488,1268.83 181.488,1268.5 163.5,1267.5C 160.833,1263.17 158.167,1258.83 155.5,1254.5C 199.163,1253.67 242.83,1253.17 286.5,1253C 277.316,1235.56 281.983,1224.06 300.5,1218.5 Z M 339.5,1268.5 C 348.833,1268.5 358.167,1268.5 367.5,1268.5C 367.666,1277.51 367.5,1286.51 367,1295.5C 359.459,1287.29 351.293,1279.79 342.5,1273C 340.859,1271.87 339.859,1270.37 339.5,1268.5 Z M 339.5,1281.5 C 346.295,1287.12 352.962,1292.96 359.5,1299C 354.293,1305.3 347.793,1308.13 340,1307.5C 339.5,1298.84 339.334,1290.17 339.5,1281.5 Z M 199.5,1291.5 C 206.749,1292.29 212.749,1295.46 217.5,1301C 209.564,1307.8 200.564,1312.14 190.5,1314C 189.333,1313.5 188.5,1312.67 188,1311.5C 186.268,1301.44 190.102,1294.78 199.5,1291.5 Z"/></g>
<g><path style="opacity:0.892" fill="#fefffe" d="M 748.5,1218.5 C 770.899,1221.03 790.232,1230.03 806.5,1245.5C 805.081,1247.34 803.914,1249.34 803,1251.5C 788.653,1239.5 772.153,1233.66 753.5,1234C 745.094,1237.8 742.094,1244.3 744.5,1253.5C 783.835,1253.33 823.168,1253.5 862.5,1254C 865.624,1258.41 868.624,1262.91 871.5,1267.5C 865.202,1268.5 858.868,1268.83 852.5,1268.5C 852.813,1275.75 852.48,1282.92 851.5,1290C 840.167,1290.33 828.833,1290.67 817.5,1291C 811.439,1293.08 808.439,1297.42 808.5,1304C 808.759,1313.09 813.426,1318.26 822.5,1319.5C 826.118,1319.14 829.285,1317.81 832,1315.5C 831.425,1313.12 830.925,1310.62 830.5,1308C 830.354,1305.97 831.02,1304.3 832.5,1303C 841.797,1302.73 848.964,1306.57 854,1314.5C 855.343,1319.82 853.843,1324.15 849.5,1327.5C 853.333,1335.17 857.167,1342.83 861,1350.5C 861.749,1351.64 861.583,1352.64 860.5,1353.5C 857.973,1355.47 855.307,1356.14 852.5,1355.5C 849.058,1348.28 845.891,1340.95 843,1333.5C 832.717,1352.93 817.883,1357.43 798.5,1347C 793.985,1343.99 791.319,1339.82 790.5,1334.5C 784.647,1332.47 778.647,1330.97 772.5,1330C 757.581,1324.35 753.748,1314.51 761,1300.5C 771.058,1290.91 780.725,1291.25 790,1301.5C 793.622,1310.02 791.455,1316.52 783.5,1321C 787.219,1322.75 790.886,1322.75 794.5,1321C 796.833,1319.5 799.167,1318 801.5,1316.5C 794.564,1305.69 793.398,1294.36 798,1282.5C 800.863,1279.48 804.363,1277.65 808.5,1277C 818.161,1276.5 827.828,1276.33 837.5,1276.5C 837.5,1273.83 837.5,1271.17 837.5,1268.5C 807.833,1268.5 778.167,1268.5 748.5,1268.5C 748.177,1292.55 748.51,1316.55 749.5,1340.5C 749,1340.83 748.5,1341.17 748,1341.5C 743.315,1337.99 738.481,1334.65 733.5,1331.5C 732.5,1310.51 732.167,1289.51 732.5,1268.5C 726.167,1268.5 719.833,1268.5 713.5,1268.5C 713.833,1292.84 713.5,1317.18 712.5,1341.5C 711.086,1340.38 709.586,1339.38 708,1338.5C 701.927,1339.48 696.094,1341.31 690.5,1344C 686.132,1347.55 686.632,1349.71 692,1350.5C 697.187,1349.77 702.187,1348.44 707,1346.5C 710.009,1350.34 713.176,1354.01 716.5,1357.5C 706.536,1363.6 696.536,1363.77 686.5,1358C 678.097,1352.38 675.597,1344.88 679,1335.5C 684.133,1331.28 689.966,1328.28 696.5,1326.5C 697.493,1321.88 697.827,1317.21 697.5,1312.5C 689.5,1312.5 681.5,1312.5 673.5,1312.5C 675.372,1321.68 672.039,1324.51 663.5,1321C 657.922,1316.09 653.089,1310.59 649,1304.5C 647.511,1298.3 650.011,1295.63 656.5,1296.5C 656.5,1287.17 656.5,1277.83 656.5,1268.5C 649.167,1268.5 641.833,1268.5 634.5,1268.5C 634.833,1292.84 634.5,1317.18 633.5,1341.5C 628.833,1338.17 624.167,1334.83 619.5,1331.5C 618.669,1324.19 618.169,1316.86 618,1309.5C 607.472,1314.6 598.139,1312.93 590,1304.5C 587.167,1308.67 583.667,1312.17 579.5,1315C 586.313,1323.31 593.313,1331.48 600.5,1339.5C 598.192,1341.47 595.858,1343.47 593.5,1345.5C 584.476,1334.31 575.642,1322.98 567,1311.5C 563.889,1307.61 561.556,1303.28 560,1298.5C 558.281,1291.22 561.115,1288.05 568.5,1289C 570.333,1290.17 572.167,1291.33 574,1292.5C 574.5,1284.51 574.666,1276.51 574.5,1268.5C 566.826,1268.67 559.159,1268.5 551.5,1268C 548.409,1263.31 545.742,1258.48 543.5,1253.5C 607.168,1253.67 670.834,1253.5 734.5,1253C 732.683,1251.2 731.516,1249.03 731,1246.5C 727.363,1231.01 733.196,1221.68 748.5,1218.5 Z M 591.5,1268.5 C 600.506,1268.33 609.506,1268.5 618.5,1269C 617.167,1276.67 617.167,1284.33 618.5,1292C 610.341,1296.7 601.674,1298.03 592.5,1296C 591.515,1286.92 591.182,1277.75 591.5,1268.5 Z M 673.5,1268.5 C 681.507,1268.33 689.507,1268.5 697.5,1269C 696.167,1278.33 696.167,1287.67 697.5,1297C 689.507,1297.5 681.507,1297.67 673.5,1297.5C 673.5,1287.83 673.5,1278.17 673.5,1268.5 Z M 775.5,1303.5 C 783.906,1304.13 785.573,1307.8 780.5,1314.5C 775.26,1318.99 772.26,1317.65 771.5,1310.5C 771.577,1307.33 772.91,1305 775.5,1303.5 Z M 813.5,1326.5 C 817.815,1329.16 822.482,1330.99 827.5,1332C 823.29,1338.05 817.624,1341.89 810.5,1343.5C 803.898,1342.3 802.064,1338.63 805,1332.5C 807.671,1330.1 810.505,1328.1 813.5,1326.5 Z"/></g>
</svg>
