<svg width="1440" height="192" viewBox="0 0 1440 192" fill="none" xmlns="http://www.w3.org/2000/svg">
<path d="M1713.3 20.3123C1840.15 -28.5894 1840.15 20.3116 1967 66.9832C2093.85 113.655 2093.85 66.9834 2220.7 38.3602C2347.55 9.73701 2347.55 38.3608 2474.4 71.9305C2601.25 105.5 2601.25 71.9302 2728.1 35.9852C2854.95 0.0403267 2854.95 35.9855 2981.8 88.9813C3108.65 141.977 3108.65 88.9809 3235.5 33.4383C3362.35 -22.1043 3362.35 33.4383 3489.2 66.4178C3616.05 99.3973 3616.05 66.4177 3742.9 38.4188C3869.75 10.4199 3869.75 38.419 3996.6 56.8455C4123.45 75.272 4123.45 56.845 4250.3 34.7225C4377.15 12.5999 4377.15 34.7224 4504 56.6326V191.212H-570C-443.15 35.1589 -189.45 35.159 -62.5996 70.702C64.2499 106.245 64.2501 70.7018 191.1 21.6785C317.95 -27.3448 317.95 21.6784 444.8 76.0828C571.65 130.487 571.65 76.0829 698.5 43.493C825.35 10.9031 825.35 43.4929 952.2 54.6385C1079.05 65.7841 1079.05 54.6387 1205.9 51.1658C1332.75 47.693 1332.75 51.1659 1459.6 69.2137C1586.45 87.2616 1586.45 69.2139 1713.3 20.3123Z" fill="white"/>
</svg>
