<svg width="63" height="63" viewBox="0 0 63 63" fill="none" xmlns="http://www.w3.org/2000/svg">
<path d="M31.5 42C34.475 42 37.7781 41.4094 41.4094 40.2281C45.0406 39.0469 50.4875 36.9688 57.75 33.9937V33.0094C57.75 30.7781 56.8531 28.9844 55.0594 27.6281C53.2656 26.2719 51.2969 25.9 49.1531 26.5125C48.4094 26.7313 47.6551 26.9937 46.8904 27.3C46.1256 27.6062 45.108 28 43.8375 28.4813C41.1688 29.6188 38.9156 30.4062 37.0781 30.8438C35.2406 31.2812 33.3813 31.5 31.5 31.5C29.5312 31.5 27.6281 31.2708 25.7906 30.8123C23.9531 30.3538 21.6344 29.5549 18.8344 28.4156C17.7844 27.9781 16.877 27.6176 16.1123 27.3341C15.3475 27.0506 14.6143 26.7986 13.9125 26.5781C11.7688 25.8781 9.7895 26.2062 7.97475 27.5625C6.16 28.9188 5.25175 30.7344 5.25 33.0094V33.8625C10.9813 36.4875 16.0125 38.5 20.3438 39.9C24.675 41.3 28.3937 42 31.5 42ZM31.5 57.75C37.5375 57.75 42.8426 56.098 47.4154 52.794C51.9881 49.49 55.083 45.2576 56.7 40.0969C50.9688 42.5469 46.1562 44.352 42.2625 45.5122C38.3688 46.6725 34.7812 47.2518 31.5 47.25C28.175 47.25 24.3801 46.627 20.1154 45.381C15.8506 44.135 11.2017 42.3517 6.16875 40.0312C7.65625 45.4125 10.6531 49.7114 15.1594 52.9279C19.6656 56.1444 25.1125 57.7518 31.5 57.75ZM31.5 26.25C28.6125 26.25 26.1406 25.2219 24.0844 23.1656C22.0281 21.1094 21 18.6375 21 15.75C21 12.8625 22.0281 10.3906 24.0844 8.33437C26.1406 6.27812 28.6125 5.25 31.5 5.25C34.3875 5.25 36.8594 6.27812 38.9156 8.33437C40.9719 10.3906 42 12.8625 42 15.75C42 18.6375 40.9719 21.1094 38.9156 23.1656C36.8594 25.2219 34.3875 26.25 31.5 26.25Z" fill="#1B453C"/>
</svg>
