<svg width="53" height="53" viewBox="0 0 53 53" fill="none" xmlns="http://www.w3.org/2000/svg">
<path d="M4.41406 48.5834V44.1667C4.41406 44.1667 15.4557 39.75 26.4974 39.75C37.5391 39.75 48.5807 44.1667 48.5807 44.1667V48.5834H4.41406ZM24.9516 20.0959C22.3016 11.4834 8.83073 13.4709 8.83073 13.4709C8.83073 13.4709 9.2724 30.6959 21.8599 28.0459C20.9766 21.6417 17.6641 19.875 17.6641 19.875C23.8474 19.875 24.2891 27.3834 24.2891 27.3834V37.5417H28.7057V28.2667C28.7057 28.2667 28.7057 19.6542 35.3307 17.4459C35.3307 17.4459 30.9141 24.0709 30.9141 28.4875C46.3724 30.0334 46.3724 8.83336 46.3724 8.83336C46.3724 8.83336 26.7182 6.62503 24.9516 20.0959Z" fill="#1B453C"/>
</svg>
