<svg width="57" height="55" viewBox="0 0 57 55" fill="none" xmlns="http://www.w3.org/2000/svg">
<path d="M28.8958 5.32292C28.8958 6.73464 28.335 8.08855 27.3368 9.08679C26.3385 10.085 24.9846 10.6458 23.5729 10.6458C22.1612 10.6458 20.8073 10.085 19.809 9.08679C18.8108 8.08855 18.25 6.73464 18.25 5.32292C18.25 3.91119 18.8108 2.55729 19.809 1.55905C20.8073 0.560806 22.1612 0 23.5729 0C24.9846 0 26.3385 0.560806 27.3368 1.55905C28.335 2.55729 28.8958 3.91119 28.8958 5.32292Z" fill="#1B453C"/>
<path fill-rule="evenodd" clip-rule="evenodd" d="M3.04167 15.6161C2.57931 15.8831 2.19537 16.267 1.92843 16.7294C1.6615 17.1918 1.52097 17.7163 1.52097 18.2502C1.52097 18.7841 1.6615 19.3086 1.92843 19.7709C2.19537 20.2333 2.57931 20.6173 3.04167 20.8842V39.8019C2.15199 40.1164 1.38173 40.6991 0.836983 41.4697C0.292241 42.2402 -0.000180108 43.1607 8.32263e-08 44.1043V53.2293H3.04167V47.146H6.08333V53.2293H9.125V44.1043C9.12549 43.1604 8.83322 42.2396 8.28846 41.4688C7.74369 40.6979 6.97326 40.115 6.08333 39.8004V21.2918H15.2083V51.7085C15.2083 52.5152 15.5288 53.2889 16.0992 53.8593C16.6696 54.4297 17.4433 54.7502 18.25 54.7502C19.0567 54.7502 19.8304 54.4297 20.4008 53.8593C20.9712 53.2889 21.2917 52.5152 21.2917 51.7085V38.021H25.8542V51.7085C25.8542 52.5152 26.1746 53.2889 26.745 53.8593C27.3155 54.4297 28.0891 54.7502 28.8958 54.7502C29.7025 54.7502 30.4762 54.4297 31.0466 53.8593C31.617 53.2889 31.9375 52.5152 31.9375 51.7085V33.3323C34.1884 32.9448 36.2123 31.7276 37.6097 29.9209C39.007 28.1142 39.6763 25.8492 39.4853 23.5732C39.2943 21.2972 38.2569 19.1754 36.578 17.6269C34.8991 16.0783 32.7007 15.2154 30.4167 15.2085H6.08333V10.646H3.04167V15.6161ZM34.9792 24.3335C34.9792 23.5268 34.6587 22.7531 34.0883 22.1827C33.5179 21.6123 32.7442 21.2918 31.9375 21.2918V27.3752C32.7442 27.3752 33.5179 27.0547 34.0883 26.4843C34.6587 25.9139 34.9792 25.1402 34.9792 24.3335Z" fill="#1B453C"/>
<path d="M48.5383 17.6341C48.6244 17.828 48.6689 18.0378 48.6691 18.25V53.2292C48.6691 53.6325 48.5088 54.0193 48.2236 54.3046C47.9384 54.5898 47.5516 54.75 47.1482 54.75C46.7449 54.75 46.358 54.5898 46.0728 54.3046C45.7876 54.0193 45.6274 53.6325 45.6274 53.2292V38.1045C45.6259 38.8938 45.5666 39.4428 45.5666 39.4428C45.5666 39.4428 41.1136 40.0405 39.357 38.3022C37.6019 36.5639 38.0841 32.0364 38.0841 32.0364C38.0841 32.0364 42.5371 31.4387 44.2936 33.177C45.416 34.2872 45.6228 36.538 45.6274 38.0178V18.25C45.6274 18.031 45.673 17.8211 45.7582 17.6341C44.6723 16.4296 43.3461 14.6137 43.3461 12.9271C43.3461 10.0725 47.1482 6.84375 47.1482 6.84375C47.1482 6.84375 50.9503 10.0725 50.9503 12.9271C50.9503 14.6137 49.6241 16.4296 48.5383 17.6341Z" fill="#1B453C"/>
<path d="M49.9976 43.823C51.7542 42.0862 56.2072 42.6824 56.2072 42.6824C56.2072 42.6824 56.6893 47.2099 54.9342 48.9482C53.1777 50.685 48.7247 50.0889 48.7247 50.0889C48.7247 50.0889 48.2426 45.5613 49.9976 43.823ZM56.2072 21.3907C56.2072 21.3907 51.7542 20.793 49.9976 22.5314C48.2426 24.2697 48.7247 28.7972 48.7247 28.7972C48.7247 28.7972 53.1777 29.3949 54.9342 27.6566C56.6893 25.9183 56.2072 21.3907 56.2072 21.3907Z" fill="#1B453C"/>
</svg>
