<?xml version="1.0" encoding="UTF-8"?>
<!DOCTYPE svg PUBLIC "-//W3C//DTD SVG 1.1//EN" "http://www.w3.org/Graphics/SVG/1.1/DTD/svg11.dtd">
<svg xmlns="http://www.w3.org/2000/svg" version="1.1" width="90px" height="90px" style="shape-rendering:geometricPrecision; text-rendering:geometricPrecision; image-rendering:optimizeQuality; fill-rule:evenodd; clip-rule:evenodd" xmlns:xlink="http://www.w3.org/1999/xlink">
<g><path style="opacity:0.999" fill="#f9df83" d="M 9.5,-0.5 C 32.8333,-0.5 56.1667,-0.5 79.5,-0.5C 83.8333,1.83333 87.1667,5.16667 89.5,9.5C 89.5,32.8333 89.5,56.1667 89.5,79.5C 87.1667,83.8333 83.8333,87.1667 79.5,89.5C 56.1667,89.5 32.8333,89.5 9.5,89.5C 5.16667,87.1667 1.83333,83.8333 -0.5,79.5C -0.5,56.1667 -0.5,32.8333 -0.5,9.5C 1.83333,5.16667 5.16667,1.83333 9.5,-0.5 Z"/></g>
<g><path style="opacity:1" fill="#11100c" d="M 22.5,24.5 C 25.5719,24.1826 28.5719,24.5159 31.5,25.5C 28.8333,26.8333 28.8333,28.1667 31.5,29.5C 29.9223,30.2978 28.2556,30.7978 26.5,31C 28.2556,31.2022 29.9223,31.7022 31.5,32.5C 27.625,33.4865 27.625,34.6532 31.5,36C 24.9724,37.3498 24.9724,38.5165 31.5,39.5C 30.624,40.2508 29.624,40.7508 28.5,41C 29.624,41.2492 30.624,41.7492 31.5,42.5C 26.2702,43.9247 26.2702,45.0914 31.5,46C 27.625,47.3468 27.625,48.5135 31.5,49.5C 29.9223,50.2978 28.2556,50.7978 26.5,51C 28.2556,51.2022 29.9223,51.7022 31.5,52.5C 28.8333,53.8333 28.8333,55.1667 31.5,56.5C 29.9223,57.2978 28.2556,57.7978 26.5,58C 28.2556,58.2022 29.9223,58.7022 31.5,59.5C 30.624,60.2508 29.624,60.7508 28.5,61C 29.624,61.2492 30.624,61.7492 31.5,62.5C 28.5719,63.4841 25.5719,63.8174 22.5,63.5C 22.5,50.5 22.5,37.5 22.5,24.5 Z"/></g>
<g><path style="opacity:1" fill="#11100c" d="M 46.5,26.5 C 48.0174,26.5106 49.1841,27.1772 50,28.5C 53.5059,32.7747 54.5059,37.4414 53,42.5C 47.0225,47.102 42.8559,45.7686 40.5,38.5C 41.4566,33.9201 43.4566,29.9201 46.5,26.5 Z"/></g>
<g><path style="opacity:1" fill="#e1cb7e" d="M 43.5,33.5 C 44.2389,33.369 44.9056,33.5357 45.5,34C 42.4502,38.2501 43.4502,41.2501 48.5,43C 46.2992,43.8249 44.4659,43.3249 43,41.5C 42.3985,38.7795 42.5651,36.1128 43.5,33.5 Z"/></g>
<g><path style="opacity:1" fill="#343024" d="M 52.5,50.5 C 52.9623,49.1201 53.9623,48.4534 55.5,48.5C 58.2278,50.2353 60.8944,51.2353 63.5,51.5C 62.8333,51.8333 62.1667,52.1667 61.5,52.5C 58.6727,51.0678 55.6727,50.4012 52.5,50.5 Z"/></g>
<g><path style="opacity:1" fill="#010101" d="M 35.5,49.5 C 38.0795,50.2276 40.7462,50.7276 43.5,51C 40.905,51.2256 38.405,51.7256 36,52.5C 34.2716,51.6477 34.105,50.6477 35.5,49.5 Z"/></g>
<g><path style="opacity:1" fill="#27241c" d="M 52.5,50.5 C 50.7724,52.9238 48.7724,53.0904 46.5,51C 48.5005,51.7925 50.5005,51.6259 52.5,50.5 Z"/></g>
<g><path style="opacity:1" fill="#1a1914" d="M 32.5,56.5 C 32.56,55.9569 32.8933,55.6236 33.5,55.5C 34.6113,56.6113 35.9446,57.278 37.5,57.5C 41.5,54.8333 45.5,54.8333 49.5,57.5C 51.3178,56.3639 53.3178,55.6972 55.5,55.5C 58.0561,56.5244 60.7228,57.3577 63.5,58C 60.5818,58.7161 57.9151,58.2161 55.5,56.5C 51.5,59.1667 47.5,59.1667 43.5,56.5C 39.7752,59.0731 36.1085,59.0731 32.5,56.5 Z"/></g>
<g><path style="opacity:1" fill="#302d22" d="M 40.5,63.5 C 40.9623,62.1201 41.9623,61.4534 43.5,61.5C 45.5,62.1667 47.5,62.8333 49.5,63.5C 51.5,62.8333 53.5,62.1667 55.5,61.5C 58.0699,62.6169 60.7366,63.4503 63.5,64C 62.9747,64.6924 62.3081,65.1924 61.5,65.5C 59.5,64.5 57.5,63.5 55.5,62.5C 53.5,63.5 51.5,64.5 49.5,65.5C 46.7008,63.2301 43.7008,62.5634 40.5,63.5 Z"/></g>
<g><path style="opacity:1" fill="#423e2e" d="M 40.5,63.5 C 37.7728,65.8745 35.1061,65.5412 32.5,62.5C 32.6667,62.1667 32.8333,61.8333 33,61.5C 35.2276,63.1134 37.7276,63.78 40.5,63.5 Z"/></g>
</svg>
