<svg width="140" height="140" viewBox="0 0 140 140" fill="none" xmlns="http://www.w3.org/2000/svg">
<g clip-path="url(#clip0_234_531)">
<path d="M56.6914 -1.41016C55.3242 -0.753906 55.2148 -0.179688 55.2148 6.08203V11.8242L55.9805 12.6719C56.6367 13.3828 56.9648 13.5469 57.9492 13.5469C58.9336 13.5469 59.2617 13.3828 59.918 12.6719L60.6836 11.8242V5.86328C60.6836 0.175781 60.6562 -0.125 60.1094 -0.726562C59.5352 -1.32812 58.4961 -1.84766 57.8672 -1.84766C57.6758 -1.84766 57.1562 -1.65625 56.6914 -1.41016Z" fill="white"/>
<path d="M20.9805 13.3828C20.1055 13.9297 19.668 14.8047 19.668 15.9805C19.668 16.7188 20.2148 17.4024 23.5781 20.793C25.7109 22.9532 27.8164 24.8946 28.2539 25.1407C30.332 26.2344 32.7383 24.1289 32 21.8594C31.6992 20.9571 24.7539 13.8203 23.5781 13.2188C22.7578 12.8086 21.8555 12.8633 20.9805 13.3828Z" fill="white"/>
<path d="M88.2735 16.9375C83.707 21.4219 83.2149 22.2422 84.0625 23.8281C84.6641 25.0313 86.1133 25.6328 87.3164 25.2227C87.8906 25.0313 89.6406 23.4727 92.211 20.875C95.6289 17.4297 96.2305 16.6914 96.2305 15.9805C96.2305 14.1211 95.0274 12.918 93.1953 12.918C92.457 12.918 91.7735 13.4648 88.2735 16.9375Z" fill="white"/>
<path d="M53.4934 23.582C46.0833 24.7578 39.6575 28.1211 34.5442 33.4531C26.095 42.3125 23.2786 54.6445 27.0794 66.1016C28.2552 69.5742 30.0599 72.8555 32.8763 76.5742C37.388 82.5625 39.5481 86.4453 41.4075 92.0508C42.802 96.2344 43.4856 100.008 43.7317 105.094C43.9505 109.77 44.0599 110.289 45.0989 111.219C45.6731 111.738 46.1106 111.766 57.8138 111.766C70.8841 111.766 70.9388 111.766 71.6224 110.289C71.8411 109.879 72.0599 107.691 72.1966 105.203C72.7161 94.3477 75.7513 86.5 83.3528 76.2187C85.9231 72.7187 88.2747 68.1797 89.2317 64.8437C94.3724 46.8516 83.4622 28.4492 65.0872 24.1016C62.4075 23.4453 56.0638 23.1719 53.4934 23.582ZM64.9231 29.8711C74.1106 32.3867 81.302 39.5508 83.9817 48.9023C84.5286 50.7617 84.6106 51.6914 84.6106 55.7109C84.6106 59.7031 84.5286 60.6875 83.9817 62.6836C83.052 66.0742 81.302 69.4922 78.4856 73.293C74.5755 78.5703 72.2513 82.5898 70.2825 87.4844C68.2044 92.5977 67.1653 96.9727 66.6458 102.523L66.3177 106.16H57.9505H49.5833L49.2552 102.523C48.6536 95.8789 46.9856 89.6992 44.1692 83.875C42.4466 80.2656 41.1067 78.1328 37.6067 73.457C34.6536 69.5469 33.2044 66.7852 32.0833 63.0937C31.3997 60.8516 31.3177 60.2227 31.3177 55.9844C31.2903 51.9102 31.3724 51.0625 31.9192 49.1484C34.8177 39.1133 42.7747 31.5937 52.7552 29.4609C55.4895 28.8594 62.1067 29.0781 64.9231 29.8711Z" fill="white"/>
<path d="M5.9149 49.1758C5.53209 49.5586 5.12193 50.2148 5.0399 50.6523C4.82115 51.6914 5.53209 53.2227 6.43443 53.6328C6.87193 53.8242 9.14146 53.9336 12.8329 53.9336H18.5751L19.4227 53.168C20.1336 52.5117 20.2977 52.1836 20.2977 51.1992C20.2977 50.2148 20.1336 49.8867 19.4227 49.2305L18.5751 48.4648H12.5868H6.62584L5.9149 49.1758Z" fill="white"/>
<path d="M96.8047 48.9023C96.4492 49.1484 96.0117 49.7773 95.793 50.2695C95.4648 51.0625 95.4648 51.3359 95.793 52.1289C96.5312 53.8789 96.7773 53.9336 103.367 53.9336H109.273L109.984 53.2227C110.367 52.8398 110.777 52.1836 110.859 51.7461C111.078 50.707 110.367 49.1758 109.465 48.7656C109.027 48.5742 106.758 48.4648 103.121 48.4648C98.3086 48.4648 97.3516 48.5469 96.8047 48.9023Z" fill="white"/>
<path d="M45.5078 115.977C43.2656 116.934 43.3477 120.324 45.6445 121.117C46.9844 121.582 68.9141 121.582 70.2539 121.117C70.9375 120.898 71.3477 120.488 71.7031 119.777C72.332 118.52 72.1406 117.426 71.1836 116.523L70.4727 115.867L58.2774 115.812C51.5508 115.785 45.8086 115.867 45.5078 115.977Z" fill="white"/>
<path d="M50.1028 126.586C49.7747 126.641 49.1732 127.078 48.7903 127.516C47.8333 128.664 47.888 129.949 48.8997 131.098L49.6927 132H57.9505H66.2083L67.0013 131.098C68.0677 129.895 68.0677 128.637 67.0013 127.434L66.2083 126.531L58.4427 126.504C54.2044 126.477 50.431 126.504 50.1028 126.586Z" fill="white"/>
</g>
<defs>
<clipPath id="clip0_234_531">
<rect width="140" height="140" fill="white"/>
</clipPath>
</defs>
</svg>
