<svg width="100" height="100" viewBox="0 0 100 100" fill="none" xmlns="http://www.w3.org/2000/svg">
<g clip-path="url(#clip0_239_231)">
<g clip-path="url(#clip1_239_231)">
<path d="M98.3333 36.6879H93.3333V25.0251C93.3333 24.1087 92.5833 23.359 91.6667 23.359H58.7833C64.3167 18.5106 64.8667 10.0801 60.0167 4.54857C55.1667 -0.982917 46.7333 -1.53273 41.2 3.31565C35.6667 8.16403 35.1167 16.5946 39.9667 22.126C40.35 22.5592 40.7667 22.9758 41.2 23.359H8.33333C7.41667 23.359 6.66667 24.1087 6.66667 25.0251V36.6879H1.66667C0.75 36.6879 0 37.4376 0 38.354V85.0051C0 85.9214 0.75 86.6712 1.66667 86.6712H6.66667V98.334C6.66667 99.2503 7.41667 100 8.33333 100H91.6667C92.5833 100 93.3333 99.2503 93.3333 98.334V86.6712H98.3333C99.25 86.6712 100 85.9214 100 85.0051V38.354C100 37.4376 99.25 36.6879 98.3333 36.6879ZM40 13.3623C40 7.84747 44.4833 3.36563 50 3.36563C55.5167 3.36563 60 7.84747 60 13.3623C60 18.8771 55.5167 23.359 50 23.359C44.4833 23.359 40 18.8771 40 13.3623ZM3.33333 40.0201H13.3333V83.339H3.33333V40.0201ZM90 96.6679H70V94.0187L72.15 96.168L74.5 93.8188L69.5 88.8205C68.85 88.1707 67.8 88.1707 67.15 88.8205L62.15 93.8188L64.5 96.168L66.65 94.0187V96.6679H51.65V94.0187L53.8 96.168L56.15 93.8188L51.15 88.8205C50.5 88.1707 49.45 88.1707 48.8 88.8205L43.8 93.8188L46.15 96.168L48.3 94.0187V96.6679H33.3V94.0187L35.45 96.168L37.8 93.8188L32.8 88.8205C32.15 88.1707 31.1 88.1707 30.45 88.8205L25.45 93.8188L27.8 96.168L29.95 94.0187V96.6679H10V86.6712H15C15.9167 86.6712 16.6667 85.9214 16.6667 85.0051V81.6729H22.65L20.5 83.8221L22.85 86.1714L27.85 81.173C28.5 80.5232 28.5 79.4736 27.85 78.8238L22.85 73.8255L20.5 76.1747L22.65 78.324H16.6667V63.329H22.65L20.5 65.4783L22.85 67.8275L27.85 62.8291C28.5 62.1794 28.5 61.1297 27.85 60.4799L22.85 55.4816L20.5 57.8308L22.65 59.9801H16.6667V44.9851H22.65L20.5 47.1344L22.85 49.4836L27.85 44.4853C28.5 43.8355 28.5 42.7858 27.85 42.136L22.85 37.1377L20.5 39.4869L22.65 41.6362H16.6667V38.304C16.6667 37.3876 15.9167 36.6379 15 36.6379H10V26.6412H90V36.6379H85C84.0833 36.6379 83.3333 37.3876 83.3333 38.304V41.6362H77.35L79.5 39.4869L77.15 37.1377L72.15 42.136C71.5 42.7858 71.5 43.8355 72.15 44.4853L77.15 49.4836L79.5 47.1344L77.35 44.9851H83.3333V59.9801H77.35L79.5 57.8308L77.15 55.4816L72.15 60.4799C71.5 61.1297 71.5 62.1794 72.15 62.8291L77.15 67.8275L79.5 65.4783L77.35 63.329H83.3333V78.324H77.35L79.5 76.1747L77.15 73.8255L72.15 78.8238C71.5 79.4736 71.5 80.5232 72.15 81.173L77.15 86.1714L79.5 83.8221L77.35 81.6729H83.3333V85.0051C83.3333 85.9214 84.0833 86.6712 85 86.6712H90V96.6679ZM96.6667 83.339H86.6667V40.0201H96.6667V83.339Z" fill="#DB944B"/>
<path d="M65.0003 36.6879H58.3337V31.6895C58.3337 30.7732 57.5837 30.0234 56.667 30.0234H43.3337C42.417 30.0234 41.667 30.7732 41.667 31.6895V36.6879H35.0003C33.167 36.6879 31.667 38.1874 31.667 40.0201V83.339C31.667 85.1717 33.167 86.6712 35.0003 86.6712H65.0003C66.8337 86.6712 68.3337 85.1717 68.3337 83.339V40.0201C68.3337 38.1874 66.8337 36.6879 65.0003 36.6879ZM45.0003 33.3557H55.0003V36.6879H45.0003V33.3557ZM43.3337 40.0201H65.0003V41.6862C60.067 41.6862 55.2003 42.6692 50.667 44.6019C47.8337 45.8848 44.767 46.5846 41.667 46.6846C39.2337 46.6346 36.9003 45.7682 35.0003 44.252V40.0201H43.3337ZM35.0003 83.339V48.234C37.0337 49.3837 39.3337 50.0001 41.667 50.0168C45.167 49.9335 48.6337 49.1504 51.8337 47.7175C55.9837 45.9348 60.467 45.0018 65.0003 45.0184V83.339H35.0003Z" fill="#DB944B"/>
<path d="M52.6998 57.0144C53.6331 55.7648 55.0998 55.0151 56.6664 55.0151V51.6829C53.3331 51.6829 50.3331 53.6655 49.0164 56.7312C42.5831 57.2643 37.8164 62.9124 38.3664 69.3436C38.9164 75.7748 44.5498 80.5399 50.9831 79.9901C57.4164 79.4569 62.1831 73.8088 61.6331 67.3776C61.2164 62.3626 57.6164 58.164 52.6998 56.9978V57.0144ZM49.9998 76.6745C45.3998 76.6745 41.6664 72.9591 41.6498 68.3606C41.6498 64.3953 44.4331 60.9798 48.3331 60.18V65.0118H51.6664V60.18C56.1831 61.0964 59.0831 65.4949 58.1831 69.9934C57.3998 73.8755 53.9664 76.6745 49.9998 76.6745Z" fill="#DB944B"/>
<path d="M57.8503 7.86411L55.5003 5.51489L50.8669 10.1467C50.5836 10.0634 50.3003 10.0301 50.0169 10.0301C48.1836 10.0301 46.6836 11.5296 46.6836 13.3623C46.6836 15.195 48.1836 16.6945 50.0169 16.6945C51.8503 16.6945 53.3503 15.195 53.3503 13.3623C53.3503 13.079 53.3003 12.7958 53.2169 12.5126L57.8503 7.88077V7.86411Z" fill="#DB944B"/>
</g>
</g>
<defs>
<clipPath id="clip0_239_231">
<rect width="100" height="100" fill="white"/>
</clipPath>
<clipPath id="clip1_239_231">
<rect width="100" height="100" fill="white"/>
</clipPath>
</defs>
</svg>
