<svg width="100" height="100" viewBox="0 0 100 100" fill="none" xmlns="http://www.w3.org/2000/svg">
<g clip-path="url(#clip0_239_250)">
<path d="M91.2505 74.44L85.5705 45.92C85.4205 45.17 84.9805 44.51 84.3405 44.07C83.7005 43.64 82.9205 43.49 82.1705 43.64L74.8505 45.1C73.2805 45.42 72.2605 46.94 72.5705 48.51L72.6105 48.72C71.5005 49.08 70.3205 49.37 69.0805 49.52C71.0305 47.55 72.6805 45.29 73.9405 42.82C75.8705 39.04 76.8505 34.96 76.8505 30.7C76.8705 15.97 64.8905 3.98999 50.1705 3.98999C35.4505 3.98999 23.4505 15.97 23.4505 30.69C23.4505 36.82 25.5005 42.63 29.2705 47.34H27.7205C27.4905 46.24 26.6205 45.33 25.4505 45.09L18.1305 43.63C17.3805 43.48 16.6005 43.63 15.9605 44.06C15.3205 44.49 14.8805 45.14 14.7305 45.91L9.06047 74.44C8.91047 75.19 9.06047 75.97 9.49047 76.61C9.92047 77.25 10.5705 77.69 11.3405 77.84L18.6605 79.3C18.8605 79.34 19.0405 79.36 19.2305 79.36C20.5505 79.36 21.7305 78.45 22.0505 77.14L39.2005 94.29C40.2605 95.35 41.6705 95.93 43.1705 95.93C44.6705 95.93 46.0905 95.35 47.1405 94.29C47.8205 93.61 48.3105 92.77 48.5705 91.85L50.7805 94.06C52.9805 96.26 56.5305 96.26 58.7305 94.06C59.4305 93.36 59.9105 92.51 60.1705 91.61C61.1905 92.52 62.5105 93.02 63.8905 93.02C65.3905 93.02 66.8105 92.44 67.8605 91.38C68.9205 90.32 69.5005 88.91 69.5005 87.41C69.5005 87.31 69.5005 87.21 69.4905 87.11C71.0305 87.19 72.5905 86.65 73.7705 85.48C75.2305 84.02 75.7405 81.85 75.1805 79.91L78.2405 76.85L78.2805 77.05C78.5605 78.43 79.7705 79.38 81.1205 79.38C81.3005 79.38 81.5005 79.36 81.6905 79.32L89.0105 77.86C89.7605 77.71 90.4205 77.27 90.8605 76.63C91.2705 75.99 91.4305 75.22 91.2705 74.45L91.2505 74.44ZM43.6505 47.35H41.8105C41.4705 46.67 41.1605 45.94 40.8605 45.2H46.2305L43.6505 47.35ZM26.3705 32.14H35.5005C35.6005 35.72 36.0805 39.16 36.9005 42.3H29.3305C27.6105 39.2 26.5805 35.75 26.3705 32.14ZM73.9205 29.26H64.7905C64.6905 25.69 64.2105 22.24 63.3805 19.1H70.9405C72.6405 22.14 73.7005 25.59 73.9205 29.26ZM51.5905 42.31V32.15H61.9005C61.7905 35.76 61.2805 39.22 60.4005 42.31H51.5905ZM64.7805 32.15H73.9105C73.7005 35.78 72.6805 39.23 70.9505 42.31H63.3705C64.2005 39.16 64.6805 35.72 64.7805 32.15ZM61.9105 29.26H51.6005V19.1H60.3905C61.2505 22.15 61.7905 25.61 61.9105 29.26ZM51.5905 16.21V7.06999C54.7205 7.88999 57.5305 11.32 59.4205 16.2H51.5905V16.21ZM48.7105 7.06999V16.2H40.8805C42.7705 11.31 45.5605 7.87999 48.7105 7.06999ZM48.7105 19.09V29.25H38.4005C38.5105 25.6 39.0505 22.14 39.9205 19.09H48.7105ZM35.5205 29.26H26.3805C26.6005 25.59 27.6605 22.14 29.3605 19.1H36.9205C36.1005 22.24 35.6205 25.69 35.5205 29.26ZM38.4005 32.15H48.7105V42.31H39.9105C39.0305 39.21 38.5205 35.76 38.4105 32.15H38.4005ZM59.4405 45.18C59.2305 45.72 59.0105 46.24 58.7805 46.75C58.0805 46.29 57.3805 45.77 56.6605 45.18H59.4505H59.4405ZM62.5105 45.18H69.0705C67.8905 46.72 66.5005 48.13 64.9305 49.36C63.7705 49.14 62.5605 48.76 61.3005 48.16C61.7405 47.21 62.1505 46.23 62.5105 45.17V45.18ZM69.0405 16.21H62.5205C62.0205 14.77 61.4405 13.42 60.7905 12.17C60.0105 10.68 59.1605 9.37999 58.2305 8.28999C62.5505 9.84999 66.2905 12.63 69.0505 16.21H69.0405ZM42.0905 8.28999C41.1605 9.38999 40.3005 10.69 39.5305 12.17C38.8805 13.42 38.3005 14.77 37.8005 16.21H31.2705C34.0305 12.63 37.7705 9.84999 42.1005 8.28999H42.0905ZM31.2505 45.18H37.8005C38.0505 45.93 38.3405 46.64 38.6405 47.33H33.1305C32.4605 46.65 31.8305 45.94 31.2505 45.18ZM19.2005 76.48L11.8805 75.02V75L17.5505 46.48H17.5705L24.8905 47.93V47.95L19.2205 76.47L20.4705 77.19L19.2005 76.48ZM71.7105 83.43C70.6405 84.5 68.9105 84.5 67.8405 83.43L55.4005 70.99C54.8405 70.43 53.9205 70.43 53.3605 70.99C52.8005 71.55 52.8005 72.47 53.3605 73.03L65.8005 85.47C66.3105 85.98 66.6005 86.67 66.6005 87.41C66.6005 88.15 66.3105 88.83 65.8005 89.35C65.2905 89.86 64.6005 90.15 63.8605 90.15C63.1205 90.15 62.4405 89.86 61.9205 89.35L48.7705 76.2C48.2105 75.64 47.2905 75.64 46.7305 76.2C46.1705 76.76 46.1705 77.68 46.7305 78.24L56.6605 88.17C57.7205 89.24 57.7205 90.97 56.6505 92.04C55.5805 93.11 53.8505 93.11 52.7805 92.04L42.1605 81.41C41.6005 80.85 40.6805 80.85 40.1205 81.41C39.5605 81.97 39.5605 82.89 40.1205 83.45L45.0605 88.39C45.5705 88.9 45.8605 89.59 45.8605 90.33C45.8605 91.07 45.5705 91.75 45.0605 92.27C43.9905 93.34 42.2605 93.34 41.1905 92.27L22.6905 73.77L27.3705 50.26H40.1805L36.7405 53.13C35.0705 54.53 34.3405 56.43 34.7705 58.38L37.7405 72.01C37.8205 72.39 38.0605 72.72 38.3805 72.93C38.7005 73.14 39.1105 73.2 39.4905 73.1C47.5605 71.11 48.0805 65.21 48.5405 60.01C48.5705 59.67 48.6005 59.34 48.6305 59C49.2105 58.92 51.2905 59.48 54.3505 62.27L72.2405 80.42C72.7005 81.45 72.4805 82.67 71.6905 83.47L71.7105 83.43ZM73.4805 77.49L56.4105 60.17L56.3605 60.12C52.8905 56.96 49.6105 55.52 47.5605 56.28C46.5705 56.65 45.9305 57.49 45.8105 58.58V58.61C45.7805 58.98 45.7405 59.34 45.7105 59.7C45.2905 64.5 44.9805 68.09 40.2605 69.81L37.6205 57.7C37.3705 56.6 38.0305 55.78 38.6205 55.28L48.4205 47.1C50.2205 45.6 52.7505 45.68 54.7205 47.31C62.1405 53.43 68.3705 53.03 73.1805 51.54L77.5405 73.41L73.4805 77.47V77.49ZM88.4105 75.02L81.0905 76.48H81.0805L75.4105 47.93L82.7305 46.47H82.7405L88.4205 75V75.02H88.4105Z" fill="#DB944B"/>
</g>
<defs>
<clipPath id="clip0_239_250">
<rect width="82.3" height="91.94" fill="white" transform="translate(9 4)"/>
</clipPath>
</defs>
</svg>
