<svg width="108" height="108" viewBox="0 0 108 108" fill="none" xmlns="http://www.w3.org/2000/svg">
<g clip-path="url(#clip0_239_280)">
<path d="M103.859 79.9684C107.459 78.2684 108.989 74.0095 107.279 70.4305C107.081 70.0011 106.829 69.6074 106.559 69.2316L103.859 65.6526C102.491 63.8453 100.367 62.7895 98.0995 62.7895H80.9995V48.4737H87.5875C95.8675 48.4737 102.581 41.7811 102.599 33.5495V28.7895C102.599 27.8053 101.789 27 100.799 27H92.4115C86.8855 27 81.8095 30.0242 79.1995 34.8558C76.5895 30.0242 71.5135 27 65.9875 27H57.5995C56.6095 27 55.7995 27.8053 55.7995 28.7895V33.5495C55.7995 41.7811 62.5315 48.4558 70.8115 48.4737H77.3995V62.7895H30.5995V48.4737H37.1875C45.4675 48.4737 52.1815 41.7811 52.1995 33.5495V28.7895C52.1995 27.8053 51.3895 27 50.3995 27H42.0115C36.4855 27 31.4095 30.0242 28.7995 34.8558C26.1895 30.0242 21.1135 27 15.5875 27H7.19948C6.20948 27 5.39948 27.8053 5.39948 28.7895V33.5495C5.39948 41.7811 12.1315 48.4558 20.4115 48.4737H26.9995V62.7895H9.89948C7.63148 62.7895 5.50748 63.8453 4.13948 65.6526L1.43948 69.2316C-0.936518 72.3989 -0.270519 76.8905 2.93348 79.2526C3.31148 79.5389 3.72548 79.7716 4.13948 79.9684L1.43948 83.5474C-0.954518 86.7147 -0.306518 91.1884 2.87948 93.5684C4.12148 94.4989 5.63348 95 7.19948 95H100.799C104.777 95 107.999 91.7968 107.999 87.8421C107.999 86.2853 107.495 84.7821 106.559 83.5474L103.859 79.9684ZM92.4115 30.5789H98.9995V33.5495C98.9995 39.8126 93.8875 44.8768 87.5875 44.8947H80.9995V41.9242C80.9995 35.6611 86.1115 30.5968 92.4115 30.5789ZM59.3995 33.5495V30.5789H65.9875C72.2875 30.5789 77.3815 35.6611 77.3995 41.9242V44.8947H70.8115C64.5115 44.8947 59.4175 39.8126 59.3995 33.5495ZM42.0115 30.5789H48.5995V33.5495C48.5995 39.8126 43.4875 44.8768 37.1875 44.8947H30.5995V41.9242C30.5995 35.6611 35.7115 30.5968 42.0115 30.5789ZM8.99948 33.5495V30.5789H15.5875C21.8875 30.5789 26.9815 35.6611 26.9995 41.9242V44.8947H20.4115C14.1115 44.8947 9.01748 39.8126 8.99948 33.5495ZM4.31948 71.3789L7.01948 67.8C7.70348 66.9053 8.76548 66.3684 9.89948 66.3684H98.0995C99.2335 66.3684 100.295 66.9053 100.979 67.8L103.679 71.3789C104.867 72.9537 104.543 75.2084 102.959 76.3895C102.329 76.8547 101.573 77.1053 100.799 77.1053H7.19948C5.21948 77.1053 3.59948 75.4947 3.59948 73.5263C3.59948 72.7568 3.85148 72.0053 4.31948 71.3789ZM100.799 91.4211H7.19948C5.21948 91.4211 3.59948 89.8105 3.59948 87.8421C3.59948 87.0726 3.85148 86.321 4.31948 85.6947L7.01948 82.1158C7.70348 81.2211 8.76548 80.6842 9.89948 80.6842H98.0995C99.2335 80.6842 100.295 81.2211 100.979 82.1158L103.679 85.6947C104.867 87.2695 104.543 89.5242 102.959 90.7053C102.329 91.1705 101.573 91.4211 100.799 91.4211Z" fill="#DB944B"/>
<path d="M21.0956 37.7368H20.4116C18.7376 37.7368 17.2256 36.7526 16.5596 35.2316C16.2176 34.301 15.1736 33.8358 14.2376 34.1937C13.3016 34.5337 12.8336 35.5716 13.1936 36.5021C13.2116 36.5558 13.2476 36.6274 13.2656 36.681C14.5076 39.5263 17.3516 41.3516 20.4656 41.3337H21.1496C22.1396 41.3337 22.9496 40.5284 22.9496 39.5442C22.9496 38.56 22.1396 37.7547 21.1496 37.7547H21.0956V37.7368Z" fill="#DB944B"/>
<path d="M36.5031 41.3158H37.1871C40.3011 41.3337 43.1451 39.5084 44.3871 36.6632C44.7831 35.7684 44.3871 34.6947 43.4691 34.301C42.5511 33.9074 41.4891 34.301 41.0931 35.2137C40.4091 36.7526 38.8791 37.7368 37.1871 37.7189H36.5031C35.5131 37.7189 34.7031 38.5242 34.7031 39.5084C34.7031 40.4926 35.5131 41.2979 36.5031 41.2979V41.3158Z" fill="#DB944B"/>
<path d="M71.496 37.7368H70.812C69.138 37.7368 67.626 36.7526 66.96 35.2316C66.618 34.301 65.574 33.8358 64.638 34.1937C63.702 34.5337 63.234 35.5716 63.594 36.5021C63.612 36.5558 63.648 36.6274 63.666 36.681C64.908 39.5263 67.752 41.3516 70.866 41.3337H71.55C72.54 41.3337 73.35 40.5284 73.35 39.5442C73.35 38.56 72.54 37.7547 71.55 37.7547H71.496V37.7368Z" fill="#DB944B"/>
<path d="M86.9035 41.3158H87.5875C90.7015 41.3337 93.5455 39.5084 94.7875 36.6632C95.1835 35.7684 94.7875 34.6947 93.8695 34.301C92.9515 33.9074 91.8895 34.301 91.4935 35.2137C90.8095 36.7526 89.2795 37.7368 87.5875 37.7189H86.9035C85.9135 37.7189 85.1035 38.5242 85.1035 39.5084C85.1035 40.4926 85.9135 41.2979 86.9035 41.2979V41.3158Z" fill="#DB944B"/>
<path d="M10.8 73.5262H28.8C29.79 73.5262 30.6 72.7209 30.6 71.7367C30.6 70.7525 29.79 69.9473 28.8 69.9473H10.8C9.81 69.9473 9 70.7525 9 71.7367C9 72.7209 9.81 73.5262 10.8 73.5262Z" fill="#DB944B"/>
<path d="M97.2004 84.2632H79.2004C78.2104 84.2632 77.4004 85.0684 77.4004 86.0527C77.4004 87.0369 78.2104 87.8421 79.2004 87.8421H97.2004C98.1904 87.8421 99.0004 87.0369 99.0004 86.0527C99.0004 85.0684 98.1904 84.2632 97.2004 84.2632Z" fill="#DB944B"/>
</g>
<defs>
<clipPath id="clip0_239_280">
<rect width="108" height="68" fill="white" transform="translate(0 27)"/>
</clipPath>
</defs>
</svg>
