<svg width="116" height="116" viewBox="0 0 116 116" fill="none" xmlns="http://www.w3.org/2000/svg">
<g clip-path="url(#clip0_234_526)">
<path d="M53.4682 0.135979C36.7478 1.65395 21.6135 9.99145 11.69 23.1094C8.49551 27.3461 5.3916 33.0782 3.51113 38.1532C2.37832 41.2571 1.0416 46.6493 0.520508 50.1836C-0.0458984 54.1711 -0.0458984 62.2141 0.520508 65.9297C2.44629 78.5039 7.9291 89.6282 16.5158 98.3961C21.3189 103.313 25.9182 106.711 31.6728 109.611C46.1049 116.929 62.8705 117.971 77.8689 112.466C83.1025 110.563 89.7182 106.847 94.0908 103.381C96.4471 101.523 101.046 96.9461 102.972 94.5899C114.142 80.8602 118.401 62.6672 114.549 45.3125C113.643 41.3024 113.281 40.2829 112.442 39.4446C111.74 38.7422 111.604 38.6969 110.449 38.7875C109.021 38.9008 108.228 39.4899 107.843 40.668C107.639 41.2797 107.73 41.9141 108.387 44.4743C109.61 49.2094 110.109 53.0836 110.109 58C110.086 66.2243 108.568 73.1344 105.124 80.3618C101.205 88.6086 95.201 95.7227 87.7924 100.866C78.9791 107.006 68.9197 110.155 58.1127 110.155C53.7174 110.155 51.6783 109.973 47.6908 109.181C31.8541 106.009 18.1471 95.4735 11.1236 81.0188C6.13926 70.7555 4.59863 59.5633 6.68301 48.4844C8.24629 40.0336 11.9846 31.9 17.3314 25.2844C19.1439 23.0188 23.1314 19.0086 25.2385 17.3094C29.5658 13.8204 36.0908 10.286 41.3924 8.54144C47.7361 6.45707 52.5846 5.77738 59.54 5.95863C64.4111 6.07191 67.515 6.52504 72.001 7.72582C74.1986 8.31488 74.6744 8.38285 75.3314 8.15629C76.5549 7.74847 77.2572 6.7516 77.2572 5.39223C77.2572 4.41801 77.1666 4.16879 76.5096 3.51176C76.0338 3.03598 75.3088 2.65082 74.4252 2.37894C72.2275 1.74457 68.4213 0.928947 65.8838 0.543793C63.6408 0.226601 55.5752 -0.0452728 53.4682 0.135979Z" fill="white"/>
<path d="M93.8871 6.54768C93.4113 6.91018 89.1746 11.0563 84.4621 15.7688C77.2801 22.9961 75.8981 24.4914 75.6941 25.2617C75.5582 25.7828 75.4449 28.2977 75.4449 31.2656V36.3406L65.4988 46.3321C56.7988 55.0321 55.5301 56.4141 55.3941 57.1391C55.1676 58.2946 55.3941 59.0649 56.1645 59.8352C56.9348 60.6055 57.7051 60.8321 58.8605 60.6055C59.5855 60.4696 60.9449 59.2008 69.6676 50.5008L79.659 40.5547H84.734C87.702 40.5547 90.2168 40.4414 90.7379 40.3055C91.5082 40.1016 93.0035 38.7196 100.231 31.5375C104.943 26.825 109.089 22.5883 109.452 22.1125C110.2 21.093 110.313 19.8696 109.769 18.8047C109.18 17.6492 108.795 17.5586 103.539 17.4453L98.6676 17.3321L98.5543 12.461C98.441 7.20471 98.3504 6.81955 97.1949 6.23049C96.1301 5.68674 94.9066 5.80002 93.8871 6.54768ZM93.298 21.7047C93.9324 22.8149 94.816 23.1094 97.648 23.1094H100.254L94.4762 28.8867L88.6988 34.6641H85.0285H81.3355V30.9938V27.3008L87.0676 21.5688L92.777 15.8594L92.8902 18.5102C92.9582 20.0961 93.1168 21.3875 93.298 21.7047Z" fill="white"/>
<path d="M54.9634 34.9133C47.6002 36.0461 41.0525 40.668 37.7447 47.1024C32.0806 58.136 35.9548 71.6164 46.5353 77.7336C50.5002 80.0219 54.4423 80.9961 59.0189 80.8149C62.7572 80.6563 65.0455 80.0899 68.308 78.5039C75.8978 74.811 81.0408 67.0172 81.1767 58.9742C81.222 56.7086 81.1994 56.6633 80.565 55.9836C78.9111 54.2391 76.3056 54.8508 75.6712 57.1164C75.5353 57.5469 75.4447 58.4078 75.4447 59.0422C75.4447 60.6282 74.697 63.4602 73.7455 65.386C71.5478 69.8719 67.3791 73.293 62.5986 74.5617C60.4916 75.1282 56.7533 75.2414 54.7142 74.7883C48.2345 73.3836 43.1369 68.5352 41.415 62.1235C40.7806 59.7219 40.7806 55.8477 41.415 53.4461C43.0462 47.3289 47.8947 42.5485 54.0119 41.0078C55.0087 40.7586 56.3228 40.5547 56.9572 40.5547C59.2455 40.5547 60.4916 39.8524 60.922 38.3344C61.2166 37.3602 60.8767 36.25 60.0384 35.4571C59.4267 34.868 59.1548 34.7774 57.8181 34.7547C56.9798 34.7094 55.6884 34.8 54.9634 34.9133Z" fill="white"/>
</g>
<defs>
<clipPath id="clip0_234_526">
<rect width="116" height="116" fill="white"/>
</clipPath>
</defs>
</svg>
