<svg width="106" height="132" viewBox="0 0 106 132" fill="none" xmlns="http://www.w3.org/2000/svg">
<path d="M51.6914 -1.41016C50.3242 -0.753906 50.2148 -0.179688 50.2148 6.08203V11.8242L50.9805 12.6719C51.6367 13.3828 51.9648 13.5469 52.9492 13.5469C53.9336 13.5469 54.2617 13.3828 54.918 12.6719L55.6836 11.8242V5.86328C55.6836 0.175781 55.6562 -0.125 55.1094 -0.726562C54.5352 -1.32812 53.4961 -1.84766 52.8672 -1.84766C52.6758 -1.84766 52.1562 -1.65625 51.6914 -1.41016Z" fill="white"/>
<path d="M15.9805 13.3828C15.1055 13.9297 14.668 14.8047 14.668 15.9805C14.668 16.7188 15.2148 17.4024 18.5781 20.793C20.7109 22.9532 22.8164 24.8946 23.2539 25.1407C25.332 26.2344 27.7383 24.1289 27 21.8594C26.6992 20.9571 19.7539 13.8203 18.5781 13.2188C17.7578 12.8086 16.8555 12.8633 15.9805 13.3828Z" fill="white"/>
<path d="M83.2735 16.9375C78.707 21.4219 78.2149 22.2422 79.0625 23.8281C79.6641 25.0313 81.1133 25.6328 82.3164 25.2227C82.8906 25.0313 84.6406 23.4727 87.211 20.875C90.6289 17.4297 91.2305 16.6914 91.2305 15.9805C91.2305 14.1211 90.0274 12.918 88.1953 12.918C87.457 12.918 86.7735 13.4648 83.2735 16.9375Z" fill="white"/>
<path d="M48.4934 23.582C41.0833 24.7578 34.6575 28.1211 29.5442 33.4531C21.095 42.3125 18.2786 54.6445 22.0794 66.1016C23.2552 69.5742 25.0599 72.8555 27.8763 76.5742C32.388 82.5625 34.5481 86.4453 36.4075 92.0508C37.802 96.2344 38.4856 100.008 38.7317 105.094C38.9505 109.77 39.0599 110.289 40.0989 111.219C40.6731 111.738 41.1106 111.766 52.8138 111.766C65.8841 111.766 65.9388 111.766 66.6224 110.289C66.8411 109.879 67.0599 107.691 67.1966 105.203C67.7161 94.3477 70.7513 86.5 78.3528 76.2187C80.9231 72.7187 83.2747 68.1797 84.2317 64.8437C89.3724 46.8516 78.4622 28.4492 60.0872 24.1016C57.4075 23.4453 51.0638 23.1719 48.4934 23.582ZM59.9231 29.8711C69.1106 32.3867 76.302 39.5508 78.9817 48.9023C79.5286 50.7617 79.6106 51.6914 79.6106 55.7109C79.6106 59.7031 79.5286 60.6875 78.9817 62.6836C78.052 66.0742 76.302 69.4922 73.4856 73.293C69.5755 78.5703 67.2513 82.5898 65.2825 87.4844C63.2044 92.5977 62.1653 96.9727 61.6458 102.523L61.3177 106.16H52.9505H44.5833L44.2552 102.523C43.6536 95.8789 41.9856 89.6992 39.1692 83.875C37.4466 80.2656 36.1067 78.1328 32.6067 73.457C29.6536 69.5469 28.2044 66.7852 27.0833 63.0937C26.3997 60.8516 26.3177 60.2227 26.3177 55.9844C26.2903 51.9102 26.3724 51.0625 26.9192 49.1484C29.8177 39.1133 37.7747 31.5937 47.7552 29.4609C50.4895 28.8594 57.1067 29.0781 59.9231 29.8711Z" fill="white"/>
<path d="M0.914898 49.1758C0.532086 49.5586 0.121929 50.2148 0.0398982 50.6523C-0.178852 51.6914 0.532086 53.2227 1.43443 53.6328C1.87193 53.8242 4.14146 53.9336 7.83287 53.9336H13.5751L14.4227 53.168C15.1336 52.5117 15.2977 52.1836 15.2977 51.1992C15.2977 50.2148 15.1336 49.8867 14.4227 49.2305L13.5751 48.4648H7.58677H1.62584L0.914898 49.1758Z" fill="white"/>
<path d="M91.8047 48.9023C91.4492 49.1484 91.0117 49.7773 90.793 50.2695C90.4648 51.0625 90.4648 51.3359 90.793 52.1289C91.5312 53.8789 91.7773 53.9336 98.3672 53.9336H104.273L104.984 53.2227C105.367 52.8398 105.777 52.1836 105.859 51.7461C106.078 50.707 105.367 49.1758 104.465 48.7656C104.027 48.5742 101.758 48.4648 98.1211 48.4648C93.3086 48.4648 92.3516 48.5469 91.8047 48.9023Z" fill="white"/>
<path d="M40.5078 115.977C38.2656 116.934 38.3477 120.324 40.6445 121.117C41.9844 121.582 63.9141 121.582 65.2539 121.117C65.9375 120.898 66.3477 120.488 66.7031 119.777C67.332 118.52 67.1406 117.426 66.1836 116.523L65.4727 115.867L53.2774 115.812C46.5508 115.785 40.8086 115.867 40.5078 115.977Z" fill="white"/>
<path d="M45.1028 126.586C44.7747 126.641 44.1732 127.078 43.7903 127.516C42.8333 128.664 42.888 129.949 43.8997 131.098L44.6927 132H52.9505H61.2083L62.0013 131.098C63.0677 129.895 63.0677 128.637 62.0013 127.434L61.2083 126.531L53.4427 126.504C49.2044 126.477 45.431 126.504 45.1028 126.586Z" fill="white"/>
</svg>
