<?xml version="1.0" encoding="UTF-8"?>
<svg version="1.1" xmlns="http://www.w3.org/2000/svg" width="417" height="417">
<path d="M0 0 C3.50256961 1.93204347 5.13951458 3.9148633 7.30859375 7.2734375 C7.68397858 8.5955476 8.02735927 9.92815089 8.30859375 11.2734375 C9.48421875 11.4384375 10.65984375 11.6034375 11.87109375 11.7734375 C23.29430749 14.33194909 33.69173888 21.62991507 42.30859375 29.2734375 C43.20835937 30.06492188 44.108125 30.85640625 45.03515625 31.671875 C51.89006597 37.77610297 51.89006597 37.77610297 53.84375 40.09765625 C55.22707039 41.47278916 55.22707039 41.47278916 57.0859375 41.1953125 C60.17911206 39.91237894 63.00363438 38.23672885 65.87109375 36.5234375 C77.69709819 29.64742558 90.24868215 23.40484743 104.18359375 22.9609375 C109.44505178 22.66648182 111.95270704 20.69129869 115.5546875 16.96484375 C118.7200261 13.91230118 121.57648695 12.95657401 125.93359375 12.8359375 C132.5054232 12.991254 138.4224434 15.24827532 143.01171875 20.05859375 C147.31205212 25.87887254 148.14255964 31.23223182 147.30859375 38.2734375 C146.34375 40.28515625 146.34375 40.28515625 145.18359375 42.1484375 C142.61316974 46.66016076 143.68297202 49.97855043 144.7109375 54.890625 C147.57433728 71.09784203 143.72817621 87.71903789 139.30859375 103.2734375 C139.85684814 103.58982178 140.40510254 103.90620605 140.9699707 104.23217773 C173.70914531 123.22440272 173.70914531 123.22440272 182.30859375 138.2734375 C182.30859375 138.9334375 182.30859375 139.5934375 182.30859375 140.2734375 C183.27796875 140.3146875 184.24734375 140.3559375 185.24609375 140.3984375 C191.06342749 141.26157848 196.11236723 144.53109048 199.76953125 149.09765625 C202.71367408 154.24468609 203.20614328 159.46249826 202.30859375 165.2734375 C200.44484042 171.4933007 196.66506961 175.71804741 191.30859375 179.2734375 C187.7807557 180.89036327 185.86372748 181.33628283 181.99609375 180.8984375 C177.03658092 181.40279474 175.43977975 183.63592496 171.921875 186.98828125 C160.04539605 197.37354311 143.43251452 202.72500051 128.30859375 206.2734375 C128.2945752 207.25231934 128.2945752 207.25231934 128.28027344 208.25097656 C127.95997345 226.18149553 127.54704955 244.53125069 119.06640625 260.765625 C118.03741402 264.1708467 119.06015656 266.00762949 120.30859375 269.2734375 C120.75842647 275.98632573 118.38011972 281.07223958 114.30859375 286.2734375 C110.40997244 290.57643709 105.71545453 292.41914081 99.99609375 292.7734375 C93.75232136 292.52795585 87.90057666 289.98165283 83.56640625 285.453125 C80.30859375 281.05415784 80.30859375 281.05415784 80.30859375 278.2734375 C79.13296875 278.1084375 77.95734375 277.9434375 76.74609375 277.7734375 C64.74690328 275.0712576 54.26715128 267.35673367 45.30859375 259.2734375 C44.76976562 258.78810547 44.2309375 258.30277344 43.67578125 257.80273438 C40.19147485 254.65651707 36.7399678 251.47725097 33.30859375 248.2734375 C28.80761299 249.89517816 24.86243249 252.19063723 20.74609375 254.5859375 C7.4584758 262.13188039 -6.13032325 267.73111641 -21.69140625 267.2734375 C-21.95179688 267.87671875 -22.2121875 268.48 -22.48046875 269.1015625 C-24.60558881 272.91306816 -27.70481079 274.66492193 -31.69140625 276.2734375 C-39.33509971 277.69088066 -45.2374879 276.42727306 -51.625 272.0390625 C-55.90520211 268.38187657 -57.68262823 264.45057892 -58.62890625 258.8984375 C-59.0143425 253.87920094 -57.47732279 249.89156512 -55.69140625 245.2734375 C-54.92143387 242.45020542 -54.580005 240.82158031 -55.16088867 237.96337891 C-58.56015355 220.72771371 -55.42308664 201.66810888 -49.69140625 185.2734375 C-50.38234375 185.015625 -51.07328125 184.7578125 -51.78515625 184.4921875 C-65.58830811 178.70376898 -86.42974226 166.57964337 -92.63671875 152.0625 C-94.19107841 149.42584547 -95.98099502 149.30687281 -98.87890625 148.5234375 C-104.93079776 146.49819821 -108.29762334 143.65283668 -111.69140625 138.2734375 C-114.23026035 132.34944461 -113.92419078 127.21686273 -112.04296875 121.19921875 C-109.5922282 115.29720595 -105.54517671 111.76819508 -99.69140625 109.2734375 C-96.90625 108.9296875 -96.90625 108.9296875 -94.06640625 108.8359375 C-90.2129911 108.72964277 -90.2129911 108.72964277 -86.9296875 106.953125 C-85.85482419 105.74559594 -84.79037622 104.52874592 -83.734375 103.3046875 C-74.22283281 93.84770483 -53.18279397 84.53941634 -39.91796875 84.203125 C-39.18320313 84.22632813 -38.4484375 84.24953125 -37.69140625 84.2734375 C-37.85125 83.5825 -38.01109375 82.8915625 -38.17578125 82.1796875 C-40.9734654 66.4109223 -38.17174522 47.36039279 -31.77734375 32.76953125 C-29.75291247 28.12281092 -29.75291247 28.12281092 -30.69140625 23.2734375 C-31.67123131 15.64479954 -30.09968706 9.59584024 -25.69140625 3.2734375 C-17.54940736 -3.6869194 -9.52638613 -4.08895112 0 0 Z M-18.69140625 12.2734375 C-20.24165089 15.37392678 -19.9813264 17.85237968 -19.69140625 21.2734375 C-18.28262529 24.2636018 -18.28262529 24.2636018 -15.69140625 26.2734375 C-11.71138176 27.43126281 -9.66304911 27.72687083 -5.87890625 25.9609375 C-3.64375026 24.31109573 -3.64375026 24.31109573 -1.69140625 22.2734375 C-1.24670009 17.75225822 -1.11528273 15.35654971 -3.25390625 11.3359375 C-8.84091731 6.60846661 -13.38996285 7.855568 -18.69140625 12.2734375 Z M9.30859375 22.2734375 C9.02886719 22.86511719 8.74914062 23.45679687 8.4609375 24.06640625 C5.52396214 29.85536412 2.93629504 32.99913857 -2.69140625 36.2734375 C-8.92297964 38.21077814 -14.70738391 37.66704644 -20.69140625 35.2734375 C-27.46347125 49.17918263 -29.8864322 66.0328147 -26.69140625 81.2734375 C-26.02834473 81.21808838 -25.3652832 81.16273926 -24.68212891 81.10571289 C-22.69394617 80.94068926 -20.70556365 80.7780637 -18.71704102 80.6171875 C-16.43021436 80.42805516 -14.14421563 80.22865983 -11.85913086 80.01953125 C-6.74518755 79.57131148 -1.782836 79.16178058 3.34375 79.55078125 C10.65199946 80.00799334 15.28732053 79.5576048 20.95703125 74.55859375 C24.90395283 70.71072539 28.55442436 66.61436633 32.21630859 62.49755859 C36.6877 57.74442257 41.98593291 54.01622728 47.30859375 50.2734375 C45.33396087 47.9135104 43.34122973 45.58283865 41.30859375 43.2734375 C40.81359375 42.71011719 40.31859375 42.14679688 39.80859375 41.56640625 C31.74334743 32.9567558 21.29241454 26.44477402 10.30859375 22.2734375 C9.97859375 22.2734375 9.64859375 22.2734375 9.30859375 22.2734375 Z M119.30859375 27.2734375 C117.75868233 30.91235996 117.0282952 33.15224329 117.99609375 37.0234375 C120.04227128 40.5311704 121.16395285 41.917327 125.12109375 43.1484375 C129.05572364 43.30273671 131.01208663 42.37121476 134.30859375 40.2734375 C136.81000229 36.52132468 136.51474779 34.75400238 135.91015625 30.4375 C135.40125498 28.01713633 135.40125498 28.01713633 133.12109375 25.7109375 C127.97387175 23.08013514 123.71588182 23.47827278 119.30859375 27.2734375 Z M75.12109375 43.8359375 C74.40260254 44.21161865 73.68411133 44.5872998 72.94384766 44.97436523 C69.18290456 47.0176172 66.16916666 49.01371488 63.30859375 52.2734375 C63.74357178 52.74724854 64.1785498 53.22105957 64.62670898 53.70922852 C69.03147449 58.60904552 72.79135056 63.68722781 76.37109375 69.2109375 C76.86158203 69.95794922 77.35207031 70.70496094 77.85742188 71.47460938 C78.34791016 72.22162109 78.83839844 72.96863281 79.34375 73.73828125 C79.84028076 74.48029785 80.33681152 75.22231445 80.84838867 75.98681641 C82.30859375 78.2734375 82.30859375 78.2734375 83.59106445 80.71240234 C86.32042286 85.60597671 88.5008565 87.7886565 93.90625 89.5078125 C96.05313051 90.04627334 98.20885653 90.55039817 100.37109375 91.0234375 C102.61580628 91.57578265 104.85931732 92.13303495 107.1015625 92.6953125 C108.17325684 92.95763672 109.24495117 93.21996094 110.34912109 93.49023438 C115.10923679 94.74996471 119.53856713 96.55625968 124.05078125 98.5234375 C126.43259447 99.56497556 126.43259447 99.56497556 129.30859375 98.2734375 C130.17712845 95.70377276 130.84656979 93.28300102 131.43359375 90.6484375 C131.60246094 89.94847656 131.77132812 89.24851563 131.9453125 88.52734375 C133.6676016 81.21778607 134.47334443 74.14806515 134.43359375 66.6484375 C134.43746094 65.91109375 134.44132812 65.17375 134.4453125 64.4140625 C134.43843367 60.57567522 134.23747091 57.00369021 133.30859375 53.2734375 C132.02984375 53.3559375 130.75109375 53.4384375 129.43359375 53.5234375 C122.38743848 53.50120988 116.56967972 51.34209063 111.37109375 46.5859375 C108.90811823 42.63024955 107.53149484 38.74746587 106.30859375 34.2734375 C95.01474864 33.82800595 84.92773118 38.69141994 75.12109375 43.8359375 Z M46.74609375 63.7734375 C46.1207373 64.31718018 45.49538086 64.86092285 44.85107422 65.42114258 C42.99942685 67.03389076 41.15386902 68.6534071 39.30859375 70.2734375 C38.34308594 71.11261719 37.37757813 71.95179688 36.3828125 72.81640625 C33.30077307 75.49601262 33.30077307 75.49601262 30.30859375 78.2734375 C30.30859375 78.6034375 30.30859375 78.9334375 30.30859375 79.2734375 C30.9413623 79.3235498 31.57413086 79.37366211 32.22607422 79.42529297 C45.61529996 80.49323447 58.97000791 81.69032251 72.30859375 83.2734375 C69.75124887 77.83833795 67.00189328 73.1970711 63.24609375 68.5234375 C62.38011239 67.42455477 61.51422465 66.32559825 60.6484375 65.2265625 C59.87628906 64.25203125 59.10414063 63.2775 58.30859375 62.2734375 C57.75300781 61.48453125 57.19742188 60.695625 56.625 59.8828125 C56.19058594 59.35171875 55.75617188 58.820625 55.30859375 58.2734375 C51.74936528 58.2734375 49.32098123 61.51054516 46.74609375 63.7734375 Z M14.62109375 93.6484375 C13.53650683 95.23129406 12.45520984 96.81876497 11.46191406 98.46044922 C9.73370686 101.17714411 7.6871675 103.61234987 5.66381836 106.11279297 C3.37825306 108.98823554 1.2306848 111.95756121 -0.93017578 114.92724609 C-2.76751089 117.37481893 -4.70396083 119.71767969 -6.65625 122.07421875 C-13.23166627 130.11094022 -13.23166627 130.11094022 -15.70800781 139.88476562 C-14.74828542 145.52549723 -12.49865196 150.54939347 -9.97900391 155.65332031 C-8.70694345 158.24182104 -7.56740351 160.85586257 -6.453125 163.515625 C-4.67461699 167.71810891 -2.7686844 171.84103188 -0.78808594 175.95166016 C0.273635 178.19942642 1.26016798 180.46877013 2.23828125 182.75390625 C5.26902521 189.69862433 5.26902521 189.69862433 10.703125 194.75390625 C13.93033408 195.66343442 16.96479291 195.97789087 20.30859375 196.2734375 C22.0456984 196.5214489 23.78129506 196.78015066 25.515625 197.046875 C34.388627 198.38739497 43.3349739 199.68055899 52.3046875 200.1015625 C55.30859375 200.2734375 55.30859375 200.2734375 58.78125 200.8203125 C64.42493698 201.43442425 67.83000484 201.45933001 72.3671875 197.8203125 C75.08147458 194.89947436 77.42762193 191.73457611 79.73291016 188.48583984 C81.39313481 186.1547342 83.11433713 183.87968029 84.8515625 181.60546875 C87.86852889 177.63035712 90.80133021 173.60322625 93.69287109 169.53613281 C94.72914607 168.0849094 95.77551732 166.64081209 96.83447266 165.20605469 C98.18733881 163.37176942 99.50233868 161.51607774 100.80859375 159.6484375 C101.54078125 158.62492187 102.27296875 157.60140625 103.02734375 156.546875 C104.84690151 151.89812682 103.82950615 148.90160047 102.30859375 144.2734375 C102.05529297 143.4985498 101.80199219 142.72366211 101.54101562 141.92529297 C100.67941474 139.43673297 99.75720495 136.98011533 98.80859375 134.5234375 C98.46473633 133.6274585 98.12087891 132.73147949 97.76660156 131.80834961 C95.11185406 125.03166416 92.1775772 118.41090335 89.05859375 111.8359375 C88.64673828 110.96678711 88.23488281 110.09763672 87.81054688 109.20214844 C84.2734074 100.8928386 84.2734074 100.8928386 77.8828125 95.13671875 C74.36310102 94.46516352 70.85049211 93.81464839 67.30859375 93.2734375 C66.49390625 93.14340332 65.67921875 93.01336914 64.83984375 92.87939453 C59.0568835 91.97687004 53.26867386 91.23927493 47.44921875 90.61523438 C45.32484531 90.38403702 43.20236774 90.13482443 41.08203125 89.86914062 C26.73428516 87.51992063 26.73428516 87.51992063 14.62109375 93.6484375 Z M-2.5859375 89.578125 C-3.54177734 89.66707031 -4.49761719 89.75601563 -5.48242188 89.84765625 C-6.47951172 89.94691406 -7.47660156 90.04617187 -8.50390625 90.1484375 C-9.48939453 90.23996094 -10.47488281 90.33148438 -11.49023438 90.42578125 C-16.25961457 90.88061804 -20.97770951 91.39312062 -25.69140625 92.2734375 C-25.38296362 99.27508513 -24.24426045 106.00401217 -22.75390625 112.8359375 C-22.58407227 113.63370605 -22.41423828 114.43147461 -22.23925781 115.25341797 C-21.31980426 119.69590999 -21.31980426 119.69590999 -18.69140625 123.2734375 C-18.21832031 122.54640625 -17.74523437 121.819375 -17.2578125 121.0703125 C-10.24627578 110.40949644 -2.57050032 100.30598172 5.30859375 90.2734375 C2.19708164 89.2362668 0.62472039 89.27229128 -2.5859375 89.578125 Z M-64.25390625 104.2734375 C-64.89545654 104.593125 -65.53700684 104.9128125 -66.19799805 105.2421875 C-70.66564166 107.55378091 -74.65121475 110.27839206 -78.69140625 113.2734375 C-78.42328125 113.7890625 -78.15515625 114.3046875 -77.87890625 114.8359375 C-77.48703125 115.6403125 -77.09515625 116.4446875 -76.69140625 117.2734375 C-76.15515625 118.3253125 -75.61890625 119.3771875 -75.06640625 120.4609375 C-72.89033386 125.73286546 -72.68493329 130.55755807 -74.67578125 135.9296875 C-76.76944436 140.32379526 -78.85815455 144.15004723 -82.69140625 147.2734375 C-72.44824328 159.72125475 -60.64487972 169.14157291 -45.69140625 175.2734375 C-45.46590088 174.756604 -45.24039551 174.23977051 -45.00805664 173.70727539 C-43.92998218 171.24717955 -42.84332492 168.79103143 -41.75390625 166.3359375 C-41.35510254 165.43528564 -40.95629883 164.53463379 -40.54541016 163.60668945 C-37.50246821 156.83474533 -34.15493535 150.296244 -30.34790039 143.92016602 C-27.71437536 139.26525151 -27.38078276 136.63664678 -28.69140625 131.2734375 C-28.86236816 130.52280029 -29.03333008 129.77216309 -29.20947266 128.9987793 C-29.80185339 126.41660036 -30.43132637 123.84542889 -31.06640625 121.2734375 C-33.16364708 112.64233888 -35.04236784 104.00127492 -36.69140625 95.2734375 C-45.99321868 95.2734375 -56.06592977 100.18090258 -64.25390625 104.2734375 Z M95.30859375 100.2734375 C95.58010254 100.88638672 95.85161133 101.49933594 96.13134766 102.13085938 C101.54847634 114.3910389 106.80067768 126.64760753 111.30859375 139.2734375 C114.4802188 135.52515334 116.33552634 131.25829268 118.37109375 126.8359375 C118.72236328 126.08505859 119.07363281 125.33417969 119.43554688 124.56054688 C123.06709708 117.22671055 123.06709708 117.22671055 124.30859375 109.2734375 C120.79196667 107.94947262 117.26963895 106.64136748 113.74609375 105.3359375 C112.26012695 104.77616211 112.26012695 104.77616211 110.74414062 104.20507812 C105.5692155 102.29671703 100.81197028 100.7597106 95.30859375 100.2734375 Z M134.30859375 114.2734375 C133.91929687 115.26859375 133.53 116.26375 133.12890625 117.2890625 C129.38805183 126.68559701 125.20489888 135.75414235 120.59814453 144.75878906 C120.1854834 145.56541992 119.77282227 146.37205078 119.34765625 147.203125 C118.97850098 147.91710449 118.6093457 148.63108398 118.22900391 149.36669922 C115.88534461 154.22186609 116.97253394 157.12275088 118.49609375 162.0234375 C121.73049512 172.93371155 123.53874421 184.04787784 125.30859375 195.2734375 C134.6893186 192.99134303 143.72513202 190.42375685 152.49609375 186.3359375 C153.5178772 185.86897461 153.5178772 185.86897461 154.56030273 185.39257812 C159.45356196 183.02111332 163.33694198 179.970384 167.30859375 176.2734375 C167.04046875 175.6340625 166.77234375 174.9946875 166.49609375 174.3359375 C166.10421875 173.3253125 165.71234375 172.3146875 165.30859375 171.2734375 C165.02113281 170.61859375 164.73367188 169.96375 164.4375 169.2890625 C161.99203956 163.15910832 162.12720681 158.49992061 164.30859375 152.2734375 C166.26544085 148.801612 168.34627697 145.9395226 171.30859375 143.2734375 C164.99197091 129.61260724 150.06667404 122.00500355 137.30859375 115.2734375 C136.31859375 114.9434375 135.32859375 114.6134375 134.30859375 114.2734375 Z M-101.69140625 124.2734375 C-103.01368638 128.07499288 -102.89149792 129.75319916 -101.44140625 133.5234375 C-99.82080959 136.47906472 -99.82080959 136.47906472 -96.69140625 138.2734375 C-92.47962382 138.74141333 -90.40541511 138.73909545 -86.81640625 136.3984375 C-84.34428095 133.9263122 -83.78634646 132.9696657 -83.31640625 129.5234375 C-83.83855414 124.99815576 -85.2861879 123.25300355 -88.69140625 120.2734375 C-94.0001817 118.86061823 -98.06611927 120.09886462 -101.69140625 124.2734375 Z M-23.69140625 151.2734375 C-25.32890747 154.6007678 -26.94906048 157.93626951 -28.56640625 161.2734375 C-29.02660156 162.20800781 -29.48679687 163.14257812 -29.9609375 164.10546875 C-32.54489798 169.46063322 -34.49537242 174.444491 -35.69140625 180.2734375 C-21.50373744 185.86047791 -21.50373744 185.86047791 -6.69140625 189.2734375 C-8.34508172 183.84372233 -10.64298478 178.79583763 -13.00390625 173.6484375 C-16.37199787 166.24202095 -19.64023775 158.81702997 -22.69140625 151.2734375 C-23.02140625 151.2734375 -23.35140625 151.2734375 -23.69140625 151.2734375 Z M173.30859375 156.2734375 C172.08102086 159.34236972 172.15336526 160.73013779 173.05859375 163.8984375 C174.97753928 167.544434 176.1230663 168.90460674 180.12109375 170.1484375 C184.05572364 170.30273671 186.01208663 169.37121476 189.30859375 167.2734375 C191.80018415 163.5360519 191.7665266 161.70012167 191.30859375 157.2734375 C189.5129697 154.52014729 188.25604453 152.74716289 185.30859375 151.2734375 C179.65664556 150.50271729 177.18341874 152.21838809 173.30859375 156.2734375 Z M108.30859375 166.2734375 C107.08535953 167.850525 105.90660068 169.46213622 104.74609375 171.0859375 C104.02164063 172.09269531 103.2971875 173.09945312 102.55078125 174.13671875 C101.13837837 176.11260641 99.72680263 178.08908584 98.31640625 180.06640625 C94.08589905 185.95343736 89.65458928 191.60067931 84.99609375 197.15625 C83.20471268 198.95253261 83.20471268 198.95253261 83.30859375 200.2734375 C94.10767728 199.84010574 104.66237429 199.24212799 115.30859375 197.2734375 C114.68661804 193.7937233 114.06045142 190.31477527 113.43359375 186.8359375 C113.25957031 185.86205078 113.08554687 184.88816406 112.90625 183.88476562 C111.83960465 177.9787108 110.65150877 172.12298174 109.30859375 166.2734375 C108.97859375 166.2734375 108.64859375 166.2734375 108.30859375 166.2734375 Z M-39.69140625 190.2734375 C-42.54184719 198.50650722 -44.16609254 206.43899549 -45.00390625 215.0859375 C-45.0920459 215.95629639 -45.18018555 216.82665527 -45.27099609 217.72338867 C-46.12150551 227.22949687 -46.12150551 227.22949687 -43.69140625 236.2734375 C-41.84309826 236.45383236 -39.98547179 236.54178888 -38.12890625 236.5859375 C-32.1349195 236.9993159 -28.18709514 238.25555129 -23.69140625 242.2734375 C-19.97529203 246.67409908 -18.83333636 250.75410865 -17.69140625 256.2734375 C-2.83118012 254.66842239 10.95511768 248.56210742 23.30859375 240.2734375 C23.96859375 239.2834375 24.62859375 238.2934375 25.30859375 237.2734375 C24.63054687 236.4484375 23.9525 235.6234375 23.25390625 234.7734375 C17.52456249 227.6985739 12.35006329 220.50034634 7.65869141 212.69335938 C6.90205995 211.43708971 6.13370259 210.18778769 5.35229492 208.94677734 C4.44930574 207.49903749 3.60373379 206.01578128 2.76953125 204.52734375 C-1.30071339 200.79951651 -6.36047942 200.06858764 -11.62890625 198.7734375 C-13.89059909 198.18325448 -16.1510369 197.58823981 -18.41015625 196.98828125 C-20.03630859 196.55684814 -20.03630859 196.55684814 -21.6953125 196.11669922 C-26.45444304 194.77722424 -30.97076257 193.02999226 -35.53125 191.12109375 C-37.61495174 190.15167491 -37.61495174 190.15167491 -39.69140625 190.2734375 Z M16.30859375 206.2734375 C19.30176316 211.94546547 22.48361407 217.14649611 26.49609375 222.1484375 C28.85811582 225.1401002 31.19200603 228.09855592 33.30859375 231.2734375 C36.52672473 230.67850003 38.34635988 229.68338248 40.8046875 227.54296875 C41.44599609 226.98673828 42.08730469 226.43050781 42.74804688 225.85742188 C43.40740234 225.27283203 44.06675781 224.68824219 44.74609375 224.0859375 C45.40158203 223.52068359 46.05707031 222.95542969 46.73242188 222.37304688 C50.66646981 218.92828875 54.07320901 215.38156572 57.30859375 211.2734375 C43.64955122 209.5431564 29.97967458 207.90546366 16.30859375 206.2734375 Z M100.87573242 209.52075195 C96.59656927 210.0406582 92.51677171 210.30953925 88.20703125 210.1015625 C77.93364548 209.67527199 77.93364548 209.67527199 69.09765625 214.35546875 C65.82416003 217.5122142 62.88071788 220.92925353 59.95751953 224.40869141 C56.25255986 228.59857621 51.71743843 231.86131183 47.30859375 235.2734375 C45.6403415 236.60478644 43.97323567 237.93757717 42.30859375 239.2734375 C47.80463039 251.77972496 64.10756148 261.34400058 76.19921875 266.53125 C78.25034184 267.3840729 78.25034184 267.3840729 80.30859375 267.2734375 C80.63730469 266.49419922 80.63730469 266.49419922 80.97265625 265.69921875 C83.82248972 259.43190206 86.78496297 256.03525289 93.05859375 252.8984375 C98.86480974 251.7818575 104.63843488 252.74484628 110.30859375 254.2734375 C116.52243481 238.94998478 116.57814665 224.58760819 116.30859375 208.2734375 C111.09735695 208.21564086 106.03319713 208.84665341 100.87573242 209.52075195 Z M-46.69140625 251.2734375 C-48.01368638 255.07499288 -47.89149792 256.75319916 -46.44140625 260.5234375 C-44.82080959 263.47906472 -44.82080959 263.47906472 -41.69140625 265.2734375 C-37.47962382 265.74141333 -35.40541511 265.73909545 -31.81640625 263.3984375 C-29.29275973 260.87479098 -28.75652922 260.00607093 -28.44140625 256.4609375 C-28.72211583 252.88189031 -29.56869209 251.13093733 -31.69140625 248.2734375 C-37.23401899 245.50213113 -42.75878651 246.74496628 -46.69140625 251.2734375 Z M92.30859375 265.2734375 C89.81700335 269.0108231 89.8506609 270.84675333 90.30859375 275.2734375 C92.1042178 278.02672771 93.36114297 279.79971211 96.30859375 281.2734375 C99.64919871 281.57038016 101.91793683 281.42437313 105.05859375 280.2109375 C108.18961072 277.514784 108.68217009 275.31038996 109.30859375 271.2734375 C108.44892809 267.83477486 107.21648129 265.35050003 104.30859375 263.2734375 C99.3356611 261.7263029 96.65717998 262.50615535 92.30859375 265.2734375 Z " fill="#000000" transform="translate(163.69140625,63.7265625)"/>
<path d="M0 0 C9.24888849 1.76388421 18.08772529 6.26517538 23.8046875 13.8515625 C28.75 21.37876506 28.75 21.37876506 28.75 25.125 C29.36746094 24.71507812 29.98492187 24.30515625 30.62109375 23.8828125 C36.04879833 20.42956971 41.17592945 17.34718529 47.75 17.125 C52.34703089 18.58769165 54.36462519 22.00927745 56.6796875 26.03515625 C60.91871826 34.31209588 60.95970061 44.31140462 58.75 53.25 C54.99927135 63.92915796 47.75261735 71.16457396 37.75 76.125 C34.96764469 77.26220244 32.18090319 78.2732578 29.328125 79.21875 C26.86308181 80.08525003 24.62956255 81.11106016 22.3125 82.3125 C14.69332191 86.18892394 5.9716929 86.28317016 -2.33203125 84.44140625 C-12.08166961 81.15516451 -20.6980841 74.96409273 -25.5078125 65.703125 C-27.60829592 60.85585557 -29.29250377 56.44176921 -28.25 51.125 C-23.2433661 45.45959849 -16.26072407 43.46190802 -9.25 41.125 C-9.724375 40.238125 -10.19875 39.35125 -10.6875 38.4375 C-14.64580864 30.04588567 -14.26067088 20.48641621 -11.5625 11.75 C-6.9465542 -0.44699566 -6.9465542 -0.44699566 0 0 Z M0.75 12.125 C-2.58474017 18.51658532 -3.65966541 24.56346733 -1.48828125 31.58984375 C2.0837252 40.07512389 6.02582713 43.60882699 14.484375 47.20703125 C15.23203125 47.50996094 15.9796875 47.81289062 16.75 48.125 C19.74742396 40.41733838 21.29228529 34.35126667 18.0625 26.5 C14.68493027 19.63857337 10.67241962 15.45801685 3.75 12.125 C2.76 12.125 1.77 12.125 0.75 12.125 Z M34.76953125 34.8203125 C29.63959966 40.2236946 26.86483488 46.03125286 26.6953125 53.55078125 C27.06306731 58.30760973 28.30215458 61.97430559 30.75 66.125 C39.12254504 62.94343288 44.04323373 59.09660302 47.8359375 50.875 C50.39020229 43.1903743 49.00726759 36.3181326 45.75 29.125 C41.91856649 29.125 37.57511456 32.41868892 34.76953125 34.8203125 Z M-16.25 56.125 C-15.49816826 62.78408114 -11.01458663 66.76188093 -6.25 71.125 C-0.6234536 74.83918387 6.22035006 74.88065682 12.75 74.125 C15.32163112 73.35084115 17.36609064 72.39641832 19.75 71.125 C19.41099803 65.70096841 16.45107273 61.87139199 12.75 58.125 C4.53520311 51.95648825 -7.45692939 50.09546587 -16.25 56.125 Z " fill="#000000" transform="translate(195.25,168.875)"/>
</svg>
