<svg width="621" height="732" viewBox="0 0 621 732" fill="none" xmlns="http://www.w3.org/2000/svg">
<path d="M515.132 108.475L514.317 107.007C513.258 105.375 513.666 104.232 515.458 103.416C516.029 103.09 516.599 103.09 517.251 103.335C518.066 103.661 518.637 104.151 518.881 104.967C519.451 106.517 520.185 108.067 521 109.454C521.652 110.597 522.63 111.576 524.097 112.473C530.046 116.308 535.017 121.123 539.01 126.916C540.151 128.548 541.781 129.69 543.655 130.18C562.969 136.054 578.615 150.66 582.201 170.895C584.32 182.971 592.877 190.641 598.744 200.106C613.005 223.279 601.27 252.653 619.443 277.376C620.584 278.927 621.073 280.64 620.992 282.598L617.65 338.736C617.65 340.286 617.08 341.755 616.265 343.06C600.781 368.436 581.223 388.672 557.672 403.522C553.923 405.888 549.522 407.112 545.122 407.112C531.92 407.112 518.311 409.397 504.131 413.966C499.567 415.435 492.314 414.537 482.372 411.436C480.498 410.865 478.542 411.028 476.831 411.926C457.435 421.717 438.285 434.691 420.275 442.932C401.613 451.5 381.24 456.558 366.897 472.388C360.948 478.834 356.792 492.134 354.266 511.961C348.479 556.92 350.517 601.389 360.377 645.45C362.904 656.629 363.963 668.297 363.637 679.801C363.637 680.862 364.452 681.678 365.512 681.76H367.549C368.119 681.841 368.445 681.596 368.445 681.025L367.549 663.238C367.467 661.198 369.097 659.566 371.135 659.566C374.394 659.566 376.432 661.361 377.083 665.033C377.409 666.909 378.55 667.481 380.343 666.665C382.136 665.93 383.847 665.114 385.477 664.298C387.27 663.483 388.167 663.972 388.167 666.012C388.167 674.416 389.47 682.086 392.16 689.103C393.219 691.796 394.279 691.877 395.501 689.266C404.221 669.765 408.866 647.98 409.11 623.828C409.11 622.196 410.496 620.808 412.125 620.808H413.755C414.733 620.808 415.304 621.216 415.385 622.196C417.83 645.205 417.015 667.725 412.859 689.838C412.451 692.204 413.348 693.02 415.63 692.367L426.224 689.103C428.343 688.532 429.646 687.063 430.217 684.86C430.624 683.228 431.439 682.086 432.743 681.107C434.373 680.046 435.758 680.291 436.899 681.76C437.551 682.576 438.366 683.147 439.263 683.228C440.729 683.392 441.626 682.82 441.952 681.433L449.123 650.264C450.02 646.184 450.997 646.184 452.22 650.101C455.806 662.83 447.004 677.354 447.982 691.306C448.145 693.346 449.123 694.57 451.079 695.141C453.198 695.794 455.072 696.936 456.458 698.405C458.006 700.037 457.68 701.179 455.48 701.669C450.672 702.811 445.945 704.035 441.218 705.341C431.602 708.033 421.579 705.749 411.31 708.033C409.192 708.523 408.784 709.665 410.17 711.297C412.288 713.908 414.652 715.948 417.341 717.58C419.052 718.559 420.682 718.477 422.231 717.172C423.616 716.029 425.164 715.377 426.794 715.377C428.587 715.377 428.994 716.111 428.017 717.661C426.142 720.354 423.371 721.904 419.541 722.475C402.509 724.842 385.477 727.534 368.364 730.553C359.481 732.104 351.658 730.553 344.731 725.658C343.101 724.515 341.308 724.026 339.352 724.434C324.358 727.045 309.281 727.534 294.042 725.984C286.626 725.25 279.7 723.047 273.099 719.375C271.469 718.396 269.839 718.559 268.454 719.864C266.416 721.741 264.134 722.965 261.771 723.618C259.489 724.271 258.104 723.455 257.615 721.088L256.23 713.582C255.741 711.052 254.437 710.481 252.318 711.95L249.955 713.5C247.347 715.214 245.88 717.661 245.717 720.844C245.554 724.189 244.821 727.29 243.354 729.901C242.539 731.533 240.664 732.348 238.872 731.859L236.834 731.288C235.204 730.88 234.634 728.921 235.693 727.616C239.279 723.373 239.85 719.293 237.323 715.458C232.597 708.441 222.573 707.707 217.357 714.071C214.016 718.151 207.741 721.496 198.614 723.944C192.665 725.576 188.998 723.944 187.613 718.967C187.042 716.927 187.45 715.214 188.754 713.582C195.68 705.341 205.949 703.953 211.327 696.855C216.787 689.756 216.298 682.249 209.86 674.498C207.823 672.05 209.616 668.297 212.794 668.378C220.943 668.541 225.833 673.355 227.381 682.984C227.87 685.839 230.967 687.471 233.656 686.084C242.783 681.515 248.325 675.314 250.444 667.562C252.725 659.566 254.926 659.566 257.289 667.562C259.897 676.456 262.097 685.431 264.053 694.488C266.661 706.483 269.757 706.565 273.343 694.896L288.908 644.552C291.598 635.985 292.738 627.01 292.331 618.034C290.538 576.747 288.338 534.073 285.73 490.094C285.323 482.832 282.878 471.245 278.396 455.416C263.564 403.114 226.403 353.504 185.168 320.05C182.886 318.255 180.686 317.684 178.485 318.337C176.856 318.827 176.774 319.561 178.159 320.458C178.73 320.785 179.219 321.111 179.708 321.438C180.115 321.764 180.36 322.09 180.278 322.661C179.789 348.119 145.236 342.326 131.709 333.35C124.211 328.455 120.626 327.639 112.721 330.495C111.009 331.066 109.217 331.31 107.505 331.066L46.8745 322.009C44.5927 321.682 42.6369 320.785 41.007 319.316L4.98716 287.331C2.37939 284.965 1.48297 281.293 2.78685 278.029C7.67643 265.872 7.26896 254.122 1.48297 242.617C0.423562 240.496 -0.0653951 238.129 0.179083 235.763C2.05342 212.264 21.5302 193.742 37.6658 178.565C39.2142 177.178 40.9255 176.444 42.9628 176.444C46.793 176.444 51.8455 176.933 58.2835 177.831C59.9948 178.076 60.9727 177.504 61.2172 176.117C61.5432 174.241 60.7283 173.506 58.8539 173.996C51.0306 176.117 45.0001 173.996 40.681 167.713C39.5401 166 39.0512 164.123 39.4586 162.083C41.7404 150.007 48.4228 144.377 59.5874 145.275C61.5432 145.438 62.6841 143.235 61.5432 141.684C56.4906 134.912 56.4906 128.221 61.5432 121.449C86.317 88.4846 113.128 66.8621 142.058 56.7443C144.503 55.8468 146.051 54.2149 146.54 51.6854C148.17 44.6683 151.348 40.6702 155.993 39.8542C176.367 36.1009 194.702 27.9414 211.001 15.4574C214.424 12.8464 221.758 10.7249 233.004 9.09301C252.644 6.2372 272.365 4.6869 292.086 4.52371C294.368 4.52371 296.487 3.95255 298.443 2.72863C305.288 -1.26952 312.297 -0.861541 319.631 3.87095C321.424 5.09487 323.624 5.42125 325.743 4.76849C329.084 3.70776 332.018 4.36052 334.544 6.64517C336.989 8.92982 336.582 10.1537 333.24 10.6433C328.432 11.2145 324.602 13.0912 321.587 16.3549C320.12 17.9052 320.202 19.4555 321.75 20.9242C324.602 23.6985 327.862 25.6567 331.448 26.8807C333.566 27.615 335.196 26.8807 336.256 24.9224L340.982 15.947C342.694 12.6832 346.605 11.2145 349.946 12.6832L371.949 21.8218C373.742 22.6377 375.617 22.6377 377.491 21.985C391.1 16.9261 401.531 18.966 408.703 28.1862C414.326 35.4481 419.052 40.3438 423.045 42.7916C436.084 51.0327 449.368 58.7842 462.895 65.8829C464.688 66.8621 465.911 68.4124 466.4 70.3706C466.97 72.7369 466.97 75.0215 466.4 77.3878C465.911 79.346 464.688 80.57 462.732 81.0595C456.539 82.4466 453.605 85.7104 453.85 90.7693C454.013 94.6858 458.332 97.0521 461.755 95.0122L476.831 85.8736C478.461 84.8945 480.416 84.4865 482.291 84.8129C497.53 87.4239 507.472 95.257 512.036 108.394C512.443 109.536 513.258 110.189 514.399 110.27C516.192 110.27 516.599 109.618 515.703 108.067M276.847 36.4272C271.55 35.1217 267.557 36.9984 265.031 42.1389C264.134 43.9339 262.668 45.2395 260.712 45.8922C257.208 47.0345 254.111 46.4634 251.34 44.0155C249.547 42.3836 248.895 40.507 249.547 38.1407L251.422 31.9395C252.073 29.5733 251.177 28.431 248.814 28.1862C238.383 27.3702 230.315 31.8579 224.529 41.5677C222.003 45.8106 221.921 49.2376 224.121 52.175C225.751 54.2965 227.544 54.4597 229.418 52.5014C231.537 50.2983 234.227 48.5848 237.486 47.2793C239.768 46.3818 241.724 48.9928 240.339 50.9511L226.485 70.6154C224.692 73.2264 223.551 72.9817 223.225 69.7179C223.062 67.5964 222.981 65.4749 222.899 63.1903C222.899 61.232 221.921 60.3345 219.965 60.3345C214.505 60.4977 210.268 58.4578 207.008 54.2965C205.378 52.175 203.259 51.2775 200.57 51.6039C187.287 53.3173 177.833 57.8866 172.129 65.2302C170.581 67.1884 168.788 67.5964 166.587 66.3725L163.246 64.5774C161.29 63.5167 159.498 63.7615 157.949 65.3118C154.853 68.4124 151.185 70.8602 146.866 72.8185C144.747 73.716 144.584 75.0215 146.051 76.6534L153.63 84.8945C156.238 87.7503 155.667 89.3006 151.756 89.4638L140.184 90.1165C136.761 90.2797 133.99 92.9724 133.746 96.3993C133.583 98.1944 133.746 99.9079 134.153 101.785C134.805 104.804 136.761 106.272 139.776 106.191H152.897C154.852 106.028 155.912 105.048 155.993 103.09L156.156 100.234C156.319 97.868 157.46 97.2153 159.579 98.3576C164.55 101.132 168.299 99.4999 171.07 93.5435C172.047 91.3405 173.107 89.0558 174.166 86.6896C175.063 84.8129 176.53 83.8337 178.485 83.8337C183.864 83.6706 189.079 83.0178 194.295 81.7939C197.392 81.0595 199.185 80.9779 199.755 81.4675C204.563 85.792 203.748 87.7503 197.31 87.3423C192.095 87.0159 187.857 89.219 184.434 93.9515C183.294 95.5834 182.805 97.5417 183.294 99.4999C184.434 105.293 186.064 110.026 187.939 113.534C188.835 115.248 190.302 116.39 192.176 116.798C194.295 117.206 195.354 116.39 195.436 114.187C195.599 106.925 198.533 101.703 204.319 98.4392C214.261 92.7276 216.38 94.9306 210.757 104.885C209.453 107.251 208.964 109.944 209.208 112.881C209.453 115.492 208.556 118.104 206.6 119.98L205.215 121.367C204.645 121.938 204.482 122.591 204.889 123.407C205.215 123.978 205.704 124.305 206.275 124.468C207.334 124.794 208.149 124.468 208.719 123.57C212.386 117.532 217.52 112.963 224.121 109.781C225.996 108.883 226.974 109.454 226.974 111.658C226.974 112.718 226.566 113.779 225.833 114.921C224.692 116.635 225.181 117.696 227.137 118.022C229.011 118.348 231.211 117.777 233.656 116.472C240.583 112.8 245.799 109.454 249.384 106.517C251.096 105.13 251.014 103.743 249.14 102.601C245.88 100.561 242.294 100.397 238.464 102.193C236.59 103.09 234.797 102.927 233.086 101.866C232.026 101.213 231.374 100.234 230.967 99.092C230.152 96.8889 230.967 95.7466 233.33 95.5834C240.094 95.257 246.45 96.7257 252.399 100.071C254.518 101.213 256.8 101.703 259.245 101.295C266.253 100.234 270.654 102.927 272.284 109.618C272.691 111.331 274.158 112.555 275.951 112.718C281.003 113.045 283.367 116.064 283.041 121.775C282.878 123.489 282.389 125.039 281.411 126.508C278.07 131.24 277.744 135.81 280.596 140.216C281.981 142.337 283.448 142.5 285.078 140.46L293.472 130.016C296.08 126.753 295.591 122.02 292.412 119.409C289.316 116.798 287.36 113.534 286.3 109.699C285.73 107.578 284.671 105.946 282.878 104.804L275.217 99.8263C269.757 96.3177 272.61 87.8319 279.537 86.6896C280.596 86.5264 281.9 86.5264 283.448 86.6896C285.404 86.8528 286.626 86.0368 287.197 84.0785C288.99 77.8773 292.82 74.2056 298.524 72.9817C308.792 70.8602 315.801 68.9835 319.55 67.5148C322.076 66.5357 324.032 66.7805 325.743 68.3308C327.373 69.8811 329.084 70.0442 330.877 68.9019C335.685 66.0461 338.863 62.7823 340.656 59.2738C345.138 50.1351 350.028 50.2983 355.08 59.6001C359.155 67.1884 364.86 71.0234 372.112 71.2682C374.231 71.2682 374.883 70.3706 374.15 68.4124L371.053 60.4161C370.401 58.7842 370.972 57.5603 372.601 56.9891L374.231 56.3363C376.432 55.5204 378.795 56.9075 379.202 59.1922C380.262 64.8222 382.707 66.0461 386.455 62.9455C388.818 60.9056 390.774 61.3136 392.241 64.0878C393.545 66.4541 394.849 68.5755 396.397 70.5338C404.139 80.162 407.317 78.8565 406.013 66.5357C405.688 63.3535 402.998 58.9474 398.19 53.2357C391.508 45.4843 384.581 45.1579 377.491 52.4198C375.617 54.2965 374.639 53.9701 374.639 51.2775C374.639 46.0554 372.357 41.9757 367.956 38.8751C365.512 37.2432 363.963 37.8143 363.393 40.7518L361.6 49.6456C361.111 52.0934 359.807 52.7462 357.607 51.5223C352.717 48.9112 351.087 44.2603 352.636 37.4064C353.125 35.3665 352.31 34.3058 350.272 34.3058H348.561C346.768 34.3058 345.22 35.4481 344.812 37.1616L342.694 45.1579C342.042 47.8505 340.493 48.4217 338.13 47.0345L318.572 34.8769C316.86 33.8162 315.393 33.9794 314.09 35.5297C312.867 36.9984 311.4 37.6512 309.607 37.5696C307.489 37.4064 306.348 36.3456 306.103 34.2242C305.533 30.0629 303.251 27.615 299.339 26.9623C296.976 26.5543 295.835 27.5334 296.08 29.9813L297.221 41.6493C297.465 44.5051 296.161 45.729 293.39 45.2395L290.294 44.7499C288.99 44.5867 288.012 43.526 287.849 42.1389L287.034 32.2659C286.871 29.6549 285.486 28.2678 282.878 28.023C280.596 27.7782 278.885 28.7573 277.662 31.042C277.336 31.6131 277.255 32.1027 277.336 32.6739C277.336 33.4082 277.581 34.061 277.907 34.7953C278.803 36.3456 278.314 36.9168 276.603 36.5088M353.94 68.2492C354.103 67.27 351.821 65.8829 348.724 65.3118C345.627 64.659 342.938 64.9854 342.694 65.9645C342.531 66.9436 344.812 68.3308 347.909 68.9019C351.006 69.5547 353.695 69.2283 353.94 68.2492ZM306.429 91.7484L307.815 78.7749C308.059 76.4086 307.081 75.6743 304.799 76.327C303.658 76.6534 302.681 77.4694 301.866 78.4485C300.562 80.0804 300.317 81.9571 300.969 83.9969C303.007 90.1165 303.984 96.4809 304.066 103.172C304.066 105.212 303.414 106.925 301.947 108.394C295.672 114.921 295.428 121.449 301.295 127.976C308.548 136.218 311.889 134.83 311.237 123.897C310.83 117.369 312.378 111.739 315.719 107.17C317.023 105.456 317.105 103.661 316.045 101.866C314.497 99.0104 312.297 97.1337 309.118 96.073C307.081 95.4202 306.185 93.9515 306.429 91.83M122.826 102.519C123.315 102.601 123.722 102.274 123.885 101.785C124.7 96.8073 124.374 91.5853 122.989 86.1184C122.418 84.0785 121.114 83.2626 118.996 83.7522C112.069 85.3025 107.913 89.627 106.364 96.6441C105.957 98.276 106.69 99.3367 108.402 99.6631L122.907 102.519M331.122 101.621C329.573 99.2551 329.003 96.5625 329.329 93.3803C329.573 91.3405 328.677 90.1165 326.639 89.8718C324.521 89.5454 322.565 89.8718 320.609 90.6061C318.001 91.6668 318.001 92.8092 320.609 93.8699L322.32 94.5227C324.276 95.3386 325.58 96.7257 326.15 98.7656C327.373 102.764 329.166 106.435 331.366 110.107C332.507 111.902 334.137 112.555 336.174 112.066C350.272 108.802 343.264 94.9306 356.221 92.4012C357.688 92.0748 358.748 90.7693 358.666 89.3006L358.503 86.4448C358.503 84.9761 357.199 83.8338 355.732 84.0785C350.435 84.6497 345.627 86.608 341.39 89.8718C339.76 91.0957 338.863 92.7276 338.7 94.7674C338.456 97.7864 337.396 100.234 335.522 102.193C333.892 103.824 332.425 103.743 331.122 101.785M292.412 95.8282C292.738 94.6042 292.82 93.3803 292.738 92.0748C292.738 91.9932 292.738 91.9116 292.575 91.83C292.005 91.5853 291.516 91.5037 290.946 91.7484C290.049 92.0748 289.642 92.5644 289.805 93.5435C290.375 97.7865 289.968 102.029 288.827 106.435C288.582 107.496 288.99 108.067 289.968 108.312L291.598 108.72C292.412 108.883 292.82 108.557 292.901 107.823C293.227 105.538 293.064 103.58 292.494 101.621C291.923 99.7447 291.923 97.868 292.412 95.9098M325.417 305.608C325.417 307.974 326.069 308.954 327.128 308.709C333.403 306.914 339.515 304.466 345.383 301.284C347.176 300.223 348.48 300.712 349.213 302.752C350.191 305.608 350.598 308.546 350.517 311.728C350.517 314.339 351.332 314.828 353.288 312.87C355.569 310.667 358.259 309.443 361.437 309.28C363.556 309.117 364.534 310.096 364.371 312.136C363.719 321.764 367.875 326.986 376.839 327.72C378.958 327.883 379.854 326.904 379.365 324.864C377.409 316.542 373.172 311.401 373.661 302.997C374.068 294.266 376.432 286.025 380.588 278.355C381.158 277.295 380.914 276.805 379.773 276.56L377.491 276.234C376.106 275.989 374.72 276.642 374.068 277.784L360.948 298.917C359.807 300.712 356.955 299.897 357.118 297.775C357.362 291.574 355.488 286.433 351.576 282.354C348.724 279.498 346.768 279.987 345.546 283.822C343.997 288.636 341.064 291.9 336.663 293.451C334.87 294.103 333.485 295.654 333.077 297.53C331.936 302.508 329.41 305.2 325.58 305.608C324.521 299.325 322.32 293.777 318.898 289.208C317.594 287.576 315.312 287.086 313.519 288.147L306.348 292.39C304.718 293.287 302.925 291.655 303.74 290.024C306.348 284.801 306.674 279.498 304.636 274.194C303.821 272.236 304.473 271.094 306.592 270.93C312.541 270.359 316.208 266.687 317.675 259.915C318.001 258.61 318.572 258.365 319.55 259.344C320.365 260.16 320.853 261.139 321.179 262.281C321.587 264.158 322.809 265.545 324.602 266.279C326.069 266.932 327.617 266.851 329.166 266.035C331.04 265.137 332.018 263.587 332.262 261.465C332.67 255.754 331.122 250.613 327.536 245.799C326.313 244.167 326.15 242.535 327.128 240.74L330.47 234.05C331.366 232.255 331.122 230.786 329.573 229.562C326.232 226.788 323.135 223.932 320.12 220.831C318.49 219.118 317.838 217.323 318.164 215.609C318.735 212.672 320.364 211.937 322.972 213.325L326.965 215.446C328.84 216.507 329.981 215.854 330.307 213.733L331.611 204.186C332.181 199.453 338.048 197.495 341.39 200.841L347.909 207.368C349.783 209.245 351.169 208.918 352.228 206.471C353.125 204.431 353.288 200.922 352.554 196.108C352.391 194.395 353.451 192.763 355.08 192.192C364.941 188.846 372.846 182.808 378.713 173.996C379.854 172.282 379.365 171.14 377.491 170.569C369.586 168.203 364.615 163.96 362.415 157.759C359.97 151.068 361.763 149.517 367.956 153.271C372.764 156.29 379.773 158.248 388.818 159.146C390.693 159.309 391.182 158.575 390.367 156.779C388.085 151.721 388.411 146.009 391.508 139.808C392.404 137.931 394.034 137.034 396.153 137.197C400.309 137.523 403.65 139.318 406.258 142.419C407.562 143.969 409.11 144.867 411.066 145.111C416.771 145.846 420.193 149.518 424.92 149.436C427.365 149.436 429.402 148.783 431.113 147.559C432.01 146.906 432.906 145.683 433.721 143.887C434.536 142.092 435.351 141.032 436.41 140.705C437.062 140.46 437.714 140.379 438.448 140.542C440.077 140.95 441.055 142.011 441.381 143.806C442.848 152.944 448.145 156.616 457.109 154.903C458.984 154.495 460.532 153.516 461.673 152.047L466.563 145.601C467.867 143.806 469.659 143.235 471.86 143.806C475.201 144.703 478.053 146.254 480.335 148.294C482.128 149.925 483.187 149.599 483.595 147.151C484.328 143.479 485.713 140.95 487.832 139.481C489.87 138.094 490.44 138.584 489.707 140.95C486.691 149.681 488.403 157.024 494.678 162.981C496.633 164.857 498.508 164.776 500.301 162.736L510.406 151.231C511.547 150.007 513.503 150.497 513.91 152.047L514.48 154.087C515.214 156.779 514.888 159.635 513.503 162.001L509.509 169.1C507.391 172.69 508.368 173.833 512.28 172.282L525.726 167.06C527.601 166.326 529.475 166.489 531.186 167.55C533.061 168.692 534.854 168.937 536.565 168.284C538.602 167.468 539.662 166.081 539.988 163.96C540.966 155.392 539.417 148.212 535.343 142.337C533.55 139.726 530.779 139.073 526.949 140.216C525.156 140.787 523.771 140.216 522.874 138.584C521.896 136.789 520.511 135.402 518.718 134.341C516.436 132.954 515.295 133.607 515.214 136.218L514.888 143.153C514.888 144.051 514.317 144.54 513.421 144.54L510.895 144.377C510.243 144.377 509.754 144.051 509.672 143.316C509.265 140.46 508.857 137.768 508.206 135.075C507.391 131.811 506.005 129.608 503.886 128.548C500.871 126.916 498.182 126.997 495.982 128.874C495.085 129.527 494.433 129.445 493.944 128.466C491.092 122.918 486.039 119.735 478.868 119.001C476.831 118.756 475.119 117.859 473.815 116.308C472.43 114.758 471.452 112.881 470.8 110.76C470.23 108.802 468.926 107.823 466.889 107.823C462.57 107.823 459.799 110.189 458.658 114.921C458.25 116.553 457.354 116.88 455.887 115.982C455.235 115.574 454.746 114.921 454.257 114.187C453.198 112.066 451.568 110.597 449.449 109.699C435.432 103.498 422.638 101.295 410.903 103.172C384.907 107.415 365.43 121.123 352.636 144.295C348.806 151.231 337.071 163.552 317.512 181.421C308.304 189.744 293.39 207.939 303.74 220.015C308.059 225.074 310.259 227.685 310.341 227.767C312.134 231.52 312.786 235.437 312.46 239.598C312.297 241.964 311.237 242.454 309.363 241.067C306.837 239.272 305.777 236.905 305.94 233.968C306.103 230.704 304.881 229.97 302.11 231.683C297.547 234.621 295.509 237.721 296.161 240.985C296.569 243.107 297.791 244.412 299.747 244.983C305.207 246.534 307.57 250.042 306.918 255.591C306.592 258.283 305.125 259.262 302.518 258.528L298.932 257.549C297.139 257.059 295.591 257.549 294.287 258.854C288.256 264.892 287.278 272.318 291.516 280.967C295.183 288.473 300.643 294.103 307.815 298.02C309.607 298.999 309.607 300.141 307.978 301.284C307.163 301.855 306.348 302.344 305.288 302.671C303.495 303.323 302.762 304.711 303.169 306.587C304.473 311.809 306.266 316.134 308.711 319.642C311.4 323.559 312.786 323.151 312.949 318.337C313.03 311.565 317.186 307.24 325.417 305.282M325.173 115.982C323.706 105.62 321.831 105.538 319.468 115.737C319.142 117.288 318.979 120.715 318.898 125.937C318.898 127.895 318.246 129.527 316.86 130.995C315.067 132.791 314.253 134.912 314.497 137.441C314.66 140.46 315.638 140.705 317.431 138.257C323.461 129.608 326.069 122.265 325.173 116.064M340.33 120.959C333.892 123.081 331.203 128.221 332.181 136.381C332.425 138.421 334.952 139.237 336.337 137.605C344.323 128.303 353.858 120.47 364.697 114.105C365.43 113.697 365.593 113.045 365.186 112.392L364.371 110.76C364.371 110.76 364.371 110.76 364.208 110.76C358.503 113.371 352.799 116.064 347.094 118.675C346.768 118.838 344.486 119.572 340.249 121.041M262.994 127.161C263.157 129.282 262.586 131.485 261.119 133.443C259.978 135.075 259.978 136.707 261.119 138.421C264.786 143.724 269.839 147.396 276.358 149.354C277.092 149.518 277.662 149.354 277.907 148.702L278.803 147.07C278.803 147.07 278.803 146.498 278.477 146.498C272.773 145.111 268.861 141.929 266.742 137.115C265.927 135.238 266.172 133.443 267.313 131.811C269.105 129.364 270.409 127.079 271.306 125.039C273.914 118.919 268.943 112.229 262.423 113.126C253.785 114.269 248.895 118.022 247.673 124.223C246.45 130.588 248.243 131.73 253.214 127.487C255.252 125.855 257.208 124.794 259.245 124.386C261.364 123.978 262.586 124.876 262.831 127.079M129.264 130.343C130.16 128.14 131.546 126.426 133.42 125.202C135.946 123.57 135.783 119.899 133.094 118.43C129.264 116.39 125.515 115.411 121.766 115.574C119.729 115.574 118.018 116.472 116.795 118.104C114.921 120.47 112.721 122.346 110.031 123.734C108.239 124.631 106.283 124.794 104.408 124.142C94.7108 120.715 86.0725 122.265 78.4122 128.956C77.7603 129.527 77.6788 130.506 78.1677 131.159C78.7382 131.893 79.6346 132.056 80.368 131.567C89.2508 125.937 95.1997 126.753 98.215 133.851C98.7854 135.075 99.5189 136.218 100.578 137.197C102.453 138.992 104.571 139.481 106.772 138.747C108.728 138.176 109.868 136.789 110.113 134.749C111.009 128.548 114.269 124.142 119.892 121.531C121.848 120.633 123.07 121.204 123.478 123.407C124.13 126.181 124.211 128.874 123.885 131.811C123.722 133.851 122.907 135.565 121.603 137.034C118.018 141.195 116.469 146.172 117.121 151.965C117.447 154.087 118.507 154.74 120.463 153.76C125.189 151.313 128.041 147.641 129.182 142.827C129.997 139.563 133.99 138.257 136.517 140.379C147.844 149.844 158.438 149.681 168.217 139.726C169.603 138.257 171.233 137.849 173.107 138.665C175.633 139.645 177.345 140.297 178.322 140.542C185.82 142.092 187.042 140.053 181.99 134.259C179.219 131.077 175.715 127.487 171.396 123.57C169.847 122.183 168.136 121.694 166.099 122.265C159.335 124.142 154.852 128.548 152.734 135.565C152.408 136.707 151.756 137.523 150.941 137.849C149.229 138.584 148.17 138.013 147.844 136.218C147.274 133.117 145.97 130.424 144.014 128.058C142.629 126.508 141.243 126.426 139.776 127.895C137.169 130.506 134.316 132.138 131.057 132.954C128.775 133.525 127.96 132.627 128.938 130.424M95.7702 146.091C96.8296 145.438 97.4815 144.703 97.8075 144.214C98.8669 142.256 97.8075 139.889 95.6072 139.318C90.3102 138.013 85.9911 138.91 82.6498 142.092C80.857 143.724 80.2866 145.601 80.7755 147.967C81.4275 150.823 82.8943 152.863 85.1761 154.168C86.806 154.984 88.7618 155.148 90.4732 154.332C92.5105 153.352 93.5699 151.802 93.7329 149.762C93.7329 148.212 94.4663 146.988 95.7702 146.172M305.94 167.142C305.288 167.142 304.392 167.632 303.332 168.774C302.273 169.916 301.784 170.977 301.866 172.038C302.029 174.404 303.251 175.22 305.533 174.404C318.246 169.753 318.083 160.37 324.684 150.333C325.906 148.457 325.499 147.804 323.38 148.375C317.186 150.007 313.356 154.74 311.808 162.654C311.156 165.836 309.2 167.305 306.022 167.142M231.211 155.229C229.744 157.351 230.396 159.227 233.167 160.696C234.308 161.349 235.123 162.165 235.775 163.307C236.671 165.02 237.975 165.918 239.524 166C241.805 166.163 243.272 165.184 243.843 162.899C245.228 158.411 243.843 155.066 239.85 153.026C236.834 151.476 233.167 152.455 231.211 155.311M254.355 163.389C254.681 166.326 256.23 167.142 258.837 166C262.179 164.449 263.808 161.43 263.727 157.106C263.727 155.229 262.831 153.76 261.119 152.781C259.978 152.047 258.593 151.639 257.126 151.639C254.926 151.639 253.214 153.516 253.459 155.637L254.274 163.389M116.877 213.814L121.114 227.196C121.522 228.583 122.826 229.562 124.211 229.643C124.863 229.643 125.434 229.48 126.086 229.317C127.226 228.909 127.797 228.012 127.797 226.788C127.797 225.972 127.634 225.156 127.145 224.421C126.249 222.708 126.411 221.158 127.715 219.689C130.405 216.588 133.909 214.712 138.146 214.141C140.265 213.896 141.406 214.793 141.569 216.996L142.14 225.156C142.303 227.522 143.525 228.664 145.888 228.664L162.187 228.501C163.98 228.501 164.55 227.604 164.143 225.89L163.491 223.279C162.839 220.75 163.817 219.689 166.343 220.015C169.114 220.423 171.885 221.402 174.574 222.871C176.448 223.932 177.345 223.442 177.182 221.239C177.019 217.486 175.226 214.548 171.966 212.264C170.336 211.121 169.195 209.653 168.706 207.776C167.81 204.512 167.565 201.085 168.054 197.658C168.38 195.374 169.603 194.395 171.803 194.476L179.626 194.966C181.419 195.129 182.56 194.313 182.968 192.518C183.456 190.56 184.434 189.009 185.901 187.785C187.694 186.398 188.754 186.725 189.161 189.009C189.65 191.784 190.302 194.476 191.035 197.25C191.606 199.29 192.828 199.78 194.703 198.719C199.674 195.863 203.178 191.784 205.297 186.317C205.704 185.093 206.193 185.093 206.763 186.317C207.008 186.969 207.252 187.541 207.415 188.193C207.986 190.07 209.208 191.702 210.838 192.844C215.157 195.863 218.58 199.78 220.943 204.676C222.003 206.715 221.514 207.205 219.476 206.063C215.076 203.452 211.083 199.943 207.578 195.7C205.786 193.579 204.971 193.823 205.297 196.598C205.867 202.472 208.23 207.042 212.223 210.469C213.772 211.774 215.565 212.101 217.521 211.448C222.084 209.816 227.055 209.326 232.352 209.979C234.39 210.142 234.96 209.326 234.308 207.45C229.011 193.007 221.188 169.835 205.215 165.184C197.392 162.899 189.324 163.225 181.093 166.081C179.219 166.734 177.508 166.489 175.796 165.347C170.255 161.267 164.143 160.614 157.379 163.389C155.341 164.286 154.853 165.592 155.83 167.468C158.846 173.425 163.735 176.444 170.418 176.77C172.536 176.77 173.025 177.749 171.722 179.463C170.336 181.339 168.462 182.727 166.18 183.706C164.224 184.44 162.676 183.95 161.372 182.319C156.075 175.301 150.37 169.753 144.34 165.918C138.228 162.001 130.16 163.47 125.841 169.263L102.045 201.412C100.904 203.044 99.4374 203.37 97.6445 202.309C95.0368 200.841 92.266 200.922 89.3323 202.636C88.8433 202.962 88.4358 202.799 88.2729 202.309C88.0284 201.657 87.9469 201.004 88.0284 200.433C88.1914 199.535 88.6803 198.882 89.6582 198.393C94.6293 196.108 97.9705 192.436 99.7633 187.214C100.66 184.603 97.3186 182.89 89.7397 181.992C87.8654 181.747 86.8875 179.626 87.8654 178.076C89.2508 175.954 91.3696 174.241 94.3033 173.017C95.7702 172.364 96.4221 170.651 95.7702 169.263L94.9553 167.468C93.8959 165.102 91.2066 163.96 88.6803 164.857C83.1388 166.897 79.7161 169.671 78.4122 173.343C74.0116 185.664 70.0999 197.985 66.5957 210.387C66.0253 212.509 64.8029 214.141 63.0101 215.364L56.1647 219.852C53.3124 221.729 53.5569 222.953 56.8981 223.524C58.7724 223.85 60.8098 223.85 63.0101 223.524C66.0253 223.116 67.3292 224.421 66.9217 227.44L65.6178 237.477C65.2104 240.985 63.2545 242.372 59.7504 241.556L53.7199 240.169C51.3566 239.598 49.8897 240.577 49.3193 242.943C46.7115 253.632 47.3634 264.403 51.2751 275.418C51.927 277.458 52.3345 279.416 52.416 281.538C52.416 285.128 53.9644 286.597 56.9796 285.944C61.7062 284.883 62.1951 282.843 58.528 279.661C55.4312 277.05 53.1494 272.807 51.6011 266.851C51.1121 264.892 51.3566 263.097 52.3345 261.302C53.8829 258.528 53.8829 255.672 52.3345 252.572C51.5196 250.858 51.927 249.471 53.6384 248.573C60.6468 244.82 69.285 242.862 73.6856 236.089C77.6788 229.807 79.6346 223.524 79.4716 217.078C79.3901 210.061 81.346 209.326 85.5021 215.038C88.5173 219.118 93.0809 223.769 99.1114 228.746C101.149 230.378 104.082 229.97 105.468 227.848L114.84 213.651C115.817 212.182 116.551 212.345 117.04 213.977M549.278 181.421C552.13 182.074 555.064 179.463 555.879 175.709C556.775 171.956 555.064 168.366 552.212 167.795C549.359 167.142 546.426 169.753 545.611 173.506C544.714 177.26 546.426 180.85 549.278 181.421ZM494.026 211.774C497.122 218.465 498.508 225.645 498.182 233.315C498.182 234.213 498.589 234.702 499.486 234.784C500.138 234.784 500.627 234.784 501.197 234.458C502.175 234.05 502.827 233.315 503.234 232.336C505.924 225.074 510.65 220.505 517.333 218.547C519.533 217.894 520.022 215.038 518.148 213.733C515.132 211.611 512.688 209 510.813 205.899C504.783 196.19 494.759 191.376 484.084 188.03C482.209 187.377 480.661 187.867 479.357 189.417C478.135 190.804 476.749 191.457 475.282 191.376C473.082 191.212 472.675 190.233 473.979 188.52C475.69 186.235 476.423 183.787 476.179 181.013C476.016 178.484 474.63 177.26 472.186 177.097C467.622 176.933 465.503 179.218 465.666 184.195C465.666 186.072 463.547 187.051 462.162 185.827C459.799 183.706 457.109 182.074 454.176 181.176C452.057 180.523 449.938 181.503 448.96 183.461L446.189 189.417C444.56 192.926 442.604 193.089 440.485 189.825L435.188 181.829C434.21 180.36 432.173 180.197 431.032 181.584L429.809 182.971C427.609 185.582 427.039 188.438 428.18 191.702C430.298 198.148 433.64 204.104 438.04 209.571C439.344 211.285 438.937 212.182 436.818 212.182C433.803 212.182 431.032 211.611 428.505 210.142C426.631 209.082 425.246 207.531 424.512 205.573L420.682 195.211C419.786 192.844 418.237 192.192 415.956 193.497C404.547 200.106 392.404 204.92 379.447 208.102C377.328 208.592 376.758 209.816 377.572 211.774L383.521 225.972C384.418 228.256 383.766 228.909 381.484 228.012C380.425 227.604 379.447 226.869 378.469 225.972C376.106 223.687 374.476 222.463 373.579 222.218C369.912 221.158 366.978 222.626 364.697 226.298C364.126 227.277 364.126 228.256 364.697 229.154L365.675 230.786C366.815 232.499 366.408 233.886 364.615 234.784C363.067 235.6 361.518 235.682 359.889 235.11C358.748 234.702 358.34 233.397 358.992 232.336C359.4 231.683 359.889 230.949 360.377 230.215C361.681 228.093 361.355 227.767 359.481 229.399C352.473 235.355 351.169 243.841 355.732 254.938C356.873 257.794 354.347 260.649 351.413 259.997C345.464 258.691 341.553 261.629 339.597 268.646C338.782 271.665 339.597 273.786 341.879 275.173C343.753 276.234 345.301 275.908 346.687 274.357C349.213 271.502 352.147 270.359 355.325 271.175C357.036 271.583 358.259 271.094 359.074 269.462C363.637 260.241 371.461 252.408 382.462 245.962C384.255 244.82 385.477 245.31 385.885 247.513C386.048 248.573 385.722 249.634 384.825 250.777C383.766 252 383.847 253.143 385.151 254.122C385.722 254.53 386.374 254.856 387.189 254.938C389.144 255.264 390.285 254.448 390.448 252.408C390.693 250.124 391.997 248.818 394.279 248.41C398.761 247.513 401.939 249.063 403.895 253.143C404.302 253.959 404.139 254.938 403.487 255.509C402.998 255.917 402.428 256.243 401.776 256.407C399.413 257.059 399.413 257.63 401.776 258.038C405.443 258.691 408.458 258.446 410.985 257.223C412.94 256.162 413.837 254.611 413.755 252.408L413.429 247.268C413.266 245.065 414.733 243.107 416.771 242.454C420.275 241.393 423.616 241.72 426.713 243.351C428.505 244.249 429.809 245.881 430.543 247.676C431.847 251.103 432.743 253.469 433.395 254.856C436.492 261.221 438.774 260.894 440.159 253.959C442.441 242.617 450.264 238.619 463.547 241.964C464.281 242.127 464.77 241.964 465.096 241.23L466.074 238.945C466.481 237.966 465.748 236.824 464.688 236.824C453.361 236.661 447.412 231.52 446.678 221.402C446.515 219.199 447.493 217.894 449.694 217.486C457.68 215.936 465.992 213.896 474.712 211.366C476.586 210.795 478.053 211.366 479.113 213.161C480.905 216.344 483.106 218.955 485.795 221.076C488.158 222.953 489.544 222.463 490.114 219.444L491.499 212.019C491.907 209.49 492.722 209.408 493.781 211.774M508.857 185.99L516.355 191.62C518.066 192.926 518.637 192.518 517.985 190.478C516.762 186.398 513.991 184.114 509.754 183.542C506.413 183.135 506.168 183.95 508.776 185.909M548.789 197.985C546.426 199.372 544.796 200.188 543.573 200.514C536.321 202.472 536.321 203.86 543.899 204.757C546.1 205.002 548.055 203.778 549.767 201.085C550.826 199.453 552.293 198.474 554.249 198.311C558.487 197.903 560.279 195.211 559.709 190.56C559.464 188.275 556.775 187.296 555.227 188.846C553.679 190.396 552.619 191.947 552.13 193.66C551.56 195.537 550.5 196.924 548.789 197.903M234.39 226.624C235.612 228.012 237.079 228.828 238.872 228.991C241.153 229.072 242.539 228.093 242.946 225.809C243.354 223.687 242.946 221.81 241.805 220.015C240.664 218.383 239.198 217.567 237.16 217.649L218.009 218.465C215.972 218.628 214.913 219.689 214.913 221.729C214.913 223.85 215.402 226.053 216.624 228.338C218.417 231.602 223.062 231.357 224.529 228.012C225.425 225.89 227.055 224.829 229.337 224.748C231.374 224.585 233.004 225.319 234.308 226.788M468.03 228.664C469.415 229.399 471.697 227.685 473.245 224.911C474.712 222.137 474.875 219.199 473.49 218.547C472.104 217.812 469.822 219.526 468.274 222.3C466.807 225.074 466.644 228.012 468.03 228.664ZM201.792 234.05C202.852 239.598 206.112 242.209 211.653 241.801C214.424 241.638 214.913 240.414 213.038 238.456L200.733 224.666C199.511 223.279 198.859 223.524 198.859 225.319C198.859 227.196 199.429 228.991 200.407 230.623C201.059 231.683 201.548 232.826 201.792 234.131M510.406 256.488C511.058 254.204 512.362 252.49 514.317 251.021C515.947 249.879 517.822 249.553 519.696 250.124C523.445 251.266 527.275 251.348 531.023 250.287C532.979 249.716 534.854 249.961 536.647 250.94C540.721 253.224 544.225 256.407 547.241 260.486C548.544 262.281 549.522 262.118 550.337 260.16L551.723 256.815C552.049 255.917 551.886 254.938 551.315 254.203C546.1 248.737 539.906 245.473 532.653 244.331C530.535 244.004 528.823 243.107 527.356 241.475C523.771 237.477 521.163 232.989 519.615 227.767C519.126 226.135 518.474 224.911 517.659 224.421C516.599 223.605 515.377 223.361 514.073 223.769C512.036 224.34 510.813 225.645 510.324 227.685C506.983 241.475 501.442 252.98 493.863 262.2C492.07 264.321 492.559 265.382 495.33 265.464C503.316 265.464 508.206 269.462 510.08 277.376C510.243 278.274 510.813 278.845 511.71 279.171C512.525 279.498 513.34 279.498 514.073 279.171C515.703 278.6 516.436 277.376 516.029 275.663L515.051 271.257C514.48 268.646 515.54 267.34 518.229 267.503C521.57 267.667 524.667 268.401 527.682 269.543C529.557 270.278 530.046 269.706 529.149 267.911C525.563 260.813 520.103 257.794 512.688 258.936C510.569 259.262 509.835 258.365 510.406 256.325M96.1777 244.739L82.2424 244.249C81.346 244.249 80.7755 244.575 80.6125 245.554C79.5531 251.184 80.6125 256.325 83.6278 260.894C85.2576 263.342 87.2134 264.403 89.5767 263.995C91.6955 263.668 92.6735 262.445 92.6735 260.323C92.6735 255.591 94.0588 251.021 97.1556 246.697C97.9705 245.473 97.726 244.82 96.1777 244.739ZM166.343 252.98C163.98 254.367 162.187 256.08 160.964 258.202C159.987 259.997 160.72 262.2 162.594 263.016C166.75 264.892 171.477 265.79 176.937 265.79C180.93 265.79 183.212 263.913 183.782 259.997C185.168 250.695 181.664 245.881 173.107 245.718C171.803 245.718 170.907 246.289 170.336 247.513L169.521 249.389C168.951 250.94 167.728 252.245 166.343 252.98ZM107.75 248.655C105.305 249.063 104.408 250.532 104.979 252.898C105.223 253.796 106.69 254.611 109.298 255.264C114.188 256.57 117.936 255.754 120.544 252.898C122.174 251.184 121.848 249.961 119.648 249.226C116.062 248.002 112.069 247.758 107.75 248.573M214.587 252.572C211.572 255.509 209.127 256.08 205.378 256.325C203.504 256.325 202.607 257.467 202.852 259.344L203.422 263.832C203.667 265.872 205.867 267.095 207.741 266.198C213.69 263.342 217.276 258.691 218.661 252.408C219.313 249.797 218.58 249.308 216.38 250.94C215.728 251.511 215.076 252.082 214.505 252.653M565.495 275.092C563.539 269.38 561.991 263.75 560.931 258.283C560.85 257.63 560.605 257.141 560.279 256.896C559.79 256.488 559.22 256.243 558.65 255.999C557.346 255.591 556.612 255.999 556.531 257.386C555.879 265.545 558.487 271.746 564.436 275.826C565.495 276.642 565.821 276.397 565.414 275.092M465.259 291.819C467.459 297.122 470.8 301.202 475.364 304.058C477.157 305.119 479.357 303.568 478.868 301.528C477.32 294.022 472.756 290.758 465.177 291.819L463.303 278.437C463.058 276.805 463.629 276.479 464.933 277.54C468.355 280.559 472.104 281.13 476.179 279.416C478.624 278.274 478.95 276.805 477.075 274.929L461.755 258.61C460.369 257.223 458.332 256.733 456.539 257.549L440.485 264.648C434.699 267.177 432.988 274.439 437.062 279.253C440.974 283.986 445.537 285.944 450.672 285.209C452.546 284.883 454.257 285.209 455.887 286.27L465.096 291.819M140.428 270.196C142.058 271.094 142.955 269.788 143.118 266.279C143.199 264.076 141.732 262.037 139.532 261.629C133.257 260.241 129.59 262.2 128.612 267.585C128.204 269.788 129.101 271.012 131.383 271.175C133.583 271.338 135.702 271.012 137.658 270.114C138.554 269.706 139.532 269.788 140.428 270.196ZM425.001 266.932C424.023 264.076 420.927 262.526 417.993 263.505L416.934 263.832C414 264.811 412.533 267.911 413.511 270.767L416.2 278.927C417.178 281.782 420.275 283.333 423.127 282.354L424.186 282.027C427.12 281.048 428.587 277.948 427.609 275.01L424.92 266.851M70.0184 274.194C70.6704 274.194 71.2408 273.949 71.8113 273.786C73.1152 273.297 73.5226 272.399 72.9522 271.175C71.4038 267.585 68.6331 266.443 64.6399 267.667C63.5805 267.993 62.8471 268.809 62.6026 269.87C61.7877 273.46 62.7656 275.173 65.5363 274.684C66.0253 274.684 67.4922 274.439 69.937 274.194M167.484 280.314C168.054 279.335 166.017 277.132 162.92 275.5C159.905 273.868 156.971 273.215 156.401 274.194C155.83 275.173 157.868 277.376 160.964 279.008C163.98 280.64 166.913 281.293 167.484 280.314ZM399.413 309.933C394.116 301.692 396.153 299.162 405.362 302.426C408.54 303.568 411.636 303.895 414.57 303.323C418.726 302.589 418.971 301.202 415.304 299.081L410.985 296.714C409.029 295.654 407.562 293.858 406.747 291.9C405.28 288.392 403.569 284.965 401.531 281.783C396.397 273.46 392.975 274.113 391.182 283.822C390.611 287.168 388.819 289.779 385.803 291.411C378.143 295.654 378.632 306.995 386.7 312.462C392.812 316.623 399.25 320.54 406.013 324.212C407.888 325.272 409.599 325.028 411.147 323.477C413.185 321.519 414.244 319.071 414.244 316.215C414.244 313.115 412.94 312.299 410.251 313.849C406.176 316.134 402.591 314.828 399.413 310.014M568.755 279.987C568.184 285.944 565.902 290.432 561.909 293.451C560.768 294.266 560.768 295.164 561.909 296.062L563.458 297.204C564.11 297.775 564.761 297.693 565.495 297.041C571.036 291.819 572.911 286.107 570.955 279.661C570.629 278.437 568.836 278.682 568.755 279.906M496.715 300.06C500.138 300.06 502.827 295.654 502.827 290.268C502.827 284.883 500.056 280.559 496.715 280.559C493.374 280.559 490.603 284.965 490.603 290.35C490.603 295.735 493.374 300.06 496.715 300.06ZM513.91 316.052L512.117 317.031C509.672 318.337 509.835 319.153 512.606 319.398C520.266 320.214 524.83 324.13 526.297 331.147C526.704 333.269 527.845 333.758 529.801 332.698C530.942 332.126 531.757 331.147 532.327 330.005C533.224 328.128 533.061 326.496 531.92 324.783C529.801 321.927 529.475 318.99 531.023 316.052C531.92 314.257 531.92 312.462 531.023 310.667C530.453 309.525 529.638 308.954 528.66 309.035C521.733 309.688 519.778 306.669 522.874 299.978C526.704 291.737 524.341 286.841 515.703 285.454C511.384 284.72 507.717 288.718 508.776 293.043L510.08 298.02C510.65 299.897 510.08 301.528 508.45 302.752C504.946 305.363 503.479 308.872 503.968 313.36C504.294 315.971 504.946 316.134 506.005 313.768C506.902 311.809 508.287 310.504 510.324 309.769C511.791 309.198 513.421 309.769 514.236 311.238L515.051 312.87C515.703 314.012 515.214 315.481 514.073 316.134M264.297 374.229C265.438 375.943 268.046 375.208 268.128 373.169L269.513 317.684C269.513 317.684 269.513 316.95 269.268 316.623L254.681 289.452C254.192 288.555 253.051 288.147 252.155 288.473L219.558 300.06C218.335 300.468 217.765 302.018 218.498 303.16L264.297 374.229ZM463.384 298.754C463.14 297.367 461.021 296.551 458.658 296.959C456.295 297.367 454.502 298.754 454.746 300.141C454.991 301.528 457.109 302.344 459.473 301.936C461.836 301.528 463.629 300.141 463.384 298.754ZM429.809 314.42C432.01 315.889 436.084 313.523 439.018 309.117C441.952 304.711 442.522 299.978 440.322 298.509C438.122 297.041 434.047 299.407 431.113 303.813C428.18 308.219 427.609 312.952 429.809 314.42ZM486.447 328.781C479.276 325.517 476.749 321.438 475.69 313.686C475.364 311.646 474.223 310.504 472.186 310.177C461.999 308.79 455.724 312.544 453.442 321.601C452.872 323.641 453.687 324.62 455.806 324.457C461.347 324.13 466.889 323.885 472.43 323.885C473.816 323.885 475.038 324.212 475.934 324.701C478.95 326.578 479.846 330.087 482.617 331.474C483.921 332.126 485.225 332.208 486.365 331.718C488.566 330.821 488.566 329.842 486.365 328.781M541.699 323.641C539.662 323.967 538.765 326.333 539.906 327.965L543.981 333.677C545.855 336.206 547.078 335.961 547.811 332.942C549.278 326.986 551.886 322.335 555.797 318.663C557.02 317.521 557.346 315.644 556.612 314.176C555.064 310.912 553.434 310.259 551.804 312.299C551.234 312.952 550.908 313.768 550.663 314.665C549.685 319.642 546.67 322.661 541.699 323.641ZM573.726 326.088C575.6 326.007 576.904 322.743 576.659 318.908C576.415 314.992 574.785 311.973 572.911 312.054C571.036 312.136 569.733 315.4 569.977 319.234C570.222 323.151 571.851 326.17 573.726 326.088ZM332.996 326.823C334.463 327.883 337.804 325.762 340.575 322.009C343.345 318.255 344.405 314.42 343.02 313.36C341.553 312.299 338.211 314.42 335.441 318.174C332.67 321.845 331.61 325.762 332.996 326.823ZM158.683 324.538C157.542 320.05 155.015 318.011 151.267 318.337C148.904 318.5 148.333 319.642 149.637 321.601C151.756 325.109 154.771 327.557 158.683 328.863C161.046 329.679 161.616 328.863 160.476 326.741C160.068 325.925 159.416 325.109 158.683 324.457M495.493 321.193C493.863 320.05 492.885 320.458 492.396 322.335L491.907 324.293C491.499 325.844 492.07 326.904 493.455 327.557C496.96 329.189 500.301 331.066 503.56 333.106C505.435 334.248 505.924 333.84 505.027 331.8C503.153 327.72 499.975 324.212 495.493 321.111M444.967 327.802C445.701 325.925 443.826 324.13 442.033 324.864C437.633 326.66 433.558 333.106 429.891 344.202C429.32 345.834 429.891 346.242 431.439 345.59C434.047 344.529 435.758 341.999 436.41 338.164C436.736 336.288 437.796 334.901 439.507 334.003C442.033 332.698 443.826 330.739 445.049 327.802M306.348 439.342C307.815 446.359 317.431 447.257 320.202 440.729L326.476 426.205C326.802 425.471 327.047 424.655 327.047 423.92L332.099 365.499C332.344 362.643 330.959 359.869 328.432 358.482L297.791 340.939C292.331 337.838 285.649 342.652 286.952 348.853L306.266 439.423M479.764 344.121C478.705 341.836 474.63 341.51 470.637 343.387C466.644 345.263 464.362 348.609 465.422 350.893C466.481 353.178 470.556 353.504 474.549 351.628C478.542 349.751 480.824 346.406 479.764 344.121ZM462.244 370.068C463.384 368.844 462.977 366.723 461.51 365.417C459.962 364.03 457.924 363.948 456.784 365.172C455.643 366.396 456.05 368.518 457.517 369.823C459.065 371.21 461.103 371.292 462.244 370.068ZM350.191 432.814C364.697 419.188 373.253 400.992 378.958 382.144C380.995 375.616 378.958 371.047 372.764 368.11L370.238 366.886C366.897 365.335 362.985 367.049 361.763 370.639C355.488 390.059 350.68 410.376 347.339 431.346C346.85 434.528 347.746 435.017 350.191 432.814ZM503.805 388.182C506.413 387.448 507.717 384.021 506.739 380.512C505.761 377.004 502.827 374.8 500.219 375.535C497.611 376.269 496.308 379.696 497.285 383.205C498.263 386.713 501.197 388.916 503.805 388.182ZM387.107 422.86C385.477 427.511 390.367 431.754 394.686 429.387L439.263 405.725C443.582 403.359 442.767 396.994 438.122 395.77L404.954 387.04C402.265 386.387 399.413 387.856 398.516 390.467L387.107 422.86ZM307.081 706.972C320.69 684.86 320.853 648.551 317.675 623.501C314.578 598.86 312.134 574.218 310.259 549.658C310.259 549.168 310.015 548.842 309.689 548.76C309.526 548.76 309.363 548.679 309.2 548.597C308.548 548.597 308.141 548.924 308.059 549.74C304.473 583.112 313.193 614.526 309.852 648.469C307.978 667.399 306.103 686.574 304.229 706.075C303.821 710.318 304.718 710.644 306.918 706.972M250.444 694.325C251.747 694.325 252.644 689.756 252.481 684.126C252.318 678.578 251.259 674.008 250.036 674.008C248.732 674.008 247.836 678.578 247.999 684.208C248.08 689.756 249.221 694.325 250.444 694.325Z" fill="white" fill-opacity="0.05"/>
</svg>
