<svg width="32" height="32" viewBox="0 0 32 32" fill="none" xmlns="http://www.w3.org/2000/svg">
<path d="M15.2889 9.92V12.7644L12.7289 15.3244C10.9156 17.1378 10.9156 20.0533 12.7289 21.8667C13.6178 22.7556 14.8267 23.2178 16 23.2178C17.1733 23.2178 18.3822 22.7556 19.2711 21.8667C21.0844 20.0533 21.0844 17.1378 19.2711 15.3244L16.7111 12.7644V9.92C21.4756 9.56445 25.2444 5.54667 25.2444 0.711111C25.2444 0.32 24.9244 0 24.5333 0C20.6933 0 17.3867 2.34667 16 5.68889C14.6133 2.34667 11.3067 0 7.46667 0C7.07556 0 6.75556 0.32 6.75556 0.711111C6.75556 5.58222 10.5244 9.56445 15.2889 9.92ZM18.2756 20.8356C17.0311 22.08 15.0044 22.08 13.76 20.8356C12.5156 19.5911 12.5156 17.5644 13.76 16.32L16.0356 14.0444L18.3111 16.32C19.52 17.5644 19.52 19.5911 18.2756 20.8356ZM23.7867 1.45778C23.4311 5.19111 20.48 8.14222 16.7467 8.49778C17.1022 4.76444 20.0533 1.81333 23.7867 1.45778ZM15.2533 8.49778C11.52 8.14222 8.56889 5.19111 8.21333 1.45778C11.9467 1.81333 14.8978 4.76444 15.2533 8.49778ZM29.8667 17.7778H24.7822C23.7511 17.7778 22.8622 18.56 22.6844 19.5911C22.5778 20.3378 22.3289 21.0489 21.9733 21.6889C20.7644 23.8933 18.4889 25.2444 16 25.2444C13.5111 25.2444 11.2356 23.8933 10.0622 21.6889C9.70667 21.0133 9.45778 20.3378 9.35111 19.5911C9.17333 18.5244 8.28444 17.7778 7.25333 17.7778H2.13333C0.96 17.7778 0 18.7378 0 19.9111V22.0444V29.1556C0 30.72 1.28 32 2.84444 32H29.1556C30.72 32 32 30.72 32 29.1556V22.0444V19.9111C32 18.7378 31.04 17.7778 29.8667 17.7778ZM24.0711 19.84C24.1422 19.4844 24.4267 19.2 24.7822 19.2H29.8667C30.2578 19.2 30.5778 19.52 30.5778 19.9111V21.3333H23.68C23.8578 20.8356 24 20.3378 24.0711 19.84ZM1.42222 19.9111C1.42222 19.52 1.74222 19.2 2.13333 19.2H7.21778C7.57333 19.2 7.85778 19.4489 7.92889 19.84C8 20.3378 8.14222 20.8711 8.32 21.3333H1.42222V19.9111ZM30.5778 29.1556C30.5778 29.9378 29.9378 30.5778 29.1556 30.5778H2.84444C2.06222 30.5778 1.42222 29.9378 1.42222 29.1556V22.7556H9.03111C10.4889 25.1733 13.1556 26.6667 16 26.6667C18.8444 26.6667 21.5111 25.1733 22.9689 22.7556H30.5778V29.1556Z" fill="#5BA9A9"/>
</svg>
