<svg fill="none" height="512" viewBox="0 0 512 512" width="512" xmlns="http://www.w3.org/2000/svg"><g fill="#5CA9A9"><path d="m376.827 183.257c-4.394.054-8.728.525-12.373.803-15.904 1.278-35.412 6.276-52.33 18.949-16.917 12.673-27.273 30.031-33.056 44.985-3.231 10.436-9.815 26.935-3.477 35.758 2.97 3.114 6.951 4.979 11.287 6.076 3.055-4.355 6.216-8.442 9.375-12.18 14.38-17.013 28.279-27.875 28.279-27.875 1.369-1.07 3.049-1.666 4.786-1.697 1.239-.021 2.466.246 3.584.78 1.119.534 2.097 1.321 2.859 2.298 1.307 1.671 1.896 3.793 1.639 5.899-.257 2.105-1.341 4.022-3.012 5.33 0 0-12.644 9.889-25.918 25.593-.844.999-1.688 2.021-2.529 3.063 1.688-.096 3.309-.206 4.759-.317 15.905-1.278 35.413-6.284 52.33-18.957 16.918-12.673 27.267-30.031 33.049-44.984 3.234-10.437 11.128-28.114 3.485-35.758-2.389-3.235-4.573-3.797-6.836-4.613-4.503-2.6-10.251-3.222-15.901-3.153z"/><path d="m141.698 183.756c-8.265.099-16.589 1.392-21.119 7.382-6.33 10.408-.05 26.389 3.551 35.752 5.812 14.943 16.195 32.286 33.137 44.926s36.46 17.606 52.367 18.854c1.556.017 3.272.058 5.053.098-.381-.461-.761-.932-1.141-1.383-13.246-15.709-25.822-25.6-25.822-25.6-1.667-1.31-2.746-3.229-2.999-5.335-.253-2.105.34-4.225 1.649-5.893 1.311-1.668 3.229-2.747 5.335-3.001 2.106-.253 4.226.34 5.894 1.649 0 0 13.835 10.859 28.176 27.867 2.749 3.261 5.495 6.804 8.179 10.539 4.494-1.012 8.383-2.81 10.778-5.976 5.974-10.76.05-26.386-3.551-35.75-5.812-14.942-16.197-32.28-33.139-44.92-16.942-12.641-36.459-17.606-52.365-18.854-4.085-.045-9.023-.415-13.983-.355z"/><path d="m256 8.00195c-17.578 0-32 14.42215-32 32.00045 0 17.5784 14.422 32.0005 32 32.0005 17.579 0 32.001-14.4221 32.001-32.0005 0-17.5783-14.422-32.00045-32.001-32.00045zm0 15.99655c8.931 0 16.004 7.0726 16.004 16.0039s-7.073 15.9966-16.004 15.9966-15.996-7.0653-15.996-15.9966 7.065-16.0039 15.996-16.0039z"/><path d="m256 79.9976c-24.205 0-43.996 19.7976-43.996 44.0034 0 2.121.842 4.155 2.341 5.656 1.499 1.5 3.533 2.344 5.654 2.346h72.003c1.051 0 2.091-.207 3.062-.609s1.853-.991 2.596-1.734c.743-.744 1.333-1.626 1.735-2.597s.609-2.011.609-3.062c0-24.2058-19.798-44.0034-44.004-44.0034zm0 16.0039c12.714 0 22.934 8.4705 26.398 19.9975h-52.795c3.463-11.527 13.684-19.9975 26.397-19.9975z"/><path d="m256 379.998c-17.578 0-32 14.422-32 32 0 17.579 14.422 32.001 32 32.001 17.579 0 32.001-14.422 32.001-32.001 0-17.578-14.422-32-32.001-32zm0 16.004c8.931 0 16.004 7.065 16.004 15.996s-7.073 16.004-16.004 16.004-15.996-7.073-15.996-16.004 7.065-15.996 15.996-15.996z"/><path d="m256 452c-24.205 0-43.996 19.791-43.996 43.996 0 2.122.842 4.156 2.341 5.656 1.499 1.501 3.533 2.345 5.654 2.346h72.003c1.051.001 2.091-.206 3.062-.608s1.853-.992 2.596-1.735 1.333-1.625 1.735-2.596.609-2.012.609-3.063c0-24.205-19.798-43.996-44.004-43.996zm0 15.997c12.715 0 22.943 8.476 26.405 20.005h-52.81c3.463-11.529 13.691-20.005 26.405-20.005z"/><path d="m459.999 167.997c-17.579 0-32.001 14.422-32.001 32.001 0 17.578 14.422 32 32.001 32 17.578 0 32-14.422 32-32 0-17.579-14.422-32.001-32-32.001zm0 16.004c8.931 0 16.004 7.065 16.004 15.997 0 8.931-7.073 16.003-16.004 16.003s-15.997-7.072-15.997-16.003c0-8.932 7.066-15.997 15.997-15.997z"/><path d="m459.999 240c-24.206 0-43.996 19.798-43.996 44.004.001 2.121.845 4.154 2.346 5.653 1.5 1.499 3.535 2.341 5.656 2.341h71.995c2.121 0 4.155-.842 5.656-2.341s2.344-3.532 2.346-5.653c0-24.206-19.797-44.004-44.003-44.004zm0 15.997c12.713 0 22.934 8.478 26.397 20.005h-52.795c3.463-11.528 13.684-20.005 26.398-20.005z"/><path d="m52.0016 167.997c-17.5782 0-32.0005 14.422-32.0005 32.001 0 17.578 14.4223 32 32.0005 32 17.5786 0 32.0005-14.422 32.0005-32 0-17.579-14.4219-32.001-32.0005-32.001zm0 16.004c8.9314 0 15.9965 7.065 15.9965 15.997 0 8.931-7.0651 16.003-15.9965 16.003s-16.004-7.072-16.004-16.003c0-8.932 7.0726-15.997 16.004-15.997z"/><path d="m52.0016 240c-24.2056 0-44.00355 19.798-44.00355 44.004.00168 2.121.84552 4.154 2.34605 5.653 1.5005 1.499 3.5349 2.341 5.656 2.341h72.003c2.1197-.002 4.1522-.845 5.6511-2.343 1.4988-1.499 2.3417-3.532 2.3433-5.651 0-24.206-19.7899-44.004-43.9959-44.004zm0 15.997c12.7132 0 22.9341 8.478 26.3977 20.005h-52.7955c3.4636-11.527 13.6846-20.005 26.3978-20.005z"/><path d="m317.506 237.682c-1.736.032-3.416.627-4.784 1.698 0 0-13.9 10.861-28.28 27.874-8.966 10.608-17.986 23.907-24.374 38.725-6.417-14.812-15.423-28.109-24.368-38.718-14.341-17.008-28.177-27.867-28.177-27.867-1.668-1.308-3.788-1.901-5.893-1.648s-4.024 1.332-5.334 2.999c-1.309 1.669-1.902 3.789-1.649 5.894s1.332 4.024 2.999 5.334c0 0 12.576 9.891 25.822 25.601 13.246 15.709 26.591 37.007 28.686 58.28.195 1.981 1.121 3.819 2.599 5.154 1.477 1.335 3.399 2.071 5.39 2.064 1.991-.006 3.909-.755 5.377-2.1 1.469-1.345 2.383-3.189 2.564-5.171 1.973-21.241 15.302-42.517 28.575-58.221 13.274-15.705 25.919-25.594 25.919-25.594 1.67-1.307 2.753-3.224 3.011-5.329.257-2.106-.332-4.227-1.639-5.898-.762-.978-1.741-1.764-2.859-2.298-1.119-.535-2.346-.8-3.585-.779z"/><path d="m317.632 54.9656c-1.645.048-3.234.6018-4.553 1.5859-1.318.9841-2.301 2.3507-2.814 3.9137-.328.9984-.456 2.0517-.377 3.0997.079 1.0479.364 2.07.838 3.0078.475.9378 1.129 1.7729 1.926 2.4577.798.6847 1.722 1.2057 2.721 1.5332 44.711 14.6872 82.357 45.0384 106.41 84.5524 1.103 1.811 2.881 3.111 4.942 3.612s4.237.163 6.049-.94 3.111-2.881 3.612-4.943c.501-2.061.163-4.237-.94-6.049-26.014-42.737-66.695-75.537-115.083-91.4317-.881-.2901-1.805-.425-2.731-.3987zm-127.929.1773c-.491.0067-.98.0586-1.461.155-10.457 2.1117-21.505 6.71-29.609 12.7485-.843.628-1.553 1.4159-2.091 2.3186-.538.9028-.893 1.9027-1.045 2.9426-.151 1.0399-.096 2.0995.162 3.1182s.714 1.9766 1.343 2.8189c1.268 1.6996 3.159 2.8262 5.257 3.1321 2.099.3059 4.233-.2339 5.934-1.5007 5.342-3.9803 15.312-8.2956 23.216-9.8917 1.03-.2078 2.009-.6165 2.881-1.2027s1.62-1.3385 2.201-2.2139c.582-.8754.985-1.8567 1.187-2.888.202-1.0312.199-2.0921-.01-3.1221-.37-1.8309-1.368-3.4747-2.823-4.6464-1.455-1.1716-3.274-1.7972-5.142-1.7684zm-95.5729 65.3741c-1.1742-.008-2.3358.242-3.4023.733s-2.0119 1.211-2.7689 2.109c-4.1344 4.906-8.7859 10.812-14.9189 23.068-.4698.94-.7498 1.963-.8241 3.011s.0586 2.101.391 3.098c.3325.996.8581 1.918 1.5467 2.711.6886.794 1.5268 1.444 2.4667 1.914 1.8971.949 4.0936 1.106 6.1064.436 2.0127-.67 3.677-2.112 4.6267-4.009 5.6527-11.297 8.877-15.208 12.8446-19.917 1.367-1.623 2.032-3.722 1.851-5.836s-1.195-4.069-2.8181-5.436c-1.4283-1.203-3.2329-1.869-5.1008-1.882zm356.7809 182.119c-1.722.041-3.386.637-4.743 1.699-1.356 1.063-2.333 2.536-2.786 4.198-17.259 63.47-65.634 114.174-127.692 134.683-2.014.666-3.682 2.105-4.636 4s-1.116 4.091-.45 6.106c.33.998.853 1.922 1.54 2.718.686.796 1.523 1.449 2.462 1.921.94.473 1.963.755 3.011.832 1.049.076 2.102-.054 3.1-.385 67.162-22.195 119.43-76.986 138.108-145.674.275-1.014.348-2.073.215-3.115-.134-1.042-.472-2.048-.994-2.959-.522-.912-1.219-1.712-2.051-2.354-.831-.643-1.781-1.115-2.795-1.39-.745-.203-1.516-.298-2.289-.28zm-393.7715.952c-.6438.016-1.2833.11-1.9045.279-1.0126.281-1.9601.758-2.7882 1.405-.8282.647-1.5208 1.45-2.0384 2.365-.5175.914-.8498 1.921-.978 2.964-.1281 1.043-.0495 2.101.2313 3.114 18.8561 68.043 70.7163 122.303 137.2963 144.508 2.012.671 4.209.516 6.107-.433 1.898-.948 3.341-2.611 4.013-4.624.671-2.012.516-4.209-.432-6.107-.949-1.898-2.612-3.342-4.625-4.013-61.52-20.518-109.5152-70.732-126.9385-133.605-.479-1.724-1.5217-3.237-2.9615-4.298-1.4399-1.061-3.1937-1.608-4.9815-1.555z"/><path d="m122.645 111.525c-.997 1.9-2.708 3.327-4.757 3.965-2.049.639-4.268.438-6.168-.559s-3.327-2.709-3.965-4.757c-.639-2.049-.438-4.268.559-6.168s2.709-3.327 4.757-3.965c2.049-.6392 4.268-.4379 6.168.559 1.9.997 3.327 2.708 3.965 4.757.639 2.049.438 4.268-.559 6.168z"/><path d="m145.105 93.6521c-.494.9411-1.168 1.7756-1.984 2.4561s-1.759 1.1935-2.773 1.5098c-1.015.3163-2.082.4296-3.14.3336s-2.087-.3996-3.028-.8933c-.941-.4938-1.776-1.168-2.456-1.9843-.68-.8162-1.193-1.7585-1.51-2.7729-.316-1.0145-.429-2.0814-.333-3.1396.096-1.0583.4-2.0873.893-3.0282.998-1.9003 2.709-3.3266 4.757-3.9653 2.049-.6387 4.267-.4375 6.168.5595 1.9.997 3.327 2.7081 3.965 4.7569.639 2.0487.438 4.2673-.559 6.1677z"/></g></svg>