<svg id="Layer_1" viewBox="0 0 512 512" xmlns="http://www.w3.org/2000/svg" data-name="Layer 1"><g fill="#5CA9A9"><path d="m258.133 272.924c-2.722-1.279-6.194-2.918-9.111-5.266 1.612 3.442 3.449 6.756 5.486 9.932 3.818-.493 6.473-1.399 7.967-2.176-.776-.599-2.025-1.4-3.996-2.327l-.346-.162z"/><path d="m252.911 222.592c.775-.708 1.576-1.424 2.388-2.15 9.603-8.587 13.304-13.109 10.923-18.4-.347-.525-.608-.755-.72-.839-.415.07-1.522.612-2.753 2.018-.379.432-.821.964-1.313 1.556-4.337 5.209-11.297 13.559-19.179 11.901-.833 4.791-1.292 9.709-1.292 14.735 0 7.513.978 14.8 2.8 21.749.396-1.261 1.024-2.595 1.975-3.974.186-.499-.133-2.397-.323-3.531-.883-5.262-2.36-14.067 7.495-23.062z"/><path d="m306.746 156.489.429.133c6.112 1.892 15.348 4.752 18.524 12.212 1.108 2.603 1.885 6.789-.71 11.957-.077.152-.122.264-.148.336.112.332.437.982.682 1.473 2.732 5.47 4.873 12.235-4.295 23.392-.156.627-.139 2.216-.127 3.29.059 5.243.18 16.152-14.434 19.446l-.658.146c-3.957.87-7.312 1.702-10.15 2.481 3.802 1.172 7.865 4.181 12.565 9.981.874 1.08 1.722 1.733 2.295 1.68.897-.045 2.561-1.157 4.094-3.493.383-.583.825-1.297 1.318-2.091 4.551-7.326 12.166-19.581 22.528-16.025 3.398 1.169 4.967 1.053 5.423.969 1.052-1.855.45-7.666-1.793-17.283-.393-1.687-.733-3.144-.972-4.422-1.709-9.138 4.155-17.896 10.727-22.524 5.954-4.194 12.356-5.033 17.123-2.25 3.329 1.943 7.091 6.256 6.212 15.764.449-.12.972-.274 1.578-.469 2.935-.944 3.724-1.198 1.124-11.072-1.356-5.15-3.189-12.112-.872-18.042-14.17-10.338-31.604-16.46-50.448-16.46-9.16 0-17.983 1.458-26.266 4.129 1.914 3.694 4.081 6.07 6.252 6.744z"/><path d="m85.232 388.027c-1.415-1.415-3.31-2.193-5.338-2.193s-3.923.778-5.337 2.192l-23.875 23.874 79.201 79.201 23.874-23.874c1.414-1.415 2.193-3.311 2.193-5.339s-.779-3.923-2.193-5.337l-68.526-68.524z"/><path d="m380.535 298.197c-2.575-4.1-6.212-8.8-9.943-9.424-3.521-.595-7.779 2.507-10.726 5.208-8.199 7.518-13.356 11.115-18.792 9.891-4.85-1.09-6.568-5.308-7.491-7.573-1.096-2.692-1.162-2.854-3.67-2.854-3.865 0-5.852.381-6.785.656.012.369.038.782.058 1.11.17 2.776.454 7.425-3.098 11.301-3.083 3.365-7.855 4.955-15.472 5.155-.793.021-2.013.055-3.011 1.771 7.959 2.446 16.405 3.77 25.155 3.77 20.347 0 39.051-7.133 53.775-19.012z"/></g><path d="m426.557 231.412c0-55.027-44.769-99.796-99.797-99.796s-99.796 44.769-99.796 99.796 44.768 99.797 99.796 99.797 99.797-44.769 99.797-99.797zm-124.952 82.027c.999-1.717 2.218-1.75 3.011-1.771 7.617-.2 12.389-1.79 15.472-5.155 3.552-3.876 3.268-8.524 3.098-11.301-.02-.328-.045-.741-.058-1.11.933-.275 2.919-.656 6.785-.656 2.508 0 2.574.161 3.67 2.854.923 2.266 2.641 6.483 7.491 7.573 5.435 1.225 10.592-2.373 18.792-9.891 2.947-2.701 7.206-5.803 10.726-5.208 3.73.624 7.368 5.323 9.943 9.424-14.724 11.879-33.428 19.012-53.775 19.012-8.75 0-17.196-1.324-25.155-3.77zm75.603-151.363c-2.318 5.93-.485 12.892.872 18.042 2.6 9.874 1.812 10.128-1.124 11.072-.605.194-1.128.349-1.578.469.879-9.508-2.883-13.82-6.212-15.764-4.767-2.783-11.168-1.944-17.123 2.25-6.571 4.628-12.436 13.387-10.727 22.524.239 1.278.579 2.735.972 4.422 2.243 9.617 2.846 15.428 1.793 17.283-.456.084-2.025.2-5.423-.969-10.362-3.556-17.978 8.699-22.528 16.025-.493.794-.936 1.508-1.318 2.091-1.533 2.336-3.197 3.448-4.094 3.493-.574.054-1.421-.6-2.295-1.68-4.7-5.801-8.764-8.81-12.565-9.981 2.839-.779 6.193-1.611 10.15-2.481l.658-.146c14.614-3.294 14.493-14.203 14.434-19.446-.012-1.074-.029-2.663.127-3.29 9.168-11.156 7.028-17.922 4.295-23.392-.245-.49-.57-1.141-.682-1.473.026-.072.071-.184.148-.336 2.595-5.168 1.818-9.354.71-11.957-3.177-7.46-12.413-10.32-18.524-12.212l-.429-.133c-2.17-.674-4.337-3.05-6.252-6.744 8.283-2.671 17.106-4.129 26.266-4.129 18.844 0 36.278 6.122 50.448 16.46zm-134.951 54.601c7.881 1.658 14.841-6.692 19.179-11.901.493-.592.935-1.124 1.313-1.556 1.231-1.405 2.338-1.947 2.753-2.018.112.084.374.313.72.839 2.381 5.291-1.32 9.813-10.923 18.4-.812.727-1.613 1.442-2.388 2.15-9.854 8.995-8.377 17.801-7.495 23.062.19 1.134.509 3.032.323 3.531-.951 1.379-1.58 2.713-1.975 3.974-1.822-6.949-2.8-14.236-2.8-21.749 0-5.026.459-9.944 1.292-14.735zm12.252 60.913c-2.037-3.176-3.875-6.489-5.486-9.932 2.917 2.349 6.389 3.988 9.111 5.266l.346.162c1.97.927 3.219 1.729 3.996 2.327-1.494.777-4.149 1.684-7.967 2.176zm9.514 12.259c7.395-2.318 12.133-6.444 13.238-11.894.795-3.923.187-11.418-12.821-17.536l-.354-.166c-1.455-.684-4.959-2.33-6.484-3.626 3.044-4.82 2.226-9.696 1.623-13.288-.731-4.361-1.099-6.55 3.125-10.405.741-.677 1.506-1.36 2.283-2.055 8.666-7.75 21.763-19.462 14.033-35.273-.089-.184-.188-.363-.292-.538-2.787-4.626-6.896-7.402-11.568-7.817-5.118-.462-10.432 2.004-14.585 6.744-.444.507-.963 1.129-1.541 1.823-.791.95-2.29 2.749-3.782 4.311 7.651-19.462 22.207-35.465 40.647-44.985 3.814 7.844 8.854 12.792 15.052 14.716l.438.136c2.272.703 8.112 2.512 9.614 4.132-.038.1-.093.227-.17.382-3.332 6.636-.825 11.653.522 14.349 1.097 2.196 1.598 3.198-2.698 8.379-3.291 3.968-3.238 8.726-3.199 12.2q.054 4.829-3.514 5.634l-.585.129c-27.764 6.105-34.248 11.635-35.443 18.06-.364 1.958-.566 6.937 5.398 10.88 7.949 5.253 13.925 2.642 17.134 1.238.538-.235 1.333-.583 1.669-.655.323.111 2.112.896 5.784 5.428 3.605 4.45 8.242 6.867 13.129 6.867.248 0 .496-.006.744-.019 5.697-.285 11.201-3.854 15.099-9.793.438-.666.944-1.479 1.507-2.387 1.292-2.079 5.009-8.062 7.277-9.782 7.763 2.408 13.859 1.675 18.132-2.183 8.018-7.24 4.692-21.503 2.491-30.941-.356-1.525-.663-2.843-.846-3.817-.296-1.583.564-3.844 2.246-5.9 1.439-1.761 3.03-2.865 4.183-3.439.008.464-.012 1.045-.083 1.764-.226 2.247-.912 9.087 4.096 13.134 5.246 4.238 12.59 1.874 15.726.864 16.351-5.262 12.462-20.03 10.372-27.965-.16-.606-.306-1.174-.443-1.72 13.294 15.116 21.382 34.916 21.382 56.58 0 21.856-8.227 41.819-21.732 56.985-4.518-6.582-10.189-12.139-17.924-13.432-7.302-1.217-14.87 1.706-22.496 8.697-2.252 2.064-3.931 3.485-5.169 4.463-2.016-3.805-6.079-8.68-15.322-8.68-8.738 0-14.127 1.586-17.473 5.144-3.689 3.921-3.4 8.651-3.228 11.477.019.306.042.686.055 1.033-.8.222-2.322.504-5.02.575-3.756.099-11.578 1.471-15.661 10.543-9.263-4.623-17.574-10.868-24.564-18.368zm209.198 46.098c-6.446-7.318-19.478-10.936-34.058-2.52-17.689 10.214-61.392 31.539-94.527 44.209 1.036-6.03-.083-12.288-3.384-17.844-.332-.558-.683-1.098-1.047-1.625 19.664-1.819 38.891-7.637 55.756-17.46 38.299-22.308 59.087-61.038 58.537-109.056-.857-74.538-59.384-147.021-106.412-205.261-5.542-6.864-10.777-13.348-15.851-19.741-1.328-1.674-3.347-2.649-5.483-2.649s-4.156.976-5.483 2.649c-5.073 6.394-10.309 12.878-15.852 19.742-47.027 58.24-105.553 130.723-106.411 205.26-.503 43.878 16.822 79.993 49.034 102.917-7.57-2.73-14.609-5.648-21.384-8.458-21.455-8.899-39.982-16.585-61.985-11.261-22.094 5.348-45.573 23.581-75.806 58.946-2.778-1.27-5.816-1.96-8.971-1.96-5.767 0-11.179 2.234-15.237 6.293l-28.824 28.823c-1.313 1.313-2.05 3.094-2.05 4.95s.737 3.637 2.05 4.95l89.1 89.1c1.312 1.313 3.093 2.051 4.95 2.051s3.637-.737 4.95-2.051l28.824-28.824c4.058-4.059 6.293-9.47 6.293-15.237 0-2.501-.444-4.926-1.251-7.212 18.19-7.484 38.502-8.131 64.413-6.581 5.886.353 12.067.851 18.611 1.377 15.548 1.253 31.623 2.546 47.176 2.204 32.73-.724 52.411-9.906 78.7-23.832 26.759-14.175 83.844-48.045 94.542-62.107 7.69-10.109 8.114-21.803 1.08-29.79zm-260.217-104.136c.801-69.681 57.636-140.067 103.304-196.625 3.595-4.452 7.061-8.744 10.443-12.963 3.381 4.219 6.847 8.51 10.442 12.962 45.668 56.558 102.504 126.944 103.305 196.626.49 42.76-17.829 77.137-51.584 96.798-37.181 21.656-87.144 21.656-124.326 0-33.755-19.661-52.074-54.038-51.584-96.798zm-59.247 235.416-23.874 23.874-79.201-79.201 23.875-23.874c1.414-1.414 3.31-2.192 5.337-2.192s3.923.778 5.338 2.193l68.526 68.524c1.414 1.414 2.193 3.31 2.193 5.337s-.779 3.924-2.193 5.339zm307.241-109.966c-7.456 9.801-55.306 39.859-89.953 58.212-24.52 12.988-42.809 21.552-72.456 22.207-14.829.325-30.546-.938-45.743-2.162-6.618-.533-12.869-1.037-18.899-1.397-23.215-1.389-49.752-1.886-73.817 9.004l-60.445-60.444c27.751-32.417 49.51-49.683 68.278-54.225 17.563-4.253 33.345 2.297 53.327 10.585 23.463 9.733 52.665 21.847 96.573 21.847.088 0 .176-.002.264-.005 4.583-.165 8.729 2.093 11.088 6.061 2.358 3.968 2.366 8.691.022 12.635-4.353 7.325-20.298 11.119-42.653 10.14-21.072-.92-42.258-5.941-50.566-10.265-3.428-1.787-7.656-.451-9.441 2.978-1.785 3.43-.452 7.656 2.978 9.44 10.961 5.705 38.276 12.083 63.548 12.083 12.304 0 24.122-1.517 33.331-5.357 33.615-9.432 96.562-39.67 119.727-53.045 7.681-4.433 13.963-3.29 16.552-.353 2.506 2.846 1.864 7.354-1.716 12.062z" fill="#5CA9A9"/></svg>

