<svg width="38" height="38" viewBox="0 0 38 38" fill="none" xmlns="http://www.w3.org/2000/svg">
<path d="M37.6499 7.60099C37.0777 7.38752 36.6587 6.92622 36.5004 6.33545C36.3421 5.74468 36.4743 5.13576 36.8632 4.66476C37.0062 4.49145 37.0266 4.24745 36.9142 4.05276C36.8018 3.85807 36.5805 3.75376 36.3587 3.79099C35.7566 3.8923 35.1629 3.7023 34.7304 3.26984C34.2979 2.83738 34.108 2.24384 34.2092 1.64154C34.2464 1.41984 34.1421 1.19838 33.9474 1.086C33.7528 0.973536 33.5088 0.993921 33.3354 1.13707C32.8676 1.5233 32.2591 1.65354 31.6661 1.49477C31.073 1.33584 30.6112 0.91869 30.3991 0.350307C30.3204 0.139615 30.1193 0 29.8945 0C29.6697 0 29.4686 0.139615 29.39 0.35023C29.1765 0.922383 28.7153 1.34138 28.1245 1.49969C27.5337 1.658 26.9247 1.52577 26.4537 1.137C26.2804 0.993921 26.0363 0.973537 25.8417 1.08592C25.647 1.19831 25.5426 1.41977 25.58 1.64146C25.6716 2.18638 25.524 2.72361 25.175 3.14138C23.2082 2.37461 21.1329 1.98553 19.0001 1.98553C16.5371 1.98553 14.0861 2.52661 11.8641 3.55238C11.3614 1.51946 9.51381 0 7.33788 0C6.09141 0 4.9204 0.485845 4.04056 1.36815C3.25609 2.15476 2.7857 3.17407 2.6927 4.27284C1.08854 4.83937 0 6.34545 0 8.06529C0 10.0931 1.51731 11.7719 3.47594 12.0293C2.48763 14.2213 1.98555 16.562 1.98555 19C1.98555 23.5446 3.7554 27.8173 6.96903 31.0309C10.1826 34.2445 14.4554 36.0144 19.0001 36.0144C21.5946 36.0144 24.1493 35.4223 26.4615 34.2941C26.455 34.381 26.451 34.4685 26.451 34.5564C26.451 36.4552 27.9958 38 29.8946 38C31.7934 38 33.3381 36.4552 33.3381 34.5564C33.3381 33.7418 33.0545 32.9651 32.5352 32.346V29.3098C34.8116 26.3274 36.0145 22.767 36.0145 19C36.0145 16.867 35.6255 14.7917 34.8586 12.8251C35.2763 12.4761 35.8135 12.3285 36.3585 12.4202C36.5802 12.4573 36.8017 12.3531 36.9141 12.1584C37.0265 11.9637 37.0062 11.7197 36.863 11.5464C36.4768 11.0785 36.3465 10.4701 36.5054 9.87706C36.6643 9.28398 37.0814 8.82229 37.6498 8.61021C37.8604 8.53168 38 8.33052 38 8.10568C38.0002 7.88075 37.8605 7.6796 37.6499 7.60099ZM23.8493 3.81422C23.7115 3.82176 23.5713 3.81461 23.4305 3.79092C23.209 3.75407 22.9873 3.85807 22.8749 4.05268C22.7626 4.2473 22.7829 4.49138 22.926 4.66468C23.3122 5.13261 23.4426 5.74099 23.2836 6.33406C23.1247 6.92706 22.7076 7.38883 22.1392 7.60091C21.9286 7.67945 21.789 7.8806 21.789 8.10545C21.789 8.33021 21.9286 8.53137 22.1392 8.60991C22.4866 8.73952 22.777 8.96091 22.9874 9.2466C22.5811 9.44413 22.1228 9.56221 21.7055 9.66944C21.5032 9.72152 21.3119 9.7706 21.1294 9.82706C20.658 9.97283 20.1469 10.1922 19.9301 10.7142C19.6897 11.2931 19.9611 11.9299 20.1862 12.3584C20.5291 13.0111 21.4322 13.648 22.3885 14.3221C22.8762 14.666 23.3806 15.0217 23.7589 15.3496C24.0019 15.5601 24.131 15.7755 24.0959 15.9116C24.0594 16.0532 23.8187 16.2394 23.3633 16.3363C23.2402 16.3625 22.818 16.383 22.4097 16.403C21.3332 16.4555 19.7062 16.5348 18.4872 16.8724C17.3367 17.191 16.7052 17.7137 16.6103 18.426C16.5202 19.1022 16.937 19.8369 17.8845 20.6723C18.7832 21.4644 20.4458 23.2743 20.3065 24.4537C20.2795 24.6816 20.1782 25.0193 19.611 25.3199C17.9212 26.2157 16.8634 25.2286 16.0045 24.2332C15.6349 23.8049 15.2011 22.9643 14.7418 22.0743C13.8329 20.3131 12.8027 18.317 11.4381 17.785C11.3234 17.7403 11.1993 17.7078 11.0554 17.6701C10.744 17.5885 10.3443 17.4831 9.95058 17.2072L12.416 14.0575C12.5429 13.8954 12.5662 13.675 12.4761 13.4898C12.3858 13.3047 12.1979 13.1872 11.992 13.1872C11.3973 13.1872 10.883 13.2118 10.3856 13.2356C10.1163 13.2484 9.85496 13.261 9.58389 13.2698L9.98889 12.0646H13.2498C15.4551 12.0646 17.2491 10.2705 17.2491 8.06529C17.2491 5.91268 15.5394 4.15276 13.4066 4.06999C15.1848 3.40092 17.0589 3.06246 19 3.06246C20.6634 3.06246 22.2889 3.31561 23.8493 3.81422ZM8.78142 15.5907C8.68011 15.4514 8.51827 15.3689 8.34596 15.3689H5.96426L6.87611 12.0645H8.85281L8.32019 13.6496C8.26496 13.8139 8.29226 13.9947 8.39342 14.1354C8.49457 14.2761 8.65734 14.3595 8.83065 14.3595C9.42535 14.3595 9.93966 14.3349 10.437 14.3111C10.5812 14.3043 10.7231 14.2974 10.8654 14.2913L8.42596 17.4079L8.85827 16.0731C8.91127 15.9094 8.88281 15.73 8.78142 15.5907ZM1.07693 8.06529C1.07693 6.70583 2.00847 5.5283 3.34224 5.20168C3.58317 5.14268 3.75263 4.92668 3.75263 4.67861C3.75255 3.71361 4.12563 2.80799 4.8031 2.12861C5.47941 1.45038 6.37964 1.07692 7.33788 1.07692C9.28765 1.07692 10.8958 2.66269 10.9227 4.61191C10.9267 4.90637 11.1666 5.14291 11.4611 5.14291H13.2499C14.8613 5.14291 16.1723 6.45383 16.1723 8.06529C16.1723 9.67675 14.8613 10.9877 13.2499 10.9877H3.99932C2.38793 10.9877 1.07693 9.67667 1.07693 8.06529ZM12.6515 32.8667C12.9352 33.0107 13.1657 33.1283 13.1726 33.8342C11.2494 33.0761 9.50812 31.9542 8.03349 30.5538C8.1355 30.5271 8.24257 30.4983 8.35627 30.4678C9.06073 30.2782 9.93704 30.0419 10.647 30.0685C11.0837 30.0846 11.3914 30.1957 11.5874 30.408C11.8322 30.6732 11.9424 31.1348 11.9147 31.7799C11.8849 32.4776 12.3837 32.7307 12.6515 32.8667ZM31.4583 21.9005H28.3308V20.2019C28.3308 19.3397 29.0323 18.6382 29.8945 18.6382C30.7567 18.6382 31.4583 19.3397 31.4583 20.2019V21.9005ZM29.8946 36.923C28.5896 36.923 27.5279 35.8613 27.5279 34.5563C27.5279 33.945 27.7602 33.365 28.1819 32.9229C28.2774 32.8228 28.3308 32.6897 28.3308 32.5512V31.2754H29.2293C29.5267 31.2754 29.7677 31.0343 29.7677 30.7369C29.7677 30.4396 29.5267 30.1985 29.2293 30.1985H28.3308V28.319H29.2293C29.5267 28.319 29.7677 28.0779 29.7677 27.7806C29.7677 27.4832 29.5267 27.2421 29.2293 27.2421H28.3308V25.3626H29.2293C29.5267 25.3626 29.7677 25.1216 29.7677 24.8242C29.7677 24.5268 29.5267 24.2857 29.2293 24.2857H28.3308V22.9773H31.4583V32.5512C31.4583 32.6897 31.5116 32.8228 31.6072 32.9229C32.029 33.365 32.2612 33.9451 32.2612 34.5563C32.2612 35.8613 31.1995 36.923 29.8946 36.923ZM32.5352 27.4216V20.2019C32.5352 18.7458 31.3506 17.5613 29.8945 17.5613C28.4384 17.5613 27.2539 18.7458 27.2539 20.2019V32.3459C27.1237 32.5012 27.0083 32.6663 26.9084 32.8396C24.511 34.2122 21.7801 34.9375 19 34.9375C17.3421 34.9375 15.7427 34.6827 14.2384 34.2108C14.2386 34.2064 14.2388 34.2023 14.2391 34.1975C14.3336 32.6467 13.7207 32.2018 13.1388 31.9064C13.0901 31.8817 13.0277 31.85 12.9906 31.8266C12.9906 31.8264 12.9906 31.8261 12.9906 31.8259C13.0309 30.8839 12.825 30.161 12.3785 29.6775C11.9836 29.2497 11.4144 29.0192 10.6867 28.9922C9.81443 28.9604 8.85081 29.2194 8.07626 29.4279C7.76603 29.5113 7.36157 29.6198 7.15049 29.646C4.61056 26.8218 3.06247 23.0885 3.06247 19C3.06247 16.5646 3.59663 14.2334 4.64794 12.0646H5.75902L4.7381 15.7642C4.69333 15.9262 4.72687 16.0999 4.82871 16.2337C4.93056 16.3674 5.08902 16.4459 5.2571 16.4459H7.60557L6.46549 19.9659C6.38503 20.2143 6.49441 20.4847 6.72495 20.6072C6.80503 20.6497 6.89164 20.6703 6.97749 20.6703C7.13864 20.6703 7.29672 20.5979 7.4018 20.4637L9.28635 18.056C9.85266 18.4671 10.4148 18.6157 10.7825 18.712C10.8894 18.74 10.9904 18.7665 11.0471 18.7887C12.0324 19.1727 13.0041 21.0556 13.7849 22.5684C14.2954 23.5577 14.7364 24.4121 15.1891 24.9369C15.6701 25.4943 16.7503 26.7465 18.3598 26.7465C18.8886 26.7465 19.4749 26.6111 20.1154 26.2716C21.0507 25.7757 21.3171 25.0781 21.3759 24.5802C21.6065 22.6273 19.1012 20.3094 18.5965 19.8647C17.6901 19.0656 17.664 18.6706 17.6776 18.5686C17.7083 18.3382 18.1184 18.0923 18.7745 17.9106C19.8782 17.605 21.4332 17.5291 22.4621 17.4789C23.0648 17.4495 23.3886 17.4322 23.5873 17.3899C24.4209 17.2126 24.9864 16.7718 25.1387 16.1807C25.2221 15.8571 25.2454 15.2132 24.4643 14.5361C24.0451 14.1729 23.5183 13.8014 23.0089 13.4423C22.2368 12.8979 21.3617 12.2808 21.1395 11.858C20.8641 11.3334 20.9122 11.1575 20.9246 11.1275C20.9441 11.0805 21.038 10.9828 21.4475 10.8562C21.6052 10.8074 21.7842 10.7614 21.9736 10.7127C22.3921 10.6052 22.8789 10.4795 23.3505 10.2657C23.3758 10.7271 23.2295 11.1788 22.9259 11.5465C22.7829 11.7198 22.7625 11.9638 22.8749 12.1585C22.9872 12.3531 23.2086 12.4572 23.4304 12.4203C24.0327 12.3188 24.6262 12.509 25.0586 12.9415C25.4911 13.374 25.6811 13.9674 25.5799 14.5697C25.5426 14.7914 25.647 15.0129 25.8416 15.1253C26.0362 15.2376 26.2803 15.2173 26.4536 15.0742C26.9216 14.688 27.5301 14.5577 28.123 14.7166C28.7161 14.8755 29.1778 15.2926 29.3899 15.861C29.4684 16.0716 29.6696 16.2112 29.8944 16.2112C30.1192 16.2112 30.3204 16.0716 30.3989 15.861C30.6124 15.2887 31.0737 14.8697 31.6644 14.7114C32.2551 14.5532 32.8642 14.6854 33.3352 15.0741C33.5085 15.2172 33.7526 15.2376 33.9472 15.1252C34.1419 15.0128 34.2463 14.7914 34.209 14.5697C34.1853 14.4289 34.1782 14.2887 34.1858 14.1508C34.6844 15.7112 34.9375 17.3367 34.9375 19.0001C34.9377 22.0221 34.1117 24.9023 32.5352 27.4216ZM35.4652 9.59813C35.305 10.1961 35.3321 10.8048 35.5328 11.3596C34.9491 11.4619 34.4065 11.7421 33.9688 12.1798C33.5314 12.6172 33.2514 13.159 33.1489 13.7423C32.5926 13.5394 31.9831 13.511 31.3858 13.6711C30.7878 13.8314 30.274 14.161 29.8935 14.6154C29.5134 14.1643 28.9999 13.8364 28.4019 13.6762C28.142 13.6066 27.8802 13.5724 27.6216 13.5724C27.285 13.5724 26.9541 13.6303 26.6403 13.7438C26.5381 13.1601 26.258 12.6176 25.8202 12.1798C25.3827 11.7424 24.8409 11.4624 24.2577 11.3599C24.4605 10.8037 24.4889 10.1942 24.3289 9.59683C24.1686 8.99891 23.8389 8.48498 23.3846 8.1046C23.8357 7.72452 24.1636 7.21091 24.3238 6.61299C24.484 6.01499 24.4569 5.4063 24.2563 4.85153C24.8399 4.74922 25.3825 4.46907 25.8202 4.0313C26.2576 3.59392 26.5376 3.05199 26.6401 2.46884C27.1963 2.67153 27.8057 2.70007 28.4033 2.53992C29.0012 2.37969 29.5151 2.04992 29.8955 1.59561C30.2756 2.04684 30.7892 2.37469 31.3872 2.53492C31.9851 2.69515 32.5939 2.66799 33.1486 2.4673C33.2509 3.05107 33.5311 3.59361 33.9688 4.03138C34.4062 4.46876 34.9481 4.74884 35.5312 4.8513C35.3285 5.40753 35.3 6.01691 35.4601 6.61429C35.6203 7.21229 35.95 7.72622 36.4045 8.1066C35.9534 8.48668 35.6255 9.00014 35.4652 9.59813ZM29.8945 3.70799C27.4697 3.70799 25.497 5.68076 25.497 8.1056C25.497 10.5304 27.4697 12.5031 29.8945 12.5031C32.3193 12.5031 34.2921 10.5304 34.2921 8.1056C34.2921 5.68076 32.3194 3.70799 29.8945 3.70799ZM29.8945 11.4262C28.0635 11.4262 26.5739 9.9366 26.5739 8.1056C26.5739 6.2746 28.0635 4.78491 29.8945 4.78491C31.7255 4.78491 33.2151 6.2746 33.2151 8.1056C33.2152 9.93652 31.7256 11.4262 29.8945 11.4262Z" fill="#5BA9A9"/>
</svg>
