<svg id="Layer_1" enable-background="new 0 0 512 512" viewBox="0 0 512 512" xmlns="http://www.w3.org/2000/svg" fill="#5CA9A9"><path d="m220.22 290.88-19.98-1.33c-17.55-1.13-32.88-16.58-34.04-34.27l-1.79-27.27c-.09-1.28.37-2.44 1.28-3.34.91-.91 2.04-1.33 3.34-1.25l27.52 1.79c17.57 1.16 32.88 16.58 34.04 34.3l1.28 19.68-27.64-27.64c-3.23-3.2-8.45-3.2-11.68 0-3.23 3.23-3.23 8.48 0 11.68zm99.22-39.34c3.23 3.23 3.23 8.48 0 11.68l-27.64 27.66 19.95-1.32c17.57-1.13 32.88-16.58 34.04-34.27l1.79-27.27c.09-1.28-.34-2.44-1.28-3.34-.91-.91-2.04-1.33-3.34-1.25l-27.52 1.79c-17.55 1.16-32.88 16.58-34.02 34.3l-1.3 19.67 27.63-27.63c3.24-3.22 8.46-3.22 11.69-.02zm-63.95-56.81c1.36.37 2.75.25 3.83-.2.2-.09.4-.2.6-.31.11-.09.2-.14.23-.17.11-.14.19-.27.22-.38-.05-.08-.11-.16-.13-.19-.23-.23-2.21-.68-4.28-1.19-1.5-.34-3.03-.71-4.56-1.16.14.28.31.57.48.82.97 1.54 2.28 2.41 3.61 2.78zm-2.18-20.8c.99 1.05 3.77 1.7 6.38 2.32.51.11.99.23 1.5.34-.54-.77-.94-1.64-1.16-2.61 0-.03-.03-.08-.06-.17-.14-.45-.62-.82-1.25-1.05-.65-.23-1.39-.37-2.13-.37-.2 0-.4.03-.6.03h-.14c-.45.03-.88.09-1.3.2-.14.03-.31.08-.54.14-.26.11-.45.2-.54.31-.09.06-.14.17-.17.31-.03.2-.03.4.03.54.01.04-.02.01-.02.01zm-20.61 117.78-.82-12.52 4.25 4.25h11.62v-55.02c-21.17-3.88-37.22-22.42-37.22-44.73 0-25.11 20.35-45.5 45.47-45.5 25.11 0 45.5 20.38 45.5 45.5 0 22.31-16.04 40.85-37.25 44.73v55.02h11.62l4.26-4.26-.83 12.53 12.5-.83-6.61 6.61c-.23.2-.45.4-.68.6l-.14.14-.06.03-.11.09-.06.03-.11.08-.06.06-.11.06-.06.06-.11.06-.06.06-.11.06-.06.03-.11.08h-.06l-.14.09-.03.03-.14.06-.03.03c-.06.03-.11.06-.17.08l-.2.08c-.99.43-2.13.68-3.29.68h-15.05v18.2h10.89c15.31 0 27.84 12.53 27.84 27.84v19.7c0 4.45-3.66 8.11-8.14 8.11h-77.67c-4.48 0-8.11-3.66-8.11-8.11v-19.7c0-15.31 12.5-27.84 27.81-27.84h10.89v-18.2h-15.05c-1.16 0-2.27-.26-3.29-.68l-.17-.08h-.03l-.14-.08-.03-.03-.17-.06-.03-.03-.14-.09h-.03l-.14-.08-.06-.03-.17-.11-.11-.06-.06-.06-.11-.06-.06-.06-.11-.08-.06-.03-.11-.09-.03-.03-.14-.11-.03-.03c-.23-.2-.45-.4-.65-.6l-6.61-6.61zm15.05-82.29v2.24c0 4.56 3.69 8.25 8.25 8.25s8.25-3.68 8.25-8.25v-1.39c.48-.14.94-.31 1.39-.51 1.19-.51 2.3-1.08 3.29-1.73 1.08-.71 2.1-1.53 3-2.49 2.61-2.66 4.28-6.09 4.76-9.69.51-3.77-.23-7.71-2.52-11.2-.65-1.02-1.47-2.01-2.47-2.95-.62-.62-1.28-1.16-1.96-1.64.09 0 .17-.03.26-.06 4.42-1.08 7.11-5.53 6.01-9.95-.11-.57-.28-1.08-.43-1.53-1.96-5.73-6.18-9.35-11.2-11.23l-.14-.03v-1.56c0-4.56-3.69-8.25-8.25-8.25s-8.25 3.69-8.25 8.25v1.84c-2.27.91-4.2 2.18-5.75 3.71-2.52 2.47-4.11 5.5-4.82 8.65-.65 3.09-.48 6.35.54 9.33.77 2.27 2.04 4.39 3.77 6.18l.06.06c-.45.11-.88.26-1.3.43-4.22 1.73-6.21 6.58-4.45 10.77.65 1.62 1.42 3.06 2.27 4.34 2.6 3.98 6.01 6.73 9.69 8.41zm166.17-111.35c-16.24-16.27-35.01-30.02-55.62-40.68-1.08-.54-2.21-.62-3.37-.26-1.16.4-2.01 1.13-2.52 2.24l-9.33 19.3c-1.02 2.1-.17 4.65 1.93 5.73 17.63 9.18 33.7 21 47.65 34.95 34.95 34.95 56.61 83.28 56.61 136.63 0 53.38-21.66 101.68-56.61 136.66-33.9 33.9-80.36 55.28-131.78 56.52-1.33.06-2.49-.4-3.43-1.33-.96-.94-1.45-2.07-1.45-3.4v-23.07c0-1.96-1.11-3.66-2.92-4.39-1.84-.77-3.8-.37-5.19 1.02l-42.94 42.94c-1.84 1.84-1.84 4.88 0 6.72l42.94 42.95c1.39 1.39 3.34 1.79 5.19 1.02 1.81-.74 2.92-2.44 2.92-4.39v-23.19c0-2.58 2.07-4.71 4.68-4.73 59.81-1.25 113.87-25.99 153.24-65.4 40.42-40.39 65.42-96.24 65.42-157.92 0-61.65-25-117.5-65.42-157.92zm-246.9 329.5c-17.66-9.16-33.73-20.98-47.68-34.92-34.95-34.98-56.58-83.28-56.58-136.66 0-53.35 21.63-101.68 56.58-136.63 33.9-33.9 80.36-55.28 131.78-56.55 1.33-.03 2.49.43 3.46 1.36.94.91 1.42 2.07 1.42 3.4v23.07c0 1.96 1.13 3.63 2.95 4.39 1.81.74 3.8.34 5.19-1.05l42.92-42.92c1.87-1.87 1.87-4.88 0-6.75l-42.92-42.9c-1.39-1.39-3.37-1.79-5.19-1.05-1.82.77-2.95 2.44-2.95 4.4v23.19c0 2.58-2.07 4.71-4.65 4.76-59.84 1.22-113.87 25.97-153.27 65.37-40.42 40.42-65.42 96.26-65.42 157.92 0 61.68 25 117.52 65.42 157.92 16.24 16.27 35.01 30.05 55.64 40.68 1.08.57 2.21.65 3.34.26 1.16-.37 2.01-1.13 2.55-2.24l9.3-19.3c1.03-2.12.18-4.67-1.89-5.75z"/></svg>