<svg width="43" height="30" viewBox="0 0 43 30" fill="none" xmlns="http://www.w3.org/2000/svg">
<path d="M2.53944 3.03245C2.28537 3.09694 2.03098 3.16001 1.77656 3.2231C1.61381 3.26441 1.45108 3.30579 1.28837 3.34727C1.17509 3.37503 1.17509 3.37503 1.05952 3.40335C0.95478 3.43055 0.95478 3.43055 0.847923 3.45829C0.786819 3.47371 0.725714 3.48913 0.662757 3.50502C0.462993 3.58768 0.357367 3.69178 0.218694 3.8566C0.142616 4.07095 0.151387 4.23194 0.203142 4.4516C0.213557 4.50041 0.223971 4.54922 0.2347 4.59952C0.422651 5.00209 0.854564 5.20158 1.22379 5.4114C1.64494 5.65627 2.04038 5.91624 2.4276 6.21339C2.60803 6.34917 2.79284 6.47327 2.98191 6.59655C3.37957 6.86059 3.7541 7.15023 4.1243 7.45137C4.20803 7.51938 4.29205 7.58703 4.37631 7.65437C6.21111 9.12328 7.78285 10.8789 9.15749 12.7831C9.19989 12.8415 9.24229 12.8998 9.28598 12.9599C10.3953 14.4994 11.2545 16.2022 12.1142 17.8904C13.4726 20.5566 15.0715 23.252 17.3715 25.2123C17.441 25.274 17.5105 25.3357 17.5798 25.3976C18.0786 25.8372 18.6011 26.2114 19.166 26.5603C19.2583 26.6178 19.3494 26.6773 19.4401 26.7374C21.9082 28.3234 25.0171 28.413 27.7964 27.8299C31.2009 27.0448 34.3361 25.3571 36.4983 22.5626C38.1724 24.3961 39.8299 26.374 40.6774 28.7446C40.8136 28.9886 40.9554 29.0658 41.2014 29.1888C41.2287 29.205 41.256 29.2213 41.2842 29.2381C41.5622 29.2047 41.8437 29.1604 42.055 28.9664C42.1658 28.8132 42.2467 28.6728 42.2869 28.4868C41.803 25.5339 39.1131 22.7304 37.1091 20.6828C36.982 20.5529 36.8557 20.4223 36.7297 20.2914C35.7116 19.2398 34.6375 18.2436 33.5042 17.3189C33.3458 17.1892 33.1899 17.0565 33.0336 16.9241C31.7106 15.8239 30.3154 14.8089 28.8807 13.8616C28.775 13.7914 28.775 13.7914 28.6671 13.7198C28.0447 13.3088 27.4106 12.9202 26.7695 12.5394C26.6055 12.4419 26.4418 12.3441 26.2782 12.2461C25.7742 11.9455 25.2721 11.6495 24.7432 11.3949C24.655 11.3505 24.5669 11.3061 24.4789 11.2615C23.774 10.9085 23.0627 10.5714 22.3448 10.2461C22.2955 10.2235 22.2461 10.2008 22.1953 10.1775C21.424 9.82516 20.6344 9.53186 19.8359 9.24921C19.7876 9.23208 19.7394 9.21496 19.6897 9.19731C18.7061 8.84906 17.7141 8.54418 16.7011 8.2938C16.2925 8.19232 15.8849 8.08857 15.48 7.97287C15.3882 7.94671 15.3882 7.94671 15.2945 7.92003C15.121 7.86536 15.121 7.86536 14.9563 7.69624C14.8424 7.3751 14.8107 7.16472 14.952 6.85053C15.0917 6.66084 15.1885 6.64911 15.4224 6.60331C15.7568 6.56569 16.0501 6.62494 16.3755 6.7014C16.4391 6.71591 16.5027 6.73043 16.5682 6.74539C19.0572 7.33263 21.5266 8.19564 23.813 9.34508C24.0292 9.45265 24.2474 9.55333 24.4672 9.65299C24.887 9.84767 25.2903 10.0685 25.6939 10.2946C25.9459 10.4356 26.1988 10.5721 26.4571 10.7012C26.8118 10.8802 27.1523 11.0803 27.493 11.2847C27.5522 11.3198 27.6114 11.3548 27.6723 11.391C28.0061 11.5904 28.3296 11.7993 28.6479 12.0227C28.8694 12.1763 29.097 12.3197 29.3243 12.4643C29.7145 12.7149 30.0916 12.9764 30.4615 13.2567C30.6472 13.395 30.8357 13.5277 31.026 13.6594C31.5747 14.0399 32.0947 14.4481 32.6095 14.8733C32.7463 14.9855 32.8844 15.0959 33.0229 15.206C34.3354 16.2563 35.5775 17.4136 36.7633 18.606C36.807 18.6494 36.8507 18.6927 36.8957 18.7374C36.9325 18.7745 36.9693 18.8117 37.0073 18.85C37.2402 19.039 37.4087 19.0763 37.7078 19.0679C37.9906 19.0201 38.1409 18.9334 38.3268 18.7062C38.6714 17.9145 38.7057 16.9591 38.7365 16.1047C38.7388 16.0494 38.7412 15.994 38.7436 15.937C38.7697 14.8561 38.5968 13.8117 38.3236 12.7705C38.3092 12.7147 38.2948 12.6589 38.28 12.6014C38.0325 11.6488 37.7258 10.7501 37.2756 9.8727C37.2462 9.81465 37.2168 9.75659 37.1864 9.69677C36.0489 7.48766 34.3097 5.60238 32.1903 4.31325C32.0889 4.25151 31.9878 4.18918 31.8869 4.12648C31.1722 3.68224 30.4603 3.27156 29.68 2.95593C29.5235 2.89239 29.368 2.8266 29.2124 2.76078C23.4273 0.352596 16.7098 0.607405 6.89427 2.06428C6.82063 2.07784 6.74699 2.0914 6.67112 2.10538C5.28306 2.36734 3.90825 2.6835 2.53944 3.03245Z" fill="#1B453C"/>
</svg>
