<svg width="64" height="64" viewBox="0 0 64 64" fill="none" xmlns="http://www.w3.org/2000/svg">
<path d="M35.0068 2.78066C33.924 3.03906 33.5549 3.16211 32.8781 3.45742C31.8568 3.91269 30.6879 4.74941 29.9988 5.5246L29.4451 6.13984L28.6576 5.67226C28.227 5.42617 27.4887 4.95859 27.0334 4.63867C26.0367 3.9496 25.5322 3.86347 25.077 4.26953C24.7078 4.60175 24.794 5.22929 25.2738 5.74609C25.8275 6.37363 26.5166 7.48105 26.9473 8.42851C27.7471 10.225 28.6699 13.7318 28.6699 15.0238C28.6699 15.4545 28.6453 15.5037 28.35 15.5037C27.8455 15.5037 26.6027 15.8605 25.766 16.242C22.5914 17.6816 20.4996 20.684 20.192 24.2893C20.0443 26.0611 19.8844 26.3441 16.9682 30.1463C13.892 34.1699 12.6861 36.434 11.9725 39.5225C11.6526 40.9252 11.6895 44.2105 12.0463 45.8963C13.0922 50.7935 15.9469 54.9279 20.1305 57.6103C21.8901 58.7301 24.6955 59.776 26.8858 60.1205C28.6576 60.3912 31.9184 60.3051 33.4688 59.9359C37.0494 59.1115 40.101 57.3889 42.5988 54.7803C45.6504 51.5934 47.3608 47.6559 47.5699 43.3123C47.7422 40.0146 46.7824 37.5291 43.5832 32.9518C39.6949 27.39 39.3012 26.6394 39.1289 24.4369C39.0674 23.674 38.8951 22.6773 38.7475 22.1975C37.7262 18.8752 34.8592 16.2297 31.6108 15.6144C31.1801 15.5406 30.774 15.4545 30.7002 15.4422C30.6387 15.4299 30.4541 14.6301 30.2942 13.6826C30.1465 12.7351 29.8881 11.4801 29.7158 10.8894C29.5436 10.2988 29.4205 9.78202 29.4451 9.75742C29.482 9.73281 29.642 9.95429 29.8143 10.2496C30.491 11.4062 32.2506 12.7598 34.0594 13.535C36.2865 14.4824 39.1412 14.7285 41.4053 14.1625C44.2969 13.4488 46.9178 11.4924 48.8619 8.56386C49.268 7.96093 49.7479 7.19804 49.9078 6.85351C50.2277 6.22597 51.1875 3.83886 51.1875 3.6666C51.1875 3.61738 50.6215 3.85117 49.9324 4.18339C47.7176 5.2539 46.9424 5.2416 43.1279 4.04804C39.5596 2.91601 39.0674 2.81757 37.0371 2.76835C36.0527 2.74374 35.1422 2.74374 35.0068 2.78066ZM39.0551 4.7371C39.5965 4.84785 41.0608 5.2662 42.3158 5.65995C45.0229 6.52128 45.515 6.64433 46.8563 6.74277L47.8652 6.8289L47.3115 7.65332C46.1549 9.38828 44.4199 10.9387 42.7588 11.7631C39.8303 13.1904 36.102 12.9197 33.235 11.074C32.226 10.4219 30.9586 9.11757 31.1555 8.9207C31.1801 8.89609 31.5615 8.98222 31.9922 9.11757C34.3547 9.85585 36.9633 10.1635 39.8057 10.0527C42.5865 9.92968 44.5553 9.52363 45.4043 8.87148L45.6996 8.63769L45.0967 8.07167C44.6783 7.67793 44.4076 7.51796 44.2354 7.55488C44.1 7.59179 43.5463 7.73945 43.0049 7.8871C42.1067 8.1332 41.7252 8.15781 38.8828 8.17011C36.3234 8.18242 35.5483 8.1455 34.6992 7.96093C33.4072 7.69023 31.2539 7.02578 31.2539 6.89042C31.2539 6.65664 32.5828 5.62304 33.3949 5.22929C35.0438 4.41718 36.791 4.25722 39.0551 4.7371ZM29.0391 8.35468C29.0391 8.61308 28.8422 8.37929 28.7438 7.99784C28.6576 7.70253 28.6699 7.70253 28.8422 7.92402C28.9529 8.05937 29.0391 8.25624 29.0391 8.35468ZM31.4877 17.4109C32.6074 17.6816 34.084 18.4937 34.933 19.3059C36.4465 20.7701 37.1725 22.4312 37.394 24.9414C37.5908 27.107 38.2184 28.4113 40.8885 32.2135C43.0541 35.2896 43.8662 36.5693 44.5061 37.8367C45.5274 39.8547 45.7858 40.8637 45.7858 42.6971C45.7611 48.5418 42.2912 54.0666 36.9633 56.7859C35.7205 57.4258 33.7149 58.1025 32.3613 58.3363C31.1678 58.5455 28.1285 58.5455 26.9473 58.3363C21.8654 57.4381 17.4727 54.1404 15.1717 49.5262C14.1135 47.4221 13.6582 45.601 13.5721 43.1523C13.4736 40.4453 13.7936 38.858 14.9502 36.4832C15.6639 34.9943 16.5867 33.6162 18.9246 30.5154C21.4225 27.2178 21.7301 26.6148 21.9516 24.5969C22.2223 22.2221 22.9113 20.7209 24.3756 19.3059C25.2 18.5061 26.7012 17.6816 27.7717 17.4232C28.7192 17.1894 30.5156 17.1894 31.4877 17.4109Z" fill="#1B453C"/>
<path d="M16.5868 37.8861C16.3284 38.0953 16.2299 38.3291 16.0823 39.215C15.7747 40.9008 15.7131 42.3896 15.8608 43.8293C16.2053 47.0162 17.2758 49.4402 19.2569 51.5443C20.4628 52.824 21.0042 53.0455 21.5087 52.5041C22.0008 51.9873 21.8778 51.5812 20.9672 50.6953C19.4292 49.1818 18.4817 47.5576 17.9649 45.5273C17.6204 44.1984 17.5096 41.8113 17.7065 40.3594C18.0018 38.3045 18.0018 38.3414 17.768 38.0584C17.4235 37.6523 16.9682 37.5908 16.5868 37.8861Z" fill="#1B453C"/>
</svg>
