<svg width="64" height="64" viewBox="0 0 64 64" fill="none" xmlns="http://www.w3.org/2000/svg">
<g clip-path="url(#clip0_4_231)">
<path d="M59.3518 3.24561C57.8068 3.28389 56.1389 3.44658 54.5803 3.74736C52.3928 4.16846 50.424 4.88623 49.3986 5.64502C49.3029 5.94717 49.2756 6.36143 49.2893 6.6417C49.2893 6.92881 49.3303 7.24053 49.385 7.55498C51.2033 6.2001 53.4318 5.42354 55.6877 4.68936C53.7326 6.06611 52.051 7.5126 50.465 8.99463C51.5725 9.48272 52.885 9.48955 53.7326 8.88936H53.7463C55.5783 7.57139 58.0256 5.36748 59.3518 3.24971V3.24561ZM18.6232 3.73643C18.2541 3.73643 17.8576 3.77744 17.4475 3.86904C17.174 5.20752 17.3381 6.42568 17.8439 7.39502C16.6135 6.91104 15.1369 6.9917 13.633 8.25088C14.549 11.3722 17.3107 12.7626 20.1545 11.353C20.2365 12.6437 20.2775 13.9452 20.2775 15.244C19.3889 14.2733 17.926 13.3915 16.4084 13.4325C15.342 13.4735 14.2346 13.9589 13.2639 15.1894C14.7951 18.0604 17.7756 18.8534 20.2639 16.912C20.2365 18.3202 20.1682 19.7284 20.0588 21.1503C19.2248 20.0019 17.7346 18.9081 16.0803 18.9218C15.342 18.9354 14.5764 19.1679 13.8107 19.7147C15.9982 20.33 17.9943 21.205 19.7854 22.3808C20.4553 22.8046 20.7971 23.4608 20.9885 24.1034C21.1662 24.746 21.2072 25.4159 21.1936 26.0995C21.1389 27.494 20.8107 28.9569 20.3186 30.2011L20.1408 30.6112L19.7443 30.8163C19.4709 30.9667 19.1564 31.1171 18.8557 31.2675C18.5686 33.0175 18.2541 34.7812 17.9123 36.5585C15.8889 34.0976 13.8518 33.1952 11.842 33.1815C6.70273 33.1269 1.67559 38.8144 -3.0166 38.9101C3.33672 39.3612 13.2229 32.8808 16.6682 40.496C19.2248 42.3964 21.8498 43.9413 24.5295 45.1171C24.7482 43.8319 25.1037 42.4784 25.5959 41.2753C25.9104 40.5097 26.2658 39.7987 26.717 39.1972C27.1682 38.5956 27.715 38.0487 28.549 37.8437C28.7814 37.7753 29.0275 37.7206 29.26 37.6659C28.5217 36.2304 28.6174 34.3026 29.4924 32.6894C30.3811 31.0351 31.9943 29.8866 33.6486 29.7636C35.3439 27.1796 37.1213 24.664 38.9943 22.1894C40.4436 25.2655 43.6428 25.8261 46.2814 23.6796C45.6115 21.205 43.8205 20.4257 42.1115 20.4667C41.3459 20.4804 40.5939 20.6718 39.9514 20.9452C42.6447 17.4589 45.5295 14.1093 48.6193 10.8608C47.4982 10.3659 47.4162 9.99268 47.1291 8.86338C43.9846 12.1433 41.0451 15.5585 38.2971 19.0722C38.2287 21.246 36.9982 23.2011 34.9201 23.6112H34.8928C33.5666 25.4706 32.2814 27.3437 31.051 29.2577C31.3654 27.2206 31.6799 25.1288 32.0627 23.0507C31.1057 22.4491 30.34 21.4374 29.9162 20.2616C28.6174 24.4315 27.6877 28.8612 26.4846 32.6894C26.3205 32.662 26.1428 32.6483 25.9787 32.6483C23.8186 32.6347 21.9182 34.5077 21.426 35.9159C23.0803 37.3378 24.8986 37.6112 26.3889 36.955C25.8283 37.953 25.2541 38.9647 24.7072 39.9765C24.215 39.7577 23.7092 39.6483 23.2307 39.6483C21.6721 39.6347 20.2502 40.619 19.3889 41.6855C20.3322 37.2011 21.1799 32.7167 21.7951 28.246C24.3107 29.5175 26.9221 28.3964 28.0842 25.5663C27.0998 24.5409 26.0607 24.1308 25.0764 24.1171C23.9963 24.1034 22.9709 24.5819 22.1643 25.2245C22.342 23.6796 22.4787 22.1347 22.5744 20.5897C25.1447 23.119 28.467 22.4354 30.1076 19.3456C29.1369 18.1151 28.0295 17.6366 26.9631 17.5956C25.1037 17.5409 23.3537 18.8671 22.6018 20.0702C22.6838 18.6073 22.7385 17.1581 22.7385 15.7089C25.5412 17.0214 28.2346 15.6269 29.1369 12.537C28.1525 11.7126 27.1818 11.394 26.2932 11.4077C24.8166 11.4296 23.5314 12.3579 22.7111 13.4188C22.6838 12.455 22.6291 11.4911 22.5607 10.53C25.76 11.5841 28.3439 9.67412 28.6447 6.31768C25.9377 4.82334 23.8596 6.2165 22.7795 7.93643C22.5334 6.01006 21.2756 3.73916 18.6232 3.73643ZM42.9592 5.63955C37.9279 6.43525 34.7971 9.50596 32.6096 13.5692L32.9377 13.4872C33.6623 13.3505 34.3596 13.4188 34.9885 13.6513C36.6564 10.396 39.1174 7.58232 42.9592 5.63955ZM61.0197 14.3554C54.5393 23.6386 45.8713 27.5897 37.3537 31.8827C38.0783 33.3183 37.9826 35.205 37.1213 36.8046V36.8183C46.1174 31.2401 55.2775 25.9491 61.0197 14.3554ZM48.7561 14.9569C46.5959 14.9296 44.6955 16.83 44.2033 18.2245C47.0607 20.6854 50.3967 19.7147 51.7639 16.4062C50.7795 15.3808 49.7404 14.9706 48.7561 14.9569ZM33.5803 15.8866C33.5256 15.9003 33.4709 15.9003 33.4162 15.914C32.5549 16.078 31.7756 17.2948 32.09 18.9081C32.4045 20.5214 33.5939 21.369 34.4416 21.1913C35.3029 21.0272 36.0822 19.8104 35.7678 18.1972C35.467 16.6796 34.4279 15.8456 33.5803 15.8866ZM5.61856 21.1093C5.41484 21.1093 5.19746 21.1229 4.99102 21.1229C6.27481 24.5819 7.65566 27.5351 10.5705 29.3124H10.5842C12.5256 30.5429 14.8498 30.2011 16.8596 29.4354L11.0627 24.6366L18.2951 28.4647C18.5002 27.2479 19.2111 25.621 18.4729 24.4589H18.4592V24.4452C15.1096 22.2714 10.8986 21.1503 5.61856 21.1093ZM33.9084 32.2245C33.1564 32.2519 32.2404 32.7714 31.6525 33.8515C30.8732 35.3007 31.2561 36.7089 32.0217 37.119C33.1975 37.6249 34.51 36.4355 34.9475 35.6425C35.7268 34.1933 35.3439 32.7987 34.5783 32.3749C34.3869 32.2655 34.1545 32.2245 33.9084 32.2245ZM33.4846 39.6483C33.2795 39.6483 33.0607 39.6483 32.8557 39.662C31.5979 39.7167 30.3674 39.9081 29.1643 40.2226H29.1506C29.1643 40.2226 28.9455 40.3183 28.6857 40.6737C28.426 41.0292 28.1252 41.5624 27.8791 42.205C27.51 43.0937 27.2229 44.1601 27.0314 45.1581L35.7814 43.7772L28.6857 46.5937C29.424 47.6874 29.6291 48.1386 29.8068 48.9452C30.9416 49.6698 32.1447 49.998 33.6623 49.6288C37.4357 48.7401 40.4025 45.664 43.5061 42.0409C39.9514 40.414 36.6428 39.621 33.4846 39.6483ZM14.7268 42.0956L13.4963 45.2265C17.967 47.1952 21.7814 49.4784 25.4318 51.7753L27.1408 48.6855C22.7795 47.3456 18.6643 45.0897 14.7268 42.0956ZM13.0041 47.7011C10.1467 51.4335 6.71367 54.6737 2.78984 56.5741L3.86719 58.789C8.42402 56.5741 12.1975 52.8964 15.2873 48.7812C14.549 48.412 13.7834 48.0429 13.0041 47.7011ZM15.7795 49.0272C12.5529 54.7831 9.44941 58.8847 6.16133 64.9003L8.32832 66.0761C11.5275 60.2108 14.6174 56.0956 17.967 50.1757C17.2561 49.7929 16.5178 49.4101 15.7795 49.0272ZM19.3615 50.9687C15.9982 56.1229 13.592 60.3339 11.2131 65.7753L13.4553 66.7597C15.7932 61.4276 18.1311 57.3534 21.467 52.2128C20.7697 51.789 20.0725 51.3651 19.3615 50.9687ZM22.5061 52.8417C20.4006 56.3964 20.1682 60.6347 19.799 63.8612L22.2326 64.1483C22.6291 60.8397 22.9299 57.0116 24.5979 54.1542L22.5061 52.8417Z" fill="#1B453C"/>
</g>
<defs>
<clipPath id="clip0_4_231">
<rect width="64" height="64" fill="white" transform="matrix(1 0 0 -1 0 64)"/>
</clipPath>
</defs>
</svg>
