<svg width="62" height="62" viewBox="0 0 62 62" fill="none" xmlns="http://www.w3.org/2000/svg">
<path d="M27.4873 9.05001C27.5707 9.04903 27.654 9.04804 27.7398 9.04703C28.0161 9.04403 28.2924 9.04204 28.5686 9.04031C28.663 9.03967 28.7573 9.03902 28.8545 9.03836C29.3538 9.03514 29.8532 9.03281 30.3525 9.03107C30.8682 9.02907 31.3837 9.02367 31.8993 9.01753C32.2959 9.01348 32.6924 9.01209 33.0891 9.01141C33.2791 9.0106 33.4692 9.00876 33.6592 9.00588C33.9255 9.00207 34.1915 9.00206 34.4578 9.00295C34.6849 9.00149 34.6849 9.00149 34.9166 9C35.4212 9.09275 35.5951 9.28269 35.915 9.67563C36.0653 9.97742 36.0486 10.1827 36.0467 10.5199C36.0463 10.6387 36.0459 10.7575 36.0455 10.8799C36.0445 11.0043 36.0435 11.1287 36.0425 11.2569C36.0419 11.3822 36.0414 11.5075 36.0408 11.6367C36.0394 11.9468 36.0374 12.2569 36.035 12.5671C36.1233 12.5849 36.2117 12.6028 36.3028 12.6212C37.4004 12.8509 38.3739 13.306 39.3857 13.778C39.7457 13.9436 40.1095 14.099 40.4742 14.2537C40.5238 14.2033 40.5734 14.1528 40.6245 14.1008C40.8491 13.8729 41.074 13.6454 41.299 13.4179C41.3771 13.3385 41.4552 13.2591 41.5357 13.1772C41.6482 13.0637 41.6482 13.0637 41.763 12.9478C41.8667 12.8428 41.8667 12.8428 41.9724 12.7356C42.3367 12.3973 42.6904 12.3816 43.1702 12.3931C43.5273 12.4561 43.6562 12.5558 43.9192 12.8021C44.0433 12.9174 44.0433 12.9174 44.17 13.0351C44.257 13.1192 44.3439 13.2033 44.4335 13.2899C44.5219 13.3754 44.6104 13.4608 44.7016 13.5488C44.9927 13.8337 45.281 14.1211 45.5686 14.4095C45.6732 14.5141 45.7778 14.6188 45.8855 14.7266C46.1049 14.9462 46.3241 15.166 46.5431 15.386C46.8789 15.7229 47.2156 16.0589 47.5524 16.3948C47.766 16.6089 47.9796 16.8231 48.1931 17.0374C48.2938 17.1377 48.3946 17.238 48.4983 17.3413C48.5913 17.435 48.6843 17.5287 48.78 17.6253C48.9028 17.7483 48.9028 17.7483 49.028 17.8738C49.3507 18.2448 49.4632 18.5067 49.5175 18.9975C49.4342 19.8069 48.861 20.3235 48.3028 20.8649C48.2116 20.9548 48.2116 20.9548 48.1186 21.0466C47.9706 21.1924 47.8218 21.3374 47.6729 21.4823C47.7172 21.5776 47.7172 21.5776 47.7625 21.6749C49.3526 25.1086 49.3526 25.1086 49.3526 25.94C49.4288 25.9375 49.505 25.9349 49.5835 25.9323C49.9314 25.9223 50.2793 25.916 50.6273 25.9099C50.7472 25.9058 50.8671 25.9018 50.9906 25.8976C51.5421 25.8903 51.9149 25.9045 52.4223 26.1376C52.837 26.5446 52.9352 26.9441 52.9832 27.5187C52.984 27.718 52.984 27.718 52.9849 27.9212C52.986 28.0728 52.9872 28.2244 52.9884 28.3806C52.9883 28.5445 52.9882 28.7084 52.988 28.8724C52.9885 29.0422 52.989 29.212 52.9896 29.3818C52.9905 29.737 52.9904 30.0921 52.9898 30.4472C52.9891 30.9007 52.9911 31.354 52.9939 31.8075C52.9957 32.158 52.9958 32.5084 52.9954 32.8589C52.9955 33.026 52.9961 33.1931 52.9973 33.3602C53.0078 35.0046 53.0078 35.0046 52.592 35.6986C51.9792 36.1711 51.3047 36.1022 50.5674 36.0826C50.4504 36.081 50.3335 36.0793 50.2131 36.0777C49.9262 36.0734 49.6394 36.0675 49.3526 36.06C49.3324 36.1432 49.3121 36.2263 49.2913 36.312C48.929 37.7756 48.3099 39.1563 47.6729 40.5177C47.7231 40.5675 47.7734 40.6173 47.8252 40.6687C48.0522 40.8941 48.2787 41.12 48.5052 41.3459C48.5843 41.4244 48.6634 41.5028 48.745 41.5836C48.858 41.6966 48.858 41.6966 48.9734 41.8118C49.078 41.9159 49.078 41.9159 49.1848 42.0221C49.5152 42.3809 49.5517 42.7342 49.5414 43.2092C49.4528 43.6217 49.2839 43.7952 48.9958 44.1002C48.8975 44.2052 48.7992 44.3102 48.6978 44.4184C48.5468 44.5748 48.5468 44.5748 48.3927 44.7343C48.3037 44.8272 48.2146 44.9201 48.1228 45.0157C47.8528 45.2942 47.5803 45.57 47.3069 45.845C47.2083 45.9443 47.1098 46.0437 47.0083 46.146C46.8023 46.3535 46.5961 46.5608 46.3898 46.768C46.0737 47.0856 45.7587 47.4041 45.4437 47.7227C45.2424 47.9251 45.0411 48.1275 44.8398 48.3298C44.7459 48.4249 44.6521 48.52 44.5554 48.618C44.4676 48.7058 44.3798 48.7935 44.2894 48.884C44.2128 48.9611 44.1361 49.0383 44.0571 49.1178C43.6929 49.4349 43.4291 49.545 42.9487 49.5986C42.1427 49.5149 41.6282 48.9393 41.0891 48.3788C41.0294 48.3177 40.9697 48.2567 40.9081 48.1938C40.7629 48.0452 40.6185 47.8958 40.4742 47.7463C40.3981 47.7802 40.3221 47.8142 40.2437 47.8492C36.6876 49.4329 36.6876 49.4329 36.035 49.4329C36.0375 49.5094 36.04 49.5859 36.0426 49.6648C36.0526 50.0142 36.0588 50.3635 36.065 50.713C36.069 50.8334 36.073 50.9537 36.0771 51.0777C36.0869 51.8145 36.0527 52.2492 35.555 52.8063C35.2052 52.9819 34.8951 52.946 34.5044 52.95C34.4211 52.951 34.3377 52.952 34.2519 52.953C33.9756 52.956 33.6994 52.958 33.4231 52.9597C33.3287 52.9603 33.2344 52.961 33.1372 52.9616C32.6379 52.9649 32.1385 52.9672 31.6392 52.9689C31.1236 52.9709 30.608 52.9763 30.0924 52.9825C29.6958 52.9865 29.2993 52.9879 28.9027 52.9886C28.7126 52.9894 28.5226 52.9912 28.3325 52.9941C28.0662 52.9979 27.8002 52.9979 27.5339 52.997C27.3825 52.998 27.2311 52.999 27.0751 53C26.5706 52.9073 26.3966 52.7173 26.0767 52.3244C25.9265 52.0226 25.9431 51.8173 25.945 51.4801C25.9454 51.3613 25.9458 51.2425 25.9462 51.1201C25.9472 50.9957 25.9482 50.8713 25.9493 50.7431C25.9498 50.6178 25.9503 50.4925 25.9509 50.3633C25.9523 50.0532 25.9543 49.7431 25.9568 49.4329C25.8764 49.4138 25.796 49.3948 25.7132 49.3751C24.2559 49.021 22.8784 48.3674 21.5176 47.7463C21.4105 47.8565 21.3035 47.9668 21.1932 48.0804C21.0514 48.2251 20.9096 48.3697 20.7677 48.5143C20.6621 48.6233 20.6621 48.6233 20.5544 48.7345C20.4856 48.8044 20.4168 48.8743 20.3459 48.9463C20.2831 49.0107 20.2202 49.075 20.1555 49.1413C19.8048 49.4449 19.534 49.5471 19.073 49.5986C18.0695 49.4943 17.4024 48.5867 16.7278 47.9039C16.6138 47.7893 16.4997 47.6747 16.3856 47.5601C16.1476 47.321 15.9101 47.0815 15.6729 46.8416C15.369 46.5345 15.0644 46.2282 14.7595 45.9221C14.5244 45.6859 14.2896 45.4495 14.0549 45.213C13.8882 45.045 13.7213 44.8772 13.5544 44.7094C13.4535 44.6073 13.3525 44.5052 13.2485 44.3999C13.1151 44.2653 13.1151 44.2653 12.979 44.1279C12.5477 43.6632 12.4438 43.351 12.4587 42.7342C12.5746 42.1803 12.9689 41.8645 13.359 41.4815C13.5291 41.3111 13.6991 41.1406 13.8689 40.9699C13.9537 40.8847 14.0384 40.7996 14.1257 40.7118C14.1895 40.6477 14.2532 40.5837 14.3188 40.5177C14.285 40.4413 14.2512 40.3649 14.2163 40.2862C12.6391 36.7154 12.6391 36.7154 12.6391 36.06C12.5303 36.0629 12.5303 36.0629 12.4193 36.0658C12.0876 36.0733 11.756 36.078 11.4244 36.0826C11.3102 36.0856 11.1961 36.0887 11.0785 36.0918C9.92528 36.1038 9.92528 36.1038 9.39972 35.6986C8.94512 34.9765 8.99373 34.2506 9.00979 33.4171C9.01241 33.2031 9.01241 33.2031 9.01509 32.9848C9.01951 32.6648 9.02478 32.3449 9.03094 32.025C9.03992 31.5294 9.04271 31.034 9.04491 30.5383C9.04744 30.1004 9.05272 29.6626 9.05857 29.2248C9.06103 29.0084 9.06255 28.792 9.06311 28.5756C9.06423 28.2694 9.06914 27.9634 9.07493 27.6572C9.07446 27.5656 9.07399 27.474 9.07351 27.3797C9.08677 26.8971 9.14143 26.6853 9.45001 26.307C9.87483 25.9687 10.0679 25.9251 10.6004 25.9282C10.7188 25.9286 10.8371 25.929 10.959 25.9294C11.0829 25.9304 11.2067 25.9314 11.3344 25.9325C11.5216 25.9333 11.5216 25.9333 11.7126 25.9341C12.0214 25.9355 12.3303 25.9375 12.6391 25.94C12.6569 25.8512 12.6747 25.7625 12.693 25.6711C12.9218 24.5689 13.375 23.5914 13.845 22.5753C14.0099 22.2138 14.1647 21.8485 14.3188 21.4823C14.209 21.3749 14.0992 21.2674 13.9861 21.1567C13.842 21.0143 13.698 20.8718 13.554 20.7294C13.4816 20.6587 13.4092 20.588 13.3346 20.5152C13.265 20.4461 13.1954 20.377 13.1237 20.3058C13.0276 20.2112 13.0276 20.2112 12.9295 20.1146C12.5687 19.6943 12.4428 19.2864 12.4592 18.7258C12.5335 18.4096 12.6531 18.2682 12.8715 18.0297C12.9862 17.9039 12.9862 17.9039 13.1033 17.7757C13.5655 17.2894 14.0347 16.8109 14.5086 16.3362C14.6161 16.2282 14.7235 16.1202 14.8342 16.009C15.0596 15.7825 15.2851 15.5562 15.5109 15.3301C15.8003 15.0402 16.0891 14.7498 16.3778 14.4591C16.6543 14.181 16.9313 13.9032 17.2082 13.6255C17.3119 13.5211 17.4156 13.4167 17.5225 13.3091C17.6182 13.2133 17.714 13.1176 17.8127 13.0189C17.897 12.9343 17.9813 12.8497 18.0682 12.7626C18.4532 12.4041 18.7962 12.3836 19.3059 12.3901C19.859 12.4971 20.1808 12.8937 20.5577 13.2899C20.7377 13.4682 20.9176 13.6464 21.0976 13.8245C21.2379 13.9673 21.378 14.1103 21.5176 14.2537C21.5808 14.2241 21.6441 14.1944 21.7093 14.1638C25.1288 12.5671 25.1288 12.5671 25.9568 12.5671C25.9542 12.4906 25.9517 12.4141 25.9491 12.3352C25.9391 11.9858 25.9329 11.6365 25.9268 11.287C25.9227 11.1666 25.9187 11.0463 25.9146 10.9223C25.9049 10.1855 25.939 9.75083 26.4367 9.19373C26.7865 9.01808 27.0966 9.05402 27.4873 9.05001ZM28.4763 11.4828C28.4559 12.2882 28.4559 12.2882 28.4406 13.0938C28.4231 13.5755 28.393 13.9365 28.1829 14.3742C27.7342 14.727 27.2698 14.8232 26.7216 14.954C25.06 15.391 23.5169 16.0181 22.102 17.0064C21.599 17.2091 21.1921 17.1932 20.6777 17.0247C20.3479 16.8007 20.0943 16.5317 19.8304 16.2341C19.7608 16.1599 19.6913 16.0858 19.6197 16.0094C19.4502 15.8279 19.2837 15.6435 19.118 15.4585C18.3092 16.1243 17.5814 16.8674 16.8459 17.612C16.7168 17.7423 16.5877 17.8725 16.4585 18.0026C16.1449 18.3189 15.8317 18.6355 15.5186 18.9523C15.8968 19.4025 16.2732 19.8458 16.6959 20.255C17.0445 20.5926 17.1845 20.7557 17.24 21.2541C17.1864 21.8571 16.962 22.2173 16.6509 22.7248C15.7728 24.2346 15.1727 25.7913 14.8128 27.5015C14.6416 27.9691 14.5169 28.1123 14.0789 28.3495C13.6665 28.4218 13.2596 28.4333 12.8416 28.4399C12.7299 28.4434 12.6181 28.447 12.503 28.4507C12.2284 28.4592 11.954 28.4655 11.6793 28.47C11.5727 29.6094 11.5443 30.737 11.5518 31.881C11.5524 32.0422 11.553 32.2034 11.5535 32.3645C11.5549 32.753 11.5568 33.1415 11.5593 33.53C11.67 33.5345 11.67 33.5345 11.783 33.5392C12.1184 33.5532 12.4538 33.5679 12.7891 33.5827C12.9053 33.5875 13.0214 33.5922 13.1411 33.5971C13.2532 33.6021 13.3653 33.6072 13.4809 33.6124C13.6354 33.619 13.6354 33.619 13.7931 33.6257C14.3266 33.6719 14.3266 33.6719 14.5588 33.771C14.672 34.0052 14.672 34.0052 14.7467 34.3079C14.7755 34.4174 14.8043 34.5268 14.834 34.6395C14.8759 34.806 14.8759 34.806 14.9187 34.9757C15.3631 36.5294 15.9306 37.9381 16.7289 39.3457C17.3213 40.413 17.3213 40.413 17.1983 41.12C17.0441 41.3836 17.0441 41.3836 16.8309 41.6019C16.7551 41.6815 16.6793 41.761 16.6012 41.8429C16.5211 41.9224 16.441 42.0019 16.3585 42.0839C16.2784 42.1659 16.1982 42.2479 16.1157 42.3323C15.9186 42.5327 15.7193 42.7304 15.5186 42.9272C16.1817 43.7393 16.9217 44.4701 17.6632 45.2087C17.7929 45.3383 17.9226 45.468 18.0522 45.5977C18.3672 45.9126 18.6825 46.2271 18.998 46.5415C19.4463 46.1618 19.8878 45.7838 20.2953 45.3593C20.6231 45.018 20.7921 44.8723 21.2729 44.8054C21.9373 44.8162 22.4705 45.2037 23.0323 45.525C24.4212 46.2876 25.8369 46.8389 27.3714 47.229C27.4803 47.2579 27.5893 47.2868 27.7016 47.3166C27.8011 47.3413 27.9006 47.3661 28.003 47.3916C28.2364 47.5053 28.2364 47.5053 28.3274 47.7205C28.3588 48.0101 28.3819 48.2966 28.3943 48.5877C28.3989 48.6892 28.4034 48.7908 28.4081 48.8954C28.4133 49.0231 28.4185 49.1508 28.4238 49.2823C28.4498 49.8936 28.4498 49.8936 28.4763 50.5172C30.1392 50.5172 31.8021 50.5172 33.5154 50.5172C33.55 49.7063 33.55 49.7063 33.5836 48.8954C33.5881 48.7938 33.5927 48.6923 33.5974 48.5877C33.604 48.4325 33.604 48.4325 33.6108 48.2742C33.6567 47.7384 33.6567 47.7384 33.7554 47.5053C33.9887 47.3916 33.9887 47.3916 34.2901 47.3166C34.3991 47.2877 34.5081 47.2588 34.6203 47.229C34.7308 47.2009 34.8413 47.1728 34.9552 47.1439C36.5024 46.6977 37.9053 46.1278 39.307 45.3262C40.3699 44.7313 40.3699 44.7313 41.0741 44.8548C41.3365 45.0096 41.3365 45.0096 41.554 45.2238C41.6332 45.2999 41.7123 45.376 41.7939 45.4544C41.9127 45.575 41.9127 45.575 42.0339 45.6982C42.1155 45.7786 42.1972 45.859 42.2813 45.9419C42.4809 46.1399 42.6777 46.34 42.8737 46.5415C43.6825 45.8757 44.4103 45.1326 45.1458 44.388C45.2749 44.2577 45.404 44.1275 45.5332 43.9974C45.8468 43.6811 46.1601 43.3645 46.4731 43.0477C46.095 42.5975 45.7185 42.1542 45.2958 41.745C44.9602 41.4199 44.8128 41.2468 44.74 40.7718C44.7513 40.061 45.1911 39.4627 45.5283 38.8611C46.2835 37.4634 46.7802 36.1031 47.178 34.5715C47.2225 34.4063 47.2225 34.4063 47.268 34.2378C47.2893 34.148 47.3106 34.0583 47.3326 33.9658C47.4329 33.771 47.4329 33.771 47.6418 33.7009C47.934 33.6465 48.2139 33.6251 48.5109 33.6124C48.612 33.6078 48.7131 33.6032 48.8172 33.5985C48.9444 33.5933 49.0716 33.5881 49.2026 33.5827C49.8113 33.5566 49.8113 33.5566 50.4324 33.53C50.4324 31.8602 50.4324 30.1904 50.4324 28.47C49.6303 28.4495 49.6303 28.4495 48.8281 28.4341C48.3484 28.4166 47.9889 28.3863 47.5529 28.1754C47.2016 27.7248 47.1058 27.2585 46.9755 26.708C46.5707 25.1557 45.99 23.7314 45.1533 22.3633C44.923 21.9759 44.7915 21.7153 44.6884 21.2715C44.8471 20.6796 45.2061 20.3401 45.6332 19.9161C45.7534 19.7931 45.7534 19.7931 45.876 19.6677C46.0731 19.4673 46.2724 19.2696 46.4731 19.0728C45.81 18.2607 45.07 17.5299 44.3285 16.7913C44.1988 16.6617 44.0691 16.532 43.9395 16.4023C43.6245 16.0874 43.3092 15.7728 42.9937 15.4585C42.474 15.8939 42.0053 16.3289 41.5737 16.8539C41.1513 17.1317 40.734 17.1801 40.2342 17.1452C39.8641 17.0133 39.5514 16.8154 39.2219 16.603C37.7272 15.7074 36.1819 15.1109 34.4799 14.7498C34.012 14.5771 33.8711 14.4562 33.6354 14.0128C33.5629 13.5783 33.552 13.15 33.5454 12.7101C33.5355 12.3051 33.5256 11.9001 33.5154 11.4828C31.8525 11.4828 30.1896 11.4828 28.4763 11.4828Z" fill="#B59253"/>
<path d="M31.6069 0.000382432C31.7319 0.000522082 31.857 0.000661732 31.9858 0.000805615C36.8912 0.0116491 36.8912 0.0116491 38.5669 0.761554C38.9848 1.21527 39.0172 1.56167 38.9947 2.15813C38.9373 2.4497 38.9373 2.4497 38.6441 2.82651C37.8361 3.35442 36.602 3.01824 35.7042 2.87927C28.2481 1.81709 20.5247 3.70699 14.4769 8.10196C12.4294 9.61989 10.4993 11.2987 8.93672 13.302C8.88313 13.3706 8.82954 13.4391 8.77432 13.5097C6.08351 16.9682 4.18806 20.8646 3.25761 25.119C3.23165 25.2367 3.20569 25.3544 3.17894 25.4756C2.42069 29.0923 2.46525 33.0893 3.25761 36.6949C3.28275 36.8116 3.3079 36.9283 3.33381 37.0485C4.22703 41.051 6.03682 44.9665 8.68981 48.1501C8.79986 48.1131 8.79986 48.1131 8.91213 48.0752C10.5726 47.5481 12.047 47.5563 13.6513 48.2707C14.9474 48.9185 15.7707 49.9426 16.2208 51.2852C16.628 52.8081 16.4808 54.113 15.727 55.5056C14.9698 56.6788 13.9039 57.4818 12.5314 57.8609C11.0921 58.1713 9.57896 57.9639 8.33197 57.222C7.1076 56.4077 6.29647 55.3659 5.97371 53.938C5.89502 52.6669 5.9256 51.6188 6.46754 50.4412C6.56278 50.2114 6.56278 50.2114 6.591 49.9589C6.49107 49.7351 6.49107 49.7351 6.31804 49.5269C6.25649 49.4453 6.19494 49.3637 6.13153 49.2796C6.06417 49.1929 5.99681 49.1062 5.92741 49.0168C5.2217 48.0749 4.58705 47.1155 3.99836 46.1002C3.95641 46.0285 3.91445 45.9568 3.87123 45.883C2.42447 43.3921 1.43174 40.6898 0.757563 37.9082C0.728658 37.7908 0.699753 37.6733 0.669972 37.5523C0.160571 35.3513 -0.0177641 33.166 0.00137658 30.9145C0.001951 30.7932 0.00252542 30.6719 0.00311725 30.547C0.0128284 28.7959 0.0574037 27.0809 0.418051 25.3602C0.453859 25.1799 0.453859 25.1799 0.49039 24.996C1.43222 20.3406 3.37211 15.9812 6.34409 12.2168C6.46321 12.0657 6.46321 12.0657 6.58473 11.9116C8.32586 9.74665 10.3449 7.67407 12.6405 6.06714C12.7074 6.01989 12.7743 5.97264 12.8432 5.92395C15.4383 4.09694 18.2487 2.60497 21.2826 1.60563C21.4336 1.55582 21.4336 1.55582 21.5875 1.505C22.7938 1.11455 24.0138 0.809201 25.2565 0.550536C25.3706 0.52657 25.4848 0.502603 25.6024 0.47791C27.6034 0.0808393 29.5704 -0.00665445 31.6069 0.000382432ZM9.38426 50.8255C8.77478 51.4633 8.53801 51.9881 8.51233 52.8679C8.54162 53.6258 8.71309 54.059 9.23766 54.6239C9.99358 55.2901 10.5037 55.4307 11.5202 55.4175C12.3046 55.3504 12.8012 55.0489 13.3041 54.4656C13.745 53.8284 13.9414 53.1805 13.8278 52.4129C13.6273 51.6631 13.3392 51.0918 12.6583 50.6564C11.5634 50.0752 10.4072 50.0794 9.38426 50.8255Z" fill="#B59253"/>
<path d="M53.7054 4.80946C53.8736 4.93625 53.8736 4.93625 54.0452 5.0656C54.1132 5.11191 54.1812 5.15821 54.2512 5.20592C55.1887 5.89641 55.7677 6.97511 56.0219 8.07912C56.0599 8.43146 56.0689 8.77973 56.0683 9.13386C56.0683 9.22889 56.0684 9.32393 56.0685 9.42185C56.0532 10.2161 55.8609 10.8515 55.5278 11.5748C55.4324 11.8046 55.4324 11.8046 55.4042 12.057C55.5042 12.2807 55.5042 12.2807 55.6774 12.4888C55.739 12.5703 55.8005 12.6519 55.864 12.736C55.9314 12.8227 55.9988 12.9094 56.0683 12.9987C56.7745 13.9403 57.4096 14.8994 57.9987 15.9143C58.0407 15.9859 58.0827 16.0576 58.126 16.1315C59.5738 18.6215 60.5672 21.3229 61.2419 24.1035C61.2853 24.2796 61.2853 24.2796 61.3295 24.4593C61.8393 26.6596 62.0178 28.8441 61.9986 31.0949C61.998 31.2161 61.9975 31.3374 61.9969 31.4623C61.9872 33.2128 61.9426 34.9272 61.5816 36.6473C61.5578 36.7674 61.5339 36.8876 61.5093 37.0113C60.5062 41.9642 58.3602 46.4356 55.1571 50.3889C55.0568 50.514 54.9564 50.6391 54.8531 50.768C53.2883 52.6438 51.4906 54.4032 49.4739 55.8133C49.3077 55.9325 49.1415 56.0518 48.9753 56.1711C44.6299 59.2585 39.6097 61.1731 34.2774 61.8403C34.1947 61.8508 34.112 61.8613 34.0268 61.8721C33.3283 61.9546 32.6385 61.9836 31.9352 61.9896C31.8199 61.9907 31.7046 61.9919 31.5857 61.9931C31.214 61.9961 30.8423 61.9976 30.4705 61.9985C30.2809 61.9991 30.2809 61.9991 30.0874 61.9996C24.3458 62.0033 24.3458 62.0033 23.1811 60.9061C22.9662 60.5087 22.9795 60.2346 23.0344 59.7911C23.4146 59.1235 23.4146 59.1235 23.7757 58.9473C24.621 58.887 25.4371 58.992 26.2698 59.1206C29.778 59.6142 33.2882 59.4585 36.7483 58.7063C36.8949 58.6749 36.8949 58.6749 37.0445 58.6428C41.2233 57.7228 45.1817 55.8178 48.4855 53.1614C48.554 53.1068 48.6225 53.0522 48.6931 52.9959C50.2976 51.71 51.7943 50.3144 53.0568 48.7014C53.1078 48.6374 53.1588 48.5733 53.2113 48.5074C56.0798 44.8947 57.9314 40.752 58.8636 36.2857C58.8857 36.1834 58.9079 36.0812 58.9307 35.9759C60.3356 29.2121 58.6034 21.5529 54.7783 15.8159C54.3152 15.1435 53.8287 14.4933 53.3039 13.8651C53.2305 13.8898 53.157 13.9145 53.0814 13.9399C51.4863 14.4458 49.9967 14.49 48.4546 13.7822C47.0973 13.0648 46.2064 12.064 45.7095 10.6241C45.3326 9.16123 45.5689 7.79893 46.2997 6.4829C46.8955 5.53514 47.5911 4.95948 48.609 4.4629C48.6909 4.42172 48.7727 4.38055 48.8571 4.33812C50.4022 3.70262 52.305 4.02118 53.7054 4.80946ZM48.6862 7.55176C48.245 8.1887 48.0484 8.83645 48.1621 9.60378C48.3628 10.3533 48.6511 10.9244 49.3325 11.3596C50.0864 11.7594 50.7406 11.895 51.5819 11.6803C52.3306 11.4331 52.8142 11.0956 53.2267 10.4221C53.561 9.69272 53.5815 8.88249 53.3184 8.12809C52.9311 7.37751 52.4018 6.9018 51.5742 6.63264C50.3775 6.52712 49.4842 6.62723 48.6862 7.55176Z" fill="#B59253"/>
<path d="M37.484 23.3095C39.3895 24.951 40.7161 27.2679 40.9665 29.7938C41.1784 32.8553 40.3944 35.4947 38.3813 37.8312C36.6092 39.7074 34.2 40.8745 31.6116 40.9951C28.9427 41.0679 26.3569 40.339 24.3572 38.5071C24.1258 38.2878 23.8999 38.0645 23.6743 37.8392C23.5939 37.7603 23.5136 37.6813 23.4308 37.6C21.5921 35.6571 20.9475 32.9944 21.0033 30.3942C21.106 27.7137 22.3509 25.3374 24.2737 23.4975C28.1036 20.2298 33.5787 20.1702 37.484 23.3095ZM25.3179 26.1313C23.8463 27.8718 23.4207 29.8472 23.5542 32.0753C23.8143 34.0085 24.9225 35.6552 26.3869 36.9011C28.1933 38.2595 30.284 38.6813 32.4916 38.3842C34.6085 37.9076 36.3545 36.5513 37.514 34.7396C38.534 32.9582 38.7327 30.8153 38.2087 28.8439C37.5785 26.9629 36.2888 25.3171 34.5119 24.401C34.4227 24.3578 34.3336 24.3146 34.2417 24.2701C34.1525 24.2257 34.0634 24.1812 33.9715 24.1355C30.9454 22.7013 27.5207 23.7392 25.3179 26.1313Z" fill="#B59253"/>
<path d="M20.3237 58.0925C20.6838 58.2719 20.8237 58.4043 20.9941 58.6843C21.0223 59.0888 20.9574 59.417 20.6324 59.7625C20.1574 59.9566 19.709 60.0151 19.1594 59.9968C18.7001 59.8895 18.4203 59.8065 18.1186 59.5515C17.9484 59.1444 17.9476 58.8081 18.2068 58.4206C18.7596 57.9616 19.488 57.9228 20.3237 58.0925Z" fill="#B59253"/>
<path d="M43.1622 2.07033C43.6202 2.30377 43.8271 2.45695 43.9991 2.82562C44.0127 3.26272 43.8665 3.47855 43.4265 3.79923C42.8992 4.0065 42.4914 4.04108 41.8935 3.95855C41.4973 3.78921 41.2578 3.67354 41.0477 3.39209C40.9884 3.10324 40.98 2.83072 41.0477 2.54239C41.6707 2.0011 42.1829 1.91202 43.1622 2.07033Z" fill="#B59253"/>
</svg>
