<svg width="67" height="62" viewBox="0 0 67 62" fill="none" xmlns="http://www.w3.org/2000/svg">
<path d="M17.3255 0.00296669C17.4559 0.00190321 17.4559 0.00190321 17.5889 0.000818238C17.8729 -0.000697678 18.1568 0.000109331 18.4408 0.00148287C18.5379 0.00171367 18.6349 0.00194448 18.7348 0.00218227C22.98 0.0192019 28.0814 0.665411 31.2618 3.68928C32.7941 5.22912 33.503 7.1052 33.4674 9.23241C33.4065 10.7096 33.0874 12.0643 32.4876 13.4229C32.2761 13.9169 32.1817 14.2207 32.3709 14.7289C32.5177 15.0182 32.6697 15.3003 32.8277 15.5836C35.1087 19.8621 35.8281 24.6957 36.4162 29.4168C36.7374 28.7935 36.8659 28.4656 36.6772 27.7708C36.6463 27.6377 36.6153 27.5047 36.5834 27.3676C36.5155 27.0933 36.4476 26.8189 36.3795 26.5446C35.7898 23.9043 35.9686 20.9625 37.4404 18.6169C38.1835 17.5488 39.1632 16.6107 40.331 15.9951C40.4602 15.9228 40.5894 15.8505 40.7225 15.776C41.5861 15.3212 42.4397 14.9985 43.3894 14.7527C43.5315 14.7157 43.5315 14.7157 43.6763 14.678C45.244 14.3006 46.8259 14.1774 48.4348 14.1825C48.7033 14.1829 48.9717 14.1799 49.2402 14.1767C49.4976 14.1766 49.4976 14.1766 49.7601 14.1765C49.9137 14.1761 50.0673 14.1757 50.2256 14.1753C50.8087 14.2416 51.144 14.4583 51.5534 14.8555C51.6155 15.4094 51.5967 15.9686 51.5942 16.5253C51.5935 16.6909 51.5929 16.8565 51.5922 17.0271C51.5522 21.2015 50.66 25.4659 47.5367 28.5033C46.197 29.702 44.4294 30.1259 42.6447 30.0875C41.4562 29.9957 40.2983 29.7456 39.1566 29.4168C37.6169 32.7423 36.7108 36.1473 36.3326 39.7744C36.3153 39.9362 36.2979 40.0979 36.2801 40.2646C36.2379 40.6583 36.1963 41.0519 36.1552 41.4457C36.2714 41.4445 36.3875 41.4434 36.5072 41.4423C37.6071 41.4321 38.707 41.4244 39.807 41.4194C40.3723 41.4168 40.9377 41.4132 41.503 41.4075C42.0496 41.4019 42.5961 41.3989 43.1427 41.3976C43.3503 41.3967 43.5578 41.3949 43.7653 41.3921C45.4496 41.3707 46.8755 41.5608 48.1606 42.7119C48.3958 42.9568 48.6035 43.2048 48.813 43.4716C49.71 42.6105 50.5576 41.7105 51.3495 40.7572C51.8268 40.183 52.3293 39.6407 52.8468 39.101C53.343 38.5805 53.8034 38.0367 54.2616 37.4844C54.6702 37.0051 55.1054 36.5514 55.5395 36.094C55.8436 35.7651 56.1301 35.4282 56.4142 35.083C58.4329 32.6659 60.6497 30.6143 63.9502 30.1765C64.3719 30.1382 64.7909 30.1199 65.2143 30.1132C65.3128 30.1109 65.4112 30.1085 65.5127 30.1061C65.9633 30.1112 66.2871 30.1709 66.6931 30.3625C67.0719 30.8323 67.0206 31.2436 66.9515 31.8226C66.8364 32.2146 66.6699 32.5739 66.4918 32.9424C66.4188 33.1 66.4188 33.1 66.3444 33.2607C66.1845 33.6053 66.0216 33.9484 65.8587 34.2917C65.7452 34.535 65.632 34.7784 65.5189 35.0219C65.2856 35.5243 65.0513 36.0264 64.8164 36.5282C64.3462 37.5349 63.8893 38.5473 63.4331 39.5602C63.2408 39.987 63.0478 40.4135 62.8549 40.84C62.456 41.7217 62.0578 42.6038 61.6601 43.4861C61.1634 44.5879 60.6655 45.6892 60.1651 46.7894C59.9602 47.2401 59.7557 47.6909 59.5536 48.1428C58.5888 50.2971 57.5419 52.0218 55.8596 53.7278C55.7456 53.8482 55.7456 53.8482 55.6292 53.9711C55.0348 54.5802 54.3635 55.0431 53.6413 55.5004C53.5407 55.5657 53.4401 55.631 53.3364 55.6983C52.1592 56.427 50.8746 56.9034 49.5279 57.2391C48.1783 57.5814 46.8891 58.0446 45.5981 58.5517C45.4634 58.6046 45.4634 58.6046 45.3259 58.6586C44.6742 58.915 44.0236 59.1741 43.3731 59.4336C36.9006 62.0143 36.9006 62.0143 33.3089 61.9976C33.1487 61.997 32.9885 61.9964 32.8234 61.9957C31.6255 61.9808 30.5314 61.8769 29.3696 61.5782C29.208 61.541 29.0463 61.5038 28.8798 61.4654C27.2132 61.0567 25.6569 60.3489 24.0891 59.6784C14.2979 55.4893 14.2979 55.4893 3.86848 53.3301C3.70792 53.3119 3.54736 53.2937 3.38193 53.275C3.02578 53.2369 2.67088 53.2033 2.31403 53.1736C2.1267 53.1559 1.93937 53.1381 1.75205 53.1204C1.49966 53.0992 1.49966 53.0992 1.24218 53.0775C0.676414 52.94 0.497058 52.7798 0.139238 52.335C0.0727117 51.9494 0.0459104 51.6341 0.0486 51.2487C0.0468278 51.1407 0.0450557 51.0328 0.0432298 50.9215C0.0383693 50.5651 0.0383582 50.2089 0.0388194 49.8525C0.0373848 49.6038 0.0358144 49.3551 0.0341143 49.1064C0.0313863 48.5849 0.0312188 48.0635 0.0326707 47.542C0.0341926 46.8762 0.028009 46.2107 0.0196923 45.5449C0.014375 45.031 0.0139052 44.5171 0.0147861 44.0032C0.0144995 43.7579 0.0125689 43.5126 0.00891812 43.2673C-0.0194467 41.1143 -0.019446 41.1143 0.63792 40.3045C0.814473 40.131 0.996086 39.9623 1.18318 39.7996C1.34969 39.6288 1.51563 39.4574 1.68068 39.2852C4.84475 36.3162 8.7989 34.4384 13.2527 34.485C18.4971 34.6814 23.7059 37.1302 28.1535 39.6557C29.9113 40.653 31.7785 41.1629 33.8064 41.319C33.8041 41.204 33.8041 41.204 33.8018 41.0866C33.8 40.9274 33.8 40.9274 33.7982 40.7651C33.7967 40.6623 33.7952 40.5594 33.7936 40.4535C33.8043 40.1176 33.8312 39.7931 33.8675 39.4593C34.0639 37.6436 34.105 35.7992 34.0674 33.9751C34.0639 33.7784 34.0639 33.7784 34.0603 33.5778C33.9446 27.7088 33.3175 21.4609 30.3891 16.2078C30.2831 15.9951 30.2831 15.9951 30.2831 15.7419C30.18 15.7678 30.0768 15.7938 29.9706 15.8205C26.8942 16.5335 23.5809 16.4179 20.7795 14.8699C18.0343 13.0951 16.6539 10.2869 16.0126 7.22968C15.7092 5.70917 15.642 4.19123 15.6353 2.64467C15.6326 2.48773 15.6299 2.33079 15.6271 2.1691C15.6261 1.94251 15.6261 1.94251 15.6251 1.71134C15.6238 1.5758 15.6226 1.44025 15.6214 1.3006C15.6749 0.871051 15.7943 0.639546 16.0594 0.294291C16.5332 -0.0122099 16.7612 0.00683451 17.3255 0.00296669ZM18.0167 2.19359C17.9199 5.58513 18.2572 9.01762 20.545 11.7455C21.9449 13.1804 23.848 13.9207 25.8616 13.9925C26.8834 14.0138 27.8552 13.981 28.8476 13.716C28.53 13.0108 27.9478 12.4982 27.4122 11.9433C27.3202 11.8457 27.2282 11.7481 27.1334 11.6475C26.0051 10.494 24.6584 9.68477 23.2053 8.97562C22.5968 8.676 22.5968 8.676 22.4535 8.39795C22.3941 7.4901 22.3941 7.4901 22.5921 7.13966C22.9841 6.93109 23.3124 6.90397 23.7584 6.87851C24.1194 7.00192 24.4133 7.12372 24.7453 7.29794C24.8357 7.34393 24.9262 7.38991 25.0194 7.43729C27.1302 8.54041 28.9956 10.0645 30.4136 11.9433C31.1394 11.239 31.1129 10.0359 31.1231 9.09435C31.1104 7.45107 30.6032 6.31588 29.4099 5.14194C28.8471 4.64397 28.2204 4.29715 27.5427 3.96626C27.4415 3.91419 27.3402 3.86212 27.2359 3.80848C24.4651 2.47253 21.0623 2.17703 18.0167 2.19359ZM40.0578 19.0632C38.648 20.747 38.2351 22.7659 38.4307 24.906C38.4536 25.1014 38.4775 25.2967 38.5041 25.4916C38.944 25.1048 39.281 24.6978 39.6215 24.2254C40.6713 22.8019 42.5419 20.3303 44.3982 19.996C44.7752 19.9794 45.0783 20.0039 45.4121 20.1815C45.6303 20.5676 45.6734 20.8741 45.6812 21.3131C45.3697 21.7539 45.0288 22.0657 44.5883 22.3815C42.9854 23.6075 40.9939 25.3347 40.331 27.2643C40.4898 27.3243 40.6486 27.3844 40.8122 27.4463C40.9015 27.4801 40.9908 27.5139 41.0829 27.5487C42.3544 27.9643 43.9402 27.9573 45.1592 27.3909C45.5873 27.1295 45.9616 26.8363 46.3337 26.5046C46.4031 26.444 46.4726 26.3834 46.5442 26.3211C48.9782 23.8956 49.2113 19.6704 49.335 16.5016C46.0658 16.3948 42.4572 16.5829 40.0578 19.0632ZM59.9584 34.5543C59.3142 35.2295 58.7185 35.9414 58.1234 36.6574C57.736 37.1083 57.3268 37.5365 56.9148 37.9661C56.5246 38.3754 56.1549 38.7951 55.7944 39.2298C55.3769 39.7333 54.9428 40.2132 54.4895 40.686C53.9297 41.2697 53.4058 41.8734 52.8904 42.4947C52.4834 42.9721 52.0501 43.4241 51.6176 43.8796C51.1868 44.3455 50.7823 44.8298 50.38 45.3189C50.118 45.6241 50.118 45.6241 49.831 45.8689C49.5217 46.2133 49.5145 46.455 49.4737 46.9061C49.3173 48.0832 48.8254 49.1304 47.8996 49.9292C46.6732 50.7823 45.6499 50.9798 44.1695 50.9785C44.0195 50.9794 43.8696 50.9802 43.7151 50.9811C43.3902 50.9828 43.0652 50.984 42.7402 50.9846C42.2236 50.9857 41.707 50.9882 41.1904 50.9913C40.0911 50.9975 38.9918 51.0016 37.8924 51.0055C36.7109 51.0097 35.5294 51.0143 34.3479 51.0212C33.7557 51.0245 33.1635 51.0261 32.5712 51.0273C30.3034 51.0367 28.012 51.0529 25.8137 51.6544C25.701 51.6834 25.5883 51.7125 25.4722 51.7424C25.2049 51.8116 24.9383 51.883 24.6719 51.9551C24.4491 51.239 24.2291 50.5224 24.0194 49.8026C24.0909 49.7887 24.1624 49.7748 24.2361 49.7605C24.3395 49.7404 24.443 49.7204 24.5495 49.6997C24.6678 49.6768 24.786 49.654 24.9079 49.6304C25.2088 49.5718 25.5095 49.5124 25.8101 49.4524C25.9782 49.4191 26.1462 49.3858 26.3193 49.3515C26.4771 49.32 26.6349 49.2885 26.7975 49.256C27.8572 49.0666 28.871 49.0238 29.9469 49.0229C30.1068 49.0222 30.2667 49.0216 30.4314 49.0209C30.7774 49.0196 31.1234 49.0184 31.4693 49.0176C32.0173 49.0163 32.5653 49.0137 33.1134 49.0109C34.671 49.0031 36.2287 48.9962 37.7864 48.992C38.6482 48.9897 39.5099 48.986 40.3716 48.9809C40.8267 48.9782 41.2817 48.9763 41.7368 48.976C42.2446 48.9756 42.7524 48.9724 43.2602 48.969C43.4093 48.9693 43.5584 48.9697 43.712 48.9701C44.7245 48.9599 45.6363 48.8845 46.4397 48.2436C46.581 48.0751 46.581 48.0751 46.7252 47.9033C46.8705 47.7309 46.8705 47.7309 47.0188 47.5551C47.4173 46.8369 47.4657 46.1852 47.2308 45.4025C46.9123 44.5985 46.3038 44.1511 45.5507 43.7248C44.9516 43.5611 44.3486 43.579 43.7313 43.5782C43.6149 43.5776 43.4985 43.5769 43.3786 43.5763C43.1262 43.5749 42.8738 43.5738 42.6214 43.573C42.2201 43.5715 41.8188 43.569 41.4174 43.5662C40.2764 43.5585 39.1354 43.5516 37.9943 43.5474C37.2955 43.5447 36.5968 43.5402 35.898 43.5346C35.6335 43.5328 35.3689 43.5317 35.1044 43.5313C31.3446 43.525 28.4475 42.5261 25.2265 40.6939C20.746 38.1952 15.1468 35.9142 9.9262 37.1406C7.39429 37.857 5.28397 39.1703 3.40156 40.9392C3.31697 40.9985 3.23237 41.0577 3.14522 41.1188C2.66127 41.4972 2.39319 41.7847 2.26556 42.3856C2.23683 42.9232 2.24 43.4522 2.25567 43.9899C2.25762 44.1872 2.2591 44.3845 2.26014 44.5817C2.26411 45.0981 2.27434 45.6142 2.28593 46.1304C2.29666 46.6584 2.30139 47.1863 2.30664 47.7143C2.3178 48.7482 2.33559 49.7818 2.35761 50.8155C2.73177 50.997 3.09248 51.0062 3.50809 51.0519C3.69204 51.0726 3.87598 51.0933 4.05991 51.114C4.15621 51.1246 4.2525 51.1353 4.35171 51.1463C10.7247 51.8579 16.3142 53.9039 22.1436 56.3947C26.2916 58.3256 26.2916 58.3256 30.6745 59.5523C30.7716 59.5675 30.8687 59.5828 30.9688 59.5985C35.1341 60.2178 38.7174 58.8538 42.5117 57.3562C43.0244 57.1542 43.5372 56.9524 44.0501 56.7508C44.1787 56.7002 44.3074 56.6495 44.44 56.5973C46.0017 55.9845 47.543 55.425 49.1716 55.0015C51.9946 54.2603 54.4137 52.4335 55.9901 50.0558C56.1668 49.7524 56.3269 49.4425 56.4846 49.1294C56.5292 49.0418 56.5738 48.9541 56.6197 48.8638C57.1258 47.861 57.5953 46.8426 58.0617 45.822C58.1578 45.6126 58.2539 45.4033 58.35 45.194C59.2905 43.1436 60.2196 41.0884 61.1469 39.0324C61.4642 38.3294 61.7829 37.6271 62.1026 36.9251C62.3231 36.4411 62.5432 35.9569 62.7633 35.4726C62.869 35.2404 62.9748 35.0083 63.0808 34.7762C63.2273 34.4554 63.3732 34.1344 63.519 33.8134C63.5848 33.6697 63.5848 33.6697 63.652 33.5232C63.8731 33.07 63.8731 33.07 63.9502 32.5823C62.4149 32.5823 61.0099 33.5402 59.9584 34.5543Z" fill="#B59253"/>
</svg>
