<svg width="62" height="62" viewBox="0 0 62 62" fill="none" xmlns="http://www.w3.org/2000/svg">
<path d="M31.5901 0.0809386C32.1952 0.388175 32.7347 0.76582 33.2803 1.16749C33.3474 1.21587 33.4146 1.26425 33.4838 1.31409C38.2973 4.79547 41.4557 9.92765 42.5167 15.7626C42.6212 16.4208 42.6872 17.0809 42.7423 17.7449C42.7525 17.8679 42.7628 17.991 42.7733 18.1177C42.8258 18.8805 42.7997 19.6056 42.697 20.3632C42.8285 20.3233 42.8285 20.3233 42.9625 20.2826C45.5629 19.5163 48.4127 19.8478 50.8111 21.0885C51.8218 21.642 52.6398 22.3175 53.4418 23.1399C53.5308 23.2278 53.6198 23.3158 53.7115 23.4064C55.6445 25.4255 56.3999 28.2218 56.3638 30.9547C56.3401 31.3352 56.289 31.6992 56.2185 32.0737C56.3464 32.1183 56.3464 32.1183 56.4769 32.1638C58.7462 33.159 60.3586 35.5413 61.2891 37.7479C62.1068 40.1563 62.2702 42.9329 61.4098 45.3538C61.3421 45.5454 61.3421 45.5454 61.273 45.741C60.7175 47.1739 59.9457 48.3609 58.8745 49.4585C58.7214 49.6191 58.7214 49.6191 58.5651 49.783C58.468 49.8751 58.3709 49.9672 58.2709 50.0622C58.2105 50.1233 58.1501 50.1845 58.0879 50.2475C56.1855 52.063 53.4579 52.8916 50.8763 52.8766C50.7556 52.8761 50.6349 52.8756 50.5105 52.8751C48.9888 52.8521 47.7619 52.5185 46.3188 51.9938C46.3188 54.4639 46.3188 56.934 46.3188 59.4789C47.9293 59.4684 47.9293 59.4684 49.5724 59.4577C50.3382 59.4542 51.1041 59.4511 51.87 59.4486C52.8625 59.4452 53.855 59.441 54.8476 59.4334C55.6333 59.4274 56.419 59.4235 57.2048 59.4221C57.6208 59.4213 58.0368 59.4195 58.4528 59.4151C58.9173 59.4102 59.3818 59.4101 59.8463 59.4104C59.9841 59.4082 60.1219 59.406 60.2639 59.4038C61.1961 59.4099 61.1961 59.4099 61.676 59.7661C61.91 60.1079 61.9746 60.2761 61.9682 60.6862C61.9697 60.7858 61.9713 60.8854 61.9729 60.988C61.8541 61.4352 61.6489 61.6063 61.2891 61.8935C60.9263 61.9528 60.6322 61.9748 60.27 61.9694C60.1671 61.9703 60.0643 61.9712 59.9583 61.9721C59.6121 61.9743 59.266 61.9722 58.9197 61.9701C58.6697 61.9708 58.4196 61.9718 58.1695 61.973C57.481 61.9755 56.7926 61.9742 56.1041 61.9724C55.3621 61.971 54.6201 61.9731 53.8781 61.9748C52.5082 61.9773 51.1382 61.9771 49.7683 61.9754C48.5028 61.9739 47.2373 61.9735 45.9717 61.9742C45.8459 61.9743 45.8459 61.9743 45.7175 61.9744C45.377 61.9746 45.0365 61.9748 44.696 61.975C41.5005 61.9768 38.305 61.9751 35.1096 61.9719C32.2695 61.969 29.4296 61.9693 26.5895 61.9722C23.4 61.9754 20.2104 61.9767 17.0209 61.9748C16.681 61.9746 16.341 61.9744 16.0011 61.9742C15.8756 61.9742 15.8756 61.9742 15.7475 61.9741C14.4827 61.9734 13.2179 61.9742 11.953 61.9757C10.5151 61.9775 9.07718 61.977 7.63925 61.9738C6.90516 61.9722 6.17109 61.9716 5.437 61.9735C4.76558 61.9753 4.09423 61.9744 3.42283 61.9711C3.17935 61.9705 2.93587 61.9708 2.6924 61.9723C2.36248 61.9741 2.03279 61.9722 1.70289 61.9694C1.60742 61.9708 1.51195 61.9723 1.41358 61.9737C0.92698 61.9654 0.708605 61.9132 0.323306 61.6058C0.0591435 61.2625 -0.00195494 61.1131 0.00471592 60.6862C0.00315967 60.5866 0.00160341 60.487 0 60.3844C0.122674 59.9225 0.30021 59.7667 0.683809 59.4789C1.14228 59.3906 1.59449 59.4027 2.06006 59.4104C2.1991 59.4103 2.33813 59.4102 2.48138 59.4101C2.94066 59.4105 3.39979 59.4152 3.85904 59.42C4.17757 59.4211 4.4961 59.422 4.81464 59.4226C5.56716 59.4244 6.31964 59.4294 7.07214 59.4354C8.01314 59.4429 8.95416 59.4462 9.89518 59.4494C11.5734 59.4553 13.2515 59.4674 14.9297 59.4789C14.8898 56.969 14.85 54.4591 14.8089 51.8731C13.6137 51.6938 13.6137 51.6938 12.3944 51.5109C11.9435 51.3946 11.5297 51.2821 11.0966 51.1261C10.9923 51.0898 10.888 51.0535 10.7806 51.0162C6.73965 49.5662 3.61859 46.7217 1.64963 42.9392C1.58302 42.8139 1.51641 42.6887 1.44779 42.5596C1.12006 41.9014 0.855795 41.2647 1.04599 40.5247C1.30937 40.192 1.51342 39.9891 1.89108 39.8003C2.33638 39.7497 2.5716 39.7774 2.97197 39.9866C3.42141 40.349 3.59167 40.6859 3.82273 41.2038C3.90539 41.3781 3.98839 41.5523 4.07173 41.7263C4.11157 41.8104 4.15141 41.8945 4.19245 41.9812C4.66818 42.9634 5.30004 43.7945 5.99582 44.6294C6.07659 44.7368 6.07659 44.7368 6.15899 44.8463C7.97821 47.1901 11.3242 48.7339 14.2185 49.1313C14.303 49.1415 14.3875 49.1517 14.4745 49.1622C14.6247 49.1803 14.7749 49.1984 14.9297 49.2171C15.0369 47.6963 15.1039 46.1763 15.1334 44.6521C15.1366 44.4852 15.1366 44.4852 15.14 44.3149C15.2367 40.745 15.2367 40.745 13.5842 37.7071C12.8785 37.0102 12.0842 36.3736 11.2382 35.8541C10.6264 35.4637 10.6264 35.4637 10.494 35.0615C10.4334 34.6023 10.4301 34.3236 10.6137 33.8922C10.8523 33.6109 11.0598 33.4301 11.4262 33.3485C11.9696 33.3186 12.3073 33.3668 12.7264 33.7262C12.9001 33.8971 13.0706 34.0712 13.2395 34.2468C13.3756 34.3823 13.5121 34.5175 13.6488 34.6524C14.0383 35.0377 14.4242 35.4263 14.8089 35.8163C14.8101 35.6988 14.8112 35.5812 14.8124 35.4602C14.8172 35.0225 14.8251 34.5849 14.834 34.1473C14.8374 33.9582 14.84 33.7691 14.8417 33.58C14.8443 33.3075 14.8499 33.0352 14.8561 32.7627C14.8562 32.6787 14.8564 32.5947 14.8565 32.5081C14.8738 31.9313 15.0052 31.6349 15.4126 31.2287C15.8029 31.0335 16.1979 31.0375 16.6199 31.1079C16.9743 31.2977 17.277 31.532 17.4224 31.9205C17.481 32.2975 17.4851 32.6656 17.4897 33.0472C17.4909 33.1321 17.4921 33.2169 17.4934 33.3044C17.4972 33.5839 17.5002 33.8635 17.5031 34.1431C17.5056 34.3373 17.5082 34.5315 17.5107 34.7257C17.5174 35.2361 17.5234 35.7466 17.5292 36.2571C17.5353 36.7783 17.542 37.2994 17.5487 37.8206C17.5616 38.8427 17.5739 39.8648 17.5857 40.8869C17.7484 40.7232 17.7484 40.7232 17.9143 40.5563C18.3158 40.1526 18.7178 39.7493 19.1198 39.3461C19.2939 39.1713 19.468 38.9965 19.6419 38.8216C19.8915 38.5704 20.1415 38.3197 20.3916 38.0691C20.4696 37.9905 20.5476 37.9119 20.6279 37.8309C20.7367 37.7222 20.7367 37.7222 20.8476 37.6112C20.9114 37.5471 20.9752 37.4831 21.041 37.417C21.4122 37.0782 21.782 37.1048 22.2625 37.1094C22.6667 37.1611 22.8688 37.3315 23.1391 37.6272C23.2907 38.0817 23.3227 38.3552 23.2599 38.8345C22.8109 39.4935 22.1886 40.0153 21.5859 40.5288C18.5978 42.9143 18.5978 42.9143 17.2152 46.2906C17.1829 47.275 17.2811 48.251 17.4649 49.2171C21.2834 48.552 24.7469 46.9511 27.0769 43.7263C28.2204 42.074 28.9818 40.3152 29.417 38.3516C29.2832 38.2528 29.2832 38.2528 29.1468 38.1521C28.7521 37.8587 28.3598 37.5625 27.9682 37.265C27.8641 37.1866 27.76 37.1082 27.6528 37.0274C23.078 33.4415 20.2188 28.2517 19.3966 22.5363C15.5676 21.849 11.7288 22.3916 8.48394 24.6207C8.1279 24.8818 7.78467 25.1523 7.44455 25.4337C7.34215 25.5164 7.23975 25.599 7.13425 25.6841C5.48858 27.0796 4.38874 28.9018 3.49827 30.8438C3.31108 31.2233 3.22063 31.3482 2.872 31.6135C2.40693 31.7344 2.11251 31.7194 1.64963 31.5908C1.36977 31.3625 1.20666 31.1878 1.04599 30.8665C0.963618 30.0102 1.19533 29.4385 1.57417 28.6783C1.62873 28.5669 1.68329 28.4555 1.7395 28.3407C2.5255 26.777 3.55837 25.4638 4.78855 24.2265C4.84484 24.1697 4.90114 24.1129 4.95915 24.0544C7.9564 21.0746 11.9696 19.6386 16.152 19.6086C16.283 19.6075 16.414 19.6063 16.549 19.6051C17.439 19.6088 18.2822 19.708 19.1551 19.8803C19.1569 19.8082 19.1587 19.7361 19.1605 19.6618C19.3327 13.2971 21.6095 7.6334 26.1941 3.15195C27.1984 2.24377 28.2961 1.44169 29.417 0.684577C29.4982 0.623416 29.5795 0.562255 29.6631 0.499241C30.2858 0.0539675 30.8345 -0.115521 31.5901 0.0809386ZM29.2962 3.94422C29.2273 3.99978 29.1583 4.05534 29.0872 4.11258C25.0344 7.4056 22.3826 12.1398 21.8159 17.3562C21.324 22.4046 22.672 27.4452 25.7951 31.4701C25.8753 31.575 25.9554 31.6799 26.038 31.788C27.0614 33.0856 28.2706 34.4174 29.6584 35.3334C29.6983 35.3334 29.7381 35.3334 29.7792 35.3334C29.9265 34.0678 30.0251 32.8032 30.081 31.5305C30.0851 31.4371 30.0892 31.3437 30.0935 31.2474C30.1868 28.8456 30.0633 26.9898 28.3884 25.1633C27.3934 24.1639 26.2987 23.2659 25.1479 22.4519C24.8985 22.2538 24.8377 22.1242 24.8006 21.8091C24.7762 21.0376 24.7762 21.0376 25.0557 20.665C25.4769 20.3677 25.7848 20.2926 26.3082 20.3579C27.0837 20.6522 27.6521 21.4064 28.2097 22.0005C28.4159 22.2155 28.6229 22.4298 28.8299 22.644C28.9581 22.777 29.0856 22.9107 29.2125 23.045C29.3589 23.1995 29.5084 23.3511 29.6584 23.5021C29.6983 23.5021 29.7381 23.5021 29.7792 23.5021C29.7804 23.3622 29.7816 23.2224 29.7829 23.0783C29.7947 21.7619 29.8071 20.4455 29.8201 19.1291C29.8268 18.4523 29.8332 17.7755 29.8392 17.0987C29.845 16.4459 29.8513 15.793 29.858 15.1402C29.8605 14.8908 29.8627 14.6414 29.8648 14.392C29.8677 14.0434 29.8713 13.6948 29.8751 13.3462C29.8758 13.2425 29.8765 13.1388 29.8772 13.032C29.8822 12.6295 29.8925 12.2967 30.0206 11.9122C30.3766 11.7936 30.6154 11.7753 30.9864 11.7764C31.091 11.7761 31.1956 11.7758 31.3033 11.7755C31.5901 11.7915 31.5901 11.7915 31.9523 11.9122C32.0655 12.2519 32.091 12.4728 32.0978 12.8253C32.1014 12.9921 32.1014 12.9921 32.1051 13.1622C32.1071 13.2818 32.1091 13.4014 32.1112 13.5246C32.1137 13.6474 32.1162 13.7701 32.1188 13.8966C32.1267 14.289 32.1338 14.6814 32.1409 15.0738C32.1461 15.3397 32.1514 15.6056 32.1567 15.8715C32.1696 16.5236 32.1819 17.1758 32.1937 17.8279C32.3282 17.7142 32.4625 17.6002 32.5967 17.4861C32.6715 17.4227 32.7463 17.3592 32.8234 17.2939C33.114 17.0371 33.3722 16.7547 33.6349 16.4697C34.1538 15.9461 34.4728 15.7049 35.2119 15.6548C35.5815 15.7369 35.755 15.842 36.0344 16.0924C36.248 16.5196 36.2903 16.8869 36.1777 17.345C35.8242 17.9178 35.3271 18.3276 34.7748 18.7011C33.6364 19.4788 32.4751 20.4239 32.0965 21.8041C31.7328 23.7837 31.8788 25.8598 31.9676 27.8593C32.0033 28.6758 32.0201 29.4923 32.0358 30.3094C32.0682 31.9849 32.1232 33.6591 32.1937 35.3334C32.9039 34.8657 33.5047 34.3433 34.1254 33.7639C34.2601 33.6443 34.3948 33.5247 34.5295 33.4051C34.6641 33.2809 34.7985 33.1566 34.9327 33.032C34.9981 32.9753 35.0635 32.9186 35.1308 32.8601C35.3426 32.6698 35.3426 32.6698 35.5741 32.3152C35.5604 31.9614 35.5256 31.688 35.4534 31.3494C35.2799 28.3912 36.1338 25.622 38.1094 23.3814C38.9109 22.5052 38.9109 22.5052 39.3732 22.2528C39.784 22.0195 40.0934 21.818 40.2247 21.3424C40.3367 20.6164 40.3132 19.8876 40.2825 19.1559C40.276 18.9865 40.276 18.9865 40.2694 18.8136C40.0237 13.4453 37.6751 8.50162 33.7783 4.8195C33.2294 4.33284 32.6596 3.87902 32.073 3.43867C31.9963 3.38043 31.9196 3.32219 31.8405 3.26218C30.7684 2.48012 30.1584 3.24668 29.2962 3.94422ZM42.0934 23.3814C41.9832 23.4422 41.873 23.5031 41.7595 23.5658C39.7448 24.7616 38.5683 26.58 37.9886 28.8141C37.7175 30.4047 37.8517 31.9564 38.4942 33.447C38.7276 33.9981 38.8041 34.3742 38.713 34.9712C38.3018 35.6261 37.6384 35.7733 36.9356 36.0295C35.8512 36.4379 35.0701 37.0611 34.2461 37.8687C34.1687 37.9417 34.0914 38.0146 34.0117 38.0898C32.6627 39.4751 32.2609 41.3755 32.2618 43.2397C32.2994 45.1709 33.0977 46.7956 34.4149 48.1965C36.0813 49.7678 37.9611 50.3621 40.2122 50.3291C41.3692 50.2906 42.9336 49.9463 43.7836 49.0963C44.0047 48.1739 44.0896 47.0808 43.5957 46.2421C42.9825 45.467 42.2362 44.8211 41.4973 44.1691C41.1693 43.8709 40.8433 43.5709 40.5193 43.2684C40.3185 43.0818 40.1152 42.8979 39.909 42.7173C39.1486 42.0251 39.1486 42.0251 39.0627 41.4492C39.0762 40.9713 39.1361 40.7698 39.4374 40.4039C39.8906 40.1018 40.1071 40.1078 40.6446 40.1625C41.4005 40.5709 41.9589 41.2129 42.5536 41.8225C42.7604 42.0334 42.9674 42.2441 43.1747 42.4544C43.2656 42.5475 43.3564 42.6405 43.4501 42.7363C43.6284 42.9531 43.6284 42.9531 43.7836 42.9392C43.7845 42.848 43.7855 42.7569 43.7865 42.6629C43.7959 41.8031 43.8065 40.9434 43.8183 40.0837C43.8243 39.6417 43.8299 39.1997 43.8345 38.7577C43.8389 38.331 43.8446 37.9044 43.8509 37.4778C43.8543 37.236 43.8564 36.9942 43.8585 36.7524C43.8609 36.605 43.8633 36.4576 43.8658 36.3057C43.8674 36.1759 43.869 36.0462 43.8707 35.9125C43.9043 35.5749 43.9645 35.3758 44.1457 35.0919C44.5603 34.7849 44.9733 34.8147 45.4737 34.8505C45.7899 34.953 45.912 35.02 46.087 35.3019C46.2182 35.6243 46.2365 35.8819 46.2481 36.2294C46.2528 36.3531 46.2574 36.4769 46.2623 36.6043C46.266 36.7327 46.2697 36.8611 46.2736 36.9934C46.2782 37.1237 46.2829 37.2539 46.2877 37.3881C46.2991 37.7093 46.3094 38.0304 46.3188 38.3516C47.1187 37.6904 47.8333 36.9591 48.5528 36.2124C48.6451 36.1184 48.7373 36.0244 48.8324 35.9276C48.9149 35.8424 48.9974 35.7573 49.0824 35.6695C49.3621 35.4329 49.5905 35.3171 49.9407 35.2127C50.3711 35.2498 50.7385 35.3176 51.1479 35.4541C51.3158 35.9576 51.3624 36.3781 51.2687 36.9029C50.866 37.5262 50.2975 37.9914 49.7021 38.422C48.1561 39.5473 46.4553 40.8821 46.1281 42.8627C45.9112 44.928 46.0849 47.0403 46.3188 49.0963C46.6063 49.2327 46.894 49.3686 47.1819 49.5043C47.2625 49.5426 47.3432 49.581 47.4263 49.6205C49.307 50.5044 51.5086 50.6105 53.496 49.9872C54.9619 49.4179 56.0904 48.653 57.1843 47.5269C57.2586 47.4509 57.3328 47.375 57.4093 47.2967C59.1074 45.4362 59.4564 43.1626 59.3785 40.7456C59.2456 38.5941 58.0316 36.7312 56.5203 35.2655C55.9322 34.7462 55.2826 34.3831 54.5821 34.0379C54.1745 33.8282 53.9524 33.6819 53.6804 33.3022C53.5368 32.8354 53.5736 32.5378 53.6606 32.0587C53.9913 29.9963 53.756 27.9195 52.5872 26.1378C51.0992 24.1007 49.2737 22.9219 46.789 22.4735C45.1654 22.2732 43.5225 22.5867 42.0934 23.3814ZM29.6584 44.5087C29.4992 44.7175 29.3441 44.9295 29.1906 45.1425C26.5991 48.6517 22.8685 50.9446 18.5515 51.6316C18.0137 51.6914 18.0137 51.6914 17.4649 51.7523C17.4649 54.3021 17.4649 56.8519 17.4649 59.4789C21.5286 59.4789 25.5923 59.4789 29.7792 59.4789C29.7792 54.5387 29.7792 49.5986 29.7792 44.5087C29.7393 44.5087 29.6995 44.5087 29.6584 44.5087ZM32.1937 49.5792C32.1937 52.8461 32.1937 56.113 32.1937 59.4789C36.0184 59.4789 39.843 59.4789 43.7836 59.4789C43.7836 57.0088 43.7836 54.5387 43.7836 51.9938C42.7676 52.2926 42.7676 52.2926 41.7312 52.5974C38.7708 53.0908 36.0743 52.5086 33.6349 50.7714C33.1345 50.3935 32.6719 49.9891 32.1937 49.5792Z" fill="#B59253"/>
</svg>
