<svg width="71" height="19" viewBox="0 0 71 19" fill="none" xmlns="http://www.w3.org/2000/svg">
<path d="M22.0625 4.28173C12.9384 7.43192 3.39493 13.0237 0.858418 17.4456C0.0936503 19.4298 3.50134 17.8834 4.8785 16.7109C10.821 11.6514 14.3515 9.81618 20.9231 7.30582C35.91 1.5808 51.5208 0.604894 62.0047 8.93764C62.8731 9.8787 62.5525 10.1256 60.2989 10.0903C58.3237 10.109 57.7399 10.3975 58.1394 11.2168C58.8053 12.5821 60.2694 12.7425 66.5006 12.3439C70.1425 12.0612 70.6385 11.7865 70.3961 10.256C69.987 7.67336 65.4935 2.0115 64.3412 2.68429C63.8452 2.95895 63.6913 4.25804 63.976 5.48767C64.2606 6.71729 64.2922 7.48403 63.5742 6.9241C52.634 -0.266114 36.8599 -0.827204 22.0625 4.28173Z" fill="#D2AE6D"/>
</svg>
