<svg width="31" height="40" viewBox="0 0 31 40" fill="none" xmlns="http://www.w3.org/2000/svg">
<path d="M15.6308 0.000179291C13.5573 0.000179291 11.6018 0.384052 9.76449 1.15179C7.92716 1.91954 6.31949 2.97518 4.94149 4.31873C3.56349 5.66228 2.48078 7.22976 1.69335 9.02115C0.905921 10.8126 0.512207 12.7191 0.512207 14.7408C0.512207 17.4535 1.24714 20.2302 2.71701 23.0708C4.16062 25.8859 5.77485 28.4578 7.55969 30.7867C9.34453 33.1155 10.9981 35.0476 12.5205 36.5831C14.0691 38.1186 14.909 38.9503 15.0403 39.0783C15.119 39.155 15.2109 39.2126 15.3159 39.251C15.4208 39.2894 15.5258 39.3086 15.6308 39.3086C15.7358 39.3086 15.8408 39.2894 15.9458 39.251C16.0508 39.2126 16.1427 39.155 16.2214 39.0783C16.3526 38.9503 17.1926 38.1186 18.7412 36.5831C20.2635 35.0476 21.9171 33.1155 23.702 30.7867C25.4868 28.4578 27.101 25.8859 28.5447 23.0708C30.0145 20.2302 30.7495 17.4535 30.7495 14.7408C30.7495 12.7191 30.3557 10.8126 29.5683 9.02115C28.7809 7.22976 27.6982 5.66228 26.3202 4.31873C24.9422 2.97518 23.3345 1.91954 21.4972 1.15179C19.6598 0.384052 17.7044 0.000179291 15.6308 0.000179291ZM15.6308 22.9173C14.4759 22.9173 13.3867 22.7126 12.363 22.3031C11.3393 21.868 10.4469 21.2794 9.68575 20.5373C8.92457 19.7951 8.32087 18.925 7.87466 17.927C7.4547 16.9289 7.24472 15.8669 7.24472 14.7408C7.24472 13.6148 7.4547 12.5528 7.87466 11.5547C8.32087 10.5566 8.92457 9.68653 9.68575 8.94438C10.4469 8.20223 11.3393 7.61362 12.363 7.17857C13.3867 6.76911 14.4759 6.56438 15.6308 6.56438C16.7857 6.56438 17.875 6.76911 18.8987 7.17857C19.9223 7.61362 20.8147 8.20223 21.5759 8.94438C22.3371 9.68653 22.9408 10.5566 23.387 11.5547C23.807 12.5528 24.0169 13.6148 24.0169 14.7408C24.0169 15.8669 23.807 16.9289 23.387 17.927C22.9408 18.925 22.3371 19.7951 21.5759 20.5373C20.8147 21.2794 19.9223 21.868 18.8987 22.3031C17.875 22.7126 16.7857 22.9173 15.6308 22.9173Z" fill="#1B453C"/>
</svg>
