<svg width="32" height="32" viewBox="0 0 32 32" fill="none" xmlns="http://www.w3.org/2000/svg">
<g clip-path="url(#clip0_1_311)">
<path d="M31.16 11.8911C31.2634 11.7877 31.3874 11.7722 31.5321 11.8446C31.6768 11.9169 31.7491 12.0254 31.7491 12.1701V24.8512C31.7491 25.678 31.4597 26.3807 30.881 26.9595C30.3022 27.5383 29.5994 27.8276 28.7726 27.8276H2.97648C2.14968 27.8276 1.4469 27.5383 0.86814 26.9595C0.28938 26.3807 0 25.678 0 24.8512V12.1701C0 12.0254 0.0671775 11.9169 0.201532 11.8446C0.335887 11.7722 0.465075 11.7877 0.589095 11.8911C1.29187 12.4285 2.2737 13.1623 3.53457 14.0924C4.79544 15.0226 7.00713 16.6348 10.1696 18.9292C10.8104 19.4046 11.6475 20.0195 12.681 20.774C13.7145 21.5285 14.779 21.8953 15.8746 21.8747C16.9907 21.8953 18.0656 21.5233 19.0991 20.7585C20.1326 19.9937 20.9697 19.3839 21.6105 18.9292C24.773 16.6348 26.9795 15.0226 28.23 14.0924C29.4806 13.1623 30.4572 12.4285 31.16 11.8911ZM15.8746 19.8904C15.1511 19.911 14.3398 19.5803 13.4407 18.8982C12.5415 18.2161 11.8336 17.689 11.3168 17.3169C7.20349 14.3405 4.61974 12.4543 3.56557 11.6585C2.5114 10.8627 1.50891 10.0928 0.55809 9.34866C0.39273 9.20397 0.258375 9.02828 0.155025 8.82158C0.051675 8.61488 0 8.39784 0 8.17048V6.99228C0 6.16549 0.28938 5.46271 0.86814 4.88395C1.4469 4.30519 2.14968 4.01581 2.97648 4.01581H28.7726C29.5994 4.01581 30.3022 4.30519 30.881 4.88395C31.4597 5.46271 31.7491 6.16549 31.7491 6.99228V8.17048C31.7491 8.39784 31.6974 8.61488 31.5941 8.82158C31.4907 9.02828 31.3564 9.20397 31.191 9.34866C30.2402 10.0928 29.2377 10.8627 28.1835 11.6585C27.1294 12.4543 24.5456 14.3405 20.4323 17.3169C19.9155 17.689 19.2076 18.2161 18.3084 18.8982C17.4093 19.5803 16.598 19.911 15.8746 19.8904Z" fill="#1B453C"/>
</g>
<defs>
<clipPath id="clip0_1_311">
<rect width="31.7491" height="31.7491" fill="white" transform="matrix(1 0 0 -1 0 31.7964)"/>
</clipPath>
</defs>
</svg>
