<svg width="165" height="165" viewBox="0 0 165 165" fill="none" xmlns="http://www.w3.org/2000/svg">
<path d="M81.0176 4.06055C79.4062 4.83398 79.2773 5.51074 79.2773 12.8906V19.6582L80.1797 20.6572C80.9531 21.4951 81.3398 21.6885 82.5 21.6885C83.6602 21.6885 84.0469 21.4951 84.8203 20.6572L85.7227 19.6582V12.6328C85.7227 5.92969 85.6904 5.5752 85.0459 4.86621C84.3691 4.15723 83.1445 3.54492 82.4033 3.54492C82.1777 3.54492 81.5654 3.77051 81.0176 4.06055Z" fill="#2D6B5E"/>
<path d="M38.9297 21.4952C37.8984 22.1397 37.3828 23.171 37.3828 24.5567C37.3828 25.4268 38.0273 26.2325 41.9912 30.2286C44.5049 32.7745 46.9863 35.0626 47.502 35.3526C49.9512 36.6417 52.7871 34.1602 51.917 31.4854C51.5625 30.4219 43.377 22.0108 41.9912 21.3018C41.0244 20.8184 39.9609 20.8829 38.9297 21.4952Z" fill="#2D6B5E"/>
<path d="M118.239 25.6845C112.857 30.9697 112.277 31.9365 113.276 33.8056C113.985 35.2236 115.693 35.9326 117.111 35.4492C117.788 35.2236 119.851 33.3867 122.88 30.3252C126.908 26.2646 127.617 25.3945 127.617 24.5566C127.617 22.3652 126.199 20.9472 124.04 20.9472C123.17 20.9472 122.364 21.5918 118.239 25.6845Z" fill="#2D6B5E"/>
<path d="M77.2469 33.5156C68.5135 34.9014 60.9403 38.8652 54.9139 45.1494C44.9559 55.5908 41.6366 70.125 46.1161 83.6279C47.5018 87.7207 49.6288 91.5879 52.9481 95.9707C58.2655 103.028 60.8114 107.604 63.0028 114.211C64.6463 119.142 65.452 123.589 65.742 129.583C65.9999 135.094 66.1288 135.706 67.3534 136.802C68.0301 137.414 68.5457 137.446 82.3387 137.446C97.743 137.446 97.8075 137.446 98.6131 135.706C98.8709 135.223 99.1288 132.645 99.2899 129.712C99.9022 116.918 103.479 107.669 112.438 95.5518C115.468 91.4268 118.239 86.0771 119.367 82.1455C125.426 60.9404 112.567 39.252 90.911 34.1279C87.7528 33.3545 80.2762 33.0322 77.2469 33.5156ZM90.7176 40.9277C101.546 43.8926 110.021 52.3359 113.18 63.3574C113.824 65.5488 113.921 66.6445 113.921 71.3818C113.921 76.0869 113.824 77.2471 113.18 79.5996C112.084 83.5957 110.021 87.624 106.702 92.1035C102.094 98.3232 99.3543 103.061 97.034 108.829C94.5848 114.855 93.3602 120.012 92.7479 126.554L92.3612 130.84H82.4999H72.6385L72.2518 126.554C71.5428 118.723 69.577 111.439 66.2577 104.575C64.2274 100.321 62.6483 97.8076 58.5233 92.2969C55.0428 87.6885 53.3348 84.4336 52.0135 80.083C51.2079 77.4404 51.1112 76.6992 51.1112 71.7041C51.0789 66.9023 51.1756 65.9033 51.8202 63.6475C55.2362 51.8203 64.6141 42.958 76.3768 40.4443C79.5995 39.7354 87.3983 39.9932 90.7176 40.9277Z" fill="#2D6B5E"/>
<path d="M21.1728 63.6797C20.7216 64.1309 20.2382 64.9043 20.1415 65.4199C19.8837 66.6445 20.7216 68.4492 21.7851 68.9326C22.3007 69.1582 24.9755 69.2871 29.3261 69.2871H36.0937L37.0927 68.3848C37.9306 67.6113 38.1239 67.2246 38.1239 66.0645C38.1239 64.9043 37.9306 64.5176 37.0927 63.7441L36.0937 62.8418H29.036H22.0106L21.1728 63.6797Z" fill="#2D6B5E"/>
<path d="M128.294 63.3574C127.875 63.6475 127.359 64.3887 127.102 64.9688C126.715 65.9033 126.715 66.2256 127.102 67.1602C127.972 69.2227 128.262 69.2871 136.028 69.2871H142.989L143.827 68.4492C144.278 67.998 144.762 67.2246 144.858 66.709C145.116 65.4844 144.278 63.6797 143.215 63.1963C142.699 62.9707 140.024 62.8418 135.738 62.8418C130.066 62.8418 128.938 62.9385 128.294 63.3574Z" fill="#2D6B5E"/>
<path d="M67.8369 142.409C65.1943 143.537 65.291 147.533 67.998 148.468C69.5771 149.016 95.4228 149.016 97.0019 148.468C97.8076 148.21 98.291 147.727 98.7099 146.889C99.4511 145.406 99.2255 144.117 98.0976 143.054L97.2597 142.28L82.8867 142.216C74.9589 142.184 68.1914 142.28 67.8369 142.409Z" fill="#2D6B5E"/>
<path d="M73.2508 154.913C72.8641 154.978 72.1551 155.493 71.7039 156.009C70.576 157.362 70.6404 158.877 71.8328 160.23L72.7674 161.294H82.4998H92.2322L93.1668 160.23C94.4236 158.812 94.4236 157.33 93.1668 155.912L92.2322 154.849L83.0799 154.816C78.0848 154.784 73.6375 154.816 73.2508 154.913Z" fill="#2D6B5E"/>
</svg>
