<svg width="34" height="34" viewBox="0 0 34 34" fill="none" xmlns="http://www.w3.org/2000/svg">
<path d="M16.6275 1.14705e-05C16.6694 3.71607e-05 16.7113 6.28508e-05 16.7544 8.9319e-05C17.4066 0.00117276 18.0517 0.0157402 18.7001 0.0930148C18.7704 0.101236 18.7704 0.101236 18.842 0.109623C19.5666 0.197419 20.271 0.339614 20.9785 0.518173C21.0348 0.531782 21.0912 0.545352 21.1476 0.558862C23.524 1.15618 25.7776 2.35774 27.6513 3.93914C27.7216 3.99818 27.7927 4.05618 27.8641 4.11391C28.2245 4.40996 28.5522 4.73987 28.8815 5.07002C28.9051 5.09361 28.9287 5.1172 28.9531 5.1415C29.2546 5.44317 29.5324 5.75184 29.7965 6.08774C29.8329 6.13144 29.8696 6.17495 29.9066 6.21811C31.6022 8.21051 32.7363 10.7521 33.1931 13.3258C33.2119 13.4309 33.2317 13.5358 33.2519 13.6406C33.6355 15.6911 33.4705 17.8954 32.982 19.908C32.9705 19.9558 32.959 20.0035 32.9472 20.0527C32.7833 20.6997 32.7833 20.6997 32.6233 20.9683C32.5456 21.0104 32.5456 21.0104 32.4546 21.0108C32.3541 20.9685 32.3541 20.9685 32.2411 20.9008C32.1985 20.8757 32.1558 20.8505 32.1119 20.8245C32.0426 20.7826 32.0426 20.7826 31.972 20.7398C31.9233 20.7107 31.8745 20.6818 31.8257 20.6528C31.7224 20.5915 31.6194 20.5299 31.5164 20.4681C31.3599 20.3743 31.2029 20.2815 31.0456 20.189C30.7414 20.0101 30.4376 19.8303 30.134 19.6503C30.0909 19.6247 30.0478 19.5992 30.0034 19.5728C29.5611 19.3104 29.1198 19.0461 28.68 18.7795C28.42 18.6221 28.1591 18.4663 27.8979 18.311C27.4921 18.0699 27.0879 17.8263 26.6843 17.5815C26.5979 17.5293 26.5114 17.4773 26.4248 17.4255C25.9966 17.1689 25.5757 16.9012 25.1554 16.6317C25.2166 16.2134 25.5535 15.8665 25.8008 15.5379C25.9557 15.3315 26.1061 15.1225 26.2524 14.9098C26.2712 14.8828 26.2899 14.8559 26.3092 14.8281C26.8087 14.0955 26.8156 13.3808 26.6704 12.5276C26.4635 11.4051 26.1295 9.97967 25.149 9.29875C25.119 9.27823 25.0889 9.25771 25.0579 9.23657C24.8221 9.07242 24.593 8.90498 24.3711 8.72206C24.1861 8.57042 23.996 8.42545 23.8066 8.27957C23.7095 8.20471 23.6125 8.12965 23.5156 8.0546C22.8339 7.52787 22.146 7.01895 21.4251 6.5477C20.0753 5.65619 19.6848 4.27232 19.362 2.75291C19.3548 2.71894 19.3475 2.68496 19.3401 2.64996C19.3097 2.50214 19.2908 2.37043 19.2908 2.21881C19.2626 2.21672 19.2344 2.21464 19.2053 2.21249C18.8297 2.18303 18.8297 2.18303 18.645 2.15547C18.0735 2.07187 17.5001 2.07827 16.9239 2.08017C16.7762 2.08066 16.6286 2.08037 16.481 2.07988C15.6811 2.07763 14.8915 2.09972 14.1039 2.25335C14.0656 2.26065 14.0273 2.26796 13.9878 2.27548C12.0026 2.66229 9.371 3.4141 7.89911 4.8973C7.91234 5.06453 7.96873 5.16407 8.06787 5.29589C8.63851 6.09271 9.3931 7.28697 9.23407 8.31119C9.13126 8.76201 8.80219 9.05261 8.42584 9.29312C7.96434 9.56936 7.4598 9.77723 6.97089 9.9992C6.30079 10.2736 6.30079 10.2736 5.78953 10.7645C5.58917 11.3804 5.64488 12.1195 5.6366 12.7597C5.63483 12.8665 5.63223 12.9732 5.62881 13.0799C5.57748 13.6838 5.57748 13.6838 5.75152 14.2404C5.85726 14.3473 5.95959 14.4242 6.08487 14.5059C6.15655 14.5753 6.2271 14.646 6.29583 14.7185C6.32041 14.7433 6.345 14.7682 6.37032 14.7939C6.52228 14.9591 6.5995 15.0786 6.59117 15.3137C6.39851 15.8379 5.75709 16.1283 5.30531 16.3972C5.18283 16.4713 5.062 16.5478 4.94092 16.6242C4.63561 16.8138 4.32162 16.9843 4.0043 17.1525C3.94532 17.1839 3.88634 17.2153 3.82736 17.2467C3.45825 17.4429 3.08762 17.6358 2.71482 17.8248C2.65133 17.8571 2.65133 17.8571 2.58655 17.89C2.54806 17.9093 2.50957 17.9286 2.46992 17.9485C2.41984 17.9737 2.41984 17.9737 2.36874 17.9993C2.28764 18.0347 2.28764 18.0347 2.20325 18.0347C2.494 19.5733 2.91655 21.1035 3.63776 22.4988C3.74916 22.3604 3.82447 22.2156 3.90179 22.0556C3.92825 22.0013 3.95471 21.947 3.98119 21.8927C3.99486 21.8645 4.00854 21.8363 4.02263 21.8073C4.25439 21.3308 4.4873 20.8597 4.77693 20.4156C4.79496 20.3879 4.81299 20.3602 4.83157 20.3317C4.96397 20.1299 5.10038 19.9314 5.24104 19.7353C5.25802 19.7116 5.27501 19.6879 5.2925 19.6634C5.49473 19.3855 5.68204 19.1874 6.00049 19.0551C6.04307 19.0364 6.04307 19.0364 6.08652 19.0174C6.70383 18.7786 7.72795 18.7008 8.34657 18.9765C8.62459 19.1333 8.84931 19.3469 9.08047 19.5653C9.13914 19.6169 9.19801 19.6683 9.25715 19.7194C9.36 19.8093 9.4561 19.9016 9.54985 20.001C10.2467 20.7113 11.2358 21.3629 12.2376 21.4562C12.2735 21.4596 12.3095 21.4629 12.3466 21.4664C12.4181 21.4726 12.4897 21.4779 12.5614 21.4823C12.721 21.495 12.8106 21.5021 12.941 21.6009C13.037 21.7376 13.0465 21.8196 13.0465 21.9887C12.9015 22.6236 12.54 23.1601 12.0761 23.6043C12.0539 23.6284 12.0318 23.6526 12.009 23.6775C11.429 24.299 10.7213 24.6141 9.91694 24.8318C9.61028 24.9172 9.3953 25.0379 9.20704 25.3049C9.03099 25.6597 9.22746 26.1262 9.34112 26.4765C9.37841 26.5881 9.41686 26.6993 9.45558 26.8104C9.46901 26.8494 9.48244 26.8885 9.49628 26.9287C9.52248 27.0044 9.54928 27.0799 9.57681 27.1551C9.66251 27.4012 9.71012 27.637 9.67115 27.8984C9.54435 28.0787 9.41712 28.1418 9.20704 28.196C9.20704 28.224 9.20704 28.2521 9.20704 28.281C9.24301 28.2923 9.27897 28.3036 9.31602 28.3152C9.46398 28.3674 9.60066 28.43 9.74169 28.4989C9.79667 28.5255 9.85166 28.5521 9.90666 28.5787C9.94963 28.5995 9.94963 28.5995 9.99346 28.6207C12.1465 29.6589 14.3223 30.1194 16.6985 30.2077C16.7323 30.2091 16.7662 30.2104 16.8011 30.2119C16.8644 30.2144 16.9278 30.2166 16.9911 30.2185C17.2827 30.2304 17.2827 30.2304 17.3922 30.3218C17.4333 30.4339 17.4333 30.4339 17.4611 30.5755C17.4768 30.6528 17.4768 30.6528 17.4929 30.7316C17.5032 30.7858 17.5135 30.8399 17.524 30.8957C17.5346 30.9485 17.5453 31.0014 17.5562 31.0558C17.5769 31.1596 17.5973 31.2635 17.6174 31.3675C17.6486 31.5289 17.6815 31.69 17.715 31.851C17.7345 31.9656 17.7358 32.0766 17.7297 32.1924C17.6093 32.2329 17.5335 32.2406 17.4085 32.2411C17.3493 32.2415 17.3493 32.2415 17.2888 32.242C17.2246 32.242 17.2246 32.242 17.159 32.2421C17.1143 32.2422 17.0697 32.2424 17.0237 32.2425C16.9287 32.2427 16.8337 32.2428 16.7386 32.2428C16.5962 32.2429 16.4539 32.2437 16.3114 32.2445C15.7521 32.246 15.2046 32.2212 14.6497 32.1499C14.5981 32.1435 14.5465 32.1371 14.4932 32.1304C12.4535 31.8624 10.4781 31.2504 8.65855 30.2792C8.62602 30.2619 8.59348 30.2446 8.55996 30.2268C8.05558 29.9571 7.57067 29.6658 7.09747 29.3439C7.05967 29.3183 7.02187 29.2927 6.98292 29.2663C6.87925 29.1945 6.77721 29.1209 6.67555 29.0463C6.65128 29.0285 6.627 29.0107 6.60199 28.9924C6.18836 28.6882 5.79264 28.3685 5.40981 28.0259C5.37923 27.9988 5.34866 27.9717 5.31715 27.9438C5.04453 27.7 4.7839 27.4456 4.52627 27.186C4.45801 27.1173 4.38943 27.0489 4.32082 26.9806C4.04588 26.705 3.79436 26.4194 3.55338 26.1127C3.51397 26.065 3.47435 26.0176 3.43439 25.9704C3.21925 25.715 3.0226 25.4544 2.83613 25.1773C2.80866 25.1384 2.78119 25.0995 2.7529 25.0594C2.30472 24.4217 1.89984 23.7592 1.57038 23.0515C1.5457 22.9998 1.52097 22.948 1.49622 22.8963C1.42029 22.7364 1.34716 22.5754 1.27504 22.4138C1.262 22.3848 1.24896 22.3557 1.23553 22.3258C0.483815 20.6366 0.00315375 18.7877 0.00220791 16.9329C0.00207176 16.8689 0.00192914 16.8049 0.00178173 16.7409C0.00153103 16.6075 0.00145137 16.4741 0.00147657 16.3407C0.00147999 16.2056 0.00118776 16.0706 0.000611313 15.9355C-0.00310554 15.0504 0.00459265 14.1862 0.185972 13.3154C0.195014 13.2713 0.204056 13.2272 0.213371 13.1817C0.703217 10.8472 1.63371 8.62054 3.08927 6.72548C3.10862 6.69998 3.12797 6.67447 3.14791 6.64819C3.36742 6.35898 3.59217 6.07806 3.83751 5.81039C3.88995 5.75263 3.94207 5.69454 3.99256 5.63505C4.20323 5.38701 4.42889 5.15507 4.65786 4.92438C4.72371 4.85793 4.78922 4.79114 4.85473 4.72433C5.12451 4.45097 5.40511 4.20185 5.70515 3.96195C5.74851 3.92525 5.79169 3.88833 5.83452 3.85101C6.43729 3.33011 7.09588 2.89036 7.77253 2.4739C7.80181 2.45567 7.83108 2.43744 7.86124 2.41866C10.486 0.788307 13.5585 -0.00347613 16.6275 1.14705e-05ZM29.2111 9.73879C29.1835 9.75582 29.1558 9.77285 29.1274 9.7904C28.2467 10.3251 28.2467 10.3251 27.7581 11.1976C27.5794 12.1861 27.9184 13.4041 28.4093 14.2629C28.6632 14.6326 28.9852 14.9304 29.3332 15.2082C30.2452 15.9731 30.7821 16.9105 31.1466 18.0347C31.2906 17.817 31.2828 17.568 31.2963 17.3122C31.298 17.2792 31.2998 17.2461 31.3016 17.212C31.3222 16.7902 31.3256 16.3683 31.3259 15.9461C31.326 15.9041 31.3261 15.8622 31.3261 15.819C31.3259 15.1878 31.3027 14.5753 31.1888 13.9532C31.1836 13.923 31.1785 13.8927 31.1731 13.8616C31.1415 13.6782 31.1037 13.4968 31.0622 13.3154C31.0511 13.2656 31.0401 13.2158 31.0286 13.1645C30.8474 12.3933 30.6236 11.6165 30.3028 10.892C30.2852 10.8522 30.2676 10.8124 30.2495 10.7713C29.983 10.1608 29.983 10.1608 29.6699 9.57404C29.4737 9.57404 29.3717 9.63808 29.2111 9.73879Z" fill="#1B453C"/>
<path d="M16.2502 13.4857C16.3571 13.541 16.4569 13.5977 16.5587 13.6611C16.5894 13.6798 16.6201 13.6984 16.6518 13.7177C16.7201 13.7592 16.7884 13.801 16.8565 13.8428C17.0582 13.9666 17.2608 14.0887 17.4632 14.2112C17.5072 14.2379 17.5512 14.2645 17.5966 14.292C17.9497 14.5058 18.3047 14.7164 18.6604 14.926C19.0417 15.1507 19.4223 15.3762 19.8004 15.6064C20.2611 15.8868 20.723 16.1651 21.1866 16.4406C21.5921 16.6816 21.9961 16.925 22.3995 17.1695C22.5666 17.2708 22.7338 17.3718 22.901 17.4729C23.028 17.5497 23.155 17.6265 23.2818 17.7034C23.5556 17.8695 23.8301 18.0341 24.1057 18.197C24.542 18.4549 24.9753 18.7179 25.4087 18.9808C25.7347 19.1785 26.0616 19.3743 26.3898 19.5683C26.6208 19.705 26.8507 19.8435 27.0802 19.9827C27.3835 20.1666 27.6877 20.3489 27.9926 20.5301C28.3549 20.7454 28.7161 20.9624 29.0764 21.1811C29.4016 21.3785 29.7273 21.5748 30.0547 21.7684C30.4284 21.9892 30.7998 22.2139 31.171 22.4389C31.3183 22.5282 31.4657 22.6173 31.6132 22.7064C31.6643 22.7373 31.7153 22.7681 31.7664 22.799C31.8116 22.8263 31.8567 22.8536 31.9032 22.8817C32.1142 23.0093 32.1142 23.0093 32.2134 23.0694C32.3001 23.1217 32.3869 23.1737 32.4738 23.2255C32.7351 23.3817 32.9951 23.54 33.2507 23.7055C33.292 23.7321 33.3333 23.7588 33.3758 23.7862C33.405 23.8104 33.4342 23.8346 33.4643 23.8596C33.4643 23.9017 33.4643 23.9438 33.4643 23.9872C32.484 24.198 31.4997 24.3871 30.5153 24.5769C29.9483 24.6863 29.3815 24.7967 28.8147 24.9073C28.7003 24.9296 28.5858 24.9519 28.4713 24.9742C27.6342 25.1371 27.6342 25.1371 26.7981 25.3051C26.7981 25.4493 26.8195 25.4799 26.8988 25.5949C26.9207 25.627 26.9426 25.6591 26.9652 25.6922C26.9892 25.7267 27.0133 25.7612 27.038 25.7967C27.0627 25.8326 27.0874 25.8685 27.1128 25.9055C27.3036 26.1817 27.4987 26.4547 27.6952 26.7268C27.8424 26.931 27.986 27.1373 28.1271 27.3459C28.2907 27.5876 28.4579 27.8264 28.6281 28.0634C28.6513 28.0956 28.6744 28.1279 28.6983 28.1611C28.8099 28.3162 28.9219 28.4709 29.0347 28.625C29.332 29.0328 29.6148 29.4497 29.8939 29.8703C29.9119 29.8973 29.9299 29.9244 29.9484 29.9522C30.851 31.31 30.851 31.31 30.7641 31.9376C30.6937 32.2943 30.6086 32.6229 30.3843 32.9155C30.3591 32.9523 30.3339 32.9891 30.3079 33.0271C29.9735 33.3929 29.5566 33.5691 29.0683 33.6059C28.4449 33.6197 27.86 33.4296 27.3993 32.9952C27.1125 32.6902 26.8717 32.3459 26.6262 32.0072C26.5476 31.8988 26.4685 31.7908 26.3893 31.6828C26.2665 31.5154 26.144 31.3477 26.0218 31.1799C25.9586 31.0933 25.8953 31.0068 25.8319 30.9204C25.6312 30.6461 25.4338 30.3699 25.2396 30.0908C25.0519 29.8211 24.8587 29.5563 24.6615 29.2935C24.5269 29.1139 24.3956 28.9326 24.2666 28.7489C24.11 28.5265 23.9508 28.3061 23.7893 28.0873C23.7685 28.0589 23.7478 28.0305 23.7264 28.0013C23.607 27.8404 23.4831 27.6969 23.3384 27.5585C23.3286 27.5803 23.3189 27.6022 23.3089 27.6247C23.2335 27.7672 23.1415 27.8971 23.0498 28.0293C22.7816 28.4192 22.5205 28.8136 22.2598 29.2086C22.2115 29.2818 22.1632 29.3549 22.1149 29.428C22.0188 29.5734 21.9228 29.7188 21.8268 29.8641C21.659 30.1182 21.491 30.3721 21.323 30.626C21.2474 30.7402 21.1718 30.8545 21.0963 30.9687C20.993 31.1248 20.8897 31.2809 20.7864 31.4371C20.764 31.4709 20.7416 31.5048 20.7185 31.5398C20.6764 31.6033 20.6344 31.6668 20.5923 31.7304C20.5066 31.8598 20.4212 31.9893 20.3362 32.1191C20.1823 32.3539 20.0255 32.5866 19.8655 32.8172C19.8477 32.8432 19.8299 32.8693 19.8116 32.8962C19.6823 33.0806 19.6823 33.0806 19.5411 33.1281C19.5309 33.0789 19.5208 33.0298 19.5103 32.9791C19.4626 32.7489 19.4148 32.5186 19.3671 32.2884C19.3584 32.2466 19.3497 32.2048 19.3408 32.1617C19.2378 31.665 19.1337 31.1686 19.0269 30.6728C18.9306 30.2243 18.8428 29.7745 18.7574 29.3238C18.6828 28.931 18.6044 28.5391 18.524 28.1475C18.3866 27.4779 18.2523 26.8077 18.1196 26.1372C18.1112 26.0948 18.1029 26.0525 18.0942 26.0088C18.0168 25.6175 17.9394 25.2261 17.8622 24.8347C17.811 24.5753 17.7597 24.3159 17.7083 24.0566C17.7 24.0148 17.6917 23.973 17.6832 23.93C17.5652 23.3351 17.4438 22.7409 17.3165 22.1479C17.2356 21.7701 17.1632 21.3912 17.094 21.011C17.0001 20.4968 16.8965 19.9856 16.787 19.4745C16.7056 19.0932 16.6292 18.7113 16.5564 18.3283C16.4456 17.7455 16.3304 17.1637 16.2123 16.5824C16.1638 16.344 16.1158 16.1054 16.0676 15.8669C16.0265 15.6633 15.9851 15.4596 15.9434 15.2561C15.902 15.0546 15.8613 14.853 15.8209 14.6512C15.8056 14.5754 15.7901 14.4996 15.7744 14.4238C15.7528 14.3194 15.7318 14.2148 15.7111 14.1101C15.7045 14.0793 15.698 14.0486 15.6912 14.0169C15.6677 13.8948 15.653 13.8038 15.6912 13.6841C15.8505 13.4701 16.0019 13.4194 16.2502 13.4857Z" fill="#1B453C"/>
</svg>
