<svg width="78" height="78" viewBox="0 0 78 78" fill="none" xmlns="http://www.w3.org/2000/svg">
<g clip-path="url(#clip0_140_31)">
<path d="M62.3086 11.4259C65.2599 13.9935 66.5648 18.5709 66.8588 22.3329C66.9239 23.5199 66.8998 24.7105 66.8789 25.8985C67.0319 25.9411 67.1849 25.9838 67.3425 26.0277C71.3626 27.1884 74.4603 29.722 76.4956 33.3729C78.2225 36.5834 78.6013 40.7528 77.5727 44.2429C76.2345 48.2574 73.6766 51.3351 69.9258 53.2918C67.0896 54.6487 64.3403 54.7362 61.2613 54.7261C60.8948 54.726 60.5283 54.726 60.1618 54.7262C59.2742 54.7263 58.3866 54.725 57.499 54.723C56.4652 54.7209 55.4313 54.7204 54.3975 54.7201C52.5541 54.7194 50.7108 54.7174 48.8675 54.7145C47.0781 54.7117 45.2887 54.7095 43.4993 54.7082C43.3888 54.7082 43.2783 54.7081 43.1644 54.708C42.61 54.7076 42.0555 54.7072 41.501 54.7068C36.9095 54.7037 32.318 54.6982 27.7266 54.6915C27.7266 56.7024 27.7266 58.7134 27.7266 60.7852C28.5309 60.7852 29.3353 60.7852 30.1641 60.7852C31.0855 61.0801 31.5411 61.4279 32.0059 62.2771C32.3278 63.0578 32.3983 63.7929 32.1445 64.6034C31.6692 65.6874 30.7601 66.4566 29.8748 67.2069C29.5238 67.5155 29.1971 67.8409 28.8691 68.1739C28.4535 68.5952 28.0335 68.9985 27.5837 69.3831C27.1047 69.793 26.6628 70.2271 26.2222 70.6781C24.5143 72.3911 22.8046 73.5794 20.3093 73.6202C18.3294 73.5958 16.6019 72.8635 15.2058 71.4588C15.0813 71.3273 14.9568 71.1957 14.8285 71.0601C14.5161 70.7331 14.198 70.4374 13.8538 70.1449C13.404 69.7603 12.984 69.357 12.5684 68.9356C12.162 68.5237 11.7526 68.1293 11.3115 67.755C10.7253 67.2494 10.169 66.7164 9.6167 66.1744C9.52956 66.0905 9.44241 66.0066 9.35263 65.9202C8.64138 65.2149 8.33643 64.6457 8.32178 63.6227C8.34175 62.6938 8.54637 62.1424 9.2162 61.4708C10.4197 60.4144 11.0735 60.7852 12.9492 60.7852C12.9492 58.7743 12.9492 56.7634 12.9492 54.6915C12.4465 54.6915 11.9437 54.6915 11.4258 54.6915C9.29508 54.4221 6.53985 53.7129 4.98926 52.1112C4.72266 51.6446 4.72266 51.6446 4.72266 51.0829C4.94967 50.3309 4.94967 50.3309 5.33203 50.1212C6.28289 50.044 6.75136 50.1618 7.56958 50.6925C9.26026 51.7283 11.003 52.0494 12.9492 52.254C12.9444 52.1574 12.9396 52.0609 12.9347 51.9614C12.7746 48.2409 12.7746 48.2409 14.1025 46.6322C15.0933 45.6533 16.5257 45.3314 17.8751 45.3178C18.0956 45.3203 18.0956 45.3203 18.3205 45.323C18.5556 45.3226 18.5556 45.3226 18.7953 45.3223C19.1238 45.3225 19.4523 45.3243 19.7808 45.3275C20.2806 45.3319 20.7801 45.3306 21.2799 45.3286C21.6011 45.3296 21.9222 45.3308 22.2434 45.3325C22.391 45.332 22.5386 45.3316 22.6907 45.3311C24.1206 45.3507 25.3977 45.6733 26.4459 46.7036C27.579 47.945 27.7519 49.2264 27.7361 50.8543C27.7354 50.989 27.7347 51.1236 27.734 51.2623C27.7322 51.5929 27.7295 51.9234 27.7266 52.254C32.4037 52.245 37.0809 52.2336 41.7581 52.2191C42.3112 52.2174 42.8643 52.2157 43.4175 52.214C43.5827 52.2135 43.5827 52.2135 43.7512 52.213C45.5302 52.2076 47.3093 52.2038 49.0884 52.2006C50.9162 52.1973 52.7439 52.1923 54.5716 52.1856C55.5973 52.182 56.6229 52.1791 57.6486 52.1782C58.6153 52.1773 59.582 52.1742 60.5487 52.1696C60.9022 52.1682 61.2558 52.1677 61.6093 52.1679C65.6066 52.17 69.1273 51.4843 72.0961 48.5793C74.4998 46.0664 75.5142 43.0637 75.4815 39.6403C75.3982 36.7627 74.3101 34.12 72.3633 31.9923C72.2284 31.8365 72.2284 31.8365 72.0907 31.6775C70.2366 29.6616 67.6358 28.6175 64.9859 28.1587C64.5938 28.0313 64.5938 28.0313 64.3081 27.7945C64.0527 27.2394 64.1291 26.719 64.1843 26.127C64.2025 25.8783 64.2204 25.6296 64.2379 25.3808C64.247 25.2601 64.2561 25.1393 64.2654 25.015C64.552 20.9537 63.4028 16.7191 60.8209 13.5332C60.6141 13.2262 60.5257 13.0116 60.4805 12.6446C60.8747 11.537 61.1178 11.3048 62.3086 11.4259ZM15.5899 48.7691C15.3254 49.3394 15.3232 49.8541 15.3281 50.4702C15.3273 50.5954 15.3265 50.7206 15.3256 50.8496C15.3241 51.1205 15.3237 51.3915 15.3242 51.6625C15.3248 52.0916 15.3227 52.5205 15.3198 52.9496C15.3142 53.8603 15.3121 54.771 15.3105 55.6817C15.3087 56.7372 15.3054 57.7927 15.2984 58.8482C15.2963 59.2706 15.2969 59.6929 15.2977 60.1153C15.2962 60.3746 15.2947 60.6339 15.293 60.8933C15.2939 61.0104 15.2949 61.1276 15.2958 61.2483C15.288 61.9318 15.2023 62.3754 14.7773 62.9181C14.3939 63.1098 14.1051 63.1021 13.6764 63.1186C13.5193 63.125 13.3622 63.1314 13.2003 63.1379C13.0358 63.1439 12.8712 63.1499 12.7017 63.1561C12.5359 63.1627 12.3702 63.1693 12.1994 63.176C11.7892 63.1922 11.379 63.2078 10.9688 63.2227C10.8516 63.4998 10.8516 63.4998 10.8164 63.8321C10.9863 64.1098 10.9863 64.1098 11.2586 64.354C11.3559 64.4497 11.4533 64.5454 11.5537 64.6441C11.7119 64.7936 11.7119 64.7936 11.8733 64.9461C11.9792 65.049 12.085 65.1518 12.1941 65.2577C12.7944 65.8372 13.4053 66.4014 14.043 66.9397C14.3792 67.2355 14.6913 67.5504 15.0059 67.8692C15.5259 68.3955 16.0586 68.8944 16.6221 69.3736C16.8087 69.534 16.9916 69.6989 17.1696 69.8687C18.0474 70.6891 19.0508 71.1638 20.2617 71.2208C22.554 71.1028 24.0861 69.3303 25.5949 67.7969C26.1399 67.243 26.6961 66.718 27.2898 66.2161C27.7603 65.8007 28.1931 65.3477 28.6329 64.9003C28.9453 64.5938 28.9453 64.5938 29.4023 64.232C29.7487 63.9959 29.7487 63.9959 29.8594 63.5274C29.4775 63.1455 29.3414 63.1815 28.8132 63.1704C28.592 63.1636 28.592 63.1636 28.3663 63.1567C28.1345 63.1517 28.1345 63.1517 27.8979 63.1466C27.5936 63.1399 27.2893 63.1321 26.9851 63.1228C26.8498 63.1199 26.7145 63.1171 26.5751 63.1141C26.1793 63.0676 25.9293 62.9783 25.5938 62.7657C25.3548 62.2878 25.4181 61.777 25.4174 61.2522C25.4166 61.1274 25.4158 61.0025 25.415 60.8738C25.4134 60.6021 25.4121 60.3304 25.4111 60.0586C25.4093 59.6283 25.4063 59.198 25.403 58.7677C25.3936 57.544 25.3853 56.3203 25.3803 55.0965C25.3771 54.3484 25.3717 53.6003 25.3649 52.8522C25.3628 52.5672 25.3614 52.2823 25.3609 51.9973C25.3602 51.598 25.3567 51.1987 25.3525 50.7994C25.353 50.6821 25.3534 50.5648 25.3539 50.4439C25.3427 49.716 25.2173 49.2161 24.832 48.5977C24.2325 48.0432 23.7747 47.8197 22.963 47.8091C22.8323 47.8071 22.7015 47.8052 22.5669 47.8031C22.4259 47.802 22.285 47.8009 22.1398 47.7997C21.9942 47.7985 21.8486 47.7973 21.6986 47.796C21.3902 47.7939 21.0819 47.7923 20.7735 47.7911C20.3037 47.7884 19.8341 47.7818 19.3643 47.775C19.0644 47.7735 18.7645 47.7722 18.4645 47.7712C18.3249 47.7685 18.1852 47.7658 18.0413 47.7631C17.0166 47.7665 16.2571 47.9185 15.5899 48.7691Z" fill="white"/>
<path d="M56.9766 6.85545C57.1245 6.93596 57.2723 7.01648 57.4247 7.09944C58.2516 7.57162 59.1167 8.0853 59.7188 8.83592C59.8286 9.42521 59.7994 9.72223 59.5569 10.2641C59.2277 10.5402 58.9537 10.6788 58.522 10.7188C57.7641 10.5918 57.1354 10.0303 56.5196 9.59764C53.0418 7.23774 48.4916 6.45912 44.3854 7.23962C41.436 7.86302 38.9006 9.07469 36.5625 10.9687C36.4553 11.0508 36.3481 11.1329 36.2376 11.2175C33.1084 13.7386 31.304 17.8421 30.783 21.7375C30.6919 22.3194 30.6239 22.5428 30.2783 23.042C29.7723 23.364 29.5364 23.3564 28.9453 23.3086C28.5645 23.158 28.5645 23.158 28.1836 22.9563C25.8016 21.8155 23.5373 21.9378 21.0645 22.67C18.9235 23.4359 17.1825 25.1208 16.1485 27.1172C15.6937 28.2511 15.3348 29.3968 15.1814 30.6133C15.0304 31.0881 14.8899 31.2516 14.4727 31.5351C13.9403 31.6221 13.4116 31.6191 12.8731 31.6208C9.86435 31.7003 7.48712 32.6298 5.31004 34.7474C3.15193 37.0335 2.50718 39.6712 2.54762 42.7169C2.60352 44.3786 3.17936 45.7738 3.94966 47.2361C4.14308 47.765 4.10682 48.0595 3.96096 48.5976C3.70226 48.9925 3.52191 49.0492 3.06594 49.188C2.47277 49.2117 2.29748 49.109 1.82815 48.75C1.58983 48.383 1.39632 48.0464 1.20925 47.655C1.1309 47.4915 1.1309 47.4915 1.05096 47.3247C-0.26257 44.4785 -0.505506 41.0529 0.397547 38.0353C1.79168 34.3581 4.17436 31.5909 7.76956 29.9546C9.48037 29.2664 11.1114 29.0152 12.9492 29.0976C12.9634 28.8573 12.9634 28.8573 12.9778 28.612C13.323 25.9931 15.0619 23.5833 17.0625 21.9375C19.7217 19.9861 22.8901 19.1796 26.146 19.6238C26.9646 19.7597 27.7116 19.9721 28.4883 20.2617C28.5058 20.0618 28.5233 19.8619 28.5413 19.6559C28.8881 16.5774 30.6201 13.5887 32.6016 11.2734C32.6661 11.1964 32.7307 11.1193 32.7972 11.0399C35.9695 7.27343 40.6152 4.92068 45.5105 4.44317C49.5803 4.14569 53.4056 4.88351 56.9766 6.85545Z" fill="white"/>
<path d="M51.3398 29.0977C53.1574 30.544 54.421 32.2547 54.8437 34.582C54.8864 35.0306 54.8947 35.4742 54.8913 35.9246C54.8905 36.0449 54.8896 36.1652 54.8887 36.2891C54.8419 38.5541 53.9291 40.4994 52.3604 42.1266C50.5642 43.7747 48.3932 44.4078 45.9941 44.3636C43.949 44.2553 42.0305 43.3701 40.5437 41.96C38.7358 39.9004 38.1154 37.7495 38.2182 35.0302C38.3579 32.9726 39.5041 31.0853 40.9805 29.707C43.8703 27.2775 48.1899 26.8815 51.3398 29.0977ZM42.051 32.1493C40.966 33.4209 40.558 34.8792 40.6175 36.5369C40.8127 38.153 41.599 39.6156 42.8562 40.6472C44.2621 41.6691 45.6537 42.0201 47.3789 41.8945C49.067 41.5936 50.5048 40.7054 51.4922 39.3047C52.4076 37.7781 52.6861 36.1652 52.3015 34.4083C51.7849 32.8672 50.7452 31.5136 49.3028 30.7294C46.687 29.5353 44.036 30.1054 42.051 32.1493Z" fill="white"/>
<path d="M36.4101 29.0976C36.7796 29.467 36.8193 29.6492 36.8671 30.164C36.7465 30.6706 36.6212 30.8767 36.2197 31.2113C35.6703 31.4361 35.4573 31.4026 34.8867 31.2304C34.4927 31.0456 34.1074 30.8503 33.7239 30.6448C32.5057 30.0498 30.8245 30.1385 29.5642 30.5639C27.963 31.2409 26.8382 32.3602 26.1668 33.9553C25.648 35.3946 25.7567 37.0008 26.2971 38.4179C27.0896 40.0342 28.3196 40.9921 30.0022 41.5707C31.4411 41.9462 32.8061 41.845 34.125 41.1327C34.3732 40.925 34.6146 40.7089 34.8486 40.4853C35.2969 40.0569 35.4433 39.9254 36.0673 39.7902C36.7068 39.9501 36.9531 40.1306 37.3242 40.6757C37.3614 41.3449 37.2016 41.7657 36.8005 42.2848C35.5918 43.5747 33.8475 44.2535 32.11 44.3629C29.5461 44.3983 27.3951 43.6654 25.5247 41.8706C24.5518 40.7844 23.7979 39.5118 23.4609 38.0859C23.4332 37.9729 23.4055 37.86 23.377 37.7437C23.0024 35.4473 23.3729 33.1706 24.6796 31.2304C27.5197 27.5962 32.4525 26.435 36.4101 29.0976Z" fill="white"/>
<path d="M61.7564 34.6107C62.726 35.1524 63.1762 35.8138 63.5274 36.8673C63.8119 38.7078 62.7116 40.1606 61.6993 41.5899C61.6174 41.7064 61.5355 41.8228 61.4511 41.9428C61.2816 42.1819 61.1099 42.4193 60.9375 42.6563C61.0827 42.6603 61.2278 42.6642 61.3773 42.6682C61.6639 42.6812 61.6639 42.6812 61.9563 42.6944C62.1455 42.7015 62.3346 42.7086 62.5294 42.7158C63.1437 42.8213 63.4066 42.9678 63.8321 43.4181C63.9332 43.7227 63.9332 43.7227 63.9273 44.0274C63.9293 44.128 63.9312 44.2285 63.9332 44.3321C63.7729 44.815 63.492 44.9725 63.0704 45.2462C62.6556 45.3075 62.3036 45.3354 61.8897 45.3325C61.7216 45.3339 61.7216 45.3339 61.55 45.3353C61.3139 45.3364 61.0778 45.3359 60.8417 45.334C60.4815 45.3319 60.1218 45.3371 59.7616 45.3429C59.5315 45.343 59.3014 45.3427 59.0713 45.342C58.9644 45.344 58.8574 45.346 58.7472 45.3481C58.1582 45.337 57.907 45.2592 57.4407 44.8879C57.1289 44.4845 57.1289 44.4845 57.054 44.028C57.138 43.515 57.2781 43.2297 57.5669 42.7992C57.6641 42.654 57.7614 42.5089 57.8615 42.3594C58.2121 41.8714 58.577 41.3963 58.9476 40.9234C59.4715 40.2526 59.9717 39.573 60.4329 38.8573C60.5846 38.6243 60.5846 38.6243 60.7394 38.3865C60.9731 37.8525 60.9349 37.5744 60.7852 37.0196C60.3509 36.9027 60.3509 36.9027 59.8711 36.8673C59.4303 37.1611 59.2224 37.6361 58.9571 38.086C58.6524 38.3907 58.6524 38.3907 58.0621 38.4574C57.5703 38.4412 57.4534 38.4057 57.0433 38.0955C56.7324 37.4334 56.7594 36.9511 56.9766 36.2579C57.9255 34.4613 59.9022 33.7344 61.7564 34.6107Z" fill="white"/>
</g>
<defs>
<clipPath id="clip0_140_31">
<rect width="78" height="78" fill="white"/>
</clipPath>
</defs>
</svg>
