<svg width="50" height="50" viewBox="0 0 22 22" fill="none" xmlns="http://www.w3.org/2000/svg">
<path d="M17.2304 3.1368C17.2717 3.16626 17.313 3.19573 17.3555 3.22609C18.0775 3.75502 18.7478 4.35815 19.2929 5.07039C19.3207 5.10643 19.3207 5.10643 19.349 5.14319C20.6378 6.82719 21.3331 8.85061 21.3286 10.9705C21.3286 11.0101 21.3286 11.0497 21.3286 11.0905C21.3271 11.7475 21.2834 12.3762 21.1406 13.0196C21.1328 13.0559 21.125 13.0921 21.1169 13.1295C20.9357 13.9461 20.6371 14.7345 20.2383 15.4688C20.2156 15.5115 20.2156 15.5115 20.1925 15.555C19.0068 17.7824 16.948 19.3968 14.5577 20.1519C12.457 20.7889 10.2399 20.6534 8.20516 19.8496C8.1677 19.8351 8.13024 19.8205 8.09165 19.8055C8.01105 19.7733 7.93171 19.7379 7.85285 19.7016C7.68009 19.6698 7.57746 19.7465 7.43626 19.8355C6.48978 20.387 5.29342 20.338 4.26328 20.0667C3.14913 19.7284 2.19739 18.9953 1.58982 18.004C1.5608 17.9571 1.53177 17.9102 1.50187 17.8618C1.07619 17.1385 0.858218 16.2924 0.730447 15.4688C0.723966 15.4271 0.717486 15.3853 0.710809 15.3423C0.697189 15.2264 0.691062 15.1128 0.687478 14.9962C0.68637 14.9661 0.685262 14.9359 0.684121 14.9049C0.627026 13.1539 1.14446 11.2932 2.27732 9.92586C2.39578 9.82056 2.43608 9.79886 2.5969 9.77547C2.86523 9.81313 3.00384 10.0565 3.17429 10.2535C3.7216 10.8586 4.46089 11.2358 5.15623 11.6446C6.01028 12.1472 6.82647 12.6534 7.56248 13.3204C7.5935 13.3478 7.62451 13.3752 7.65647 13.4035C8.37141 14.0722 8.90324 14.9983 9.15232 15.9415C9.16273 15.9792 9.17315 16.0169 9.18388 16.0558C9.39181 16.9648 9.19458 17.8616 8.72263 18.6485C8.61635 18.8123 8.50055 18.9684 8.37888 19.1212C8.43294 19.1371 8.487 19.1531 8.5427 19.1695C8.69267 19.2141 8.8417 19.2607 8.99018 19.31C9.4686 19.4676 9.94503 19.5931 10.4414 19.6798C10.4843 19.6874 10.4843 19.6874 10.5281 19.6952C12.3563 20.0051 14.3235 19.6168 15.9414 18.7345C15.967 18.7207 15.9927 18.707 16.0191 18.6929C16.6369 18.3613 17.1758 17.9476 17.7031 17.4884C17.7363 17.4604 17.7696 17.4325 17.8038 17.4038C18.0062 17.2325 18.1771 17.0465 18.3476 16.8438C18.3835 16.8031 18.4194 16.7624 18.4564 16.7205C19.6871 15.3168 20.537 13.3601 20.5478 11.4801C20.5482 11.4271 20.5482 11.4271 20.5487 11.373C20.5637 10.3197 20.5637 10.3197 20.4101 9.28133C20.3953 9.21828 20.3953 9.21828 20.3801 9.15395C20.2714 8.62022 20.2714 8.62022 20.0664 8.12117C19.9808 8.07088 19.9808 8.07088 19.8784 8.03255C19.5011 7.85334 19.2242 7.5389 18.9349 7.24501C18.9026 7.21232 18.8704 7.17962 18.8371 7.14594C18.7733 7.08109 18.7099 7.01589 18.6468 6.95031C18.4879 6.78789 18.3506 6.65424 18.1328 6.5743C18.0131 6.58308 18.0131 6.58308 17.9179 6.61726C17.8735 6.71145 17.8735 6.71145 17.875 6.83211C17.9579 6.92856 18.0339 7.0035 18.1301 7.08455C18.1559 7.1073 18.1818 7.13006 18.2084 7.1535C18.2829 7.21894 18.3581 7.28345 18.4336 7.34773C18.5487 7.44742 18.6635 7.54738 18.7773 7.64851C18.8086 7.67588 18.8398 7.70324 18.872 7.73143C19.3193 8.14679 19.5865 8.64948 19.6098 9.25984C19.5887 10.256 19.0427 11.1128 18.5387 11.939C18.5103 11.9857 18.4818 12.0325 18.4525 12.0807C18.4271 12.122 18.4018 12.1632 18.3756 12.2058C18.2209 12.4813 18.1473 12.7364 18.0989 13.045C18.0893 13.1032 18.0893 13.1032 18.0795 13.1626C18.0593 13.2858 18.0397 13.4092 18.02 13.5325C18.0065 13.6152 17.993 13.6979 17.9794 13.7805C17.8752 14.3758 17.8752 14.3758 17.8214 14.9769C17.8194 15.0268 17.8194 15.0268 17.8174 15.0778C17.816 15.112 17.8146 15.1462 17.8132 15.1815C17.7859 15.7386 17.7334 16.2979 17.3164 16.7149C16.9683 16.9736 16.7207 17.0469 16.2851 17.0157C16.0681 16.9447 15.9334 16.8199 15.8125 16.629C15.7512 16.5011 15.6924 16.3729 15.6371 16.2423C15.3955 15.8644 14.899 15.6724 14.5194 15.4615C13.8923 15.1071 13.2005 14.6882 12.9925 13.9557C12.9041 13.4414 13.1724 12.9944 13.4165 12.5635C13.5718 12.2934 13.5718 12.2934 13.5781 11.9884C13.4971 11.8454 13.4971 11.8454 13.4062 11.7305C13.3796 11.7379 13.3529 11.7452 13.3255 11.7527C13.2432 11.7752 13.1608 11.7975 13.0784 11.8197C12.9811 11.8464 12.8841 11.8743 12.7874 11.9033C11.8489 12.1753 10.7359 12.2663 9.83982 11.8165C9.26693 11.4614 8.93458 10.9352 8.77097 10.2884C8.72339 10.0342 8.70817 9.78365 8.70384 9.52571C8.70239 9.47262 8.70239 9.47262 8.70092 9.41845C8.70236 9.04184 8.84478 8.7399 9.09962 8.46609C9.34609 8.24167 9.63391 8.06654 9.91619 7.89088C9.94291 7.87413 9.96964 7.85737 9.99717 7.8401C10.072 7.79346 10.1472 7.74757 10.2225 7.70172C10.4284 7.55276 10.5613 7.37072 10.6938 7.15437C10.8622 6.89771 11.0502 6.71699 11.3437 6.61726C11.9658 6.49229 12.5374 6.70031 13.108 6.92743C13.47 7.06789 13.8081 7.14976 14.1808 7.00449C14.4039 6.8901 14.5142 6.71366 14.6094 6.48836C14.6094 6.46 14.6094 6.43164 14.6094 6.40242C14.5838 6.3886 14.5583 6.37478 14.532 6.36054C14.4142 6.29634 14.2969 6.23123 14.1797 6.16609C14.1194 6.13352 14.1194 6.13352 14.058 6.1003C13.6557 5.87526 13.3743 5.62612 13.1914 5.1993C12.913 5.16968 12.7261 5.24453 12.5039 5.41414C12.3913 5.53488 12.2972 5.66543 12.2031 5.80086C11.9777 6.12522 11.7456 6.36657 11.3437 6.44539C10.9317 6.49092 10.4918 6.3854 10.1633 6.12514C9.89079 5.84918 9.75251 5.54687 9.74046 5.1617C9.74756 4.82386 9.82824 4.57134 10.0622 4.32263C10.3548 4.06638 10.681 4.01359 11.053 3.96011C11.4285 3.90339 11.7951 3.79248 12.0742 3.52351C12.1992 3.29595 12.2286 3.08693 12.2488 2.83064C12.2543 2.76337 12.2602 2.69612 12.2664 2.62889C12.2687 2.59953 12.271 2.57017 12.2734 2.53991C12.2923 2.4304 12.331 2.3362 12.375 2.23445C11.7402 2.21641 11.1241 2.21721 10.4951 2.31233C10.4479 2.31944 10.4007 2.32654 10.3521 2.33386C10.0842 2.37786 9.83701 2.44214 9.58201 2.53523C9.58467 2.57689 9.58733 2.61854 9.59007 2.66145C9.58749 2.98106 9.47358 3.24382 9.25622 3.47601C9.02677 3.67581 8.76363 3.83263 8.50779 3.99617C8.1496 4.22609 7.98324 4.48969 7.86326 4.89851C7.84705 4.98515 7.8337 5.0719 7.82085 5.1591C7.73586 5.72984 7.53565 6.16635 7.06817 6.52881C6.42581 6.96172 5.6949 7.10817 4.93133 6.989C4.64934 6.92728 4.38825 6.81834 4.12498 6.7032C4.11394 6.72465 4.1029 6.74611 4.09152 6.76821C4.04116 6.86573 3.99042 6.96306 3.93968 7.06038C3.91363 7.11102 3.91363 7.11102 3.88706 7.16268C3.87002 7.19522 3.85299 7.22776 3.83544 7.26129C3.81992 7.29122 3.80439 7.32115 3.78839 7.35198C3.73544 7.43827 3.68877 7.49959 3.60935 7.56258C3.43528 7.57915 3.32049 7.5865 3.16087 7.51692C3.05869 7.39023 3.05751 7.29499 3.05076 7.13289C3.09011 6.99698 3.1506 6.87476 3.21458 6.74886C3.23211 6.71326 3.24964 6.67767 3.2677 6.641C3.54185 6.09568 3.87364 5.59059 4.25388 5.11336C4.28756 5.07087 4.32124 5.02839 4.35594 4.98462C4.9013 4.31169 5.52435 3.72308 6.23045 3.22273C6.25591 3.20418 6.28136 3.18562 6.30759 3.1665C9.46064 0.873383 14.0649 0.871275 17.2304 3.1368ZM13.1296 2.40901C13.0145 2.62536 12.9683 2.81481 12.9604 3.05891C12.9288 3.50758 12.8034 3.83344 12.4866 4.15848C12.0528 4.52966 11.4749 4.63199 10.9275 4.72664C10.7561 4.75895 10.6512 4.81366 10.5273 4.94148C10.4657 5.06463 10.4712 5.14829 10.4844 5.28523C10.5853 5.49558 10.7051 5.5938 10.9135 5.68471C11.0433 5.73007 11.1219 5.74384 11.2578 5.71492C11.4656 5.59553 11.5827 5.4261 11.7036 5.22347C11.9481 4.82384 12.3115 4.59282 12.7617 4.46883C13.0781 4.43077 13.3402 4.44506 13.6211 4.59773C13.6849 4.619 13.6849 4.619 13.75 4.6407C13.7958 4.71774 13.7958 4.71774 13.8359 4.81258C14.0103 5.22093 14.2806 5.36672 14.6597 5.57494C15.2272 5.89254 15.2272 5.89254 15.3398 6.23055C15.3868 6.60688 15.2634 6.92314 15.0498 7.22957C14.7734 7.57326 14.4338 7.75698 13.9997 7.81233C13.4883 7.84299 13.0619 7.69946 12.5916 7.51618C12.0652 7.31287 12.0652 7.31287 11.5156 7.34773C11.3288 7.48896 11.2319 7.67252 11.1254 7.87645C10.9006 8.19229 10.5675 8.38525 10.24 8.5804C9.77198 8.83337 9.77198 8.83337 9.4531 9.23836C9.44053 9.35202 9.43468 9.45279 9.43699 9.56599C9.43736 9.59635 9.43774 9.6267 9.43812 9.65797C9.45082 10.1158 9.5879 10.5913 9.90075 10.9381C10.3007 11.3025 10.8352 11.4158 11.3652 11.3989C11.9155 11.3547 12.4389 11.2737 12.9597 11.0852C13.2204 10.9931 13.4473 10.9514 13.7151 11.0511C13.9744 11.2182 14.197 11.4721 14.2921 11.7708C14.3807 12.2479 14.233 12.6425 14.0029 13.0574C13.9873 13.0855 13.9717 13.1137 13.9557 13.1427C13.925 13.197 13.8936 13.2509 13.8613 13.3042C13.7431 13.5099 13.73 13.6485 13.75 13.879C14.0064 14.4025 14.6357 14.6685 15.1198 14.9435C15.7603 15.3083 16.1913 15.5702 16.457 16.2852C16.6386 16.2768 16.702 16.2551 16.833 16.1241C17.0157 15.8602 17.0551 15.6127 17.071 15.2963C17.1039 14.6593 17.1854 14.0379 17.2895 13.409C17.2958 13.3701 17.3022 13.3312 17.3087 13.291C17.4147 12.6418 17.5528 12.1018 17.9044 11.5358C17.9826 11.4097 18.059 11.2824 18.1355 11.1552C18.1504 11.1304 18.1653 11.1056 18.1807 11.0801C18.5406 10.4801 18.9389 9.78956 18.8633 9.06648C18.695 8.46126 18.1465 8.05208 17.6897 7.66194C17.3874 7.39809 17.1351 7.13861 17.0827 6.72737C17.123 6.39982 17.2776 6.19531 17.5311 5.99036C17.7558 5.83224 17.9951 5.81137 18.2617 5.84383C18.6194 5.92192 18.8651 6.14539 19.1303 6.38261C19.2472 6.49069 19.2472 6.49069 19.3789 6.5743C18.8533 5.03015 17 3.73141 15.6081 3.04454C14.366 2.42155 14.366 2.42155 13.1296 2.40901ZM8.7656 2.70711C8.64896 2.7509 8.53764 2.79768 8.42454 2.84944C8.39017 2.86505 8.35581 2.88065 8.3204 2.89673C6.94193 3.53111 5.72906 4.4191 4.79368 5.62361C4.77539 5.64715 4.7571 5.67069 4.73826 5.69494C4.64945 5.81143 4.57103 5.92444 4.5117 6.05867C4.57967 6.08656 4.64772 6.11428 4.7158 6.14192C4.75368 6.15738 4.79157 6.17283 4.83061 6.18875C5.25455 6.3487 5.79673 6.33551 6.21215 6.15585C6.5634 5.97316 6.89054 5.75929 7.03343 5.37386C7.07851 5.22236 7.1043 5.07034 7.1291 4.91437C7.21759 4.37265 7.40997 3.86549 7.86326 3.52351C8.01611 3.42128 8.17088 3.32212 8.32876 3.22782C8.54437 3.09605 8.69867 2.9513 8.85154 2.75008C8.809 2.72881 8.809 2.72881 8.7656 2.70711ZM2.5781 10.7852C1.60408 12.4402 1.13223 14.2777 1.62269 16.1769C1.94528 17.3426 2.55729 18.3552 3.60935 18.9923C4.5342 19.4948 5.64192 19.6752 6.66013 19.379C6.77763 19.3403 6.88975 19.298 7.00388 19.2501C6.8659 19.1362 6.72704 19.0367 6.5742 18.9439C6.16084 18.6836 5.78372 18.3809 5.42495 18.0498C5.339 17.971 5.25104 17.8961 5.1616 17.8214C4.493 17.2347 3.96744 16.4921 3.52342 15.7266C3.50559 15.6959 3.48776 15.6652 3.46939 15.6336C3.14901 15.0733 2.91601 14.4888 2.70701 13.879C2.69053 13.8315 2.69053 13.8315 2.67371 13.783C2.55583 13.4367 2.51104 13.1272 2.53513 12.7618C2.64742 12.7244 2.72021 12.7107 2.83592 12.7081C2.86516 12.707 2.89441 12.7059 2.92454 12.7047C3.03561 12.7235 3.06531 12.7614 3.1367 12.8477C3.17349 12.9441 3.17349 12.9441 3.203 13.0572C3.21436 13.0991 3.22573 13.141 3.23745 13.1842C3.25537 13.2516 3.25537 13.2516 3.27366 13.3204C3.89965 15.5545 5.33371 17.3123 7.26776 18.554C7.33492 18.5973 7.40108 18.6422 7.46697 18.6875C7.55809 18.7417 7.55809 18.7417 7.6516 18.7309C8.06382 18.5344 8.27815 17.9779 8.42622 17.5741C8.66994 16.737 8.43461 15.8733 8.03513 15.1251C7.80737 14.7294 7.53726 14.378 7.21873 14.0509C7.18405 14.0135 7.14938 13.9762 7.11366 13.9377C6.35993 13.148 5.37694 12.6225 4.43577 12.0904C3.82824 11.7448 3.19308 11.3573 2.71859 10.8359C2.66596 10.7755 2.66596 10.7755 2.5781 10.7852Z" fill="#5CA9A9"/>
</svg>
