<svg width="74" height="65" viewBox="0 0 74 65" fill="none" xmlns="http://www.w3.org/2000/svg">
<path d="M58.7748 7.07007C61.5525 9.43475 62.7806 13.6504 63.0573 17.115C63.1185 18.2081 63.0959 19.3047 63.0762 20.3988C63.2202 20.438 63.3642 20.4773 63.5125 20.5177C67.2961 21.5867 70.2115 23.92 72.1271 27.2824C73.7524 30.2391 74.1089 34.079 73.1408 37.2932C71.8814 40.9904 69.474 43.8248 65.9438 45.6269C63.2745 46.8765 60.687 46.9571 57.7892 46.9478C57.4442 46.9477 57.0993 46.9478 56.7543 46.9479C55.919 46.948 55.0836 46.9468 54.2482 46.945C53.2752 46.943 52.3022 46.9426 51.3292 46.9422C49.5943 46.9416 47.8595 46.9398 46.1246 46.9371C44.4405 46.9345 42.7564 46.9325 41.0723 46.9314C40.9683 46.9313 40.8643 46.9312 40.7571 46.9311C40.2353 46.9308 39.7134 46.9304 39.1916 46.9301C34.8702 46.9272 30.5489 46.9221 26.2276 46.9159C26.2276 48.7679 26.2276 50.6199 26.2276 52.528C26.9846 52.528 27.7417 52.528 28.5217 52.528C29.3889 52.7996 29.8177 53.1199 30.2551 53.902C30.5581 54.621 30.6244 55.298 30.3856 56.0444C29.9382 57.0427 29.0827 57.7511 28.2495 58.4421C27.9191 58.7263 27.6116 59.026 27.3029 59.3327C26.9118 59.7207 26.5165 60.0921 26.0932 60.4464C25.6423 60.8238 25.2264 61.2236 24.8117 61.6389C23.2044 63.2166 21.5952 64.3109 19.2468 64.3485C17.3834 64.326 15.7575 63.6516 14.4436 62.358C14.3264 62.2368 14.2092 62.1156 14.0885 61.9908C13.7944 61.6896 13.4951 61.4173 13.1711 61.1479C12.7478 60.7937 12.3525 60.4222 11.9613 60.0342C11.5788 59.6549 11.1936 59.2917 10.7784 58.9469C10.2267 58.4813 9.70312 57.9904 9.18332 57.4912C9.1013 57.414 9.01928 57.3367 8.93478 57.2571C8.26538 56.6075 7.97838 56.0834 7.96459 55.1412C7.98339 54.2857 8.17597 53.7779 8.80639 53.1594C9.93907 52.1865 10.5544 52.528 12.3198 52.528C12.3198 50.676 12.3198 48.8241 12.3198 46.9159C11.8466 46.9159 11.3734 46.9159 10.886 46.9159C8.88062 46.6679 6.28751 46.0147 4.82815 44.5396C4.57724 44.1099 4.57724 44.1099 4.57724 43.5925C4.7909 42.9 4.7909 42.9 5.15076 42.7069C6.04567 42.6357 6.48657 42.7443 7.25665 43.233C8.84785 44.187 10.4881 44.4827 12.3198 44.6711C12.3152 44.5822 12.3107 44.4932 12.3061 44.4016C12.1554 40.9752 12.1554 40.9752 13.4052 39.4936C14.3377 38.5922 15.6858 38.2956 16.9558 38.2831C17.1633 38.2855 17.1633 38.2855 17.375 38.2879C17.5962 38.2876 17.5962 38.2876 17.8219 38.2873C18.131 38.2875 18.4402 38.2891 18.7494 38.292C19.2197 38.2961 19.6899 38.2949 20.1603 38.2931C20.4625 38.294 20.7648 38.2952 21.067 38.2967C21.206 38.2963 21.3449 38.2958 21.488 38.2954C22.8338 38.3135 24.0357 38.6105 25.0223 39.5594C26.0887 40.7027 26.2514 41.8828 26.2366 43.3821C26.2359 43.5061 26.2353 43.63 26.2346 43.7578C26.2329 44.0622 26.2303 44.3667 26.2276 44.6711C30.6296 44.6628 35.0315 44.6524 39.4335 44.639C39.9541 44.6374 40.4747 44.6358 40.9953 44.6343C41.1507 44.6338 41.1507 44.6338 41.3093 44.6333C42.9837 44.6284 44.6581 44.6249 46.3325 44.622C48.0527 44.6189 49.7729 44.6142 51.4931 44.6082C52.4584 44.6048 53.4237 44.6021 54.389 44.6013C55.2989 44.6004 56.2087 44.5976 57.1185 44.5933C57.4512 44.5921 57.7839 44.5916 58.1167 44.5918C61.8788 44.5938 65.1923 43.9622 67.9864 41.2869C70.2487 38.9726 71.2034 36.2072 71.1727 33.0544C71.0942 30.4042 70.0702 27.9704 68.2379 26.0109C68.1109 25.8674 68.1109 25.8674 67.9814 25.721C66.2364 23.8645 63.7886 22.9029 61.2946 22.4803C60.9255 22.363 60.9255 22.363 60.6567 22.1449C60.4163 21.6337 60.4882 21.1545 60.5402 20.6093C60.5573 20.3802 60.5741 20.1511 60.5906 19.922C60.5991 19.8108 60.6077 19.6996 60.6165 19.5851C60.8862 15.8448 59.8046 11.9449 57.3746 9.01088C57.18 8.72808 57.0968 8.53051 57.0543 8.19249C57.4253 7.17243 57.6541 6.95855 58.7748 7.07007ZM14.805 41.4616C14.5561 41.9869 14.554 42.4609 14.5587 43.0283C14.5579 43.1436 14.5571 43.2589 14.5563 43.3777C14.5549 43.6272 14.5545 43.8768 14.5549 44.1264C14.5556 44.5215 14.5536 44.9166 14.5509 45.3117C14.5456 46.1505 14.5436 46.9892 14.5421 47.8279C14.5404 48.8 14.5373 49.772 14.5307 50.7441C14.5287 51.1331 14.5293 51.522 14.53 51.911C14.5287 52.1498 14.5272 52.3887 14.5256 52.6275C14.5265 52.7354 14.5274 52.8433 14.5283 52.9544C14.5209 53.5839 14.4403 53.9925 14.0403 54.4923C13.6795 54.6688 13.4076 54.6618 13.0042 54.677C12.8563 54.6828 12.7084 54.6887 12.5561 54.6948C12.4012 54.7003 12.2463 54.7058 12.0868 54.7115C11.9308 54.7176 11.7748 54.7236 11.6141 54.7299C11.228 54.7448 10.8419 54.7591 10.4558 54.7729C10.3456 55.0281 10.3456 55.0281 10.3124 55.3341C10.4723 55.5898 10.4723 55.5898 10.7286 55.8147C10.8202 55.9029 10.9119 55.991 11.0063 56.0818C11.1552 56.2196 11.1552 56.2196 11.3071 56.36C11.4068 56.4547 11.5064 56.5494 11.6091 56.647C12.1741 57.1807 12.749 57.7003 13.3492 58.196C13.6656 58.4685 13.9594 58.7585 14.2554 59.0521C14.7448 59.5368 15.2462 59.9962 15.7765 60.4376C15.9522 60.5853 16.1243 60.7371 16.2918 60.8936C17.118 61.6491 18.0623 62.0862 19.202 62.1387C21.3594 62.0301 22.8014 60.3977 24.2214 58.9855C24.7343 58.4753 25.2577 57.9919 25.8165 57.5296C26.2593 57.147 26.6666 56.7299 27.0806 56.3178C27.3746 56.0356 27.3746 56.0356 27.8048 55.7024C28.1307 55.4849 28.1307 55.4849 28.2349 55.0535C27.8755 54.7018 27.7474 54.7349 27.2503 54.7246C27.0421 54.7184 27.0421 54.7184 26.8297 54.712C26.6115 54.7074 26.6115 54.7074 26.3889 54.7027C26.1025 54.6966 25.8161 54.6894 25.5297 54.6808C25.4024 54.6782 25.2751 54.6756 25.1439 54.6729C24.7714 54.63 24.536 54.5477 24.2203 54.352C23.9954 53.9118 24.0549 53.4414 24.0543 52.9581C24.0536 52.8431 24.0528 52.7281 24.0521 52.6096C24.0505 52.3594 24.0493 52.1091 24.0483 51.8588C24.0466 51.4625 24.0439 51.0662 24.0407 50.6699C24.0319 49.5429 24.0241 48.416 24.0194 47.289C24.0163 46.6 24.0113 45.911 24.0049 45.222C24.0029 44.9596 24.0016 44.6971 24.0012 44.4347C24.0005 44.0669 23.9971 43.6993 23.9932 43.3315C23.9937 43.2235 23.9941 43.1154 23.9945 43.0041C23.984 42.3337 23.866 41.8733 23.5034 41.3038C22.9391 40.7931 22.5083 40.5873 21.7443 40.5775C21.6213 40.5757 21.4982 40.5739 21.3715 40.572C21.2389 40.571 21.1062 40.57 20.9696 40.5689C20.8325 40.5678 20.6955 40.5666 20.5543 40.5655C20.2641 40.5635 19.9739 40.562 19.6837 40.5609C19.2415 40.5585 18.7995 40.5524 18.3574 40.5462C18.0751 40.5447 17.7928 40.5435 17.5105 40.5426C17.3791 40.5401 17.2476 40.5377 17.1122 40.5352C16.1478 40.5383 15.433 40.6783 14.805 41.4616Z" fill="#1B453C"/>
<path d="M53.7567 2.86117C53.8958 2.93533 54.035 3.00948 54.1784 3.08588C54.9567 3.52074 55.7708 3.99382 56.3375 4.6851C56.4409 5.22782 56.4133 5.50136 56.1852 6.00044C55.8753 6.25472 55.6175 6.38233 55.2112 6.41915C54.4978 6.30217 53.9062 5.78508 53.3265 5.38662C50.0534 3.21325 45.7709 2.49617 41.9064 3.21498C39.1305 3.78911 36.7443 4.90501 34.5438 6.64934C34.4429 6.72494 34.3419 6.80054 34.238 6.87843C31.2929 9.20026 29.5946 12.9794 29.1043 16.567C29.0186 17.1029 28.9546 17.3086 28.6293 17.7683C28.1531 18.0649 27.931 18.0578 27.3748 18.0138C27.0163 17.8752 27.0163 17.8752 26.6579 17.6894C24.416 16.6388 22.2849 16.7514 19.9577 17.4258C17.9426 18.1311 16.304 19.6828 15.3309 21.5214C14.9028 22.5657 14.5651 23.6208 14.4207 24.7412C14.2786 25.1785 14.1463 25.329 13.7537 25.5902C13.2526 25.6702 12.755 25.6675 12.2482 25.6691C9.41651 25.7423 7.17916 26.5983 5.13018 28.5486C3.09905 30.6539 2.49224 33.0832 2.5303 35.8881C2.58291 37.4184 3.12487 38.7034 3.84984 40.0501C4.03188 40.5372 3.99776 40.8084 3.86048 41.304C3.617 41.6677 3.44726 41.7199 3.01812 41.8477C2.45986 41.8695 2.29488 41.7749 1.85316 41.4443C1.62887 41.1063 1.44674 40.7963 1.27068 40.4359C1.19694 40.2853 1.19694 40.2853 1.1217 40.1317C-0.11454 37.5104 -0.343181 34.3557 0.506736 31.5766C1.81884 28.19 4.06132 25.6416 7.44498 24.1345C9.05513 23.5008 10.5902 23.2694 12.3199 23.3453C12.3332 23.1239 12.3332 23.1239 12.3468 22.8981C12.6717 20.4862 14.3083 18.2668 16.1911 16.7511C18.6939 14.954 21.6759 14.2112 24.7402 14.6203C25.5106 14.7455 26.2136 14.941 26.9446 15.2078C26.9611 15.0237 26.9775 14.8396 26.9945 14.6499C27.3209 11.8147 28.951 9.06225 30.8159 6.92994C30.8766 6.85898 30.9374 6.78801 30.9999 6.7149C33.9856 3.24612 38.358 1.07933 42.9652 0.63956C46.7956 0.365601 50.3958 1.0451 53.7567 2.86117Z" fill="#1B453C"/>
<path d="M48.4517 23.345C50.1623 24.677 51.3516 26.2525 51.7494 28.3959C51.7896 28.809 51.7974 29.2175 51.7942 29.6323C51.7934 29.7431 51.7926 29.8539 51.7918 29.968C51.7477 32.054 50.8886 33.8455 49.4122 35.3441C47.7217 36.8619 45.6785 37.445 43.4205 37.4043C41.4957 37.3045 39.6902 36.4893 38.2908 35.1907C36.5892 33.2939 36.0054 31.313 36.1021 28.8086C36.2336 26.9137 37.3124 25.1755 38.7019 23.9062C41.4217 21.6687 45.4871 21.304 48.4517 23.345ZM39.7095 26.1554C38.6883 27.3265 38.3043 28.6695 38.3602 30.1962C38.544 31.6846 39.284 33.0316 40.4672 33.9817C41.7905 34.9228 43.1001 35.246 44.7238 35.1304C46.3126 34.8533 47.6658 34.0353 48.5951 32.7452C49.4566 31.3393 49.7188 29.8539 49.3568 28.2358C48.8706 26.8166 47.8921 25.5699 46.5346 24.8478C44.0726 23.748 41.5776 24.273 39.7095 26.1554Z" fill="#1B453C"/>
<path d="M34.4006 23.345C34.7483 23.6852 34.7856 23.853 34.8307 24.3271C34.7172 24.7937 34.5993 24.9835 34.2214 25.2917C33.7043 25.4987 33.5038 25.4679 32.9668 25.3092C32.596 25.139 32.2333 24.9592 31.8724 24.7699C30.7259 24.222 29.1436 24.3036 27.9574 24.6954C26.4505 25.3189 25.3919 26.3498 24.76 27.8188C24.2717 29.1443 24.374 30.6235 24.8826 31.9286C25.6284 33.4171 26.7861 34.2993 28.3697 34.8322C29.724 35.178 31.0086 35.0848 32.2499 34.4289C32.4835 34.2375 32.7107 34.0386 32.9309 33.8326C33.3529 33.4381 33.4906 33.317 34.078 33.1925C34.6798 33.3397 34.9116 33.506 35.2609 34.008C35.2958 34.6243 35.1455 35.0118 34.768 35.4899C33.6304 36.6778 31.9887 37.303 30.3535 37.4037C27.9404 37.4363 25.916 36.7613 24.1556 35.1085C23.24 34.1081 22.5305 32.9361 22.2133 31.6228C22.1872 31.5188 22.1612 31.4148 22.1343 31.3077C21.7818 29.1928 22.1305 27.0961 23.3603 25.3092C26.0333 21.9623 30.6758 20.8929 34.4006 23.345Z" fill="#1B453C"/>
<path d="M58.2553 28.4217C59.1679 28.9206 59.5916 29.5297 59.9221 30.4999C60.1898 32.195 59.1543 33.533 58.2015 34.8493C58.1244 34.9565 58.0474 35.0638 57.9679 35.1743C57.8084 35.3944 57.6468 35.6132 57.4846 35.8314C57.6212 35.835 57.7578 35.8386 57.8985 35.8424C58.1683 35.8543 58.1683 35.8543 58.4435 35.8665C58.6214 35.873 58.7994 35.8795 58.9828 35.8862C59.5609 35.9833 59.8084 36.1183 60.2088 36.5329C60.304 36.8135 60.304 36.8135 60.2984 37.0941C60.3003 37.1867 60.3021 37.2793 60.304 37.3747C60.1531 37.8194 59.8888 37.9645 59.4919 38.2166C59.1015 38.273 58.7703 38.2987 58.3807 38.296C58.2225 38.2973 58.2225 38.2973 58.0611 38.2987C57.8389 38.2997 57.6166 38.2992 57.3944 38.2974C57.0554 38.2955 56.7169 38.3003 56.3779 38.3056C56.1613 38.3057 55.9448 38.3055 55.7282 38.3048C55.6275 38.3067 55.5268 38.3085 55.4231 38.3104C54.8688 38.3002 54.6324 38.2285 54.1935 37.8866C53.9001 37.515 53.9001 37.515 53.8295 37.0947C53.9086 36.6222 54.0405 36.3595 54.3123 35.9629C54.4038 35.8293 54.4953 35.6956 54.5896 35.5579C54.9195 35.1085 55.263 34.671 55.6117 34.2355C56.1048 33.6177 56.5756 32.9918 57.0097 32.3326C57.1524 32.118 57.1524 32.118 57.2981 31.8991C57.5181 31.4072 57.4821 31.1512 57.3412 30.6402C56.9325 30.5326 56.9325 30.5326 56.4809 30.4999C56.0661 30.7706 55.8704 31.208 55.6207 31.6223C55.3339 31.9029 55.3339 31.9029 54.7783 31.9643C54.3155 31.9495 54.2055 31.9167 53.8195 31.6311C53.5269 31.0213 53.5523 30.5771 53.7567 29.9387C54.6498 28.2841 56.5101 27.6147 58.2553 28.4217Z" fill="#1B453C"/>
</svg>
