<svg width="68" height="64" viewBox="0 0 68 64" fill="none" xmlns="http://www.w3.org/2000/svg">
<path d="M34.5312 0.605668C34.9659 0.809043 35.3829 1.03819 35.8013 1.27177C36.9824 1.91733 38.1752 2.53617 39.3789 3.14009C40.6333 3.77051 41.8778 4.41549 43.1127 5.08203C44.117 5.62163 45.1334 6.1369 46.1523 6.64929C47.4066 7.28003 48.6513 7.92468 49.8861 8.59123C50.8904 9.13083 51.9068 9.6461 52.9258 10.1585C54.1862 10.7923 55.4371 11.44 56.6783 12.1096C57.633 12.6227 58.5981 13.1146 59.5664 13.6027C60.7757 14.2124 61.9747 14.8365 63.1662 15.4788C64.7176 16.3118 66.2934 17.1 67.8672 17.8917C67.8672 18.0633 67.8672 18.2349 67.8672 18.4116C67.5794 18.6262 67.3078 18.7974 66.9956 18.9721C66.8 19.0865 66.6046 19.2013 66.4094 19.3163C66.3025 19.3789 66.1956 19.4416 66.0855 19.5061C65.4555 19.8827 64.8402 20.2815 64.2231 20.678C63.9601 20.8464 63.6971 21.0148 63.4341 21.1831C63.3073 21.2643 63.1806 21.3454 63.0501 21.429C62.5373 21.7569 62.0232 22.0829 61.5088 22.4082C61.4204 22.4641 61.332 22.52 61.2409 22.5776C61.0636 22.6898 60.8863 22.8019 60.709 22.9139C60.1924 23.2406 59.676 23.5677 59.1597 23.8947C58.9686 24.0157 58.7775 24.1367 58.5864 24.2577C58.4496 24.3444 58.3128 24.431 58.1719 24.5202C59.3528 25.1937 60.5465 25.8316 61.7645 26.4382C63.8682 27.4866 65.9534 28.5669 68 29.719C68 29.8048 68 29.8906 68 29.979C67.75 30.1643 67.75 30.1643 67.3951 30.3816C67.197 30.504 67.197 30.504 66.9949 30.6289C66.7775 30.7616 66.7775 30.7616 66.5557 30.8969C66.2495 31.0857 65.9437 31.2751 65.6379 31.4645C65.5589 31.5133 65.4798 31.5621 65.3984 31.6124C64.5635 32.1286 63.7373 32.6574 62.9116 33.1876C62.6256 33.3711 62.3396 33.5545 62.0535 33.738C61.9158 33.8263 61.778 33.9147 61.636 34.0058C60.8833 34.4879 60.1287 34.9672 59.374 35.4465C59.2733 35.5104 59.1726 35.5744 59.0689 35.6403C58.9817 35.6957 58.8944 35.751 58.8046 35.8081C58.5928 35.9433 58.3823 36.0803 58.1719 36.2176C59.5346 36.9957 60.9276 37.7133 62.3306 38.4189C62.4202 38.464 62.5098 38.5091 62.6022 38.5556C62.9588 38.735 63.3155 38.9143 63.6722 39.0936C64.405 39.4619 65.1368 39.8322 65.8667 40.206C65.9622 40.2545 66.0577 40.303 66.1561 40.353C67.5261 41.0567 67.5261 41.0567 68 41.4164C68 41.5022 68 41.5879 68 41.6763C67.7866 41.8378 67.7866 41.8378 67.4822 42.0221C67.3682 42.092 67.2541 42.1618 67.1366 42.2339C67.0106 42.3099 66.8847 42.3859 66.7549 42.4643C66.4862 42.6289 66.2176 42.7937 65.9492 42.9588C65.8071 43.046 65.6649 43.1333 65.5185 43.2231C64.777 43.6824 64.0436 44.1537 63.3101 44.625C63.017 44.8131 62.7238 45.0011 62.4307 45.1891C62.2235 45.322 62.2235 45.322 62.0121 45.4576C61.4032 45.8474 60.7923 46.2341 60.181 46.6204C59.4661 47.0722 58.7524 47.5258 58.0391 47.9799C57.2207 48.5007 56.4018 49.0208 55.582 49.5395C54.3188 50.3388 53.0579 51.1414 51.7969 51.944C50.4445 52.8047 49.0919 53.665 47.7372 54.5221C47.0089 54.983 46.2817 55.4454 45.5547 55.9081C44.645 56.4871 43.7345 57.0648 42.8232 57.6413C42.095 58.1023 41.3677 58.5646 40.6406 59.0274C39.7323 59.6055 38.8236 60.1832 37.9129 60.7578C37.3875 61.0897 36.8642 61.4244 36.3424 61.7618C36.222 61.8393 36.1017 61.9168 35.9777 61.9966C35.7429 62.1478 35.5086 62.2996 35.2747 62.452C35.1682 62.5205 35.0617 62.5889 34.952 62.6594C34.8579 62.7204 34.7637 62.7814 34.6668 62.8443C34.3916 62.9952 34.1801 63.083 33.8672 63.1214C33.5445 62.9614 33.2617 62.7969 32.9624 62.6016C32.8709 62.5437 32.7795 62.4859 32.6852 62.4263C32.3698 62.2263 32.0561 62.024 31.7422 61.8217C31.5004 61.6677 31.2584 61.5139 31.0164 61.3602C30.3663 60.9469 29.7175 60.5318 29.0689 60.1163C28.4832 59.7414 27.8965 59.368 27.3096 58.9949C27.2006 58.9255 27.0915 58.8562 26.9792 58.7848C26.196 58.2869 25.412 57.7902 24.6277 57.294C23.786 56.7613 22.9458 56.2266 22.1055 55.6918C21.4004 55.2431 20.6946 54.7953 19.9883 54.3484C18.6115 53.4773 17.2373 52.6022 15.8629 51.7274C14.624 50.9389 13.3846 50.1511 12.1434 49.3658C11.3017 48.8331 10.4614 48.2984 9.62112 47.7636C8.91598 47.3149 8.21025 46.8671 7.50391 46.4202C6.68409 45.9016 5.86525 45.3814 5.04688 44.8606C2.53012 43.2583 2.53012 43.2583 0 41.6763C0.168262 41.1823 0.303721 41.1622 0.769379 40.9336C0.903688 40.8666 1.038 40.7997 1.17638 40.7307C1.32233 40.6594 1.46828 40.5882 1.61865 40.5147C1.92505 40.3621 2.23131 40.2093 2.53745 40.0563C2.69193 39.9792 2.84642 39.9022 3.0056 39.8228C3.64798 39.4984 4.28131 39.1589 4.91406 38.817C6.49322 37.9664 8.09316 37.1557 9.69531 36.3475C9.69531 36.2617 9.69531 36.176 9.69531 36.0876C9.40874 35.8942 9.12225 35.7176 8.82373 35.5433C8.62762 35.4262 8.43169 35.3087 8.23593 35.191C8.07552 35.0946 8.07552 35.0946 7.91188 34.9962C7.2938 34.6193 6.68535 34.228 6.07617 33.8375C5.94666 33.7546 5.81714 33.6717 5.6837 33.5863C5.42204 33.4188 5.16042 33.2512 4.89882 33.0836C4.30416 32.703 3.70858 32.3237 3.11279 31.9448C3.00468 31.876 2.89656 31.8072 2.78517 31.7364C1.85879 31.1475 0.930115 30.5622 0 29.979C0.174535 29.4666 0.355837 29.4385 0.841492 29.1986C0.98985 29.1245 1.13821 29.0504 1.29106 28.974C1.45283 28.8947 1.6146 28.8154 1.77637 28.7361C1.94193 28.6538 2.10741 28.5713 2.27283 28.4886C2.60316 28.3237 2.93376 28.1593 3.26461 27.9953C3.84194 27.7082 4.41607 27.4155 4.98877 27.1196C5.08443 27.0703 5.18009 27.0209 5.27865 26.9701C6.14764 26.5208 7.0142 26.0669 7.88013 25.6119C8.1148 25.4886 8.34957 25.3655 8.58434 25.2424C8.72668 25.1674 8.86903 25.0925 9.01569 25.0152C9.20755 24.9143 9.20755 24.9143 9.40329 24.8114C9.68307 24.6738 9.68307 24.6738 9.82812 24.5202C9.59885 24.375 9.36957 24.2299 9.1403 24.0847C8.93712 23.956 8.73394 23.8274 8.53077 23.6987C8.02425 23.3779 7.5177 23.0572 7.01105 22.7367C5.88953 22.027 4.76919 21.3156 3.64962 20.603C2.80099 20.063 1.95142 19.5244 1.10115 18.9868C0.732664 18.7538 0.365068 18.5198 0 18.2816C0.183315 17.7435 0.430902 17.7051 0.943695 17.4536C1.02693 17.4122 1.11016 17.3709 1.19591 17.3283C1.37536 17.2393 1.55511 17.1508 1.73511 17.0629C2.2107 16.8305 2.68417 16.5939 3.15793 16.358C3.25254 16.311 3.34714 16.264 3.44462 16.2156C4.21935 15.8301 4.98375 15.4281 5.74414 15.0161C6.80888 14.441 7.88371 13.8878 8.96484 13.3428C10.0515 12.795 11.1317 12.2387 12.2021 11.6613C13.409 11.0104 14.6302 10.389 15.8557 9.77274C16.9087 9.24288 17.9553 8.70364 18.9922 8.14395C20.1934 7.49556 21.4091 6.87702 22.6292 6.26351C23.7996 5.67456 24.9597 5.06985 26.1121 4.4477C27.2844 3.81776 28.4733 3.22016 29.6639 2.62427C30.4123 2.24875 31.1555 1.86772 31.8859 1.45911C32.0073 1.39143 32.1286 1.32376 32.2537 1.25403C32.4755 1.12909 32.6963 1.00234 32.9158 0.873447C33.5072 0.540311 33.855 0.367619 34.5312 0.605668ZM33.1082 5.39528C32.8767 5.51314 32.8767 5.51314 32.6405 5.63339C32.4766 5.7175 32.3128 5.80161 32.1489 5.88572C31.9898 5.96682 31.8306 6.04789 31.6714 6.1289C30.715 6.61658 29.7649 7.11484 28.8203 7.62407C29.3845 8.24433 30.0321 8.62385 30.7627 9.0375C31.0013 9.1742 31.2398 9.31111 31.4781 9.44823C31.5924 9.51392 31.7066 9.57962 31.8244 9.64731C32.3345 9.94776 32.8243 10.2756 33.3105 10.6119C33.6926 10.7845 33.8635 10.7215 34.2656 10.6134C34.5715 10.4646 34.5715 10.4646 34.8705 10.2722C34.9842 10.2023 35.0978 10.1324 35.2149 10.0603C35.3345 9.98551 35.454 9.91067 35.5771 9.83357C35.8263 9.67996 36.0755 9.52647 36.3247 9.37309C36.5092 9.25915 36.5092 9.25915 36.6973 9.14291C37.2026 8.8331 37.713 8.5321 38.2251 8.23331C38.3092 8.18413 38.3933 8.13496 38.48 8.0843C38.6689 7.97403 38.8578 7.86401 39.0469 7.75404C38.7189 7.39014 38.3649 7.19879 37.9252 6.97929C37.7821 6.90725 37.639 6.83521 37.4915 6.76099C37.3419 6.6866 37.1923 6.61221 37.0381 6.53557C36.7444 6.38849 36.4507 6.24126 36.1572 6.09387C36.0164 6.02338 35.8756 5.95289 35.7306 5.88026C35.2671 5.64329 34.8123 5.3936 34.3601 5.13655C33.8727 4.89663 33.5592 5.16493 33.1082 5.39528ZM23.3247 10.4479C23.2282 10.498 23.1316 10.548 23.0322 10.5996C22.8274 10.7061 22.6227 10.813 22.4183 10.9202C22.1098 11.082 21.8007 11.2425 21.4915 11.4029C20.4648 11.937 19.4478 12.4799 18.4609 13.0828C19.2038 13.6821 20.0061 14.1863 20.8095 14.7026C21.1466 14.9215 21.4808 15.1444 21.815 15.3675C22.0527 15.5239 22.2905 15.6803 22.5283 15.8366C22.6982 15.9514 22.6982 15.9514 22.8715 16.0686C22.9791 16.1386 23.0867 16.2086 23.1976 16.2808C23.2927 16.344 23.3878 16.4072 23.4858 16.4723C23.8692 16.6319 24.0441 16.5896 24.4375 16.4621C24.8127 16.2731 24.8127 16.2731 25.197 16.031C25.3429 15.9423 25.4888 15.8536 25.639 15.7622C25.7919 15.6679 25.9448 15.5735 26.0977 15.4792C26.3951 15.2976 26.6925 15.116 26.99 14.9344C27.1369 14.8437 27.2838 14.7531 27.4351 14.6597C27.7497 14.4666 28.0673 14.2796 28.3876 14.0957C28.4678 14.0492 28.548 14.0027 28.6306 13.9547C28.854 13.8254 29.0782 13.6975 29.3025 13.5697C29.4064 13.4948 29.5102 13.4199 29.6172 13.3428C29.6172 13.2141 29.6172 13.0854 29.6172 12.9529C29.3586 12.7454 29.3586 12.7454 29.0143 12.5579C28.8859 12.4829 28.7575 12.408 28.6251 12.3307C28.4868 12.2519 28.3485 12.173 28.2061 12.0918C27.9254 11.9289 27.6449 11.7657 27.3646 11.6024C27.1587 11.4829 27.1587 11.4829 26.9486 11.361C26.2998 10.9783 25.6704 10.5683 25.0414 10.1554C24.3767 9.77836 23.9351 10.1265 23.3247 10.4479ZM40.9992 11.1445C40.3825 11.5722 39.7288 11.9404 39.0801 12.3193C38.8421 12.4592 38.6048 12.6003 38.3683 12.7427C38.2184 12.8319 38.2184 12.8319 38.0654 12.923C37.9949 12.9757 37.9243 13.0285 37.8516 13.0828C37.8516 13.1686 37.8516 13.2544 37.8516 13.3428C38.0525 13.4959 38.0525 13.4959 38.3206 13.6408C38.4242 13.7004 38.5278 13.76 38.6346 13.8214C38.7487 13.8859 38.8629 13.9505 38.9805 14.017C39.222 14.156 39.4635 14.2953 39.7047 14.4348C39.8985 14.5469 39.8985 14.5469 40.0961 14.6612C40.8263 15.089 41.5468 15.532 42.2676 15.9747C42.4091 16.0615 42.5506 16.1483 42.6964 16.2378C43.0295 16.4423 43.3625 16.647 43.6953 16.852C44.5608 16.3649 45.4195 15.8767 46.2437 15.3248C46.4103 15.2147 46.577 15.1047 46.7438 14.9948C46.8298 14.9381 46.9158 14.8815 47.0045 14.8231C47.5112 14.4924 48.023 14.1696 48.5347 13.8464C48.6346 13.7833 48.7345 13.7202 48.8375 13.6551C49.0713 13.5076 49.3052 13.3602 49.5391 13.2128C49.1995 12.8336 48.8153 12.6305 48.3629 12.3949C48.2486 12.3348 48.2486 12.3348 48.132 12.2736C47.715 12.0552 47.2959 11.841 46.8761 11.6281C46.7062 11.5418 46.5364 11.4553 46.3666 11.3688C46.2833 11.3265 46.2 11.2842 46.1141 11.2405C45.6546 11.0038 45.2211 10.7516 44.7967 10.459C43.278 9.44612 42.3457 10.1787 40.9992 11.1445ZM13.289 15.6777C13.2099 15.7178 13.1308 15.758 13.0493 15.7994C12.7915 15.9304 12.5342 16.0622 12.2769 16.194C12.1012 16.2835 11.9256 16.3729 11.7499 16.4623C10.4863 17.1062 9.22539 17.7549 7.96875 18.4116C8.49927 18.8447 9.0559 19.2107 9.63721 19.5732C9.8375 19.6989 10.0378 19.8247 10.238 19.9504C10.3434 20.0166 10.4488 20.0828 10.5574 20.1509C10.9065 20.3712 11.2541 20.5936 11.6014 20.8166C11.7194 20.8922 11.8374 20.9679 11.9591 21.0458C12.1885 21.193 12.4178 21.3404 12.6468 21.4882C12.8543 21.621 13.063 21.752 13.2731 21.8807C13.5037 22.0239 13.727 22.1781 13.9484 22.3346C14.4133 22.4594 14.4841 22.4156 14.8952 22.2016C15.1091 22.0705 15.3208 21.936 15.5308 21.799C15.765 21.6535 15.9994 21.5082 16.2337 21.3629C16.3571 21.2849 16.4804 21.2069 16.6075 21.1266C17.295 20.6965 17.9951 20.2868 18.6934 19.8738C18.9556 19.7175 19.2178 19.5612 19.4799 19.4047C19.5909 19.3384 19.702 19.2721 19.8164 19.2037C19.8951 19.1568 19.9737 19.1098 20.0547 19.0615C19.7896 18.7882 19.5272 18.5734 19.2028 18.371C19.1138 18.3151 19.0247 18.2591 18.9329 18.2015C18.8374 18.1421 18.7419 18.0828 18.6436 18.0217C18.4404 17.8943 18.2372 17.7668 18.034 17.6394C17.9294 17.574 17.8248 17.5087 17.717 17.4413C17.2029 17.1195 16.6906 16.7948 16.1782 16.4702C16.0861 16.412 15.994 16.3537 15.899 16.2938C15.8112 16.2382 15.7234 16.1827 15.633 16.1255C15.5497 16.0729 15.4664 16.0203 15.3806 15.9661C15.1493 15.8177 14.9217 15.6647 14.6939 15.5111C14.1085 15.1453 13.8763 15.3783 13.289 15.6777ZM52.9543 15.7254C52.8108 15.8179 52.6672 15.9103 52.5193 16.0056C52.3643 16.1063 52.2092 16.207 52.0542 16.3077C51.8186 16.4599 51.583 16.6119 51.3473 16.7639C51.19 16.8653 51.0328 16.9669 50.8756 17.0685C50.1202 17.5565 49.3596 18.0362 48.5964 18.5123C48.2631 18.7217 47.9607 18.9165 47.6797 19.1914C48.6377 19.8921 49.651 20.4896 50.6795 21.0846C51.4172 21.5119 52.1337 21.9549 52.834 22.4392C53.2249 22.6158 53.3837 22.579 53.7891 22.4407C54.0958 22.2759 54.3845 22.1068 54.6772 21.9208C54.8098 21.8381 54.8098 21.8381 54.9451 21.7537C55.269 21.5508 55.5915 21.346 55.9141 21.141C56.0546 21.0521 56.1952 20.9631 56.34 20.8715C56.8045 20.5776 57.2683 20.2827 57.7319 19.9875C57.808 19.9392 57.884 19.8908 57.9624 19.841C58.1824 19.701 58.402 19.5605 58.6217 19.4199C58.7493 19.3383 58.877 19.2568 59.0085 19.1727C59.3637 18.9338 59.6983 18.6792 60.0312 18.4116C59.9075 18.3494 59.7838 18.2873 59.6563 18.2232C59.1886 17.9882 58.7211 17.7529 58.2536 17.5176C58.0528 17.4166 57.852 17.3156 57.6512 17.2148C57.3593 17.0681 57.0675 16.9212 56.7758 16.7743C56.6325 16.7022 56.6325 16.7022 56.4864 16.6286C55.7324 16.2477 54.9869 15.8529 54.2447 15.4505C53.6668 15.1673 53.4679 15.3929 52.9543 15.7254ZM32.7881 16.0884C32.6411 16.1735 32.6411 16.1735 32.4912 16.2603C32.1527 16.457 31.8146 16.6544 31.4766 16.852C31.3454 16.9284 31.2141 17.0049 31.079 17.0837C30.6658 17.3251 30.2535 17.5676 29.8413 17.8105C29.709 17.8878 29.5768 17.965 29.4405 18.0446C29.3158 18.1185 29.1911 18.1923 29.0626 18.2684C28.9518 18.3337 28.8409 18.3989 28.7268 18.4661C28.4088 18.6804 28.1546 18.9167 27.8906 19.1914C27.9773 19.2456 28.064 19.2997 28.1533 19.3555C28.4144 19.5187 28.6756 19.682 28.9367 19.8454C29.2369 20.0333 29.5374 20.2207 29.8381 20.4078C30.5651 20.8611 31.2876 21.3185 31.9995 21.7944C32.179 21.9131 32.179 21.9131 32.362 22.0342C32.5869 22.1835 32.8105 22.3347 33.0326 22.488C33.1334 22.5545 33.2342 22.621 33.338 22.6895C33.4247 22.7484 33.5114 22.8073 33.6007 22.868C33.8751 22.9916 33.8751 22.9916 34.1935 22.8706C34.5244 22.7041 34.8378 22.5283 35.1512 22.332C35.2688 22.2587 35.3864 22.1853 35.5076 22.1097C35.6319 22.0313 35.7562 21.9529 35.8843 21.8721C36.0764 21.7517 36.0764 21.7517 36.2724 21.6288C37.4727 20.8741 38.6607 20.1018 39.8438 19.3214C39.3577 18.7736 38.7582 18.4552 38.1255 18.0948C37.8881 17.9578 37.6508 17.8205 37.4137 17.6831C37.2287 17.5759 37.2287 17.5759 37.0399 17.4666C36.2653 17.0129 35.5009 16.5429 34.7359 16.074C34.5681 15.9715 34.5681 15.9715 34.3969 15.867C34.2976 15.8062 34.1984 15.7453 34.0961 15.6826C33.6127 15.4074 33.2186 15.8386 32.7881 16.0884ZM22.836 21.9777C22.7583 22.0243 22.6806 22.0708 22.6005 22.1188C22.3516 22.2684 22.1038 22.4195 21.856 22.5707C21.6939 22.6684 21.5318 22.7661 21.3696 22.8636C21.0473 23.0576 20.7256 23.2527 20.4044 23.4485C20.0768 23.6477 19.7473 23.8432 19.416 24.0364C19.3356 24.0836 19.2551 24.1309 19.1723 24.1796C18.9502 24.3098 18.7276 24.4392 18.505 24.5685C18.4028 24.6383 18.3006 24.7082 18.1953 24.7802C18.1953 24.8659 18.1953 24.9517 18.1953 25.0401C18.4819 25.2334 18.7684 25.4101 19.0669 25.5844C20.1601 26.2367 21.2324 26.9176 22.3029 27.6048C22.5474 27.7616 22.7923 27.9176 23.0378 28.0729C23.2542 28.2118 23.4682 28.3543 23.679 28.5013C23.7704 28.5632 23.8619 28.6251 23.9561 28.6889C24.0726 28.7713 24.0726 28.7713 24.1916 28.8553C24.4474 28.9683 24.4474 28.9683 24.7537 28.8526C25.13 28.6651 25.4817 28.4595 25.8367 28.2355C25.9772 28.1473 26.1176 28.059 26.2624 27.968C26.408 27.8757 26.5536 27.7834 26.7036 27.6883C26.8456 27.599 26.9876 27.5097 27.134 27.4176C27.5642 27.1464 27.9932 26.8734 28.4219 26.5997C28.4973 26.5519 28.5728 26.504 28.6505 26.4547C28.8734 26.3131 29.0956 26.1706 29.3178 26.0281C29.4487 25.9444 29.5796 25.8608 29.7144 25.7746C30.0279 25.5858 30.0279 25.5858 30.1484 25.3C30.0017 25.2101 29.855 25.1201 29.7038 25.0274C27.845 23.8846 25.9984 22.7226 24.1719 21.5309C23.5528 21.5309 23.3558 21.6631 22.836 21.9777ZM42.7075 22.2051C42.5292 22.3241 42.3507 22.4429 42.1721 22.5615C42.0278 22.6577 42.0278 22.6577 41.8806 22.7558C41.3196 23.126 40.7517 23.4857 40.1841 23.846C40.0742 23.916 39.9643 23.986 39.851 24.0581C39.1888 24.4789 38.5227 24.893 37.8516 25.3C38.3351 25.81 38.8426 26.1779 39.4536 26.5348C40.0957 26.9151 40.7277 27.3037 41.3472 27.7187C41.5249 27.8365 41.5249 27.8365 41.7062 27.9566C41.9393 28.1116 42.1712 28.2684 42.4017 28.4272C42.5086 28.4977 42.6155 28.5681 42.7257 28.6407C42.82 28.7046 42.9142 28.7684 43.0114 28.8342C43.3036 28.9735 43.3036 28.9735 43.6391 28.8424C44.0556 28.6313 44.4535 28.3973 44.8491 28.1513C44.937 28.0971 45.0249 28.0429 45.1155 27.9871C46.6017 27.066 48.0691 26.1156 49.5391 25.1701C49.2054 24.808 48.8313 24.5767 48.407 24.3237C48.2603 24.2359 48.1136 24.148 47.9624 24.0575C47.8073 23.9653 47.6522 23.8731 47.4971 23.781C47.1972 23.6018 46.8973 23.4226 46.5975 23.2434C46.4484 23.1548 46.2993 23.0663 46.1457 22.9751C45.8296 22.7868 45.5159 22.5952 45.2033 22.4013C45.1249 22.353 45.0466 22.3047 44.9658 22.255C44.7481 22.1207 44.531 21.9855 44.3139 21.8503C43.6282 21.4823 43.2808 21.8146 42.7075 22.2051ZM13.2117 27.4105C13.0265 27.5052 13.0265 27.5052 12.8375 27.6018C12.7045 27.6705 12.5715 27.7393 12.4346 27.8101C12.2991 27.8797 12.1637 27.9492 12.0242 28.0209C10.7072 28.7001 9.40206 29.4001 8.10156 30.1089C8.4689 30.4904 8.83664 30.7782 9.28961 31.0568C9.48517 31.178 9.48517 31.178 9.68468 31.3017C9.82515 31.3879 9.96562 31.4741 10.1104 31.563C10.411 31.7493 10.7116 31.9358 11.012 32.1225C11.0893 32.1704 11.1667 32.2184 11.2463 32.2678C12.0849 32.7886 12.9157 33.3206 13.7461 33.8537C14.0356 34.0394 14.3251 34.225 14.6146 34.4107C14.7502 34.4976 14.8858 34.5846 15.0256 34.6742C15.6324 35.0626 16.2412 35.448 16.8503 35.8329C17.5652 36.2847 18.2788 36.7383 18.9922 37.1923C19.8106 37.7132 20.6294 38.2333 21.4492 38.752C22.3825 39.3424 23.3144 39.935 24.2461 40.5279C24.9512 40.9766 25.6569 41.4244 26.3633 41.8713C27.1831 42.3899 28.0019 42.9101 28.8203 43.4309C29.4691 43.8438 30.118 44.2566 30.7674 44.6687C30.8652 44.7308 30.9631 44.7929 31.064 44.8569C31.2532 44.9767 31.4427 45.0962 31.6323 45.2153C32.0421 45.4727 32.4488 45.7322 32.8477 46.0054C33.0401 46.1344 33.0401 46.1344 33.2363 46.2659C33.3976 46.3777 33.3976 46.3777 33.5621 46.4918C33.8614 46.6464 33.8614 46.6464 34.1707 46.5482C34.6663 46.283 35.1432 45.9957 35.6187 45.6973C35.7269 45.6298 35.8352 45.5624 35.9467 45.493C37.2006 44.7093 38.444 43.9099 39.6881 43.1116C40.3528 42.6851 41.0188 42.2607 41.6865 41.8388C42.4899 41.3311 43.2921 40.8219 44.0938 40.3116C45.0034 39.7326 45.9139 39.1549 46.8252 38.5784C47.5535 38.1174 48.2808 37.6551 49.0078 37.1923C49.9175 36.6134 50.828 36.0356 51.7393 35.4591C52.5808 34.9265 53.4211 34.3919 54.2611 33.8571C54.7856 33.5232 55.3103 33.1898 55.8362 32.8581C57.1994 31.9983 58.5514 31.1228 59.8984 30.2389C59.4875 29.8068 59.0007 29.5749 58.4676 29.3129C58.3666 29.2624 58.2655 29.212 58.1614 29.16C57.8388 28.999 57.5156 28.8391 57.1924 28.6793C56.8702 28.5193 56.5481 28.359 56.2262 28.1985C56.0261 28.0989 55.8258 27.9995 55.6253 27.9004C55.2299 27.7041 54.8485 27.5077 54.4727 27.2765C54.1932 27.0814 54.1932 27.0814 53.8695 27.1922C53.45 27.4193 53.0397 27.656 52.6353 27.9076C52.5454 27.963 52.4556 28.0184 52.363 28.0755C51.0205 28.9079 49.6947 29.766 48.3659 30.6191C47.759 31.0082 47.1509 31.3956 46.5425 31.7823C46.3813 31.8848 46.3813 31.8848 46.2168 31.9894C45.4403 32.4828 44.663 32.9751 43.8854 33.467C43.1573 33.9279 42.4301 34.3902 41.7031 34.8529C40.8848 35.3737 40.0659 35.8938 39.2461 36.4125C38.4044 36.9452 37.5633 37.4786 36.7227 38.0128C36.6147 38.0813 36.5068 38.1498 36.3956 38.2204C36.2912 38.2868 36.1869 38.3531 36.0793 38.4215C35.9771 38.4859 35.8749 38.5504 35.7696 38.6167C35.5565 38.755 35.3467 38.8981 35.1398 39.0451C35.0362 39.1178 34.9326 39.1904 34.8259 39.2653C34.6882 39.3652 34.6882 39.3652 34.5476 39.4672C34.1736 39.6391 33.9902 39.5888 33.6016 39.4668C33.3493 39.344 33.3493 39.344 33.1061 39.1906C33.0122 39.1321 32.9183 39.0735 32.8216 39.0132C32.7201 38.9485 32.6187 38.8837 32.5142 38.817C32.4056 38.7488 32.2971 38.6806 32.1852 38.6103C31.8153 38.3772 31.4466 38.1424 31.0781 37.9072C30.8738 37.777 30.8738 37.777 30.6654 37.6442C29.9337 37.1778 29.2029 36.7101 28.4727 36.2414C27.7236 35.7607 26.9734 35.2817 26.2222 34.8041C26.1147 34.7358 26.0072 34.6674 25.8964 34.597C25.1196 34.1034 24.342 33.611 23.5642 33.1188C22.2794 32.3057 20.9972 31.4886 19.7145 30.6722C18.5334 29.9206 17.3522 29.1691 16.1699 28.4193C16.0814 28.3631 15.9928 28.3069 15.9016 28.2489C15.6484 28.0885 15.3945 27.9289 15.1406 27.7695C15.0447 27.7085 14.9487 27.6475 14.8498 27.5847C14.7547 27.525 14.6596 27.4654 14.5616 27.4039C14.4754 27.3495 14.3892 27.295 14.3003 27.2389C13.8678 27.0067 13.6193 27.2015 13.2117 27.4105ZM32.9126 28.4193C32.7378 28.5371 32.5628 28.6545 32.3876 28.7717C32.2882 28.8381 32.1888 28.9046 32.0864 28.9731C31.3847 29.4339 30.6701 29.8757 29.9575 30.3202C29.8056 30.4151 29.6536 30.51 29.5017 30.605C29.1418 30.8297 28.7819 31.0543 28.4219 31.2787C28.859 31.7291 29.2892 32.0839 29.8257 32.4149C30.0374 32.5463 30.0374 32.5463 30.2532 32.6804C30.3994 32.7701 30.5457 32.8597 30.6963 32.9521C30.8394 33.0407 30.9825 33.1293 31.13 33.2206C31.4153 33.3972 31.7012 33.5728 31.9877 33.7475C32.2672 33.9215 32.5433 34.1011 32.8155 34.2859C32.943 34.3715 33.0706 34.457 33.2021 34.5452C33.3145 34.6231 33.427 34.7011 33.5429 34.7813C33.8653 34.956 33.8653 34.956 34.2138 34.8265C34.6393 34.6005 35.0523 34.3593 35.4609 34.1055C35.5507 34.0502 35.6404 33.9948 35.7328 33.9377C36.5528 33.4284 37.3651 32.9076 38.1753 32.3834C38.2988 32.304 38.4223 32.2245 38.5496 32.1427C38.6642 32.068 38.7788 31.9933 38.8969 31.9163C38.9996 31.8498 39.1022 31.7832 39.2079 31.7145C39.4626 31.5528 39.4626 31.5528 39.5781 31.2787C39.5021 31.2317 39.4261 31.1848 39.3478 31.1364C38.9872 30.9134 38.6269 30.6899 38.2666 30.4664C38.0694 30.3442 38.0694 30.3442 37.8682 30.2196C37.2226 29.818 36.5808 29.4126 35.9486 28.991C35.8407 28.9192 35.7328 28.8473 35.6217 28.7733C35.4185 28.6372 35.216 28.5001 35.0143 28.3618C34.923 28.3007 34.8318 28.2396 34.7377 28.1767C34.659 28.1229 34.5802 28.0691 34.499 28.0137C33.851 27.6964 33.4245 28.064 32.9126 28.4193ZM13.0509 39.1612C12.9015 39.2378 12.7521 39.3144 12.5982 39.3934C12.4385 39.4774 12.2788 39.5614 12.1191 39.6455C11.957 39.7295 11.7948 39.8134 11.6326 39.8972C10.444 40.5131 9.26558 41.1469 8.10156 41.8063C8.56989 42.321 9.11758 42.644 9.71191 43.0004C10.7838 43.6527 11.8441 44.3209 12.8994 44.9987C13.0492 45.0948 13.199 45.1909 13.3488 45.287C13.6378 45.4724 13.9269 45.6579 14.2159 45.8433C14.7388 46.1782 15.2631 46.5109 15.7881 46.8426C16.583 47.345 17.3771 47.8487 18.1704 48.3535C18.2813 48.4241 18.3922 48.4947 18.5064 48.5673C18.9589 48.8552 19.4112 49.1432 19.8636 49.4311C21.1026 50.2197 22.342 51.0075 23.5831 51.7927C24.4248 52.3254 25.2652 52.8602 26.1054 53.395C26.9016 53.9016 27.6987 54.4069 28.4962 54.9114C29.1183 55.3051 29.7397 55.6998 30.3606 56.0954C30.5879 56.24 30.8154 56.3843 31.0431 56.5283C31.5554 56.8524 32.0646 57.179 32.566 57.519C32.6506 57.5753 32.7351 57.6315 32.8222 57.6895C33.0456 57.8386 33.2674 57.9899 33.489 58.1414C33.8515 58.3557 33.8515 58.3557 34.1864 58.2149C34.5117 58.0618 34.8101 57.8973 35.1139 57.7068C35.2258 57.637 35.3377 57.5671 35.453 57.4951C35.5734 57.419 35.6938 57.343 35.8179 57.2646C35.9451 57.1848 36.0724 57.105 36.2035 57.0228C37.6411 56.119 39.0696 55.2016 40.4985 54.2848C41.9844 53.3326 43.4756 52.3884 44.967 51.4447C46.1382 50.7034 47.3073 49.9588 48.4766 49.2146C49.8289 48.3539 51.1815 47.4936 52.5363 46.6365C53.3772 46.1042 54.2168 45.5701 55.0562 45.0356C55.6887 44.6331 56.3219 44.2316 56.9558 43.8311C57.9425 43.2078 58.9239 42.5776 59.8984 41.9363C59.5423 41.5243 59.0863 41.3142 58.6025 41.0762C58.5145 41.0322 58.4265 40.9881 58.3359 40.9427C58.0547 40.802 57.773 40.6624 57.4912 40.5228C57.2131 40.3843 56.935 40.2456 56.6571 40.1067C56.4775 40.0171 56.2977 39.9278 56.1176 39.839C55.6318 39.598 55.1667 39.3402 54.7032 39.0596C54.3218 38.8522 54.2323 38.812 53.7834 38.8622C53.2654 39.1454 52.7747 39.4536 52.2866 39.7836C52.0724 39.9259 51.8582 40.0681 51.6438 40.2101C51.536 40.2818 51.4282 40.3535 51.3171 40.4274C50.8447 40.739 50.3667 41.0417 49.8877 41.3433C49.7013 41.4609 49.5148 41.5785 49.3284 41.6961C49.1862 41.7858 49.1862 41.7858 49.0411 41.8773C48.4979 42.2206 47.9561 42.5659 47.4141 42.911C46.5957 43.4319 45.7768 43.952 44.957 44.4707C43.6938 45.2699 42.4329 46.0725 41.1719 46.8751C40.7209 47.1622 40.2699 47.4492 39.8188 47.7362C39.6537 47.8413 39.6537 47.8413 39.4853 47.9485C38.963 48.2808 38.4404 48.6125 37.9169 48.943C37.8216 49.0032 37.7262 49.0635 37.6279 49.1256C37.4418 49.243 37.2555 49.3603 37.069 49.4773C36.6058 49.769 36.1488 50.0667 35.698 50.3767C35.6079 50.438 35.5177 50.4993 35.4248 50.5624C35.2544 50.6787 35.0852 50.7966 34.9173 50.9162C34.3504 51.3013 34.3504 51.3013 33.9491 51.2673C33.5586 51.1514 33.2738 50.9921 32.9318 50.7742C32.8019 50.6922 32.672 50.6102 32.5381 50.5256C32.3987 50.4361 32.2593 50.3466 32.1157 50.2544C31.9697 50.1617 31.8238 50.0691 31.6733 49.9737C31.2861 49.728 30.8998 49.4809 30.5137 49.2335C30.2862 49.0878 30.0585 48.9424 29.8308 48.7971C29.1026 48.3324 28.3749 47.867 27.6478 47.4006C26.0254 46.3599 24.3973 45.3276 22.7682 44.2969C21.9266 43.7642 21.0863 43.2295 20.2461 42.6948C19.451 42.1888 18.6554 41.6836 17.8583 41.1806C17.3328 40.8487 16.8095 40.514 16.2877 40.1766C16.1673 40.0991 16.047 40.0216 15.923 39.9418C15.6882 39.7906 15.4539 39.6388 15.22 39.4864C15.1135 39.4179 15.007 39.3495 14.8973 39.279C14.8032 39.218 14.709 39.157 14.6121 39.0941C13.9713 38.7426 13.7004 38.8243 13.0509 39.1612Z" fill="#1B453C"/>
</svg>
