<svg width="89" height="89" viewBox="0 0 89 89" fill="none" xmlns="http://www.w3.org/2000/svg">
<path d="M76.1367 55.9728C77.2965 56.767 78.1924 57.7278 78.5703 59.1017C78.7738 60.7565 78.7167 62.2325 77.7011 63.6212C76.5984 64.7912 75.2841 65.5581 73.8878 66.3264C73.6723 66.4469 73.457 66.5677 73.2418 66.6886C72.8003 66.9366 72.3584 67.1838 71.9162 67.4305C70.9343 67.9795 69.9614 68.5439 68.988 69.1077C68.6145 69.3234 68.2411 69.5391 67.8676 69.7548C67.6834 69.8612 67.4991 69.9677 67.3093 70.0774C66.1826 70.7283 65.0554 71.3783 63.9282 72.0283C62.9689 72.5815 62.01 73.1354 61.0516 73.6903C59.9393 74.3342 58.8257 74.9759 57.7109 75.6154C57.563 75.7003 57.4152 75.7853 57.2628 75.8728C53.6796 77.9242 50.1269 79.5681 46.0753 80.4391C45.9161 80.4736 45.757 80.5082 45.593 80.5438C42.7589 81.1169 39.8881 81.2584 37.0036 81.2648C36.8322 81.2656 36.6608 81.2664 36.4843 81.2672C31.8502 81.2753 27.2447 80.7798 22.6412 80.2939C22.4417 80.273 22.2422 80.2521 22.0366 80.2306C21.863 80.2121 21.6893 80.1936 21.5105 80.1745C21.0589 80.137 20.6168 80.1276 20.164 80.1349C20.1066 80.3392 20.0493 80.5436 19.9902 80.7541C19.6527 81.6547 19.0509 82.2246 18.2519 82.7423C17.3868 83.0987 16.6306 83.1433 15.711 83.1422C15.5692 83.143 15.4273 83.1437 15.2812 83.1445C14.9823 83.1455 14.6834 83.1456 14.3845 83.1448C13.9305 83.1443 13.4767 83.1484 13.0228 83.1528C12.731 83.1532 12.4393 83.1533 12.1475 83.1531C11.9465 83.1555 11.9465 83.1555 11.7414 83.158C10.6591 83.1489 9.67861 82.9564 8.82308 82.2439C8.72941 82.1287 8.63575 82.0136 8.53925 81.8949C8.44289 81.7806 8.34654 81.6663 8.24727 81.5486C7.79225 80.8771 7.60529 80.2716 7.60072 79.4636C7.59899 79.2982 7.59725 79.1327 7.59547 78.9623C7.59535 78.7829 7.59524 78.6034 7.59512 78.4185C7.59367 78.2279 7.59223 78.0373 7.59074 77.8409C7.58655 77.2106 7.58502 76.5804 7.58387 75.9501C7.58231 75.5112 7.58072 75.0723 7.57911 74.6335C7.57625 73.713 7.5749 72.7926 7.57441 71.8722C7.57378 70.8118 7.56859 69.7514 7.5613 68.6911C7.55451 67.6676 7.55257 66.6442 7.55238 65.6207C7.55165 65.187 7.54949 64.7532 7.54586 64.3194C7.54117 63.7112 7.54202 63.1032 7.54419 62.4949C7.54161 62.3173 7.53903 62.1396 7.53638 61.9565C7.54871 60.7363 7.80614 59.7618 8.51752 58.754C9.63095 57.8205 10.6441 57.6835 12.0674 57.6758C12.2809 57.6743 12.2809 57.6743 12.4987 57.6727C12.7997 57.6711 13.1007 57.67 13.4017 57.6693C13.8587 57.6676 14.3156 57.6622 14.7726 57.6567C15.0659 57.6556 15.3593 57.6547 15.6526 57.654C15.7877 57.6519 15.9229 57.6497 16.0621 57.6475C17.1336 57.6518 18.079 57.8509 18.9635 58.4994C19.6425 59.2369 19.6425 59.2369 19.6425 59.6232C19.7836 59.5953 19.9247 59.5675 20.0701 59.5388C20.7809 59.4355 21.4703 59.4148 22.1875 59.4079C22.3321 59.4062 22.4767 59.4046 22.6257 59.4029C23.0944 59.3986 23.563 59.3964 24.0317 59.395C24.2707 59.3942 24.2707 59.3942 24.5145 59.3933C27.3762 59.39 30.1943 59.547 32.9669 60.3222C33.6947 60.5038 34.4003 60.541 35.1482 60.5367C35.2832 60.5373 35.4182 60.538 35.5573 60.5386C35.848 60.5398 36.1387 60.5402 36.4294 60.54C36.8907 60.5398 37.3519 60.5421 37.8132 60.545C39.124 60.553 40.4347 60.5574 41.7454 60.5585C42.5495 60.5594 43.3536 60.5636 44.1577 60.5699C44.4625 60.5716 44.7674 60.572 45.0722 60.5711C47.2491 60.5648 48.8136 60.733 50.4583 62.2666C51.4115 63.2587 51.8186 64.2365 51.8225 65.5985C51.8158 65.8665 51.8086 66.1345 51.8007 66.4025C53.3739 66.0977 54.6293 65.5501 56.0052 64.7402C56.1956 64.6309 56.3859 64.5215 56.5821 64.4088C57.1338 64.091 57.6834 63.7698 58.2324 63.4474C58.4922 63.2957 58.752 63.1441 59.0119 62.9924C59.4754 62.721 59.9378 62.4476 60.3998 62.1736C61.9591 61.2507 63.5336 60.3534 65.1038 59.4493C65.7185 59.0952 66.3327 58.7403 66.9469 58.3853C67.1507 58.2676 67.3545 58.1498 67.5584 58.032C67.9428 57.8099 68.3272 57.5876 68.7116 57.3653C69.216 57.074 69.7211 56.7839 70.2265 56.4943C70.3757 56.408 70.5249 56.3218 70.6786 56.233C70.8847 56.1156 70.8847 56.1156 71.095 55.9959C71.2134 55.928 71.3318 55.8601 71.4538 55.7902C72.841 55.111 74.7951 55.2522 76.1367 55.9728ZM10.4816 60.5344C10.1939 60.9238 10.1903 61.1434 10.1896 61.6251C10.1881 61.7859 10.1866 61.9468 10.1851 62.1125C10.1862 62.2886 10.1872 62.4647 10.1883 62.6461C10.1874 62.8319 10.1865 63.0176 10.1856 63.209C10.1833 63.8244 10.1848 64.4398 10.1865 65.0553C10.1862 65.482 10.1857 65.9087 10.185 66.3354C10.1843 67.2303 10.1854 68.1252 10.1878 69.0201C10.1908 70.1687 10.1891 71.3173 10.186 72.466C10.1841 73.3473 10.1847 74.2286 10.186 75.1099C10.1864 75.5335 10.1859 75.9571 10.1847 76.3807C10.1834 76.9721 10.1854 77.5635 10.1883 78.1549C10.1873 78.331 10.1862 78.5071 10.1851 78.6885C10.1866 78.8494 10.1881 79.0102 10.1896 79.1759C10.1898 79.3158 10.19 79.4556 10.1902 79.5997C10.2732 80.0567 10.4055 80.2098 10.7773 80.4825C11.2434 80.5365 11.6683 80.5598 12.1346 80.5579C12.2673 80.5588 12.3999 80.5597 12.5366 80.5607C12.817 80.5618 13.0974 80.5616 13.3778 80.5601C13.8063 80.5586 14.2345 80.5636 14.663 80.5691C14.9356 80.5694 15.2082 80.5693 15.4808 80.5688C15.6087 80.5707 15.7365 80.5727 15.8683 80.5747C16.4036 80.5674 16.7854 80.5303 17.2428 80.2426C17.7357 79.5273 17.652 78.8263 17.6438 77.9773C17.6447 77.7932 17.6457 77.6091 17.6466 77.4195C17.6488 76.8106 17.6459 76.2018 17.6428 75.5929C17.6428 75.1704 17.6431 74.7478 17.6436 74.3253C17.6438 73.4396 17.6416 72.554 17.6377 71.6683C17.6327 70.5315 17.6332 69.3948 17.6354 68.258C17.6366 67.3855 17.6353 66.513 17.6331 65.6405C17.6323 65.2213 17.6323 64.802 17.633 64.3828C17.6335 63.7976 17.6306 63.2126 17.6268 62.6274C17.6276 62.4532 17.6284 62.279 17.6292 62.0995C17.6275 61.9404 17.6257 61.7813 17.624 61.6173C17.6233 61.4098 17.6233 61.4098 17.6227 61.1981C17.5387 60.7432 17.4058 60.5898 17.0351 60.3185C16.5546 60.2666 16.1141 60.2454 15.6336 60.2492C15.4967 60.2487 15.3598 60.2482 15.2187 60.2477C14.9294 60.2474 14.6401 60.2483 14.3508 60.2505C13.9078 60.2533 13.4651 60.2505 13.0221 60.2472C12.741 60.2475 12.4599 60.2482 12.1788 60.2492C12.0462 60.2482 11.9137 60.2471 11.7771 60.246C11.0866 60.2433 11.0866 60.2433 10.4816 60.5344ZM71.9403 58.5204C71.6889 58.6628 71.6889 58.6628 71.4324 58.808C71.1797 58.9534 71.1797 58.9534 70.9218 59.1017C70.6171 59.2721 70.3122 59.4423 70.0072 59.6123C69.6927 59.7895 69.3783 59.967 69.064 60.1447C68.8921 60.2418 68.7202 60.339 68.543 60.4391C67.1478 61.23 65.7618 62.0361 64.3781 62.8469C62.8935 63.7157 61.4006 64.5691 59.9053 65.4192C58.5256 66.2038 57.1573 67.0023 55.8124 67.8454C54.8861 68.3567 53.983 68.7104 52.9197 68.7817C52.6767 68.8006 52.6767 68.8006 52.4288 68.8198C51.9746 68.8361 51.9746 68.8361 51.301 68.7817C50.7149 68.7773 50.7149 68.7773 50.3558 69.3032C50.2883 69.3978 50.2209 69.4923 50.1514 69.5898C49.441 70.3717 48.3024 70.761 47.2812 70.922C46.8249 70.938 46.3733 70.9458 45.917 70.9445C45.7824 70.9448 45.6477 70.9451 45.509 70.9454C45.0656 70.9462 44.6222 70.9457 44.1788 70.9451C43.8699 70.9452 43.561 70.9454 43.2521 70.9456C42.6056 70.9458 41.959 70.9455 41.3124 70.9447C40.4838 70.9437 39.6551 70.9442 38.8265 70.9453C38.189 70.9459 37.5515 70.9457 36.914 70.9453C36.6084 70.9451 36.3028 70.9453 35.9973 70.9457C35.5704 70.9461 35.1435 70.9455 34.7166 70.9445C34.5274 70.945 34.5274 70.945 34.3343 70.9456C33.7578 70.9431 33.2309 70.9268 32.6796 70.7482C32.6655 70.4985 32.6554 70.2485 32.647 69.9985C32.638 69.7898 32.638 69.7898 32.6287 69.5769C32.6796 69.1837 32.6796 69.1837 32.8603 68.9024C33.3819 68.5348 33.9185 68.5917 34.5335 68.5981C34.669 68.5975 34.8044 68.5968 34.944 68.5961C35.2382 68.595 35.5324 68.5951 35.8266 68.5962C36.2929 68.5977 36.7591 68.596 37.2253 68.5933C38.551 68.5863 39.8767 68.5861 41.2024 68.5865C42.0134 68.5865 42.8243 68.5831 43.6353 68.5779C44.0936 68.576 44.5517 68.5781 45.01 68.5803C45.2929 68.5788 45.5759 68.577 45.8588 68.575C45.9853 68.5767 46.1118 68.5784 46.2421 68.5802C47.1994 68.5668 47.7253 68.3178 48.498 67.7931C49.0688 67.1784 49.242 66.7011 49.2802 65.881C49.2433 65.0624 49.0584 64.5883 48.498 63.9689C47.4528 63.1461 46.5745 63.0741 45.2818 63.0751C45.1533 63.0745 45.0248 63.0739 44.8924 63.0732C44.614 63.072 44.3355 63.071 44.0571 63.0704C43.6128 63.0692 43.1686 63.0664 42.7243 63.0632C41.4613 63.0542 40.1982 63.0458 38.9351 63.0431C32.4609 63.027 32.4609 63.027 29.3769 62.2306C28.7914 62.1326 28.2081 62.0642 27.6169 62.0133C27.4047 61.9937 27.4047 61.9937 27.1883 61.9737C24.8304 61.774 22.5285 61.8991 20.164 62.0568C20.164 67.1047 20.164 72.1527 20.164 77.3536C20.6202 77.5817 21.0138 77.5923 21.5227 77.6402C21.7353 77.6605 21.9479 77.6808 22.167 77.7017C22.401 77.7233 22.6351 77.7449 22.8692 77.7665C23.1106 77.7892 23.3521 77.8119 23.5935 77.8346C24.102 77.8824 24.6105 77.9297 25.1191 77.9766C25.7617 78.036 26.4041 78.0964 27.0465 78.1572C34.4752 78.8592 42.2174 79.4475 49.3671 76.8322C49.4786 76.7922 49.59 76.7522 49.7049 76.711C53.3923 75.3646 56.7601 73.2195 60.1295 71.2365C61.0516 70.6959 61.9778 70.1626 62.904 69.6291C63.0917 69.5209 63.2795 69.4127 63.4729 69.3013C63.8536 69.0819 64.2343 68.8626 64.6149 68.6433C65.1823 68.3164 65.7496 67.9893 66.3167 67.662C66.5965 67.5007 66.5965 67.5007 66.8818 67.336C67.2557 67.1203 67.6295 66.9044 68.0032 66.6884C68.8785 66.1828 69.7543 65.6784 70.6326 65.1782C70.9424 65.0017 71.2519 64.8249 71.5615 64.6479C71.949 64.4265 72.3369 64.2057 72.7253 63.9858C74.5803 62.9857 74.5803 62.9857 75.9737 61.4701C76.1655 60.7285 76.2069 60.1786 75.9628 59.4493C75.574 58.7946 75.1031 58.3517 74.3984 58.0587C73.4611 57.8657 72.7608 58.0503 71.9403 58.5204Z" fill="white"/>
<path d="M40.1943 18.5492C40.5102 18.5458 40.5102 18.5458 40.8326 18.5424C41.058 18.542 41.2835 18.5417 41.5158 18.5413C41.7522 18.5401 41.9886 18.539 42.2249 18.5378C42.7195 18.5357 43.2141 18.535 43.7087 18.5352C44.3387 18.5353 44.9687 18.5305 45.5987 18.5245C46.0868 18.5206 46.5749 18.52 47.063 18.5202C47.4071 18.5195 47.7511 18.5158 48.095 18.512C49.4873 18.519 50.7151 18.6165 51.7786 19.5941C52.838 20.7136 52.8929 21.8822 52.8655 23.3582C52.864 23.5193 52.8624 23.6804 52.8608 23.8464C52.8567 24.2414 52.851 24.6363 52.8438 25.0313C53.1461 25.0245 53.1461 25.0245 53.4545 25.0175C54.2093 25.0017 54.9641 24.9918 55.719 24.9836C56.0444 24.9792 56.3698 24.9733 56.6951 24.9657C60.4245 24.8812 60.4245 24.8812 61.8624 26.2007C63.0547 27.416 63.1767 28.8432 63.1671 30.4627C63.1685 30.7496 63.1685 30.7496 63.1699 31.0423C63.1722 31.6714 63.1707 32.3005 63.1689 32.9296C63.1693 33.3686 63.1698 33.8076 63.1704 34.2465C63.1712 35.1653 63.1701 36.0841 63.1676 37.0029C63.1648 38.0622 63.1657 39.1214 63.1686 40.1807C63.1712 41.2035 63.171 42.2263 63.1694 43.2491C63.1691 43.6827 63.1695 44.1163 63.1707 44.5498C63.1721 45.1564 63.17 45.7628 63.1671 46.3694C63.1682 46.5475 63.1692 46.7256 63.1703 46.9091C63.157 48.4244 62.8059 49.8213 61.709 50.9317C60.5212 51.7675 59.5027 51.9956 58.0596 51.9991C57.9393 51.9996 57.819 52.0001 57.695 52.0006C57.293 52.0021 56.891 52.0024 56.4889 52.0027C56.2002 52.0035 55.9115 52.0043 55.6227 52.0053C54.839 52.0076 54.0554 52.0087 53.2717 52.0095C52.7817 52.01 52.2917 52.0107 51.8017 52.0115C50.2676 52.0138 48.7335 52.0155 47.1994 52.0162C45.4305 52.017 43.6615 52.02 41.8926 52.0251C40.524 52.0288 39.1553 52.0306 37.7866 52.0308C36.9698 52.031 36.153 52.032 35.3362 52.0351C34.5674 52.038 33.7987 52.0383 33.0299 52.0368C32.7486 52.0367 32.4673 52.0374 32.1859 52.0392C30.3675 52.0496 28.7132 52.0056 27.2164 50.8604C26.306 49.9387 25.8806 48.7719 25.876 47.4977C25.875 47.332 25.874 47.1663 25.873 46.9956C25.8728 46.815 25.8726 46.6344 25.8724 46.4483C25.8716 46.2572 25.8707 46.066 25.8698 45.8691C25.8673 45.2362 25.8661 44.6033 25.8651 43.9704C25.8641 43.5305 25.8631 43.0905 25.8621 42.6505C25.8605 41.8455 25.8594 41.0406 25.8589 40.2356C25.8581 39.0532 25.8551 37.8708 25.85 36.6885C25.8458 35.6623 25.8445 34.6362 25.8442 33.6101C25.8437 33.1746 25.8423 32.7391 25.84 32.3036C25.837 31.6936 25.8373 31.0837 25.8385 30.4738C25.8369 30.2946 25.8353 30.1154 25.8336 29.9307C25.8414 28.5834 26.0504 27.4302 26.9651 26.3785C27.0552 26.27 27.1453 26.1616 27.2381 26.0498C28.3434 25.1581 29.4888 24.9288 30.8769 24.9634C31.0291 24.9644 31.1812 24.9654 31.3379 24.9664C31.8179 24.9702 32.2976 24.9789 32.7775 24.9878C33.1054 24.9913 33.4332 24.9945 33.7611 24.9973C34.5596 25.005 35.3579 25.0169 36.1563 25.0313C36.1527 24.9342 36.149 24.8371 36.1453 24.737C36.1306 24.2883 36.1217 23.8396 36.1128 23.3908C36.107 23.2381 36.1012 23.0854 36.0952 22.928C36.077 21.6932 36.2962 20.5988 37.1509 19.6624C38.0459 18.8227 38.972 18.5579 40.1943 18.5492ZM38.7637 21.9024C38.7637 22.9349 38.7637 23.9675 38.7637 25.0313C42.5497 25.0313 46.3357 25.0313 50.2364 25.0313C50.2364 23.9988 50.2364 22.9662 50.2364 21.9024C49.4958 21.1453 49.4958 21.1453 48.5477 21.1171C48.3481 21.1149 48.1486 21.1127 47.943 21.1105C47.7282 21.1119 47.5134 21.1133 47.2922 21.1147C47.071 21.1141 46.8499 21.1134 46.622 21.1127C46.1543 21.1122 45.6869 21.1132 45.2193 21.1164C44.6207 21.1204 44.0223 21.1181 43.4237 21.1139C42.8518 21.1108 42.2799 21.113 41.7079 21.1147C41.4932 21.1133 41.2784 21.1119 41.0571 21.1105C40.7578 21.1138 40.7578 21.1138 40.4524 21.1171C40.277 21.1177 40.1015 21.1182 39.9207 21.1188C39.3535 21.1825 39.3535 21.1825 38.7637 21.9024ZM28.6817 28.5079C28.4046 29.0621 28.4902 29.6602 28.497 30.2679C28.4978 30.399 28.4986 30.53 28.4994 30.6651C28.5014 30.989 28.5045 31.3129 28.5079 31.6368C30.6522 32.8747 32.8394 34.031 35.0273 35.1893C35.148 35.2532 35.2687 35.3171 35.3931 35.3829C35.5141 35.447 35.6352 35.511 35.7599 35.5771C36.5895 36.0165 37.4177 36.4585 38.2449 36.9025C38.3556 36.9619 38.4663 37.0214 38.5804 37.0826C39.1032 37.3633 39.6259 37.6443 40.1484 37.9256C42.5239 39.3319 42.5239 39.3319 45.1954 39.6329C46.582 39.1996 47.8691 38.4806 49.1499 37.8077C49.3583 37.6989 49.5666 37.5901 49.775 37.4814C51.1847 36.7439 52.5853 35.9903 53.9794 35.2238C54.9048 34.7151 55.833 34.212 56.7644 33.7146C56.8764 33.6547 56.9884 33.5949 57.1037 33.5333C57.658 33.2374 58.2124 32.9419 58.7671 32.6468C59.0661 32.4873 59.0661 32.4873 59.3712 32.3246C59.5498 32.2296 59.7285 32.1345 59.9126 32.0366C60.2995 31.8454 60.2995 31.8454 60.4922 31.6368C60.5238 31.1884 60.5406 30.7492 60.5466 30.3005C60.5516 30.1773 60.5566 30.0542 60.5618 29.9273C60.5726 29.0282 60.3879 28.5264 59.7969 27.8125C59.29 27.5591 58.8446 27.6145 58.2782 27.612C58.1565 27.6112 58.0347 27.6104 57.9092 27.6097C57.4992 27.6073 57.0891 27.6063 56.679 27.6052C56.3858 27.6038 56.0926 27.6024 55.7994 27.6009C54.8348 27.5963 53.8702 27.5937 52.9056 27.5912C52.5738 27.5903 52.242 27.5893 51.9103 27.5884C50.5305 27.5846 49.1507 27.5814 47.7709 27.5794C45.7919 27.5766 43.813 27.5708 41.834 27.5609C40.4434 27.5542 39.0528 27.5508 37.6621 27.5499C36.8311 27.5492 36.0002 27.5471 35.1692 27.5415C34.3874 27.5363 33.6058 27.5352 32.824 27.5372C32.5371 27.5373 32.2501 27.5358 31.9632 27.5328C31.5713 27.5288 31.1799 27.5303 30.7881 27.533C30.5688 27.5325 30.3496 27.5319 30.1237 27.5313C29.397 27.6676 29.1432 27.944 28.6817 28.5079ZM28.5079 34.5918C28.4877 36.3416 28.4723 38.0914 28.4628 39.8413C28.4583 40.6539 28.4521 41.4664 28.4423 42.2789C28.4328 43.0634 28.4276 43.8477 28.4254 44.6323C28.4238 44.9312 28.4207 45.2302 28.416 45.5292C28.4096 45.9487 28.4088 46.3679 28.4092 46.7874C28.4061 46.9104 28.4029 47.0335 28.3997 47.1602C28.4098 48.1367 28.7112 48.532 29.377 49.1934C29.8805 49.4451 30.3186 49.3915 30.8813 49.394C31.0015 49.3947 31.1218 49.3955 31.2456 49.3963C31.6505 49.3986 32.0554 49.3997 32.4602 49.4008C32.7497 49.4021 33.0392 49.4036 33.3287 49.4051C34.2812 49.4096 35.2337 49.4123 36.1862 49.4148C36.5138 49.4157 36.8415 49.4166 37.1692 49.4176C38.5321 49.4213 39.8951 49.4246 41.258 49.4265C43.2123 49.4294 45.1665 49.4351 47.1208 49.445C48.4943 49.4518 49.8678 49.4552 51.2413 49.4561C52.0619 49.4567 52.8825 49.4588 53.7031 49.4644C54.4753 49.4697 55.2474 49.4708 56.0196 49.4687C56.3028 49.4687 56.5861 49.4701 56.8693 49.4732C57.2565 49.4771 57.6433 49.4757 58.0305 49.4729C58.3552 49.4738 58.3552 49.4738 58.6866 49.4747C59.4707 49.3316 59.756 49.0545 60.3184 48.4981C60.5796 47.9757 60.5148 47.439 60.512 46.8663C60.512 46.6679 60.512 46.6679 60.512 46.4654C60.5119 46.0271 60.5106 45.5888 60.5092 45.1505C60.5089 44.8471 60.5086 44.5436 60.5085 44.2401C60.5078 43.4405 60.5061 42.6409 60.5042 41.8413C60.5024 41.0257 60.5016 40.2101 60.5007 39.3945C60.4989 37.7936 60.4959 36.1927 60.4922 34.5918C60.0563 34.8089 59.6205 35.0262 59.1847 35.2436C59.0632 35.3041 58.9417 35.3646 58.8165 35.4269C57.7753 35.9466 56.7441 36.4837 55.7177 37.0321C55.251 37.2813 54.7841 37.5302 54.3169 37.7786C53.1528 38.3981 51.9909 39.0216 50.8325 39.6519C50.6267 39.7637 50.4208 39.8754 50.2149 39.9872C49.8347 40.194 49.4549 40.4016 49.0757 40.61C47.7688 41.321 46.5734 41.9279 45.065 42.0447C44.7813 42.0709 44.7813 42.0709 44.4919 42.0977C42.6995 42.0162 41.2096 41.3601 39.6546 40.5129C39.4662 40.4126 39.2778 40.3123 39.0837 40.2089C38.5121 39.9036 37.9423 39.595 37.3731 39.2852C37.1288 39.1528 37.1288 39.1528 36.8795 39.0178C36.1086 38.5997 35.339 38.1793 34.5701 37.7574C33.4567 37.1474 32.3393 36.5448 31.2207 35.9443C30.9991 35.8253 30.7775 35.7061 30.556 35.5868C30.2471 35.4205 29.938 35.2547 29.6289 35.0889C29.4503 34.9929 29.2716 34.897 29.0875 34.7981C28.7317 34.5787 28.7317 34.5787 28.5079 34.5918Z" fill="white"/>
</svg>
