<svg width="68" height="68" viewBox="0 0 68 68" fill="none" xmlns="http://www.w3.org/2000/svg">
<g clip-path="url(#clip0_140_18)">
<path d="M62.0556 0.459758C62.8643 1.16784 63.3314 1.8348 63.4844 2.92198C63.562 5.54515 62.8237 8.28246 62.0234 10.7579C61.9894 10.864 61.9554 10.97 61.9203 11.0793C60.8631 14.3079 59.1908 17.0849 56.8437 19.5235C56.7682 19.6074 56.6927 19.6913 56.6149 19.7778C53.0005 23.6787 46.7181 25.6304 41.5703 26.0314C40.9503 26.0541 40.331 26.0486 39.7109 26.0314C38.2276 28.9734 37.2154 31.9756 36.5234 35.1954C36.9355 35.4059 37.3548 35.5851 37.7828 35.7609C38.8459 36.204 39.7428 36.722 40.6406 37.4532C40.7243 37.5154 40.808 37.5775 40.8943 37.6415C42.0243 38.5193 42.9054 39.8495 43.4297 41.172C43.4297 41.2596 43.4297 41.3473 43.4297 41.4376C43.6194 41.3824 43.6194 41.3824 43.8131 41.3261C43.9796 41.278 44.1462 41.2298 44.3178 41.1803C44.4827 41.1325 44.6476 41.0847 44.8175 41.0355C47.4796 40.3063 50.5501 40.7056 52.9922 41.9688C55.4629 43.3872 57.1219 45.3744 58.3047 47.9454C58.3832 47.9278 58.4618 47.9101 58.5428 47.892C58.6477 47.8685 58.7527 47.8451 58.8608 47.8209C59.0157 47.7862 59.0157 47.7862 59.1737 47.7509C59.2813 47.7274 59.389 47.704 59.5 47.6798C59.6533 47.6438 59.6533 47.6438 59.8097 47.6072C61.7019 47.2858 63.6276 47.6348 65.2109 48.7423C66.6167 49.8178 67.6785 51.223 68 52.9923C68.2079 55.2174 67.9074 57.02 66.539 58.836C65.4655 60.1239 64.0708 60.9199 62.4219 61.2267C61.1289 61.3435 59.832 61.2723 58.5703 60.961C58.5146 61.1082 58.5146 61.1082 58.4577 61.2583C57.4885 63.7109 55.7852 65.8781 53.3906 67.0704C50.6847 68.1848 47.6226 68.5132 44.8636 67.376C43.3521 66.7215 41.409 65.6853 40.6406 64.1485C40.2115 64.3365 39.9403 64.5653 39.6113 64.8956C37.9403 66.4044 35.7084 67.0665 33.4843 66.9833C31.3722 66.8428 29.5406 66.007 28.0265 64.5231C27.7629 64.2536 27.7629 64.2536 27.3594 64.1485C27.3061 64.2129 27.2529 64.2773 27.198 64.3436C25.5661 66.2679 23.4137 67.7189 20.8515 68.0001C17.982 68.2012 15.2661 67.8215 12.9409 66.0079C12.7419 65.8337 12.5452 65.6568 12.3515 65.4767C12.2611 65.3983 12.1707 65.3198 12.0776 65.2391C10.8201 64.0847 10.0078 62.5472 9.42966 60.961C9.35194 60.9802 9.27421 60.9994 9.19413 61.0191C7.07115 61.4782 4.9758 61.3989 3.07957 60.2638C1.4793 59.1652 0.421428 57.6913 -2.28323e-05 55.7813C-0.0536311 55.3202 -0.0635804 54.8673 -0.0581283 54.4034C-0.0570262 54.2815 -0.0559241 54.1595 -0.0547885 54.0338C-0.010213 52.2378 0.675618 50.749 1.90086 49.4313C3.41979 48.014 5.266 47.4918 7.29066 47.5158C7.89416 47.5377 8.44031 47.6688 9.01307 47.8583C9.31085 47.9649 9.31085 47.9649 9.69529 47.9454C9.76925 47.7978 9.84321 47.6503 9.91941 47.4982C10.5007 46.3573 11.0837 45.3113 11.9531 44.3595C12.0298 44.2706 12.1065 44.1818 12.1855 44.0902C13.4851 42.6759 15.1975 41.7682 17 41.172C17.1294 41.1269 17.2588 41.0819 17.3922 41.0355C19.5488 40.4099 22.0613 40.6003 24.1719 41.3048C24.3033 41.3486 24.4348 41.3924 24.5703 41.4376C24.5929 41.2922 24.5929 41.2922 24.6159 41.144C25.0273 39.3955 26.7338 37.7697 28.1562 36.7892C29.0421 36.2497 29.9501 35.7643 30.9453 35.461C30.0486 33.255 28.9327 30.925 27.2265 29.2189C27.0951 29.2627 26.9636 29.3065 26.8281 29.3517C20.9122 29.663 14.5366 27.8488 9.96091 24.0392C9.84124 23.9406 9.72157 23.8419 9.59827 23.7403C8.94728 23.182 8.37723 22.5783 7.83591 21.9142C7.68902 21.7395 7.68902 21.7395 7.53916 21.5614C4.5324 17.846 1.82289 11.7863 2.25779 6.90635C2.50603 6.01897 2.96018 5.45525 3.71043 4.93492C4.47285 4.5075 5.09887 4.46894 5.95994 4.47422C6.08872 4.47497 6.21749 4.47572 6.35017 4.47649C12.5282 4.5769 18.6359 6.77596 23.0746 11.1133C26.1624 14.3586 27.8626 18.5641 28.9531 22.8439C28.9769 22.9366 29.0007 23.0294 29.0253 23.125C29.325 24.3277 29.6681 26.0057 29.2642 27.2248C29.1911 27.4952 29.1911 27.4952 29.3369 27.7278C29.3997 27.8074 29.4626 27.887 29.5274 27.9691C29.5976 28.0609 29.6678 28.1526 29.7401 28.2472C29.8173 28.346 29.8945 28.4447 29.9741 28.5465C33.4687 33.2012 33.4687 33.2012 33.4687 35.0626C33.644 35.0626 33.8194 35.0626 34 35.0626C34.0275 34.9063 34.0551 34.75 34.0835 34.5889C34.6783 31.3505 35.6734 28.135 37.2871 25.2511C37.5539 24.7413 37.6225 24.4549 37.5029 23.8898C37.4711 23.7963 37.4392 23.7028 37.4064 23.6065C36.4139 19.4093 39.0424 13.3631 41.191 9.84496C42.7347 7.41089 44.7236 5.38205 47.1729 3.86801C47.3958 3.73016 47.6164 3.58873 47.8369 3.447C50.7609 1.65751 58.7674 -1.84843 62.0556 0.459758ZM57.5244 2.60655C57.3932 2.63002 57.2621 2.6535 57.127 2.67769C52.0438 3.62998 46.8975 5.90545 43.8554 10.2598C41.5469 13.6751 40.2321 17.5504 39.8437 21.6485C40.3651 21.1416 40.8412 20.6077 41.313 20.0548C42.0692 19.1755 42.846 18.319 43.6374 17.4714C43.8182 17.2764 43.9965 17.0792 44.1747 16.8818C45.0804 15.8788 46.0281 14.9186 46.9824 13.962C47.0482 13.8958 47.1141 13.8296 47.1819 13.7614C47.8696 13.0709 48.5623 12.3927 49.3028 11.7585C49.6709 11.4411 50.023 11.107 50.3774 10.7745C51.0092 10.1867 51.6573 9.63007 52.3307 9.08998C52.9191 8.60796 53.4901 8.10616 54.0613 7.60391C54.1429 7.53259 54.2244 7.46128 54.3084 7.3878C54.3811 7.32377 54.4539 7.25974 54.5289 7.19377C54.9235 6.87237 55.2816 6.8609 55.7843 6.87004C56.0469 6.90635 56.0469 6.90635 56.3789 7.11387C56.6643 7.57775 56.6691 7.83026 56.5781 8.36729C56.1665 9.07787 55.4734 9.561 54.8365 10.057C53.6159 11.0199 52.4616 12.0599 51.3322 13.1273C50.8885 13.5466 50.4393 13.9575 49.9826 14.3625C49.2317 15.0363 48.5175 15.7438 47.8057 16.4583C47.5877 16.677 47.369 16.895 47.1502 17.1129C46.487 17.7757 45.835 18.4424 45.2257 19.1559C44.8885 19.5473 44.5312 19.9197 44.1767 20.2955C43.2335 21.3041 42.3017 22.3313 41.5703 23.5079C46.549 23.4881 51.7614 21.0247 55.333 17.6476C58.7141 14.1423 60.2372 9.40278 60.9609 4.69004C60.9882 4.51981 60.9882 4.51981 61.016 4.34614C61.1034 3.71428 61.1186 3.24727 60.8281 2.65635C59.9203 2.05115 58.5469 2.42072 57.5244 2.60655ZM4.84608 7.10816C4.35593 7.92507 4.71983 9.01913 4.91404 9.89463C4.94326 10.0267 4.97248 10.1588 5.00259 10.295C5.87752 14.0848 7.38958 17.4215 9.8281 20.4532C9.90206 20.5464 9.97602 20.6395 10.0522 20.7355C13.3587 24.7607 19.0163 26.3941 23.9861 26.9263C24.3608 26.9551 24.7261 26.969 25.1015 26.961C24.2493 25.9339 23.3207 25.0067 22.3078 24.1383C21.9494 23.8197 21.6161 23.4792 21.2832 23.1344C21.0241 22.8825 20.7596 22.6453 20.4868 22.4086C19.9278 21.923 19.3883 21.4192 18.8511 20.9098C18.6526 20.7223 18.454 20.5348 18.2555 20.3474C18.1566 20.254 18.0577 20.1606 17.9559 20.0644C16.8025 18.9767 15.6408 17.8981 14.4708 16.8284C14.0538 16.447 13.6383 16.0638 13.2231 15.6803C13.1517 15.6143 13.0802 15.5483 13.0066 15.4803C12.6393 15.1411 12.2722 14.8017 11.9054 14.4621C11.758 14.3259 11.6107 14.1896 11.4634 14.0533C11.3923 13.9875 11.3212 13.9217 11.248 13.8539C10.6852 13.3341 10.1146 12.8238 9.53965 12.3174C9.19282 11.9869 9.16701 11.8604 9.13084 11.3722C9.16404 10.8907 9.16404 10.8907 9.30515 10.5753C9.69087 10.2518 9.99539 10.2352 10.4922 10.2267C11.1237 10.5279 11.5943 11.01 12.0942 11.4884C12.2725 11.6569 12.4507 11.8253 12.6291 11.9937C12.7171 12.077 12.8051 12.1604 12.8957 12.2462C13.2479 12.5783 13.6045 12.9051 13.9619 13.2315C14.5845 13.8007 15.205 14.3722 15.8245 14.9448C16.2981 15.3822 16.7732 15.818 17.249 16.253C17.939 16.8842 18.6229 17.5219 19.306 18.1606C19.8415 18.6612 20.3788 19.1597 20.9179 19.6564C21.5284 20.219 22.1371 20.7834 22.7441 21.3497C22.8258 21.4259 22.9074 21.5021 22.9916 21.5805C23.4536 22.0122 23.9142 22.4452 24.3737 22.8797C24.4742 22.9746 24.5747 23.0696 24.6783 23.1675C24.8723 23.3508 25.0661 23.5344 25.2596 23.7182C25.7684 24.199 26.2849 24.6601 26.8281 25.1017C26.4374 20.9355 24.5682 16.7497 21.914 13.547C21.7505 13.3469 21.7505 13.3469 21.5836 13.1428C18.1377 9.14429 12.5579 7.33486 7.43748 6.90635C7.04712 6.88183 6.65811 6.87012 6.26707 6.86485C6.16922 6.861 6.07138 6.85714 5.97057 6.85318C5.52598 6.84795 5.22963 6.87612 4.84608 7.10816ZM35.9922 37.7188C35.7486 38.4886 35.6209 39.2525 35.5107 40.0514C35.4929 40.1735 35.4751 40.2957 35.4568 40.4215C35.3709 41.0308 35.3055 41.6174 35.3281 42.2345C35.4067 42.2762 35.4853 42.318 35.5662 42.3611C36.8607 43.0621 36.8607 43.0621 37.1875 43.4298C37.3463 43.966 37.397 44.4333 37.1875 44.9571C36.7912 45.2544 36.4829 45.2807 35.9922 45.2892C35.6601 45.1314 35.6601 45.1314 35.3281 44.8907C34.6747 44.4384 34.2809 44.2725 33.4864 44.4005C33.1827 44.4989 33.0158 44.6124 32.7798 44.8243C32.3599 45.1975 32.1665 45.2892 31.6094 45.2892C31.1694 45.1646 31.1694 45.1646 30.8125 44.8907C30.6209 44.3979 30.6301 43.977 30.7959 43.4796C31.3444 42.8665 32.0679 42.4558 32.8047 42.1017C32.6575 40.6456 32.3944 39.2631 32.0078 37.8517C30.4067 38.0234 29.0177 39.0233 27.9638 40.2101C27.2668 41.0926 26.8112 41.978 26.4297 43.0313C26.1132 43.8908 26.1132 43.8908 25.7988 44.1603C24.9115 44.3574 24.11 43.9307 23.3055 43.5963C20.9823 42.7584 18.509 43.0294 16.2944 44.0606C13.892 45.3488 12.3785 47.4185 11.5796 49.9791C11.5321 50.1429 11.4847 50.3068 11.4359 50.4756C11.289 50.8673 11.289 50.8673 10.8906 51.1329C10.0783 51.2629 9.70346 50.9906 9.07273 50.5399C8.08485 49.8841 6.94284 49.7736 5.79288 49.9999C4.50084 50.378 3.43401 51.1883 2.75532 52.3469C2.20985 53.4949 2.17113 54.8876 2.58152 56.0885C3.17841 57.3451 4.14909 58.2219 5.44529 58.7032C6.53704 59.0471 7.70979 58.9224 8.73811 58.4589C9.00864 58.3167 9.26329 58.1616 9.52097 57.9977C10.0581 57.724 10.3173 57.741 10.8906 57.9063C11.3736 58.2402 11.4115 58.7357 11.5215 59.276C12.0148 61.4098 13.0952 63.1753 14.9331 64.4059C16.877 65.5466 18.868 65.9172 21.0928 65.5187C23.5654 64.8016 25.2682 63.2036 26.5697 61.0316C26.6953 60.8282 26.6953 60.8282 26.8281 60.6954C27.2335 60.6379 27.6184 60.6339 28.0234 60.6954C28.3139 60.961 28.3139 60.961 28.5547 61.3595C29.6433 62.899 30.8494 63.9248 32.6885 64.4723C34.4503 64.728 36.0323 64.4266 37.5403 63.4523C38.4287 62.786 39.1118 61.9994 39.6985 61.0606C39.8437 60.8282 39.8437 60.8282 39.9765 60.6954C40.2323 60.6591 40.2323 60.6591 40.5493 60.6456C40.6529 60.6391 40.7565 60.6326 40.8632 60.6259C41.3208 60.7289 41.4444 60.9788 41.7031 61.3595C41.8468 61.5903 41.9879 61.8228 42.1264 62.0567C43.2425 63.8109 44.9187 64.977 46.9253 65.5265C49.19 65.9111 51.3288 65.5673 53.2578 64.2813C55.2513 62.7625 56.1693 60.8319 56.699 58.4449C56.8437 58.0392 56.8437 58.0392 57.0943 57.8488C57.6669 57.6953 58.2002 57.7793 58.7145 58.0547C58.888 58.1671 59.0592 58.2832 59.2271 58.4039C60.191 58.9921 61.3348 58.9725 62.4136 58.7587C63.5183 58.4151 64.4202 57.7336 65.0382 56.7505C65.6501 55.551 65.809 54.3329 65.5279 53.0063C65.0541 51.6808 64.1251 50.853 62.9017 50.2157C61.715 49.719 60.4729 49.842 59.3008 50.3065C58.9908 50.4581 58.7414 50.622 58.4707 50.8341C57.9613 51.1867 57.7163 51.236 57.1094 51.1329C56.5848 50.7256 56.4519 50.3072 56.271 49.6803C55.5046 47.2275 54.0658 45.3562 51.7844 44.1405C49.5204 43.0355 47.2035 42.8146 44.7905 43.5418C44.3161 43.7108 43.8656 43.9101 43.4105 44.1245C43.032 44.2814 42.7681 44.3087 42.3672 44.2267C41.8099 43.7591 41.5935 43.3654 41.3877 42.6744C41.0913 41.7826 40.6932 41.1053 40.1094 40.3751C40.0275 40.2657 39.9457 40.1563 39.8614 40.0436C38.8961 38.9104 37.4475 38.0423 35.9922 37.7188Z" fill="white"/>
<path d="M29.8828 54.3204C30.3074 54.5376 30.5002 54.722 30.6626 55.1733C30.728 55.4081 30.7883 55.6444 30.8426 55.882C30.9276 56.2261 30.9276 56.2261 31.3437 56.4454C31.8855 56.5126 31.8855 56.5126 32.3533 56.2804C32.569 56.0094 32.635 55.7916 32.7217 55.4576C32.8975 54.8982 33.0662 54.6068 33.6016 54.3204C34.1277 54.2327 34.3256 54.2719 34.772 54.5694C35.1508 54.9375 35.2196 55.1434 35.2368 55.6568C35.226 56.6114 34.8057 57.499 34.1328 58.172C33.0841 58.9347 32.2371 59.0586 30.9453 58.9689C30.0491 58.7905 29.3118 58.2758 28.7819 57.5339C28.3066 56.7371 28.133 55.9044 28.2891 54.9845C28.6648 54.3982 29.2068 54.191 29.8828 54.3204Z" fill="white"/>
<path d="M44.625 47.5469C45.0563 47.7625 45.242 47.9413 45.3996 48.3998C45.463 48.6345 45.5207 48.8708 45.5718 49.1084C45.6622 49.4236 45.6622 49.4236 45.9396 49.5806C46.345 49.7132 46.6102 49.6598 47.0156 49.5391C47.351 49.2276 47.4191 48.9889 47.5386 48.543C47.69 48.0439 47.7807 47.8375 48.2109 47.5469C48.7769 47.4645 49.0402 47.4814 49.5224 47.7959C49.8946 48.168 49.9314 48.2756 49.979 48.8086C49.9622 49.7327 49.61 50.5659 48.9912 51.249C48.1472 52.0086 47.1661 52.2917 46.0429 52.2472C45.2024 52.1245 44.4282 51.7329 43.8281 51.1328C43.154 50.2059 42.8685 49.3685 43.0312 48.2109C43.468 47.5492 43.8495 47.4222 44.625 47.5469Z" fill="white"/>
<path d="M17.6703 49.8938C18.0325 50.1402 18.0921 50.3893 18.2285 50.8007C18.273 50.9308 18.3175 51.0609 18.3634 51.195C18.4609 51.5311 18.4609 51.5311 18.4609 51.7968C19.2466 51.9705 19.2466 51.9705 19.9799 51.7387C20.1747 51.4193 20.2371 51.2245 20.312 50.8671C20.4016 50.4496 20.4516 50.3375 20.7519 50.0038C21.1855 49.7673 21.4267 49.7424 21.914 49.8046C22.358 49.9649 22.4382 50.0597 22.7109 50.4686C22.8845 51.5866 22.542 52.4485 21.9306 53.3656C21.1621 54.1567 20.3667 54.4616 19.2827 54.5028C18.3225 54.485 17.6407 54.2287 16.9004 53.6229C16.3004 52.8897 15.788 52.1813 15.7798 51.2074C15.7779 51.1062 15.776 51.005 15.774 50.9008C15.8083 50.5658 15.8952 50.3563 16.0703 50.0702C16.5611 49.7196 17.1048 49.7082 17.6703 49.8938Z" fill="white"/>
<path d="M54.8516 52.0626C55.3494 52.3391 55.4884 52.5002 55.6485 53.0504C55.6485 53.5771 55.5754 53.7809 55.2501 54.1876C54.7519 54.5197 54.5118 54.5244 53.9219 54.4532C53.5335 54.1887 53.3017 54 53.2034 53.5272C53.185 53.0992 53.2288 52.7806 53.4322 52.4029C53.8537 52.0126 54.3027 52.0077 54.8516 52.0626Z" fill="white"/>
<path d="M66.4063 44.2266C66.7383 44.4922 66.7383 44.4922 66.9375 44.8906C66.9762 45.4418 66.9355 45.9133 66.5972 46.3599C66.1273 46.5406 65.7006 46.5862 65.211 46.4844C64.8125 46.2105 64.8125 46.2105 64.5469 45.8203C64.4558 45.2536 64.4805 44.996 64.7876 44.5088C65.3064 44.0048 65.7319 44.0609 66.4063 44.2266Z" fill="white"/>
<path d="M60.6953 41.9687C61.019 42.1762 61.019 42.1762 61.2266 42.4999C61.3202 43.1551 61.3289 43.4089 60.9609 43.9609C60.5214 44.2539 60.2772 44.3351 59.7578 44.2986C59.3878 44.1951 59.1586 43.987 58.9392 43.676C58.7401 43.2007 58.8395 42.86 58.9688 42.3671C59.4164 41.7364 59.998 41.8096 60.6953 41.9687Z" fill="white"/>
<path d="M9.30514 40.7055C9.77463 40.8294 9.96176 41.0403 10.2265 41.4375C10.327 41.818 10.3327 42.1203 10.2265 42.5C9.81686 43.0018 9.81686 43.0018 9.42965 43.164C8.95017 43.2065 8.53687 43.1243 8.10983 42.8901C7.87565 42.4631 7.79346 42.0498 7.8359 41.5703C8.11885 40.8949 8.59845 40.6452 9.30514 40.7055Z" fill="white"/>
<path d="M48.0782 57.7734C48.4766 57.9643 48.4766 57.9643 48.7422 58.3046C48.8607 58.8761 48.8464 59.3332 48.5347 59.832C48.1028 60.0978 47.7877 60.1551 47.2813 60.164C46.8499 59.9914 46.6718 59.8573 46.4346 59.4584C46.3317 59.0157 46.3546 58.7403 46.4844 58.3046C46.8854 57.6952 47.395 57.6448 48.0782 57.7734Z" fill="white"/>
<path d="M20.9844 58.9687C21.378 59.2483 21.4934 59.4301 21.6402 59.8901C21.6501 60.3779 21.5394 60.575 21.25 60.9609C20.9844 61.2265 20.9844 61.2265 20.478 61.2846C20.0312 61.2708 19.9161 61.2226 19.5235 60.9609C19.1555 60.4089 19.1642 60.1551 19.2578 59.4999C19.7811 58.8197 20.1636 58.7847 20.9844 58.9687Z" fill="white"/>
<path d="M14.2109 36.2578C14.5513 36.4487 14.5513 36.4487 14.7422 36.789C14.8427 37.3658 14.85 37.8185 14.5264 38.3164C14.1326 38.5651 13.881 38.6391 13.4141 38.6484C12.9411 38.4847 12.6925 38.3712 12.4263 37.9429C12.3057 37.3669 12.3689 36.972 12.6836 36.4736C13.1815 36.15 13.6341 36.1573 14.2109 36.2578Z" fill="white"/>
<path d="M38.2499 48.875C38.5624 49.3045 38.6507 49.5562 38.6401 50.0869C38.4889 50.5506 38.3958 50.7325 37.9843 51C37.4158 51.1024 36.9565 51.0939 36.4487 50.809C36.1643 50.3022 36.1534 49.8409 36.2578 49.2734C36.4929 48.9375 36.6658 48.8016 37.0297 48.6259C37.4948 48.5994 37.8214 48.6958 38.2499 48.875Z" fill="white"/>
</g>
<defs>
<clipPath id="clip0_140_18">
<rect width="68" height="68" fill="white"/>
</clipPath>
</defs>
</svg>
