<svg width="91" height="74" viewBox="0 0 91 74" fill="none" xmlns="http://www.w3.org/2000/svg">
<path d="M30.9082 0.861328L39.6973 9.65039L27.2461 23.0781C24.7233 25.8451 22.4447 28.5713 20.4102 31.2568C18.3757 33.9424 16.748 36.6686 15.5273 39.4355C14.388 42.1211 13.8184 44.888 13.8184 47.7363H8.93555C9.66797 44.5625 11.0514 42.0804 13.0859 40.29C15.2018 38.4183 17.6432 37.4824 20.4102 37.4824C23.1771 37.4824 25.8219 38.2555 28.3447 39.8018C30.8675 41.2666 32.9427 43.3825 34.5703 46.1494C36.1979 48.9163 37.0117 52.1309 37.0117 55.793C37.0117 60.9199 35.3027 65.1924 31.8848 68.6104C28.4668 71.9469 24.235 73.6152 19.1895 73.6152C13.9811 73.6152 9.5459 71.6621 5.88379 67.7559C2.22168 63.7682 0.390625 58.5599 0.390625 52.1309C0.390625 46.2715 1.97754 40.29 5.15137 34.1865C8.3252 28.0016 12.5163 21.9388 17.7246 15.998L30.9082 0.861328ZM81.6895 0.861328L90.4785 9.65039L78.0273 23.0781C75.5046 25.8451 73.2259 28.5713 71.1914 31.2568C69.1569 33.9424 67.5293 36.6686 66.3086 39.4355C65.1693 42.1211 64.5996 44.888 64.5996 47.7363H59.7168C60.4492 44.5625 61.8327 42.0804 63.8672 40.29C65.9831 38.4183 68.4245 37.4824 71.1914 37.4824C73.9583 37.4824 76.6032 38.2555 79.126 39.8018C81.6488 41.2666 83.724 43.3825 85.3516 46.1494C86.9792 48.9163 87.793 52.1309 87.793 55.793C87.793 60.9199 86.084 65.1924 82.666 68.6104C79.248 71.9469 75.0163 73.6152 69.9707 73.6152C64.7624 73.6152 60.3271 71.6621 56.665 67.7559C53.0029 63.7682 51.1719 58.5599 51.1719 52.1309C51.1719 46.2715 52.7588 40.29 55.9326 34.1865C59.1064 28.0016 63.2975 21.9388 68.5059 15.998L81.6895 0.861328Z" fill="#9A9771"/>
</svg>
