<svg width="42" height="42" viewBox="0 0 42 42" fill="none" xmlns="http://www.w3.org/2000/svg">
<g clip-path="url(#clip0_148_62)">
<path d="M31.7666 10.8025C31.8567 10.7994 31.9468 10.7964 32.0396 10.7932C32.6012 10.8631 32.9879 11.2132 33.371 11.6061C33.4367 11.672 33.4367 11.672 33.5038 11.7392C33.6473 11.8832 33.7898 12.0281 33.9324 12.173C34.033 12.2742 34.1336 12.3754 34.2342 12.4764C34.4984 12.742 34.7619 13.0083 35.0252 13.2748C35.446 13.7005 35.8679 14.1252 36.2899 14.5499C36.4363 14.6973 36.5823 14.8451 36.7283 14.993C37.1353 15.4042 37.5436 15.8078 37.9843 16.1834C38.3266 16.4843 38.6457 16.8103 38.9687 17.1317C39.0836 17.2459 39.0836 17.2459 39.2008 17.3624C39.3617 17.5225 39.5224 17.6827 39.6831 17.8431C39.8879 18.0474 40.0934 18.251 40.2992 18.4544C40.4971 18.6504 40.6941 18.8473 40.8913 19.0441C41.0014 19.1527 41.0014 19.1527 41.1137 19.2635C41.6354 19.787 42.046 20.2135 42.0513 20.9898C42.054 21.0826 42.0568 21.1754 42.0596 21.2711C41.903 22.0677 41.2133 22.6415 40.6574 23.1899C40.575 23.272 40.4927 23.3542 40.4104 23.4364C40.2388 23.6076 40.0668 23.7784 39.8945 23.9489C39.6754 24.1657 39.4569 24.3832 39.2388 24.6011C39.0283 24.8111 38.8174 25.0208 38.6066 25.2304C38.5673 25.2695 38.528 25.3087 38.4875 25.349C37.7884 26.0445 37.7884 26.0445 37.413 26.3653C36.998 26.7221 36.6178 27.114 36.2338 27.5033C36.0954 27.6436 35.9566 27.7835 35.8177 27.9234C35.4233 28.3205 35.0292 28.718 34.636 29.1163C34.3943 29.3611 34.152 29.6053 33.9094 29.8491C33.8175 29.9416 33.7258 30.0344 33.6345 30.1274C33.5067 30.2573 33.3782 30.3864 33.2495 30.5154C33.1768 30.5889 33.1041 30.6624 33.0292 30.7381C32.5438 31.1585 32.1337 31.2167 31.5106 31.2004C31.0418 31.1483 30.7622 30.9522 30.449 30.6028C30.1137 30.1335 30.0108 29.6946 30.1055 29.1211C30.3039 28.6048 30.6067 28.2457 30.998 27.8632C31.082 27.7791 31.082 27.7791 31.1678 27.6932C31.3517 27.5096 31.5367 27.3271 31.7217 27.1447C31.8501 27.0169 31.9784 26.8891 32.1066 26.7613C32.443 26.4261 32.7804 26.0919 33.118 25.7579C33.4628 25.4165 33.8067 25.0741 34.1506 24.7318C34.8248 24.0612 35.4999 23.3916 36.1758 22.7227C36.1018 22.7227 36.0278 22.7227 35.9515 22.7227C31.5661 22.7234 27.1807 22.7216 22.7953 22.7165C22.2689 22.7158 21.7424 22.7152 21.216 22.7147C21.1112 22.7145 21.0064 22.7144 20.8984 22.7143C19.2009 22.7125 17.5034 22.7124 15.8059 22.7129C14.0644 22.7134 12.3229 22.7121 10.5814 22.709C9.50665 22.7072 8.43188 22.7068 7.35708 22.7083C6.62028 22.7091 5.8835 22.7082 5.14671 22.7058C4.72146 22.7045 4.29625 22.704 3.87101 22.7057C3.4816 22.7071 3.09226 22.7063 2.70285 22.7038C2.56207 22.7032 2.42129 22.7035 2.28052 22.7047C1.5264 22.7107 0.900148 22.7095 0.32812 22.1485C-0.047958 21.7082 -0.0595842 21.2796 -0.0419815 20.7091C0.0209963 20.2841 0.178665 19.9808 0.492183 19.6875C0.909897 19.4113 1.17371 19.3183 1.68537 19.3177C1.74531 19.3172 1.80526 19.3167 1.86701 19.3162C2.06748 19.3148 2.26787 19.3158 2.46834 19.3168C2.61366 19.3163 2.75897 19.3157 2.90429 19.315C3.3033 19.3133 3.70229 19.3137 4.1013 19.3144C4.5317 19.3148 4.96209 19.3133 5.39248 19.312C6.13806 19.3101 6.88364 19.3094 7.62923 19.3095C8.70722 19.3096 9.7852 19.308 10.8632 19.3059C12.6122 19.3025 14.3611 19.3006 16.1101 19.2996C17.809 19.2986 19.508 19.297 21.207 19.2944C21.3117 19.2942 21.4164 19.2941 21.5243 19.2939C22.0497 19.2931 22.575 19.2923 23.1004 19.2915C27.4588 19.2847 31.8173 19.2802 36.1758 19.2774C36.1034 19.2057 36.0309 19.134 35.9563 19.0601C35.2735 18.3839 34.5915 17.7069 33.9104 17.029C33.5602 16.6805 33.2097 16.3323 32.8585 15.9848C32.5195 15.6494 32.1813 15.3132 31.8437 14.9764C31.7148 14.8481 31.5856 14.7201 31.4562 14.5925C31.2747 14.4134 31.0943 14.2333 30.9141 14.053C30.8606 14.0006 30.807 13.9482 30.7518 13.8942C30.3453 13.484 30.0706 13.0746 30.0696 12.4739C30.0876 11.98 30.2315 11.6132 30.5746 11.2553C30.9623 10.9095 31.2415 10.8141 31.7666 10.8025Z" fill="#1B453C"/>
</g>
<defs>
<clipPath id="clip0_148_62">
<rect width="42" height="42" fill="white"/>
</clipPath>
</defs>
</svg>
