<svg width="76" height="76" viewBox="0 0 76 76" fill="none" xmlns="http://www.w3.org/2000/svg">
<path d="M66.5 40.375V52.25H9.5V14.25H33.25V9.5H9.5C8.24022 9.5 7.03204 10.0004 6.14124 10.8912C5.25044 11.782 4.75 12.9902 4.75 14.25V52.25C4.75 53.5098 5.25044 54.718 6.14124 55.6088C7.03204 56.4996 8.24022 57 9.5 57H28.5V66.5H19V71.25H57V66.5H47.5V57H66.5C67.7598 57 68.968 56.4996 69.8588 55.6088C70.7496 54.718 71.25 53.5098 71.25 52.25V40.375H66.5ZM42.75 66.5H33.25V57H42.75V66.5Z" fill="black"/>
<path d="M71.25 23.75V19H66.2601C65.952 17.5139 65.3619 16.1006 64.5216 14.8366L68.0604 11.2979L64.7021 7.93962L61.1634 11.4784C59.8994 10.6381 58.4861 10.048 57 9.73987V4.75H52.25V9.73987C50.7639 10.048 49.3506 10.6381 48.0866 11.4784L44.5479 7.93962L41.1896 11.2979L44.7284 14.8366C43.8881 16.1006 43.298 17.5139 42.9899 19H38V23.75H42.9899C43.298 25.2361 43.8881 26.6494 44.7284 27.9134L41.1896 31.4521L44.5479 34.8104L48.0866 31.2716C49.3506 32.1119 50.7639 32.702 52.25 33.0101V38H57V33.0101C58.4861 32.702 59.8994 32.1119 61.1634 31.2716L64.7021 34.8104L68.0604 31.4521L64.5216 27.9134C65.3619 26.6494 65.952 25.2361 66.2601 23.75H71.25ZM54.625 28.5C53.2158 28.5 51.8383 28.0821 50.6666 27.2992C49.4949 26.5163 48.5816 25.4035 48.0424 24.1016C47.5031 22.7997 47.362 21.3671 47.6369 19.985C47.9118 18.6029 48.5904 17.3333 49.5869 16.3369C50.5833 15.3404 51.8529 14.6618 53.235 14.3869C54.6171 14.112 56.0497 14.2531 57.3516 14.7924C58.6535 15.3316 59.7663 16.2449 60.5492 17.4166C61.3321 18.5883 61.75 19.9658 61.75 21.375C61.7481 23.2641 60.9968 25.0753 59.6611 26.4111C58.3253 27.7468 56.5141 28.4981 54.625 28.5Z" fill="black"/>
</svg>
