<svg width="101" height="100" viewBox="0 0 101 100" fill="none" xmlns="http://www.w3.org/2000/svg">
<g clip-path="url(#clip0_2772_658)">
<path d="M77.9177 67.7419C83.2564 67.7419 87.5951 63.4032 87.5951 58.0645V54.8387H84.3693C81.8855 54.8387 79.6274 55.7903 77.9177 57.3225V55.5L78.7403 54.6774C80.2726 53.1451 81.1435 51.0322 81.1435 48.8709C81.1435 47.1613 80.6274 45.5161 79.6274 44.129L76.0145 39.0322L72.708 44.3225C71.8855 45.629 71.4661 47.1451 71.4661 48.6774V48.8871C71.4661 51.0484 72.3371 53.1613 73.8693 54.6935L74.6919 55.5161V57.3387C72.9822 55.8064 70.7242 54.8548 68.2403 54.8548H65.0145V58.0806C65.0145 63.4193 69.3532 67.758 74.6919 67.758V74.2096H52.1113V67.758C57.45 67.758 61.7887 63.4193 61.7887 58.0806V54.8548H58.5629C56.079 54.8548 53.8209 55.8064 52.1113 57.3387V55.5161L52.9338 54.6935C54.4661 53.1613 55.3371 51.0484 55.3371 48.8871C55.3371 47.1774 54.8209 45.5322 53.8209 44.1451L50.208 39.0484L46.9016 44.3387C46.079 45.6451 45.6597 47.1613 45.6597 48.6935V48.9032C45.6597 51.0645 46.5306 53.1774 48.0629 54.7096L48.8855 55.5322V57.3548C47.1758 55.8225 44.9177 54.8709 42.4338 54.8709H39.208V58.0967C39.208 63.4355 43.5467 67.7742 48.8855 67.7742V74.2258H26.3048V67.7742C31.6435 67.7742 35.9822 63.4355 35.9822 58.0967V54.8709H32.7564C30.2726 54.8709 28.0145 55.8225 26.3048 57.3548V55.5322L27.1274 54.7096C28.6597 53.1774 29.5306 51.0645 29.5306 48.9032C29.5306 47.1935 29.0145 45.5484 28.0145 44.1613L24.4016 39.0645L21.0951 44.3548C20.2726 45.6613 19.8532 47.1774 19.8532 48.7096V48.9193C19.8532 51.0806 20.7242 53.1935 22.2564 54.7258L23.079 55.5484V57.3709C21.3693 55.8387 19.1113 54.8871 16.6274 54.8871H13.4016V58.1129C13.4016 63.4516 17.7403 67.7903 23.079 67.7903V74.2419H10.1758V77.4677H13.4016V80.6935C11.6274 80.6935 10.1758 82.1451 10.1758 83.9193V96.8225C10.1758 98.5967 11.6274 100.048 13.4016 100.048H87.5951C89.3693 100.048 90.8209 98.5967 90.8209 96.8225V83.9193C90.8209 82.1451 89.3693 80.6935 87.5951 80.6935V77.4677H90.8209V74.2419H77.9177V67.7903V67.7419ZM84.3693 58.0645C84.3693 61.629 81.4822 64.5161 77.9177 64.5161C77.9177 60.9516 80.8048 58.0645 84.3693 58.0645ZM74.6919 48.6613C74.6919 47.7258 74.95 46.8064 75.45 46.0161L76.1919 44.8387L76.9984 45.9838C77.5951 46.8225 77.9177 47.8225 77.9177 48.8709C77.9177 50.1774 77.3855 51.4677 76.45 52.4032L76.3048 52.5484L76.1597 52.4032C75.2242 51.4677 74.6919 50.1935 74.6919 48.8709V48.6613ZM68.2403 58.0645C71.8048 58.0645 74.6919 60.9516 74.6919 64.5161C71.1274 64.5161 68.2403 61.629 68.2403 58.0645ZM58.5629 58.0645C58.5629 61.629 55.6758 64.5161 52.1113 64.5161C52.1113 60.9516 54.9984 58.0645 58.5629 58.0645ZM48.8855 48.6613C48.8855 47.7258 49.1435 46.8064 49.6435 46.0161L50.3855 44.8387L51.1919 45.9838C51.7887 46.8225 52.1113 47.8225 52.1113 48.8709C52.1113 50.1774 51.579 51.4677 50.6435 52.4032L50.4984 52.5484L50.3532 52.4032C49.4177 51.4677 48.8855 50.1935 48.8855 48.8709V48.6613ZM42.4338 58.0645C45.9984 58.0645 48.8855 60.9516 48.8855 64.5161C45.3209 64.5161 42.4338 61.629 42.4338 58.0645ZM32.7564 58.0645C32.7564 61.629 29.8693 64.5161 26.3048 64.5161C26.3048 60.9516 29.1919 58.0645 32.7564 58.0645ZM23.079 48.6613C23.079 47.7258 23.3371 46.8064 23.8371 46.0161L24.579 44.8387L25.3855 45.9838C25.9822 46.8225 26.3048 47.8225 26.3048 48.8709C26.3048 50.1774 25.7726 51.4677 24.8371 52.4032L24.6919 52.5484L24.5467 52.4032C23.6113 51.4677 23.079 50.1935 23.079 48.8709V48.6613ZM16.6274 58.0645C20.1919 58.0645 23.079 60.9516 23.079 64.5161C19.5145 64.5161 16.6274 61.629 16.6274 58.0645ZM74.6919 80.6451V77.4193H77.9177V80.6451H74.6919ZM23.079 80.6451V77.4193H26.3048V80.6451H23.079ZM29.5306 77.4193H32.7564V80.6451H29.5306V77.4193ZM35.9822 77.4193H39.208V80.6451H35.9822V77.4193ZM42.4338 77.4193H45.6597V80.6451H42.4338V77.4193ZM48.8855 77.4193H52.1113V80.6451H48.8855V77.4193ZM55.3371 77.4193H58.5629V80.6451H55.3371V77.4193ZM61.7887 77.4193H65.0145V80.6451H61.7887V77.4193ZM68.2403 77.4193H71.4661V80.6451H68.2403V77.4193ZM16.6274 77.4193H19.8532V80.6451H16.6274V77.4193ZM87.5951 96.7742H13.4016V83.8709H87.5951V96.7742ZM84.3693 80.6451H81.1435V77.4193H84.3693V80.6451Z" fill="#D2AE6D"/>
<path d="M55.3388 6.45117H45.6614C43.8872 6.45117 42.4355 7.90278 42.4355 9.67698V19.3544C42.4355 21.1286 43.8872 22.5802 45.6614 22.5802H55.3388C57.113 22.5802 58.5646 21.1286 58.5646 19.3544V9.67698C58.5646 7.90278 57.113 6.45117 55.3388 6.45117ZM52.113 17.7415V16.3867C53.5162 16.8544 54.6614 17.935 55.2259 19.3544H45.7743C46.3388 17.935 47.4839 16.8544 48.8872 16.3867V17.7415H52.113ZM55.3388 9.67698V14.4512C54.3872 13.7738 53.2904 13.306 52.113 13.0802V11.2899H48.8872V13.0802C47.7097 13.306 46.613 13.7738 45.6614 14.4512V9.67698H55.3388Z" fill="#D2AE6D"/>
<path d="M45.6614 25.8066H42.4355V29.0324H45.6614V25.8066Z" fill="#D2AE6D"/>
<path d="M52.1125 25.8066H48.8867V29.0324H52.1125V25.8066Z" fill="#D2AE6D"/>
<path d="M58.5637 25.8066H55.3379V29.0324H58.5637V25.8066Z" fill="#D2AE6D"/>
<path d="M90.8863 35.4839C92.6282 35.4516 94.0476 34.0161 94.0476 32.2581C94.0476 28.0806 91.4347 24.4516 87.596 23.0323V19.3548C87.596 16.3548 85.5314 13.8548 82.7572 13.129V9.67742H94.0476V6.45161H65.0153V3.22581C65.0153 1.45161 63.5637 0 61.7895 0H39.2089C37.4347 0 35.9831 1.45161 35.9831 3.22581V6.45161H6.95079V9.67742H18.2411V13.129C15.4669 13.8548 13.4024 16.3548 13.4024 19.3548V23.0323C9.5637 24.4516 6.95079 28.0968 6.95079 32.2581C6.95079 34.0161 8.37015 35.4355 10.1121 35.4839L0.837891 47.4032L3.38628 49.3871L14.1927 35.5H25.5153L36.3218 49.3871L38.8701 47.4032L29.596 35.4839C31.3379 35.4516 32.7572 34.0161 32.7572 32.2581C32.7572 28.0806 30.1443 24.4516 26.3056 23.0323V19.3548C26.3056 16.3548 24.2411 13.8548 21.4669 13.129V9.67742H35.9831V32.2581C35.9831 34.0323 37.4347 35.4839 39.2089 35.4839H61.7895C63.5637 35.4839 65.0153 34.0323 65.0153 32.2581V9.67742H79.5314V13.129C76.7572 13.8548 74.6927 16.3548 74.6927 19.3548V23.0323C70.854 24.4516 68.2411 28.0968 68.2411 32.2581C68.2411 34.0161 69.6605 35.4355 71.4024 35.4839L62.1282 47.4032L64.6766 49.3871L75.483 35.5H86.8056L97.6121 49.3871L100.16 47.4032L90.8863 35.4839ZM29.5314 32.2581H10.1766C10.1766 29.1935 12.2411 26.5484 15.2089 25.8064H24.4831C27.4508 26.5484 29.5153 29.1935 29.5153 32.2581H29.5314ZM23.0798 19.3548V22.5806H16.6282V19.3548C16.6282 17.5806 18.0798 16.129 19.854 16.129C21.6282 16.129 23.0798 17.5806 23.0798 19.3548ZM39.2089 32.2581V3.22581H61.7895V32.2581H39.2089ZM77.9185 19.3548C77.9185 17.5806 79.3701 16.129 81.1443 16.129C82.9185 16.129 84.3701 17.5806 84.3701 19.3548V22.5806H77.9185V19.3548ZM76.5153 25.8064H85.7895C88.7572 26.5484 90.8218 29.1935 90.8218 32.2581H71.4669C71.4669 29.1935 73.5314 26.5484 76.4992 25.8064H76.5153Z" fill="#D2AE6D"/>
</g>
<defs>
<clipPath id="clip0_2772_658">
<rect width="99.3226" height="100" fill="white" transform="translate(0.837891)"/>
</clipPath>
</defs>
</svg>
