<svg width="100" height="100" viewBox="0 0 100 100" fill="none" xmlns="http://www.w3.org/2000/svg">
<g clip-path="url(#clip0_2772_648)">
<path d="M98.0392 58.8243C99.1216 58.8243 100 57.9459 100 56.8635V43.138C100 42.0557 99.1216 41.1772 98.0392 41.1772H96.0784V6.86352C96.0784 3.0792 93 0.000770889 89.2157 0.000770889C85.4314 0.000770889 82.3529 3.0792 82.3529 6.86352V41.1772H80.3922C79.3098 41.1772 78.4314 42.0557 78.4314 43.138V47.0596H63.7255V36.0361H65.6863C66.7686 36.0361 67.6471 35.1576 67.6471 34.0753C67.6471 32.9929 66.7686 32.1145 65.6863 32.1145H51.9608V26.0537C59.3196 27.5223 67.3686 20.5929 66.0549 13.04C65.9549 12.4655 65.6059 11.9655 65.1 11.6753C62.649 10.2674 59.6294 10.0772 56.7941 10.9263C56.4176 6.55175 54.2216 1.74979 50.8216 0.181163C50.2922 -0.063935 49.6824 -0.0600134 49.1549 0.190967C45.7549 1.81254 43.5529 6.74783 43.1902 10.9165C40.3647 10.0772 37.3588 10.2694 34.9137 11.6733C34.4078 11.9635 34.0588 12.4635 33.9588 13.038C32.6608 20.4988 40.5471 27.5047 48.0392 26.0459V32.1125H34.3137C33.2314 32.1125 32.3529 32.991 32.3529 34.0733C32.3529 35.1557 33.2314 36.0341 34.3137 36.0341H36.2745V47.0576H21.5686V43.1361C21.5686 42.0537 20.6902 41.1753 19.6078 41.1753H17.6471V6.86352C17.6471 3.0792 14.5686 0.000770889 10.7843 0.000770889C7 0.000770889 3.92157 3.0792 3.92157 6.86352V41.1772H1.96078C0.878431 41.1772 0 42.0557 0 43.138V56.8635C0 57.9459 0.878431 58.8243 1.96078 58.8243H3.92157V88.2361H1.96078C0.878431 88.2361 0 89.1145 0 90.1969V98.04C0 99.1223 0.878431 100.001 1.96078 100.001H98.0392C99.1216 100.001 100 99.1223 100 98.04V90.1969C100 89.1145 99.1216 88.2361 98.0392 88.2361H96.0784V58.8243H98.0392ZM62.2686 14.6733C62.2196 19.4753 56.4255 23.5576 51.8647 21.9714C51.9373 17.0498 57.8137 13.0988 62.2686 14.6733ZM50.0118 4.31842C51.7373 5.91057 53.1373 9.70273 52.9137 12.8576C51.8157 13.6596 50.8235 14.6459 50.0059 15.8067C49.1882 14.6439 48.1941 13.6576 47.0961 12.8537C46.849 9.60665 48.3196 5.89097 50.0118 4.31646V4.31842ZM37.7451 14.6733C41.8784 13.2125 47.9529 16.5263 47.9412 22.0341C43.3824 23.44 37.7941 19.3792 37.7451 14.6733ZM86.2745 6.86352C86.2745 5.24195 87.5941 3.92234 89.2157 3.92234C90.8373 3.92234 92.1569 5.24195 92.1569 6.86352V41.1772H86.2745V6.86352ZM82.3529 45.0988H96.0784V54.9027H82.3529V45.0988ZM48.0392 36.0361V43.138H46.0784C44.9961 43.138 44.1176 44.0165 44.1176 45.0988V68.6282C44.1176 71.8714 46.7569 74.5106 50 74.5106C53.2431 74.5106 55.8824 71.8714 55.8824 68.6282V45.0988C55.8824 44.0165 55.0039 43.138 53.9216 43.138H51.9608V36.0361H59.8039V70.589C59.8039 75.9949 55.4059 80.3929 50 80.3929C44.5941 80.3929 40.1961 75.9949 40.1961 70.589V36.0361H48.0392ZM51.9608 47.0596V68.6282C51.9608 69.7086 51.0804 70.589 50 70.589C48.9196 70.589 48.0392 69.7086 48.0392 68.6282V47.0596H51.9608ZM36.2745 50.9812V70.589C36.2745 78.1576 42.4314 84.3145 50 84.3145C57.5686 84.3145 63.7255 78.1576 63.7255 70.589V50.9812H78.4314V56.8635C78.4314 57.9459 79.3098 58.8243 80.3922 58.8243H82.3529V88.2361H17.6471V58.8243H19.6078C20.6902 58.8243 21.5686 57.9459 21.5686 56.8635V50.9812H36.2745ZM7.84314 6.86352C7.84314 5.24195 9.16275 3.92234 10.7843 3.92234C12.4059 3.92234 13.7255 5.24195 13.7255 6.86352V41.1772H7.84314V6.86352ZM3.92157 45.0988H17.6471V54.9027H3.92157V45.0988ZM7.84314 58.8243H13.7255V88.2361H7.84314V58.8243ZM96.0784 96.0792H3.92157V92.1576H96.0784V96.0792ZM92.1569 88.2361H86.2745V58.8243H92.1569V88.2361Z" fill="#D2AE6D"/>
</g>
<defs>
<clipPath id="clip0_2772_648">
<rect width="100" height="100" fill="white"/>
</clipPath>
</defs>
</svg>
