<svg width="103" height="100" viewBox="0 0 103 100" fill="none" xmlns="http://www.w3.org/2000/svg">
<g clip-path="url(#clip0_2772_673)">
<path d="M100.634 97.3467H0.761719V99.9997H100.634V97.3467Z" fill="#D2AE6D"/>
<path d="M18.0888 85.1119H18.0768C12.6608 85.0655 7.28849 82.0782 4.39011 77.5032C1.46387 72.8843 1.11235 66.7918 3.42575 60.7894C3.64595 60.2204 4.22695 59.8741 4.8305 59.9511C7.57899 60.2999 10.2956 61.3094 12.6873 62.8707C15.079 64.432 17.0965 66.5119 18.5225 68.8876C21.5907 73.9986 21.8679 80.2689 19.2123 84.4924C18.9682 84.8771 18.5437 85.1119 18.0888 85.1119ZM5.54017 62.7526C3.93645 67.6235 4.31848 72.4333 6.63055 76.0825C8.92272 79.6998 13.0614 82.1326 17.334 82.4284C19.0571 79.0459 18.6552 74.2612 16.2476 70.2513C13.9528 66.4296 9.91759 63.6254 5.54017 62.7526Z" fill="#D2AE6D"/>
<path d="M19.6706 82.8193H17.0176V98.6735H19.6706V82.8193Z" fill="#D2AE6D"/>
<path d="M53.4207 94.4397C52.7482 94.4397 52.0809 94.3972 51.4217 94.3124C50.9654 94.254 50.5714 93.9622 50.383 93.543C48.3309 88.9971 49.4638 82.8236 53.2018 78.1809C53.5348 77.7684 53.8889 77.3665 54.255 76.9871C57.7981 73.3101 62.9316 71.1452 67.9882 71.2023C68.5984 71.2089 69.1263 71.6307 69.2656 72.225C70.7353 78.4873 69.5534 84.4738 66.0236 88.6496C63.3985 91.7549 59.5146 93.8229 55.3693 94.323C54.718 94.3999 54.068 94.4397 53.4207 94.4397ZM52.524 91.7562C53.3557 91.8132 54.202 91.7907 55.0483 91.6872C58.5369 91.2654 61.7975 89.533 63.9955 86.9344C66.7851 83.6341 67.8224 78.9224 66.8991 73.8778C62.9104 74.1166 58.9614 75.9206 56.1625 78.8243C55.8508 79.1479 55.5484 79.4915 55.2645 79.843C52.3343 83.4856 51.2811 88.1707 52.524 91.7562Z" fill="#D2AE6D"/>
<path d="M52.0104 82.8193H49.3574V98.6735H52.0104V82.8193Z" fill="#D2AE6D"/>
<path d="M85.7303 94.4385C85.0711 94.4385 84.4131 94.3974 83.7605 94.3125C83.3042 94.2541 82.9115 93.9623 82.7218 93.5431C80.6684 88.9959 81.8013 82.8225 85.5393 78.1797C87.277 76.0215 89.5599 74.2374 92.1426 73.0184C94.7252 71.7993 97.5507 71.1732 100.324 71.2011C100.935 71.2077 101.462 71.6295 101.602 72.2238C103.072 78.4862 101.891 84.4739 98.3598 88.6484C95.2877 92.2803 90.4911 94.4385 85.7303 94.4385ZM84.8628 91.7563C89.1381 92.0482 93.5685 90.2044 96.3343 86.9346C99.1252 83.6356 100.161 78.9239 99.238 73.8793C94.7823 74.1459 90.4009 76.3704 87.606 79.8432C84.6718 83.4857 83.6186 88.1709 84.8628 91.7563Z" fill="#D2AE6D"/>
<path d="M82.7684 85.1119H82.7565C77.3405 85.0655 71.9682 82.0782 69.0698 77.5032C66.1436 72.8843 65.792 66.7918 68.1054 60.7894C68.3256 60.2204 68.9053 59.8741 69.5102 59.9511C72.2587 60.2999 74.9753 61.3094 77.367 62.8707C79.7586 64.432 81.7762 66.5119 83.2022 68.8876C86.2704 73.9986 86.5476 80.2689 83.8907 84.4924C83.6479 84.8771 83.2234 85.1119 82.7684 85.1119ZM70.2212 62.7526C68.6175 67.6235 68.9995 72.4333 71.3116 76.0825C73.6037 79.6998 77.7424 82.1326 82.015 82.4284C83.7381 79.0459 83.3362 74.2612 80.9286 70.2513C78.6324 66.4296 74.5973 63.6254 70.2212 62.7526Z" fill="#D2AE6D"/>
<path d="M84.3502 82.8193H81.6973V98.6735H84.3502V82.8193Z" fill="#D2AE6D"/>
<path d="M50.4278 85.1119H50.4172C48.8719 85.0986 47.3159 84.8506 45.7931 84.3744C44.0806 83.8398 42.4663 83.036 40.9952 81.9841C39.5307 80.9361 38.2679 79.6839 37.2439 78.2606C37.0728 78.0271 36.903 77.7764 36.7292 77.5005C35.2833 75.2163 34.4582 72.6084 34.2805 69.7485C34.0988 66.8369 34.5989 63.8231 35.7675 60.7907C35.9877 60.2204 36.5687 59.8741 37.1736 59.9511C38.9245 60.1739 40.6503 60.6594 42.3044 61.3903C44.0236 62.1517 45.6207 63.1612 47.0546 64.3908C48.5761 65.6974 49.8575 67.2096 50.8643 68.8863C53.9324 73.9973 54.2083 80.2689 51.5527 84.4911C51.3073 84.8785 50.8842 85.1119 50.4278 85.1119ZM37.8806 62.7526C37.1099 65.0793 36.7902 67.3728 36.9268 69.5827C37.0767 71.9916 37.7652 74.179 38.971 76.0825C39.1142 76.3093 39.2509 76.5123 39.3915 76.7046C40.2524 77.8998 41.3082 78.9477 42.5379 79.8272C43.7782 80.7146 45.1405 81.3924 46.5837 81.8434C47.6051 82.1631 48.6411 82.3594 49.6731 82.4297C51.3975 79.0485 50.9943 74.2626 48.5867 70.2526C47.7258 68.82 46.6288 67.5253 45.3235 66.4044C44.0886 65.3446 42.7103 64.4731 41.2286 63.8178C40.1409 63.3349 39.0187 62.9794 37.8806 62.7526Z" fill="#D2AE6D"/>
<path d="M21.0836 94.4394C20.4138 94.4394 19.7452 94.397 19.082 94.3108C18.6257 94.2511 18.233 93.9606 18.0433 93.5414C15.9886 88.9942 17.1201 82.8194 20.8608 78.178C23.0641 75.4401 26.1694 73.3018 29.605 72.1584C31.5815 71.5005 33.6203 71.1768 35.6472 71.1993C36.2573 71.206 36.7853 71.6291 36.9246 72.2234C37.3185 73.9054 37.5281 75.5807 37.5467 77.2044C37.548 77.2906 37.548 77.3887 37.548 77.4856V77.4882C37.5387 81.8059 36.2016 85.6647 33.6813 88.6467C32.8403 89.6389 31.8693 90.5316 30.7962 91.2996C27.9522 93.3384 24.5007 94.4394 21.0836 94.4394ZM20.1856 91.7559C23.3387 91.9748 26.6032 91.041 29.2522 89.1428C30.1489 88.5007 30.958 87.7579 31.6571 86.9342C33.7675 84.4377 34.8871 81.1692 34.8964 77.4856C34.8964 77.406 34.8964 77.3251 34.895 77.2455C34.8818 76.1432 34.7704 75.0157 34.5621 73.8775C33.1786 73.9584 31.7977 74.2251 30.4447 74.6761C27.4866 75.6603 24.8177 77.4949 22.9288 79.8414C19.9933 83.4853 18.94 88.1704 20.1856 91.7559Z" fill="#D2AE6D"/>
<path d="M82.6542 54.3901H2.13899C1.40677 54.3901 0.8125 53.7958 0.8125 53.0636V48.0627C0.8125 45.9788 2.50775 44.2822 4.59299 44.2822H80.2002C82.2841 44.2822 83.9807 45.9775 83.9807 48.0627V53.0636C83.9807 53.7958 83.3864 54.3901 82.6542 54.3901ZM3.46548 51.7371H81.3277V48.0627C81.3277 47.4406 80.8223 46.9352 80.2002 46.9352H4.59299C3.97087 46.9352 3.46548 47.4406 3.46548 48.0627V51.7371Z" fill="#D2AE6D"/>
<path d="M66.5506 46.9355H18.2425C17.5103 46.9355 16.916 46.3412 16.916 45.609V38.3186C16.916 35.8514 18.923 33.8457 21.3889 33.8457H63.4041C65.8714 33.8457 67.8771 35.8527 67.8771 38.3186V45.609C67.8771 46.3412 67.2841 46.9355 66.5506 46.9355ZM19.569 44.2825H65.2241V38.3186C65.2241 37.3145 64.407 36.4987 63.4041 36.4987H21.3889C20.3848 36.4987 19.569 37.3158 19.569 38.3186V44.2825Z" fill="#D2AE6D"/>
<path d="M57.6764 36.4983H27.0385C26.3726 36.4983 25.8101 36.0049 25.7239 35.3456L21.6993 4.88944C21.5362 3.65448 21.9142 2.41023 22.734 1.47373C23.5551 0.537228 24.7397 0 25.9852 0H58.8079C60.0534 0 61.238 0.537228 62.0591 1.47373C62.8802 2.41023 63.2569 3.6558 63.0938 4.88944L60.0203 28.1521L59.0732 35.3098C59.0135 35.7635 58.7243 36.1534 58.3078 36.3431L58.2255 36.3803C58.0531 36.4572 57.8661 36.4983 57.6764 36.4983ZM28.2018 33.8454H56.5913L57.3912 27.8032L60.4646 4.54057C60.5283 4.0564 60.3864 3.58815 60.0654 3.22071C59.743 2.85328 59.2973 2.65165 58.8092 2.65165H25.9852C25.4971 2.65165 25.0514 2.85328 24.729 3.22071C24.4067 3.58815 24.2648 4.0564 24.3298 4.54057L28.2018 33.8454Z" fill="#D2AE6D"/>
<path d="M57.7548 36.4986H57.6779C57.0531 36.4986 56.5132 36.0635 56.3819 35.4533C56.2493 34.8431 56.561 34.2236 57.1287 33.965L57.211 33.9278C57.6474 33.7289 58.1554 33.7819 58.5428 34.0645C58.9301 34.347 59.1344 34.8153 59.0773 35.2915L59.0734 35.3286C58.9924 35.9958 58.426 36.4986 57.7548 36.4986Z" fill="#D2AE6D"/>
<path d="M48.8075 36.4981H35.9843C35.6062 36.4981 35.2468 36.3363 34.9947 36.0551C34.7427 35.7739 34.6233 35.3971 34.6671 35.0217L35.9578 23.7055C36.1222 22.2609 37.3439 21.1719 38.7978 21.1719H45.9953C47.4491 21.1719 48.6695 22.2609 48.8353 23.7055L50.126 35.0217C50.1684 35.3971 50.0491 35.7739 49.7983 36.0551C49.5476 36.3363 49.1855 36.4981 48.8075 36.4981ZM37.4713 33.8451H47.3205L46.1983 24.0066C46.1863 23.9031 46.0988 23.8249 45.9953 23.8249H38.7978C38.693 23.8249 38.6054 23.9031 38.5935 24.0066L37.4713 33.8451Z" fill="#D2AE6D"/>
<path d="M60.9982 9.30273H23.7969V11.9557H60.9982V9.30273Z" fill="#D2AE6D"/>
<path d="M3.46548 53.0635H0.8125V66.6029H3.46548V53.0635Z" fill="#D2AE6D"/>
<path d="M23.5944 53.0635H20.9414V66.6029H23.5944V53.0635Z" fill="#D2AE6D"/>
<path d="M43.7233 53.0635H41.0703V62.6036H43.7233V53.0635Z" fill="#D2AE6D"/>
<path d="M63.8522 53.0635H61.1992V66.6029H63.8522V53.0635Z" fill="#D2AE6D"/>
<path d="M83.9811 53.0635H81.3281V66.6029H83.9811V53.0635Z" fill="#D2AE6D"/>
<path d="M57.7576 36.4615C57.4724 36.4615 57.1899 36.3699 56.9564 36.1922C56.577 35.9043 56.3807 35.4334 56.443 34.9612L57.3902 27.8048C57.4512 27.3392 57.7549 26.9412 58.1874 26.7582L86.228 14.8622C88.5202 13.8899 91.1573 14.0823 93.2836 15.3796L101.601 20.4507C101.983 20.6842 102.221 21.0941 102.236 21.5424C102.249 21.9908 102.037 22.4153 101.67 22.6713L92.956 28.7519C92.6562 28.9615 92.2834 29.0371 91.9253 28.9628C91.5671 28.8885 91.2567 28.6683 91.0657 28.3566L88.2337 23.7285C88.178 23.637 88.0626 23.6011 87.9644 23.6423L58.2829 36.3553C58.1118 36.4256 57.934 36.4615 57.7576 36.4615ZM59.9198 28.9031L59.3786 32.998L86.9178 21.2029C88.2178 20.6457 89.7565 21.1352 90.4953 22.3423L92.5925 25.7686L98.4848 21.6565L91.9027 17.6426C90.5046 16.791 88.7709 16.6636 87.264 17.303L59.9198 28.9031Z" fill="#D2AE6D"/>
</g>
<defs>
<clipPath id="clip0_2772_673">
<rect width="101.475" height="100" fill="white" transform="translate(0.761719)"/>
</clipPath>
</defs>
</svg>
