<svg width="40" height="40" viewBox="0 0 40 40" fill="none" xmlns="http://www.w3.org/2000/svg">
<g clip-path="url(#clip0_155_992)">
<path fill-rule="evenodd" clip-rule="evenodd" d="M10.6704 23.6303L14.8268 22.2437C16.0499 21.8383 17.1877 22.5245 18.3255 23.2037C19.0401 23.6339 20.0677 24.2881 20.9352 24.1459L25.0028 23.4739C26.1939 23.4419 26.8624 24.6686 26.8695 25.7281C27.4455 25.4117 32.7112 22.5032 32.8179 22.4641C34.969 21.6499 36.3095 24.7325 34.9512 25.785C34.9477 25.785 34.9086 25.8134 34.9086 25.8134L21.4152 33.2303C20.7255 33.6108 19.897 33.6357 19.1859 33.2979C17.2019 32.3983 15.1752 31.9503 12.9957 32.2881L13.2268 33.1521C13.4472 33.9841 12.953 34.8374 12.1246 35.0614L8.81791 35.9468C7.98591 36.1672 7.13258 35.673 6.90502 34.8445L4.05346 24.2028C3.83302 23.3708 4.32724 22.5174 5.15569 22.2899L8.46235 21.4046C9.29435 21.1841 10.1477 21.6783 10.3752 22.5068L10.6739 23.6268L10.6704 23.6303ZM18.9761 18.905C18.7948 18.8979 18.649 18.7486 18.649 18.5672C18.649 18.3859 18.7948 18.2366 18.9761 18.2294H24.4268C24.6081 18.2366 24.7539 18.3859 24.7539 18.5672C24.7539 18.7486 24.6081 18.8979 24.4268 18.905H18.9761ZM26.9299 18.905C26.7486 18.8979 26.6028 18.7486 26.6028 18.5672C26.6028 18.3859 26.7486 18.2366 26.9299 18.2294H28.6046C28.7859 18.2366 28.9317 18.3859 28.9317 18.5672C28.9317 18.7486 28.7859 18.8979 28.6046 18.905H26.9299ZM26.2081 11.7192C26.6988 11.9077 27.0864 12.2846 27.289 12.7681H30.0197C30.5744 12.7788 31.0864 12.473 31.3388 11.9823L32.5406 9.74944C32.4944 8.65788 31.5984 7.79744 30.5068 7.79388H17.0739C15.9824 7.79388 15.0864 8.65788 15.0401 9.74944L16.2419 11.9823C16.4979 12.473 17.0099 12.7788 17.561 12.7681H20.2917C20.4944 12.2881 20.8819 11.9077 21.3726 11.7192C22.9192 11.0792 24.6579 11.0792 26.2046 11.7192H26.2081ZM27.2855 13.4401C27.0828 13.9237 26.6952 14.3006 26.2046 14.489C24.6579 15.129 22.9192 15.129 21.3726 14.489C20.8855 14.3006 20.4979 13.9237 20.2917 13.4401H17.561C16.761 13.4472 16.0215 13.0063 15.6481 12.2988L15.033 11.161V18.1939C15.0366 19.3174 15.9468 20.2241 17.0704 20.2312H30.5068C31.6304 20.2277 32.537 19.3174 32.5441 18.1939V11.161L31.929 12.2988C31.5557 13.0099 30.8197 13.4472 30.0161 13.4401H27.2819H27.2855ZM25.9166 12.3237C26.9121 12.8001 26.9121 13.4046 25.9166 13.881C24.5512 14.4357 23.0259 14.4357 21.6606 13.881C20.665 13.4046 20.665 12.8001 21.6606 12.3237C23.0259 11.7726 24.5512 11.7726 25.9166 12.3237ZM26.0979 7.11833V6.649C26.0979 6.24722 25.7708 5.92011 25.369 5.91655H22.2188C21.8135 5.91655 21.4864 6.24722 21.4864 6.649V7.11833H26.1015H26.0979ZM20.8072 7.11833H20.2384V6.649C20.2455 5.561 21.1272 4.67922 22.2152 4.67566H25.3655C26.4535 4.67922 27.3388 5.561 27.3388 6.649V7.11833H26.7699V6.649C26.7699 5.87388 26.1406 5.24455 25.3655 5.241H22.2152C21.4401 5.241 20.8108 5.87033 20.8072 6.649V7.11833ZM19.5664 7.11833H17.0739C15.5806 7.12544 14.3681 8.33433 14.3646 9.83122V18.1974C14.3681 19.6908 15.5806 20.9032 17.0739 20.9068H30.5068C32.0001 20.9032 33.2126 19.6908 33.2161 18.1974V9.83122C33.2126 8.33433 32.0001 7.12544 30.5068 7.12188H28.0108V6.65255C28.0072 5.19122 26.8232 4.00722 25.3619 4.00366H22.2117C20.7504 4.00722 19.5664 5.19122 19.5628 6.65255V7.12188L19.5664 7.11833ZM7.3068 22.4143L8.82502 28.0819C8.8748 28.2632 8.76813 28.4445 8.5868 28.4943C8.40902 28.5405 8.22413 28.4374 8.17435 28.2561L6.65613 22.5886L5.32991 22.9441C4.85702 23.0721 4.57613 23.5592 4.70058 24.0321L7.55213 34.6703C7.68013 35.1432 8.16724 35.4241 8.64013 35.2997L11.9255 34.4179C12.1601 34.361 12.3628 34.2081 12.4837 33.9983C12.6046 33.7885 12.633 33.5397 12.5655 33.305L9.72102 22.681C9.59302 22.2081 9.10591 21.9272 8.63302 22.0517L7.3068 22.4072V22.4143ZM12.8179 31.6374C15.1539 31.257 17.3406 31.7263 19.4597 32.6863C19.9752 32.9388 20.5868 32.9245 21.0881 32.6437L34.5566 25.2374C35.2677 24.6401 34.4784 22.5637 33.0597 23.0899L26.7237 26.5743C26.5495 27.0614 26.1406 27.4241 25.6357 27.5379L21.0561 28.6401C20.8784 28.6792 20.7041 28.5654 20.6615 28.3912C20.6188 28.2134 20.7255 28.0357 20.8997 27.9894L25.5041 26.8801C26.6739 26.5992 26.2508 24.1317 25.0206 24.1459L21.0384 24.8072C19.9824 24.9814 18.9832 24.3806 17.9735 23.7797C16.9637 23.1752 15.961 22.5743 15.033 22.8837L10.841 24.281L12.8144 31.6374H12.8179Z" fill="#5CA9A9"/>
</g>
<defs>
<clipPath id="clip0_155_992">
<rect width="31.4987" height="32" fill="white" transform="translate(4 4)"/>
</clipPath>
</defs>
</svg>
