<svg width="40" height="40" viewBox="0 0 40 40" fill="none" xmlns="http://www.w3.org/2000/svg">
<g clip-path="url(#clip0_160_1374)">
<path d="M35.9228 18.0442L34.542 16.1585C34.4719 16.0604 34.3563 16.0008 34.2336 16.0008H31.84C31.4019 14.7005 30.7466 13.4773 29.909 12.3837C29.895 12.3592 29.8774 12.3417 29.8599 12.3206C29.506 11.865 29.1205 11.4339 28.7069 11.0308C27.2806 9.64286 25.5318 8.61242 23.6394 8.03761V7.16138C23.9583 7.02819 24.2421 6.78635 24.4419 6.46039C24.5225 6.3272 24.5155 6.16247 24.4244 6.03629L23.0436 4.15064C22.9735 4.0525 22.8578 3.99292 22.7352 3.99292H17.2506C17.1279 3.99292 17.0158 4.049 16.9422 4.15064L15.5614 6.03629C15.4703 6.16247 15.4633 6.3272 15.5439 6.46039C15.7436 6.78985 16.0275 7.03169 16.3464 7.16138V8.03761C14.4575 8.61242 12.7157 9.63936 11.2893 11.0238C9.86299 12.4083 8.78009 14.1257 8.14927 16.0008H5.75917C5.63651 16.0008 5.52437 16.0569 5.45077 16.1585L4.07349 18.0442C3.98237 18.1704 3.97536 18.3351 4.05596 18.4683C4.25572 18.7977 4.53959 19.0396 4.8585 19.1693V23.6135C4.8585 23.8238 5.03023 23.9955 5.2405 23.9955H8.15628C8.7871 25.8707 9.87 27.5881 11.2964 28.9725C12.7227 30.357 14.4645 31.3839 16.3534 31.9587V35.6179C16.3534 35.8282 16.5251 35.9999 16.7354 35.9999H23.2644C23.4746 35.9999 23.6464 35.8282 23.6464 35.6179V31.9587C25.5353 31.3839 27.2771 30.357 28.7034 28.9725C28.7385 28.941 28.77 28.906 28.8051 28.8709C28.8191 28.8604 28.8296 28.8499 28.8401 28.8359C28.8401 28.8359 28.8436 28.8288 28.8471 28.8288C30.2069 27.4689 31.2372 25.8076 31.847 23.992H34.7628C34.9731 23.992 35.1448 23.8203 35.1448 23.61V19.1658C35.4637 19.0361 35.7476 18.7907 35.9473 18.4648C36.0279 18.3316 36.0209 18.1669 35.9298 18.0407H35.9263L35.9228 18.0442ZM29.2466 12.7623C29.5796 13.4702 29.5095 14.038 29.3342 14.1642C29.173 14.2764 28.5738 14.1923 27.4418 13.0602C26.846 12.4643 26.1451 11.8825 25.4827 12.1033C24.8239 12.3206 24.6241 13.1828 24.5295 13.8137C24.4664 14.2378 24.4244 14.5953 24.3893 14.9073C24.2071 16.4985 24.1896 16.6282 21.6733 18.0231C21.4175 18.1633 21.2212 18.2124 21.081 18.1669C20.8322 18.0862 20.6184 17.6656 20.4222 17.2451C19.6617 15.6258 19.2306 14.8407 18.5613 14.6199C17.9375 14.4131 17.2786 14.7671 16.3639 15.2578C15.5018 15.7204 14.892 15.5522 14.531 15.3279C14.0684 15.0405 13.7636 14.4972 13.7811 13.9785C13.7881 13.7191 13.8827 13.3651 14.2752 13.1548C14.8815 12.8288 15.3827 12.6361 15.8207 12.4678C16.2132 12.3171 16.5567 12.1839 16.8511 11.9982H23.2679C23.4781 11.9982 23.6499 11.8264 23.6499 11.6161V8.84725C25.8998 9.57978 27.8343 10.9537 29.2501 12.7658H29.2466V12.7623ZM17.9375 6.86346C18.2248 7.12633 18.5893 7.27704 18.9678 7.27704C19.3463 7.27704 19.7108 7.12633 19.9981 6.86346C20.2855 7.12633 20.65 7.27704 21.0285 7.27704C21.407 7.27704 21.7679 7.12633 22.0588 6.86346C22.2936 7.07726 22.5775 7.21745 22.8824 7.25951V11.2271H21.4841V8.66849C21.4841 8.4582 21.3123 8.28646 21.1021 8.28646H18.8977C18.6874 8.28646 18.5157 8.4582 18.5157 8.66849V11.2271H17.1174V7.25601C17.4188 7.21395 17.7027 7.07375 17.9375 6.85995V6.86346ZM19.2762 11.2271V9.04703H20.7166V11.2271H19.2762ZM17.4503 4.764H22.5459L23.6429 6.26411C23.4852 6.42534 23.2924 6.51296 23.0891 6.51296C22.8123 6.51296 22.5565 6.35174 22.3847 6.06784C22.3146 5.95568 22.192 5.88558 22.0588 5.88558C21.9256 5.88558 21.803 5.95568 21.7329 6.06784C21.5612 6.35174 21.3053 6.51296 21.0285 6.51296C20.7516 6.51296 20.4958 6.35174 20.3241 6.06784C20.254 5.95568 20.1313 5.88558 19.9981 5.88558C19.865 5.88558 19.7423 5.95568 19.6722 6.06784C19.5005 6.35174 19.2447 6.51296 18.9678 6.51296C18.6909 6.51296 18.4351 6.35174 18.2634 6.06784C18.1933 5.95568 18.0706 5.88558 17.9375 5.88558C17.8043 5.88558 17.6816 5.95568 17.6115 6.06784C17.4398 6.35174 17.184 6.51296 16.9071 6.51296C16.7039 6.51296 16.5076 6.42534 16.3534 6.26411L17.4503 4.764ZM16.3534 8.84024V11.3988C16.1361 11.5215 15.8663 11.6267 15.5439 11.7493C15.1058 11.9176 14.5626 12.1314 13.9107 12.4748C13.3605 12.7693 13.0311 13.309 13.0136 13.9469C12.989 14.7425 13.4271 15.5347 14.1245 15.9693C14.5591 16.2391 15.4773 16.5896 16.7214 15.9202C17.5169 15.4926 18.0181 15.2367 18.3195 15.3314C18.6839 15.4505 19.0799 16.1761 19.7283 17.557C20.0087 18.1563 20.303 18.7066 20.8427 18.8819C20.9549 18.9169 21.0705 18.9379 21.1897 18.9379C21.449 18.9379 21.7294 18.8538 22.0413 18.6821C23.4046 17.9285 24.1265 17.4764 24.5435 16.9612C24.9816 16.4214 25.0447 15.8501 25.1428 14.9879C25.1779 14.6794 25.2164 14.3325 25.2795 13.9189C25.4232 12.962 25.6685 12.8359 25.7176 12.8218C25.8087 12.7903 26.1101 12.8043 26.8986 13.5929C28.4546 15.1491 29.3202 15.1 29.7688 14.7811C29.9721 14.6374 30.1087 14.4201 30.1823 14.1537C30.5153 14.7355 30.7991 15.3559 31.0304 15.9973H28.749C28.6263 15.9973 28.5142 16.0534 28.4406 16.155L27.0598 18.0407C26.9687 18.1669 26.9617 18.3316 27.0423 18.4648C27.242 18.7942 27.5259 19.0361 27.8448 19.1658V21.9136C26.2047 22.152 25.2199 23.0562 25.0657 24.4897C24.8905 26.1055 25.3846 28.8043 26.7374 29.4527C26.7829 29.4738 26.832 29.4948 26.8811 29.5123C25.9383 30.1923 24.8905 30.7355 23.7585 31.1141C24.0319 30.9774 24.2702 30.753 24.4419 30.4656C24.5225 30.3325 24.5155 30.1677 24.4244 30.0415L23.0436 28.1594C22.9735 28.0613 22.8578 28.0017 22.7352 28.0017H19.7318C19.3919 27.5075 19.0414 26.9116 18.6734 26.2878C17.7622 24.7386 16.823 23.1333 15.656 22.4008C15.0918 22.0468 14.461 21.7314 14.072 22.0678C13.6865 22.4008 13.9002 23.0387 14.1596 23.6205C14.2262 23.7712 14.3979 24.1533 14.468 24.4021C13.6234 24.2479 12.6701 23.4943 12.148 22.5445V19.1658C12.4669 19.0361 12.7507 18.7907 12.9505 18.4648C13.0311 18.3316 13.0241 18.1669 12.933 18.0407L11.5522 16.155C11.4821 16.0569 11.3664 15.9973 11.2438 15.9973H8.95882C10.1889 12.587 12.9014 9.95831 16.3499 8.83673L16.3534 8.84024ZM16.9071 30.5182C16.7039 30.5182 16.5076 30.4306 16.3534 30.2694L17.4503 28.7728H22.5459L23.6429 30.2694C23.4852 30.4306 23.2924 30.5182 23.0891 30.5182C22.8123 30.5182 22.5565 30.357 22.3847 30.0731C22.3146 29.9609 22.192 29.8908 22.0588 29.8908C21.9256 29.8908 21.803 29.9609 21.7329 30.0731C21.5612 30.357 21.3053 30.5182 21.0285 30.5182C20.7516 30.5182 20.4958 30.357 20.3241 30.0731C20.254 29.9609 20.1313 29.8908 19.9981 29.8908C19.865 29.8908 19.7423 29.9609 19.6722 30.0731C19.5005 30.357 19.2447 30.5182 18.9678 30.5182C18.6909 30.5182 18.4351 30.357 18.2634 30.0731C18.1933 29.9609 18.0706 29.8908 17.9375 29.8908C17.8043 29.8908 17.6816 29.9609 17.6115 30.0731C17.4398 30.357 17.184 30.5182 16.9071 30.5182ZM5.95893 16.7684H11.0545L12.1515 18.2685C11.9938 18.4297 11.801 18.5173 11.5977 18.5173C11.3209 18.5173 11.0651 18.3561 10.8933 18.0722C10.8232 17.9601 10.7006 17.89 10.5674 17.89C10.4342 17.89 10.3116 17.9601 10.2415 18.0722C10.0698 18.3561 9.81043 18.5173 9.53357 18.5173C9.25671 18.5173 9.00088 18.3561 8.82915 18.0722C8.75906 17.9601 8.6364 17.89 8.50323 17.89C8.37006 17.89 8.2474 17.9601 8.17731 18.0722C8.00559 18.3561 7.74975 18.5173 7.47289 18.5173C7.19604 18.5173 6.9402 18.3561 6.76848 18.0722C6.69839 17.9601 6.57573 17.89 6.44256 17.89C6.30939 17.89 6.18673 17.9601 6.11664 18.0722C5.94491 18.3526 5.68908 18.5173 5.41222 18.5173C5.20545 18.5173 5.0127 18.4297 4.855 18.2685L5.95543 16.7684H5.95192H5.95893ZM5.62249 19.2639C5.92389 19.2218 6.21126 19.0816 6.44606 18.8678C6.73344 19.1307 7.09791 19.2814 7.4764 19.2814C7.85489 19.2814 8.21586 19.1307 8.50673 18.8678C8.79411 19.1307 9.15858 19.2814 9.53707 19.2814C9.91556 19.2814 10.28 19.1307 10.5674 18.8678C10.8022 19.0816 11.0861 19.2218 11.3875 19.2639V23.2315H9.98916V20.6729C9.98916 20.4626 9.81743 20.2908 9.60716 20.2908H7.3993C7.18903 20.2908 7.0173 20.4626 7.0173 20.6729V23.2315H5.61899V19.2604L5.62249 19.2639ZM8.43314 23.235H7.7848V21.0549H9.22867V23.235H8.43314ZM8.96233 23.9955H11.7695C11.9132 23.9955 12.0428 23.9149 12.1059 23.7958C12.8208 24.5984 13.7776 25.1452 14.6397 25.1942C14.9411 25.2118 15.0918 25.054 15.1584 24.9594C15.4037 24.6054 15.1899 24.0516 14.857 23.3121C14.7308 23.0247 14.6712 22.8424 14.6467 22.7268C14.7623 22.7688 14.9551 22.86 15.253 23.0457C16.2623 23.6801 17.1945 25.2713 18.0181 26.6733C18.2949 27.143 18.5578 27.5916 18.8206 28.0017H17.2576C17.1349 28.0017 17.0228 28.0578 16.9492 28.1594L15.5684 30.0415C15.4773 30.1677 15.4703 30.3325 15.5509 30.4656C15.7261 30.753 15.9644 30.9739 16.2343 31.1141C12.8419 29.9715 10.1784 27.3673 8.96233 23.992V23.9955ZM20.7201 35.2359H19.2797V33.0558H20.7201V35.2359ZM21.4806 35.2359V32.6773C21.4806 32.467 21.3088 32.2952 21.0986 32.2952H18.8942C18.6839 32.2952 18.5122 32.467 18.5122 32.6773V35.2359H17.1139V31.2648C17.4153 31.2227 17.6992 31.0825 17.934 30.8687C18.2213 31.1316 18.5858 31.2823 18.9643 31.2823C19.3428 31.2823 19.7073 31.1316 19.9946 30.8687C20.282 31.1316 20.6465 31.2823 21.025 31.2823C21.4035 31.2823 21.7644 31.1316 22.0553 30.8687C22.2901 31.0825 22.574 31.2227 22.8789 31.2648V35.2359H21.4771H21.4806ZM28.3635 28.247C28.339 28.261 28.3179 28.2786 28.2969 28.2996C27.8238 28.7728 27.4102 28.9305 27.0668 28.7693C26.1977 28.3522 25.658 26.116 25.8262 24.5774C25.9383 23.5294 26.6217 22.895 27.8483 22.6917V23.617C27.8483 23.8273 28.02 23.9991 28.2303 23.9991H31.0375C30.4557 25.6183 29.5375 27.0589 28.367 28.2505L28.3635 28.247ZM32.215 23.235H30.7711V21.0549H32.215V23.235ZM32.9755 23.235V20.6764C32.9755 20.4661 32.8037 20.2943 32.5935 20.2943H30.3856C30.1753 20.2943 30.0036 20.4661 30.0036 20.6764V23.235H28.6053V19.2639C28.9067 19.2218 29.1941 19.0816 29.4289 18.8678C29.7162 19.1307 30.0807 19.2814 30.4592 19.2814C30.8377 19.2814 31.1987 19.1307 31.4895 18.8678C31.7769 19.1307 32.1414 19.2814 32.5199 19.2814C32.8984 19.2814 33.2628 19.1307 33.5502 18.8678C33.785 19.0816 34.0689 19.2218 34.3703 19.2639V23.235H32.972H32.9755ZM34.5841 18.5173C34.3072 18.5173 34.0514 18.3561 33.8796 18.0722C33.8095 17.9601 33.6869 17.89 33.5537 17.89C33.4205 17.89 33.2979 17.9601 33.2278 18.0722C33.0561 18.3561 32.7967 18.5173 32.5199 18.5173C32.243 18.5173 31.9872 18.3561 31.8155 18.0722C31.7454 17.9601 31.6227 17.89 31.4895 17.89C31.3564 17.89 31.2337 17.9601 31.1636 18.0722C30.9919 18.3561 30.7361 18.5173 30.4592 18.5173C30.1823 18.5173 29.9265 18.3561 29.7548 18.0722C29.6847 17.9601 29.562 17.89 29.4289 17.89C29.2957 17.89 29.173 17.9601 29.1029 18.0722C28.9312 18.3526 28.6754 18.5173 28.3985 18.5173C28.1918 18.5173 27.999 18.4297 27.8413 18.2685L28.9417 16.7684H34.0373L35.1343 18.2685C34.9766 18.4297 34.7838 18.5173 34.5805 18.5173H34.5841Z" fill="#5CA9A9"/>
</g>
<defs>
<clipPath id="clip0_160_1374">
<rect width="32" height="32" fill="white" transform="translate(4 4)"/>
</clipPath>
</defs>
</svg>
