<svg width="40" height="40" viewBox="0 0 40 40" fill="none" xmlns="http://www.w3.org/2000/svg">
<g clip-path="url(#clip0_160_1382)">
<path d="M36.4528 18.0735H30.552C30.4056 18.0735 30.2662 18.1334 30.1617 18.239C30.0571 18.3447 30.0013 18.4891 30.0048 18.637V18.6476C30.0048 18.7074 30.0048 18.7638 30.0048 18.8237C30.0048 22.4371 28.0983 25.7759 25.0033 27.5826C21.9083 29.3894 18.0917 29.3894 14.9967 27.5826C11.9017 25.7759 9.99518 22.4407 9.99518 18.8272C9.99518 18.7673 9.99518 18.711 9.99518 18.6511V18.6405C9.99867 18.4891 9.9429 18.3482 9.83834 18.239C9.73378 18.1334 9.59436 18.0735 9.44798 18.0735H3.54721C3.40082 18.0735 3.2614 18.1299 3.16033 18.2355C3.05577 18.3376 3 18.482 3 18.6264V21.5531C3 21.8102 3.17427 22.0321 3.42173 22.092L6.41568 22.8105C6.72588 23.9727 7.18944 25.0927 7.78893 26.1351L6.26581 28.6322C6.13337 28.8505 6.16474 29.1323 6.34598 29.3154L9.89062 32.8972C10.0719 33.0803 10.3507 33.112 10.5668 32.9747L13.1216 31.3863C14.1777 31.9709 15.3069 32.4147 16.4815 32.7L17.1577 35.5703C17.2169 35.8204 17.4365 35.9965 17.6909 35.9965H22.7029C22.9574 35.9965 23.1769 35.8204 23.2362 35.5703L23.9751 32.4253C25.0381 32.0801 26.0524 31.6047 27.0004 31.013L29.712 32.7C29.9281 32.8338 30.207 32.8021 30.3882 32.6225L33.9329 29.0407C34.1106 28.8576 34.1455 28.5758 34.0095 28.3575L32.1414 25.2899C32.5701 24.4059 32.9081 23.4796 33.1417 22.5252L36.5783 21.6975C36.8257 21.6412 37 21.4158 37 21.1587V18.6264C37 18.4785 36.9442 18.3376 36.8397 18.2355C36.7386 18.1299 36.5957 18.0735 36.4528 18.0735ZM35.9056 20.722L32.5596 21.525C32.354 21.5743 32.1971 21.7363 32.1518 21.9441C31.9148 23.0253 31.5349 24.0748 31.0295 25.0574C30.9389 25.23 30.9459 25.4413 31.0469 25.6069L32.8489 28.5617L29.9177 31.5236L27.2862 29.886C27.105 29.7733 26.8749 29.7768 26.6972 29.8965C25.6655 30.5798 24.5432 31.1081 23.3617 31.4603C23.1734 31.5166 23.0305 31.6716 22.9852 31.8618L22.2707 34.8871H18.1231L17.4679 32.1083C17.4191 31.9005 17.2553 31.7385 17.0496 31.6927C15.76 31.4109 14.5227 30.9284 13.383 30.2593C13.2087 30.1572 12.9926 30.1607 12.8218 30.2663L10.3577 31.7984L7.42645 28.8329L8.89728 26.4204C9.00533 26.2443 9.00533 26.0189 8.89728 25.8393C8.21415 24.7158 7.70876 23.4902 7.39508 22.2082C7.34628 22.0075 7.18944 21.849 6.99077 21.7997L4.0979 21.1023V19.1688H8.90077C9.02624 23.0887 11.1698 26.6599 14.5506 28.5829C17.9349 30.5058 22.0651 30.5058 25.4494 28.5829C28.8302 26.6599 30.9738 23.0887 31.0992 19.1688H35.9021V20.7114L35.9056 20.722ZM14.2404 25.3075C15.896 26.6986 17.9802 27.4559 20.1307 27.4523H20.1377C22.2707 27.4629 24.3376 26.681 25.9443 25.2582C26.7843 24.4975 27.4779 23.5888 27.9868 22.5745C28.0007 22.5534 28.0077 22.5322 28.0181 22.5111C28.6281 21.2643 29.0219 19.9225 29.1788 18.5419C29.2136 18.2602 29.0324 17.996 28.7605 17.9326C28.1994 17.7988 27.6487 17.6791 27.1119 17.5664C27.098 17.5628 27.0806 17.5593 27.0631 17.5558C24.9615 17.1085 22.8319 16.8197 20.6918 16.7C21.0474 15.3335 21.497 13.9916 22.0407 12.6885C22.1348 12.6885 22.2289 12.692 22.316 12.692C26.5194 12.692 26.9098 9.52585 27.1956 7.19435C27.3106 6.25753 27.4187 5.37353 27.7289 4.81707C27.8299 4.63745 27.8195 4.41557 27.7079 4.24652C27.5964 4.07395 27.4012 3.97886 27.1956 3.99647C24.843 4.22891 21.7584 5.68346 20.6744 7.91282C20.0505 9.20536 20.1656 10.6 21.009 11.9524C21.0334 11.9877 21.0578 12.0194 21.0857 12.0475L21.1101 12.0722C20.7929 12.8083 20.5002 13.5831 20.2318 14.3966C20.1516 14.291 20.068 14.1853 19.9808 14.0797C20.3259 12.773 20.1481 11.7482 19.4406 10.9452C18.8132 10.2338 17.8757 9.84987 17.0496 9.51176C16.5198 9.33919 16.0284 9.07857 15.5858 8.74047C15.4394 8.59607 15.2268 8.54676 15.0316 8.61016C14.8399 8.67355 14.697 8.8426 14.6621 9.04335C14.3798 10.762 14.8155 13.2309 16.1748 14.4283C16.6906 14.8932 17.3633 15.1503 18.0534 15.1468C18.4194 15.1468 18.7784 15.0834 19.1234 14.9707C19.1618 14.9566 19.2001 14.9425 19.235 14.9214H19.2384C19.4545 15.1961 19.6532 15.4532 19.8275 15.6962C19.7369 16.0167 19.6462 16.3407 19.5626 16.6718C19.2001 16.6718 18.8411 16.6718 18.4961 16.6859C15.5648 16.7845 13.132 17.422 11.2639 18.5807C11.0791 18.6934 10.9815 18.9047 11.0094 19.1195C11.2604 21.525 12.421 23.7402 14.2439 25.3075H14.2404ZM16.8893 13.5972C16.0632 12.8717 15.6659 11.4101 15.6694 10.1175C15.9691 10.269 16.2968 10.4028 16.6314 10.5402C18.1057 11.1424 19.0955 11.6319 19.0502 12.9632C18.6599 12.5054 18.2312 12.0158 17.7641 11.4946C17.6665 11.3819 17.5306 11.3185 17.3842 11.3115C17.2378 11.3044 17.0949 11.3537 16.9869 11.4523C16.8788 11.5509 16.8126 11.6918 16.8056 11.8362C16.7987 11.9841 16.8509 12.1285 16.9485 12.2377C17.5201 12.8717 18.029 13.4598 18.4786 13.9987C17.914 14.136 17.3215 13.9846 16.8858 13.5972H16.8893ZM21.6573 8.40589C22.4101 6.85273 24.5014 5.67993 26.3974 5.25026C26.2615 5.84899 26.1604 6.45475 26.1012 7.06404C25.8223 9.33567 25.5575 11.4876 22.5321 11.5862C23.1421 10.2936 23.9054 9.07857 24.7976 7.96213C24.8952 7.84943 24.944 7.70151 24.9301 7.55359C24.9161 7.40567 24.8464 7.26831 24.7314 7.17322C24.6164 7.07813 24.47 7.03234 24.3201 7.04995C24.1738 7.06756 24.0413 7.14152 23.9472 7.26127C23.0515 8.37419 22.2847 9.5822 21.6573 10.8677C21.2704 10.0929 21.2704 9.18423 21.6503 8.40941L21.6573 8.40589ZM20.1342 26.3429H20.1272C18.8969 26.3394 17.6874 26.0577 16.5791 25.5188C19.6567 23.8776 23.0689 22.9725 26.5473 22.8703C25.1253 25.0469 22.7134 26.35 20.1342 26.3429ZM27.1712 21.7468C23.0724 21.7539 19.0467 22.8281 15.4742 24.8673C14.7039 24.3284 14.0382 23.6522 13.5085 22.8739C17.4226 20.081 22.1104 18.6053 26.8993 18.6617H26.9133C27.2758 18.7356 27.6417 18.8166 28.0181 18.9012C27.8683 19.8838 27.5825 20.8417 27.1712 21.7468ZM22.3962 17.9467C18.9979 18.5525 15.774 19.9084 12.9508 21.9194C12.5535 21.1059 12.2816 20.2395 12.1422 19.3414C14.575 17.9608 18.0116 17.4959 22.3962 17.9467Z" fill="#5CA9A9"/>
</g>
<defs>
<clipPath id="clip0_160_1382">
<rect width="34" height="32" fill="white" transform="translate(3 4)"/>
</clipPath>
</defs>
</svg>
