<!DOCTYPE svg PUBLIC "-//W3C//DTD SVG 1.1//EN" "http://www.w3.org/Graphics/SVG/1.1/DTD/svg11.dtd">
<!-- Uploaded to: SVG Repo, www.svgrepo.com, Transformed by: SVG Repo Mixer Tools -->
<svg fill="#5CA9A9" version="1.1" id="Layer_1" xmlns="http://www.w3.org/2000/svg" xmlns:xlink="http://www.w3.org/1999/xlink" width="800px" height="800px" viewBox="0 0 260 260" enable-background="new 0 0 260 260" xml:space="preserve">
<g id="SVGRepo_bgCarrier" stroke-width="0"/>
<g id="SVGRepo_tracerCarrier" stroke-linecap="round" stroke-linejoin="round"/>
<g id="SVGRepo_iconCarrier"> <path d="M256.85,138.6c-19.23,0-37.45,4.31-53.76,12.02L200.57,170l21.53,21.52l-2.83,2.83L199.92,175l-1.43,11.02l14.56,14.55 l-2.83,2.83l-12.38-12.38L194,220.63l-4.52-29.57l-12.33,12.34l-2.83-2.83l14.41-14.42l-1.65-10.79l-18.98,18.99l-2.83-2.83 l21.06-21.06l-1.42-9.31c-30.99,21.59-51.82,56.74-53.89,96.85H258V138.61C257.62,138.6,257.23,138.6,256.85,138.6z M203.09,117.45 h48.18l-30-35.46h20l-30.91-37.27h20L194,2l-36.36,42.72h20l-30.91,36.37h20.91l-30.91,36.36h48.18v43.7 c5.73-3.99,11.81-7.52,18.18-10.53V117.45z M134.99,199.702c-3.882,7.285-7.126,14.966-9.668,22.97 c-2.562,0.671-5.253,1.036-8.023,1.036c-4.62,0-9.082-0.998-13.02-2.782c-4.04-1.892-8.61-2.994-13.386-2.994 s-9.345,1.102-13.388,2.994c-3.989,1.785-8.399,2.782-13.017,2.782c-4.62,0-9.031-0.998-13.02-2.782 c-4.043-1.892-8.61-2.994-13.386-2.994c-4.725,0-9.294,1.102-13.388,2.994c-3.937,1.785-8.345,2.782-12.939,2.782 c-3.355,0-6.623-0.532-9.671-1.503v-19.499c3.048,0.966,6.316,1.526,9.671,1.526c4.593,0,9.001-1.051,12.939-2.782 c4.093-1.892,8.663-2.994,13.388-2.994c4.777,0,9.343,1.102,13.386,2.994c3.989,1.731,8.399,2.782,13.02,2.782 c4.617,0,9.028-1.051,13.017-2.782c4.042-1.892,8.611-2.994,13.388-2.994s9.346,1.102,13.386,2.994 c3.938,1.731,8.4,2.782,13.02,2.782s9.031-1.051,12.966-2.782C131.781,200.751,133.362,200.168,134.99,199.702z M148.371,179.22 c-1.541-0.238-3.116-0.37-4.717-0.37c-4.725,0-9.292,1.102-13.388,2.994c-3.935,1.785-8.346,2.782-12.966,2.782 s-9.082-0.998-13.02-2.782c-4.04-1.892-8.61-2.994-13.386-2.994s-9.345,1.102-13.388,2.994c-3.989,1.785-8.399,2.782-13.017,2.782 c-4.62,0-9.031-0.998-13.02-2.782c-4.043-1.892-8.61-2.994-13.386-2.994c-4.725,0-9.294,1.102-13.388,2.994 c-3.937,1.785-8.345,2.782-12.939,2.782c-3.355,0-6.623-0.532-9.671-1.503v-19.499c3.048,0.966,6.316,1.526,9.671,1.526 c4.593,0,9.001-1.051,12.939-2.782c4.093-1.892,8.663-2.994,13.388-2.994c4.777,0,9.343,1.102,13.386,2.994 c3.989,1.731,8.399,2.782,13.02,2.782c4.617,0,9.028-1.051,13.017-2.782c4.042-1.892,8.611-2.994,13.388-2.994 s9.346,1.102,13.386,2.994c3.938,1.731,8.4,2.782,13.02,2.782s9.031-1.051,12.966-2.782c4.096-1.892,8.663-2.994,13.388-2.994 c4.777,0,9.343,1.102,13.386,2.994c1.648,0.715,3.372,1.305,5.148,1.762C157.221,168.807,152.602,173.851,148.371,179.22z M119.036,257.382L119.004,258H2v-22h119.818C120.36,242.944,119.412,250.082,119.036,257.382z"/> </g>
</svg>