<svg width="28" height="28" viewBox="0 0 28 28" fill="none" xmlns="http://www.w3.org/2000/svg">
<g clip-path="url(#clip0_159_1219)">
<path fill-rule="evenodd" clip-rule="evenodd" d="M19.8613 3.83488C19.6463 3.70944 19.5746 3.43467 19.6971 3.21963C19.8225 3.00459 20.0973 2.93291 20.3123 3.05536C23.6156 4.96981 25.9034 8.30293 26.4649 12.105C27.3399 12.2901 28 13.0697 28 13.9985C28 15.0677 27.1339 15.9339 26.0646 15.9339C24.9954 15.9339 24.1293 15.0677 24.1293 13.9985C24.1293 13.1055 24.7326 12.3558 25.5539 12.1318C25.0044 8.63744 22.8988 5.59701 19.8583 3.83488H19.8613ZM14.8378 18.5532V17.2122C14.8318 16.8329 15.0319 16.4954 15.3634 16.3102C16.2295 15.8263 16.8597 15.0528 16.8567 13.8611C16.8567 13.2578 16.5641 12.6874 16.1788 12.2304V13.8731C16.1818 14.0164 16.1131 14.1478 16.0085 14.2285L14.3091 15.5366C14.1449 15.6651 13.9179 15.6591 13.7596 15.5366L12.0542 14.2374C11.9317 14.1419 11.869 13.9985 11.878 13.8551V12.1677C11.4598 12.6426 11.1462 13.2339 11.1492 13.8731C11.1492 15.0677 11.7824 15.8323 12.6545 16.3132C12.989 16.4983 13.1891 16.8329 13.1891 17.2151V18.5532C13.7387 18.6517 14.2972 18.6517 14.8437 18.5532H14.8378ZM12.2871 18.3023C11.7197 18.0753 11.1881 17.7348 10.7251 17.2719C8.91819 15.465 8.91819 12.5291 10.7251 10.7221C12.5321 8.9152 15.465 8.9152 17.2749 10.7221C19.0818 12.5291 19.0818 15.465 17.2749 17.2719C16.8209 17.7259 16.2953 18.0663 15.7367 18.2903V17.2122C15.7338 17.1584 15.7517 17.1226 15.7995 17.0957C16.9314 16.4625 17.7557 15.4142 17.7527 13.8581C17.7498 12.6157 16.9314 11.5255 15.9876 10.8356C15.6949 10.6236 15.2589 10.8207 15.2708 11.2239L15.2768 13.6491L14.0284 14.6108L12.774 13.655L12.768 11.1642C12.768 10.8028 12.3558 10.5728 12.0393 10.8117C11.0686 11.5255 10.2413 12.5978 10.2443 13.8731C10.2473 15.4291 11.0805 16.4745 12.2155 17.1046C12.2603 17.1285 12.2842 17.1674 12.2842 17.2181V18.2993L12.2871 18.3023ZM8.4672 14.0015C8.4672 10.9461 10.9461 8.4672 14.0015 8.4672C17.0569 8.4672 19.5358 10.9461 19.5358 14.0015C19.5358 17.0569 17.0569 19.5358 14.0015 19.5358C10.9461 19.5358 8.4672 17.0598 8.4672 14.0015ZM6.90517 11.7615L4.93099 12.3319C4.72192 12.3738 4.56661 12.5559 4.56661 12.774V15.223C4.56661 15.4172 4.69504 15.5994 4.89216 15.6561L6.90517 16.2385C7.03659 16.6537 7.19787 17.0479 7.40096 17.4332L6.40043 19.2431C6.28992 19.4193 6.31083 19.6523 6.46315 19.8046L8.19541 21.5369C8.3328 21.6742 8.55083 21.7131 8.73003 21.6115L10.5638 20.599C10.9491 20.8021 11.3434 20.9634 11.7585 21.0948L12.329 23.069C12.3708 23.2781 12.553 23.4334 12.771 23.4334H15.2201C15.4142 23.4334 15.5964 23.305 15.6531 23.1078L16.2355 21.0948C16.6507 20.9634 17.0449 20.8021 17.4302 20.599L19.2401 21.5996C19.4163 21.7101 19.6493 21.6892 19.8016 21.5369L21.5339 19.8046C21.6713 19.6672 21.7101 19.4462 21.6085 19.267L20.5961 17.4332C20.7991 17.0479 20.9604 16.6537 21.0918 16.2385L23.066 15.6681C23.2751 15.6262 23.4304 15.4441 23.4304 15.226V12.777C23.4304 12.5828 23.302 12.4006 23.1049 12.3439L21.0918 11.7615C20.9604 11.3463 20.7991 10.9521 20.5961 10.5668L21.5966 8.75691C21.7071 8.58069 21.6862 8.34773 21.5339 8.19541L19.8016 6.46315C19.6642 6.32576 19.4462 6.28992 19.267 6.38848L17.4332 7.40096C17.0479 7.19787 16.6537 7.03659 16.2385 6.90517L15.6681 4.93099C15.6262 4.72192 15.4441 4.56661 15.226 4.56661H12.777C12.5828 4.56661 12.4006 4.69504 12.3439 4.89216L11.7615 6.90517C11.3463 7.03659 10.9521 7.19787 10.5668 7.40096L8.75691 6.40043C8.58069 6.28992 8.34773 6.31083 8.19541 6.46315L6.46315 8.19541C6.32576 8.3328 6.28693 8.55083 6.38848 8.73003L7.40096 10.5638C7.19488 10.9491 7.03061 11.3463 6.8992 11.7615H6.90517ZM7.95947 11.4987C7.85792 11.7436 7.77131 11.9945 7.69963 12.2453C7.65781 12.3917 7.54731 12.5111 7.38901 12.5589L5.4656 13.1145V14.8885L7.37109 15.4381C7.52341 15.4769 7.65184 15.5934 7.69664 15.7547C7.81909 16.1997 8.05803 16.8 8.29099 17.1942C8.37461 17.3286 8.38656 17.5049 8.30592 17.6512L7.33824 19.4044L8.59264 20.6588L10.3458 19.6911C10.4802 19.6194 10.6445 19.6134 10.7849 19.6941C11.2388 19.9509 11.7436 20.16 12.2453 20.3004C12.3917 20.3422 12.5111 20.4527 12.5589 20.611L13.1145 22.5344H14.8885L15.4381 20.6289C15.4769 20.4766 15.5934 20.3482 15.7547 20.3034C16.1997 20.1809 16.8 19.942 17.1972 19.709C17.3316 19.6254 17.5078 19.6134 17.6542 19.6941L19.4074 20.6618L20.6618 19.4074L19.6941 17.6542C19.6224 17.5228 19.6164 17.3555 19.6971 17.2151C19.9539 16.7612 20.163 16.2564 20.3034 15.7547C20.3452 15.6083 20.4557 15.4889 20.614 15.4411L22.5374 14.8855V13.1115L20.6289 12.5619C20.4766 12.5231 20.3482 12.4066 20.3034 12.2453C20.1809 11.8003 19.942 11.197 19.709 10.8058C19.6254 10.6714 19.6134 10.4951 19.6941 10.3488L20.6618 8.59563L19.4074 7.34123L17.6542 8.30891C17.5228 8.38059 17.3555 8.38656 17.2151 8.30592C16.7612 8.04907 16.2564 7.84 15.7547 7.69963C15.6083 7.65781 15.4889 7.54731 15.4411 7.392L14.8855 5.46859H13.1115L12.5619 7.37408C12.5231 7.5264 12.4066 7.65483 12.2453 7.69963C11.8003 7.82208 11.2 8.06101 10.8028 8.29397C10.6684 8.3776 10.4922 8.38955 10.3458 8.30891L8.59264 7.34123L7.33824 8.59563L8.30592 10.3488C8.3776 10.4802 8.38357 10.6475 8.30293 10.7878C8.17451 11.0148 8.05803 11.2538 7.95648 11.4987H7.95947ZM14.0015 0C15.0707 0 15.9369 0.866133 15.9369 1.93536C15.9369 3.00459 15.0707 3.87072 14.0015 3.87072C13.1085 3.87072 12.3588 3.26741 12.1348 2.44608C8.64043 2.99563 5.6 5.10123 3.83787 8.14165C3.71243 8.35669 3.43765 8.42837 3.22261 8.30592C3.00757 8.18048 2.93589 7.90571 3.05835 7.69067C4.96981 4.38443 8.30293 2.09664 12.1079 1.53515C12.2901 0.660053 13.0667 0 14.0015 0ZM14.7302 1.20661C14.5451 1.02144 14.2852 0.90496 14.0015 0.90496C13.3922 0.90496 12.9801 1.40075 12.9681 1.9264V1.95328C12.9681 2.20416 13.0637 2.45803 13.2698 2.66709C13.9179 3.3152 15.0289 2.85227 15.0289 1.93835C15.0289 1.65461 14.9154 1.39477 14.7273 1.2096L14.7302 1.20661ZM0 14.0015C0 12.9323 0.866133 12.0661 1.93536 12.0661C3.00459 12.0661 3.87072 12.9323 3.87072 14.0015C3.87072 14.8945 3.26741 15.6442 2.44608 15.8682C2.99563 19.3596 5.10123 22.403 8.14165 24.1681C8.35669 24.2935 8.42837 24.5683 8.30592 24.7834C8.18048 24.9984 7.90571 25.0701 7.69067 24.9476C4.38741 23.0332 2.09963 19.6971 1.53813 15.895C0.66304 15.7099 0.00298667 14.9333 0.00298667 14.0015H0ZM1.20661 13.2698C0.558507 13.9179 1.02144 15.0289 1.93536 15.0289C2.84928 15.0289 3.31221 13.9149 2.66411 13.2698C2.26091 12.8666 1.60683 12.8666 1.20661 13.2698ZM14.0015 28C12.9323 28 12.0661 27.1339 12.0661 26.0646C12.0661 24.9954 12.9323 24.1293 14.0015 24.1293C14.8945 24.1293 15.6442 24.7326 15.8682 25.5539C19.3626 25.0044 22.403 22.8988 24.1651 19.8583C24.2906 19.6433 24.5653 19.5716 24.7804 19.6941C24.9954 19.8195 25.0671 20.0943 24.9446 20.3093C23.0302 23.6126 19.6971 25.9004 15.8921 26.4619C15.7069 27.337 14.9274 27.997 13.9985 27.997L14.0015 28ZM13.2698 26.7934C13.9179 27.4415 15.0289 26.9786 15.0289 26.0646C15.0289 25.1507 13.9149 24.6878 13.2698 25.3359C12.8666 25.7391 12.8666 26.3932 13.2698 26.7934ZM26.0736 12.9681H26.0527C25.8018 12.9681 25.545 13.0637 25.3359 13.2698C24.6878 13.9179 25.1507 15.0289 26.0646 15.0289C26.6351 15.0289 27.095 14.566 27.095 13.9985C27.095 13.3862 26.5963 12.9771 26.0736 12.9681Z" fill="white"/>
</g>
<defs>
<clipPath id="clip0_159_1219">
<rect width="28" height="28" fill="white"/>
</clipPath>
</defs>
</svg>
