<svg width="26" height="24" viewBox="0 0 26 24" fill="none" xmlns="http://www.w3.org/2000/svg">
<g clip-path="url(#clip0_159_1238)">
<path d="M3.72017 15.1747L3.0902 14.8434C2.9402 14.753 2.76021 14.8132 2.67021 14.9638C2.58022 15.1144 2.64022 15.2952 2.79021 15.3855L3.42019 15.7169C3.48018 15.747 3.51018 15.747 3.57018 15.747C3.69018 15.747 3.78017 15.6867 3.84017 15.5964C3.93017 15.4458 3.87017 15.265 3.72017 15.1747Z" fill="white"/>
<path d="M5.27974 16.0181L4.64977 15.6867C4.49977 15.5964 4.31978 15.6566 4.22978 15.8072C4.13979 15.9578 4.19979 16.1386 4.34978 16.2289L4.97976 16.5602C5.03975 16.5904 5.06975 16.5904 5.12975 16.5904C5.24975 16.5904 5.33974 16.5301 5.39974 16.4398C5.45974 16.2892 5.42974 16.1084 5.27974 16.0181Z" fill="white"/>
<path d="M6.81002 16.8615L6.18004 16.5301C6.03005 16.4398 5.85005 16.5 5.76006 16.6506C5.67006 16.8012 5.73006 16.9819 5.88005 17.0723L6.51003 17.4036C6.57003 17.4337 6.60003 17.4337 6.66002 17.4337C6.78002 17.4337 6.87002 17.3735 6.93001 17.2831C7.02001 17.1325 6.96001 16.9217 6.81002 16.8615Z" fill="white"/>
<path d="M8.36959 17.7048L7.73961 17.3735C7.58962 17.2831 7.40962 17.3434 7.31963 17.494C7.22963 17.6446 7.28963 17.8253 7.43962 17.9157L8.0696 18.247C8.1296 18.2771 8.1596 18.2771 8.21959 18.2771C8.33959 18.2771 8.42959 18.2169 8.48958 18.1265C8.54958 17.9458 8.48958 17.7651 8.36959 17.7048Z" fill="white"/>
<path d="M13.1095 19.1205C12.9595 19.0302 12.7795 19 12.6295 18.9699C12.5395 18.8494 12.3895 18.7289 12.2395 18.6386C11.9396 18.488 11.5796 18.4277 11.2496 18.5482C10.9196 18.6386 10.6496 18.8795 10.4696 19.1808C10.2896 19.482 10.2596 19.8434 10.3796 20.1747C10.4696 20.5061 10.7096 20.7771 11.0096 20.9579C11.1596 21.0482 11.3396 21.0783 11.4896 21.1085C11.6096 21.2289 11.7296 21.3494 11.8796 21.4398C12.0595 21.5302 12.2695 21.5904 12.5095 21.5904C12.6295 21.5904 12.7495 21.5603 12.8695 21.5302C13.1995 21.4398 13.4695 21.1988 13.6495 20.8976C13.8295 20.5964 13.8595 20.235 13.7395 19.9036C13.6495 19.5723 13.4095 19.3012 13.1095 19.1205ZM11.8196 20.4759C11.7596 20.2952 11.7896 20.1145 11.8796 19.9338C11.9696 19.7832 12.1195 19.6627 12.2995 19.6024C12.3595 19.7832 12.3295 19.9639 12.2395 20.1446C12.1495 20.2952 11.9996 20.4157 11.8196 20.4759ZM10.9496 19.994C10.8896 19.8133 10.9196 19.6326 11.0096 19.4518C11.0996 19.2711 11.2496 19.1506 11.4296 19.1205C11.4896 19.0904 11.5496 19.0904 11.6396 19.0904C11.7296 19.0904 11.7896 19.1205 11.8796 19.1506C11.6696 19.2711 11.4896 19.4518 11.3696 19.6627C11.2496 19.8735 11.1896 20.1446 11.2196 20.3856C11.0696 20.2651 10.9796 20.1446 10.9496 19.994ZM13.1095 20.6265C13.0195 20.7771 12.8695 20.9277 12.6895 20.9579C12.5395 20.988 12.3895 20.988 12.2395 20.9277C12.4495 20.8073 12.6295 20.6265 12.7495 20.4157C12.8695 20.2048 12.9295 19.9338 12.8995 19.6928C13.0195 19.7832 13.1095 19.9036 13.1695 20.0542C13.2295 20.2651 13.1995 20.4458 13.1095 20.6265Z" fill="white"/>
<path d="M19.6188 0.174725C19.5588 0.0241221 19.3788 -0.0361188 19.2288 0.0241221L8.90919 4.60244C8.8492 4.63256 8.7892 4.6928 8.7592 4.78316C8.7292 4.87352 8.7292 4.93376 8.7592 5.02412L11.4891 11.2289L5.90931 8.21689C5.48933 7.94581 5.03934 7.91569 4.58936 8.03617C4.16938 8.15665 3.80939 8.45786 3.5994 8.84942L0.209529 15.1747C-0.240454 15.988 0.0595349 17.0422 0.899503 17.4639L12.5391 23.7892C12.809 23.9398 13.079 24 13.349 24C13.949 24 14.549 23.6687 14.849 23.0964L17.1589 18.7892H17.1889L25.8285 14.9639C25.8885 14.9338 25.9485 14.8735 25.9785 14.7832C26.0085 14.6928 26.0085 14.6326 25.9785 14.5422L19.6188 0.174725ZM4.76935 8.60846C5.03934 8.5181 5.33933 8.54822 5.60932 8.69882L17.2489 15.0241C17.7889 15.3253 17.9688 15.988 17.6989 16.5L17.6389 16.6205L4.07938 9.24099L4.13938 9.12051C4.25937 8.87954 4.49936 8.69882 4.76935 8.60846ZM16.7389 18.2771L3.17942 10.9277L3.77939 9.78316L17.3389 17.1326L16.7389 18.2771ZM14.279 22.7952C13.979 23.3374 13.319 23.5181 12.809 23.247L1.16949 16.9217C0.629513 16.6205 0.44952 15.9579 0.71951 15.4458L2.87943 11.4398L16.4389 18.7892L14.279 22.7952ZM17.6089 17.9157L18.2088 16.7711C18.6588 15.9579 18.3588 14.9338 17.5489 14.482L22.6787 12.1928C22.8287 12.1326 22.8887 11.9518 22.8287 11.8012C22.7687 11.6506 22.5887 11.5904 22.4387 11.6506L16.8889 14.1205L15.9589 13.6085L22.1087 10.8675C22.2587 10.8073 22.3187 10.6265 22.2587 10.4759C22.1987 10.3253 22.0187 10.2651 21.8687 10.3253L15.2989 13.247L12.3291 11.6506L9.41918 5.02412L19.1988 0.686773L25.2886 14.5121L17.6089 17.9157Z" fill="white"/>
<path d="M13.199 7.85542C13.259 7.9759 13.349 8.03614 13.469 8.03614C13.499 8.03614 13.559 8.03614 13.589 8.00602C13.739 7.94578 13.799 7.76506 13.739 7.61445L13.349 6.71084L14.249 6.31927C14.399 6.25903 14.459 6.07831 14.399 5.92771C14.339 5.7771 14.159 5.71686 14.009 5.7771L13.109 6.16867L12.719 5.26506C12.659 5.11445 12.479 5.05421 12.3291 5.11445C12.1791 5.1747 12.1191 5.35542 12.1791 5.50602L12.569 6.40964L11.6691 6.8012C11.5191 6.86144 11.4591 7.04216 11.5191 7.19277C11.5791 7.31325 11.6691 7.37349 11.7891 7.37349C11.8191 7.37349 11.8791 7.37349 11.9091 7.34337L12.809 6.9518L13.199 7.85542Z" fill="white"/>
<path d="M13.0796 9.90363C13.1396 10.0241 13.2296 10.0843 13.3496 10.0843C13.3796 10.0843 13.4396 10.0843 13.4696 10.0542L20.3694 6.9217C20.5193 6.86146 20.5793 6.68073 20.5193 6.53013C20.4593 6.37953 20.2794 6.31929 20.1294 6.37953L13.2296 9.51206C13.0796 9.5723 13.0196 9.75302 13.0796 9.90363Z" fill="white"/>
<path d="M13.6499 11.1687C13.7099 11.2892 13.7999 11.3494 13.9199 11.3494C13.9499 11.3494 14.0099 11.3494 14.0399 11.3193L20.9397 8.27711C21.0897 8.21687 21.1497 8.03614 21.0897 7.88554C21.0297 7.73494 20.8497 7.6747 20.6997 7.73494L13.7999 10.7771C13.6499 10.8373 13.5899 11.0181 13.6499 11.1687Z" fill="white"/>
<path d="M14.3091 12.4337C14.3691 12.5542 14.4591 12.6144 14.5791 12.6144C14.6091 12.6144 14.6691 12.6144 14.6991 12.5843L21.5088 9.57227C21.6588 9.51203 21.7188 9.33131 21.6588 9.18071C21.5988 9.0301 21.4189 8.96986 21.2689 9.0301L14.4591 12.0422C14.3091 12.1024 14.2491 12.2831 14.3091 12.4337Z" fill="white"/>
</g>
<defs>
<clipPath id="clip0_159_1238">
<rect width="26" height="24" fill="white"/>
</clipPath>
</defs>
</svg>
