<svg width="24" height="24" viewBox="0 0 24 24" fill="none" xmlns="http://www.w3.org/2000/svg">
<g clip-path="url(#clip0_159_1214)">
<path d="M11.998 0C9.69559 0 7.44184 0.658378 5.50913 1.90703C5.20755 2.10162 5.11999 2.50378 5.31456 2.80216C5.50913 3.10378 5.91123 3.19135 6.20957 2.99676C11.184 -0.201081 17.8058 1.24216 21 6.21405C23.3154 9.8173 23.2602 14.4519 20.8606 18L20.6628 16.6054C20.6141 16.2519 20.2833 16.0022 19.9299 16.0541C19.5764 16.1027 19.3267 16.4335 19.3786 16.787L19.7904 19.6897C19.8358 20.0108 20.1082 20.2476 20.4325 20.2476C20.4617 20.2476 20.4941 20.2476 20.5233 20.2411L23.4224 19.8324C23.7791 19.787 24.0288 19.4627 23.9834 19.1059C23.938 18.7492 23.6137 18.4995 23.257 18.5449C23.2505 18.5449 23.244 18.5449 23.2375 18.5449L21.9307 18.7297C25.6469 13.2422 24.2071 5.77946 18.7203 2.0627C16.739 0.72 14.3977 0 11.998 0Z" fill="white"/>
<path d="M17.787 21.0033C12.8158 24.1979 6.19399 22.7579 2.99658 17.786C0.681218 14.1827 0.736346 9.54812 3.13602 6.00001L3.33383 7.39461C3.37923 7.71569 3.65163 7.95245 3.97591 7.95245C4.00509 7.95245 4.03752 7.95244 4.06671 7.94596C4.42017 7.89407 4.66663 7.5665 4.61798 7.21299L4.20615 4.31028C4.15751 3.95677 3.82998 3.71028 3.47652 3.75893L0.577448 4.16758C0.22074 4.21299 -0.0289562 4.54055 0.0196858 4.89407C0.0650851 5.25082 0.392608 5.50055 0.746074 5.4519C0.749317 5.4519 0.755803 5.4519 0.759045 5.4519L2.0659 5.26704C-1.65036 10.7611 -0.213796 18.2206 5.27627 21.9373C9.25195 24.6292 14.4502 24.6908 18.4907 22.093C18.7923 21.8984 18.8798 21.4962 18.6853 21.1978C18.4907 20.8995 18.0886 20.8087 17.7903 21.0033H17.787Z" fill="white"/>
<path d="M11.9987 5.18921C11.642 5.18921 11.3502 5.4811 11.3502 5.83786V6.54164C9.69309 6.80759 8.43164 8.06272 8.43164 9.56759C8.43164 11.5103 10.0693 12.1881 11.8398 12.6292C13.8796 13.1384 14.2687 13.6573 14.2687 14.4325C14.2687 15.4152 13.2504 16.2162 11.9987 16.2162C10.9091 16.2162 9.94603 15.5773 9.76119 14.7341C9.68336 14.3838 9.33963 14.1633 8.9894 14.2379C8.63918 14.3157 8.41867 14.6595 8.49325 15.0097C8.76889 16.2746 9.92333 17.2346 11.3502 17.4616V18.1622C11.3502 18.5189 11.642 18.8108 11.9987 18.8108C12.3554 18.8108 12.6473 18.5189 12.6473 18.1622V17.4584C14.3044 17.1925 15.5658 15.9373 15.5658 14.4325C15.5658 12.4897 13.9282 11.8119 12.1576 11.3708C10.1179 10.8616 9.72876 10.3427 9.72876 9.56759C9.72876 8.58488 10.747 7.7838 11.9987 7.7838C13.0883 7.7838 14.0514 8.42272 14.2363 9.26597C14.3141 9.61624 14.6578 9.83678 15.008 9.76218C15.3583 9.68434 15.5788 9.34056 15.5042 8.99029C15.2286 7.72542 14.0741 6.76543 12.6473 6.5384V5.83786C12.6473 5.4811 12.3554 5.18921 11.9987 5.18921Z" fill="white"/>
</g>
<defs>
<clipPath id="clip0_159_1214">
<rect width="24" height="24" fill="white"/>
</clipPath>
</defs>
</svg>
