<svg width="24" height="24" viewBox="0 0 24 24" fill="none" xmlns="http://www.w3.org/2000/svg">
<g clip-path="url(#clip0_159_1250)">
<path d="M15.3012 10.5292H15.0275C15.0026 10.4598 14.9749 10.3932 14.9445 10.3266L15.1381 10.1323C15.3344 9.9353 15.3344 9.61615 15.1381 9.41911L14.2422 8.51994C14.0459 8.3229 13.7279 8.3229 13.5316 8.51994L13.3381 8.7142C13.2717 8.68368 13.2054 8.65592 13.1362 8.63095V8.3562C13.1362 8.07868 12.9095 7.85111 12.633 7.85111H11.3666C11.0901 7.85111 10.8634 8.07868 10.8634 8.3562V8.63095C10.7943 8.65592 10.7279 8.68368 10.6616 8.7142L10.468 8.51994C10.2717 8.3229 9.95374 8.3229 9.75743 8.51994L8.86158 9.41911C8.66526 9.61615 8.66526 9.9353 8.86158 10.1323L9.05513 10.3266C9.02471 10.3932 8.99706 10.4598 8.97218 10.5292H8.69844C8.42195 10.5292 8.19522 10.7568 8.19522 11.0343V12.3053C8.19522 12.5828 8.42195 12.8104 8.69844 12.8104H8.97218C8.99706 12.8798 9.02471 12.9464 9.05513 13.013L8.86158 13.2073C8.66526 13.4043 8.66526 13.7235 8.86158 13.9205L9.75743 14.8197C9.95374 15.0167 10.2717 15.0167 10.468 14.8197L10.6616 14.6254C10.7279 14.6559 10.7943 14.6837 10.8634 14.7087V14.9834C10.8634 15.2609 11.0901 15.4885 11.3666 15.4885H12.633C12.9095 15.4885 13.1362 15.2609 13.1362 14.9834V14.7087C13.2054 14.6837 13.2717 14.6559 13.3381 14.6254L13.5316 14.8197C13.7279 15.0167 14.0459 15.0167 14.2422 14.8197L15.1381 13.9205C15.3344 13.7235 15.3344 13.4043 15.1381 13.2073L14.9445 13.013C14.9749 12.9464 15.0026 12.8798 15.0275 12.8104H15.3012C15.5777 12.8104 15.8044 12.5828 15.8044 12.3053V11.0343C15.8044 10.7568 15.5805 10.5292 15.304 10.5292H15.3012ZM15.2542 12.2581H14.8284C14.7067 12.2581 14.6017 12.3386 14.5657 12.4552C14.516 12.6217 14.4468 12.7854 14.3666 12.9381C14.3086 13.0463 14.3279 13.1767 14.4137 13.2628L14.715 13.5653L13.8855 14.3978L13.5842 14.0953C13.4984 14.0093 13.3657 13.9899 13.2607 14.0482C13.1058 14.1314 12.9454 14.198 12.7795 14.248C12.6634 14.284 12.586 14.3895 12.5832 14.5116V14.939H11.4109V14.5116C11.4109 14.3895 11.3307 14.284 11.2146 14.248C11.0487 14.198 10.8855 14.1314 10.7335 14.0482C10.6256 13.9926 10.4957 14.0121 10.41 14.0953L10.1086 14.3978L9.27909 13.5653L9.58047 13.2628C9.66619 13.1767 9.68554 13.0435 9.62748 12.9381C9.54453 12.7827 9.47817 12.6217 9.4284 12.4552C9.39245 12.3386 9.28738 12.2609 9.16572 12.2581H8.73992V11.0815H9.16572C9.28738 11.0815 9.39245 11.001 9.4284 10.8844C9.47817 10.7179 9.54453 10.5542 9.62748 10.4015C9.68278 10.2933 9.66342 10.1629 9.58047 10.0768L9.27909 9.77433L10.1086 8.94177L10.41 9.24427C10.4957 9.3303 10.6284 9.34973 10.7335 9.29145C10.8883 9.20819 11.0487 9.14159 11.2146 9.09163C11.3307 9.05555 11.4081 8.9501 11.4109 8.82799V8.40061H12.5832V8.82799C12.5832 8.9501 12.6634 9.05555 12.7795 9.09163C12.9454 9.14159 13.1086 9.20819 13.2607 9.29145C13.3685 9.34973 13.4984 9.3303 13.5842 9.24427L13.8855 8.94177L14.715 9.77433L14.4137 10.0768C14.3279 10.1629 14.3086 10.2961 14.3666 10.4015C14.4496 10.5569 14.516 10.7179 14.5657 10.8844C14.6017 11.001 14.7067 11.0787 14.8284 11.0815H15.2542V12.2581ZM11.9998 9.9908C11.0763 9.9908 10.327 10.7429 10.327 11.6698C10.327 12.5967 11.0763 13.3488 11.9998 13.3488C12.9233 13.3488 13.6726 12.5967 13.6726 11.6698C13.6726 10.7429 12.9233 9.99358 11.9998 9.9908ZM11.9998 12.7965C11.3805 12.7965 10.8772 12.2914 10.8772 11.6698C10.8772 11.0482 11.3805 10.5431 11.9998 10.5431C12.6192 10.5431 13.1224 11.0482 13.1224 11.6698C13.1224 12.2914 12.6192 12.7965 11.9998 12.7965ZM4.75559 5.12031C5.64314 5.09811 6.34268 4.3599 6.32333 3.47184C6.30121 2.58099 5.56573 1.87887 4.68093 1.89829C3.80996 1.91772 3.11319 2.63372 3.11319 3.51069C3.12425 4.40986 3.85973 5.13141 4.75835 5.12308L4.75559 5.12031ZM4.75559 2.44778C5.339 2.46999 5.79522 2.9612 5.7731 3.54677C5.75098 4.13234 5.26158 4.59024 4.67817 4.56804C4.10858 4.54862 3.66066 4.07961 3.66066 3.50791C3.67172 2.91124 4.16112 2.43946 4.75559 2.44778ZM19.2441 5.12031C20.1316 5.09811 20.8312 4.3599 20.8118 3.46906C20.7897 2.57822 20.0542 1.87609 19.1666 1.89552C18.2957 1.91772 17.5989 2.63095 17.5989 3.50791C17.61 4.40708 18.3454 5.12864 19.2441 5.12031ZM19.2441 2.44778C19.8275 2.46999 20.2837 2.9612 20.2616 3.54677C20.2395 4.13234 19.7501 4.59024 19.1666 4.56804C18.5998 4.54584 18.1491 4.07961 18.1491 3.50791C18.163 2.91124 18.6524 2.43946 19.2441 2.44778ZM4.75559 16.3488C3.86803 16.371 3.16849 17.1092 3.18784 18C3.2072 18.8909 3.94545 19.593 4.83301 19.5736C5.70397 19.5514 6.40075 18.8382 6.40075 17.964C6.38969 17.0648 5.6542 16.3433 4.75559 16.3516V16.3488ZM4.75559 19.0186C4.17218 18.9963 3.71596 18.5051 3.73808 17.9196C3.7602 17.334 4.2496 16.8761 4.83301 16.8983C5.39983 16.9177 5.85052 17.3867 5.85052 17.9584C5.83946 18.5551 5.35006 19.0269 4.75559 19.0186ZM19.2441 16.3488C18.3565 16.371 17.657 17.1092 17.6791 18C17.7012 18.8909 18.4367 19.593 19.3243 19.5708C20.1952 19.5486 20.892 18.8354 20.892 17.9612C20.8809 17.062 20.1454 16.3405 19.2468 16.3488H19.2441ZM19.2441 19.0186C18.6607 18.9963 18.2072 18.5051 18.2266 17.9196C18.2487 17.334 18.7381 16.8789 19.3215 16.8983C19.8883 16.9205 20.339 17.3867 20.339 17.9584C20.3279 18.5551 19.8385 19.0269 19.2441 19.0186ZM19.5178 14.4589V9.54122C20.5878 9.48016 21.6054 9.05555 22.4044 8.33955C22.4404 8.32012 22.4708 8.2896 22.4957 8.25629C24.4118 6.45241 24.5086 3.43298 22.7113 1.50976C20.9141 -0.413455 17.9058 -0.510588 15.9897 1.2933C15.4229 1.82891 14.9943 2.49219 14.7427 3.23317H9.25973C8.41089 0.738256 5.70674 -0.593844 3.22102 0.258145C0.73531 1.11013 -0.591879 3.82151 0.256969 6.31642C0.508582 7.05463 0.937154 7.72068 1.50397 8.25629C1.52886 8.2896 1.55927 8.32012 1.59522 8.33955C2.3943 9.05555 3.41181 9.48016 4.48185 9.54122V14.4589C1.85789 14.6115 -0.143952 16.8678 0.00812138 19.5014C0.0772458 20.7225 0.613651 21.8715 1.50397 22.7096C1.52886 22.7429 1.55927 22.7734 1.59522 22.7928C3.39522 24.4052 6.11596 24.4052 7.91596 22.7928C7.9519 22.7734 7.98231 22.7429 8.0072 22.7096C9.22379 21.569 9.75466 19.8733 9.40904 18.2387H14.5878C14.2422 19.8733 14.7759 21.569 15.9897 22.7096C16.0146 22.7429 16.045 22.7734 16.0809 22.7928C17.8809 24.4052 20.6017 24.4052 22.4017 22.7928C22.4376 22.7734 22.468 22.7429 22.4929 22.7096C24.409 20.9057 24.5058 17.8863 22.7113 15.963C21.8763 15.0694 20.7344 14.5338 19.515 14.4617L19.5178 14.4589ZM17.5077 7.87609C17.3556 7.87609 17.2339 8.00098 17.2339 8.15084V8.48109C16.9685 8.33678 16.7224 8.16194 16.4929 7.9649V7.30995C16.5067 6.56619 17.1178 5.9723 17.8588 5.98617H20.6266C21.3676 5.97507 21.9786 6.56619 21.9925 7.30995V7.9649C21.7657 8.16194 21.5169 8.33678 21.2514 8.48109V8.15084C21.2514 7.9982 21.127 7.87609 20.9749 7.87609C20.8229 7.87609 20.7012 7.9982 20.7012 8.15084V8.73363C19.7584 9.08331 18.7215 9.08331 17.7786 8.73363V8.15084C17.7786 7.9982 17.657 7.87609 17.5049 7.87609H17.5077ZM19.2441 0.549542C21.5666 0.549542 23.4496 2.43668 23.4524 4.76786C23.4524 5.71975 23.1344 6.6439 22.5454 7.39043V7.31272C22.5316 6.2637 21.6717 5.42281 20.6266 5.43668H17.8588C16.8137 5.42558 15.9565 6.2637 15.9427 7.31272V7.39043C14.5021 5.56157 14.8118 2.90847 16.6312 1.46259C17.3749 0.871466 18.2957 0.552317 19.2441 0.552317V0.549542ZM0.547292 4.77341C0.547292 2.44223 2.42748 0.549542 4.75282 0.546767C7.0754 0.546767 8.96112 2.43391 8.96388 4.76786C8.96388 5.71975 8.64591 6.6439 8.05697 7.39043V7.31272C8.04314 6.2637 7.186 5.42558 6.14084 5.43668H3.3731C2.32794 5.42558 1.47079 6.2637 1.45697 7.31272V7.39043C0.868029 6.64667 0.547292 5.72531 0.550057 4.77341H0.547292ZM6.49199 7.87609C6.33992 7.87609 6.21826 8.00098 6.21826 8.15084V8.73363C5.2754 9.08331 4.23854 9.08331 3.29568 8.73363V8.15084C3.29568 7.9982 3.17126 7.87609 3.02195 7.87609C2.87264 7.87609 2.74821 8.00098 2.74821 8.15084V8.48109C2.48278 8.33678 2.23669 8.16194 2.0072 7.9649V7.30995C2.02102 6.56619 2.63208 5.9723 3.37586 5.98617H6.14361C6.88462 5.97507 7.49568 6.56619 7.5095 7.30995V7.9649C7.28278 8.16194 7.03393 8.334 6.77126 8.48109V8.15084C6.77126 7.9982 6.64683 7.87609 6.49752 7.87609H6.49199ZM3.29291 23.1869V22.6041C3.29291 22.4515 3.16849 22.3294 3.01918 22.3294C2.86987 22.3294 2.74545 22.4543 2.74545 22.6041V22.9344C2.48001 22.7901 2.23393 22.618 2.00443 22.4182V21.7632C2.01826 21.0195 2.62932 20.4256 3.3731 20.4395H6.14084C6.88185 20.4284 7.49291 21.0195 7.50674 21.7632V22.4182C7.28001 22.6152 7.03116 22.7901 6.76849 22.9344V22.6041C6.76849 22.4515 6.64407 22.3294 6.49476 22.3294C6.34545 22.3294 6.22102 22.4543 6.22102 22.6041V23.1869C5.27817 23.5366 4.2413 23.5366 3.29844 23.1869H3.29291ZM8.05697 21.8409V21.7632C8.04314 20.7142 7.186 19.8761 6.14084 19.8872H3.3731C2.32794 19.8761 1.47079 20.7142 1.45697 21.7632V21.8409C0.0164163 20.0149 0.323329 17.359 2.14545 15.9131C2.88923 15.322 3.8072 15.0028 4.75559 15.0028C7.07817 15.0028 8.96112 16.89 8.96388 19.2211C8.96388 20.173 8.64591 21.0972 8.05697 21.8437V21.8409ZM9.25697 17.6837C8.62932 15.8465 6.95927 14.5727 5.02932 14.4589V9.54122C6.09937 9.48016 7.11688 9.05555 7.91596 8.33955C7.9519 8.32012 7.98231 8.2896 8.0072 8.25629C9.22102 7.11568 9.7519 5.42003 9.40904 3.78543H14.5878C14.2422 5.42003 14.7759 7.11568 15.9897 8.25629C16.0146 8.2896 16.045 8.32012 16.0809 8.33955C16.88 9.05555 17.8975 9.47739 18.9648 9.54122V14.4589C17.0348 14.5727 15.3648 15.8465 14.7372 17.6837H9.25697ZM17.7814 23.1869V22.6041C17.7814 22.4515 17.657 22.3294 17.5049 22.3294C17.3528 22.3294 17.2312 22.4515 17.2312 22.6041V22.9344C16.9657 22.7901 16.7196 22.618 16.4901 22.4182V21.7632C16.504 21.0195 17.115 20.4256 17.856 20.4395H20.6238C21.3648 20.4284 21.9759 21.0195 21.9897 21.7632V22.4182C21.763 22.6152 21.5141 22.7873 21.2514 22.9344V22.6041C21.2514 22.4515 21.127 22.3294 20.9749 22.3294C20.8229 22.3294 20.7012 22.4515 20.7012 22.6041V23.1869C19.7584 23.5366 18.7215 23.5366 17.7786 23.1869H17.7814ZM22.5427 21.8409V21.7632C22.5289 20.7142 21.669 19.8733 20.6238 19.8872H17.856C16.8109 19.8761 15.9537 20.7142 15.9399 21.7632V21.8409C14.4994 20.0121 14.809 17.359 16.6284 15.9131C17.3722 15.322 18.2929 15.0028 19.2413 15.0028C21.5639 15.0028 23.4468 16.89 23.4496 19.2211C23.4496 20.173 23.1316 21.0944 22.5427 21.8409Z" fill="white"/>
</g>
<defs>
<clipPath id="clip0_159_1250">
<rect width="24" height="24" fill="white"/>
</clipPath>
</defs>
</svg>
