<svg width="24" height="24" viewBox="0 0 24 24" fill="none" xmlns="http://www.w3.org/2000/svg">
<g clip-path="url(#clip0_159_1225)">
<path d="M19.7478 8.31117C19.7478 8.31117 19.7375 8.28789 19.7297 8.27496H19.7271C19.6366 8.08619 19.5383 7.89742 19.4323 7.71123C18.2968 5.74593 16.4268 4.31074 14.236 3.71856C12.0427 3.12897 9.70448 3.43152 7.73617 4.56157H7.73358C7.73358 4.56157 7.71806 4.56674 7.7103 4.57191C6.96022 5.00635 6.27739 5.55198 5.69026 6.19071C5.67991 6.19846 5.66957 6.20881 5.65922 6.21915C5.65663 6.22432 5.65146 6.22949 5.64887 6.23467C3.65987 8.42753 2.94082 11.4893 3.74781 14.339C3.74781 14.3519 3.75298 14.3622 3.75557 14.3752C4.42805 16.6973 6.04719 18.629 8.21725 19.6944C10.3873 20.7598 12.9066 20.8633 15.1568 19.9763C15.1749 19.9711 15.193 19.9634 15.2085 19.9556C17.4045 19.0712 19.1348 17.318 19.9935 15.1147C20.8548 12.9089 20.7643 10.4471 19.7478 8.31117ZM14.0368 4.41417H14.0317C16.0233 4.94687 17.7278 6.24242 18.7701 8.02413H18.7675C17.5803 7.85604 16.8354 7.50953 16.2767 7.24835C14.8387 6.57601 14.399 6.37172 12.1539 9.4619C11.9418 9.7567 11.7685 10.0437 11.6159 10.2997C11.5073 10.4989 11.3831 10.6902 11.246 10.8712C11.0081 11.1609 10.708 11.1583 9.87002 10.4808C9.36048 10.0644 8.78628 10.1704 8.29485 10.261C8.05948 10.3023 7.86549 10.3385 7.85773 10.2791C7.76203 9.74894 7.7103 9.21107 7.69996 8.67061C7.67668 7.74485 7.66892 7.46815 6.4662 6.42861C8.45004 4.45555 11.3366 3.68753 14.0368 4.41417ZM4.61428 14.6751C5.15227 14.732 5.56869 14.7708 5.87648 14.7967C6.1998 14.8277 6.38861 14.8432 6.48431 14.8613C6.55156 15.0501 6.6964 15.3759 7.33009 15.9345C7.86549 16.4025 8.25864 16.2784 8.62333 16.1646C8.86646 16.0896 9.08373 16.0198 9.52084 17.1163C9.62948 17.3878 8.90009 18.1248 8.7061 19.1281C6.80245 18.2489 5.33074 16.6456 4.61428 14.6751ZM9.96831 19.5832C9.77173 19.5315 9.58033 19.472 9.39411 19.4074C9.44842 18.9445 9.67862 18.5308 9.87519 18.1791C10.1468 17.6955 10.3718 17.2947 10.1933 16.8499C9.50791 15.1303 8.9932 15.2932 8.41124 15.4742C8.23277 15.5337 8.03879 15.5931 7.80859 15.3914C7.27319 14.9208 7.19818 14.7036 7.1568 14.5846C7.09213 14.4036 7.05592 14.3002 6.82573 14.2045C6.6783 14.145 6.45327 14.1243 5.94632 14.0804C5.60749 14.0493 5.12382 14.0054 4.38667 13.9226C3.77109 11.4815 4.36339 8.893 5.97736 6.95873C6.95764 7.81208 6.96281 8.01378 6.9835 8.6913C6.99385 9.26537 7.04816 9.83686 7.14904 10.4032C7.37923 11.7246 8.78369 10.5221 9.41997 11.0393C10.7158 12.0892 11.2745 11.9858 11.8099 11.3264C12.0892 10.985 12.3996 10.367 12.7462 9.88341C14.6421 7.2768 14.9525 7.42161 15.9741 7.89742C16.657 8.21549 17.5881 8.65251 19.1736 8.79215C19.4762 9.46966 19.6831 10.186 19.7866 10.9204C17.1458 9.97133 16.3078 10.7213 15.8267 11.903C15.7129 12.1926 15.6146 12.49 15.5318 12.79C15.356 13.3977 15.1697 14.0261 14.7714 14.4502C13.9308 14.5407 13.6696 15.2001 13.4161 15.8466C13.3126 16.1052 13.2092 16.3637 13.0773 16.5267C12.5238 17.1964 12.2625 17.9774 12.5962 18.6937C12.8031 19.141 13.1937 19.4643 13.6747 19.6763C12.4513 19.9401 11.1814 19.9091 9.97348 19.5832H9.96831ZM18.602 16.2526C17.7329 17.5998 16.4707 18.6497 14.9887 19.26V19.2652C13.5325 19.1359 12.5393 18.3084 13.6308 16.987C14.1713 16.3327 14.1662 15.1872 14.9344 15.1665C15.0223 15.1665 15.1077 15.1303 15.1697 15.0708C16.0284 14.2795 16.1112 13.1055 16.4862 12.1745C16.838 11.316 17.5131 10.804 19.8487 11.7168C19.9082 13.3201 19.4711 14.9027 18.602 16.2526Z" fill="white"/>
<path d="M7.37451 1.71704C7.19604 1.78169 6.99688 1.69894 6.91928 1.52568C6.84169 1.34984 6.91153 1.14814 7.07965 1.05763L7.59694 0.840412C7.68747 0.799037 7.79093 0.796451 7.88404 0.832654C7.97716 0.868857 8.04958 0.943849 8.08579 1.03694C8.122 1.13004 8.11941 1.23347 8.07544 1.32398C8.03406 1.41449 7.95647 1.48431 7.86077 1.51534L7.37192 1.71963L7.37451 1.71704Z" fill="white"/>
<path d="M23.7359 9.49038C23.7203 9.3947 23.6634 9.30936 23.5833 9.25506C23.5005 9.20075 23.4022 9.18007 23.3065 9.20075C23.2082 9.22144 23.1254 9.28092 23.0737 9.36367C23.022 9.44642 23.0065 9.54727 23.0297 9.64295C23.4901 11.8125 23.3065 14.0726 22.4943 16.1388C22.215 16.0612 21.9176 16.0871 21.6537 16.206C21.2787 16.3638 20.9295 16.6922 20.6295 17.1654C20.076 18.0369 19.9363 19.4695 19.8303 20.5038C19.8147 20.6461 19.8846 20.7831 20.0087 20.8529C20.0656 20.8866 20.1277 20.9047 20.1924 20.9047C20.2648 20.9047 20.3372 20.8814 20.3993 20.8374C20.5131 20.765 20.645 20.6797 20.7873 20.5892C21.5736 20.1004 22.5926 19.4591 23.0634 18.717C23.366 18.2437 23.5186 17.7912 23.5057 17.3878C23.4953 17.0568 23.3608 16.7413 23.1254 16.5086C23.4798 15.632 23.7307 14.714 23.8704 13.7778C24.0824 12.3504 24.0359 10.9023 23.7359 9.49038ZM22.4581 18.3265C22.1115 18.8695 21.3175 19.4048 20.6321 19.8367C20.7329 19.0169 20.8881 18.1041 21.2399 17.5507C21.5373 17.0853 21.9977 16.6146 22.484 16.9172C22.4918 16.9223 22.4969 16.9249 22.5047 16.9275C22.9884 17.2507 22.7582 17.8533 22.4581 18.3265Z" fill="white"/>
<path d="M9.02658 1.12227C8.93088 1.15848 8.82484 1.1533 8.73172 1.10676C8.63861 1.06021 8.57136 0.97746 8.5455 0.879195C8.51705 0.78093 8.53515 0.674907 8.59205 0.589571C8.64637 0.50165 8.7369 0.444759 8.83777 0.429244C9.49474 0.248229 10.1646 0.124104 10.8423 0.0594559C10.9432 0.0413544 11.044 0.0672136 11.1242 0.12669C11.2044 0.188752 11.2561 0.27926 11.2665 0.380111C11.2768 0.480962 11.2432 0.579227 11.176 0.656805C11.1087 0.731797 11.013 0.775758 10.9121 0.775758C10.2759 0.83782 9.64475 0.951601 9.02917 1.12227H9.02658Z" fill="white"/>
<path d="M11.9155 0.724073C11.7163 0.724073 11.5534 0.563745 11.5508 0.364628C11.5508 0.165512 11.7111 1.26341e-05 11.9103 1.26341e-05C13.0975 -0.00774515 14.2769 0.16034 15.4124 0.496511C15.5133 0.514612 15.6012 0.576675 15.6529 0.66201C15.7073 0.749932 15.7202 0.853369 15.6917 0.951634C15.6633 1.0499 15.5935 1.13006 15.5029 1.17402C15.4098 1.22057 15.3038 1.22316 15.2107 1.18695C14.1399 0.87147 13.0303 0.713729 11.9129 0.721487L11.9155 0.724073Z" fill="white"/>
<path d="M16.2349 1.55158C16.0487 1.47659 15.9582 1.26454 16.0332 1.08094C16.1082 0.897341 16.3177 0.804247 16.5039 0.879239C19.6672 2.16445 22.1347 4.73486 23.2909 7.944C23.3323 8.03709 23.3349 8.14311 23.2961 8.23621C23.2573 8.3293 23.1797 8.40171 23.084 8.43532C22.9883 8.46894 22.8848 8.46377 22.7943 8.41464C22.7037 8.3655 22.6391 8.28534 22.6132 8.18707C21.5269 5.16929 19.2068 2.75662 16.2349 1.54641V1.55158Z" fill="white"/>
<path d="M15.0226 22.8777C15.2114 22.8389 15.3976 22.9527 15.4468 23.1363C15.4985 23.3199 15.395 23.5138 15.2166 23.5759C14.3656 23.8112 13.494 23.9534 12.612 24C12.5137 24.0129 12.4128 23.9819 12.3352 23.9172C12.2576 23.8526 12.2111 23.7569 12.2085 23.6586C12.2033 23.5578 12.2395 23.4595 12.3094 23.3897C12.3792 23.3173 12.4775 23.2785 12.5784 23.2811C13.406 23.2397 14.226 23.1053 15.0226 22.8829V22.8777Z" fill="white"/>
<path d="M11.4352 23.2734C11.6241 23.2966 11.7637 23.4621 11.7534 23.6509C11.743 23.8397 11.5878 23.9923 11.3964 23.9948C10.3489 23.9405 9.31174 23.7492 8.31077 23.4285C8.21248 23.4027 8.1323 23.3406 8.08316 23.2527C8.03402 23.1648 8.02367 23.0613 8.05471 22.9656C8.08574 22.87 8.15299 22.7924 8.24352 22.7484C8.33405 22.707 8.43751 22.7019 8.53062 22.7381C9.46951 23.0406 10.4446 23.2191 11.4327 23.2708L11.4352 23.2734Z" fill="white"/>
<path d="M7.27014 22.2493C7.44084 22.3398 7.51068 22.5467 7.4305 22.72C7.35032 22.8958 7.14857 22.976 6.96752 22.9062C4.79228 21.8976 2.96881 20.2633 1.72988 18.2153C1.67557 18.1325 1.66005 18.0317 1.68333 17.9386C1.70661 17.8429 1.76609 17.7627 1.84886 17.711C1.93163 17.6593 2.0325 17.6464 2.1282 17.6722C2.2239 17.6981 2.30408 17.7602 2.35064 17.8455C3.51456 19.772 5.22681 21.3055 7.27014 22.2519V22.2493Z" fill="white"/>
<path d="M4.05006 3.03331C3.92591 2.9609 3.77331 2.96866 3.6595 3.04882C3.5457 3.12382 3.4112 3.20915 3.26894 3.29707C2.48524 3.79099 1.46616 4.42971 0.992835 5.17187C0.692802 5.6451 0.537613 6.09505 0.553132 6.50104C0.560892 6.82945 0.692802 7.14493 0.928172 7.37508C-0.349551 10.4342 -0.305581 13.8813 1.04456 16.9068C1.13768 17.0697 1.33684 17.137 1.50755 17.0594C1.67825 16.9844 1.76361 16.7904 1.70412 16.6146V16.6094C0.452259 13.7985 0.397943 10.5971 1.55927 7.74487C1.66791 7.7759 1.78171 7.78883 1.89293 7.78883C2.06881 7.78883 2.24211 7.75263 2.40506 7.68281C2.77751 7.52765 3.12668 7.19407 3.42672 6.72343C3.98023 5.85197 4.1199 4.41678 4.22594 3.38241C4.24146 3.24277 4.17163 3.10571 4.05006 3.03331ZM2.81889 6.33554C2.51886 6.80618 2.05329 7.2794 1.56186 6.96392C1.06784 6.64585 1.29804 6.03557 1.60066 5.55976C1.94725 5.01672 2.7413 4.4866 3.42413 4.05216H3.42672C3.32584 4.8719 3.16807 5.78215 2.81889 6.33554Z" fill="white"/>
<path d="M16.7349 22.2493C16.9108 22.1847 17.11 22.2648 17.1901 22.4381C17.2703 22.6113 17.2031 22.813 17.0375 22.9061L16.4582 23.157C16.2745 23.2268 16.065 23.1363 15.9926 22.9527C15.9176 22.7691 16.0055 22.5622 16.1892 22.4846L16.7349 22.2493Z" fill="white"/>
</g>
<defs>
<clipPath id="clip0_159_1225">
<rect width="24" height="24" fill="white"/>
</clipPath>
</defs>
</svg>
