<svg width="137" height="343" viewBox="0 0 137 343" fill="none" xmlns="http://www.w3.org/2000/svg">
<circle cx="68.5" cy="303.5" r="39.5" fill="#F7C35F" fill-opacity="0.2"/>
<path d="M0.666667 270C0.666667 272.946 3.05448 275.333 6 275.333C8.94552 275.333 11.3333 272.946 11.3333 270C11.3333 267.054 8.94552 264.667 6 264.667C3.05448 264.667 0.666667 267.054 0.666667 270ZM5.53487 270.885L6.40252 271.341L7.33277 269.571L6.46513 269.115L5.53487 270.885ZM8.13781 272.253L9.87311 273.165L10.8034 271.394L9.06807 270.482L8.13781 272.253ZM11.6084 274.076L13.3437 274.988L14.274 273.218L12.5387 272.306L11.6084 274.076ZM15.079 275.9L16.8143 276.812L17.7445 275.041L16.0092 274.129L15.079 275.9ZM18.5496 277.723L20.2849 278.635L21.2151 276.865L19.4798 275.953L18.5496 277.723ZM22.0202 279.547L23.7555 280.459L24.6857 278.688L22.9504 277.777L22.0202 279.547ZM25.4908 281.371L27.226 282.282L28.1563 280.512L26.421 279.6L25.4908 281.371ZM28.9613 283.194L30.6966 284.106L31.6269 282.335L29.8916 281.424L28.9613 283.194ZM32.4319 285.018L34.1672 285.929L35.0975 284.159L33.3622 283.247L32.4319 285.018ZM35.9025 286.841L37.6378 287.753L38.5681 285.982L36.8328 285.071L35.9025 286.841ZM39.3731 288.665L41.1084 289.576L42.0387 287.806L40.3034 286.894L39.3731 288.665ZM42.8437 290.488L44.579 291.4L45.5092 289.629L43.7739 288.718L42.8437 290.488ZM46.3143 292.312L48.0496 293.223L48.9798 291.453L47.2445 290.541L46.3143 292.312ZM49.7849 294.135L51.5201 295.047L52.4504 293.277L50.7151 292.365L49.7849 294.135ZM53.2554 295.959L54.9907 296.871L55.921 295.1L54.1857 294.188L53.2554 295.959ZM56.726 297.782L58.4613 298.694L59.3916 296.924L57.6563 296.012L56.726 297.782ZM60.1966 299.606L61.9319 300.518L62.8622 298.747L61.1269 297.835L60.1966 299.606ZM63.6672 301.429L64.5349 301.885L65.4651 300.115L64.5975 299.659L63.6672 301.429Z" fill="#F7C35F" fill-opacity="0.4"/>
<path d="M136.333 270C136.333 272.946 133.946 275.333 131 275.333C128.054 275.333 125.667 272.946 125.667 270C125.667 267.054 128.054 264.667 131 264.667C133.946 264.667 136.333 267.054 136.333 270ZM131.465 270.885L130.597 271.341L129.667 269.571L130.535 269.115L131.465 270.885ZM128.862 272.253L127.127 273.165L126.197 271.394L127.932 270.482L128.862 272.253ZM125.392 274.076L123.656 274.988L122.726 273.218L124.461 272.306L125.392 274.076ZM121.921 275.9L120.186 276.812L119.255 275.041L120.991 274.129L121.921 275.9ZM118.45 277.723L116.715 278.635L115.785 276.865L117.52 275.953L118.45 277.723ZM114.98 279.547L113.245 280.459L112.314 278.688L114.05 277.777L114.98 279.547ZM111.509 281.371L109.774 282.282L108.844 280.512L110.579 279.6L111.509 281.371ZM108.039 283.194L106.303 284.106L105.373 282.335L107.108 281.424L108.039 283.194ZM104.568 285.018L102.833 285.929L101.903 284.159L103.638 283.247L104.568 285.018ZM101.097 286.841L99.3622 287.753L98.4319 285.982L100.167 285.071L101.097 286.841ZM97.6269 288.665L95.8916 289.576L94.9613 287.806L96.6966 286.894L97.6269 288.665ZM94.1563 290.488L92.421 291.4L91.4908 289.629L93.2261 288.718L94.1563 290.488ZM90.6857 292.312L88.9504 293.223L88.0202 291.453L89.7555 290.541L90.6857 292.312ZM87.2151 294.135L85.4799 295.047L84.5496 293.277L86.2849 292.365L87.2151 294.135ZM83.7446 295.959L82.0093 296.871L81.079 295.1L82.8143 294.188L83.7446 295.959ZM80.274 297.782L78.5387 298.694L77.6084 296.924L79.3437 296.012L80.274 297.782ZM76.8034 299.606L75.0681 300.518L74.1378 298.747L75.8731 297.835L76.8034 299.606ZM73.3328 301.429L72.4651 301.885L71.5349 300.115L72.4025 299.659L73.3328 301.429Z" fill="#F7C35F" fill-opacity="0.4"/>
<path d="M136.333 336C136.333 333.054 133.946 330.667 131 330.667C128.054 330.667 125.667 333.054 125.667 336C125.667 338.946 128.054 341.333 131 341.333C133.946 341.333 136.333 338.946 136.333 336ZM131.465 335.115L130.597 334.659L129.667 336.429L130.535 336.885L131.465 335.115ZM128.862 333.747L127.127 332.835L126.197 334.606L127.932 335.518L128.862 333.747ZM125.392 331.924L123.656 331.012L122.726 332.782L124.461 333.694L125.392 331.924ZM121.921 330.1L120.186 329.188L119.255 330.959L120.991 331.871L121.921 330.1ZM118.45 328.277L116.715 327.365L115.785 329.135L117.52 330.047L118.45 328.277ZM114.98 326.453L113.245 325.541L112.314 327.312L114.05 328.223L114.98 326.453ZM111.509 324.629L109.774 323.718L108.844 325.488L110.579 326.4L111.509 324.629ZM108.039 322.806L106.303 321.894L105.373 323.665L107.108 324.576L108.039 322.806ZM104.568 320.982L102.833 320.071L101.903 321.841L103.638 322.753L104.568 320.982ZM101.097 319.159L99.3622 318.247L98.4319 320.018L100.167 320.929L101.097 319.159ZM97.6269 317.335L95.8916 316.424L94.9613 318.194L96.6966 319.106L97.6269 317.335ZM94.1563 315.512L92.421 314.6L91.4908 316.371L93.2261 317.282L94.1563 315.512ZM90.6857 313.688L88.9504 312.777L88.0202 314.547L89.7555 315.459L90.6857 313.688ZM87.2151 311.865L85.4799 310.953L84.5496 312.723L86.2849 313.635L87.2151 311.865ZM83.7446 310.041L82.0093 309.129L81.079 310.9L82.8143 311.812L83.7446 310.041ZM80.274 308.218L78.5387 307.306L77.6084 309.076L79.3437 309.988L80.274 308.218ZM76.8034 306.394L75.0681 305.482L74.1378 307.253L75.8731 308.165L76.8034 306.394ZM73.3328 304.571L72.4651 304.115L71.5349 305.885L72.4025 306.341L73.3328 304.571Z" fill="#F7C35F" fill-opacity="0.4"/>
<path d="M0.666667 336C0.666667 333.054 3.05448 330.667 6 330.667C8.94552 330.667 11.3333 333.054 11.3333 336C11.3333 338.946 8.94552 341.333 6 341.333C3.05448 341.333 0.666667 338.946 0.666667 336ZM5.53487 335.115L6.40252 334.659L7.33277 336.429L6.46513 336.885L5.53487 335.115ZM8.13781 333.747L9.87311 332.835L10.8034 334.606L9.06807 335.518L8.13781 333.747ZM11.6084 331.924L13.3437 331.012L14.274 332.782L12.5387 333.694L11.6084 331.924ZM15.079 330.1L16.8143 329.188L17.7445 330.959L16.0092 331.871L15.079 330.1ZM18.5496 328.277L20.2849 327.365L21.2151 329.135L19.4798 330.047L18.5496 328.277ZM22.0202 326.453L23.7555 325.541L24.6857 327.312L22.9504 328.223L22.0202 326.453ZM25.4908 324.629L27.226 323.718L28.1563 325.488L26.421 326.4L25.4908 324.629ZM28.9613 322.806L30.6966 321.894L31.6269 323.665L29.8916 324.576L28.9613 322.806ZM32.4319 320.982L34.1672 320.071L35.0975 321.841L33.3622 322.753L32.4319 320.982ZM35.9025 319.159L37.6378 318.247L38.5681 320.018L36.8328 320.929L35.9025 319.159ZM39.3731 317.335L41.1084 316.424L42.0387 318.194L40.3034 319.106L39.3731 317.335ZM42.8437 315.512L44.579 314.6L45.5092 316.371L43.7739 317.282L42.8437 315.512ZM46.3143 313.688L48.0496 312.777L48.9798 314.547L47.2445 315.459L46.3143 313.688ZM49.7849 311.865L51.5201 310.953L52.4504 312.723L50.7151 313.635L49.7849 311.865ZM53.2554 310.041L54.9907 309.129L55.921 310.9L54.1857 311.812L53.2554 310.041ZM56.726 308.218L58.4613 307.306L59.3916 309.076L57.6563 309.988L56.726 308.218ZM60.1966 306.394L61.9319 305.482L62.8622 307.253L61.1269 308.165L60.1966 306.394ZM63.6672 304.571L64.5349 304.115L65.4651 305.885L64.5975 306.341L63.6672 304.571Z" fill="#F7C35F" fill-opacity="0.4"/>
<circle cx="68.5" cy="303.5" r="16.5" fill="#F7C35F"/>
<path d="M68 305L68 0" stroke="#F7C35F" stroke-width="2" stroke-dasharray="2 2"/>
</svg>
