<svg width="106" height="100" viewBox="0 0 106 100" fill="none" xmlns="http://www.w3.org/2000/svg">
<g clip-path="url(#clip0_152_830)">
<path d="M91.9219 30.8334C92.8328 30.8334 93.5781 30.0834 93.5781 29.1667V15.8334C93.5781 14.9167 92.8328 14.1667 91.9219 14.1667C91.0109 14.1667 90.2656 14.9167 90.2656 15.8334V29.1667C90.2656 30.0834 91.0109 30.8334 91.9219 30.8334Z" fill="#1B453C"/>
<path d="M98.5469 26.6666C99.4578 26.6666 100.203 25.9166 100.203 24.9999V19.9999C100.203 19.0833 99.4578 18.3333 98.5469 18.3333C97.6359 18.3333 96.8906 19.0833 96.8906 19.9999V24.9999C96.8906 25.9166 97.6359 26.6666 98.5469 26.6666Z" fill="#1B453C"/>
<path d="M85.2969 26.6666C86.2078 26.6666 86.9531 25.9166 86.9531 24.9999V19.9999C86.9531 19.0833 86.2078 18.3333 85.2969 18.3333C84.3859 18.3333 83.6406 19.0833 83.6406 19.9999V24.9999C83.6406 25.9166 84.3859 26.6666 85.2969 26.6666Z" fill="#1B453C"/>
<path d="M14.0781 30.8334C14.9891 30.8334 15.7344 30.0834 15.7344 29.1667V15.8334C15.7344 14.9167 14.9891 14.1667 14.0781 14.1667C13.1672 14.1667 12.4219 14.9167 12.4219 15.8334V29.1667C12.4219 30.0834 13.1672 30.8334 14.0781 30.8334Z" fill="#1B453C"/>
<path d="M20.7031 26.6666C21.6141 26.6666 22.3594 25.9166 22.3594 24.9999V19.9999C22.3594 19.0833 21.6141 18.3333 20.7031 18.3333C19.7922 18.3333 19.0469 19.0833 19.0469 19.9999V24.9999C19.0469 25.9166 19.7922 26.6666 20.7031 26.6666Z" fill="#1B453C"/>
<path d="M7.45312 26.6666C8.36406 26.6666 9.10938 25.9166 9.10938 24.9999V19.9999C9.10938 19.0833 8.36406 18.3333 7.45312 18.3333C6.54219 18.3333 5.79688 19.0833 5.79688 19.9999V24.9999C5.79688 25.9166 6.54219 26.6666 7.45312 26.6666Z" fill="#1B453C"/>
<path d="M106 81.6666C106 80.7499 105.255 79.9999 104.344 79.9999H91.6568L87.3092 76.6666H104.344C105.255 76.6666 106 75.9166 106 74.9999C106 74.0833 105.255 73.3333 104.344 73.3333H93.5781V67.4999C93.5781 66.5833 92.8328 65.8333 91.9218 65.8333C91.0109 65.8333 90.2656 66.5833 90.2656 67.4999V73.3333H86.125V83.3333H90.5389L94.8865 86.6666H85.9593C85.7109 87.8749 85.1975 89.0166 84.4521 89.9999H104.344C105.255 89.9999 106 89.2499 106 88.3333C106 87.4166 105.255 86.6666 104.344 86.6666H100.344L95.9962 83.3333H104.344C105.255 83.3333 106 82.5833 106 81.6666Z" fill="#1B453C"/>
<path d="M42.2344 84.9C43.1491 84.9 43.8906 84.1538 43.8906 83.2333C43.8906 82.3128 43.1491 81.5667 42.2344 81.5667C41.3197 81.5667 40.5781 82.3128 40.5781 83.2333C40.5781 84.1538 41.3197 84.9 42.2344 84.9Z" fill="#1B453C"/>
<path d="M63.7656 84.9C64.6803 84.9 65.4219 84.1538 65.4219 83.2333C65.4219 82.3128 64.6803 81.5667 63.7656 81.5667C62.8509 81.5667 62.1094 82.3128 62.1094 83.2333C62.1094 84.1538 62.8509 84.9 63.7656 84.9Z" fill="#1B453C"/>
<path d="M37.2656 40.8333C37.2656 50.0249 44.3213 57.4999 53 57.4999C61.6787 57.4999 68.7344 50.0249 68.7344 40.8333H65.4219C65.4219 48.1916 59.8486 54.1666 53 54.1666C46.1514 54.1666 40.5781 48.1833 40.5781 40.8333H37.2656Z" fill="#1B453C"/>
<path d="M33.1249 37.5H72.8749C73.7858 37.5 74.5311 36.75 74.5311 35.8333V32.5C74.5642 29.775 72.4028 27.5417 69.6949 27.5H68.7342V23.1167C68.7342 13.8 65.3721 10 57.1405 10H48.851C40.6194 10 37.2572 13.8 37.2572 23.1167V27.5H36.2966C33.5886 27.5417 31.4272 29.775 31.4603 32.5V35.8333C31.4603 36.75 32.2056 37.5 33.1166 37.5H33.1249ZM40.578 23.1167C40.578 14.8 43.2446 13.3333 48.8592 13.3333H57.1488C62.7552 13.3333 65.43 14.8 65.43 23.1167V27.5H40.5863V23.1167H40.578ZM34.7811 32.5C34.748 31.6167 35.4271 30.875 36.3049 30.8333H69.6949C70.5727 30.875 71.2517 31.6167 71.2186 32.5V34.1667H34.7811V32.5Z" fill="#1B453C"/>
<path d="M11.1134 86.6666L15.4611 83.3333H19.875V73.3333H15.7344V67.4999C15.7344 66.5833 14.9891 65.8333 14.0781 65.8333C13.1672 65.8333 12.4219 66.5833 12.4219 67.4999V73.3333H1.65625C0.745312 73.3333 0 74.0833 0 74.9999C0 75.9166 0.745312 76.6666 1.65625 76.6666H18.6908L14.3431 79.9999H1.65625C0.745312 79.9999 0 80.7499 0 81.6666C0 82.5833 0.745312 83.3333 1.65625 83.3333H10.0037L5.65609 86.6666H1.65625C0.745312 86.6666 0 87.4166 0 88.3333C0 89.2499 0.745312 89.9999 1.65625 89.9999H21.5478C20.8025 89.0166 20.2891 87.8749 20.0406 86.6666H11.1134Z" fill="#1B453C"/>
<path d="M67.1278 54.225C65.5958 55.775 63.9147 57.175 62.1094 58.3916V69.1666H43.8906V58.3916C43.8906 58.3 40.3711 56.075 38.8722 54.225C29.7131 54.85 23.1875 61.85 23.1875 71.35V85C23.1875 87.7583 25.4152 90 28.1562 90H30.9305C30.74 89.4666 30.6406 88.9 30.6406 88.3333V86.6666H28.1562C27.2453 86.6666 26.5 85.9166 26.5 85V71.35C26.5 63.1916 32.1313 57.5 40.1972 57.5H40.5781V69.1666H35.6094C34.6984 69.1666 33.9531 69.9166 33.9531 70.8333V88.3333C33.9531 89.25 34.6984 90 35.6094 90C36.5203 90 37.2656 89.25 37.2656 88.3333V72.5H40.5781V76.6666C40.5781 77.5833 41.3234 78.3333 42.2344 78.3333C43.1453 78.3333 43.8906 77.5833 43.8906 76.6666V72.5H62.1094V76.6666C62.1094 77.5833 62.8547 78.3333 63.7656 78.3333C64.6766 78.3333 65.4219 77.5833 65.4219 76.6666V72.5H68.7344V88.3333C68.7344 89.25 69.4797 90 70.3906 90C71.3016 90 72.0469 89.25 72.0469 88.3333V70.8333C72.0469 69.9166 71.3016 69.1666 70.3906 69.1666H65.4219V57.5H65.8028C73.8687 57.5 79.5 63.1916 79.5 71.35V85C79.5 85.9166 78.7547 86.6666 77.8438 86.6666H75.3594V88.3333C75.3594 88.9 75.26 89.4666 75.0695 90H77.8438C80.5848 90 82.8125 87.7583 82.8125 85V71.35C82.8125 61.85 76.2952 54.85 67.1278 54.225Z" fill="#1B453C"/>
<path d="M5.48219 40.1416C7.5525 41.3833 10.7739 42.2083 12.6952 40.2249C13.3825 39.5083 13.7303 38.5333 13.6558 37.5416C13.5316 35.3583 11.602 33.0083 10.4178 32.0416C8.18188 30.3166 5.47391 29.3249 2.65828 29.2083C1.51547 29.1083 0.0248437 29.3583 0 30.8166C0.06625 34.6749 2.14484 38.2166 5.48219 40.1333V40.1416ZM8.33094 34.6333C9.10109 35.2583 10.2936 36.8166 10.3516 37.7416C10.3847 38.3249 9.39922 38.1166 9.09281 38.0666C8.41375 37.9333 7.75953 37.6583 7.17984 37.2749C5.4325 36.2749 4.14062 34.6249 3.58578 32.6749C5.31656 32.8666 6.96453 33.5416 8.33094 34.6249V34.6333Z" fill="#1B453C"/>
<path d="M5.4827 51.5251C7.54473 52.7584 10.7744 53.5917 12.6957 51.6084C13.383 50.9001 13.7391 49.9167 13.6563 48.9334C13.5321 46.7501 11.6025 44.4001 10.4183 43.4334C8.18238 41.7084 5.47441 40.7167 2.65879 40.6001C1.49113 40.4917 0.0501953 40.7501 0.00878906 42.2167C0.0750391 46.0751 2.15363 49.6167 5.49098 51.5334L5.4827 51.5251ZM8.33145 46.0167C9.54051 47.0001 10.5343 48.8667 10.3272 49.2751C10.1368 49.6667 8.89457 49.4167 8.60473 49.3417C8.09957 49.1834 7.61926 48.9501 7.17207 48.6584C5.42473 47.6584 4.13285 46.0084 3.57801 44.0584C5.30879 44.2501 6.95676 44.9251 8.32316 46.0084L8.33145 46.0167Z" fill="#1B453C"/>
<path d="M5.48219 62.9082C7.54422 64.1416 10.7739 64.9832 12.6952 62.9916C13.3825 62.2832 13.7386 61.2999 13.6558 60.3082C13.5316 58.1249 11.602 55.7749 10.4178 54.8082C8.18187 53.0832 5.47391 52.0916 2.65828 51.9749C1.49062 51.8332 0.0496875 52.1416 0 53.5832C0.06625 57.4416 2.14484 60.9832 5.48219 62.8999V62.9082ZM8.33094 57.3999C9.54 58.3832 10.5337 60.2499 10.3267 60.6666C10.128 61.0582 8.90234 60.8166 8.60422 60.7332C8.09906 60.5749 7.61875 60.3416 7.17156 60.0499C5.42422 59.0499 4.13234 57.3999 3.5775 55.4499C5.30828 55.6416 6.95625 56.3166 8.32266 57.3999H8.33094Z" fill="#1B453C"/>
<path d="M15.4612 40.2001C17.3825 42.1834 20.6039 41.3584 22.6742 40.1168C26.0033 38.2001 28.0901 34.6584 28.1564 30.8001C28.1398 29.3334 26.6492 29.0834 25.5064 29.1918C22.6908 29.3084 19.9828 30.2918 17.7468 32.0251C16.5626 32.9918 14.6331 35.3418 14.5089 37.5251C14.4261 38.5168 14.7822 39.4918 15.4695 40.2084L15.4612 40.2001ZM19.8254 34.6084C21.1919 33.5251 22.8398 32.8418 24.5706 32.6584C24.0158 34.6084 22.7239 36.2584 20.9765 37.2584C20.3969 37.6418 19.7426 37.9084 19.0636 38.0501C18.7654 38.1001 17.7717 38.3001 17.8048 37.7251C17.8545 36.8001 19.0553 35.2418 19.8254 34.6168V34.6084Z" fill="#1B453C"/>
<path d="M28.1564 42.1833C28.1067 40.725 26.674 40.4583 25.5064 40.5666C22.6908 40.6833 19.9828 41.675 17.7468 43.4C16.5626 44.3666 14.6331 46.7166 14.5089 48.9C14.4261 49.8916 14.7822 50.8666 15.4695 51.575C17.3908 53.5583 20.6204 52.725 22.6825 51.4916C26.0115 49.575 28.0984 46.0333 28.1647 42.175L28.1564 42.1833ZM20.9765 48.6333C20.5293 48.925 20.049 49.1583 19.5439 49.3166C19.254 49.4 18.0118 49.6416 17.8214 49.25C17.6143 48.8333 18.6164 46.975 19.8172 45.9916C21.1836 44.9083 22.8315 44.225 24.5623 44.0416C24.0075 45.9833 22.7156 47.6333 20.9683 48.6416L20.9765 48.6333Z" fill="#1B453C"/>
<path d="M83.3259 40.1416C85.3963 41.3833 88.6177 42.2083 90.5389 40.2249C91.2263 39.5083 91.5741 38.5333 91.4995 37.5416C91.3753 35.3583 89.4458 33.0083 88.2616 32.0416C86.0256 30.3166 83.3177 29.3249 80.502 29.2083C79.3592 29.1083 77.8686 29.3583 77.8438 30.8166C77.91 34.6749 79.9886 38.2166 83.3259 40.1333V40.1416ZM86.1747 34.6333C86.9448 35.2583 88.1373 36.8166 88.1953 37.7416C88.2284 38.3249 87.243 38.1166 86.9366 38.0666C86.2575 37.9333 85.6033 37.6583 85.0236 37.2749C83.2762 36.2749 81.9844 34.6249 81.4295 32.6749C83.1603 32.8666 84.8083 33.5416 86.1747 34.6249V34.6333Z" fill="#1B453C"/>
<path d="M83.3264 51.5251C85.3885 52.7584 88.6182 53.5917 90.5394 51.6084C91.2268 50.9001 91.5828 49.9167 91.5 48.9334C91.3758 46.7501 89.4463 44.4001 88.2621 43.4334C86.0261 41.7084 83.3182 40.7167 80.5025 40.6001C79.3349 40.4917 77.8939 40.7501 77.8525 42.2167C77.9188 46.0751 79.9974 49.6167 83.3347 51.5334L83.3264 51.5251ZM86.1752 46.0167C87.3843 47.0001 88.378 48.8667 88.171 49.2751C87.9805 49.6667 86.7383 49.4167 86.4485 49.3417C85.9433 49.1834 85.463 48.9501 85.0158 48.6584C83.2685 47.6584 81.9766 46.0084 81.4218 44.0584C83.1525 44.2501 84.8005 44.9251 86.1669 46.0084L86.1752 46.0167Z" fill="#1B453C"/>
<path d="M93.3054 40.2001C95.2267 42.1834 98.4481 41.3584 100.518 40.1168C103.847 38.2001 105.934 34.6584 106.001 30.8001C105.984 29.3334 104.493 29.0834 103.342 29.1918C100.527 29.3084 97.8187 30.2918 95.5828 32.0251C94.3986 32.9918 92.469 35.3418 92.3448 37.5251C92.262 38.5168 92.6181 39.4918 93.3054 40.2084V40.2001ZM97.6697 34.6084C99.0361 33.5251 100.684 32.8418 102.415 32.6584C101.86 34.6084 100.568 36.2584 98.8208 37.2584C98.2411 37.6418 97.5868 37.9084 96.9078 38.0501C96.6097 38.1001 95.6159 38.3001 95.649 37.7251C95.6987 36.8001 96.8995 35.2418 97.6697 34.6168V34.6084Z" fill="#1B453C"/>
<path d="M106 42.1833C105.95 40.725 104.518 40.4583 103.35 40.5666C100.535 40.6833 97.8265 41.675 95.5906 43.4C94.4064 44.3666 92.4768 46.7166 92.3526 48.9C92.2698 49.8916 92.6259 50.8666 93.3133 51.575C95.2345 53.5583 98.4642 52.725 100.526 51.4916C103.855 49.575 105.942 46.0333 106.008 42.175L106 42.1833ZM98.8203 48.6333C98.3731 48.925 97.8928 49.1583 97.3876 49.3166C97.0978 49.4 95.8556 49.6416 95.6651 49.25C95.4581 48.8333 96.4601 46.975 97.6609 45.9916C99.0273 44.9083 100.675 44.225 102.406 44.0416C101.851 45.9833 100.559 47.6333 98.812 48.6416L98.8203 48.6333Z" fill="#1B453C"/>
<path d="M103.342 51.9501C100.527 52.0668 97.8187 53.0501 95.5828 54.7834C94.3986 55.7501 92.469 58.1001 92.3448 60.2834C92.262 61.2751 92.6181 62.2501 93.3054 62.9668C95.2267 64.9584 98.4564 64.1168 100.518 62.8834C103.847 60.9668 105.934 57.4251 106.001 53.5668C105.951 52.1251 104.51 51.8168 103.342 51.9584V51.9501ZM98.8208 60.0168C98.3736 60.3084 97.8933 60.5418 97.3881 60.7001C97.09 60.7834 95.8643 61.0251 95.6656 60.6334C95.4586 60.2168 96.4523 58.3584 97.6614 57.3668C99.0278 56.2834 100.676 55.6001 102.407 55.4168C101.852 57.3584 100.56 59.0084 98.8125 60.0168H98.8208Z" fill="#1B453C"/>
<path d="M88.2616 54.8082C86.0256 53.0832 83.3177 52.0916 80.502 51.9749C79.3344 51.8332 77.8934 52.1416 77.8438 53.5832C77.8438 53.9082 77.8603 54.2416 77.8934 54.5666C81.0403 56.8082 83.4419 59.9666 84.7669 63.6082C86.6964 64.3666 89.0234 64.5499 90.5389 62.9832C91.2263 62.2749 91.5823 61.2916 91.4995 60.2999C91.3753 58.1082 89.4458 55.7666 88.2616 54.7999V54.8082ZM88.1705 60.6582C87.9717 61.0499 86.7461 60.8082 86.448 60.7249C85.9428 60.5666 85.4625 60.3332 85.0153 60.0416C83.268 59.0416 81.9761 57.3916 81.4212 55.4416C83.152 55.6332 84.8 56.3082 86.1664 57.3916C87.3755 58.3749 88.3692 60.2416 88.1622 60.6582H88.1705Z" fill="#1B453C"/>
<path d="M25.4986 51.9501C22.6829 52.0668 19.975 53.0501 17.739 54.7834C16.5548 55.7501 14.6253 58.1001 14.5011 60.2834C14.4183 61.2751 14.7743 62.2501 15.4617 62.9668C16.9772 64.5334 19.3125 64.3418 21.242 63.5834C22.5753 59.9501 24.9603 56.8084 28.0989 54.5751C28.1403 54.2418 28.1568 53.9001 28.1568 53.5668C28.1072 52.1251 26.6662 51.8168 25.4986 51.9584V51.9501ZM20.977 60.0168C20.5298 60.3084 20.0495 60.5418 19.5443 60.7001C19.2462 60.7834 18.0206 61.0251 17.8218 60.6334C17.6148 60.2168 18.6086 58.3584 19.8176 57.3668C21.184 56.2834 22.832 55.6001 24.5628 55.4168C24.0079 57.3584 22.7161 59.0084 20.9687 60.0168H20.977Z" fill="#1B453C"/>
</g>
<defs>
<clipPath id="clip0_152_830">
<rect width="106" height="80" fill="white" transform="translate(0 10)"/>
</clipPath>
</defs>
</svg>
