<svg width="108" height="108" viewBox="0 0 108 108" fill="none" xmlns="http://www.w3.org/2000/svg">
<g clip-path="url(#clip0_152_836)">
<g clip-path="url(#clip1_152_836)">
<path d="M106.008 100.008H87.2388C86.5607 96.9375 85.0766 94.11 82.9143 91.807C83.4005 90.937 83.81 90.0286 84.1298 89.0947L90.5525 70.2999C90.9108 69.2508 90.3606 68.1249 89.3115 67.7666L77.093 63.5829L92.0111 19.6858H92.9962C96.8857 19.6602 100.353 17.1909 101.607 13.5061L102.362 11.2415C102.566 10.7554 102.566 10.2052 102.362 9.71901C102.131 9.23283 101.722 8.87459 101.223 8.69547L87.7506 4.10233C87.2516 3.93601 86.7014 3.96159 86.2153 4.20468C85.7291 4.44778 85.3708 4.85719 85.2045 5.36896L84.4497 7.60796C83.0679 11.6382 84.6672 16.0778 88.3135 18.304L73.3186 62.2651L61.1001 58.0302C60.6011 57.8639 60.051 57.8894 59.5648 58.1325C59.0786 58.3756 58.7204 58.785 58.5541 59.2968L52.1313 78.0916C51.8371 78.9872 51.6068 79.9212 51.466 80.8552C50.8647 81.4437 50.3401 82.1218 49.9051 82.8511C47.6533 82.1602 45.312 81.8019 42.9706 81.8147C38.3263 81.8147 33.7716 83.1453 29.8821 85.6786V79.6781C35.1789 78.8081 40.0663 76.3132 43.879 72.5261C50.5193 65.8731 48.6129 60.5251 48.1011 59.3096C48.0372 59.1433 47.9476 58.9897 47.8453 58.849C47.615 58.5547 47.3207 58.3244 46.9625 58.1837C45.7854 57.6591 40.3606 55.8296 33.7716 62.4058C31.379 64.8111 29.4855 67.6643 28.1933 70.7989C26.9138 67.6643 25.0203 64.8111 22.6406 62.4058C16.0387 55.8935 10.7419 57.5696 9.46246 58.043C9.11701 58.1581 8.82275 58.3628 8.60524 58.6443C8.45171 58.8106 8.32377 59.0153 8.247 59.2456C7.72244 60.4099 5.86727 65.8219 12.4819 72.4237C16.1411 76.0701 20.8238 78.5266 25.8903 79.4862V88.0455C19.4164 86.9068 12.7506 88.4933 7.49214 92.4468C4.38314 94.7369 1.86267 97.7564 0.161028 101.224C-0.120446 101.851 -0.0564747 102.58 0.314559 103.156C0.698387 103.731 1.3381 104.064 2.02899 104.051H105.982C107.083 104.051 107.978 103.156 107.978 102.055C107.978 100.955 107.083 100.059 105.982 100.059L106.008 100.008ZM88.2112 8.97695L88.3263 8.61871L97.9988 11.9196L97.8836 12.2779C97.4486 13.5701 96.5147 14.632 95.2864 15.2206C93.4312 16.1161 91.2178 15.8091 89.6825 14.4529C88.1472 13.0967 87.5587 10.9345 88.2112 8.98974V8.97695ZM61.7015 62.521L86.1257 70.8628L80.3427 87.7769C80.1892 88.2502 79.9845 88.7108 79.767 89.1586C76.5428 87.0348 72.7045 86.0368 68.8534 86.3183C68.3033 83.5803 66.6528 81.175 64.2987 79.6653C61.9445 78.1556 59.0658 77.6822 56.3407 78.3219L61.7015 62.5338V62.521ZM36.5607 65.1822C38.3391 63.0455 40.898 61.7149 43.6743 61.4846C43.9942 61.459 44.314 61.459 44.6339 61.4846C44.877 62.7641 44.877 65.7067 41.0131 69.481C38.2112 72.2702 34.6928 74.2405 30.8545 75.1745C31.814 71.3874 33.7844 67.9329 36.5479 65.1822H36.5607ZM15.3094 69.6346C11.4712 65.7707 11.4456 62.8152 11.7143 61.6382C12.9681 61.3951 15.9364 61.4207 19.7107 65.2589C22.4998 68.0609 24.4829 71.5665 25.4297 75.4176C21.5914 74.458 18.0986 72.4493 15.3094 69.6346ZM5.48344 100.008C6.71169 98.3193 8.19583 96.8096 9.88467 95.5558C13.3519 92.9713 17.5612 91.564 21.8857 91.564C23.549 91.564 25.2122 91.7943 26.8243 92.2037C27.5024 92.37 28.2061 92.1781 28.705 91.6791C31.4686 88.9283 34.987 87.0348 38.7997 86.2415C42.6124 85.4483 46.5914 85.7681 50.225 87.1883C50.7112 87.393 51.2613 87.393 51.7475 87.1883C52.2337 86.9708 52.6175 86.5742 52.8094 86.0624C53.1805 85.09 53.7946 84.22 54.5878 83.5419C55.7265 82.5568 57.1979 82.0066 58.7076 82.0194C62.1748 82.0194 65.0024 84.7958 65.0408 88.263V88.6085C65.0152 89.2226 65.271 89.8111 65.7444 90.2078C66.2178 90.6044 66.8447 90.7707 67.4461 90.6428C71.5914 89.7983 75.8903 90.9242 79.0761 93.7006C80.9952 95.3894 82.3898 97.6029 83.0679 100.059L5.48344 100.021V100.008Z" fill="#1B453C"/>
</g>
</g>
<defs>
<clipPath id="clip0_152_836">
<rect width="108" height="108" fill="white"/>
</clipPath>
<clipPath id="clip1_152_836">
<rect width="108.009" height="100" fill="white" transform="translate(-0.00488281 4)"/>
</clipPath>
</defs>
</svg>
