<svg width="100" height="100" viewBox="0 0 100 100" fill="none" xmlns="http://www.w3.org/2000/svg">
<g clip-path="url(#clip0_152_824)">
<path d="M9.09779 49.994C11.3378 104.039 88.3525 104.027 90.5807 49.994C91.0666 22.3196 61.8869 1.91038 36.0494 11.6409C33.7738 12.5061 34.9827 15.8958 37.2938 15.1254C66.5921 4.3756 95.7363 33.8516 84.4887 62.9602H68.3581V59.1675C77.5908 58.4564 84.5243 51.7007 79.8072 44.5303C83.3391 40.9628 80.2101 34.622 75.2204 35.2027C72.447 27.8426 60.5713 27.8426 57.7979 35.2027C52.82 34.622 49.6792 40.9628 53.2112 44.5303C48.494 51.6889 55.4156 58.4564 64.6602 59.1675V62.9602H15.1897C12.369 55.7067 12.0252 46.9481 14.3364 39.3983C14.6327 38.4146 14.0757 37.3835 13.0919 37.0872C12.1201 36.7909 11.0771 37.3479 10.7808 38.3316C9.65484 42.0887 9.08594 46.0118 9.08594 49.994H9.09779ZM55.3919 49.0696C55.3919 47.5407 56.3875 46.3318 57.229 45.5851C57.7149 45.1466 57.9401 44.4947 57.8216 43.8547C57.6912 43.2147 57.2527 42.6813 56.6364 42.468C55.9016 42.2073 55.4038 41.508 55.4038 40.7376C55.3801 39.3391 57.0038 38.3909 58.2009 39.1613C59.3268 39.8843 60.9505 39.0428 60.998 37.7035C61.5076 31.9434 71.5226 31.9434 72.0322 37.7035C72.0796 39.0428 73.7034 39.8843 74.8293 39.1613C76.0738 38.4146 77.6264 39.3983 77.6264 40.7376C77.6264 41.508 77.1286 42.1954 76.3938 42.468C75.1019 42.8947 74.7463 44.7199 75.7893 45.5969C80.5657 49.9466 75.1493 54.8771 68.3581 55.4578V54.6993L73.0871 51.5467C75.1019 50.1955 73.0515 47.1259 71.0366 48.4651L68.3581 50.2429V46.2962C68.3107 43.8665 64.6958 43.8665 64.6602 46.2962V48.394L61.9817 46.6162C59.955 45.2769 57.9164 48.3466 59.9313 49.6977L64.6602 52.8504V55.4578C59.4809 54.9245 55.4038 52.2222 55.4038 49.0814L55.3919 49.0696ZM82.865 66.658C71.3092 90.042 38.6331 94.1547 21.7439 74.0655H36.8672C39.2968 74.0181 39.2968 70.4032 36.8672 70.3677H18.935C18.1528 69.1825 17.4535 67.938 16.8016 66.6698H82.865V66.658Z" fill="#1B453C"/>
<path d="M47.983 74.0658H64.6469C67.0766 74.0183 67.0766 70.4035 64.6469 70.3679H47.983C45.5533 70.4153 45.5414 74.0302 47.983 74.0658Z" fill="#1B453C"/>
<path d="M38.7271 81.4731H57.24C59.6697 81.4257 59.6815 77.8108 57.24 77.7753H38.7271C36.2974 77.8227 36.2856 81.4375 38.7271 81.4731Z" fill="#1B453C"/>
<path d="M22.0527 33.3303C22.0527 38.4385 26.201 42.5867 31.3092 42.5867C43.5642 42.1482 43.5642 24.5005 31.3092 24.0739C26.201 24.0739 22.0527 28.2221 22.0527 33.3303ZM31.321 27.7717C38.6456 27.9613 38.6456 38.6874 31.321 38.8889C23.9965 38.6993 23.9965 27.9732 31.321 27.7717Z" fill="#1B453C"/>
<path d="M29.459 46.2845V51.8431C29.5064 54.2728 33.1213 54.2728 33.1568 51.8431V46.2845C33.1094 43.8549 29.4945 43.8549 29.459 46.2845Z" fill="#1B453C"/>
<path d="M20.8436 41.188L16.9206 45.1229C15.2257 46.8296 17.8213 49.4607 19.5399 47.7422L23.4629 43.8073C25.1696 42.0887 22.5621 39.4813 20.8436 41.188Z" fill="#1B453C"/>
<path d="M10.9463 33.3302C10.9463 34.3495 11.7759 35.1792 12.7952 35.1792H18.3538C19.3731 35.1792 20.2027 34.3495 20.2027 33.3302C20.2027 32.311 19.3731 31.4813 18.3538 31.4813H12.7952C11.7759 31.4813 10.9463 32.311 10.9463 33.3302Z" fill="#1B453C"/>
<path d="M19.5271 18.9181C17.8086 17.2114 15.2011 19.8188 16.9078 21.5374L20.8427 25.4604C21.1983 25.816 21.6724 26.0056 22.1583 26.0056C23.7465 26.0649 24.6472 23.9433 23.4739 22.8411L19.539 18.9181H19.5271Z" fill="#1B453C"/>
<path d="M33.1695 20.3642V14.8056C33.1221 12.376 29.5072 12.376 29.4717 14.8056V20.3642C29.5191 22.7939 33.134 22.7939 33.1695 20.3642Z" fill="#1B453C"/>
<path d="M43.1014 18.9181L39.1784 22.853C37.4835 24.5597 40.0791 27.1908 41.7977 25.4723L45.7207 21.5374C47.4274 19.8188 44.82 17.2114 43.1014 18.9181Z" fill="#1B453C"/>
<path d="M51.6822 33.3302C51.6822 32.311 50.8526 31.4813 49.8333 31.4813H44.2747C43.2554 31.4813 42.4258 32.311 42.4258 33.3302C42.4258 34.3495 43.2554 35.1792 44.2747 35.1792H49.8333C50.8526 35.1792 51.6822 34.3495 51.6822 33.3302Z" fill="#1B453C"/>
<path d="M39.177 41.188C38.454 41.911 38.454 43.0843 39.177 43.8073L43.1119 47.7303C43.8349 48.4533 45.0082 48.4533 45.7312 47.7303C46.4542 47.0073 46.4542 45.834 45.7312 45.111L41.7963 41.188C41.0733 40.465 39.9 40.465 39.177 41.188Z" fill="#1B453C"/>
<path d="M-4.46187 75.8197L10.9814 80.9635C12.6406 81.568 14.1577 79.4583 13.0318 78.0835C-10.2575 48.2282 11.9414 3.38014 49.8324 3.70015C52.2384 3.70015 52.2858 0.02602 49.8324 0.00231591C11.408 -0.365097 -13.1257 43.0607 6.95166 75.7249L-3.28852 72.3115C-5.61152 71.5767 -6.76117 75.0138 -4.46187 75.8197Z" fill="#1B453C"/>
<path d="M104.126 24.1686L88.683 19.0248C87.0118 18.4203 85.5066 20.53 86.6326 21.9048C109.934 51.7719 87.7348 96.62 49.8438 96.3C47.4378 96.3118 47.3904 99.9741 49.8438 99.9978C88.2681 100.353 112.802 56.9276 92.7245 24.2634L102.965 27.6768C105.288 28.4116 106.437 24.9626 104.138 24.1686H104.126Z" fill="#1B453C"/>
</g>
<defs>
<clipPath id="clip0_152_824">
<rect width="100" height="100" fill="white"/>
</clipPath>
</defs>
</svg>
