<svg width="88" height="86" viewBox="0 0 88 86" fill="none" xmlns="http://www.w3.org/2000/svg">
<g clip-path="url(#clip0_160_1321)">
<path d="M85.94 85.7001H1.56C0.7 85.7001 0 85.0001 0 84.1401V75.5601C0 74.7001 0.7 74.0001 1.56 74.0001C4.29 74.0001 6.86 74.0301 9.29 74.0501C24.56 74.2101 33.76 74.3001 41.06 67.8301C54 56.3601 67.73 56.3801 76.26 60.2101C83.2 63.3301 87.51 69.2101 87.51 75.5701V84.1501C87.51 85.0101 86.81 85.7101 85.95 85.7101H85.93L85.94 85.7001ZM3.13 82.5801H84.38V75.5601C84.38 70.4501 80.77 65.6501 74.97 63.0401C67.33 59.6001 54.95 59.6601 43.13 70.1501C34.93 77.4201 24.72 77.3201 9.27 77.1701C7.32 77.1501 5.29 77.1201 3.15 77.1201V82.5601L3.13 82.5801Z" fill="#D2AE6D"/>
<path d="M57.6703 31.92C50.9403 31.92 44.0103 29.25 38.9503 24.37C32.6403 18.31 30.3703 10.14 32.7503 1.98004C32.9503 1.29004 33.5503 0.820037 34.3103 0.860037C46.5803 1.34004 55.4803 4.61004 60.7803 10.56C64.9703 15.26 66.8003 21.59 66.2203 29.36C66.1703 29.98 65.7503 30.53 65.1603 30.72C62.7703 31.52 60.2403 31.91 57.6803 31.91V31.93L57.6703 31.92ZM35.4403 4.06004C33.9403 10.67 35.9703 17.18 41.1103 22.14C47.0003 27.81 55.7303 30.12 63.1603 28.09C63.4403 21.68 61.8603 16.51 58.4403 12.67C53.9103 7.58004 46.1703 4.69004 35.4403 4.08004V4.06004Z" fill="#D2AE6D"/>
<path d="M63.9197 55.3599C63.0597 55.3599 62.3597 54.6599 62.3597 53.7999V46.0999C62.3097 33.2699 62.2697 18.7399 71.5797 12.9599C72.3097 12.5099 73.2797 12.7299 73.7397 13.4599C74.1997 14.1899 73.9697 15.1599 73.2397 15.6199C65.4097 20.4799 65.4597 34.0899 65.4897 46.0999V53.8199C65.4897 54.6799 64.7997 55.3799 63.9297 55.3799L63.9197 55.3599Z" fill="#D2AE6D"/>
<path d="M74.92 16.11C73.87 16.11 72.89 16 72.06 15.8C71.45 15.66 71 15.18 70.87 14.57C70.34 11.76 70.25 7.76001 72.89 4.57001C75.39 1.54001 79.78 0.0100098 85.95 0.0100098C86.78 0.0100098 87.45 0.65001 87.51 1.48001C87.92 7.86001 85.45 11.37 83.29 13.2C80.74 15.36 77.6 16.12 74.93 16.12H74.92V16.11ZM73.78 12.92C76 13.17 78.95 12.75 81.25 10.81C83.3 9.08001 84.36 6.51001 84.41 3.17001C80.03 3.37001 76.97 4.51001 75.29 6.56001C73.73 8.45001 73.56 10.92 73.79 12.92H73.78Z" fill="#D2AE6D"/>
<path d="M63.9203 47.84C63.0603 47.84 62.3604 47.14 62.3604 46.28C62.3604 42.75 62.3603 32.01 77.4503 32.01C78.3103 32.01 79.0104 32.71 79.0104 33.57C79.0104 42.63 73.5103 47.84 63.9203 47.84ZM75.8103 35.19C67.6903 35.69 65.8303 40.02 65.5303 44.66C71.8403 44.21 75.3003 41.04 75.8103 35.19Z" fill="#D2AE6D"/>
<path d="M12.0301 41.88C11.4101 41.88 10.8101 41.49 10.5801 40.88L1.26009 16.61C0.430089 14.47 0.540089 12.06 1.54009 9.98996C2.54009 7.92996 4.37009 6.34996 6.56009 5.65996C8.75009 4.96996 11.1501 5.21996 13.1501 6.35996C15.1501 7.47996 16.6001 9.40996 17.1501 11.64L23.3401 36.89C23.5301 37.69 23.0701 38.5 22.2901 38.75L12.5101 41.81C12.3501 41.86 12.2001 41.89 12.0401 41.89L12.0201 41.87L12.0301 41.88ZM9.06009 8.40996C8.53009 8.40996 8.01009 8.48996 7.50009 8.65996C6.11009 9.09996 5.00009 10.05 4.36009 11.36C3.72009 12.67 3.66009 14.14 4.19009 15.5L12.9701 38.39L19.9501 36.2L14.1201 12.39C13.7801 10.98 12.8901 9.80996 11.6201 9.08996C10.8201 8.63996 9.95009 8.41996 9.07009 8.41996L9.05009 8.39996L9.06009 8.40996Z" fill="#D2AE6D"/>
<path d="M33.7195 75.2999C33.4495 75.2999 33.1995 75.2399 32.9495 75.0999C32.1995 74.6799 31.9295 73.7199 32.3595 72.9799C34.9695 68.3199 36.2195 60.9599 36.0595 56.4199C35.9495 52.8099 33.9495 42.1099 33.2895 38.5899C33.1295 37.7899 32.6695 37.1199 31.9595 36.6999C31.2495 36.2799 30.4395 36.1799 29.6595 36.4299L22.2695 38.7399C21.4395 38.9899 20.5695 38.5399 20.3195 37.7099C20.0495 36.8799 20.5195 36.0099 21.3495 35.7599L28.7395 33.4499C30.3595 32.9499 32.1195 33.1499 33.5695 34.0099C35.0195 34.8899 36.0395 36.3199 36.3695 37.9899C38.2295 47.8699 39.1195 53.6799 39.1995 56.2999C39.3695 61.3899 38.0095 69.2699 35.0895 74.4899C34.8095 75.0099 34.2795 75.2899 33.7295 75.2899H33.7095L33.7195 75.2999Z" fill="#D2AE6D"/>
<path d="M20.4699 77.1601C20.1699 77.1601 19.8799 77.0801 19.6099 76.8901C15.5299 74.2001 11.1999 69.8701 8.60991 65.8701C6.80991 63.0701 3.19991 55.2801 0.51991 49.2101C-0.17009 47.6501 -0.17009 45.8801 0.53991 44.3301C1.24991 42.7801 2.56991 41.6101 4.17991 41.1101L11.2299 38.9101C12.0599 38.6401 12.9299 39.1101 13.1799 39.9401C13.4499 40.7701 12.9799 41.6401 12.1499 41.8901L5.09991 44.0901C4.31991 44.3401 3.70991 44.8701 3.36991 45.6201C3.02991 46.3701 3.02991 47.1801 3.36991 47.9301C7.11991 56.3401 9.91991 62.1001 11.2499 64.1501C13.5899 67.7601 17.6599 71.8201 21.3399 74.2601C22.0599 74.7301 22.2599 75.7001 21.7799 76.4301C21.4799 76.8801 20.9799 77.1301 20.4699 77.1301H20.4899L20.4699 77.1601Z" fill="#D2AE6D"/>
<path d="M28.2496 76.5499C27.5796 76.5499 26.9696 76.1299 26.7696 75.4599L19.8596 53.4099C19.5896 52.5799 20.0596 51.7099 20.8896 51.4599C21.7196 51.1899 22.5896 51.6599 22.8396 52.4899L29.7496 74.5399C30.0196 75.3699 29.5496 76.2399 28.7196 76.4899C28.5596 76.5399 28.4096 76.5699 28.2496 76.5699V76.5499Z" fill="#D2AE6D"/>
</g>
<defs>
<clipPath id="clip0_160_1321">
<rect width="87.56" height="85.7" fill="white"/>
</clipPath>
</defs>
</svg>
