<svg width="99" height="100" viewBox="0 0 99 100" fill="none" xmlns="http://www.w3.org/2000/svg">
<g clip-path="url(#clip0_160_1337)">
<path d="M76.8305 67.7419C82.1519 67.7419 86.4765 63.4032 86.4765 58.0645V54.8387H83.2612C80.7854 54.8387 78.5346 55.7903 76.8305 57.3225V55.5L77.6504 54.6774C79.1777 53.1451 80.0458 51.0322 80.0458 48.8709C80.0458 47.1613 79.5314 45.5161 78.5346 44.129L74.9335 39.0322L71.6378 44.3225C70.8179 45.629 70.3999 47.1451 70.3999 48.6774V48.8871C70.3999 51.0484 71.268 53.1613 72.7953 54.6935L73.6152 55.5161V57.3387C71.9111 55.8064 69.6603 54.8548 67.1845 54.8548H63.9692V58.0806C63.9692 63.4193 68.2938 67.758 73.6152 67.758V74.2096H51.1079V67.758C56.4292 67.758 60.7539 63.4193 60.7539 58.0806V54.8548H57.5385C55.0627 54.8548 52.812 55.8064 51.1079 57.3387V55.5161L51.9278 54.6935C53.4551 53.1613 54.3232 51.0484 54.3232 48.8871C54.3232 47.1774 53.8088 45.5322 52.812 44.1451L49.2108 39.0484L45.9151 44.3387C45.0952 45.6451 44.6772 47.1613 44.6772 48.6935V48.9032C44.6772 51.0645 45.5454 53.1774 47.0726 54.7096L47.8925 55.5322V57.3548C46.1884 55.8225 43.9377 54.8709 41.4619 54.8709H38.2466V58.0967C38.2466 63.4355 42.5712 67.7742 47.8925 67.7742V74.2258H25.3852V67.7742C30.7066 67.7742 35.0312 63.4355 35.0312 58.0967V54.8709H31.8159C29.3401 54.8709 27.0894 55.8225 25.3852 57.3548V55.5322L26.2052 54.7096C27.7324 53.1774 28.6006 51.0645 28.6006 48.9032C28.6006 47.1935 28.0861 45.5484 27.0894 44.1613L23.4882 39.0645L20.1925 44.3548C19.3726 45.6613 18.9546 47.1774 18.9546 48.7096V48.9193C18.9546 51.0806 19.8227 53.1935 21.35 54.7258L22.1699 55.5484V57.3709C20.4658 55.8387 18.2151 54.8871 15.7393 54.8871H12.5239V58.1129C12.5239 63.4516 16.8485 67.7903 22.1699 67.7903V74.2419H9.30859V77.4677H12.5239V80.6935C10.7555 80.6935 9.30859 82.1451 9.30859 83.9193V96.8225C9.30859 98.5967 10.7555 100.048 12.5239 100.048H86.4765C88.2449 100.048 89.6918 98.5967 89.6918 96.8225V83.9193C89.6918 82.1451 88.2449 80.6935 86.4765 80.6935V77.4677H89.6918V74.2419H76.8305V67.7903V67.7419ZM83.2612 58.0645C83.2612 61.629 80.3835 64.5161 76.8305 64.5161C76.8305 60.9516 79.7082 58.0645 83.2612 58.0645ZM73.6152 48.6613C73.6152 47.7258 73.8724 46.8064 74.3708 46.0161L75.1103 44.8387L75.9141 45.9838C76.509 46.8225 76.8305 47.8225 76.8305 48.8709C76.8305 50.1774 76.3 51.4677 75.3675 52.4032L75.2229 52.5484L75.0782 52.4032C74.1457 51.4677 73.6152 50.1935 73.6152 48.8709V48.6613ZM67.1845 58.0645C70.7375 58.0645 73.6152 60.9516 73.6152 64.5161C70.0622 64.5161 67.1845 61.629 67.1845 58.0645ZM57.5385 58.0645C57.5385 61.629 54.6608 64.5161 51.1079 64.5161C51.1079 60.9516 53.9856 58.0645 57.5385 58.0645ZM47.8925 48.6613C47.8925 47.7258 48.1498 46.8064 48.6482 46.0161L49.3877 44.8387L50.1915 45.9838C50.7863 46.8225 51.1079 47.8225 51.1079 48.8709C51.1079 50.1774 50.5774 51.4677 49.6449 52.4032L49.5002 52.5484L49.3555 52.4032C48.4231 51.4677 47.8925 50.1935 47.8925 48.8709V48.6613ZM41.4619 58.0645C45.0148 58.0645 47.8925 60.9516 47.8925 64.5161C44.3396 64.5161 41.4619 61.629 41.4619 58.0645ZM31.8159 58.0645C31.8159 61.629 28.9382 64.5161 25.3852 64.5161C25.3852 60.9516 28.263 58.0645 31.8159 58.0645ZM22.1699 48.6613C22.1699 47.7258 22.4271 46.8064 22.9255 46.0161L23.665 44.8387L24.4689 45.9838C25.0637 46.8225 25.3852 47.8225 25.3852 48.8709C25.3852 50.1774 24.8547 51.4677 23.9223 52.4032L23.7776 52.5484L23.6329 52.4032C22.7004 51.4677 22.1699 50.1935 22.1699 48.8709V48.6613ZM15.7393 58.0645C19.2922 58.0645 22.1699 60.9516 22.1699 64.5161C18.617 64.5161 15.7393 61.629 15.7393 58.0645ZM73.6152 80.6451V77.4193H76.8305V80.6451H73.6152ZM22.1699 80.6451V77.4193H25.3852V80.6451H22.1699ZM28.6006 77.4193H31.8159V80.6451H28.6006V77.4193ZM35.0312 77.4193H38.2466V80.6451H35.0312V77.4193ZM41.4619 77.4193H44.6772V80.6451H41.4619V77.4193ZM47.8925 77.4193H51.1079V80.6451H47.8925V77.4193ZM54.3232 77.4193H57.5385V80.6451H54.3232V77.4193ZM60.7539 77.4193H63.9692V80.6451H60.7539V77.4193ZM67.1845 77.4193H70.3999V80.6451H67.1845V77.4193ZM15.7393 77.4193H18.9546V80.6451H15.7393V77.4193ZM86.4765 96.7742H12.5239V83.8709H86.4765V96.7742ZM83.2612 80.6451H80.0458V77.4193H83.2612V80.6451Z" fill="#D2AE6D"/>
<path d="M54.3232 6.45166H44.6772C42.9088 6.45166 41.4619 7.90327 41.4619 9.67747V19.3549C41.4619 21.1291 42.9088 22.5807 44.6772 22.5807H54.3232C56.0917 22.5807 57.5386 21.1291 57.5386 19.3549V9.67747C57.5386 7.90327 56.0917 6.45166 54.3232 6.45166ZM51.1079 17.742V16.3871C52.5066 16.8549 53.648 17.9355 54.2107 19.3549H44.7898C45.3525 17.9355 46.4939 16.8549 47.8926 16.3871V17.742H51.1079ZM54.3232 9.67747V14.4517C53.3747 13.7742 52.2815 13.3065 51.1079 13.0807V11.2904H47.8926V13.0807C46.719 13.3065 45.6258 13.7742 44.6772 14.4517V9.67747H54.3232Z" fill="#D2AE6D"/>
<path d="M44.6772 25.8064H41.4619V29.0322H44.6772V25.8064Z" fill="#D2AE6D"/>
<path d="M51.1079 25.8064H47.8926V29.0322H51.1079V25.8064Z" fill="#D2AE6D"/>
<path d="M57.5386 25.8064H54.3232V29.0322H57.5386V25.8064Z" fill="#D2AE6D"/>
<path d="M89.7559 35.4839C91.4922 35.4516 92.907 34.0161 92.907 32.2581C92.907 28.0806 90.3025 24.4516 86.4763 23.0323V19.3548C86.4763 16.3548 84.4185 13.8548 81.6533 13.129V9.67742H92.907V6.45161H63.969V3.22581C63.969 1.45161 62.5221 0 60.7537 0H38.2463C36.4779 0 35.031 1.45161 35.031 3.22581V6.45161H6.09305V9.67742H17.3467V13.129C14.5815 13.8548 12.5237 16.3548 12.5237 19.3548V23.0323C8.69747 24.4516 6.09305 28.0968 6.09305 32.2581C6.09305 34.0161 7.50779 35.4355 9.24407 35.4839L0 47.4032L2.54011 49.3871L13.3115 35.5H24.5973L35.3686 49.3871L37.9087 47.4032L28.6647 35.4839C30.4009 35.4516 31.8157 34.0161 31.8157 32.2581C31.8157 28.0806 29.2113 24.4516 25.385 23.0323V19.3548C25.385 16.3548 23.3272 13.8548 20.562 13.129V9.67742H35.031V32.2581C35.031 34.0323 36.4779 35.4839 38.2463 35.4839H60.7537C62.5221 35.4839 63.969 34.0323 63.969 32.2581V9.67742H78.438V13.129C75.6728 13.8548 73.615 16.3548 73.615 19.3548V23.0323C69.7887 24.4516 67.1843 28.0968 67.1843 32.2581C67.1843 34.0161 68.5991 35.4355 70.3353 35.4839L61.0913 47.4032L63.6314 49.3871L74.4027 35.5H85.6885L96.4599 49.3871L99 47.4032L89.7559 35.4839ZM28.6004 32.2581H9.30838C9.30838 29.1935 11.3662 26.5484 14.3243 25.8064H23.5684C26.5265 26.5484 28.5843 29.1935 28.5843 32.2581H28.6004ZM22.1697 19.3548V22.5806H15.739V19.3548C15.739 17.5806 17.1859 16.129 18.9544 16.129C20.7228 16.129 22.1697 17.5806 22.1697 19.3548ZM38.2463 32.2581V3.22581H60.7537V32.2581H38.2463ZM76.8303 19.3548C76.8303 17.5806 78.2772 16.129 80.0456 16.129C81.8141 16.129 83.261 17.5806 83.261 19.3548V22.5806H76.8303V19.3548ZM75.4316 25.8064H84.6757C87.6338 26.5484 89.6916 29.1935 89.6916 32.2581H70.3996C70.3996 29.1935 72.4575 26.5484 75.4156 25.8064H75.4316Z" fill="#D2AE6D"/>
</g>
<defs>
<clipPath id="clip0_160_1337">
<rect width="99" height="100" fill="white"/>
</clipPath>
</defs>
</svg>
