<svg width="101" height="100" viewBox="0 0 101 100" fill="none" xmlns="http://www.w3.org/2000/svg">
<g clip-path="url(#clip0_160_1346)">
<path d="M99.4051 97.3469H0V99.9999H99.4051V97.3469Z" fill="#D2AE6D"/>
<path d="M17.2464 85.1114H17.2345C11.8438 85.065 6.49672 82.0777 3.61191 77.5027C0.699371 72.8839 0.349497 66.7913 2.65206 60.7889C2.87123 60.2199 3.44951 59.8737 4.05024 59.9506C6.78586 60.2995 9.48979 61.3089 11.8703 62.8702C14.2507 64.4315 16.2589 66.5114 17.6782 68.8871C20.732 73.9981 21.0079 80.2684 18.3647 84.492C18.1218 84.8766 17.6993 85.1114 17.2464 85.1114ZM4.75659 62.7521C3.16037 67.623 3.54061 72.4328 5.84186 76.082C8.1233 79.6994 12.2426 82.1321 16.4952 82.4279C18.2102 79.0454 17.8102 74.2607 15.4139 70.2508C13.1298 66.4292 9.11351 63.625 4.75659 62.7521Z" fill="#D2AE6D"/>
<path d="M18.8202 82.8193H16.1797V98.6735H18.8202V82.8193Z" fill="#D2AE6D"/>
<path d="M52.4125 94.4395C51.7431 94.4395 51.079 94.397 50.4228 94.3121C49.9686 94.2537 49.5765 93.9619 49.389 93.5427C47.3466 88.9969 48.4741 82.8234 52.1946 78.1807C52.526 77.7681 52.8785 77.3662 53.2429 76.9868C56.7694 73.3098 61.8789 71.145 66.9118 71.202C67.5191 71.2087 68.0446 71.6305 68.1832 72.2247C69.6461 78.4871 68.4697 84.4735 64.9564 88.6493C62.3436 91.7546 58.4778 93.8226 54.352 94.3227C53.7037 94.3997 53.0568 94.4395 52.4125 94.4395ZM51.52 91.756C52.3478 91.813 53.1901 91.7905 54.0324 91.687C57.5048 91.2652 60.75 89.5328 62.9377 86.9342C65.7143 83.6339 66.7467 78.9222 65.8278 73.8776C61.8577 74.1163 57.9273 75.9203 55.1415 78.824C54.8312 79.1477 54.5302 79.4912 54.2477 79.8428C51.3312 83.4853 50.2829 88.1705 51.52 91.756Z" fill="#D2AE6D"/>
<path d="M51.0087 82.8193H48.3682V98.6735H51.0087V82.8193Z" fill="#D2AE6D"/>
<path d="M84.5718 94.438C83.9157 94.438 83.2608 94.3969 82.6112 94.312C82.1571 94.2536 81.7663 93.9618 81.5775 93.5426C79.5337 88.9954 80.6612 82.822 84.3817 78.1793C86.1113 76.0211 88.3835 74.2369 90.9541 73.0179C93.5247 71.7988 96.3369 71.1727 99.0976 71.2006C99.7049 71.2072 100.23 71.629 100.369 72.2233C101.832 78.4857 100.657 84.4734 97.1422 88.6479C94.0845 92.2798 89.3103 94.438 84.5718 94.438ZM83.7084 91.7559C87.9636 92.0477 92.3734 90.2039 95.1262 86.9341C97.904 83.6351 98.9352 78.9234 98.0162 73.8788C93.5814 74.1454 89.2205 76.3699 86.4387 79.8427C83.5183 83.4852 82.47 88.1704 83.7084 91.7559Z" fill="#D2AE6D"/>
<path d="M81.6224 85.1114H81.6105C76.2198 85.065 70.8727 82.0777 67.9879 77.5027C65.0753 72.8839 64.7255 66.7913 67.028 60.7889C67.2472 60.2199 67.8242 59.8737 68.4262 59.9506C71.1618 60.2995 73.8658 61.3089 76.2462 62.8702C78.6267 64.4315 80.6348 66.5114 82.0541 68.8871C85.1079 73.9981 85.3839 80.2684 82.7394 84.492C82.4977 84.8766 82.0753 85.1114 81.6224 85.1114ZM69.1339 62.7521C67.5377 67.623 67.9179 72.4328 70.2192 76.082C72.5006 79.6994 76.6199 82.1321 80.8725 82.4279C82.5875 79.0454 82.1875 74.2607 79.7912 70.2508C77.5058 66.4292 73.4895 63.625 69.1339 62.7521Z" fill="#D2AE6D"/>
<path d="M83.1972 82.8193H80.5566V98.6735H83.1972V82.8193Z" fill="#D2AE6D"/>
<path d="M49.4341 85.1114H49.4236C47.8854 85.0982 46.3367 84.8501 44.8211 84.3739C43.1166 83.8393 41.5098 83.0355 40.0456 81.9836C38.588 80.9356 37.3311 79.6834 36.3119 78.2601C36.1415 78.0266 35.9726 77.7759 35.7996 77.5C34.3605 75.2158 33.5393 72.6079 33.3624 69.748C33.1815 66.8364 33.6792 63.8226 34.8424 60.7903C35.0616 60.2199 35.6398 59.8737 36.2419 59.9506C37.9847 60.1734 39.7023 60.6589 41.3487 61.3898C43.0598 62.1512 44.6494 63.1607 46.0766 64.3903C47.591 65.6969 48.8664 67.2091 49.8685 68.8858C52.9223 73.9968 53.1969 80.2684 50.5537 84.4906C50.3095 84.878 49.8883 85.1114 49.4341 85.1114ZM36.9456 62.7521C36.1785 65.0788 35.8603 67.3723 35.9963 69.5822C36.1455 71.9911 36.8307 74.1785 38.0309 76.082C38.1735 76.3088 38.3094 76.5118 38.4494 76.7041C39.3063 77.8993 40.3572 78.9472 41.5811 79.8267C42.8156 80.7141 44.1715 81.3919 45.6079 81.843C46.6246 82.1626 47.6557 82.359 48.6829 82.4293C50.3992 79.048 49.9979 74.2621 47.6016 70.2521C46.7447 68.8195 45.6528 67.5248 44.3537 66.404C43.1245 65.3441 41.7527 64.4726 40.278 63.8173C39.1954 63.3345 38.0784 62.979 36.9456 62.7521Z" fill="#D2AE6D"/>
<path d="M20.2268 94.4394C19.56 94.4394 18.8946 94.397 18.2345 94.3108C17.7803 94.2511 17.3895 93.9606 17.2007 93.5414C15.1556 88.9942 16.2818 82.8194 20.005 78.178C22.1979 75.4401 25.2887 73.3018 28.7082 72.1584C30.6755 71.5005 32.7047 71.1768 34.7221 71.1993C35.3294 71.206 35.8549 71.6291 35.9935 72.2234C36.3857 73.9054 36.5943 75.5807 36.6128 77.2044C36.6141 77.2906 36.6141 77.3887 36.6141 77.4856V77.4882C36.6048 81.8059 35.274 85.6647 32.7655 88.6467C31.9284 89.6389 30.962 90.5316 29.8939 91.2996C27.0632 93.3384 23.6278 94.4394 20.2268 94.4394ZM19.3329 91.7559C22.4712 91.9748 25.7205 91.041 28.357 89.1428C29.2496 88.5007 30.0549 87.7579 30.7507 86.9342C32.8513 84.4377 33.9656 81.1692 33.9748 77.4856C33.9748 77.406 33.9748 77.3251 33.9735 77.2455C33.9603 76.1432 33.8494 75.0157 33.6421 73.8775C32.2651 73.9584 30.8907 74.2251 29.544 74.6761C26.5998 75.6603 23.9434 77.4949 22.0633 79.8414C19.1415 83.4853 18.0932 88.1704 19.3329 91.7559Z" fill="#D2AE6D"/>
<path d="M81.5084 54.3901H1.37008C0.64129 54.3901 0.0498047 53.7958 0.0498047 53.0636V48.0627C0.0498047 45.9788 1.73712 44.2822 3.8126 44.2822H79.0658C81.14 44.2822 82.8286 45.9775 82.8286 48.0627V53.0636C82.8286 53.7958 82.2371 54.3901 81.5084 54.3901ZM2.69036 51.7371H80.1881V48.0627C80.1881 47.4406 79.6851 46.9352 79.0658 46.9352H3.8126C3.19339 46.9352 2.69036 47.4406 2.69036 48.0627V51.7371Z" fill="#D2AE6D"/>
<path d="M65.4803 46.9352H17.3984C16.6696 46.9352 16.0781 46.341 16.0781 45.6088V38.3184C16.0781 35.8511 18.0757 33.8455 20.5301 33.8455H62.3486C64.8043 33.8455 66.8006 35.8524 66.8006 38.3184V45.6088C66.8006 46.341 66.2104 46.9352 65.4803 46.9352ZM18.7187 44.2823H64.16V38.3184C64.16 37.3142 63.3467 36.4984 62.3486 36.4984H20.5301C19.5307 36.4984 18.7187 37.3156 18.7187 38.3184V44.2823Z" fill="#D2AE6D"/>
<path d="M56.6474 36.4983H26.1529C25.4902 36.4983 24.9304 36.0049 24.8445 35.3456L20.8388 4.88944C20.6764 3.65448 21.0527 2.41023 21.8686 1.47373C22.6859 0.537228 23.8649 0 25.1046 0H57.7736C59.0134 0 60.1924 0.537228 61.0096 1.47373C61.8269 2.41023 62.2018 3.6558 62.0394 4.88944L58.9804 28.1521L58.0377 35.3098C57.9783 35.7635 57.6904 36.1534 57.2759 36.3431L57.194 36.3803C57.0224 36.4572 56.8362 36.4983 56.6474 36.4983ZM27.3108 33.8454H55.5674L56.3636 27.8032L59.4226 4.54057C59.486 4.0564 59.3447 3.58815 59.0252 3.22071C58.7044 2.85328 58.2608 2.65165 57.7749 2.65165H25.1046C24.6188 2.65165 24.1752 2.85328 23.8543 3.22071C23.5335 3.58815 23.3922 4.0564 23.4569 4.54057L27.3108 33.8454Z" fill="#D2AE6D"/>
<path d="M56.7258 36.4983H56.6492C56.0274 36.4983 55.49 36.0632 55.3593 35.453C55.2273 34.8429 55.5376 34.2234 56.1026 33.9647L56.1845 33.9276C56.6189 33.7286 57.1245 33.7817 57.5101 34.0642C57.8956 34.3468 58.0989 34.815 58.0421 35.2912L58.0382 35.3284C57.9576 35.9956 57.3939 36.4983 56.7258 36.4983Z" fill="#D2AE6D"/>
<path d="M47.8203 36.4984H35.0572C34.6809 36.4984 34.3231 36.3365 34.0723 36.0553C33.8214 35.7741 33.7026 35.3974 33.7461 35.022L35.0308 23.7057C35.1945 22.2612 36.4105 21.1721 37.8575 21.1721H45.0213C46.4684 21.1721 47.683 22.2612 47.848 23.7057L49.1327 35.022C49.1749 35.3974 49.0561 35.7741 48.8066 36.0553C48.557 36.3365 48.1966 36.4984 47.8203 36.4984ZM36.5372 33.8454H46.3403L45.2233 24.0068C45.2114 23.9034 45.1243 23.8251 45.0213 23.8251H37.8575C37.7532 23.8251 37.6661 23.9034 37.6542 24.0068L36.5372 33.8454Z" fill="#D2AE6D"/>
<path d="M59.954 9.30273H22.9268V11.9557H59.954V9.30273Z" fill="#D2AE6D"/>
<path d="M2.69036 53.0635H0.0498047V66.6029H2.69036V53.0635Z" fill="#D2AE6D"/>
<path d="M22.7255 53.0635H20.085V66.6029H22.7255V53.0635Z" fill="#D2AE6D"/>
<path d="M42.7597 53.0635H40.1191V62.6036H42.7597V53.0635Z" fill="#D2AE6D"/>
<path d="M62.7949 53.0635H60.1543V66.6029H62.7949V53.0635Z" fill="#D2AE6D"/>
<path d="M82.829 53.0635H80.1885V66.6029H82.829V53.0635Z" fill="#D2AE6D"/>
<path d="M56.7299 36.4612C56.446 36.4612 56.1648 36.3697 55.9325 36.1919C55.5549 35.9041 55.3595 35.4332 55.4215 34.961L56.3642 27.8045C56.4249 27.3389 56.7273 26.941 57.1577 26.7579L85.067 14.862C87.3485 13.8897 89.9732 14.082 92.0896 15.3793L100.368 20.4505C100.748 20.684 100.986 21.0938 101 21.5422C101.013 21.9905 100.802 22.415 100.436 22.671L91.7635 28.7517C91.4651 28.9612 91.0941 29.0369 90.7376 28.9626C90.3812 28.8883 90.0722 28.6681 89.8821 28.3564L87.0633 23.7282C87.0079 23.6367 86.893 23.6009 86.7953 23.642L57.2527 36.3551C57.0824 36.4254 56.9055 36.4612 56.7299 36.4612ZM58.882 28.9029L58.3433 32.9978L85.7536 21.2026C87.0475 20.6455 88.579 21.135 89.3144 22.3421L91.4017 25.7684L97.2664 21.6563L90.7152 17.6423C89.3236 16.7907 87.598 16.6634 86.0982 17.3027L58.882 28.9029Z" fill="#D2AE6D"/>
</g>
<defs>
<clipPath id="clip0_160_1346">
<rect width="101" height="100" fill="white"/>
</clipPath>
</defs>
</svg>
