<svg width="81" height="100" viewBox="0 0 81 100" fill="none" xmlns="http://www.w3.org/2000/svg">
<g clip-path="url(#clip0_160_1304)">
<path d="M47.8628 48.4375H12.4599C11.6032 48.4375 10.9023 49.1406 10.9023 50C10.9023 50.8594 11.6032 51.5625 12.4599 51.5625H45.1683L47.8628 48.4375Z" fill="#D2AE6D"/>
<path d="M53.322 42.1875H12.4599C11.6032 42.1875 10.9023 42.8906 10.9023 43.75C10.9023 44.6094 11.6032 45.3125 12.4599 45.3125H50.6197L53.322 42.1875Z" fill="#D2AE6D"/>
<path d="M63.8592 95.3125C63.8592 96.1719 63.1583 96.875 62.3017 96.875H4.67263C3.81598 96.875 3.11508 96.1719 3.11508 95.3125V4.6875C3.11508 3.82812 3.81598 3.125 4.67263 3.125H38.9386V21.0938C38.9386 24.5469 40.9478 26.5625 44.39 26.5625H63.8592V30.125L64.638 29.2188C65.2922 28.4688 66.0865 27.8594 66.9743 27.4141V25.1562L40.3326 0H4.67263C2.09489 0 0 2.10156 0 4.6875V95.3125C0 97.8984 2.09489 100 4.67263 100H62.3017C64.8794 100 66.9743 97.8984 66.9743 95.3125V61.9922L63.8592 65.5547V95.3125ZM42.0536 21.0938V5.95312L60.604 23.4375H44.39C42.6689 23.4375 42.0536 22.8203 42.0536 21.0938Z" fill="#D2AE6D"/>
<path d="M80.9921 39.1485C80.922 37.9141 80.3612 36.7579 79.4345 35.9454L73.6015 30.836C71.6779 29.1094 68.7186 29.2813 67.0053 31.2188C66.9975 31.2266 66.982 31.2422 66.9742 31.2501L29.2427 74.4922C29.0869 74.6719 28.9701 74.8907 28.9078 75.1251L24.975 90.2344C24.757 91.0704 25.2554 91.9219 26.0887 92.1407C26.4158 92.2266 26.7584 92.2032 27.0699 92.0782L41.5006 86.1641C41.7264 86.0704 41.9211 85.9297 42.0846 85.7501L79.8395 42.5391C80.665 41.6094 81.0777 40.3907 80.9921 39.1485ZM31.3765 78L38.5412 83.9922L28.7677 87.9922L31.3765 78ZM41.1345 82.086L32.8173 75.1329L64.9494 38.3594L73.2666 45.3126L41.1345 82.086ZM77.5032 40.4688L75.3226 42.9688L66.9742 36.0079L69.3105 33.336C69.8712 32.6954 70.8447 32.6329 71.491 33.1876L77.3552 38.2813C77.9782 38.8438 78.0483 39.8047 77.5032 40.4532V40.4688Z" fill="#D2AE6D"/>
<path d="M14.5943 22.0234C11.8219 23.5234 10.1086 26.4375 10.1241 29.5938V35.9375C10.1241 36.7969 10.825 37.5 11.6817 37.5C12.5383 37.5 13.2392 36.7969 13.2392 35.9375V29.5938C13.2003 27.3203 14.6021 25.2656 16.7281 24.4766C15.8792 23.7891 15.155 22.9609 14.5943 22.0234Z" fill="#D2AE6D"/>
<path d="M33.4869 37.5C34.3435 37.5 35.0444 36.7969 35.0444 35.9375V29.5938C35.0678 26.4297 33.3467 23.5156 30.5743 22.0156C30.0135 22.9531 29.2893 23.7891 28.4404 24.4766C30.5665 25.2656 31.9683 27.3203 31.9293 29.5938V35.9375C31.9293 36.7969 32.6302 37.5 33.4869 37.5Z" fill="#D2AE6D"/>
<path d="M22.5847 10.9375C19.1425 10.9375 16.3545 13.7344 16.3545 17.1875C16.3545 20.6406 19.1425 23.4375 22.5847 23.4375C26.0268 23.4375 28.8148 20.6406 28.8148 17.1875C28.8148 13.7344 26.0268 10.9375 22.5847 10.9375ZM22.5847 20.3125C20.8636 20.3125 19.4696 18.9141 19.4696 17.1875C19.4696 15.4609 20.8636 14.0625 22.5847 14.0625C24.3057 14.0625 25.6997 15.4609 25.6997 17.1875C25.6997 18.9141 24.3057 20.3125 22.5847 20.3125Z" fill="#D2AE6D"/>
<path d="M42.3959 54.6875H12.4599C11.6032 54.6875 10.9023 55.3906 10.9023 56.25C10.9023 57.1094 11.6032 57.8125 12.4599 57.8125H39.6702L42.3959 54.6875Z" fill="#D2AE6D"/>
<path d="M36.9367 60.9375H12.4599C11.6032 60.9375 10.9023 61.6406 10.9023 62.5C10.9023 63.3594 11.6032 64.0625 12.4599 64.0625H34.211L36.9367 60.9375Z" fill="#D2AE6D"/>
<path d="M31.4775 67.1875H12.4599C11.6032 67.1875 10.9023 67.8906 10.9023 68.75C10.9023 69.6094 11.6032 70.3125 12.4599 70.3125H28.744L31.4775 67.1875Z" fill="#D2AE6D"/>
<path d="M25.8937 74.3359C25.9716 74.0234 26.0884 73.7266 26.2286 73.4375H12.4599C11.6032 73.4375 10.9023 74.1406 10.9023 75C10.9023 75.8594 11.6032 76.5625 12.4599 76.5625H25.3096L25.8937 74.3359Z" fill="#D2AE6D"/>
<path d="M56.0713 75C56.0713 74.8516 56.048 74.6953 56.0013 74.5547L54.249 76.5625H54.5138C55.3705 76.5625 56.0713 75.8594 56.0713 75Z" fill="#D2AE6D"/>
<path d="M10.9023 81.25C10.9023 82.1094 11.6032 82.8125 12.4599 82.8125H23.682L24.4608 79.6875H12.4599C11.6032 79.6875 10.9023 80.3906 10.9023 81.25Z" fill="#D2AE6D"/>
<path d="M56.0715 81.25C56.0715 80.3906 55.3706 79.6875 54.514 79.6875H51.5157L48.7822 82.8125H54.514C55.3706 82.8125 56.0715 82.1094 56.0715 81.25Z" fill="#D2AE6D"/>
</g>
<defs>
<clipPath id="clip0_160_1304">
<rect width="81" height="100" fill="white"/>
</clipPath>
</defs>
</svg>
