<svg width="63" height="62" viewBox="0 0 63 62" fill="none" xmlns="http://www.w3.org/2000/svg">
<path d="M14.4203 1.14546C14.4961 1.20318 14.572 1.2609 14.6501 1.32037C14.9863 1.61389 14.9863 1.61389 15.3179 1.52795C15.4268 1.46199 15.5357 1.39602 15.6479 1.32806C15.8253 1.22696 16.0035 1.12714 16.1822 1.02822C16.2684 0.977635 16.3546 0.927052 16.4434 0.874935C17.3271 0.448906 18.1456 0.275028 19.1285 0.282462C19.2924 0.283518 19.2924 0.283518 19.4596 0.284594C21.2853 0.333528 22.6099 1.07124 23.8505 2.35059C24.6136 3.22677 24.9979 4.13926 25.2019 5.26442C25.36 5.25428 25.5182 5.24413 25.6811 5.23367C26.9268 5.23941 27.962 5.79041 28.8474 6.61755C29.9548 7.75259 30.3089 8.93637 30.2894 10.4758C30.2306 11.9307 29.6585 12.9946 28.5877 13.9949C27.2485 15.099 25.8472 15.1736 24.1726 15.1361C23.9791 15.1336 23.7855 15.1314 23.5919 15.1294C23.1228 15.124 22.6538 15.1155 22.1848 15.1053C23.0234 16.4391 23.8683 17.7684 24.7304 19.0878C25.0138 19.5232 25.2966 19.9589 25.579 20.3948C25.6361 20.4827 25.6932 20.5705 25.752 20.661C27.861 23.9232 28.835 27.6955 28.0772 31.5548C27.976 31.9829 27.8545 32.401 27.716 32.819C27.6891 32.9028 27.6622 32.9867 27.6344 33.0731C27.0583 34.8233 26.184 36.3477 24.9504 37.7394C24.867 37.8389 24.7835 37.9383 24.6975 38.0407C23.3357 39.6098 21.5886 40.6401 19.8121 41.7037C19.6963 41.7753 19.5805 41.8469 19.4613 41.9207C19.1701 42.0924 18.8924 42.2425 18.5889 42.3872C17.931 42.7192 17.3881 42.9943 17.123 43.6968C17.0662 44.2102 17.0639 44.6981 17.0828 45.2129C17.0832 45.3988 17.0829 45.5848 17.0819 45.7707C17.0812 46.257 17.091 46.7425 17.103 47.2286C17.1135 47.7258 17.1139 48.223 17.1152 48.7204C17.1192 49.6938 17.1343 50.6666 17.1564 51.6397C17.3021 51.6199 17.4478 51.6002 17.598 51.5798C19.9049 51.2989 22.5672 51.319 24.8247 51.8857C24.9784 51.9224 24.9784 51.9224 25.1352 51.9598C28.1769 52.697 30.9488 53.9995 33.373 55.9451C33.4568 55.8915 33.5405 55.8379 33.6269 55.7827C33.7427 55.7095 33.8586 55.6362 33.978 55.5607C34.1464 55.4537 34.1464 55.4537 34.3183 55.3445C34.9126 54.9907 35.5279 54.6719 36.1386 54.346C36.1386 52.6816 36.1386 51.0173 36.1386 49.3025C34.8478 48.7433 34.8478 48.7433 33.5553 48.1878C30.6991 46.9457 28.7157 45.1554 27.5574 42.264C26.7289 39.7378 27.096 37.1074 28.302 34.7821C28.7363 33.9847 29.2636 33.2676 29.815 32.545C30.0939 32.1738 30.358 31.7928 30.6231 31.412C31.2003 30.5865 31.783 29.7648 32.3673 28.9441C32.9353 28.1461 33.5024 27.3475 34.0644 26.5454C34.6478 25.7129 35.2356 24.8833 35.8243 24.0544C35.9555 23.8696 35.9555 23.8696 36.0892 23.6811C36.1716 23.5651 36.254 23.4492 36.3389 23.3298C36.4124 23.2264 36.4859 23.1229 36.5616 23.0164C36.7513 22.754 36.9457 22.496 37.1443 22.24C37.6155 22.4215 37.7901 22.6467 38.0557 23.0626C38.6482 23.9632 39.269 24.843 39.9037 25.7157C40.303 26.2674 40.6863 26.8114 41.0133 27.4074C41.4873 28.3118 41.4873 28.3118 42.322 28.8426C42.8626 28.9174 43.3922 28.9049 43.9365 28.886C44.9964 28.8524 45.9961 29.2213 46.8318 29.859C47.168 30.1525 47.168 30.1525 47.4996 30.0666C47.6085 30.0006 47.7174 29.9347 47.8296 29.8667C48.007 29.7656 48.1852 29.6658 48.3639 29.5669C48.4501 29.5163 48.5363 29.4657 48.6251 29.4136C49.5088 28.9876 50.3273 28.8137 51.3102 28.8211C51.4194 28.8218 51.5287 28.8225 51.6413 28.8232C53.467 28.8722 54.7916 29.6099 56.0321 30.8892C56.7953 31.7654 57.1795 32.6779 57.3835 33.8031C57.5417 33.7929 57.6998 33.7828 57.8628 33.7723C59.1085 33.7781 60.1436 34.3291 61.0291 35.1562C62.1364 36.2912 62.4906 37.475 62.4711 39.0144C62.4122 40.4693 61.8401 41.5332 60.7693 42.5335C59.2354 43.7982 57.5869 43.7108 55.685 43.692C55.4107 43.6911 55.1365 43.6904 54.8623 43.6899C54.1445 43.6881 53.4268 43.6832 52.7091 43.6778C51.9751 43.6727 51.2411 43.6705 50.5071 43.668C49.0698 43.6628 47.6326 43.6544 46.1954 43.644C46.1579 43.739 46.1205 43.8341 46.0819 43.932C44.8067 46.9554 41.1967 48.1109 38.4014 49.3025C38.4014 50.6421 38.4014 51.9817 38.4014 53.3619C39.0728 53.1717 39.0728 53.1717 39.7435 52.9792C41.2634 52.5575 42.7705 52.4544 44.3411 52.4624C44.4326 52.4626 44.524 52.4628 44.6181 52.463C45.9759 52.4687 47.2647 52.5291 48.5838 52.8698C48.6711 52.8916 48.7583 52.9134 48.8482 52.9358C51.8972 53.7061 54.4539 55.1693 56.7707 57.2291C56.866 57.3121 56.866 57.3121 56.9633 57.3969C57.2838 57.6829 57.5332 57.9463 57.7872 58.2953C58.2421 58.8826 58.5511 59.2072 59.2964 59.3367C60.3352 59.4298 61.3701 59.4193 62.4119 59.3894C62.4119 60.0389 62.4119 60.6884 62.4119 61.3576C41.8358 61.3576 21.2596 61.3576 0.0599278 61.3576C0.0599278 60.7081 0.0599278 60.0586 0.0599278 59.3894C0.28485 59.4091 0.509772 59.4288 0.74151 59.449C2.6586 59.5575 2.6586 59.5575 4.32473 58.7494C4.87058 58.2301 5.3634 57.6682 5.84619 57.0927C6.3216 56.543 6.88706 56.1267 7.4768 55.6991C7.60255 55.6033 7.72829 55.5076 7.85785 55.4089C9.93296 53.8614 12.5385 52.4835 15.1451 52.1318C15.193 51.0068 15.2256 49.8826 15.2392 48.7566C15.246 48.2335 15.2578 47.7116 15.2817 47.1889C15.4692 44.957 15.4692 44.957 14.7576 42.9232C14.121 42.358 13.4077 42.0178 12.6157 41.7069C12.0131 41.4504 11.4789 41.094 10.9338 40.7378C10.825 40.6683 10.7162 40.5987 10.6041 40.527C7.17074 38.3277 5.117 35.2414 4.20835 31.3428C3.37583 27.0553 4.76349 23.2082 7.18925 19.7057C7.82606 18.785 8.43343 17.8456 9.04399 16.9081C9.12672 16.7811 9.20944 16.6541 9.29468 16.5233C9.36831 16.4101 9.44194 16.2969 9.5178 16.1802C9.75547 15.8193 9.99813 15.462 10.2424 15.1053C10.1289 15.107 10.1289 15.107 10.0131 15.1086C9.21971 15.1196 8.42636 15.127 7.63292 15.1324C7.3375 15.1348 7.04209 15.1382 6.74669 15.1425C6.32008 15.1485 5.89356 15.1512 5.46692 15.1534C5.33657 15.1559 5.20621 15.1585 5.07191 15.1611C3.63898 15.1615 2.48176 14.7228 1.44273 13.7522C0.335419 12.6172 -0.0187341 11.4334 0.000755877 9.89399C0.0596141 8.43911 0.631702 7.37517 1.7025 6.37489C2.71202 5.54256 3.7748 5.18014 5.08831 5.26442C5.11683 5.10712 5.14535 4.94982 5.17474 4.78776C5.55207 3.17174 6.61491 1.90907 8.02629 1.01717C9.91365 -0.0174029 12.5891 -0.070025 14.4203 1.14546ZM8.8596 3.05022C8.78636 3.09747 8.71311 3.14473 8.63765 3.19341C7.79136 3.80823 7.4222 4.65295 7.22538 5.63346C7.32374 5.69879 7.4221 5.76412 7.52345 5.83143C7.65065 5.91833 7.77786 6.00522 7.90892 6.09475C8.03581 6.18038 8.16269 6.26601 8.29342 6.35423C8.60818 6.61755 8.60818 6.61755 8.73389 7.1096C8.31905 7.47494 7.90421 7.84028 7.4768 8.2167C6.97396 7.97068 6.97396 7.97068 6.58897 7.71696C5.84921 7.23951 5.06929 7.26878 4.20835 7.35562C3.37386 7.64932 2.68773 8.34814 2.30502 9.1215C2.05975 9.86007 2.06267 10.7377 2.38556 11.4534C2.80749 12.1572 3.51746 12.8039 4.33406 13.0141C5.48887 13.2473 6.69472 13.2225 7.86903 13.2478C8.17245 13.256 8.47581 13.2678 8.77895 13.2831C10.3924 13.431 10.3924 13.431 11.8796 12.9663C12.2957 12.5413 12.55 12.0535 12.7828 11.5152C12.9101 11.2296 13.0769 10.9829 13.2589 10.7279C13.3614 10.5726 13.4637 10.4172 13.5659 10.2618C13.6809 10.0872 13.796 9.91259 13.9111 9.738C13.9687 9.65043 14.0264 9.56286 14.0858 9.47264C14.2723 9.18986 14.4594 8.90745 14.6467 8.62513C14.7403 8.48394 14.7403 8.48394 14.8358 8.33989C14.9549 8.16017 15.0741 7.9805 15.1934 7.80087C15.4233 7.45387 15.6486 7.10839 15.8601 6.75017C16.0251 6.49454 16.0251 6.49454 16.2765 6.37153C16.3066 6.4565 16.3367 6.54147 16.3677 6.62902C16.5571 7.05173 16.8083 7.41226 17.0793 7.78712C17.188 7.94038 17.2966 8.09366 17.4052 8.24697C17.576 8.48676 17.7472 8.72625 17.9192 8.96528C18.0856 9.19711 18.2504 9.42998 18.415 9.66304C18.4671 9.73455 18.5192 9.80606 18.5729 9.87973C18.7154 10.0826 18.7154 10.0826 18.9164 10.4309C18.7509 10.9166 18.5325 10.9906 18.0914 11.2535C17.9642 11.3301 17.837 11.4067 17.7059 11.4856C17.6076 11.5435 17.5092 11.6014 17.4079 11.661C17.0674 11.345 16.8006 11.0398 16.5593 10.6462C16.5055 10.5593 16.4517 10.4724 16.3963 10.3829C16.3567 10.3175 16.3172 10.2522 16.2765 10.1849C15.7903 10.6272 15.4383 11.0872 15.0979 11.6456C14.5656 12.4987 14.0155 13.3389 13.4559 14.1751C13.293 14.4187 13.1301 14.6623 12.9673 14.9059C12.8495 15.082 12.8495 15.082 12.7294 15.2616C12.4123 15.7365 12.097 16.2126 11.7824 16.6891C11.7273 16.7725 11.6722 16.8559 11.6154 16.9418C11.506 17.1076 11.3965 17.2733 11.2871 17.4391C11.0599 17.7832 10.8324 18.1273 10.6048 18.4712C10.4894 18.6458 10.3741 18.8203 10.2588 18.9949C9.96752 19.4361 9.67511 19.8764 9.38061 20.3155C7.85196 22.5898 7.85196 22.5898 6.72254 25.0693C6.67311 25.2055 6.62369 25.3417 6.57277 25.482C5.66865 28.4074 6.12119 31.6223 7.55144 34.3014C8.03469 35.1472 8.58419 35.9043 9.23673 36.6323C9.31938 36.7278 9.40202 36.8233 9.48717 36.9216C10.4408 37.9411 11.6311 38.6425 12.8126 39.383C13.1055 39.5669 13.3967 39.7531 13.6871 39.9407C14.3684 40.4574 14.3684 40.4574 15.1451 40.6917C15.4777 39.1855 15.8066 37.3181 14.9393 35.9351C13.7085 34.3233 12.071 32.9891 10.4938 31.7119C10.6956 31.2923 10.9219 31.0208 11.2638 30.697C11.3549 30.6101 11.4459 30.5232 11.5398 30.4337C11.6095 30.3684 11.6791 30.3031 11.7509 30.2357C12.2364 30.4303 12.5387 30.7341 12.9034 31.0978C12.9638 31.1575 13.0242 31.2172 13.0864 31.2788C13.2782 31.4687 13.4692 31.6594 13.6601 31.8503C13.8525 32.0419 14.045 32.2333 14.2379 32.4244C14.4121 32.597 14.5857 32.7703 14.7592 32.9435C14.9744 33.2022 14.9744 33.2022 15.1451 33.188C15.7238 29.8152 15.7238 29.8152 14.6886 26.6859C13.5 25.2213 11.9996 23.9967 10.4938 22.8551C10.6956 22.4355 10.9219 22.164 11.2638 21.8402C11.3549 21.7533 11.4459 21.6664 11.5398 21.5769C11.6095 21.5116 11.6791 21.4462 11.7509 21.3789C12.2364 21.5735 12.5387 21.8773 12.9034 22.241C12.9638 22.3007 13.0242 22.3604 13.0864 22.4219C13.2782 22.6119 13.4692 22.8026 13.6601 22.9934C13.8525 23.1851 14.045 23.3765 14.2379 23.5676C14.4121 23.7402 14.5857 23.9134 14.7592 24.0867C14.9744 24.3454 14.9744 24.3454 15.1451 24.3312C15.1451 20.9619 15.1451 17.5926 15.1451 14.1212C15.8088 14.1212 16.4726 14.1212 17.1564 14.1212C17.1564 17.4905 17.1564 20.8598 17.1564 24.3312C17.6676 23.9025 18.1479 23.4994 18.6173 23.0367C18.7166 22.9392 18.8158 22.8417 18.9181 22.7412C19.0186 22.6418 19.1192 22.5423 19.2228 22.4399C19.3787 22.2865 19.3787 22.2865 19.5378 22.13C19.7919 21.8799 20.0457 21.6295 20.2992 21.3789C20.7279 21.5764 21.0054 21.7978 21.3363 22.1324C21.4251 22.2215 21.5139 22.3106 21.6054 22.4024C21.7055 22.5047 21.7055 22.5047 21.8077 22.609C21.6374 22.9948 21.464 23.2064 21.1238 23.4604C18.2967 25.5474 18.2967 25.5474 16.8953 28.5749C16.7801 30.1167 16.926 31.6621 17.1564 33.188C17.6609 32.772 18.1522 32.352 18.6173 31.8935C18.7166 31.796 18.8158 31.6985 18.9181 31.598C19.0186 31.4986 19.1192 31.3992 19.2228 31.2967C19.3787 31.1433 19.3787 31.1433 19.5378 30.9868C19.7919 30.7367 20.0457 30.4864 20.2992 30.2357C20.7279 30.4332 21.0054 30.6546 21.3363 30.9892C21.4251 31.0783 21.5139 31.1674 21.6054 31.2592C21.7055 31.3615 21.7055 31.3615 21.8077 31.4659C21.6366 31.8513 21.4553 32.0737 21.1238 32.3387C21.0358 32.4107 20.9477 32.4828 20.857 32.557C20.7621 32.6345 20.6671 32.7121 20.5693 32.7921C18.0633 34.7629 18.0633 34.7629 16.8652 37.5333C16.8099 38.5937 16.9421 39.6535 17.1564 40.6917C17.6046 40.5287 17.9947 40.334 18.3983 40.0839C18.5134 40.0126 18.6285 39.9414 18.7471 39.868C18.8677 39.7923 18.9884 39.7165 19.1128 39.6384C19.237 39.5605 19.3612 39.4826 19.4891 39.4023C22.7886 37.3169 24.9643 34.854 25.9561 31.0968C26.7656 26.9056 25.1853 23.6359 22.909 20.2351C22.573 19.7306 22.2452 19.221 21.9177 18.7111C21.7946 18.5202 21.6715 18.3292 21.5484 18.1383C21.4575 17.9973 21.4575 17.9973 21.3648 17.8534C21.1747 17.5587 20.9845 17.2642 20.7942 16.9697C20.6974 16.82 20.6974 16.82 20.5988 16.6673C20.4795 16.4827 20.3601 16.298 20.2407 16.1134C19.6279 15.1646 19.021 14.2122 18.4135 13.2602C18.4961 13.2592 18.5786 13.2582 18.6636 13.2572C19.5263 13.2465 20.389 13.2343 21.2517 13.2211C21.5732 13.2164 21.8947 13.2121 22.2162 13.2083C22.6796 13.2026 23.143 13.1955 23.6064 13.1881C23.7491 13.1867 23.8917 13.1852 24.0387 13.1838C25.2798 13.1614 26.3746 13.1017 27.2923 12.1973C27.9853 11.4456 28.1543 10.8261 28.1315 9.81585C28.0353 8.88898 27.5527 8.36867 26.8484 7.77943C26.0984 7.27376 25.3315 7.26263 24.4476 7.35562C23.8812 7.53478 23.4717 7.79428 23.0648 8.2167C22.6577 8.03904 22.3583 7.81596 22.0277 7.52476C21.9389 7.44706 21.8501 7.36936 21.7586 7.28931C21.6584 7.20035 21.6584 7.20035 21.5563 7.1096C21.5917 6.71544 21.6823 6.61725 21.9967 6.35423C22.1236 6.2686 22.2505 6.18297 22.3812 6.09475C22.5085 6.00786 22.6357 5.92096 22.7667 5.83143C22.8651 5.7661 22.9634 5.70077 23.0648 5.63346C22.825 4.56295 22.4089 3.72708 21.4885 3.06752C20.4227 2.42145 19.541 2.33981 18.2878 2.43516C16.9291 2.76135 16.2505 3.52753 15.4888 4.62102C15.3809 4.75683 15.3809 4.75683 15.2708 4.89539C15.1878 4.89539 15.1049 4.89539 15.0194 4.89539C14.8239 4.64744 14.6382 4.39749 14.4537 4.14195C13.8253 3.30504 13.0869 2.62358 12.0023 2.43516C10.8123 2.33926 9.87156 2.37641 8.8596 3.05022ZM37.1443 25.9303C36.9641 26.1323 36.9641 26.1323 36.7833 26.3993C36.6762 26.5506 36.6762 26.5506 36.5669 26.7048C36.4521 26.8695 36.4521 26.8695 36.335 27.0374C36.2556 27.15 36.1762 27.2625 36.0943 27.3785C35.8569 27.7153 35.6205 28.0528 35.3843 28.3906C35.2667 28.558 35.149 28.7254 35.0313 28.8927C34.8688 29.1237 34.7065 29.3547 34.5446 29.586C34.1258 30.184 33.7022 30.7787 33.2778 31.3729C32.5153 32.4413 31.7585 33.5132 31.0159 34.595C30.944 34.6989 30.8721 34.8029 30.798 34.91C29.4944 36.8205 29.0243 38.7419 29.4328 41.031C29.9715 42.917 31.1409 44.5029 32.8701 45.4892C33.9652 46.0545 35.0844 46.5939 36.2643 46.9653C36.5915 45.7337 36.7992 44.3533 36.2643 43.1519C35.0907 41.381 33.2422 39.958 31.613 38.6005C31.8149 38.181 32.0411 37.9095 32.383 37.5857C32.4741 37.4988 32.5652 37.4119 32.659 37.3224C32.7635 37.2244 32.7635 37.2244 32.8701 37.1244C33.3556 37.319 33.6579 37.6228 34.0226 37.9864C34.1132 38.076 34.1132 38.076 34.2056 38.1674C34.3975 38.3573 34.5885 38.548 34.7794 38.7389C34.9717 38.9305 35.1642 39.122 35.3572 39.3131C35.5313 39.4857 35.7049 39.6589 35.8784 39.8321C36.0936 40.0909 36.0936 40.0909 36.2643 40.0767C36.2643 36.7074 36.2643 33.3381 36.2643 29.8667C36.9281 29.8667 37.5918 29.8667 38.2757 29.8667C38.2757 33.236 38.2757 36.6053 38.2757 40.0767C38.7868 39.6479 39.2671 39.2449 39.7365 38.7822C39.8358 38.6846 39.9351 38.5871 40.0373 38.4866C40.1379 38.3872 40.2384 38.2878 40.342 38.1854C40.446 38.0831 40.5499 37.9808 40.657 37.8754C40.9111 37.6254 41.1649 37.375 41.4184 37.1244C41.8471 37.3219 42.1246 37.5433 42.4555 37.8778C42.5443 37.9669 42.6331 38.0561 42.7246 38.1479C42.7914 38.2161 42.8581 38.2842 42.9269 38.3545C42.7553 38.7398 42.5707 38.9674 42.2431 39.2371C42.155 39.3111 42.067 39.3851 41.9763 39.4613C41.8813 39.5408 41.7863 39.6204 41.6885 39.7023C39.2403 41.6237 39.2403 41.6237 37.9845 44.285C37.9303 45.1874 38.0585 46.0891 38.2757 46.9653C41.1321 45.8705 43.5098 44.8067 44.816 41.893C45.4289 40.1878 45.4581 38.1702 44.6868 36.5093C44.1909 35.5432 43.6056 34.6601 42.9662 33.78C42.7863 33.5297 42.6064 33.2793 42.4265 33.029C42.2962 32.8481 42.2962 32.8481 42.1631 32.6636C41.8485 32.2257 41.5386 31.7847 41.2298 31.3428C40.5764 30.41 39.9166 29.4814 39.2552 28.5539C38.8858 28.0356 38.517 27.5171 38.1558 26.9932C38.1032 26.9172 38.0505 26.8412 37.9963 26.7629C37.8626 26.5693 37.7298 26.375 37.597 26.1807C37.4974 26.0568 37.4974 26.0568 37.3957 25.9303C37.3127 25.9303 37.2298 25.9303 37.1443 25.9303ZM43.5555 30.9738C43.9644 31.6214 44.3836 32.2584 44.8312 32.881C46.2989 34.9249 47.2835 36.7507 47.2325 39.3155C47.2318 39.4483 47.2312 39.5811 47.2305 39.718C47.2238 40.3839 47.1748 41.0162 47.0753 41.6758C48.3998 41.6815 49.7243 41.6859 51.0488 41.6886C51.6639 41.6898 52.2789 41.6916 52.894 41.6944C53.4882 41.697 54.0824 41.6985 54.6766 41.6991C54.9027 41.6996 55.1288 41.7005 55.3549 41.7018C55.6729 41.7036 55.9908 41.7038 56.3088 41.7037C56.4011 41.7046 56.4935 41.7055 56.5886 41.7064C57.6949 41.7022 58.6679 41.5303 59.4739 40.7359C60.167 39.9842 60.3359 39.3648 60.3131 38.3545C60.2169 37.4276 59.7344 36.9073 59.03 36.3181C58.28 35.8124 57.5132 35.8013 56.6293 35.8943C56.0629 36.0734 55.6534 36.3329 55.2465 36.7553C54.8393 36.5777 54.54 36.3546 54.2094 36.0634C54.1206 35.9857 54.0317 35.908 53.9403 35.828C53.8401 35.739 53.8401 35.739 53.7379 35.6482C53.7733 35.2541 53.864 35.1559 54.1784 34.8929C54.3053 34.8073 54.4322 34.7216 54.5629 34.6334C54.6901 34.5465 54.8173 34.4596 54.9484 34.3701C55.0468 34.3047 55.1451 34.2394 55.2465 34.1721C55.0066 33.1016 54.5906 32.2657 53.6702 31.6062C52.6044 30.9601 51.7227 30.8785 50.4695 30.9738C49.1108 31.3 48.4322 32.0662 47.6705 33.1597C47.5985 33.2502 47.5266 33.3408 47.4525 33.434C47.3695 33.434 47.2865 33.434 47.201 33.434C47.0243 33.2081 46.8554 32.9763 46.6903 32.7421C46.0434 31.861 45.2886 31.2195 44.184 30.9738C43.9745 30.9708 43.7649 30.9704 43.5555 30.9738ZM7.09967 58.8974C6.97521 59.0598 6.85076 59.2222 6.72254 59.3894C15.6831 59.3894 24.6437 59.3894 33.8758 59.3894C30.8216 55.9027 26.262 53.9234 21.6288 53.5269C16.189 53.1545 10.9456 55.1576 7.09967 58.8974ZM35.1329 57.4213C35.305 57.8022 35.5001 58.0508 35.8086 58.3362C36.0713 58.5802 36.2788 58.7955 36.4815 59.0917C36.741 59.4187 36.741 59.4187 37.1255 59.4651C37.265 59.4646 37.4045 59.464 37.5482 59.4634C37.7087 59.4643 37.8691 59.4651 38.0343 59.466C38.2118 59.4638 38.3893 59.4616 38.5667 59.4593C38.7538 59.4591 38.9409 59.4592 39.128 59.4595C39.6358 59.4597 40.1434 59.4561 40.6512 59.4518C41.1818 59.448 41.7125 59.4476 42.2432 59.4469C43.248 59.445 44.2528 59.4399 45.2577 59.4337C46.4017 59.4269 47.5457 59.4235 48.6897 59.4204C51.0429 59.414 53.3961 59.4031 55.7493 59.3894C55.6308 59.2523 55.5121 59.1154 55.3933 58.9785C55.3272 58.9023 55.2611 58.826 55.193 58.7474C52.576 55.8514 48.4638 54.7502 44.6859 54.4838C41.2546 54.2814 37.9047 55.5375 35.1329 57.4213Z" fill="#D2AE6D"/>
<path d="M52.9779 7.07869C53.2849 7.28308 53.5747 7.49542 53.8627 7.7245C53.9674 7.80156 54.0721 7.87863 54.18 7.95803C55.3362 8.91815 56.2662 10.5956 56.4047 12.0823C56.4645 13.4322 56.4898 14.7278 55.8741 15.9663C55.8164 16.0846 55.7587 16.2028 55.6993 16.3247C54.7276 18.1813 53.1972 19.2309 51.2027 19.9161C49.6836 20.2609 47.8542 20.204 46.4459 19.5336C46.325 19.4771 46.2041 19.4207 46.0795 19.3625C44.1836 18.4124 43.1054 16.9137 42.4099 14.961C41.98 13.1607 42.1815 11.1713 43.146 9.57447C43.3549 9.27405 43.5719 8.99046 43.806 8.70859C43.8847 8.60615 43.9635 8.50372 44.0446 8.39818C46.16 5.95882 50.224 5.48599 52.9779 7.07869ZM45.3381 10.2155C44.4462 11.423 44.2895 12.6714 44.4345 14.1211C44.7183 15.4472 45.5338 16.472 46.6438 17.2569C47.8978 18.0197 49.3085 18.1464 50.7392 17.8532C52.1452 17.4075 53.2094 16.4351 53.903 15.172C54.4123 14.0098 54.441 12.6234 54.0434 11.4225C53.4681 10.1096 52.431 9.09473 51.0893 8.53176C48.8998 7.83763 46.7971 8.52101 45.3381 10.2155Z" fill="#D2AE6D"/>
<path d="M56.4821 18.6844C56.867 18.8411 57.0894 19.0818 57.381 19.3724C57.4678 19.4581 57.4678 19.4581 57.5564 19.5456C57.7404 19.7277 57.9231 19.9111 58.1058 20.0946C58.2306 20.2186 58.3555 20.3425 58.4805 20.4663C58.7861 20.7694 59.0905 21.0736 59.3943 21.3785C59.1811 21.8254 58.9244 22.1099 58.5615 22.4549C58.4074 22.6023 58.4074 22.6023 58.2502 22.7528C58.1714 22.827 58.0926 22.9012 58.0115 22.9777C57.2788 22.6727 56.7679 22.0572 56.2123 21.5169C56.0936 21.4048 55.9749 21.2927 55.8526 21.1772C55.741 21.0689 55.6294 20.9606 55.5145 20.849C55.4117 20.7501 55.3089 20.6511 55.203 20.5492C54.9945 20.2714 54.9945 20.2714 55.0097 20.0077C55.1712 19.674 55.398 19.4494 55.6623 19.1874C55.8094 19.0378 55.8094 19.0378 55.9594 18.8851C56.2516 18.6723 56.2516 18.6723 56.4821 18.6844Z" fill="#D2AE6D"/>
<path d="M42.3164 18.6874C42.6574 18.8454 42.8869 19.0674 43.1547 19.326C43.2566 19.422 43.3585 19.5179 43.4636 19.6167C43.6811 19.9026 43.6811 19.9026 43.6687 20.1282C43.5085 20.5049 43.2625 20.7225 42.9656 21.0078C42.9072 21.0645 42.8488 21.1211 42.7886 21.1795C42.6025 21.3596 42.415 21.5383 42.2276 21.7171C42.1009 21.8392 41.9743 21.9614 41.8477 22.0837C41.538 22.3828 41.227 22.6806 40.9155 22.9779C40.4588 22.7693 40.1681 22.5181 39.8155 22.163C39.715 22.0624 39.6146 21.9619 39.5111 21.8583C39.4352 21.7813 39.3594 21.7042 39.2812 21.6248C39.5929 20.9078 40.222 20.4079 40.7741 19.8642C40.9459 19.69 40.9459 19.69 41.1212 19.5122C41.2872 19.3485 41.2872 19.3485 41.4566 19.1814C41.5577 19.0808 41.6588 18.9802 41.763 18.8766C42.0469 18.6725 42.0469 18.6725 42.3164 18.6874Z" fill="#D2AE6D"/>
<path d="M57.7614 3.29614C58.2181 3.50475 58.5088 3.75596 58.8614 4.11109C58.9619 4.21163 59.0623 4.31216 59.1658 4.41574C59.2417 4.4928 59.3175 4.56987 59.3957 4.64927C59.084 5.36623 58.455 5.86621 57.9029 6.40987C57.7883 6.52602 57.6737 6.64217 57.5557 6.76185C57.445 6.87102 57.3343 6.9802 57.2203 7.09268C57.1192 7.19326 57.0181 7.29384 56.9139 7.39747C56.6301 7.60154 56.6301 7.60154 56.3606 7.58665C56.0195 7.42865 55.79 7.20669 55.5222 6.94804C55.4203 6.85211 55.3184 6.75618 55.2134 6.65733C54.9958 6.37143 54.9958 6.37143 55.0082 6.14586C55.1684 5.76918 55.4144 5.55158 55.7113 5.26625C55.7989 5.18129 55.7989 5.18129 55.8883 5.09461C56.0745 4.91452 56.2619 4.73576 56.4493 4.55701C56.576 4.43488 56.7027 4.31267 56.8292 4.19038C57.1389 3.89131 57.4499 3.59343 57.7614 3.29614Z" fill="#D2AE6D"/>
<path d="M40.6641 3.29614C41.3967 3.60113 41.9077 4.21665 42.4633 4.7569C42.582 4.86901 42.7007 4.98112 42.823 5.09663C42.9345 5.20493 43.0461 5.31323 43.1611 5.42482C43.2639 5.52374 43.3666 5.62267 43.4725 5.7246C43.6811 6.00239 43.6811 6.00239 43.6659 6.26611C43.5044 6.5998 43.2776 6.8244 43.0133 7.08643C42.9152 7.18617 42.8172 7.28591 42.7162 7.38867C42.424 7.60154 42.424 7.60154 42.1935 7.58941C41.8085 7.43268 41.5862 7.19199 41.2946 6.90143C41.2367 6.84427 41.1788 6.78711 41.1192 6.72821C40.9351 6.54607 40.7524 6.36268 40.5698 6.17922C40.445 6.05525 40.3201 5.93135 40.1951 5.80755C39.8895 5.50442 39.5851 5.20017 39.2812 4.89529C39.4944 4.44839 39.7512 4.16393 40.1141 3.81894C40.2168 3.72063 40.3196 3.62232 40.4254 3.52102C40.5435 3.40971 40.5435 3.40971 40.6641 3.29614Z" fill="#D2AE6D"/>
<path d="M48.332 21.9939C48.9958 21.9939 49.6595 21.9939 50.3434 21.9939C50.3434 23.2929 50.3434 24.5919 50.3434 25.9303C49.6796 25.9303 49.0159 25.9303 48.332 25.9303C48.332 24.6313 48.332 23.3323 48.332 21.9939Z" fill="#D2AE6D"/>
<path d="M58.3906 12.1531C59.7181 12.1531 61.0456 12.1531 62.4133 12.1531C62.4133 12.8026 62.4133 13.4521 62.4133 14.1213C61.0858 14.1213 59.7583 14.1213 58.3906 14.1213C58.3906 13.4718 58.3906 12.8223 58.3906 12.1531Z" fill="#D2AE6D"/>
<path d="M36.2656 12.1531C37.5931 12.1531 38.9206 12.1531 40.2883 12.1531C40.2883 12.8026 40.2883 13.4521 40.2883 14.1213C38.9608 14.1213 37.6333 14.1213 36.2656 14.1213C36.2656 13.4718 36.2656 12.8223 36.2656 12.1531Z" fill="#D2AE6D"/>
<path d="M48.332 0.34375C48.9958 0.34375 49.6595 0.34375 50.3434 0.34375C50.3434 1.64275 50.3434 2.94175 50.3434 4.28012C49.6796 4.28012 49.0159 4.28012 48.332 4.28012C48.332 2.98111 48.332 1.68211 48.332 0.34375Z" fill="#D2AE6D"/>
</svg>
