<svg width="74" height="65" viewBox="0 0 74 65" fill="none" xmlns="http://www.w3.org/2000/svg">
<path d="M58.7757 7.06971C61.5534 9.43439 62.7815 13.65 63.0582 17.1146C63.1194 18.2078 63.0968 19.3043 63.0771 20.3984C63.2211 20.4377 63.3651 20.4769 63.5134 20.5174C67.297 21.5864 70.2124 23.9197 72.128 27.282C73.7532 30.2387 74.1098 34.0786 73.1417 37.2928C71.8822 40.99 69.4748 43.8244 65.9447 45.6265C63.2754 46.8762 60.6879 46.9568 57.7901 46.9474C57.4451 46.9474 57.1002 46.9474 56.7552 46.9476C55.9199 46.9476 55.0845 46.9464 54.2491 46.9446C53.2761 46.9426 52.3031 46.9422 51.3301 46.9419C49.5952 46.9413 47.8603 46.9394 46.1255 46.9367C44.4414 46.9342 42.7573 46.9322 41.0732 46.931C40.9692 46.9309 40.8651 46.9308 40.758 46.9308C40.2361 46.9304 39.7143 46.93 39.1924 46.9297C34.8711 46.9268 30.5498 46.9218 26.2285 46.9156C26.2285 48.7676 26.2285 50.6196 26.2285 52.5277C26.9855 52.5277 27.7426 52.5277 28.5226 52.5277C29.3898 52.7992 29.8186 53.1196 30.256 53.9016C30.559 54.6206 30.6253 55.2976 30.3865 56.044C29.9391 57.0423 29.0836 57.7508 28.2504 58.4417C27.92 58.726 27.6125 59.0257 27.3038 59.3323C26.9126 59.7204 26.5174 60.0918 26.0941 60.446C25.6432 60.8234 25.2273 61.2233 24.8126 61.6386C23.2052 63.2162 21.5961 64.3105 19.2477 64.3481C17.3843 64.3256 15.7584 63.6512 14.4445 62.3576C14.3273 62.2364 14.2101 62.1153 14.0894 61.9904C13.7953 61.6892 13.4959 61.4169 13.172 61.1475C12.7486 60.7933 12.3534 60.4219 11.9622 60.0338C11.5797 59.6545 11.1944 59.2913 10.7793 58.9465C10.2276 58.4809 9.70401 57.99 9.1842 57.4909C9.10219 57.4136 9.02017 57.3363 8.93567 57.2567C8.26627 56.6072 7.97927 56.083 7.96547 55.1408C7.98427 54.2853 8.17685 53.7775 8.80727 53.159C9.93996 52.1861 10.5553 52.5277 12.3206 52.5277C12.3206 50.6757 12.3206 48.8237 12.3206 46.9156C11.8475 46.9156 11.3743 46.9156 10.8868 46.9156C8.88151 46.6675 6.28839 46.0143 4.82904 44.5392C4.57812 44.1095 4.57812 44.1095 4.57812 43.5922C4.79178 42.8996 4.79178 42.8996 5.15164 42.7065C6.04656 42.6354 6.48746 42.7439 7.25754 43.2326C8.84874 44.1866 10.4889 44.4823 12.3206 44.6707C12.3161 44.5818 12.3116 44.4929 12.307 44.4012C12.1563 40.9748 12.1563 40.9748 13.4061 39.4933C14.3386 38.5918 15.6867 38.2953 16.9566 38.2828C17.1642 38.2851 17.1642 38.2851 17.3759 38.2875C17.5971 38.2872 17.5971 38.2872 17.8228 38.2869C18.1319 38.2871 18.4411 38.2887 18.7503 38.2917C19.2206 38.2957 19.6908 38.2946 20.1612 38.2927C20.4634 38.2936 20.7657 38.2948 21.0679 38.2963C21.2069 38.2959 21.3458 38.2955 21.4889 38.2951C22.8347 38.3131 24.0366 38.6102 25.0232 39.559C26.0896 40.7023 26.2523 41.8824 26.2374 43.3817C26.2368 43.5057 26.2361 43.6297 26.2355 43.7574C26.2338 44.0619 26.2312 44.3663 26.2285 44.6707C30.6305 44.6624 35.0324 44.652 39.4344 44.6386C39.955 44.637 40.4756 44.6355 40.9961 44.6339C41.1516 44.6335 41.1516 44.6334 41.3102 44.633C42.9846 44.628 44.659 44.6245 46.3334 44.6216C48.0536 44.6185 49.7738 44.6139 51.494 44.6078C52.4593 44.6044 53.4246 44.6017 54.3899 44.6009C55.2997 44.6001 56.2095 44.5973 57.1194 44.593C57.4521 44.5917 57.7848 44.5912 58.1175 44.5915C61.8796 44.5934 65.1932 43.9619 67.9873 41.2865C70.2496 38.9723 71.2043 36.2069 71.1735 33.054C71.0951 30.4039 70.0711 27.97 68.2388 26.0105C68.1118 25.867 68.1118 25.867 67.9823 25.7206C66.2372 23.8641 63.7895 22.9025 61.2955 22.4799C60.9264 22.3627 60.9264 22.3627 60.6576 22.1445C60.4172 21.6333 60.4891 21.1541 60.5411 20.6089C60.5582 20.3798 60.575 20.1507 60.5915 19.9216C60.6 19.8104 60.6086 19.6993 60.6174 19.5847C60.8871 15.8445 59.8055 11.9445 57.3755 9.01051C57.1809 8.72771 57.0977 8.53014 57.0551 8.19213C57.4262 7.17206 57.655 6.95818 58.7757 7.06971ZM14.8059 41.4613C14.557 41.9865 14.5549 42.4605 14.5595 43.0279C14.5588 43.1432 14.558 43.2585 14.5572 43.3773C14.5558 43.6269 14.5554 43.8764 14.5558 44.126C14.5565 44.5212 14.5545 44.9162 14.5518 45.3114C14.5465 46.1501 14.5445 46.9888 14.543 47.8275C14.5413 48.7996 14.5382 49.7716 14.5316 50.7437C14.5296 51.1327 14.5302 51.5216 14.5309 51.9106C14.5296 52.1495 14.5281 52.3883 14.5265 52.6271C14.5274 52.735 14.5283 52.8429 14.5292 52.9541C14.5218 53.5836 14.4412 53.9921 14.0412 54.4919C13.6803 54.6685 13.4085 54.6614 13.0051 54.6766C12.8572 54.6825 12.7093 54.6884 12.557 54.6944C12.4021 54.6999 12.2472 54.7054 12.0876 54.7111C11.9317 54.7172 11.7757 54.7232 11.6149 54.7295C11.2289 54.7444 10.8428 54.7587 10.4567 54.7725C10.3465 55.0277 10.3465 55.0277 10.3133 55.3337C10.4732 55.5894 10.4732 55.5894 10.7295 55.8144C10.8211 55.9025 10.9128 55.9907 11.0072 56.0815C11.1561 56.2192 11.1561 56.2192 11.308 56.3597C11.4077 56.4544 11.5073 56.5491 11.61 56.6467C12.175 57.1804 12.7499 57.6999 13.3501 58.1957C13.6665 58.4681 13.9602 58.7581 14.2563 59.0517C14.7457 59.5364 15.247 59.9959 15.7774 60.4372C15.9531 60.5849 16.1252 60.7368 16.2927 60.8932C17.1189 61.6487 18.0632 62.0859 19.2029 62.1384C21.3603 62.0297 22.8023 60.3974 24.2222 58.9851C24.7352 58.475 25.2586 57.9915 25.8174 57.5292C26.2602 57.1467 26.6675 56.7295 27.0815 56.3175C27.3755 56.0352 27.3755 56.0352 27.8057 55.702C28.1316 55.4846 28.1316 55.4846 28.2358 55.0531C27.8764 54.7014 27.7483 54.7345 27.2512 54.7243C27.043 54.718 27.043 54.718 26.8306 54.7117C26.6124 54.7071 26.6124 54.7071 26.3898 54.7024C26.1034 54.6963 25.817 54.689 25.5306 54.6804C25.4033 54.6778 25.276 54.6752 25.1448 54.6725C24.7723 54.6296 24.5369 54.5474 24.2212 54.3516C23.9963 53.9115 24.0558 53.441 24.0552 52.9578C24.0544 52.8428 24.0537 52.7277 24.053 52.6092C24.0514 52.359 24.0502 52.1087 24.0492 51.8585C24.0475 51.4622 24.0447 51.0659 24.0416 50.6696C24.0328 49.5426 24.025 48.4156 24.0202 47.2886C24.0172 46.5996 24.0122 45.9107 24.0058 45.2217C24.0038 44.9592 24.0025 44.6968 24.0021 44.4343C24.0013 44.0666 23.998 43.6989 23.9941 43.3312C23.9946 43.2231 23.995 43.1151 23.9954 43.0037C23.9849 42.3333 23.8669 41.873 23.5043 41.3035C22.94 40.7927 22.5092 40.5869 21.7452 40.5771C21.6222 40.5753 21.4991 40.5735 21.3724 40.5717C21.2397 40.5706 21.1071 40.5696 20.9705 40.5685C20.8334 40.5674 20.6964 40.5663 20.5552 40.5651C20.265 40.5632 19.9748 40.5617 19.6845 40.5606C19.2424 40.5581 18.8004 40.552 18.3583 40.5458C18.076 40.5444 17.7937 40.5432 17.5114 40.5422C17.38 40.5398 17.2485 40.5373 17.1131 40.5348C16.1487 40.538 15.4339 40.6779 14.8059 41.4613Z" fill="#D2AE6D"/>
<path d="M53.7567 2.86093C53.8958 2.93508 54.035 3.00923 54.1784 3.08563C54.9567 3.52049 55.7708 3.99358 56.3375 4.68486C56.4409 5.22757 56.4133 5.50112 56.1852 6.0002C55.8753 6.25447 55.6175 6.38208 55.2112 6.41891C54.4978 6.30193 53.9062 5.78484 53.3265 5.38637C50.0534 3.21301 45.7709 2.49592 41.9064 3.21473C39.1305 3.78886 36.7443 4.90476 34.5438 6.64909C34.4429 6.72469 34.3419 6.80029 34.238 6.87818C31.2929 9.20002 29.5946 12.9791 29.1043 16.5667C29.0186 17.1026 28.9546 17.3084 28.6293 17.7681C28.1531 18.0646 27.931 18.0576 27.3748 18.0136C27.0163 17.8749 27.0163 17.8749 26.6579 17.6891C24.416 16.6385 22.2849 16.7511 19.9577 17.4255C17.9426 18.1308 16.304 19.6825 15.3309 21.5211C14.9028 22.5655 14.5651 23.6206 14.4207 24.741C14.2786 25.1782 14.1463 25.3288 13.7537 25.5899C13.2526 25.67 12.755 25.6673 12.2482 25.6688C9.41651 25.742 7.17916 26.5981 5.13018 28.5483C3.09905 30.6537 2.49224 33.0829 2.5303 35.8879C2.58291 37.4182 3.12487 38.7031 3.84984 40.0498C4.03188 40.5369 3.99776 40.8082 3.86048 41.3038C3.617 41.6674 3.44726 41.7196 3.01812 41.8474C2.45986 41.8693 2.29488 41.7747 1.85316 41.4441C1.62887 41.1061 1.44674 40.7961 1.27068 40.4357C1.19694 40.2851 1.19694 40.2851 1.1217 40.1314C-0.11454 37.5102 -0.343181 34.3554 0.506736 31.5763C1.81884 28.1898 4.06132 25.6413 7.44498 24.1343C9.05513 23.5005 10.5902 23.2692 12.3199 23.3451C12.3332 23.1237 12.3332 23.1237 12.3468 22.8979C12.6717 20.486 14.3083 18.2666 16.1911 16.7509C18.6939 14.9537 21.6759 14.211 24.7402 14.62C25.5106 14.7452 26.2136 14.9408 26.9446 15.2075C26.9611 15.0234 26.9775 14.8393 26.9945 14.6496C27.3209 11.8145 28.951 9.06201 30.8159 6.9297C30.8766 6.85873 30.9374 6.78777 30.9999 6.71466C33.9856 3.24588 38.358 1.07909 42.9652 0.639316C46.7956 0.365357 50.3958 1.04486 53.7567 2.86093Z" fill="#D2AE6D"/>
<path d="M48.4535 23.3446C50.1641 24.6766 51.3534 26.2522 51.7512 28.3955C51.7914 28.8086 51.7992 29.2171 51.796 29.6319C51.7952 29.7427 51.7944 29.8535 51.7936 29.9677C51.7495 32.0536 50.8903 33.8451 49.414 35.3438C47.7235 36.8616 45.6802 37.4446 43.4223 37.4039C41.4975 37.3042 39.6919 36.4889 38.2925 35.1903C36.591 33.2935 36.0072 31.3126 36.1039 28.8083C36.2354 26.9133 37.3142 25.1751 38.7036 23.9058C41.4235 21.6683 45.4889 21.3036 48.4535 23.3446ZM39.7112 26.1551C38.6901 27.3261 38.3061 28.6692 38.362 30.1959C38.5458 31.6842 39.2858 33.0312 40.469 33.9813C41.7922 34.9224 43.1019 35.2457 44.7256 35.13C46.3143 34.8529 47.6676 34.0349 48.5969 32.7449C49.4584 31.339 49.7205 29.8536 49.3586 28.2355C48.8724 26.8162 47.8938 25.5696 46.5363 24.8474C44.0744 23.7477 41.5794 24.2727 39.7112 26.1551Z" fill="#D2AE6D"/>
<path d="M34.4004 23.3445C34.7481 23.6848 34.7854 23.8525 34.8305 24.3266C34.717 24.7932 34.599 24.983 34.2211 25.2912C33.7041 25.4982 33.5036 25.4674 32.9666 25.3087C32.5958 25.1385 32.2331 24.9587 31.8722 24.7694C30.7257 24.2215 29.1434 24.3031 27.9572 24.6949C26.4503 25.3185 25.3917 26.3493 24.7598 27.8183C24.2715 29.1438 24.3738 30.6231 24.8824 31.9282C25.6282 33.4166 26.7859 34.2989 28.3695 34.8318C29.7238 35.1776 31.0084 35.0843 32.2497 34.4284C32.4833 34.2371 32.7105 34.0381 32.9307 33.8321C33.3527 33.4376 33.4904 33.3165 34.0778 33.192C34.6796 33.3392 34.9114 33.5055 35.2606 34.0075C35.2956 34.6238 35.1453 35.0113 34.7678 35.4894C33.6302 36.6774 31.9885 37.3025 30.3532 37.4032C27.9402 37.4358 25.9158 36.7608 24.1554 35.108C23.2398 34.1076 22.5302 32.9356 22.2131 31.6223C22.187 31.5183 22.161 31.4144 22.1341 31.3072C21.7816 29.1924 22.1303 27.0956 23.3601 25.3087C26.033 21.9618 30.6756 20.8924 34.4004 23.3445Z" fill="#D2AE6D"/>
<path d="M58.2554 28.4217C59.168 28.9206 59.5916 29.5297 59.9221 30.4999C60.1899 32.195 59.1544 33.533 58.2016 34.8493C58.1245 34.9565 58.0474 35.0638 57.968 35.1743C57.8085 35.3944 57.6469 35.6132 57.4847 35.8314C57.6213 35.835 57.7579 35.8386 57.8986 35.8424C58.1683 35.8543 58.1683 35.8543 58.4435 35.8665C58.6215 35.873 58.7995 35.8795 58.9829 35.8862C59.561 35.9833 59.8085 36.1183 60.2089 36.5329C60.3041 36.8135 60.3041 36.8135 60.2985 37.0941C60.3004 37.1867 60.3022 37.2793 60.3041 37.3747C60.1532 37.8194 59.8888 37.9645 59.492 38.2166C59.1016 38.273 58.7704 38.2987 58.3808 38.296C58.2226 38.2973 58.2226 38.2973 58.0612 38.2987C57.8389 38.2997 57.6167 38.2992 57.3945 38.2974C57.0555 38.2955 56.717 38.3003 56.378 38.3056C56.1614 38.3057 55.9449 38.3055 55.7283 38.3048C55.6276 38.3067 55.5269 38.3085 55.4232 38.3104C54.8689 38.3002 54.6325 38.2285 54.1936 37.8866C53.9002 37.515 53.9002 37.515 53.8296 37.0947C53.9087 36.6222 54.0406 36.3595 54.3124 35.9629C54.4039 35.8293 54.4954 35.6956 54.5897 35.5579C54.9196 35.1085 55.2631 34.671 55.6118 34.2355C56.1049 33.6177 56.5757 32.9918 57.0097 32.3326C57.1525 32.118 57.1525 32.118 57.2982 31.8991C57.5181 31.4072 57.4822 31.1512 57.3413 30.6402C56.9326 30.5326 56.9326 30.5326 56.481 30.4999C56.0662 30.7706 55.8705 31.208 55.6208 31.6223C55.334 31.9029 55.334 31.9029 54.7784 31.9643C54.3156 31.9495 54.2056 31.9167 53.8195 31.6311C53.527 31.0213 53.5524 30.5771 53.7568 29.9387C54.6499 28.2841 56.5102 27.6147 58.2554 28.4217Z" fill="#D2AE6D"/>
</svg>
