<svg width="1440" height="197" viewBox="0 0 1440 197" fill="none" xmlns="http://www.w3.org/2000/svg">
<path d="M1713.3 20.8879C1840.15 -29.3997 1840.15 20.8877 1967 68.882C2093.85 116.876 2093.85 68.8828 2220.7 39.4484C2347.55 10.014 2347.55 39.4478 2474.4 73.9689C2601.25 108.49 2601.25 73.9688 2728.1 37.0051C2854.95 0.0415616 2854.95 37.0055 2981.8 91.5031C3108.65 146.001 3108.65 91.5026 3235.5 34.3859C3362.35 -22.7308 3362.35 34.3858 3489.2 68.3C3616.05 102.214 3616.05 68.3004 3742.9 39.508C3869.75 10.7156 3869.75 39.5084 3996.6 58.4572C4123.45 77.4059 4123.45 58.4567 4250.3 35.7072C4377.15 12.9577 4377.15 35.7073 4504 58.2384V196.631H-570C-443.15 36.1557 -189.45 36.156 -62.5996 72.7062C64.2499 109.256 64.2501 72.7057 191.1 22.2931C317.95 -28.1195 317.95 22.2931 444.8 78.2394C571.65 134.186 571.65 78.2393 698.5 44.7258C825.35 11.2122 825.35 44.7262 952.2 56.1877C1079.05 67.6491 1079.05 56.1877 1205.9 52.6164C1332.75 49.0451 1332.75 52.6166 1459.6 71.1759C1586.45 89.7353 1586.45 71.1754 1713.3 20.8879Z" fill="#1B453C"/>
</svg>
