<svg id="Layer_1" enable-background="new 0 0 5000 5000" viewBox="0 0 5000 5000" xmlns="http://www.w3.org/2000/svg" fill="#1B453C"><g style="fill:none;stroke:#1B453C;stroke-width:62.871;stroke-linecap:round;stroke-linejoin:round;stroke-miterlimit:10"><path d="m4159.9 2070.1c52.7 47.4 81.1 97.8 81.1 150.1 0 278.8-808 504.7-1804.8 504.7s-1804.8-225.9-1804.8-504.7c0-89.9 84.1-174.4 231.5-247.5"/><path d="m3353.9 3856.8v196.5c0 140.5-404 254.3-902.4 254.3s-902.4-113.9-902.4-254.3v-196.5"/><path d="m4240.9 2211.5c0 997-807.7 1875.8-1804.6 1875.8s-1804.9-870.1-1804.9-1867.1"/><path d="m2550.7 1408.1 520.2 890.7c38.6 66.1 54.2 138.1 50 207.8"/><path d="m2409.1 1165.6 91.7 156.9"/><path d="m2381.7 2545-535-1607c-29.9-92.3 15.5-192.1 104.6-230.3 89.1-38.2 192.7-2.2 238.9 83.1l129.8 222.2"/><g><path d="m3428.2 2455.2c125.6-255.3 238-633.4 106-1040"/><path d="m3191.8 1208.7c-28.2 245.6 49.5 545.2 386.6 782 0 0 574.8-527.1-208.7-1271.9 0 0-87.5 128-141.8 313.6"/><path d="m4116.1 1877.2s-330.2 350.6-608.7 392.7"/><path d="m3768.5 2161.2s481.4 128.4 600.1-544.7c0 0-585.2-8.2-600.1 544.7z"/></g><path d="m2818.5 3214.4h-229.3v-214.1c0-33.8-27.4-61.2-61.2-61.2h-122.4c-33.8 0-61.2 27.4-61.2 61.2v244.7h-214.1c-33.8 0-61.2 27.4-61.2 61.2v122.4c0 33.8 27.4 61.2 61.2 61.2h214.1v214.1c0 33.8 27.4 61.2 61.2 61.2h122.4c33.8 0 61.2-27.4 61.2-61.2v-214.1h229.3c33.8-13.3 61.2-40.7 46-74.5v-125.1c15.2-33.9-46-75.8-46-75.8z"/><g><path d="m1608.7 1840.6c-30.2-160.8-58.2-485.2 135.4-766.8 0 0 123.3 387.9-68.5 777.8"/><path d="m1640.1 2489.4c35.8-126.6 49.2-289.4 14-470.5"/><path d="m1578.6 2007.5c-47.9 96.5-107.4 257.1-111 448.8"/><path d="m2228.6 2081.3c-138.7 8.1-330.3-18.5-518.3-110.6"/><path d="m1718.4 1904.5c102.5-19.1 273.7-45.9 449-4.4"/><path d="m1551.8 1880.4c-144.8-72.5-442.3-188.2-770.2-75.7 0 0 322.4 232.8 757.5 143.9"/><path d="m2094.1 1683.7c-90.3 83.8-221.1 169.3-377.7 221.1"/><path d="m1675.6 1851.6c61.8-90.7 188.5-250.2 357.8-347.5"/><path d="m1159.5 2368c131.7-59.7 290.4-169.2 419-360.5"/><path d="m1539.1 1948.6c-127.9 41.9-345.1 129.5-504 346.1"/><path d="m2030.4 2530.5c-116.9-84.6-289.2-254.4-376.2-511.7"/><path d="m1710.3 1970.7c125.7 85.6 342.9 270.3 421.4 567.8"/><path d="m1608 1839.6c-51.1-153.6-184.9-447.3-496.3-599.7 0 0 69.2 395.7 440.2 640.5"/><circle cx="1628.6" cy="1929.7" r="91.8"/></g><path d="m3811 2343.2c-231.5 120.3-749.2 204.1-1350.6 204.1-817.4 0-1480-154.7-1480-345.6 0-46.1 38.7-90.2 109-130.4"/><path d="m2944.9 1875c136.4 11 263.7 26.6 378.7 45.9"/></g></svg>