<?xml version="1.0" encoding="iso-8859-1"?>
<!-- Generator: Adobe Illustrator 19.0.0, SVG Export Plug-In . SVG Version: 6.00 Build 0)  -->
<svg version="1.1" id="Capa_1" xmlns="http://www.w3.org/2000/svg" xmlns:xlink="http://www.w3.org/1999/xlink" x="0px" y="0px"
	 viewBox="0 0 480.793 480.793" style="enable-background:new 0 0 480.793 480.793;" xml:space="preserve" fill="#1B453C">
<g>
	<g>
		<path d="M430.662,233.963c-15.469,3.864-27.166,16.547-29.769,32.278c-14.846,3.425-29.972,5.5-45.192,6.2
			c25.127-28.41,44.883-61.15,58.304-96.624c3.371,0.638,6.793,0.965,10.224,0.976c31.021,0.093,56.243-24.979,56.336-56
			s-24.979-56.243-56-56.336c-31.021-0.093-56.243,24.979-56.336,56c-0.06,20.142,10.669,38.774,28.12,48.832
			c-20.21,19.924-43.146,36.88-68.12,50.36v-27.656c21.645-4.418,35.61-25.547,31.192-47.192
			c-4.418-21.645-25.547-35.61-47.192-31.192c-21.645,4.418-35.61,25.547-31.192,47.192c3.207,15.709,15.483,27.985,31.192,31.192
			v35.672c-10.137,4.721-20.532,8.866-31.136,12.416l-0.456,0.152c-5.6-40.296-12.552-80.4-21.176-120.168
			c0.892-0.38,1.706-0.922,2.4-1.6l24-24c0.451-0.516,0.833-1.089,1.136-1.704c5.365,2.63,11.257,4.009,17.232,4.032
			c22.329,0.237,40.622-17.671,40.859-40c0.237-22.329-17.671-40.622-40-40.859c-22.329-0.237-40.622,17.671-40.859,40
			c-0.107,10.061,3.541,19.801,10.232,27.315l-19.104,19.144c-2.4-10.512-4.752-21.032-7.368-31.496
			c-1.074-4.286-5.419-6.889-9.705-5.815c-2.863,0.717-5.098,2.953-5.815,5.815c-5.968,23.864-11.2,47.904-16.072,72
			c-12.592-9.333-22.833-21.473-29.912-35.456l-0.48-0.96c27.648-14.356,38.424-48.408,24.067-76.056
			C195.716,2.777,161.664-7.998,134.016,6.358c-27.648,14.356-38.424,48.408-24.067,76.056
			c11.528,22.202,36.302,34.158,60.856,29.371l1.4,2.816c9.085,18.143,22.739,33.608,39.616,44.872
			c0.372,0.212,0.759,0.394,1.16,0.544c-7.008,36.752-12.741,73.709-17.2,110.872l-21.152-7.056c-2.176-0.728-4.272-1.656-6.4-2.4
			v-40c20.183-8.852,29.368-32.388,20.517-52.571c-8.852-20.183-32.388-29.368-52.571-20.517
			c-20.183,8.851-29.368,32.388-20.517,52.571c6.366,14.516,20.72,23.888,36.571,23.877v30.4
			c-19.96-8.602-38.832-19.534-56.224-32.568l-22.048-16.536c4.078-6.355,6.255-13.745,6.272-21.296c0-22.091-17.909-40-40-40
			s-40,17.909-40,40s17.909,40,40,40c7.224-0.036,14.301-2.047,20.464-5.816c13.258,25.01,30.079,47.962,49.936,68.136l-3.056,3.056
			c-7.418,7.434-17.008,12.318-27.384,13.944c-0.429-22.025-18.632-39.533-40.657-39.104c-22.025,0.429-39.533,18.632-39.104,40.657
			c0.429,22.025,18.632,39.533,40.657,39.104c15.688-0.305,29.739-9.78,35.904-24.209c15.814-1.073,30.699-7.854,41.888-19.08
			l3.288-3.288c17.258,15.693,36.326,29.272,56.8,40.448l9.48,5.176c0.128,0.072,0.264,0.088,0.392,0.152
			c-2.912,39.504-4.56,79.104-4.56,118.728v10.096c0,4.418,3.582,8,8,8h95.952c4.418,0,8-3.582,8-8v-10.096
			c0-44.8-2.024-89.6-5.752-134.256c0.88-0.249,1.711-0.647,2.456-1.176l12.28-8.928c12.649-9.193,24.596-19.315,35.744-30.28
			c1.025,0.479,2.141,0.73,3.272,0.736c19.278-0.045,38.496-2.167,57.32-6.328c5.354,21.433,27.069,34.467,48.502,29.113
			c21.433-5.354,34.467-27.069,29.113-48.502C473.81,241.644,452.095,228.609,430.662,233.963z M384.229,120.793
			c0-22.091,17.909-40,40-40c22.091,0,40,17.909,40,40s-17.909,40-40,40C402.148,160.767,384.255,142.874,384.229,120.793z
			 M304.229,32.793c13.255,0,24,10.745,24,24s-10.745,24-24,24s-24-10.745-24-24S290.974,32.793,304.229,32.793z M160.229,96.793
			c-22.091,0-40-17.909-40-40s17.909-40,40-40s40,17.909,40,40C200.202,78.874,182.309,96.767,160.229,96.793z M40.229,208.793
			c-13.255,0-24-10.745-24-24s10.745-24,24-24s24,10.745,24,24S53.483,208.793,40.229,208.793z M40.229,328.793
			c-13.255,0-24-10.745-24-24s10.745-24,24-24s24,10.745,24,24S53.483,328.793,40.229,328.793z M128.229,184.793
			c0-13.255,10.745-24,24-24s24,10.745,24,24s-10.745,24-24,24S128.229,198.048,128.229,184.793z M190.125,326.529l-3.544-1.928
			c-37.979-20.648-70.573-49.934-95.152-85.496c23.901,17.166,50.26,30.619,78.184,39.904l24.392,8.136
			C192.557,300.257,191.237,313.385,190.125,326.529z M280.229,464.793h-80v-2.096c0.012-119.623,13.429-238.869,40-355.504
			c26.569,116.625,39.986,235.859,40,355.472V464.793z M296.229,152.793c0-13.255,10.745-24,24-24s24,10.745,24,24s-10.745,24-24,24
			S296.229,166.048,296.229,152.793z M295.797,305.401l-6.832,4.968c-1.712-18.043-3.744-36.051-6.096-54.024l3.28-1.088
			c12.572-4.223,24.863-9.238,36.8-15.016c0.293-0.117,0.578-0.251,0.856-0.4c22.138-10.728,42.953-23.996,62.024-39.536
			C364.506,241.934,333.659,277.942,295.797,305.401z M440.229,296.793c-13.255,0-24-10.745-24-24s10.745-24,24-24s24,10.745,24,24
			S453.483,296.793,440.229,296.793z"/>
	</g>
</g>
<g>
</g>
<g>
</g>
<g>
</g>
<g>
</g>
<g>
</g>
<g>
</g>
<g>
</g>
<g>
</g>
<g>
</g>
<g>
</g>
<g>
</g>
<g>
</g>
<g>
</g>
<g>
</g>
<g>
</g>
</svg>
