<svg clip-rule="evenodd" fill-rule="evenodd" fill="#1B453C" stroke-linejoin="round" stroke-miterlimit="2" viewBox="0 0 510 510" xmlns="http://www.w3.org/2000/svg"><g><g><g><path d="m380.06 301.258h-56.801c-.523 0-.966-.294-1.281-.834-.307-.551-.397-1.185-.244-1.842l15.655-40.446h-10.168l12.575-32.169h-5.713l16.056-49.463c.207-.878.81-1.465 1.521-1.467.71.002 1.313.589 1.52 1.467l16.056 49.463h-5.713l12.575 32.169h-10.168l15.655 40.446c.154.657.063 1.291-.243 1.842-.316.54-.758.834-1.282.834z" fill="#1B453C"/><path d="m234.24 273.501h-56.801c-.524 0-.966-.294-1.282-.834-.306-.552-.397-1.185-.243-1.843l15.655-40.445h-10.168l12.575-32.169h-5.713l16.056-49.463c.207-.879.81-1.465 1.52-1.467.711.002 1.314.588 1.521 1.467l16.056 49.463h-5.713l12.575 32.169h-10.168l15.655 40.445c.153.658.063 1.291-.244 1.843-.315.54-.758.834-1.281.834z" fill="#1B453C"/><path d="m316.408 325.078h-78.365c-.722 0-1.332-.405-1.767-1.15-.424-.761-.548-1.636-.337-2.542l21.599-55.8h-14.028l17.349-44.382h-7.882l22.151-68.24c.286-1.212 1.117-2.021 2.098-2.025.981.004 1.812.813 2.098 2.025l22.151 68.24h-7.882l17.349 44.382h-14.028l21.598 55.8c.212.906.087 1.781-.336 2.542-.435.745-1.045 1.15-1.768 1.15z" fill="#1B453C"/></g><g><path d="m137.456 367.27c-22.033 10.806-44.298 21.17-66.466 31.669l31.304 75.007 46.045-22.418c6.641-3.244 13.454-3.819 20.556-1.766l48.846 14.146c15.489 4.472 34.644-3.762 49.058-9.328l91.609-35.373c24.126-9.328 29.942-57.753-27.043-41.016l-65.372 19.193c-1.9-6.89-7.293-12.648-14.664-14.606l-44.278-11.842c-30.191-21.362-45.546-15.451-69.595-3.666z" fill="#fff"/><path d="m266.051 408.209-99.018-26.448c-2.956 11.036 3.666 22.494 14.721 25.431l58.846 15.738c11.056 2.937 22.495-3.685 25.451-14.721z" fill="#1B453C"/><path d="m127.956 484.463-23.493 9.751c-5.086 2.111-10.959-.307-13.09-5.394-13.243-31.822-26.505-63.644-39.749-95.467-2.149-5.143.25-10.978 5.413-13.109l23.473-9.75c5.086-2.111 10.979.307 13.09 5.394 13.262 31.822 26.506 63.644 39.749 95.467 2.15 5.143-.25 10.978-5.393 13.108z" fill="#1B453C" fill-rule="nonzero"/></g><g><path d="m372.544 142.73c22.033-10.806 44.298-21.17 66.466-31.669l-31.304-75.007-46.045 22.418c-6.641 3.244-13.454 3.819-20.556 1.766l-48.846-14.146c-15.489-4.472-34.644 3.762-49.058 9.328l-91.609 35.373c-24.126 9.328-29.942 57.753 27.043 41.016l65.372-19.193c1.9 6.89 7.293 12.648 14.664 14.606l44.278 11.842c30.191 21.362 45.546 15.451 69.595 3.666z" fill="#fff"/><path d="m243.949 101.791 99.018 26.448c2.956-11.036-3.666-22.494-14.721-25.431l-58.846-15.738c-11.056-2.937-22.495 3.685-25.451 14.721z" fill="#1B453C"/><path d="m382.044 25.537 23.493-9.751c5.086-2.111 10.959.307 13.09 5.394 13.243 31.822 26.505 63.644 39.749 95.467 2.149 5.143-.25 10.978-5.413 13.109l-23.473 9.75c-5.086 2.111-10.979-.307-13.09-5.394-13.262-31.822-26.506-63.644-39.749-95.467-2.15-5.143.25-10.978 5.393-13.108z" fill="#1B453C" fill-rule="nonzero"/></g></g><path d="m198.839 280.501h-21.4c-2.908 0-5.569-1.3-7.324-4.3-.026-.044-.051-.088-.075-.132-1.139-2.048-1.512-4.396-.943-6.836.074-.318.171-.631.289-.936l11.967-30.918c-2.295-.016-4.438-1.156-5.733-3.053-1.304-1.91-1.581-4.341-.738-6.496l9.343-23.902c-.618-.436-1.169-.975-1.625-1.603-1.317-1.812-1.687-4.145-.995-6.276 0 0 15.991-49.262 15.988-49.253 1.158-4.257 4.691-6.504 8.222-6.516h.049c3.532.012 7.066 2.26 8.219 6.507l15.991 49.262c.692 2.131.322 4.464-.995 6.276-.457.628-1.007 1.167-1.625 1.603l9.343 23.902c.842 2.155.566 4.586-.738 6.496-1.296 1.897-3.439 3.037-5.734 3.053l8.307 21.459 12.117-30.997c-1.362-.458-2.569-1.33-3.435-2.521-1.317-1.813-1.687-4.146-.995-6.277 0 0 22.083-68.03 22.078-68.011 1.229-4.604 4.999-7.079 8.805-7.093h.048c3.805.014 7.574 2.487 8.8 7.074l22.083 68.03c.692 2.131.322 4.464-.995 6.277-.866 1.191-2.073 2.063-3.435 2.521l13.758 35.196c.842 2.155.566 4.586-.738 6.496-1.305 1.91-3.468 3.053-5.781 3.053h-3.812l8.58 22.167 11.464-29.617c-2.295-.016-4.438-1.156-5.734-3.053-1.304-1.91-1.58-4.341-.738-6.495l9.343-23.903c-.618-.436-1.168-.975-1.625-1.602-1.317-1.813-1.687-4.146-.995-6.277 0 0 15.991-49.262 15.988-49.253 1.158-4.257 4.691-6.504 8.222-6.516h.049c3.532.012 7.066 2.26 8.219 6.507l15.991 49.262c.692 2.131.322 4.464-.995 6.277-.456.627-1.007 1.166-1.625 1.602l9.343 23.903c.843 2.154.566 4.585-.738 6.495-1.295 1.897-3.438 3.037-5.733 3.053l11.967 30.919c.118.305.215.617.289.936.569 2.44.196 4.787-.943 6.835-.024.045-.049.089-.075.133-1.755 3-4.416 4.299-7.324 4.299h-21.4v28.009c0 3.863-3.137 7-7 7-3.864 0-7-3.137-7-7v-28.009h-21.401c-.844 0-1.667-.11-2.453-.338l4.234 10.939c.118.305.215.617.289.936.628 2.689.22 5.278-1.035 7.535-.025.044-.05.088-.075.132-1.875 3.205-4.704 4.616-7.811 4.616h-32.182v41.299c0 3.864-3.137 7-7 7s-7-3.136-7-7v-41.299h-32.183c-3.106 0-5.935-1.411-7.81-4.616-.025-.044-.05-.088-.075-.132-1.255-2.257-1.663-4.846-1.035-7.535.074-.319.17-.631.288-.936 0 0 17.911-46.273 17.911-46.273h-3.812c-.244 0-.487-.013-.726-.038-.144 1.239-.534 2.423-1.145 3.521-.024.044-.05.088-.075.132-1.755 3-4.416 4.3-7.324 4.3h-21.401v28.008c0 3.864-3.136 7-7 7-3.863 0-7-3.136-7-7zm-13.746-14h41.492l-13.003-33.595c-.833-2.154-.552-4.579.754-6.484 1.289-1.881 3.413-3.015 5.69-3.043l-8.843-22.621c-.842-2.154-.565-4.585.739-6.495.579-.849 1.328-1.546 2.185-2.059l-8.268-25.469-8.267 25.469c.856.513 1.605 1.21 2.185 2.059 1.304 1.91 1.581 4.341.739 6.495l-8.843 22.621c2.277.028 4.401 1.162 5.69 3.043 1.305 1.905 1.587 4.33.754 6.484zm59.633 51.577h65l-19.34-49.965c-.833-2.154-.551-4.579.754-6.484s3.465-3.043 5.774-3.043h3.776l-13.616-34.833c-.843-2.154-.566-4.586.738-6.496.981-1.436 2.447-2.438 4.098-2.847l-14.684-45.236-14.684 45.236c1.65.409 3.117 1.411 4.098 2.847 1.304 1.91 1.58 4.342.738 6.496l-13.616 34.833h3.776c2.309 0 4.469 1.138 5.774 3.043s1.587 4.33.754 6.484zm86.188-23.82h41.492l-13.004-33.595c-.833-2.153-.551-4.579.754-6.484 1.289-1.881 3.413-3.015 5.69-3.042l-8.843-22.621c-.842-2.155-.565-4.586.739-6.496.579-.849 1.329-1.546 2.185-2.059l-8.267-25.469-8.268 25.469c.857.513 1.606 1.21 2.185 2.059 1.304 1.91 1.581 4.341.739 6.496l-8.843 22.621c2.277.027 4.401 1.161 5.69 3.042 1.306 1.905 1.587 4.331.754 6.484zm-192.918 170.014c.615 1.479 1.231 2.958 1.846 4.437l.003.007c1.786 4.318 1.789 8.668.024 13.015l-.012.03c-1.785 4.283-4.861 7.373-9.195 9.198l-.018.008s-23.467 9.728-23.467 9.728c-8.644 3.607-18.652-.533-22.236-9.169-13.24-31.813-26.499-63.626-39.727-95.414-1.833-4.322-1.844-8.709-.043-13.064 1.792-4.333 4.889-7.427 9.194-9.22l23.493-9.751c8.637-3.585 18.613.517 22.234 9.161l.003.008c.481 1.155.961 2.311 1.442 3.466 10.99-5.199 21.962-10.434 32.887-15.778 15.878-7.768 28.416-12.839 42.995-10.868 9.456 1.277 19.879 5.529 32.661 14.439l43.073 11.538c7.37 1.974 13.267 6.785 16.831 12.945l59.412-17.429c27.128-7.958 42.078-1.819 48.673 7.095 4.499 6.081 5.711 13.949 4.027 21.733-2.335 10.795-10.322 21.26-21.188 25.452l-91.642 35.314c-15.691 6.038-36.679 14.348-53.517 9.459l-48.822-14.163-.011-.003c-5.365-1.566-10.513-1.131-15.545 1.32zm-11.09 9.797c-1.453-3.49-38.321-92.035-39.734-95.43-.643-1.533-2.412-2.266-3.945-1.629l-23.482 9.746c-.766.319-1.315.872-1.634 1.643-.31.749-.321 1.504.004 2.269l.009.022c13.242 31.819 26.503 63.637 39.746 95.459l.001.003c.632 1.522 2.394 2.256 3.929 1.614l23.455-9.724.014-.006c.767-.329 1.325-.872 1.661-1.659.296-.768.293-1.541-.024-2.308zm5.699-22.746 12.635-6.146c8.286-4.036 16.764-4.752 25.589-2.176l48.822 14.163c6.591 1.913 13.965.933 21.232-.929 8.256-2.116 16.378-5.466 23.351-8.15l91.634-35.31c6.503-2.509 11.144-8.888 12.542-15.349.805-3.72.553-7.537-1.598-10.443-1.848-2.498-5.017-4.14-9.504-4.831-5.975-.919-13.848-.126-23.97 2.844l-59.595 17.482c.041 2.506-.26 5.055-.938 7.587-3.953 14.757-19.276 23.608-34.022 19.633l-58.839-15.756c-3.733-1-5.952-4.842-4.952-8.574 1-3.733 4.842-5.952 8.574-4.952l58.839 15.755.012.003c7.312 1.972 14.903-2.419 16.861-9.732 1.96-7.317-2.431-14.913-9.748-16.873l-44.274-11.86c-.803-.215-1.562-.572-2.24-1.053-10.86-7.708-19.519-11.639-27.472-12.714-11.918-1.61-21.987 3.221-34.966 9.571-11.18 5.468-22.408 10.823-33.653 16.141 8.558 20.555 17.121 41.111 25.68 61.669zm275.858-318.035c-10.99 5.199-21.962 10.434-32.887 15.778-15.878 7.768-28.416 12.839-42.995 10.868-9.456-1.277-19.879-5.529-32.661-14.439l-43.073-11.538c-7.37-1.974-13.267-6.785-16.831-12.945l-59.412 17.429c-27.128 7.958-42.078 1.819-48.673-7.095-4.499-6.081-5.711-13.949-4.027-21.733 2.335-10.795 10.322-21.26 21.188-25.452l91.642-35.314c15.691-6.038 36.679-14.348 53.517-9.459l48.822 14.163.011.003c5.365 1.566 10.513 1.131 15.545-1.32l13.375-6.506c-.615-1.479-1.231-2.958-1.846-4.437l-.003-.007c-1.786-4.318-1.789-8.668-.024-13.015l.012-.03c1.785-4.283 4.861-7.373 9.195-9.198l.018-.008s23.467-9.728 23.467-9.728c8.644-3.607 18.652.533 22.236 9.169 13.24 31.813 26.499 63.626 39.727 95.414 1.833 4.322 1.844 8.709.043 13.064-1.792 4.333-4.889 7.427-9.194 9.22l-23.493 9.751c-8.637 3.585-18.613-.517-22.234-9.161l-.003-.008c-.481-1.155-.961-2.311-1.442-3.466zm-31.068-74.611-12.635 6.146c-8.286 4.036-16.764 4.752-25.589 2.176l-48.822-14.163c-6.591-1.913-13.965-.933-21.232.929-8.256 2.116-16.378 5.466-23.351 8.15l-91.634 35.31c-6.503 2.509-11.144 8.888-12.542 15.349-.805 3.72-.553 7.537 1.598 10.443 1.848 2.498 5.017 4.14 9.504 4.831 5.975.919 13.848.126 23.97-2.844l59.595-17.482c-.041-2.506.26-5.055.938-7.587 3.953-14.757 19.276-23.608 34.022-19.633l58.839 15.756c3.733 1 5.952 4.842 4.952 8.574-1 3.733-4.842 5.952-8.574 4.952l-58.839-15.755-.012-.003c-7.312-1.972-14.903 2.419-16.861 9.732-1.96 7.317 2.431 14.913 9.748 16.873l44.274 11.86c.803.215 1.562.572 2.24 1.053 10.86 7.708 19.519 11.639 27.472 12.714 11.918 1.61 21.987-3.221 34.966-9.571 11.18-5.468 22.408-10.823 33.653-16.141-8.558-20.555-17.121-41.111-25.68-61.669zm5.699-22.746c1.453 3.49 38.321 92.035 39.734 95.43.643 1.533 2.412 2.266 3.945 1.629l23.482-9.746c.766-.319 1.315-.872 1.634-1.643.31-.749.321-1.504-.004-2.269l-.009-.022c-13.242-31.819-26.503-63.637-39.746-95.459l-.001-.003c-.632-1.522-2.394-2.256-3.929-1.614l-23.455 9.724-.014.006c-.767.329-1.325.872-1.661 1.659-.296.768-.293 1.541.024 2.308z"/></g></svg>