<svg id="Layer_1" enable-background="new 0 0 66 66" viewBox="0 0 66 66" xmlns="http://www.w3.org/2000/svg" fill="#1B453C"><g><path d="m62.61 31.21-2.23-3.51.5-3.17c.19-1.21-.42-2.39-1.53-2.92-.71-.34-1.53-.36-2.25-.06-.16.07-.32.15-.46.25l-3.77-5.93c-.38-.6-.98-1.02-1.67-1.17-.7-.15-1.41-.02-2.01.37-.05.03-.08.07-.12.1-.35-.37-.79-.63-1.29-.75-.7-.17-1.46-.03-2.06.38-1.12.75-1.49 2.22-.85 3.41l.76 1.41-.2.14c-1.07.77-1.41 2.22-.79 3.38l.72 1.35-.02.02c-.97.95-1.26 2.38-.74 3.64l4.06 9.78c-5.41 6.18-7.35 12.24-5.79 18.03-.43.44-.85.9-1.26 1.39-.08.1-.12.23-.11.36l.67 5.82h-18.33l.67-5.82c.02-.13-.02-.26-.11-.36-.41-.49-.83-.95-1.26-1.39 1.56-5.79-.39-11.86-5.79-18.02l4.06-9.78c.52-1.26.23-2.69-.74-3.64l-.02-.02.72-1.35c.62-1.16.28-2.62-.8-3.38l-.2-.14.76-1.41c.64-1.19.28-2.66-.85-3.41-.6-.4-1.35-.54-2.06-.38-.5.12-.95.39-1.29.75-.04-.03-.08-.07-.12-.1-.6-.39-1.31-.52-2.01-.37s-1.29.57-1.67 1.17l-3.76 5.92c-.15-.1-.3-.18-.46-.25-.72-.3-1.54-.28-2.25.06-1.11.53-1.72 1.71-1.53 2.92l.5 3.17-2.23 3.5c-2.68 3.96-2.51 7.9.53 12.05 1.07 1.48 3.67 5.43 4.77 7.11-.4.02-.81.05-1.23.09-.23.02-.41.2-.43.42l-1.3 10.77c-.02.17.05.33.18.43.13.11.3.14.46.08 5.73-1.94 10.76-1.49 15.34 1.36h-17.42c-.27 0-.48.22-.48.48 0 .27.22.48.48.48h57.27c.27 0 .48-.22.48-.48 0-.27-.22-.48-.48-.48h-17.28c4.58-2.85 9.62-3.3 15.34-1.36.16.05.33.02.46-.08.13-.11.2-.27.18-.43l-1.3-10.77c-.03-.23-.21-.4-.43-.42-.41-.04-.82-.07-1.23-.09 1.1-1.69 3.69-5.64 4.77-7.11 3.03-4.14 3.2-8.09.53-12.04zm-48.65-14.82c.24-.38.62-.64 1.06-.74s.89-.01 1.27.23c.09.06.17.12.24.19.04.1.11.2.21.25h.01c.36.52.41 1.21.08 1.79l-3.8 6.63c-.13.23-.05.53.18.66.08.04.16.06.24.06.17 0 .33-.09.42-.24l3.8-6.63c.51-.88.44-1.93-.07-2.74.22-.25.52-.43.86-.51.45-.11.91-.02 1.3.24.71.47.94 1.4.53 2.15l-.96 1.79-5.14 9.56c-.13.24-.04.53.2.66.07.04.15.06.23.06.17 0 .34-.09.43-.26l4.88-9.08.1.07c.68.48.89 1.4.5 2.14l-.89 1.67-4.48 8.42c-.13.24-.04.53.2.66.07.04.15.06.23.06.17 0 .34-.09.43-.26l4.17-7.83c.54.67.68 1.57.35 2.38l-3.84 9.25c-1.67-2.36-2.87-4.5-3.63-6.49l-2.6-7.35c-.09-.25-.22-.49-.37-.7zm-9.25 26.29c-2.81-3.83-2.97-7.31-.5-10.95l1.65-2.59 1.29 8.16c.04.26.29.44.55.4s.44-.29.4-.55l-2.02-12.77c-.12-.78.29-1.56.99-1.9.46-.22.99-.24 1.46-.04.47.19.84.58 1.01 1.06l2.6 7.36c.87 2.29 2.27 4.72 4.29 7.47 5.24 5.9 7.17 11.41 5.91 16.83-3.47-3.2-7.66-4.82-12.51-4.83-.78-1.2-3.88-5.95-5.12-7.65zm8.33 17.33c-2 0-4.08.34-6.25 1.01l1.17-9.63c.49-.04.97-.06 1.45-.07.07.03.14.05.21.05s.14-.02.21-.05c5.49.01 10.09 2.19 13.71 6.49l-.62 5.34c-3.09-2.1-6.35-3.14-9.88-3.14zm32.79-34.61 4.17 7.83c.09.16.25.26.43.26.08 0 .15-.02.23-.06.24-.13.33-.42.2-.66l-4.48-8.42-.89-1.67c-.39-.73-.18-1.65.5-2.14l.1-.07 4.88 9.08c.09.16.25.26.43.26.08 0 .16-.02.23-.06.24-.13.32-.42.2-.66l-5.14-9.56-.96-1.79c-.4-.75-.17-1.67.53-2.15.38-.26.84-.34 1.3-.24.34.08.63.26.86.51-.51.81-.58 1.86-.07 2.74l3.8 6.63c.09.16.25.24.42.24.08 0 .16-.02.24-.06.23-.13.31-.43.18-.66l-3.8-6.63c-.33-.58-.28-1.27.08-1.79h.01c.1-.06.17-.15.21-.25.07-.07.15-.14.24-.19.38-.25.83-.33 1.27-.23s.82.36 1.06.74l3.87 6.09c-.16.21-.28.45-.37.7l-2.59 7.34c-.77 2.01-1.97 4.16-3.63 6.51l-3.84-9.25c-.36-.82-.21-1.72.33-2.39zm13.38 35.61c-6.01-1.85-11.3-1.15-16.13 2.13l-.62-5.34c3.62-4.31 8.22-6.48 13.71-6.49.07.03.14.05.21.05s.15-.02.21-.05c.48.01.96.03 1.45.07zm-3.05-10.67c-4.85.01-9.04 1.63-12.51 4.83-1.26-5.4.67-10.91 5.9-16.81.02-.02.03-.03.04-.05 1.99-2.72 3.39-5.15 4.26-7.45l2.6-7.35c.17-.48.54-.87 1.01-1.06s1-.18 1.46.04c.72.35 1.12 1.11 1 1.9l-2.02 12.77c-.04.26.14.51.4.55s.51-.14.55-.4l1.29-8.16 1.65 2.6c2.46 3.63 2.3 7.11-.51 10.94-1.23 1.69-4.33 6.44-5.12 7.65z"/><path d="m45.9 56.63c-.17.14-.33.28-.5.43-.2.18-.22.48-.04.68.1.11.23.16.36.16.11 0 .23-.04.32-.12.16-.14.31-.27.47-.4.21-.17.24-.48.07-.68-.17-.22-.47-.25-.68-.07z"/><path d="m50.71 53.9c-1.14.39-2.23.92-3.26 1.58-.23.14-.29.44-.15.67.09.14.25.22.41.22.09 0 .18-.02.26-.08.96-.62 1.99-1.12 3.05-1.48.25-.09.39-.36.3-.62-.08-.24-.35-.37-.61-.29z"/><path d="m21.3 13.11c.19.54.39 1.1.65 1.68.63 1.39 1.65 2.57 2.88 3.31.85.52 1.68.78 2.49.78.56 0 1.12-.13 1.65-.38.38-.18.73-.43 1.03-.72 1.28 1.82 2.1 3.95 2.36 6.21h-7.06c-.8 0-1.45.65-1.45 1.45v3.19c0 .8.65 1.45 1.45 1.45h.09l1.6 9.48c.09.56.35 1.06.71 1.45h-1.74c-.27 0-.48.22-.48.48 0 .27.22.48.48.48h14.25c.27 0 .48-.22.48-.48 0-.27-.22-.48-.48-.48h-1.62c.36-.4.61-.89.71-1.45l1.6-9.48h.09c.8 0 1.45-.65 1.45-1.45v-3.19c0-.8-.65-1.45-1.45-1.45h-7.57v-3.06c0-.37.01-.74.02-1.1.15-1.07.76-2.74 2.89-3.86.17.33.4.62.7.84.42.32.9.48 1.42.48.33 0 .67-.06 1.04-.19.78-.27 1.49-.8 2-1.5.21-.28.38-.56.54-.83.25-.41.47-.76.76-1.04.11-.11.16-.26.14-.41s-.12-.29-.25-.36c-1.75-.93-4.18-.98-5.52-.11-.77.5-1.15 1.26-1.09 2.15v.02c-1.02.51-1.76 1.13-2.29 1.77.4-2.18 1.11-4.01 2.03-5.64.37.24.78.42 1.21.53.33.08.66.12.98.12 1.08 0 2.12-.46 3.1-1.37.62-.57 1.14-1.26 1.55-2.05.3-.58.52-1.2.68-1.87.14-.63.23-1.23.31-1.81.13-.9.25-1.75.56-2.52.06-.14.04-.3-.04-.44-.08-.13-.22-.22-.37-.23-3.54-.3-7.59 1.34-9.21 3.74-.91 1.34-1.02 2.79-.3 4.2.2.4.46.76.77 1.07-1.44 2.51-2.43 5.5-2.57 9.44-.01.12-.02.23-.03.34-.46-1.18-1.06-2.29-1.8-3.3.23-.35.41-.74.52-1.16.41-1.48.03-2.84-1.09-3.95-2.01-1.98-6.19-2.77-9.52-1.8-.15.04-.27.15-.32.3-.05.14-.04.31.05.43.43.68.71 1.47 1.01 2.29zm16.38.57c.49-.32 1.19-.47 1.95-.47.67 0 1.39.13 2.04.37-.16.22-.31.46-.46.7-.15.25-.31.51-.5.76-.4.54-.94.95-1.54 1.16-.63.22-1.13.17-1.55-.15-.16-.12-.3-.29-.4-.47.45-.17.94-.32 1.5-.44.26-.06.43-.32.37-.58s-.31-.43-.58-.37c-.54.12-1.02.26-1.47.42.06-.38.27-.69.64-.93zm-2.54-4.64c-.55-1.09-.47-2.17.24-3.22 1.31-1.93 4.58-3.35 7.57-3.35h.13c-.2.68-.3 1.38-.4 2.11-.08.56-.16 1.14-.3 1.73-.13.59-.33 1.14-.59 1.64-.35.69-.8 1.29-1.34 1.79-1.03.96-2.07 1.29-3.18 1.01-.34-.09-.66-.23-.96-.42 1.21-1.93 2.7-3.57 4.25-5.16.19-.19.18-.5-.01-.69s-.5-.18-.69.01c-1.56 1.6-3.06 3.26-4.29 5.18-.17-.19-.31-.4-.43-.63zm3.2 30.38c-.16.94-.96 1.61-1.91 1.61h-6.56c-.95 0-1.75-.68-1.91-1.61l-1.58-9.32h13.54zm2.65-14.45c.27 0 .48.22.48.48v3.19c0 .27-.22.48-.48.48h-15.69c-.27 0-.48-.21-.48-.48v-3.19c0-.27.21-.48.48-.48h7.13c.01.18.02.35.02.53v1.43c0 .27.22.48.48.48.27 0 .48-.22.48-.48v-1.43-.53zm-11.59-12.38c.87.86 1.15 1.86.84 3-.07.21-.15.41-.24.6-1.3-1.54-2.93-2.8-4.81-3.68l-.11-.05c-.24-.11-.53-.01-.64.24-.11.24-.01.53.24.64l.11.05c1.83.85 3.39 2.11 4.63 3.63-.25.26-.54.47-.86.62-1 .48-2.06.36-3.22-.35-1.06-.65-1.95-1.67-2.5-2.88-.24-.54-.44-1.09-.62-1.61-.24-.67-.47-1.31-.78-1.91 2.86-.63 6.32.09 7.96 1.7z"/><path d="m36.38 39.01c.03 0 .05.01.08.01.23 0 .44-.17.48-.4l.2-1.19c.04-.26-.13-.51-.4-.56-.26-.04-.51.13-.56.4l-.2 1.19c-.04.25.14.5.4.55z"/><path d="m37 35.93c.03 0 .05.01.08.01.23 0 .44-.17.48-.4l.51-3.01c.04-.26-.13-.51-.4-.56-.26-.04-.51.13-.56.4l-.51 3.01c-.05.25.13.5.4.55z"/><path d="m41.66 41.04c-.27 0-.48.22-.48.48 0 .27.22.48.48.48h.48c.27 0 .48-.22.48-.48 0-.27-.22-.48-.48-.48z"/><path d="m24.02 41.04c-.27 0-.48.22-.48.48 0 .27.22.48.48.48h.48c.27 0 .48-.22.48-.48 0-.27-.22-.48-.48-.48z"/><path d="m2.36 63.53h-.38c-.27 0-.48.22-.48.48 0 .27.22.48.48.48h.38c.27 0 .48-.22.48-.48.01-.26-.21-.48-.48-.48z"/><path d="m64.02 63.53h-.25c-.27 0-.48.22-.48.48 0 .27.22.48.48.48h.25c.27 0 .48-.22.48-.48s-.22-.48-.48-.48z"/></g></svg>