<svg width="19" height="34" viewBox="0 0 19 34" fill="none" xmlns="http://www.w3.org/2000/svg">
<path d="M5.45181 0.871718C5.30645 0.784627 5.16167 0.696614 5.01687 0.608604C4.92377 0.552808 4.83063 0.497068 4.73745 0.441389C4.67315 0.402023 4.67315 0.402023 4.60754 0.361862C4.54731 0.326284 4.54731 0.326284 4.48587 0.289987C4.45095 0.268994 4.41604 0.248 4.38007 0.22637C4.24958 0.175061 4.14997 0.180381 4.00491 0.202496C3.86251 0.281213 3.78477 0.37192 3.69636 0.514748C3.67623 0.545967 3.6561 0.577187 3.63536 0.609352C3.51459 0.915727 3.60497 1.22988 3.66231 1.51955C3.7249 1.85293 3.76844 2.18211 3.78949 2.52732C3.80065 2.68674 3.81968 2.84198 3.84101 2.99882C3.88347 3.33124 3.9027 3.66634 3.91417 4.00554C3.91682 4.08221 3.91977 4.15882 3.923 4.23538C3.99183 5.90386 3.79866 7.60035 3.44276 9.28224C3.43199 9.3339 3.42122 9.38555 3.41013 9.43878C3.12147 10.7975 2.63917 12.1242 2.16444 13.4433C1.41499 15.5268 0.757407 17.7413 0.783389 19.8967C0.782957 19.9632 0.78244 20.0296 0.781851 20.0961C0.780103 20.5713 0.82204 21.0228 0.895664 21.481C0.907471 21.5561 0.917647 21.6317 0.92743 21.7074C1.21769 23.7423 2.55084 25.2802 4.07882 26.2986C5.98645 27.5082 8.23229 28.1036 10.6079 27.6382C10.4206 29.4255 10.1527 31.2826 9.32667 32.9625C9.26338 33.1588 9.28706 33.2683 9.33384 33.4522C9.3377 33.4741 9.34155 33.4959 9.34552 33.5184C9.48574 33.6337 9.63298 33.7448 9.82503 33.7418C9.95185 33.7125 10.0589 33.6759 10.171 33.5952C11.4536 31.7767 11.6822 28.9813 11.8318 26.9208C11.8413 26.7901 11.8515 26.6594 11.862 26.5287C11.9437 25.4758 11.9724 24.4258 11.9388 23.3859C11.9343 23.2403 11.9324 23.0943 11.9303 22.9483C11.9014 21.7232 11.7974 20.5092 11.6415 19.3127C11.6302 19.2243 11.6302 19.2243 11.6187 19.1342C11.5511 18.6151 11.4669 18.1024 11.3757 17.5906C11.3524 17.4597 11.3295 17.3287 11.3066 17.1976C11.2355 16.7946 11.1629 16.3949 11.0575 16.0047C11.0409 15.9386 11.0244 15.8725 11.0079 15.8063C10.8744 15.2789 10.7299 14.7569 10.5765 14.2382C10.5661 14.2023 10.5557 14.1665 10.5449 14.1296C10.3816 13.5707 10.1801 13.0348 9.96937 12.5003C9.95668 12.4679 9.94398 12.4356 9.93089 12.4023C9.67129 11.7439 9.38601 11.1047 9.06379 10.4848C8.93406 10.2345 8.8059 9.98337 8.68503 9.72719C8.65758 9.66915 8.65758 9.66915 8.62959 9.60994C8.58036 9.49741 8.58036 9.49741 8.59307 9.32762C8.70539 9.10049 8.79797 8.97223 9.01995 8.87115C9.17805 8.83615 9.22691 8.87623 9.35385 8.9637C9.52123 9.10374 9.62123 9.27612 9.72672 9.47309C9.74756 9.51137 9.7684 9.54965 9.78988 9.58908C10.5958 11.0973 11.2532 12.7443 11.6843 14.4576C11.7256 14.6189 11.7713 14.7776 11.8183 14.9365C11.9057 15.2422 11.9726 15.5541 12.0369 15.869C12.0771 16.0656 12.1201 16.2601 12.1692 16.4532C12.2357 16.7194 12.2852 16.9901 12.3327 17.2631C12.3411 17.3103 12.3496 17.3575 12.3583 17.4062C12.4052 17.6733 12.4427 17.9405 12.4706 18.2131C12.4909 18.4017 12.5192 18.5879 12.5466 18.7745C12.5926 19.0961 12.6272 19.4173 12.6491 19.7451C12.6613 19.9085 12.6777 20.0701 12.6953 20.2321C12.7457 20.6994 12.7693 21.1679 12.782 21.6431C12.7858 21.769 12.791 21.8944 12.7966 22.02C12.8461 23.2133 12.8101 24.4303 12.7313 25.6392C12.7287 25.6834 12.7261 25.7277 12.7234 25.7732C12.7209 25.8108 12.7184 25.8484 12.7158 25.8872C12.7232 26.1004 12.7791 26.2011 12.916 26.34C13.0656 26.4498 13.1762 26.4753 13.3739 26.4422C13.928 26.182 14.4276 25.6851 14.8744 25.2407C14.9035 25.2121 14.9326 25.1835 14.9626 25.154C15.5222 24.5857 15.975 23.9417 16.3818 23.2513C16.4037 23.2144 16.4256 23.1776 16.4482 23.1396C16.8214 22.5091 17.1411 21.8792 17.3863 21.1921C17.4027 21.1468 17.419 21.1015 17.4359 21.0548C18.0515 19.3227 18.2362 17.4763 17.95 15.7681C17.9363 15.6863 17.9231 15.6044 17.9102 15.5223C17.8185 14.9412 17.7111 14.3794 17.5251 13.8359C17.4879 13.7267 17.4523 13.6169 17.4167 13.5069C16.0724 9.44087 12.9646 6.35886 7.87365 2.43825C7.83412 2.41025 7.79459 2.38225 7.75387 2.3534C7.00557 1.82903 6.23567 1.34013 5.45181 0.871718Z" fill="#DBE9E4"/>
</svg>
