<svg width="160" height="160" viewBox="0 0 85 85" fill="none" xmlns="http://www.w3.org/2000/svg">
  <path d="M81.902 8.44261C82.156 8.5071 82.4104 8.57017 82.6648 8.63326C82.8276 8.67456 82.9903 8.71595 83.153 8.75743C83.2663 8.78519 83.2663 8.78519 83.3819 8.81351C83.4866 8.8407 83.4866 8.8407 83.5935 8.86845C83.6546 8.88387 83.7157 8.89929 83.7786 8.91518C83.9784 8.99784 84.084 9.10193 84.2227 9.26676C84.2988 9.4811 84.29 9.64209 84.2383 9.86175C84.2278 9.91057 84.2174 9.95938 84.2067 10.0097C84.0188 10.4122 83.5868 10.6117 83.2176 10.8216C82.7965 11.0664 82.401 11.3264 82.0138 11.6235C81.8334 11.7593 81.6486 11.8834 81.4595 12.0067C81.0618 12.2707 80.6873 12.5604 80.3171 12.8615C80.2334 12.9295 80.1494 12.9972 80.0651 13.0645C78.2303 14.5334 76.6586 16.2891 75.2839 18.1933C75.2415 18.2516 75.1991 18.3099 75.1554 18.37C74.0461 19.9095 73.1869 21.6123 72.3272 23.3005C70.9688 25.9668 69.3699 28.6622 67.0699 30.6225C67.0004 30.6841 66.9309 30.7459 66.8616 30.8077C66.3628 31.2474 65.8403 31.6216 65.2754 31.9705C65.1831 32.028 65.092 32.0875 65.0013 32.1475C62.5332 33.7336 59.4243 33.8231 56.645 33.24C53.2405 32.455 50.1053 30.7673 47.9431 27.9727C46.2691 29.8062 44.6115 31.7842 43.764 34.1548C43.6278 34.3987 43.4861 34.476 43.24 34.5989C43.2127 34.6152 43.1854 34.6315 43.1572 34.6482C42.8792 34.6149 42.5977 34.5706 42.3864 34.3766C42.2756 34.2233 42.1947 34.083 42.1545 33.897C42.6384 30.9441 45.3283 28.1406 47.3324 26.0929C47.4594 25.963 47.5857 25.8324 47.7117 25.7015C48.7298 24.65 49.8039 23.6538 50.9372 22.7291C51.0956 22.5993 51.2515 22.4667 51.4078 22.3343C52.7308 21.2341 54.126 20.2191 55.5607 19.2717C55.6664 19.2016 55.6664 19.2016 55.7743 19.13C56.3967 18.719 57.0309 18.3303 57.6719 17.9495C57.8359 17.8521 57.9996 17.7542 58.1632 17.6563C58.6672 17.3557 59.1693 17.0597 59.6982 16.805C59.7864 16.7607 59.8745 16.7162 59.9625 16.6716C60.6674 16.3186 61.3787 15.9815 62.0966 15.6563C62.1459 15.6336 62.1953 15.611 62.2461 15.5876C63.0174 15.2353 63.8071 14.942 64.6055 14.6594C64.6538 14.6422 64.702 14.6251 64.7517 14.6075C65.7353 14.2592 66.7273 13.9543 67.7403 13.704C68.1489 13.6025 68.5565 13.4987 68.9614 13.383C69.0532 13.3569 69.0532 13.3569 69.1469 13.3302C69.3204 13.2755 69.3204 13.2755 69.4851 13.1064C69.599 12.7853 69.6307 12.5749 69.4894 12.2607C69.3497 12.071 69.2529 12.0593 69.019 12.0135C68.6846 11.9758 68.3913 12.0351 68.066 12.1116C68.0024 12.1261 67.9388 12.1406 67.8732 12.1555C65.3842 12.7428 62.9148 13.6058 60.6284 14.7552C60.4122 14.8628 60.194 14.9635 59.9742 15.0631C59.5544 15.2578 59.1511 15.4786 58.7475 15.7047C58.4955 15.8458 58.2426 15.9823 57.9843 16.1114C57.6296 16.2904 57.2891 16.4905 56.9484 16.6949C56.8892 16.7299 56.83 16.765 56.7691 16.8011C56.4353 17.0005 56.1118 17.2095 55.7935 17.4329C55.572 17.5864 55.3444 17.7298 55.1171 17.8745C54.7269 18.125 54.3498 18.3865 53.9799 18.6668C53.7942 18.8052 53.6057 18.9378 53.4154 19.0696C52.8667 19.45 52.3467 19.8582 51.8319 20.2835C51.6951 20.3956 51.557 20.5061 51.4185 20.6161C50.106 21.6665 48.8639 22.8238 47.6781 24.0162C47.6344 24.0595 47.5908 24.1029 47.5457 24.1475C47.5089 24.1847 47.4721 24.2218 47.4341 24.2601C47.2013 24.4492 47.0327 24.4864 46.7336 24.478C46.4508 24.4302 46.3005 24.3436 46.1146 24.1163C45.77 23.3247 45.7357 22.3692 45.7049 21.5149C45.7026 21.4595 45.7002 21.4042 45.6978 21.3472C45.6717 20.2663 45.8446 19.2219 46.1178 18.1807C46.1322 18.1249 46.1466 18.0691 46.1614 18.0116C46.4089 17.0589 46.7156 16.1602 47.1658 15.2829C47.1952 15.2248 47.2247 15.1667 47.255 15.1069C48.3925 12.8978 50.1317 11.0125 52.2511 9.7234C52.3525 9.66167 52.4536 9.59934 52.5545 9.53663C53.2692 9.09239 53.9811 8.68172 54.7614 8.36609C54.9179 8.30255 55.0734 8.23675 55.229 8.17094C61.0141 5.76275 67.7316 6.01756 77.5471 7.47443C77.6208 7.488 77.6944 7.50156 77.7703 7.51553C79.1583 7.7775 80.5332 8.09366 81.902 8.44261Z" fill="#1B453C"/>
</svg>
