<svg width="82" height="82" viewBox="0 0 82 82" fill="none" xmlns="http://www.w3.org/2000/svg">
<g clip-path="url(#clip0_1_345)">
<path d="M35.7841 18.0844C35.9319 18.0993 36.0797 18.1143 36.2319 18.1297C38.0074 18.313 39.7786 18.534 41.5494 18.757C41.9828 18.8114 42.4163 18.8646 42.8498 18.9177C42.9781 18.9342 43.1064 18.9507 43.2386 18.9677C44.5013 19.1208 45.7332 19.1712 46.9844 18.9064C47.1631 18.8702 47.3417 18.8339 47.5257 18.7966C47.7096 18.7585 47.8935 18.7204 48.083 18.6812C52.2108 17.8785 52.2108 17.8785 53.5321 18.705C54.9945 19.8498 55.4556 21.3869 56.0508 23.0855C56.1573 23.3854 56.2639 23.6852 56.3705 23.9851C56.6415 24.7516 56.9078 25.5197 57.1719 26.2886C57.2736 26.2663 57.3752 26.244 57.48 26.221C59.1489 25.8686 60.9063 25.5954 62.4345 26.5163C63.8808 27.5825 64.4507 29.0642 64.8594 30.773C65.0687 32.1714 64.8201 33.4447 63.9979 34.6092C63.8141 34.8334 63.6174 35.0469 63.418 35.2574C63.4799 35.3313 63.5418 35.4052 63.6057 35.4813C64.7842 36.9575 65.2248 38.3252 65.0195 40.2222C64.8965 40.7314 64.7372 41.1765 64.5391 41.6636C64.6204 41.7222 64.7017 41.7809 64.7856 41.8413C65.9129 42.728 66.4916 43.8378 66.9414 45.187C67.0541 46.6071 66.9578 47.7578 66.3008 49.0308C66.3947 49.0719 66.4887 49.113 66.5854 49.1553C67.4314 49.6206 68.0423 50.446 68.3728 51.3431C68.7653 52.7643 68.5705 54.0495 67.8523 55.3319C67.662 55.6391 67.4668 55.9404 67.2617 56.2378C67.3981 56.2796 67.5346 56.3214 67.6751 56.3645C68.246 56.5664 68.7585 56.8144 69.2956 57.0937C69.4464 57.1718 69.4464 57.1718 69.6003 57.2514C69.9255 57.42 70.2502 57.5897 70.575 57.7593C70.8013 57.877 71.0278 57.9945 71.2542 58.1121C72.5359 58.778 73.816 59.4469 75.0921 60.1233C75.8374 60.5178 76.586 60.9053 77.3365 61.2896C77.6313 61.441 77.9261 61.5924 78.2208 61.7438C78.5048 61.8893 78.7892 62.0339 79.0737 62.1784C81.5597 63.4557 81.5597 63.4557 81.856 64.2456C81.8314 64.8357 81.7555 65.0894 81.3555 65.5269C80.4579 65.7939 79.9466 65.6227 79.152 65.2133C79.0203 65.1417 78.8886 65.0701 78.7529 64.9964C78.6122 64.9229 78.4716 64.8495 78.3266 64.7738C77.8934 64.547 77.4623 64.3164 77.0312 64.0855C76.7868 63.9569 76.5422 63.8287 76.2974 63.7007C75.807 63.4441 75.3175 63.186 74.8285 62.9269C73.8309 62.3994 72.8284 61.8815 71.8262 61.3628C70.5433 60.6985 69.2613 60.0328 67.9824 59.3609C67.8601 59.297 67.7377 59.2332 67.6116 59.1674C66.7998 58.7419 66.0081 58.2896 65.2316 57.8019C64.5818 57.5878 64.1259 57.8884 63.5361 58.1766C63.0969 58.3996 62.6617 58.6292 62.2268 58.8604C61.8959 59.0347 61.5649 59.2091 61.234 59.3834C61.065 59.4727 60.8961 59.562 60.722 59.654C59.9272 60.0731 59.13 60.4875 58.333 60.9024C57.224 61.4806 56.1162 62.0609 55.0098 62.6441C53.4395 63.4718 51.8657 64.2925 50.2916 65.1129C49.4385 65.5576 48.5856 66.0027 47.7327 66.4478C47.4209 66.6105 47.1091 66.7731 46.7974 66.9358C46.6665 67.0041 46.5356 67.0723 46.4008 67.1427C46.3085 67.1908 46.2162 67.239 46.1211 67.2886C46.8047 67.8938 47.5381 68.2585 48.3533 68.6499C49.4839 69.2038 50.5959 69.7805 51.6965 70.3916C53.369 71.3172 55.0688 72.1861 56.7715 73.0542C58.5474 73.9599 60.318 74.8692 62.0593 75.8404C63.0059 76.364 63.9651 76.8592 64.9301 77.3478C65.0645 77.416 65.199 77.4843 65.3375 77.5546C66.0154 77.8985 66.694 78.2407 67.3741 78.5803C67.6242 78.7068 67.8744 78.8334 68.1244 78.96C68.2404 79.0171 68.3563 79.0743 68.4758 79.1332C69.0601 79.4311 69.5051 79.6756 69.8242 80.2613C69.9087 80.8406 69.8978 81.1104 69.574 81.6026C69.0537 81.9495 68.662 81.9753 68.0625 81.8628C67.4194 81.6034 66.8186 81.2744 66.2107 80.9419C66.0322 80.8468 65.8538 80.7516 65.6699 80.6536C64.4489 80.0003 63.2365 79.3311 62.0241 78.6621C60.3659 77.7541 58.6783 76.9032 56.9944 76.0443C55.4951 75.2793 53.9989 74.5126 52.5273 73.6949C50.8723 72.7754 49.1876 71.9147 47.5024 71.0523C47.3642 70.9815 47.226 70.9108 47.0835 70.8379C45.9681 70.2655 45.9681 70.2655 44.8488 69.7007C44.623 69.5842 44.4006 69.4609 44.1816 69.3321C43.5159 68.9407 43.5159 68.9407 42.7685 68.9979C42.6248 69.085 42.4811 69.1721 42.333 69.2618C42.0893 69.4042 42.0893 69.4042 41.8407 69.5495C41.671 69.6557 41.5013 69.7618 41.3264 69.8711C41.1481 69.977 40.9698 70.0828 40.7862 70.1918C40.2663 70.5012 39.7503 70.8165 39.2344 71.1324C38.8884 71.3373 38.5412 71.5399 38.1937 71.7421C37.874 71.9284 37.5556 72.1171 37.2374 72.306C36.3358 72.8396 35.4276 73.362 34.5198 73.885C34.3424 73.9872 34.1651 74.0894 33.9824 74.1947C33.6188 74.4042 33.2551 74.6136 32.8914 74.8231C32.1883 75.228 31.4856 75.6335 30.7828 76.039C30.4374 76.2383 30.092 76.4376 29.7465 76.6368C28.6962 77.2426 27.6464 77.8492 26.5969 78.4563C26.0786 78.7557 25.5596 79.0541 25.0405 79.3523C24.3506 79.7488 23.6638 80.1502 22.9785 80.5547C22.6482 80.7472 22.3179 80.9397 21.9875 81.1321C21.7622 81.2672 21.7622 81.2672 21.5323 81.405C20.7219 81.8733 20.157 82.1733 19.2148 82.023C18.8145 81.6827 18.8145 81.6827 18.5742 81.2222C18.5742 80.6559 18.636 80.3752 19.0076 79.9448C19.4124 79.5876 19.8134 79.3463 20.2878 79.0889C20.4668 78.9908 20.6458 78.8927 20.8302 78.7917C20.9243 78.7408 21.0184 78.6899 21.1153 78.6374C21.6096 78.3698 22.1019 78.0985 22.5944 77.8276C22.6915 77.7744 22.7886 77.7211 22.8887 77.6661C23.6235 77.2622 24.3501 76.8465 25.0706 76.4175C26.1799 75.7579 27.2955 75.1099 28.4138 74.4656C28.5914 74.3633 28.769 74.261 28.952 74.1556C29.3158 73.946 29.6797 73.7364 30.0436 73.5269C30.5697 73.2237 31.0956 72.9201 31.6213 72.6163C33.0372 71.7983 34.4533 70.9805 35.8736 70.1702C35.9673 70.1167 36.061 70.0632 36.1575 70.0082C36.6333 69.7367 37.1092 69.4656 37.5853 69.1947C38.4455 68.7047 39.3031 68.2114 40.1521 67.7021C42.7642 66.1394 45.4617 64.7644 48.1761 63.39C49.4711 62.7327 50.7551 62.0549 52.0389 61.376C52.7607 60.9949 53.485 60.6186 54.209 60.2417C55.4539 59.593 56.6975 58.9417 57.9391 58.2864C58.6286 57.9229 59.3194 57.5617 60.0115 57.2031C60.9352 56.7246 61.8567 56.2419 62.7773 55.7574C62.9765 55.6534 62.9765 55.6534 63.1796 55.5474C63.5374 55.3597 63.8933 55.1688 64.2488 54.9766C64.4027 54.8967 64.4027 54.8967 64.5598 54.8152C65.2432 54.4391 65.6099 54.0385 65.9805 53.355C66.0802 52.657 66.0306 52.3288 65.7002 51.7034C65.2821 51.1908 65.2821 51.1908 64.6992 50.9527C63.6665 50.8758 63.0577 51.0477 62.1636 51.5495C62.0487 51.6112 61.9339 51.6729 61.8155 51.7365C61.4507 51.9332 61.0881 52.1335 60.7253 52.334C60.4839 52.465 60.2423 52.5958 60.0006 52.7263C58.7141 53.4223 58.7141 53.4223 57.4419 54.1438C57.2894 54.2315 57.1369 54.3193 56.9798 54.4098C56.8523 54.4854 56.7248 54.5611 56.5934 54.639C56.1182 54.8346 55.7594 54.8409 55.25 54.7964C54.8696 54.5462 54.8696 54.5462 54.6094 54.1558C54.5293 53.5953 54.5293 53.5953 54.6094 53.0347C55.0388 52.5211 55.4935 52.2319 56.0871 51.9324C56.251 51.8487 56.4149 51.7649 56.5838 51.6787C56.758 51.5911 56.9323 51.5034 57.1118 51.4131C57.4746 51.2279 57.8373 51.0423 58.1998 50.8563C58.3786 50.7646 58.5575 50.6729 58.7418 50.5784C59.5703 50.1475 60.3843 49.6919 61.1972 49.2324C61.8148 48.8845 62.4353 48.5612 63.0776 48.26C63.8427 47.8834 64.2376 47.4886 64.5391 46.6785C64.5391 45.7263 64.1625 44.8648 63.5581 44.136C63.0284 43.7299 62.5997 43.6782 61.931 43.687C61.0488 43.806 60.2712 44.228 59.4741 44.6065C59.0911 44.7822 58.708 44.9578 58.3249 45.1332C58.131 45.2231 57.9371 45.313 57.7433 45.403C56.8723 45.8062 55.9973 46.1996 55.1199 46.5884C54.8938 46.6917 54.8938 46.6917 54.6631 46.797C53.3368 47.3847 53.3368 47.3847 52.5273 47.2691C52.0669 47.0188 52.0669 47.0188 51.7266 46.6285C51.6365 46.0679 51.6365 46.0679 51.7266 45.5074C52.2433 44.8343 52.9234 44.5782 53.6835 44.2593C53.8127 44.2036 53.9419 44.1479 54.0751 44.0905C54.3507 43.972 54.6266 43.8542 54.9027 43.7369C55.3313 43.555 55.7589 43.371 56.1864 43.1865C56.8743 42.8898 57.5627 42.5942 58.2513 42.2992C59.0272 41.9667 59.8023 41.6327 60.5752 41.2932C60.6996 41.2405 60.824 41.1877 60.9521 41.1333C61.5551 40.8671 61.9769 40.6518 62.2969 40.062C62.5539 39.1075 62.3564 38.5247 61.9766 37.6597C61.9237 37.5012 61.8709 37.3426 61.8164 37.1792C61.0241 36.7088 60.054 36.742 59.1803 36.9549C58.7576 37.0914 58.3419 37.2406 57.9257 37.3957C57.6137 37.5067 57.3016 37.6176 56.9895 37.7285C56.5032 37.9045 56.0172 38.0814 55.5314 38.259C55.0591 38.4308 54.5857 38.5991 54.112 38.767C53.9674 38.8212 53.8227 38.8754 53.6736 38.9313C53.0329 39.1574 52.6473 39.2825 51.9679 39.162C51.5664 38.941 51.5664 38.941 51.2461 38.4605C51.186 37.99 51.186 37.99 51.2461 37.4995C51.6986 36.9427 52.1227 36.7275 52.7969 36.5049C52.9797 36.4434 53.1626 36.3819 53.3509 36.3185C53.5478 36.2543 53.7446 36.19 53.9475 36.1238C54.1526 36.0551 54.3576 35.9861 54.5626 35.9169C55.3212 35.6613 56.0811 35.4096 56.8411 35.1583C57.4837 34.9457 58.1257 34.7313 58.767 34.5146C59.0665 34.4142 59.3668 34.3163 59.6671 34.2185C60.6419 33.8897 61.4256 33.6139 62.1367 32.855C62.5478 31.6216 62.18 30.4834 61.6562 29.3316C61.355 28.8903 61.1915 28.7929 60.6953 28.5308C59.3014 28.4017 58.0013 28.7912 56.6614 29.1276C56.4073 29.1901 56.1533 29.2524 55.8992 29.3146C55.2306 29.4787 54.5624 29.6447 53.8944 29.8112C53.2288 29.9767 52.5627 30.1405 51.8967 30.3044C50.87 30.5573 49.8434 30.8105 48.8168 31.0641C48.696 31.0939 48.5752 31.1237 48.4507 31.1544C47.8877 31.2935 47.3247 31.4328 46.762 31.573C46.2016 31.7123 45.6409 31.8503 45.0801 31.9879C44.9206 32.028 44.761 32.068 44.5967 32.1093C43.8678 32.2869 43.1934 32.4499 42.4375 32.3745C42.0571 32.1243 42.0571 32.1243 41.7969 31.7339C41.7068 31.1734 41.7068 31.1734 41.7969 30.6128C42.4276 29.8019 43.5548 29.6669 44.5195 29.4917C44.7309 29.4917 44.9423 29.4917 45.1602 29.4917C45.1602 29.1746 45.1602 28.8575 45.1602 28.5308C45.0549 28.5461 44.9496 28.5614 44.8411 28.5771C41.9729 28.9113 39.032 28.4243 36.7175 26.6177C35.8439 25.8321 35.4288 25.0991 35.3506 23.9263C35.3707 23.0241 35.5514 22.2967 36.1883 21.6347C36.502 21.3588 36.8198 21.0961 37.1523 20.8433C36.7489 20.776 36.3456 20.7133 35.9412 20.6531C35.8283 20.6338 35.7155 20.6145 35.5993 20.5946C34.7633 20.4752 34.211 20.5457 33.4688 21.0035C33.2102 21.3828 33.0371 21.691 32.8582 22.1045C32.8072 22.2141 32.7562 22.3236 32.7036 22.4364C32.5913 22.6779 32.4805 22.9201 32.371 23.1629C32.0982 23.762 31.8119 24.3545 31.5271 24.948C31.211 25.6073 30.8983 26.2682 30.5859 26.9292C32.0968 27.6441 33.6448 28.2394 35.2114 28.8201C36.5599 29.336 37.7876 29.8916 38.6538 31.0933C38.7277 31.1924 38.8016 31.2915 38.8778 31.3936C39.6137 32.6685 39.6098 34.2353 39.26 35.6359C38.849 36.725 38.2636 37.6102 37.3125 38.3003C36.9528 38.4136 36.9528 38.4136 36.6719 38.4605C36.7163 38.5437 36.7607 38.6269 36.8064 38.7126C37.4069 39.8688 37.4069 39.8688 37.4727 40.5425C37.4878 40.6946 37.4878 40.6946 37.5033 40.8497C37.5783 42.2155 37.1566 43.4328 36.2615 44.4663C36.081 44.6561 35.8976 44.8432 35.7109 45.0269C35.6203 45.1177 35.5297 45.2086 35.4363 45.3022C35.3684 45.3699 35.3004 45.4376 35.2305 45.5074C35.2749 45.5924 35.3192 45.6775 35.365 45.7651C35.423 45.8782 35.481 45.9914 35.5408 46.1079C35.5984 46.2194 35.656 46.3309 35.7153 46.4458C36.2571 47.6382 36.1806 49.0475 35.781 50.272C35.1961 51.6914 34.238 52.5976 32.8281 53.1949C32.7224 53.1949 32.6167 53.1949 32.5078 53.1949C32.5607 53.3534 32.6135 53.512 32.668 53.6753C32.7423 54.7723 32.6219 55.6492 31.9566 56.5506C30.5904 58.0596 28.4502 58.0789 26.5357 58.1904C24.4946 58.2291 22.4291 57.9857 20.4636 57.4371C19.5903 57.2847 18.9314 57.541 18.1782 57.9701C18.0102 58.0648 17.8421 58.1595 17.669 58.257C17.4887 58.3603 17.3085 58.4636 17.1228 58.5701C16.931 58.6786 16.7392 58.7869 16.5472 58.8951C16.2469 59.0644 15.9466 59.2339 15.6466 59.4039C14.4766 60.0669 13.2982 60.7144 12.1192 61.3612C11.1333 61.9022 10.1491 62.4453 9.17398 63.0056C8.77896 63.2325 8.38302 63.4577 7.98705 63.683C7.71089 63.8411 7.43618 64.0017 7.16152 64.1624C5.57986 65.061 5.57986 65.061 4.64062 64.8863C4.24023 64.5459 4.24023 64.5459 4 64.0855C4 63.5157 4.06271 63.2368 4.43773 62.8048C4.82234 62.4649 5.19039 62.242 5.64473 62.0041C5.81153 61.9157 5.97833 61.8274 6.15018 61.7364C6.32919 61.6428 6.5082 61.5493 6.69263 61.4529C7.07275 61.2514 7.45273 61.0496 7.83249 60.8473C7.92839 60.7964 8.02429 60.7454 8.12309 60.6929C9.02281 60.2136 9.91093 59.7153 10.7966 59.2107C12.2068 58.4083 13.622 57.6155 15.0408 56.8284C15.138 56.7744 15.2353 56.7205 15.3355 56.6649C15.8811 56.3622 16.4269 56.0597 16.9727 55.7574C16.9289 55.6721 16.885 55.5868 16.8399 55.4989C16.7823 55.3856 16.7248 55.2723 16.6655 55.1555C16.6085 55.0438 16.5514 54.9321 16.4927 54.817C15.9917 53.754 15.9026 52.7395 16.1719 51.5933C16.5029 50.7336 16.8868 49.943 17.6133 49.3511C17.3248 48.7381 16.9523 48.2077 16.5623 47.6557C15.8599 46.4762 15.8072 45.0994 16.1162 43.7801C16.4615 42.8211 17.0065 42.0195 17.7734 41.3433C17.8791 41.3433 17.9848 41.3433 18.0938 41.3433C18.0281 41.2407 17.9624 41.1381 17.8948 41.0324C17.0774 39.7202 16.631 38.5797 16.8125 37.0191C17.27 35.1489 18.0817 34.0786 19.5352 32.855C19.4559 32.6932 19.3766 32.5313 19.2949 32.3645C18.7108 30.7751 18.9416 29.0698 19.609 27.5505C20.3096 26.24 21.1993 25.5455 22.5781 25.0074C24.1757 24.5278 25.5028 24.9754 26.9818 25.5823C27.3928 25.7477 27.7568 25.8696 28.1836 25.9683C28.2536 25.821 28.2536 25.821 28.325 25.6708C29.8909 22.3789 29.8909 22.3789 30.656 20.8233C30.7048 20.7222 30.7537 20.6212 30.804 20.517C31.2648 19.5882 31.7086 18.9315 32.658 18.481C32.7915 18.4158 32.9251 18.3505 33.0627 18.2833C34.0014 17.9072 34.7985 17.979 35.7841 18.0844ZM47.7596 21.1567C47.5017 21.2059 47.2437 21.2551 46.9858 21.3041C46.4481 21.4067 45.9107 21.5103 45.3734 21.6147C44.6859 21.7482 43.998 21.8789 43.3098 22.0088C42.7783 22.1095 42.247 22.2117 41.7159 22.3143C41.4623 22.3631 41.2086 22.4114 40.9548 22.4593C40.6004 22.5263 40.2465 22.5954 39.8926 22.665C39.6915 22.7037 39.4905 22.7425 39.2833 22.7824C38.6642 22.9495 38.1216 23.1344 37.7729 23.6961C37.7993 24.1571 37.9812 24.417 38.2885 24.7534C40.4749 26.5724 43.2744 26.4165 45.9309 26.1885C46.1103 26.1699 46.2897 26.1514 46.4746 26.1322C46.9219 26.1285 46.9219 26.1285 47.4023 26.4488C47.5565 27.0234 47.5683 27.5741 47.5656 28.1648C47.5652 28.2936 47.5647 28.4224 47.5643 28.5552C47.5634 28.7017 47.5634 28.7017 47.5625 28.8511C48.5117 28.6262 49.4609 28.4011 50.41 28.1756C50.733 28.099 51.0559 28.0224 51.3789 27.9459C51.8429 27.836 52.3068 27.7258 52.7707 27.6155C52.9154 27.5813 53.06 27.5471 53.2091 27.5119C53.3437 27.4798 53.4783 27.4478 53.617 27.4148C53.7355 27.3867 53.8539 27.3586 53.9759 27.3296C54.2437 27.2611 54.5073 27.1768 54.7695 27.0894C54.4277 25.9181 54.0544 24.76 53.6584 23.606C53.6049 23.4456 53.5513 23.2852 53.4961 23.1199C53.0613 21.69 53.0613 21.69 52.0469 20.6831C50.6061 20.5212 49.1661 20.8833 47.7596 21.1567ZM22.2578 27.8902C21.7206 28.7296 21.2969 29.6015 21.2969 30.6128C21.5586 31.5058 21.9727 32.0286 22.7383 32.5347C23.2471 32.7797 23.771 32.9693 24.3029 33.1578C24.4544 33.2133 24.6059 33.2688 24.762 33.326C25.2512 33.5046 25.7414 33.6804 26.2317 33.856C26.5675 33.9775 26.9033 34.0992 27.239 34.221C27.737 34.4014 28.235 34.5817 28.7334 34.7609C29.6364 35.0858 30.536 35.4175 31.4318 35.7616C31.6137 35.8305 31.7956 35.8994 31.983 35.9704C32.3005 36.0909 32.6171 36.2135 32.9328 36.3386C33.8498 36.6805 34.5928 36.7932 35.5508 36.5386C36.2299 36.1956 36.6131 35.6819 36.9822 35.0271C37.2238 34.2171 37.2602 33.635 36.9722 32.835C36.2831 31.7785 35.3607 31.3759 34.2201 30.9463C34.0784 30.8913 33.9366 30.8363 33.7906 30.7797C33.4923 30.6643 33.1936 30.5498 32.8946 30.4361C32.4391 30.263 31.9846 30.0874 31.5303 29.9112C31.2391 29.799 30.9479 29.6869 30.6566 29.5749C30.5218 29.5231 30.387 29.4712 30.2481 29.4177C29.5129 29.1387 28.7808 28.9013 28.0234 28.691C27.7627 28.5721 27.5053 28.4457 27.2527 28.3106C24.7258 26.9756 24.7258 26.9756 22.2578 27.8902ZM19.8204 35.8586C19.6605 36.1322 19.5168 36.4152 19.375 36.6988C19.3221 36.8045 19.2693 36.9102 19.2148 37.0191C19.1283 37.8079 19.1277 38.4396 19.4751 39.1612C20.4024 40.1861 21.4806 40.471 22.7764 40.8522C22.9677 40.9098 23.159 40.9674 23.356 41.0268C23.8641 41.1796 24.3726 41.3309 24.8813 41.4816C25.3894 41.6325 25.897 41.7854 26.4047 41.9379C27.1821 42.1714 27.96 42.4032 28.7384 42.6337C29.3767 42.8227 30.0141 43.0143 30.6502 43.2107C30.7761 43.2491 30.9021 43.2876 31.0318 43.3272C31.3524 43.4251 31.6725 43.5243 31.9926 43.6236C32.7179 43.7954 33.2935 43.7923 33.9492 43.4253C34.4851 43.0209 34.8538 42.6333 35.0703 41.9839C35.1566 41.2416 35.1427 40.69 34.8101 40.012C33.8842 38.9643 32.6936 38.6216 31.4049 38.1652C31.2022 38.0924 30.9995 38.0194 30.7969 37.9463C30.2648 37.7548 29.7322 37.5648 29.1994 37.3752C28.6625 37.1838 28.126 36.991 27.5896 36.7982C26.6229 36.4511 25.6558 36.105 24.6881 35.7608C24.3513 35.6395 24.0153 35.5159 23.6803 35.3899C23.5255 35.3318 23.3708 35.2737 23.2114 35.2139C23.0764 35.1624 22.9414 35.1108 22.8023 35.0577C21.6532 34.6969 20.5558 34.8003 19.8204 35.8586ZM18.8445 43.7757C18.4135 44.494 18.298 45.1913 18.4979 46.0116C19.0881 47.4249 20.675 48.0466 21.9976 48.6304C22.1361 48.6918 22.2746 48.7531 22.4174 48.8163C25.0844 49.9709 28.9186 51.4973 31.8672 50.9527C32.6405 50.5731 33.2624 50.0271 33.5889 49.211C33.6954 48.3058 33.6647 47.689 33.2223 46.8968C32.372 45.9216 31.1342 45.6659 29.9409 45.3059C29.7367 45.2431 29.5325 45.1801 29.3283 45.1171C28.7929 44.952 28.2568 44.7889 27.7207 44.6262C27.1774 44.4608 26.6346 44.2936 26.0919 44.1266C22.3118 42.5879 22.3118 42.5879 18.8445 43.7757ZM19.2148 51.1128C18.7516 51.6236 18.5345 52.0329 18.4941 52.7144C18.5375 53.403 18.7379 53.8041 19.2148 54.316C20.304 55.0221 21.6426 55.2125 22.8984 55.437C23.0619 55.4672 23.2255 55.4973 23.3939 55.5284C24.3165 55.6299 25.2342 55.6267 26.1616 55.6272C26.4453 55.6302 26.4453 55.6302 26.7347 55.6332C28.5365 55.6927 28.5365 55.6927 30.1155 54.9866C30.3014 54.5529 30.3473 54.3025 30.2656 53.8355C29.8856 53.2704 29.4963 53.1355 28.8568 53.0022C28.5392 52.9447 28.2214 52.8889 27.9033 52.8345C26.4605 52.5626 25.0796 52.2058 23.6892 51.7334C23.5304 51.6795 23.3716 51.6256 23.208 51.57C22.5606 51.3452 21.9235 51.113 21.2975 50.8338C20.5088 50.5036 19.9267 50.6841 19.2148 51.1128Z" fill="#2D6B5E"/>
</g>
<defs>
<clipPath id="clip0_1_345">
<rect width="82" height="82" fill="#2D6B5E"/>
</clipPath>
</defs>
</svg>
