<svg width="97" height="97" viewBox="0 0 97 97" fill="none" xmlns="http://www.w3.org/2000/svg">
<circle cx="48.5" cy="48.5" r="48.5" fill="#1B453C"/>
<path d="M46.1659 22.5231C46.2537 22.5905 46.3416 22.658 46.4321 22.7275C47.3794 23.4699 48.1074 24.3574 48.8216 25.3009C48.9094 25.4164 48.9094 25.4164 48.999 25.5343C49.3474 26.0023 49.6346 26.4722 49.8907 26.9938C50.2766 26.5484 50.6112 26.0933 50.934 25.6049C53.5618 21.8247 57.9627 19.3011 62.5714 18.3688C64.8461 17.9454 67.997 17.5758 70.1963 18.433C70.6159 18.7051 70.7861 19.0567 70.9119 19.507C71.464 23.1472 70.4573 26.8185 68.1959 29.7798C66.3863 31.9747 64.3643 33.6092 61.755 34.8833C61.6726 34.9251 61.5903 34.967 61.5054 35.0101C58.3735 36.5945 55.0304 36.8994 51.5462 36.8557C51.5462 38.548 51.5462 40.2403 51.5462 41.9839C52.1836 42.0273 52.8209 42.0707 53.4776 42.1154C53.9723 42.1942 54.4484 42.2778 54.9348 42.3866C55.0626 42.4149 55.1905 42.4432 55.3223 42.4724C60.7474 43.7377 65.7339 47.0331 68.6856 51.5829C69.4063 52.7271 70.024 53.9102 70.5843 55.133C70.8342 55.0774 71.0841 55.0218 71.334 54.966C71.5487 54.9181 71.7634 54.8704 71.9782 54.8229C72.5874 54.6874 73.1894 54.5382 73.7918 54.377C75.248 54.0309 76.7243 54.0867 78.0641 54.7612C78.3387 54.9194 78.6004 55.0872 78.8617 55.2645C79.0409 55.3784 79.0409 55.3784 79.2238 55.4946C80.3772 56.5362 80.9518 57.9004 81 59.3983C80.9465 61.0192 80.4074 62.2497 79.1769 63.3693C78.1401 64.1897 76.929 64.6761 75.7145 65.2086C75.4782 65.3136 75.242 65.4187 75.0058 65.5239C74.4208 65.7841 73.835 66.0427 73.2489 66.3006C72.7927 66.5016 72.337 66.7039 71.8814 66.9062C71.2615 67.1812 70.6412 67.4554 70.0206 67.729C69.0593 68.1533 68.1001 68.5818 67.1412 69.0109C66.5848 69.2598 66.0283 69.5083 65.4718 69.7568C65.0191 69.959 64.5666 70.1614 64.1142 70.3641C60.2461 72.0968 60.2461 72.0968 58.72 72.6215C58.5098 72.6952 58.5098 72.6952 58.2953 72.7704C55.935 73.5335 53.475 73.6023 51.0073 73.5943C50.7117 73.5946 50.416 73.5949 50.1203 73.5954C49.5054 73.596 48.8905 73.5952 48.2756 73.5933C47.4956 73.5911 46.7156 73.5924 45.9356 73.5947C45.3264 73.5962 44.7173 73.5957 44.1082 73.5947C43.821 73.5944 43.5337 73.5947 43.2464 73.5957C40.4741 73.6027 37.8829 73.2074 35.1875 72.6199C34.9564 72.5703 34.7253 72.5207 34.4942 72.4712C33.8962 72.343 33.2984 72.2137 32.7007 72.0841C32.0867 71.9512 31.4724 71.8193 30.8581 71.6874C29.6604 71.43 28.463 71.1714 27.2658 70.9121C27.267 70.9931 27.2683 71.0742 27.2696 71.1577C27.2705 71.2642 27.2715 71.3706 27.2725 71.4803C27.2737 71.5858 27.275 71.6913 27.2763 71.7999C27.2541 72.4252 26.958 72.9154 26.576 73.4104C25.8385 74.0283 25.1489 74.3437 24.1676 74.352C24.0469 74.3533 23.9262 74.3546 23.8018 74.3559C23.6724 74.3564 23.5429 74.357 23.4095 74.3576C23.2751 74.3583 23.1407 74.3591 23.0022 74.3598C22.7179 74.3611 22.4335 74.3619 22.1492 74.3624C21.7165 74.3637 21.284 74.3678 20.8513 74.3719C20.5745 74.3728 20.2977 74.3735 20.0209 74.374C19.8284 74.3764 19.8284 74.3764 19.6319 74.3789C18.6635 74.3758 17.9467 74.2001 17.1001 73.7309C16.0448 72.6707 15.9914 71.5027 16.0042 70.104C16.0035 69.906 16.0025 69.7081 16.0012 69.5101C15.9987 68.9759 16.0005 68.4419 16.0032 67.9078C16.0054 67.3471 16.0042 66.7863 16.0035 66.2256C16.0029 65.2845 16.0051 64.3435 16.0089 63.4025C16.0134 62.3163 16.0134 61.2301 16.011 60.1439C16.0088 59.0963 16.0097 58.0486 16.0121 57.001C16.013 56.5563 16.0129 56.1116 16.0119 55.667C16.0108 55.143 16.0125 54.6192 16.0163 54.0953C16.0172 53.9036 16.0172 53.7119 16.0162 53.5203C16.0104 52.2477 16.0891 51.4191 16.9708 50.424C17.6769 49.8632 18.3893 49.5973 19.3 49.5892C19.4147 49.5879 19.5294 49.5867 19.6476 49.5854C19.7706 49.5848 19.8936 49.5843 20.0204 49.5837C20.1483 49.5829 20.2763 49.5822 20.4081 49.5814C20.6788 49.5802 20.9496 49.5793 21.2204 49.5788C21.6315 49.5775 22.0426 49.5735 22.4537 49.5693C22.7175 49.5684 22.9813 49.5677 23.2451 49.5672C23.3667 49.5656 23.4883 49.564 23.6136 49.5623C24.5462 49.5655 25.4216 49.7016 26.2042 50.2124C27.0041 51.0241 27.29 51.6262 27.2658 52.7662C27.3855 52.7264 27.5053 52.6865 27.6287 52.6455C28.0723 52.4981 28.5161 52.3511 28.9599 52.2044C29.1522 52.1408 29.3443 52.077 29.5364 52.0131C29.8123 51.9213 30.0883 51.8301 30.3644 51.7389C30.5306 51.6838 30.6968 51.6287 30.868 51.572C31.2665 51.4513 31.2665 51.4513 31.5425 51.4513C31.5764 51.3569 31.6104 51.2625 31.6454 51.1652C33.3703 47.4622 38.3046 44.6441 42.0732 43.2222C44.1975 42.4598 46.2428 42.1383 48.5112 41.9839C48.5112 40.2916 48.5112 38.5993 48.5112 36.8557C47.8453 36.8679 47.8453 36.8679 47.1661 36.8803C43.0582 36.9005 39 35.7869 35.6812 33.4369C35.5693 33.3594 35.4574 33.282 35.3422 33.2022C32.0571 30.8196 29.6594 27.4956 29.0623 23.5543C28.8628 22.0928 28.7624 20.5364 29.1972 19.1043C29.915 18.2876 30.7 18.1875 31.7571 18.0805C37.0863 17.6361 42.0888 19.287 46.1659 22.5231ZM32.0943 21.0767C31.9339 24.0317 32.9562 26.5914 34.9914 28.8347C35.9493 29.8419 36.9416 30.7531 38.1644 31.4645C38.3807 31.5937 38.3807 31.5937 38.6014 31.7255C41.306 33.2973 44.9236 34.3765 48.1118 33.8987C48.2412 33.8654 48.2412 33.8654 48.3732 33.8314C48.52 30.8738 47.5029 28.1847 45.3993 25.9798C44.4542 25.0167 43.4923 24.1294 42.3031 23.4435C42.159 23.3576 42.015 23.2717 41.8666 23.1831C39.0224 21.5288 35.4232 20.5914 32.0943 21.0767ZM55.6849 24.8899C55.5672 24.9913 55.4495 25.0927 55.3282 25.1971C53.2724 27.06 51.6256 29.7705 51.5133 32.5324C51.512 32.967 51.5206 33.3975 51.5462 33.8314C54.8262 34.5146 58.8474 33.257 61.6171 31.596C64.5776 29.6614 67.0372 27.0821 67.744 23.6382C67.9055 22.7807 68.013 21.9493 67.9631 21.0767C63.5699 20.5204 58.9462 22.082 55.6849 24.8899ZM36.9228 49.7419C36.9228 49.7853 36.9228 49.8287 36.9228 49.8734C37.0785 49.8717 37.2341 49.8701 37.3945 49.8684C41.5599 49.8244 45.7254 49.7844 49.8909 49.749C50.4094 49.7446 50.9279 49.74 51.4464 49.7353C52.5937 49.7249 53.741 49.716 54.8884 49.7114C55.2041 49.7098 55.5199 49.7076 55.8357 49.7046C56.2631 49.7008 56.6904 49.6994 57.1178 49.6987C57.296 49.6963 57.296 49.6963 57.4778 49.6938C58.4697 49.6973 59.3043 49.9032 60.1426 50.4158C60.8252 51.1118 61.0955 51.7889 61.1256 52.7415C61.0402 54.8127 60.1291 56.485 58.72 58.0259C60.1758 58.4884 62.6556 57.4546 64.0935 57.0806C64.5116 56.9724 64.9303 56.8668 65.3492 56.7613C65.6153 56.6926 65.8815 56.6238 66.1475 56.5548C66.2727 56.5236 66.3978 56.4923 66.5268 56.4601C66.6411 56.4298 66.7555 56.3996 66.8734 56.3684C66.9743 56.3424 67.0751 56.3164 67.1791 56.2897C67.2557 56.2551 67.3323 56.2206 67.4113 56.185C67.5864 55.8161 67.5864 55.8161 67.4645 55.5498C67.3925 55.416 67.3925 55.416 67.3191 55.2794C67.265 55.1788 67.211 55.0782 67.1552 54.9745C67.0643 54.813 67.0643 54.813 66.9715 54.6482C66.9087 54.5364 66.8458 54.4246 66.781 54.3095C65.224 51.6131 62.9698 49.2846 60.2375 47.638C60.0899 47.547 59.9423 47.456 59.7902 47.3622C52.8113 43.3006 42.7574 44.0944 36.9228 49.7419ZM19.1263 52.6347C19.1263 58.8398 19.1263 65.0449 19.1263 71.438C20.7653 71.438 22.4042 71.438 24.0928 71.438C24.2671 71.3012 24.2671 71.3012 24.2477 70.9987C24.2476 70.8612 24.2475 70.7236 24.2473 70.5819C24.2475 70.4246 24.2477 70.2673 24.2479 70.1052C24.2474 69.9294 24.2469 69.7535 24.2464 69.5776C24.2464 69.3936 24.2464 69.2096 24.2465 69.0257C24.2465 68.5247 24.2457 68.0238 24.2447 67.5228C24.2439 66.9998 24.2438 66.4769 24.2436 65.9539C24.2432 64.9629 24.2421 63.9719 24.2407 62.981C24.2391 61.853 24.2384 60.7251 24.2377 59.5972C24.2362 57.2764 24.2337 54.9555 24.2307 52.6347C22.5463 52.6347 20.8618 52.6347 19.1263 52.6347ZM35.6812 53.1607C35.5902 53.1851 35.4993 53.2096 35.4056 53.2348C34.8104 53.3993 34.2256 53.5875 33.6409 53.7827C33.4631 53.8407 33.2852 53.8986 33.1073 53.9564C32.6492 54.1055 32.1918 54.2566 31.7346 54.4082C31.2651 54.5634 30.7948 54.7165 30.3246 54.8698C29.6415 55.093 28.9586 55.3169 28.2764 55.5425C28.1408 55.5874 28.0051 55.6322 27.8653 55.6784C27.5447 55.7828 27.5447 55.7828 27.2658 55.922C27.2658 59.8707 27.2658 63.8194 27.2658 67.8877C29.1779 68.2945 31.09 68.7014 33.06 69.1205C33.6593 69.2485 34.2586 69.3766 34.8761 69.5085C35.4226 69.6242 35.4226 69.6242 35.9693 69.7398C36.2091 69.7906 36.4488 69.8417 36.6884 69.8932C39.1766 70.4274 41.5458 70.6902 44.096 70.684C44.3563 70.6842 44.6166 70.6844 44.877 70.6848C45.419 70.6852 45.961 70.6846 46.503 70.6834C47.1909 70.6819 47.8788 70.6827 48.5667 70.6843C49.1032 70.6853 49.6398 70.6849 50.1763 70.6843C50.4297 70.6841 50.683 70.6843 50.9364 70.6849C52.996 70.6889 55.0722 70.6488 57.0516 70.0455C57.1659 70.0117 57.2803 69.9778 57.3982 69.9429C58.6496 69.5571 59.819 69.0248 60.9963 68.4712C61.2253 68.3654 61.4544 68.2598 61.6836 68.1545C62.14 67.9446 62.5959 67.7339 63.0516 67.5227C63.925 67.1191 64.8053 66.7301 65.6868 66.3427C65.9968 66.206 66.3069 66.0692 66.6169 65.9323C66.7695 65.8651 66.922 65.7978 67.0792 65.7285C68.3398 65.1718 69.5985 64.6114 70.8569 64.0502C71.45 63.7858 72.0436 63.5222 72.6373 63.259C73.0671 63.0683 73.4967 62.877 73.9262 62.6856C74.1334 62.5934 74.3407 62.5014 74.5482 62.4096C74.8381 62.2814 75.1276 62.1523 75.4171 62.023C75.5022 61.9855 75.5874 61.9481 75.6752 61.9095C76.572 61.5069 77.2979 61.1221 77.758 60.2612C77.9812 59.4627 77.9232 58.8861 77.4821 58.1574C77.0046 57.6011 76.5498 57.3122 75.8266 57.1054C74.7178 57.1591 73.6824 57.4473 72.6175 57.7305C72.4251 57.781 72.2326 57.8313 72.0402 57.8816C71.5333 58.0142 71.0267 58.1479 70.5202 58.2818C70.0201 58.4139 69.5199 58.5451 69.0196 58.6764C68.9215 58.7021 68.8234 58.7279 68.7223 58.7544C68.4256 58.8323 68.1289 58.9101 67.8321 58.9879C67.7342 59.0136 67.6363 59.0393 67.5355 59.0657C66.8504 59.2454 66.1651 59.4247 65.4799 59.6038C65.3833 59.629 65.2867 59.6543 65.1872 59.6803C64.6197 59.8287 64.0519 59.9761 63.4838 60.1223C63.2282 60.1883 62.9728 60.255 62.7174 60.3217C59.8202 61.0638 56.9616 61.0714 53.9825 61.0723C53.6325 61.0727 53.2824 61.0731 52.9323 61.0736C52.2024 61.0744 51.4725 61.0746 50.7425 61.0745C49.9014 61.0745 49.0603 61.0759 48.2192 61.0779C47.4049 61.0799 46.5906 61.0803 45.7763 61.0802C45.4318 61.0804 45.0873 61.081 44.7428 61.082C44.2619 61.0833 43.781 61.0829 43.3001 61.0821C43.159 61.0829 43.0178 61.0836 42.8724 61.0844C42.0846 61.0811 41.3983 61.0238 40.6476 60.7872C40.2976 60.3006 40.3178 59.7852 40.3717 59.2093C40.5394 58.8497 40.6688 58.6287 41.0094 58.4045C41.4739 58.2407 41.9236 58.2527 42.4122 58.2553C42.5739 58.2546 42.5739 58.2546 42.7388 58.2538C42.9726 58.2529 43.2064 58.2526 43.4402 58.2528C43.8116 58.2529 44.1829 58.2512 44.5543 58.249C45.6102 58.2429 46.6661 58.2396 47.7221 58.2388C48.3686 58.2381 49.015 58.2349 49.6615 58.2302C49.9065 58.2289 50.1516 58.2286 50.3967 58.2293C52.7019 58.2356 54.6178 57.8485 56.3402 56.2754C57.3605 55.2445 58.1681 54.1151 58.1681 52.6347C55.6436 52.6224 53.1191 52.6131 50.5945 52.6075C49.422 52.6048 48.2496 52.6011 47.0771 52.595C46.0538 52.5897 45.0306 52.5864 44.0073 52.5852C43.4667 52.5845 42.9261 52.583 42.3855 52.5791C40.1068 52.5634 37.8913 52.5605 35.6812 53.1607Z" fill="white"/>
</svg>
