<svg width="97" height="97" viewBox="0 0 97 97" fill="none" xmlns="http://www.w3.org/2000/svg">
<circle cx="48.5" cy="48.5" r="48.5" fill="#1B453C"/>
<path d="M35.9159 19.3054C36.0325 19.3795 36.0325 19.3795 36.1513 19.4552C36.2698 19.5254 36.2698 19.5254 36.3906 19.5971C37.2834 20.1745 37.7082 20.9636 38.0227 21.9611C38.0227 22.0851 38.0227 22.2091 38.0227 22.3369C38.1462 22.2749 38.2697 22.2129 38.397 22.149C39.3983 21.775 40.7124 21.7977 41.7108 22.1647C42.7772 22.6786 43.4505 23.4582 43.8985 24.5501C44.0421 25.0834 44.068 25.5927 44.089 26.1427C44.0938 26.2469 44.0987 26.3511 44.1036 26.4584C44.1153 26.7134 44.1257 26.9684 44.1358 27.2234C44.2313 27.1507 44.2313 27.1507 44.3288 27.0766C45.7106 26.0825 47.0512 25.8873 48.7053 25.9051C49.001 25.9078 49.2963 25.9051 49.592 25.9019C51.2364 25.8988 52.5318 26.2076 53.8669 27.2234C53.8701 27.0751 53.8733 26.9269 53.8766 26.7741C53.9215 25.3496 54.0127 24.1204 55.0267 23.03C55.8893 22.2511 56.8087 21.9131 57.9682 21.9219C58.0561 21.9221 58.1439 21.9222 58.2343 21.9224C58.898 21.9347 59.3902 22.0408 59.98 22.3369C60.0031 22.1767 60.0263 22.0165 60.0501 21.8514C60.3018 20.7367 60.9921 19.9488 61.9376 19.3495C62.981 18.8246 64.2156 18.7814 65.347 19.0401C66.3391 19.4075 67.0557 20.0249 67.5901 20.9377C67.7964 21.3867 67.8893 21.8503 67.9644 22.3369C68.1497 22.2439 68.1497 22.2439 68.3387 22.149C69.34 21.775 70.6542 21.7977 71.6525 22.1647C72.7114 22.6749 73.3855 23.4481 73.8337 24.5316C73.9879 25.0968 73.9912 25.6202 73.9925 26.2036C73.9938 26.3259 73.995 26.4482 73.9963 26.5743C74.0002 26.9769 74.0023 27.3796 74.0044 27.7823C74.0068 28.0622 74.0092 28.342 74.0117 28.6218C74.0181 29.3572 74.0231 30.0925 74.0277 30.8279C74.0327 31.5787 74.0391 32.3296 74.0454 33.0804C74.0574 34.5527 74.068 36.0251 74.0775 37.4975C74.2027 37.4444 74.2027 37.4444 74.3304 37.3902C74.4411 37.3443 74.5517 37.2984 74.6657 37.2511C74.7749 37.2053 74.8841 37.1596 74.9966 37.1124C75.4846 36.9399 75.9349 36.9205 76.4479 36.9337C76.5454 36.9355 76.643 36.9372 76.7435 36.9391C78.0459 36.9868 78.8505 37.4246 79.7915 38.328C80.8073 39.4279 80.9765 40.4809 80.9754 41.945C80.9767 42.1814 80.9767 42.1814 80.978 42.4226C80.9802 42.854 80.9807 43.2853 80.9809 43.7167C80.9811 43.9874 80.9816 44.258 80.9823 44.5287C80.9846 45.4762 80.9856 46.4238 80.9854 47.3713C80.9853 48.2487 80.9879 49.1261 80.9918 50.0034C80.9951 50.7607 80.9964 51.5179 80.9963 52.2751C80.9962 52.7256 80.9969 53.176 80.9995 53.6264C81.0246 58.16 80.0013 62.0607 76.7867 65.3792C76.278 65.8914 75.75 66.38 75.2023 66.8495C74.9132 67.0993 74.6322 67.357 74.3504 67.615C73.7864 68.127 73.2037 68.6117 72.6116 69.0906C72.3283 69.3166 72.3283 69.3166 72.0814 69.5727C72.0433 69.9598 72.0433 69.9598 72.0495 70.4213C72.0491 70.5085 72.0486 70.5958 72.0482 70.6856C72.0473 70.8753 72.047 71.0649 72.0472 71.2546C72.0473 71.5547 72.0457 71.8549 72.0436 72.155C72.0378 73.0085 72.0347 73.862 72.0339 74.7156C72.0333 75.2374 72.0302 75.7593 72.0257 76.2811C72.0245 76.48 72.0242 76.6789 72.0249 76.8779C72.0258 77.1562 72.0236 77.4345 72.0208 77.7128C72.0204 77.8712 72.0201 78.0296 72.0197 78.1928C71.9458 78.6631 71.8299 78.8103 71.4576 79.095C71.2081 79.1616 71.2081 79.1616 70.9586 79.1577C70.8351 79.1596 70.8351 79.1596 70.7091 79.1616C70.3348 79.0618 70.1981 78.9001 69.9605 78.5939C69.9106 78.2546 69.8909 77.9659 69.894 77.6268C69.8929 77.53 69.8918 77.4331 69.8907 77.3334C69.8879 77.0136 69.8887 76.694 69.8899 76.3743C69.8892 76.1518 69.8884 75.9293 69.8875 75.7068C69.8862 75.2405 69.8868 74.7743 69.8886 74.308C69.8908 73.7108 69.8878 73.1137 69.8834 72.5166C69.8807 72.057 69.8809 71.5976 69.8819 71.138C69.882 70.9179 69.8812 70.6977 69.8793 70.4776C69.8771 70.1695 69.879 69.8617 69.8818 69.5537C69.8803 69.463 69.8789 69.3723 69.8774 69.2788C69.8866 68.7879 69.944 68.5901 70.2638 68.2096C70.3696 68.1219 70.4753 68.0342 70.5843 67.9439C70.6917 67.8339 70.6917 67.8339 70.8012 67.7217C71.2454 67.2678 71.7054 66.8414 72.1852 66.4257C72.4867 66.1627 72.7832 65.8948 73.0795 65.626C74.5178 64.3235 74.5178 64.3235 75.0005 63.9595C77.2598 62.0414 78.5002 58.8962 78.76 56.0047C78.8594 54.6572 78.8388 53.3051 78.8392 51.9547C78.8396 51.6561 78.8401 51.3574 78.8405 51.0588C78.8413 50.4357 78.8415 49.8125 78.8414 49.1894C78.8414 48.3922 78.8431 47.595 78.8452 46.7978C78.8466 46.1822 78.8469 45.5666 78.8468 44.951C78.847 44.6571 78.8475 44.3631 78.8485 44.0691C78.8497 43.6584 78.8493 43.2477 78.8486 42.837C78.8493 42.7166 78.85 42.5963 78.8507 42.4723C78.846 41.4576 78.7444 40.5585 78.0697 39.7528C77.4265 39.2414 76.8816 39.1651 76.0663 39.1958C75.4095 39.2957 74.9481 39.5674 74.5341 40.0885C74.0786 40.8212 74.0621 41.5716 74.0598 42.4124C74.0594 42.4997 74.059 42.587 74.0585 42.6769C74.0576 42.8652 74.0569 43.0535 74.0565 43.2417C74.0556 43.5398 74.0536 43.8379 74.0513 44.136C74.0448 44.9831 74.0388 45.8302 74.0369 46.6773C74.0356 47.1965 74.0319 47.7156 74.0267 48.2348C74.0252 48.4323 74.0245 48.6298 74.0248 48.8274C74.0251 49.1033 74.0223 49.3791 74.0189 49.655C74.0182 49.8118 74.0174 49.9687 74.0167 50.1304C73.9414 50.5988 73.8257 50.7461 73.4537 51.0292C73.1523 51.1107 73.1523 51.1107 72.8148 51.1384C72.689 51.1505 72.5632 51.1626 72.4336 51.1751C72.2993 51.1864 72.1651 51.1977 72.0268 51.2093C70.433 51.3698 68.8638 51.6469 67.3406 52.1569C66.808 52.217 66.3683 52.2453 65.8981 51.9689C65.653 51.5408 65.5914 51.135 65.7188 50.6533C66.688 49.3839 69.3208 49.2988 70.7808 49.0606C71.0925 49.0234 71.3936 49.0182 71.7071 49.0245C71.2651 47.6039 70.5991 46.4322 69.2549 45.7155C68.4489 45.3502 67.698 45.1759 66.8182 45.0969C66.3769 44.994 66.2303 44.8846 65.9683 44.5139C65.8914 44.1934 65.8378 43.8988 65.7968 43.5742C65.5844 42.2323 65.0987 40.9565 63.9722 40.1287C63.0781 39.5484 62.201 39.2736 61.1567 39.1404C60.7737 39.0862 60.5035 39.0177 60.1817 38.7984C59.9151 38.4039 59.8669 38.0222 59.8084 37.5601C59.596 36.2182 59.1103 34.9424 57.9838 34.1146C57.0898 33.5343 56.2127 33.2595 55.1683 33.1263C54.7836 33.0719 54.5153 33.004 54.1934 32.7813C53.9265 32.3903 53.8861 32.0611 53.8201 31.593C53.6333 30.4908 53.266 29.6351 52.3854 28.9227C50.9046 27.92 48.9869 27.9356 47.2703 28.1788C46.2224 28.4067 45.3795 28.9522 44.7815 29.8472C44.3578 30.5923 44.2061 31.3228 44.1012 32.1705C43.9836 32.5816 43.856 32.7341 43.512 32.9869C43.1929 33.0641 42.8995 33.118 42.5763 33.1592C41.2401 33.3725 39.9698 33.8603 39.1455 34.9916C38.5677 35.8895 38.2941 36.7704 38.1615 37.8193C38.1075 38.2038 38.0393 38.4752 37.8209 38.7984C37.4281 39.0662 37.048 39.1146 36.588 39.1733C35.2518 39.3866 33.9814 39.8744 33.1572 41.0057C32.5794 41.9036 32.3058 42.7845 32.1731 43.8334C32.1193 44.2172 32.0511 44.4891 31.8336 44.812C31.4367 45.0823 31.0488 45.134 30.584 45.1952C29.1556 45.4266 27.9447 45.9921 27.0743 47.1985C26.7043 47.7899 26.4432 48.3421 26.2955 49.0245C26.3912 49.0278 26.4869 49.031 26.5855 49.0343C30.138 49.2166 33.8567 50.2499 36.6504 52.5327C36.7565 52.6174 36.8626 52.702 36.972 52.7892C38.9286 54.4408 39.7404 56.5857 40.1436 59.048C40.3615 60.2539 40.7177 61.3548 41.6772 62.174C43.0545 63.0822 44.7 62.9698 46.2844 62.9654C46.5033 62.9656 46.7221 62.9658 46.9409 62.9661C47.3973 62.9665 47.8538 62.966 48.3102 62.9648C48.8922 62.9634 49.4743 62.9642 50.0563 62.9657C50.5075 62.9666 50.9586 62.9663 51.4098 62.9657C51.6243 62.9655 51.8388 62.9657 52.0533 62.9663C54.5426 62.9745 54.5426 62.9745 56.6042 61.6958C57.3045 60.8908 57.5699 59.9291 57.8591 58.9227C58.6428 56.2062 59.9386 53.5198 62.4751 52.0316C62.9313 51.928 63.3454 51.9757 63.7773 52.1647C64.0711 52.5306 64.089 52.8203 64.0969 53.2845C63.849 53.8083 63.5327 54.0905 63.0755 54.4356C61.3833 55.7997 60.2593 57.7936 59.9955 59.9642C59.7246 61.7778 58.8186 63.0907 57.3601 64.1851C56.2599 64.8517 55.2785 65.1015 54.0077 65.0866C53.8351 65.0861 53.8351 65.0861 53.659 65.0855C53.2942 65.0841 52.9295 65.081 52.5647 65.0778C52.3162 65.0765 52.0678 65.0754 51.8193 65.0744C51.2127 65.0716 50.606 65.0673 49.9994 65.0621C49.9998 65.1314 50.0003 65.2007 50.0008 65.2721C50.0118 66.9577 50.02 68.6434 50.0252 70.3291C50.0278 71.1443 50.0314 71.9595 50.037 72.7747C50.0424 73.5611 50.0454 74.3474 50.0467 75.1339C50.0476 75.4342 50.0494 75.7345 50.0521 76.0349C50.0558 76.4549 50.0563 76.8748 50.056 77.2948C50.0578 77.4195 50.0596 77.5443 50.0615 77.6728C50.0564 78.5152 50.0564 78.5152 49.7619 78.9215C49.48 79.1086 49.3364 79.163 49.0013 79.1577C48.8778 79.1596 48.8778 79.1596 48.7518 79.1616C48.363 79.0579 48.2423 78.9236 48.0033 78.5939C47.9289 78.1614 47.9403 77.7326 47.9466 77.2948C47.9465 77.1628 47.9465 77.0307 47.9464 76.8946C47.9467 76.458 47.9506 76.0215 47.9545 75.5849C47.9555 75.2822 47.9562 74.9795 47.9567 74.6769C47.9586 73.8801 47.9635 73.0834 47.969 72.2867C47.9741 71.4737 47.9764 70.6607 47.9789 69.8478C47.9842 68.2525 47.9927 66.6573 48.0033 65.0621C47.8524 65.0648 47.7015 65.0674 47.546 65.0701C46.9796 65.0792 46.4133 65.0849 45.8468 65.0897C45.6029 65.0922 45.359 65.0956 45.1151 65.0999C42.8645 65.1392 41.2548 64.8564 39.551 63.2689C38.5102 62.1645 38.105 60.9113 37.896 59.4403C37.5988 57.3596 36.8712 55.659 35.2278 54.2746C32.5905 52.3349 29.3731 51.5146 26.1634 51.2191C26.0613 51.2094 25.9592 51.1996 25.854 51.1896C25.6597 51.1719 25.4653 51.1563 25.2706 51.1432C24.8738 51.1081 24.5995 51.0665 24.2749 50.8273C23.971 50.4231 23.9869 50.1628 23.9857 49.6589C23.9848 49.5725 23.984 49.486 23.983 49.397C23.9806 49.1116 23.9817 48.8263 23.9826 48.541C23.9814 48.3418 23.9799 48.1427 23.9782 47.9436C23.9741 47.4191 23.9728 46.8947 23.9723 46.3702C23.9712 45.5326 23.9668 44.695 23.9608 43.8575C23.9593 43.566 23.9593 43.2745 23.9596 42.983C23.9675 41.2502 23.9675 41.2502 23.1766 39.7528C22.5333 39.2414 21.9884 39.1651 21.1732 39.1958C20.5163 39.2957 20.0549 39.5674 19.641 40.0885C19.1181 40.9295 19.1658 41.8423 19.1662 42.7966C19.1658 42.9249 19.1654 43.0532 19.165 43.1853C19.1638 43.6091 19.1635 44.0329 19.1634 44.4567C19.163 44.7533 19.1626 45.0499 19.1621 45.3465C19.1614 45.9691 19.1612 46.5916 19.1612 47.2142C19.1612 48.0058 19.1595 48.7975 19.1574 49.5891C19.156 50.2026 19.1558 50.8161 19.1558 51.4296C19.1557 51.721 19.1551 52.0125 19.1542 52.3039C19.1422 56.2618 19.5581 59.7376 22.0538 62.9321C22.1234 63.0223 22.193 63.1124 22.2648 63.2052C22.6407 63.6681 23.0649 64.0555 23.5172 64.442C23.8463 64.7259 24.1663 65.0187 24.4865 65.3127C24.9585 65.745 25.4346 66.1714 25.9164 66.5926C26.2186 66.8584 26.5186 67.1266 26.8179 67.3957C26.9175 67.4852 27.017 67.5747 27.1196 67.6669C27.2182 67.7583 27.3168 67.8497 27.4183 67.9439C27.5258 68.0327 27.6332 68.1215 27.744 68.213C28.1173 68.6605 28.1298 68.9951 28.1208 69.5537C28.1217 69.6507 28.1226 69.7478 28.1235 69.8478C28.1257 70.1674 28.1232 70.4869 28.1206 70.8066C28.1207 71.0292 28.121 71.2518 28.1215 71.4745C28.1218 71.9405 28.12 72.4065 28.1166 72.8726C28.1123 73.4699 28.1131 74.0671 28.1154 74.6645C28.1167 75.124 28.1156 75.5835 28.1137 76.043C28.1131 76.2632 28.1132 76.4835 28.1139 76.7037C28.1146 77.0115 28.1121 77.319 28.1087 77.6268C28.1095 77.7177 28.1103 77.8087 28.1111 77.9024C28.103 78.3332 28.0712 78.5564 27.804 78.9007C27.5208 79.1116 27.3921 79.1632 27.0441 79.1577C26.9205 79.1596 26.9205 79.1596 26.7945 79.1616C26.4239 79.0627 26.2829 78.8945 26.046 78.5939C25.9913 78.2004 25.9913 78.2004 26.0016 77.7307C26.0028 77.6449 26.0039 77.559 26.005 77.4706C26.0076 77.2845 26.0113 77.0984 26.0159 76.9123C26.0227 76.6166 26.0255 76.3211 26.0271 76.0253C26.032 75.1845 26.0407 74.344 26.0601 73.5034C26.0716 72.9885 26.0758 72.474 26.0753 71.9589C26.0765 71.7639 26.0805 71.5688 26.0874 71.3738C26.1365 70.1819 26.1365 70.1819 25.6002 69.1551C25.2351 68.7949 24.8388 68.4951 24.4242 68.1945C24.2077 68.0205 23.9918 67.8458 23.777 67.6698C23.6663 67.5802 23.5557 67.4905 23.4417 67.3982C20.0784 64.592 17.7203 61.33 17.0635 56.918C17.0521 56.6816 17.0462 56.4449 17.0451 56.2082C17.0442 56.0698 17.0433 55.9314 17.0424 55.7888C17.0421 55.6389 17.0417 55.4889 17.0414 55.3344C17.0406 55.175 17.0398 55.0155 17.0389 54.8513C17.0363 54.3245 17.035 53.7976 17.0337 53.2708C17.0332 53.0888 17.0327 52.9067 17.0322 52.7247C17.0298 51.8693 17.0281 51.014 17.027 50.1586C17.0258 49.174 17.0225 48.1895 17.0175 47.2049C17.0137 46.442 17.0119 45.679 17.0114 44.916C17.0112 44.4612 17.0101 44.0065 17.0069 43.5517C17.0034 43.0437 17.004 42.5358 17.0048 42.0278C17.0032 41.8788 17.0016 41.7298 17 41.5764C17.0089 40.1415 17.4041 39.1841 18.3895 38.1489C19.32 37.2822 20.2661 36.9515 21.5235 36.9493C21.6168 36.9463 21.7101 36.9432 21.8062 36.94C22.3748 36.9371 22.8117 37.0291 23.338 37.2505C23.4485 37.2965 23.559 37.3425 23.6728 37.3899C23.7561 37.4254 23.8393 37.4609 23.9251 37.4975C23.9256 37.3433 23.926 37.1891 23.9265 37.0303C23.9311 35.574 23.9383 34.1178 23.9481 32.6615C23.953 31.9129 23.957 31.1644 23.9589 30.4158C23.9608 29.6927 23.9651 28.9697 23.9711 28.2467C23.9729 27.9714 23.9739 27.6962 23.974 27.421C23.9743 27.0341 23.9777 26.6474 23.9818 26.2605C23.9808 26.0915 23.9808 26.0915 23.9799 25.9191C23.9976 24.8228 24.3321 23.8396 25.085 23.03C25.9476 22.2511 26.867 21.9131 28.0265 21.9219C28.1143 21.9221 28.2021 21.9222 28.2926 21.9224C28.9563 21.9347 29.4485 22.0408 30.0382 22.3369C30.073 22.0966 30.073 22.0966 30.1084 21.8514C30.3601 20.7367 31.0503 19.9488 31.9958 19.3495C33.15 18.7689 34.7601 18.673 35.9159 19.3054ZM32.6581 21.5852C32.1299 22.2591 32.0185 22.8023 32.0193 23.6428C32.0192 23.7776 32.019 23.9123 32.0188 24.0512C32.0193 24.1977 32.0197 24.3442 32.0202 24.4952C32.0202 24.6505 32.0201 24.8058 32.0201 24.9658C32.0202 25.3906 32.0208 25.8153 32.0217 26.2401C32.0225 26.6844 32.0225 27.1287 32.0227 27.573C32.0231 28.4139 32.0241 29.2547 32.0254 30.0956C32.0268 31.0531 32.0274 32.0106 32.0281 32.9681C32.0294 34.9373 32.0316 36.9065 32.0343 38.8757C32.1509 38.7976 32.2674 38.7195 32.3874 38.6391C32.7454 38.3996 33.1032 38.1631 33.469 37.936C33.581 37.865 33.6929 37.7939 33.8082 37.7207C34.2444 37.4848 34.7071 37.3663 35.1828 37.233C35.3406 37.1884 35.4985 37.1439 35.6611 37.0981C35.842 37.0477 35.842 37.0477 36.0266 36.9963C36.0353 35.1861 36.0419 33.3759 36.046 31.5657C36.0479 30.7251 36.0505 29.8846 36.0548 29.044C36.0589 28.2324 36.0611 27.4208 36.0621 26.6092C36.0628 26.3 36.0641 25.9907 36.0661 25.6815C36.0689 25.2475 36.0692 24.8136 36.0691 24.3796C36.0704 24.2524 36.0718 24.1253 36.0731 23.9943C36.0696 23.1831 36.0367 22.2675 35.4711 21.6323C34.879 21.1241 34.48 21.0394 33.7234 21.0492C33.2539 21.1008 33.0052 21.2698 32.6581 21.5852ZM62.5999 21.5852C62.0923 22.2326 61.9602 22.7621 61.9611 23.5715C61.9609 23.6904 61.9607 23.8094 61.9605 23.9319C61.961 24.0609 61.9614 24.1898 61.9619 24.3227C61.9619 24.4597 61.9619 24.5966 61.9619 24.7377C61.9619 25.1899 61.9629 25.6421 61.9639 26.0943C61.9641 26.408 61.9643 26.7217 61.9644 27.0355C61.9648 27.7765 61.9658 28.5175 61.9671 29.2585C61.9686 30.1852 61.9693 31.1119 61.97 32.0386C61.9713 33.6912 61.9734 35.3438 61.9761 36.9963C62.112 37.0371 62.248 37.0779 62.3881 37.1199C62.5688 37.1751 62.7495 37.2303 62.9303 37.2856C63.0196 37.3122 63.1089 37.3389 63.201 37.3664C63.9488 37.5966 64.576 37.9279 65.2198 38.3745C65.4692 38.5418 65.7187 38.7089 65.9683 38.8757C65.9771 36.8205 65.9837 34.7653 65.9877 32.71C65.9896 31.7557 65.9922 30.8013 65.9965 29.8469C66.0003 29.0148 66.0027 28.1826 66.0035 27.3504C66.004 26.9101 66.0051 26.4698 66.0079 26.0295C66.0109 25.5371 66.011 25.0446 66.0108 24.5521C66.0121 24.4074 66.0135 24.2626 66.0149 24.1135C66.0106 22.7826 66.0106 22.7826 65.4129 21.633C64.8217 21.1236 64.4216 21.0394 63.6652 21.0492C63.1956 21.1008 62.9469 21.2698 62.5999 21.5852ZM26.6698 24.5922C26.1086 25.3082 26.0303 25.8773 26.031 26.7688C26.0308 26.9299 26.0306 27.091 26.0305 27.257C26.0309 27.4346 26.0314 27.6122 26.0318 27.7898C26.0319 27.9775 26.0318 28.1653 26.0318 28.353C26.0317 28.8619 26.0325 29.3708 26.0333 29.8796C26.0341 30.4117 26.0342 30.9438 26.0343 31.4759C26.0347 32.4832 26.0358 33.4905 26.037 34.4977C26.0384 35.6446 26.0391 36.7915 26.0397 37.9384C26.041 40.2973 26.0432 42.6562 26.046 45.0151C26.113 44.9638 26.18 44.9124 26.249 44.8595C26.3377 44.792 26.4264 44.7245 26.5178 44.655C26.6054 44.5881 26.6929 44.5213 26.7832 44.4524C27.1423 44.1921 27.5044 43.999 27.9018 43.8013C28.0404 43.7311 28.179 43.6608 28.3218 43.5884C28.6875 43.419 29.0575 43.2996 29.4437 43.1857C29.5553 43.1527 29.6669 43.1196 29.7818 43.0855C29.8664 43.0607 29.951 43.036 30.0382 43.0104C30.047 40.8082 30.0536 38.6059 30.0576 36.4036C30.0595 35.381 30.0622 34.3584 30.0665 33.3358C30.0702 32.4441 30.0726 31.5525 30.0734 30.6609C30.0739 30.189 30.0751 29.7172 30.0778 29.2454C30.0804 28.8006 30.0811 28.3559 30.0806 27.9111C30.0807 27.6714 30.0827 27.4318 30.0848 27.1921C30.0897 25.824 30.0897 25.824 29.4828 24.6404C28.8921 24.1303 28.4913 24.0464 27.7351 24.0563C27.2655 24.1078 27.0169 24.2768 26.6698 24.5922ZM38.6465 24.5922C38.1112 25.275 38.0066 25.8229 38.0085 26.6742C38.0085 26.8121 38.0085 26.95 38.0086 27.0921C38.0092 27.2396 38.0098 27.3871 38.0105 27.5391C38.0107 27.6911 38.0109 27.8432 38.011 27.9999C38.0117 28.485 38.0133 28.9701 38.0149 29.4552C38.0155 29.7843 38.0161 30.1135 38.0166 30.4426C38.018 31.2489 38.0201 32.0553 38.0227 32.8616C38.3351 32.6755 38.6407 32.4899 38.9374 32.2792C39.6214 31.801 40.2718 31.5002 41.0651 31.2671C41.1568 31.2392 41.2486 31.2114 41.3431 31.1827C41.5667 31.115 41.7908 31.0485 42.0149 30.9822C42.0242 30.2891 42.031 29.596 42.0355 28.9029C42.0373 28.6675 42.0399 28.4321 42.0432 28.1968C42.0477 27.8568 42.0498 27.5169 42.0515 27.1769C42.0534 27.0731 42.0553 26.9693 42.0573 26.8623C42.0575 26.0969 41.9877 25.2341 41.4595 24.6385C40.8663 24.1318 40.4686 24.0464 39.7118 24.0563C39.2422 24.1078 38.9936 24.2768 38.6465 24.5922ZM56.6115 24.5922C55.9685 25.4125 55.9695 26.1282 55.9755 27.128C55.9757 27.2383 55.9759 27.3487 55.9761 27.4624C55.9768 27.8134 55.9783 28.1644 55.9799 28.5155C55.9806 28.7541 55.9811 28.9927 55.9816 29.2313C55.983 29.8149 55.9852 30.3986 55.9877 30.9822C56.1229 31.0222 56.258 31.0621 56.3972 31.1033C56.5774 31.1578 56.7575 31.2124 56.9375 31.2671C57.0263 31.2931 57.115 31.3192 57.2064 31.3461C58.0174 31.5942 58.666 31.9958 59.3562 32.4857C59.5636 32.6119 59.7714 32.7373 59.98 32.8616C59.9895 31.9009 59.996 30.9401 60.0005 29.9793C60.0024 29.6528 60.0049 29.3263 60.0082 28.9997C60.0128 28.5292 60.0149 28.0586 60.0165 27.588C60.0184 27.4431 60.0204 27.2982 60.0224 27.1489C60.0259 25.8032 60.0259 25.8032 59.4245 24.6401C58.8335 24.1305 58.4331 24.0464 57.6768 24.0563C57.2073 24.1078 56.9586 24.2768 56.6115 24.5922ZM68.5882 24.5922C68.0479 25.2816 67.9486 25.8337 67.9494 26.6927C67.9492 26.8369 67.9491 26.9812 67.9489 27.1298C67.9493 27.2869 67.9498 27.4439 67.9503 27.6058C67.9503 27.7738 67.9503 27.9417 67.9502 28.1097C67.9502 28.5648 67.9509 29.0198 67.9518 29.4748C67.9525 29.9507 67.9526 30.4267 67.9528 30.9026C67.9532 31.8033 67.9542 32.7041 67.9554 33.6049C67.9568 34.6306 67.9575 35.6562 67.9581 36.6819C67.9594 38.7914 67.9616 40.9009 67.9644 43.0104C68.1405 43.0583 68.1405 43.0583 68.3202 43.1071C68.4755 43.1503 68.6309 43.1935 68.7909 43.238C68.9444 43.2802 69.0978 43.3225 69.2558 43.366C70.2422 43.6815 71.0653 44.201 71.8319 44.8898C71.8731 44.8898 71.9142 44.8898 71.9566 44.8898C71.9654 42.4425 71.972 39.9952 71.976 37.5479C71.978 36.4115 71.9806 35.2751 71.9849 34.1388C71.9886 33.148 71.991 32.1572 71.9919 31.1665C71.9923 30.6421 71.9935 30.1178 71.9962 29.5935C71.9988 29.0993 71.9995 28.6052 71.999 28.111C71.9991 27.9303 71.9998 27.7495 72.0013 27.5688C72.0535 26.0057 72.0535 26.0057 71.4012 24.6411C70.8115 24.1298 70.4095 24.0465 69.6535 24.0563C69.184 24.1078 68.9353 24.2768 68.5882 24.5922Z" fill="white"/>
</svg>
