<svg width="85" height="501" viewBox="0 0 85 501" fill="none" xmlns="http://www.w3.org/2000/svg">
<rect x="40.6333" y="7" width="4" height="494" fill="#C8D9D3"/>
<path d="M81.902 8.44261C82.156 8.5071 82.4104 8.57017 82.6648 8.63326C82.8276 8.67456 82.9903 8.71595 83.153 8.75743C83.2663 8.78519 83.2663 8.78519 83.3819 8.81351C83.4866 8.8407 83.4866 8.8407 83.5935 8.86845C83.6546 8.88387 83.7157 8.89929 83.7786 8.91518C83.9784 8.99784 84.084 9.10193 84.2227 9.26676C84.2988 9.4811 84.29 9.64209 84.2383 9.86175C84.2278 9.91057 84.2174 9.95938 84.2067 10.0097C84.0188 10.4122 83.5868 10.6117 83.2176 10.8216C82.7965 11.0664 82.401 11.3264 82.0138 11.6235C81.8334 11.7593 81.6486 11.8834 81.4595 12.0067C81.0618 12.2707 80.6873 12.5604 80.3171 12.8615C80.2334 12.9295 80.1494 12.9972 80.0651 13.0645C78.2303 14.5334 76.6586 16.2891 75.2839 18.1933C75.2415 18.2516 75.1991 18.3099 75.1554 18.37C74.0461 19.9095 73.1869 21.6123 72.3272 23.3005C70.9688 25.9668 69.3699 28.6622 67.0699 30.6225C67.0004 30.6841 66.9309 30.7459 66.8616 30.8077C66.3628 31.2474 65.8403 31.6216 65.2754 31.9705C65.1831 32.028 65.092 32.0875 65.0013 32.1475C62.5332 33.7336 59.4243 33.8231 56.645 33.24C53.2405 32.455 50.1053 30.7673 47.9431 27.9727C46.2691 29.8062 44.6115 31.7842 43.764 34.1548C43.6278 34.3987 43.4861 34.476 43.24 34.5989C43.2127 34.6152 43.1854 34.6315 43.1572 34.6482C42.8792 34.6149 42.5977 34.5706 42.3864 34.3766C42.2756 34.2233 42.1947 34.083 42.1545 33.897C42.6384 30.9441 45.3283 28.1406 47.3324 26.0929C47.4594 25.963 47.5857 25.8324 47.7117 25.7015C48.7298 24.65 49.8039 23.6538 50.9372 22.7291C51.0956 22.5993 51.2515 22.4667 51.4078 22.3343C52.7308 21.2341 54.126 20.2191 55.5607 19.2717C55.6664 19.2016 55.6664 19.2016 55.7743 19.13C56.3967 18.719 57.0309 18.3303 57.6719 17.9495C57.8359 17.8521 57.9996 17.7542 58.1632 17.6563C58.6672 17.3557 59.1693 17.0597 59.6982 16.805C59.7864 16.7607 59.8745 16.7162 59.9625 16.6716C60.6674 16.3186 61.3787 15.9815 62.0966 15.6563C62.1459 15.6336 62.1953 15.611 62.2461 15.5876C63.0174 15.2353 63.8071 14.942 64.6055 14.6594C64.6538 14.6422 64.702 14.6251 64.7517 14.6075C65.7353 14.2592 66.7273 13.9543 67.7403 13.704C68.1489 13.6025 68.5565 13.4987 68.9614 13.383C69.0532 13.3569 69.0532 13.3569 69.1469 13.3302C69.3204 13.2755 69.3204 13.2755 69.4851 13.1064C69.599 12.7853 69.6307 12.5749 69.4894 12.2607C69.3497 12.071 69.2529 12.0593 69.019 12.0135C68.6846 11.9758 68.3913 12.0351 68.066 12.1116C68.0024 12.1261 67.9388 12.1406 67.8732 12.1555C65.3842 12.7428 62.9148 13.6058 60.6284 14.7552C60.4122 14.8628 60.194 14.9635 59.9742 15.0631C59.5544 15.2578 59.1511 15.4786 58.7475 15.7047C58.4955 15.8458 58.2426 15.9823 57.9843 16.1114C57.6296 16.2904 57.2891 16.4905 56.9484 16.6949C56.8892 16.7299 56.83 16.765 56.7691 16.8011C56.4353 17.0005 56.1118 17.2095 55.7935 17.4329C55.572 17.5864 55.3444 17.7298 55.1171 17.8745C54.7269 18.125 54.3498 18.3865 53.9799 18.6668C53.7942 18.8052 53.6057 18.9378 53.4154 19.0696C52.8667 19.45 52.3467 19.8582 51.8319 20.2835C51.6951 20.3956 51.557 20.5061 51.4185 20.6161C50.106 21.6665 48.8639 22.8238 47.6781 24.0162C47.6344 24.0595 47.5908 24.1029 47.5457 24.1475C47.5089 24.1847 47.4721 24.2218 47.4341 24.2601C47.2013 24.4492 47.0327 24.4864 46.7336 24.478C46.4508 24.4302 46.3005 24.3436 46.1146 24.1163C45.77 23.3247 45.7357 22.3692 45.7049 21.5149C45.7026 21.4595 45.7002 21.4042 45.6978 21.3472C45.6717 20.2663 45.8446 19.2219 46.1178 18.1807C46.1322 18.1249 46.1466 18.0691 46.1614 18.0116C46.4089 17.0589 46.7156 16.1602 47.1658 15.2829C47.1952 15.2248 47.2247 15.1667 47.255 15.1069C48.3925 12.8978 50.1317 11.0125 52.2511 9.7234C52.3525 9.66167 52.4536 9.59934 52.5545 9.53663C53.2692 9.09239 53.9811 8.68172 54.7614 8.36609C54.9179 8.30255 55.0734 8.23675 55.229 8.17094C61.0141 5.76275 67.7316 6.01756 77.5471 7.47443C77.6208 7.488 77.6944 7.50156 77.7703 7.51553C79.1583 7.7775 80.5332 8.09366 81.902 8.44261Z" fill="#DBE9E4"/>
<path d="M2.53944 54.6654C2.28537 54.7299 2.03098 54.7929 1.77656 54.856C1.61381 54.8973 1.45108 54.9387 1.28837 54.9802C1.17509 55.008 1.17509 55.008 1.05952 55.0363C0.954779 55.0635 0.954779 55.0635 0.847924 55.0912C0.786817 55.1066 0.725715 55.1221 0.662759 55.138C0.462994 55.2206 0.357366 55.3247 0.218692 55.4895C0.142616 55.7039 0.151388 55.8649 0.203144 56.0845C0.213557 56.1333 0.223971 56.1822 0.234702 56.2325C0.422651 56.635 0.854565 56.8345 1.22379 57.0443C1.64494 57.2892 2.04038 57.5492 2.4276 57.8463C2.60803 57.9821 2.79284 58.1062 2.98191 58.2295C3.37957 58.4935 3.7541 58.7832 4.1243 59.0843C4.20803 59.1523 4.29205 59.22 4.37631 59.2873C6.21111 60.7562 7.78285 62.5118 9.15749 64.4161C9.19989 64.4744 9.2423 64.5327 9.28598 64.5928C10.3953 66.1323 11.2545 67.8351 12.1142 69.5233C13.4726 72.1895 15.0715 74.8849 17.3715 76.8453C17.441 76.9069 17.5105 76.9687 17.5798 77.0305C18.0786 77.4701 18.6011 77.8444 19.166 78.1933C19.2584 78.2507 19.3494 78.3103 19.4401 78.3703C21.9082 79.9564 25.0171 80.0459 27.7964 79.4628C31.2009 78.6778 34.3361 76.99 36.4983 74.1955C38.1724 76.029 39.8299 78.0069 40.6774 80.3775C40.8136 80.6215 40.9554 80.6987 41.2014 80.8217C41.2287 80.838 41.256 80.8542 41.2842 80.871C41.5622 80.8376 41.8437 80.7934 42.055 80.5994C42.1658 80.4461 42.2467 80.3057 42.2869 80.1198C41.803 77.1668 39.1131 74.3634 37.1091 72.3157C36.982 72.1858 36.8557 72.0552 36.7297 71.9243C35.7116 70.8728 34.6375 69.8766 33.5042 68.9519C33.3458 68.8221 33.1899 68.6894 33.0336 68.5571C31.7106 67.4569 30.3154 66.4418 28.8807 65.4945C28.775 65.4243 28.775 65.4243 28.6671 65.3527C28.0447 64.9417 27.4106 64.5531 26.7695 64.1723C26.6055 64.0749 26.4418 63.977 26.2782 63.8791C25.7742 63.5784 25.2721 63.2824 24.7432 63.0278C24.655 62.9835 24.5669 62.939 24.4789 62.8944C23.774 62.5414 23.0627 62.2043 22.3448 61.879C22.2955 61.8564 22.2461 61.8337 22.1953 61.8104C21.424 61.4581 20.6344 61.1648 19.8359 60.8821C19.7876 60.865 19.7394 60.8479 19.6897 60.8302C18.7061 60.482 17.7141 60.1771 16.7011 59.9267C16.2925 59.8253 15.8849 59.7215 15.48 59.6058C15.3882 59.5796 15.3882 59.5796 15.2945 59.553C15.121 59.4983 15.121 59.4983 14.9563 59.3292C14.8424 59.008 14.8107 58.7977 14.952 58.4835C15.0917 58.2938 15.1885 58.282 15.4224 58.2362C15.7568 58.1986 16.0501 58.2579 16.3755 58.3343C16.4391 58.3488 16.5027 58.3634 16.5682 58.3783C19.0572 58.9656 21.5266 59.8286 23.813 60.978C24.0292 61.0856 24.2474 61.1863 24.4672 61.2859C24.887 61.4806 25.2903 61.7014 25.6939 61.9275C25.9459 62.0686 26.1988 62.2051 26.4571 62.3341C26.8118 62.5132 27.1523 62.7133 27.493 62.9176C27.5522 62.9527 27.6114 62.9878 27.6723 63.0239C28.0061 63.2233 28.3296 63.4323 28.6479 63.6556C28.8694 63.8092 29.097 63.9526 29.3243 64.0972C29.7145 64.3478 30.0916 64.6093 30.4615 64.8896C30.6472 65.028 30.8357 65.1606 31.026 65.2924C31.5747 65.6728 32.0947 66.081 32.6095 66.5062C32.7463 66.6184 32.8844 66.7288 33.0229 66.8389C34.3354 67.8892 35.5775 69.0466 36.7633 70.239C36.807 70.2823 36.8507 70.3257 36.8957 70.3703C36.9325 70.4075 36.9693 70.4446 37.0073 70.4829C37.2402 70.672 37.4087 70.7092 37.7078 70.7008C37.9906 70.653 38.1409 70.5664 38.3268 70.3391C38.6714 69.5475 38.7057 68.592 38.7365 67.7377C38.7388 67.6823 38.7412 67.627 38.7436 67.57C38.7697 66.4891 38.5968 65.4446 38.3236 64.4034C38.3092 64.3476 38.2948 64.2919 38.28 64.2344C38.0325 63.2817 37.7258 62.383 37.2756 61.5056C37.2462 61.4476 37.2168 61.3895 37.1864 61.3297C36.0489 59.1206 34.3097 57.2353 32.1903 55.9462C32.0889 55.8844 31.9878 55.8221 31.8869 55.7594C31.1722 55.3152 30.4603 54.9045 29.68 54.5889C29.5235 54.5253 29.368 54.4595 29.2124 54.3937C23.4273 51.9855 16.7098 52.2403 6.89427 53.6972C6.82063 53.7108 6.74699 53.7243 6.67112 53.7383C5.28306 54.0003 3.90825 54.3164 2.53944 54.6654Z" fill="#DBE9E4"/>
<path d="M81.902 110.937C82.156 111.001 82.4104 111.064 82.6648 111.127C82.8276 111.168 82.9903 111.21 83.153 111.251C83.2663 111.279 83.2663 111.279 83.3819 111.307C83.4866 111.335 83.4866 111.335 83.5935 111.362C83.6546 111.378 83.7157 111.393 83.7786 111.409C83.9784 111.492 84.084 111.596 84.2227 111.761C84.2988 111.975 84.29 112.136 84.2383 112.356C84.2278 112.404 84.2174 112.453 84.2067 112.504C84.0188 112.906 83.5868 113.106 83.2176 113.315C82.7965 113.56 82.401 113.82 82.0138 114.117C81.8334 114.253 81.6486 114.377 81.4595 114.501C81.0618 114.765 80.6873 115.054 80.3171 115.355C80.2334 115.423 80.1494 115.491 80.0651 115.558C78.2303 117.027 76.6586 118.783 75.2839 120.687C75.2415 120.746 75.1991 120.804 75.1554 120.864C74.0461 122.403 73.1869 124.106 72.3272 125.794C70.9688 128.461 69.3699 131.156 67.0699 133.116C67.0004 133.178 66.9309 133.24 66.8616 133.302C66.3628 133.741 65.8403 134.116 65.2754 134.464C65.1831 134.522 65.092 134.581 65.0013 134.641C62.5332 136.227 59.4243 136.317 56.645 135.734C53.2405 134.949 50.1053 133.261 47.9431 130.467C46.2691 132.3 44.6115 134.278 43.764 136.649C43.6278 136.893 43.4861 136.97 43.24 137.093C43.2127 137.109 43.1854 137.125 43.1572 137.142C42.8792 137.109 42.5977 137.065 42.3864 136.87C42.2756 136.717 42.1947 136.577 42.1545 136.391C42.6384 133.438 45.3283 130.634 47.3324 128.587C47.4594 128.457 47.5857 128.326 47.7117 128.195C48.7298 127.144 49.8039 126.148 50.9372 125.223C51.0956 125.093 51.2515 124.961 51.4078 124.828C52.7308 123.728 54.126 122.713 55.5607 121.766C55.6664 121.695 55.6664 121.695 55.7743 121.624C56.3967 121.213 57.0309 120.824 57.6719 120.443C57.8359 120.346 57.9996 120.248 58.1632 120.15C58.6672 119.85 59.1693 119.554 59.6982 119.299C59.7864 119.255 59.8745 119.21 59.9625 119.166C60.6674 118.813 61.3787 118.475 62.0966 118.15C62.1459 118.128 62.1953 118.105 62.2461 118.082C63.0174 117.729 63.8071 117.436 64.6055 117.153C64.6538 117.136 64.702 117.119 64.7517 117.101C65.7353 116.753 66.7273 116.448 67.7403 116.198C68.1489 116.096 68.5565 115.993 68.9614 115.877C69.0532 115.851 69.0532 115.851 69.1469 115.824C69.3204 115.769 69.3204 115.769 69.4851 115.6C69.599 115.279 69.6307 115.069 69.4894 114.755C69.3497 114.565 69.2529 114.553 69.019 114.507C68.6846 114.47 68.3913 114.529 68.066 114.605C68.0024 114.62 67.9388 114.634 67.8732 114.649C65.3842 115.237 62.9148 116.1 60.6284 117.249C60.4122 117.357 60.194 117.457 59.9742 117.557C59.5544 117.752 59.1511 117.973 58.7475 118.199C58.4955 118.34 58.2426 118.476 57.9843 118.605C57.6296 118.784 57.2891 118.984 56.9484 119.189C56.8892 119.224 56.83 119.259 56.7691 119.295C56.4353 119.494 56.1118 119.703 55.7935 119.927C55.572 120.08 55.3444 120.224 55.1171 120.368C54.7269 120.619 54.3498 120.88 53.9799 121.161C53.7942 121.299 53.6057 121.432 53.4154 121.563C52.8667 121.944 52.3467 122.352 51.8319 122.777C51.6951 122.89 51.557 123 51.4185 123.11C50.106 124.16 48.8639 125.318 47.6781 126.51C47.6344 126.553 47.5908 126.597 47.5457 126.641C47.5089 126.679 47.4721 126.716 47.4341 126.754C47.2013 126.943 47.0327 126.98 46.7336 126.972C46.4508 126.924 46.3005 126.837 46.1146 126.61C45.77 125.819 45.7357 124.863 45.7049 124.009C45.7026 123.953 45.7002 123.898 45.6978 123.841C45.6717 122.76 45.8446 121.716 46.1178 120.675C46.1322 120.619 46.1466 120.563 46.1614 120.505C46.4089 119.553 46.7156 118.654 47.1658 117.777C47.1952 117.719 47.2247 117.661 47.255 117.601C48.3925 115.392 50.1317 113.506 52.2511 112.217C52.3525 112.156 52.4536 112.093 52.5545 112.031C53.2692 111.586 53.9811 111.176 54.7614 110.86C54.9179 110.796 55.0734 110.731 55.229 110.665C61.0141 108.257 67.7316 108.511 77.5471 109.968C77.6208 109.982 77.6944 109.995 77.7703 110.009C79.1583 110.271 80.5332 110.588 81.902 110.937Z" fill="#DBE9E4"/>
<path d="M2.53944 165.198C2.28537 165.262 2.03098 165.326 1.77656 165.389C1.61381 165.43 1.45108 165.471 1.28837 165.513C1.17509 165.541 1.17509 165.541 1.05952 165.569C0.954779 165.596 0.954779 165.596 0.847924 165.624C0.786817 165.639 0.725715 165.655 0.662759 165.671C0.462994 165.753 0.357366 165.857 0.218692 166.022C0.142616 166.236 0.151388 166.397 0.203144 166.617C0.213557 166.666 0.223971 166.715 0.234702 166.765C0.422651 167.168 0.854565 167.367 1.22379 167.577C1.64494 167.822 2.04038 168.082 2.4276 168.379C2.60803 168.515 2.79284 168.639 2.98191 168.762C3.37957 169.026 3.7541 169.316 4.1243 169.617C4.20803 169.685 4.29205 169.753 4.37631 169.82C6.21111 171.289 7.78285 173.044 9.15749 174.949C9.19989 175.007 9.2423 175.065 9.28598 175.125C10.3953 176.665 11.2545 178.368 12.1142 180.056C13.4726 182.722 15.0715 185.418 17.3715 187.378C17.441 187.44 17.5105 187.501 17.5798 187.563C18.0786 188.003 18.6011 188.377 19.166 188.726C19.2584 188.783 19.3494 188.843 19.4401 188.903C21.9082 190.489 25.0171 190.579 27.7964 189.995C31.2009 189.21 34.3361 187.523 36.4983 184.728C38.1724 186.562 39.8299 188.54 40.6774 190.91C40.8136 191.154 40.9554 191.231 41.2014 191.354C41.2287 191.371 41.256 191.387 41.2842 191.404C41.5622 191.37 41.8437 191.326 42.055 191.132C42.1658 190.979 42.2467 190.838 42.2869 190.652C41.803 187.699 39.1131 184.896 37.1091 182.848C36.982 182.718 36.8557 182.588 36.7297 182.457C35.7116 181.405 34.6375 180.409 33.5042 179.484C33.3458 179.355 33.1899 179.222 33.0336 179.09C31.7106 177.989 30.3154 176.974 28.8807 176.027C28.775 175.957 28.775 175.957 28.6671 175.885C28.0447 175.474 27.4106 175.086 26.7695 174.705C26.6055 174.607 26.4418 174.51 26.2782 174.412C25.7742 174.111 25.2721 173.815 24.7432 173.56C24.655 173.516 24.5669 173.472 24.4789 173.427C23.774 173.074 23.0627 172.737 22.3448 172.412C22.2955 172.389 22.2461 172.366 22.1953 172.343C21.424 171.991 20.6344 171.697 19.8359 171.415C19.7876 171.398 19.7394 171.38 19.6897 171.363C18.7061 171.015 17.7141 170.71 16.7011 170.459C16.2925 170.358 15.8849 170.254 15.48 170.138C15.3882 170.112 15.3882 170.112 15.2945 170.086C15.121 170.031 15.121 170.031 14.9563 169.862C14.8424 169.541 14.8107 169.33 14.952 169.016C15.0917 168.826 15.1885 168.815 15.4224 168.769C15.7568 168.731 16.0501 168.79 16.3755 168.867C16.4391 168.881 16.5027 168.896 16.5682 168.911C19.0572 169.498 21.5266 170.361 23.813 171.511C24.0292 171.618 24.2474 171.719 24.4672 171.819C24.887 172.013 25.2903 172.234 25.6939 172.46C25.9459 172.601 26.1988 172.738 26.4571 172.867C26.8118 173.046 27.1523 173.246 27.493 173.45C27.5522 173.485 27.6114 173.52 27.6723 173.557C28.0061 173.756 28.3296 173.965 28.6479 174.188C28.8694 174.342 29.097 174.485 29.3243 174.63C29.7145 174.88 30.0916 175.142 30.4615 175.422C30.6472 175.561 30.8357 175.693 31.026 175.825C31.5747 176.205 32.0947 176.614 32.6095 177.039C32.7463 177.151 32.8844 177.261 33.0229 177.371C34.3354 178.422 35.5775 179.579 36.7633 180.772C36.807 180.815 36.8507 180.858 36.8957 180.903C36.9325 180.94 36.9693 180.977 37.0073 181.015C37.2402 181.205 37.4087 181.242 37.7078 181.233C37.9906 181.186 38.1409 181.099 38.3268 180.872C38.6714 180.08 38.7057 179.125 38.7365 178.27C38.7388 178.215 38.7412 178.16 38.7436 178.103C38.7697 177.022 38.5968 175.977 38.3236 174.936C38.3092 174.88 38.2948 174.824 38.28 174.767C38.0325 173.814 37.7258 172.916 37.2756 172.038C37.2462 171.98 37.2168 171.922 37.1864 171.862C36.0489 169.653 34.3097 167.768 32.1903 166.479C32.0889 166.417 31.9878 166.355 31.8869 166.292C31.1722 165.848 30.4603 165.437 29.68 165.121C29.5235 165.058 29.368 164.992 29.2124 164.926C23.4273 162.518 16.7098 162.773 6.89427 164.23C6.82063 164.243 6.74699 164.257 6.67112 164.271C5.28306 164.533 3.90825 164.849 2.53944 165.198Z" fill="#DBE9E4"/>
<path d="M81.902 221.469C82.156 221.534 82.4104 221.597 82.6648 221.66C82.8276 221.701 82.9903 221.742 83.153 221.784C83.2663 221.812 83.2663 221.812 83.3819 221.84C83.4866 221.867 83.4866 221.867 83.5935 221.895C83.6546 221.91 83.7157 221.926 83.7786 221.942C83.9784 222.024 84.084 222.128 84.2227 222.293C84.2988 222.508 84.29 222.669 84.2383 222.888C84.2278 222.937 84.2174 222.986 84.2067 223.036C84.0188 223.439 83.5868 223.638 83.2176 223.848C82.7965 224.093 82.401 224.353 82.0138 224.65C81.8334 224.786 81.6486 224.91 81.4595 225.033C81.0618 225.297 80.6873 225.587 80.3171 225.888C80.2334 225.956 80.1494 226.024 80.0651 226.091C78.2303 227.56 76.6586 229.316 75.2839 231.22C75.2415 231.278 75.1991 231.336 75.1554 231.397C74.0461 232.936 73.1869 234.639 72.3272 236.327C70.9688 238.993 69.3699 241.689 67.0699 243.649C67.0004 243.711 66.9309 243.772 66.8616 243.834C66.3628 244.274 65.8403 244.648 65.2754 244.997C65.1831 245.054 65.092 245.114 65.0013 245.174C62.5332 246.76 59.4243 246.85 56.645 246.267C53.2405 245.481 50.1053 243.794 47.9431 240.999C46.2691 242.833 44.6115 244.811 43.764 247.181C43.6278 247.425 43.4861 247.502 43.24 247.625C43.2127 247.642 43.1854 247.658 43.1572 247.675C42.8792 247.641 42.5977 247.597 42.3864 247.403C42.2756 247.25 42.1947 247.109 42.1545 246.923C42.6384 243.971 45.3283 241.167 47.3324 239.119C47.4594 238.99 47.5857 238.859 47.7117 238.728C48.7298 237.676 49.8039 236.68 50.9372 235.756C51.0956 235.626 51.2515 235.493 51.4078 235.361C52.7308 234.261 54.126 233.246 55.5607 232.298C55.6664 232.228 55.6664 232.228 55.7743 232.156C56.3967 231.745 57.0309 231.357 57.6719 230.976C57.8359 230.879 57.9996 230.781 58.1632 230.683C58.6672 230.382 59.1693 230.086 59.6982 229.832C59.7864 229.787 59.8745 229.743 59.9625 229.698C60.6674 229.345 61.3787 229.008 62.0966 228.683C62.1459 228.66 62.1953 228.637 62.2461 228.614C63.0174 228.262 63.8071 227.969 64.6055 227.686C64.6538 227.669 64.702 227.652 64.7517 227.634C65.7353 227.286 66.7273 226.981 67.7403 226.73C68.1489 226.629 68.5565 226.525 68.9614 226.41C69.0532 226.383 69.0532 226.383 69.1469 226.357C69.3204 226.302 69.3204 226.302 69.4851 226.133C69.599 225.812 69.6307 225.601 69.4894 225.287C69.3497 225.097 69.2529 225.086 69.019 225.04C68.6846 225.002 68.3913 225.062 68.066 225.138C68.0024 225.153 67.9388 225.167 67.8732 225.182C65.3842 225.769 62.9148 226.632 60.6284 227.782C60.4122 227.889 60.194 227.99 59.9742 228.09C59.5544 228.284 59.1511 228.505 58.7475 228.731C58.4955 228.872 58.2426 229.009 57.9843 229.138C57.6296 229.317 57.2891 229.517 56.9484 229.721C56.8892 229.756 56.83 229.791 56.7691 229.828C56.4353 230.027 56.1118 230.236 55.7935 230.459C55.572 230.613 55.3444 230.756 55.1171 230.901C54.7269 231.152 54.3498 231.413 53.9799 231.693C53.7942 231.832 53.6057 231.964 53.4154 232.096C52.8667 232.477 52.3467 232.885 51.8319 233.31C51.6951 233.422 51.557 233.533 51.4185 233.643C50.106 234.693 48.8639 235.85 47.6781 237.043C47.6344 237.086 47.5908 237.129 47.5457 237.174C47.5089 237.211 47.4721 237.248 47.4341 237.287C47.2013 237.476 47.0327 237.513 46.7336 237.505C46.4508 237.457 46.3005 237.37 46.1146 237.143C45.77 236.351 45.7357 235.396 45.7049 234.541C45.7026 234.486 45.7002 234.431 45.6978 234.374C45.6717 233.293 45.8446 232.248 46.1178 231.207C46.1322 231.151 46.1466 231.096 46.1614 231.038C46.4089 230.085 46.7156 229.187 47.1658 228.309C47.1952 228.251 47.2247 228.193 47.255 228.133C48.3925 225.924 50.1317 224.039 52.2511 222.75C52.3525 222.688 52.4536 222.626 52.5545 222.563C53.2692 222.119 53.9811 221.708 54.7614 221.393C54.9179 221.329 55.0734 221.263 55.229 221.197C61.0141 218.789 67.7316 219.044 77.5471 220.501C77.6208 220.514 77.6944 220.528 77.7703 220.542C79.1583 220.804 80.5332 221.12 81.902 221.469Z" fill="#DBE9E4"/>
<path d="M2.53944 287.789C2.28537 287.853 2.03098 287.916 1.77656 287.979C1.61381 288.021 1.45108 288.062 1.28837 288.103C1.17509 288.131 1.17509 288.131 1.05952 288.16C0.954779 288.187 0.954779 288.187 0.847924 288.215C0.786817 288.23 0.725715 288.245 0.662759 288.261C0.462994 288.344 0.357366 288.448 0.218692 288.613C0.142616 288.827 0.151388 288.988 0.203144 289.208C0.213557 289.257 0.223971 289.305 0.234702 289.356C0.422651 289.758 0.854565 289.958 1.22379 290.168C1.64494 290.412 2.04038 290.672 2.4276 290.97C2.60803 291.105 2.79284 291.229 2.98191 291.353C3.37957 291.617 3.7541 291.906 4.1243 292.208C4.20803 292.276 4.29205 292.343 4.37631 292.411C6.21111 293.88 7.78285 295.635 9.15749 297.539C9.19989 297.598 9.2423 297.656 9.28598 297.716C10.3953 299.256 11.2545 300.958 12.1142 302.647C13.4726 305.313 15.0715 308.008 17.3715 309.969C17.441 310.03 17.5105 310.092 17.5798 310.154C18.0786 310.593 18.6011 310.968 19.166 311.317C19.2584 311.374 19.3494 311.434 19.4401 311.494C21.9082 313.08 25.0171 313.169 27.7964 312.586C31.2009 311.801 34.3361 310.113 36.4983 307.319C38.1724 309.152 39.8299 311.13 40.6774 313.501C40.8136 313.745 40.9554 313.822 41.2014 313.945C41.2287 313.961 41.256 313.978 41.2842 313.994C41.5622 313.961 41.8437 313.917 42.055 313.723C42.1658 313.569 42.2467 313.429 42.2869 313.243C41.803 310.29 39.1131 307.487 37.1091 305.439C36.982 305.309 36.8557 305.178 36.7297 305.048C35.7116 303.996 34.6375 303 33.5042 302.075C33.3458 301.945 33.1899 301.813 33.0336 301.68C31.7106 300.58 30.3154 299.565 28.8807 298.618C28.775 298.548 28.775 298.548 28.6671 298.476C28.0447 298.065 27.4106 297.676 26.7695 297.296C26.6055 297.198 26.4418 297.1 26.2782 297.002C25.7742 296.702 25.2721 296.406 24.7432 296.151C24.655 296.107 24.5669 296.062 24.4789 296.018C23.774 295.665 23.0627 295.328 22.3448 295.002C22.2955 294.98 22.2461 294.957 22.1953 294.934C21.424 294.581 20.6344 294.288 19.8359 294.005C19.7876 293.988 19.7394 293.971 19.6897 293.954C18.7061 293.605 17.7141 293.3 16.7011 293.05C16.2925 292.949 15.8849 292.845 15.48 292.729C15.3882 292.703 15.3882 292.703 15.2945 292.676C15.121 292.622 15.121 292.622 14.9563 292.452C14.8424 292.131 14.8107 291.921 14.952 291.607C15.0917 291.417 15.1885 291.405 15.4224 291.36C15.7568 291.322 16.0501 291.381 16.3755 291.458C16.4391 291.472 16.5027 291.487 16.5682 291.502C19.0572 292.089 21.5266 292.952 23.813 294.101C24.0292 294.209 24.2474 294.31 24.4672 294.409C24.887 294.604 25.2903 294.825 25.6939 295.051C25.9459 295.192 26.1988 295.328 26.4571 295.457C26.8118 295.636 27.1523 295.837 27.493 296.041C27.5522 296.076 27.6114 296.111 27.6723 296.147C28.0061 296.347 28.3296 296.556 28.6479 296.779C28.8694 296.933 29.097 297.076 29.3243 297.221C29.7145 297.471 30.0916 297.733 30.4615 298.013C30.6472 298.151 30.8357 298.284 31.026 298.416C31.5747 298.796 32.0947 299.204 32.6095 299.63C32.7463 299.742 32.8844 299.852 33.0229 299.962C34.3354 301.013 35.5775 302.17 36.7633 303.362C36.807 303.406 36.8507 303.449 36.8957 303.494C36.9325 303.531 36.9693 303.568 37.0073 303.606C37.2402 303.795 37.4087 303.832 37.7078 303.824C37.9906 303.776 38.1409 303.69 38.3268 303.462C38.6714 302.671 38.7057 301.715 38.7365 300.861C38.7388 300.806 38.7412 300.75 38.7436 300.693C38.7697 299.612 38.5968 298.568 38.3236 297.527C38.3092 297.471 38.2948 297.415 38.28 297.358C38.0325 296.405 37.7258 295.506 37.2756 294.629C37.2462 294.571 37.2168 294.513 37.1864 294.453C36.0489 292.244 34.3097 290.359 32.1903 289.069C32.0889 289.008 31.9878 288.945 31.8869 288.883C31.1722 288.438 30.4603 288.028 29.68 287.712C29.5235 287.649 29.368 287.583 29.2124 287.517C23.4273 285.109 16.7098 285.364 6.89427 286.821C6.82063 286.834 6.74699 286.848 6.67112 286.862C5.28306 287.124 3.90825 287.44 2.53944 287.789Z" fill="#DBE9E4"/>
<path d="M81.902 349.084C82.156 349.148 82.4104 349.212 82.6648 349.275C82.8276 349.316 82.9903 349.357 83.153 349.399C83.2663 349.427 83.2663 349.427 83.3819 349.455C83.4866 349.482 83.4866 349.482 83.5935 349.51C83.6546 349.525 83.7157 349.541 83.7786 349.557C83.9784 349.639 84.084 349.743 84.2227 349.908C84.2988 350.122 84.29 350.283 84.2383 350.503C84.2278 350.552 84.2174 350.601 84.2067 350.651C84.0188 351.054 83.5868 351.253 83.2176 351.463C82.7965 351.708 82.401 351.968 82.0138 352.265C81.8334 352.401 81.6486 352.525 81.4595 352.648C81.0618 352.912 80.6873 353.202 80.3171 353.503C80.2334 353.571 80.1494 353.639 80.0651 353.706C78.2303 355.175 76.6586 356.93 75.2839 358.835C75.2415 358.893 75.1991 358.951 75.1554 359.011C74.0461 360.551 73.1869 362.254 72.3272 363.942C70.9688 366.608 69.3699 369.304 67.0699 371.264C67.0004 371.325 66.9309 371.387 66.8616 371.449C66.3628 371.889 65.8403 372.263 65.2754 372.612C65.1831 372.669 65.092 372.729 65.0013 372.789C62.5332 374.375 59.4243 374.464 56.645 373.881C53.2405 373.096 50.1053 371.409 47.9431 368.614C46.2691 370.448 44.6115 372.426 43.764 374.796C43.6278 375.04 43.4861 375.117 43.24 375.24C43.2127 375.257 43.1854 375.273 43.1572 375.29C42.8792 375.256 42.5977 375.212 42.3864 375.018C42.2756 374.865 42.1947 374.724 42.1545 374.538C42.6384 371.585 45.3283 368.782 47.3324 366.734C47.4594 366.604 47.5857 366.474 47.7117 366.343C48.7298 365.291 49.8039 364.295 50.9372 363.37C51.0956 363.241 51.2515 363.108 51.4078 362.976C52.7308 361.875 54.126 360.86 55.5607 359.913C55.6664 359.843 55.6664 359.843 55.7743 359.771C56.3967 359.36 57.0309 358.972 57.6719 358.591C57.8359 358.493 57.9996 358.396 58.1632 358.298C58.6672 357.997 59.1693 357.701 59.6982 357.446C59.7864 357.402 59.8745 357.358 59.9625 357.313C60.6674 356.96 61.3787 356.623 62.0966 356.298C62.1459 356.275 62.1953 356.252 62.2461 356.229C63.0174 355.877 63.8071 355.583 64.6055 355.301C64.6538 355.284 64.702 355.266 64.7517 355.249C65.7353 354.901 66.7273 354.596 67.7403 354.345C68.1489 354.244 68.5565 354.14 68.9614 354.024C69.0532 353.998 69.0532 353.998 69.1469 353.972C69.3204 353.917 69.3204 353.917 69.4851 353.748C69.599 353.427 69.6307 353.216 69.4894 352.902C69.3497 352.712 69.2529 352.701 69.019 352.655C68.6846 352.617 68.3913 352.676 68.066 352.753C68.0024 352.767 67.9388 352.782 67.8732 352.797C65.3842 353.384 62.9148 354.247 60.6284 355.397C60.4122 355.504 60.194 355.605 59.9742 355.704C59.5544 355.899 59.1511 356.12 58.7475 356.346C58.4955 356.487 58.2426 356.624 57.9843 356.753C57.6296 356.932 57.2891 357.132 56.9484 357.336C56.8892 357.371 56.83 357.406 56.7691 357.442C56.4353 357.642 56.1118 357.851 55.7935 358.074C55.572 358.228 55.3444 358.371 55.1171 358.516C54.7269 358.766 54.3498 359.028 53.9799 359.308C53.7942 359.447 53.6057 359.579 53.4154 359.711C52.8667 360.091 52.3467 360.5 51.8319 360.925C51.6951 361.037 51.557 361.147 51.4185 361.257C50.106 362.308 48.8639 363.465 47.6781 364.658C47.6344 364.701 47.5908 364.744 47.5457 364.789C47.5089 364.826 47.4721 364.863 47.4341 364.901C47.2013 365.091 47.0327 365.128 46.7336 365.119C46.4508 365.072 46.3005 364.985 46.1146 364.758C45.77 363.966 45.7357 363.011 45.7049 362.156C45.7026 362.101 45.7002 362.046 45.6978 361.989C45.6717 360.908 45.8446 359.863 46.1178 358.822C46.1322 358.766 46.1466 358.71 46.1614 358.653C46.4089 357.7 46.7156 356.802 47.1658 355.924C47.1952 355.866 47.2247 355.808 47.255 355.748C48.3925 353.539 50.1317 351.654 52.2511 350.365C52.3525 350.303 52.4536 350.241 52.5545 350.178C53.2692 349.734 53.9811 349.323 54.7614 349.007C54.9179 348.944 55.0734 348.878 55.229 348.812C61.0141 346.404 67.7316 346.659 77.5471 348.116C77.6208 348.129 77.6944 348.143 77.7703 348.157C79.1583 348.419 80.5332 348.735 81.902 349.084Z" fill="#DBE9E4"/>
<path d="M2.53944 437.51C2.28537 437.575 2.03098 437.638 1.77656 437.701C1.61381 437.742 1.45108 437.783 1.28837 437.825C1.17509 437.853 1.17509 437.853 1.05952 437.881C0.954779 437.908 0.954779 437.908 0.847924 437.936C0.786817 437.951 0.725715 437.967 0.662759 437.983C0.462994 438.065 0.357366 438.169 0.218692 438.334C0.142616 438.549 0.151388 438.71 0.203144 438.929C0.213557 438.978 0.223971 439.027 0.234702 439.077C0.422651 439.48 0.854565 439.679 1.22379 439.889C1.64494 440.134 2.04038 440.394 2.4276 440.691C2.60803 440.827 2.79284 440.951 2.98191 441.074C3.37957 441.338 3.7541 441.628 4.1243 441.929C4.20803 441.997 4.29205 442.065 4.37631 442.132C6.21111 443.601 7.78285 445.357 9.15749 447.261C9.19989 447.319 9.2423 447.377 9.28598 447.438C10.3953 448.977 11.2545 450.68 12.1142 452.368C13.4726 455.034 15.0715 457.73 17.3715 459.69C17.441 459.752 17.5105 459.813 17.5798 459.875C18.0786 460.315 18.6011 460.689 19.166 461.038C19.2584 461.095 19.3494 461.155 19.4401 461.215C21.9082 462.801 25.0171 462.891 27.7964 462.308C31.2009 461.522 34.3361 459.835 36.4983 457.04C38.1724 458.874 39.8299 460.852 40.6774 463.222C40.8136 463.466 40.9554 463.543 41.2014 463.666C41.2287 463.683 41.256 463.699 41.2842 463.716C41.5622 463.682 41.8437 463.638 42.055 463.444C42.1658 463.291 42.2467 463.15 42.2869 462.964C41.803 460.012 39.1131 457.208 37.1091 455.16C36.982 455.031 36.8557 454.9 36.7297 454.769C35.7116 453.717 34.6375 452.721 33.5042 451.797C33.3458 451.667 33.1899 451.534 33.0336 451.402C31.7106 450.302 30.3154 449.287 28.8807 448.339C28.775 448.269 28.775 448.269 28.6671 448.197C28.0447 447.786 27.4106 447.398 26.7695 447.017C26.6055 446.92 26.4418 446.822 26.2782 446.724C25.7742 446.423 25.2721 446.127 24.7432 445.873C24.655 445.828 24.5669 445.784 24.4789 445.739C23.774 445.386 23.0627 445.049 22.3448 444.724C22.2955 444.701 22.2461 444.678 22.1953 444.655C21.424 444.303 20.6344 444.01 19.8359 443.727C19.7876 443.71 19.7394 443.693 19.6897 443.675C18.7061 443.327 17.7141 443.022 16.7011 442.771C16.2925 442.67 15.8849 442.566 15.48 442.451C15.3882 442.424 15.3882 442.424 15.2945 442.398C15.121 442.343 15.121 442.343 14.9563 442.174C14.8424 441.853 14.8107 441.642 14.952 441.328C15.0917 441.138 15.1885 441.127 15.4224 441.081C15.7568 441.043 16.0501 441.103 16.3755 441.179C16.4391 441.194 16.5027 441.208 16.5682 441.223C19.0572 441.81 21.5266 442.673 23.813 443.823C24.0292 443.93 24.2474 444.031 24.4672 444.131C24.887 444.325 25.2903 444.546 25.6939 444.772C25.9459 444.913 26.1988 445.05 26.4571 445.179C26.8118 445.358 27.1523 445.558 27.493 445.762C27.5522 445.797 27.6114 445.833 27.6723 445.869C28.0061 446.068 28.3296 446.277 28.6479 446.5C28.8694 446.654 29.097 446.797 29.3243 446.942C29.7145 447.193 30.0916 447.454 30.4615 447.734C30.6472 447.873 30.8357 448.005 31.026 448.137C31.5747 448.518 32.0947 448.926 32.6095 449.351C32.7463 449.463 32.8844 449.574 33.0229 449.684C34.3354 450.734 35.5775 451.891 36.7633 453.084C36.807 453.127 36.8507 453.17 36.8957 453.215C36.9325 453.252 36.9693 453.289 37.0073 453.328C37.2402 453.517 37.4087 453.554 37.7078 453.546C37.9906 453.498 38.1409 453.411 38.3268 453.184C38.6714 452.392 38.7057 451.437 38.7365 450.582C38.7388 450.527 38.7412 450.472 38.7436 450.415C38.7697 449.334 38.5968 448.289 38.3236 447.248C38.3092 447.192 38.2948 447.137 38.28 447.079C38.0325 446.126 37.7258 445.228 37.2756 444.35C37.2462 444.292 37.2168 444.234 37.1864 444.174C36.0489 441.965 34.3097 440.08 32.1903 438.791C32.0889 438.729 31.9878 438.667 31.8869 438.604C31.1722 438.16 30.4603 437.749 29.68 437.434C29.5235 437.37 29.368 437.304 29.2124 437.238C23.4273 434.83 16.7098 435.085 6.89427 436.542C6.82063 436.556 6.74699 436.569 6.67112 436.583C5.28306 436.845 3.90825 437.161 2.53944 437.51Z" fill="#1B453C"/>
</svg>
