<svg width="27" height="27" viewBox="0 0 27 27" fill="none" xmlns="http://www.w3.org/2000/svg">
<path d="M23.9049 4.70952C24.0449 4.84975 24.077 5.02042 24.1226 5.20752C24.1334 5.25038 24.1442 5.29324 24.1554 5.3374C24.398 6.3474 24.5485 7.40231 24.6269 8.4375C24.6298 8.47623 24.6328 8.51496 24.6359 8.55486C24.8013 10.8271 24.6073 13.1106 23.9413 15.293C23.9279 15.3381 23.9145 15.3831 23.9006 15.4296C23.3972 17.0935 22.4895 18.7071 21.304 19.9789C21.2102 20.0799 21.1223 20.1836 21.0343 20.2895C19.1377 22.4515 16.3064 23.7974 13.4999 24.2051C13.4641 24.2106 13.4282 24.2161 13.3913 24.2218C12.9691 24.2785 12.5408 24.2707 12.1156 24.271C12.0522 24.271 12.0522 24.271 11.9874 24.2711C11.3202 24.2702 10.6737 24.2412 10.0194 24.0996C9.97803 24.0908 9.93663 24.0821 9.89398 24.073C9.21215 23.9234 8.46164 23.7152 7.86029 23.3522C7.71396 23.2934 7.6378 23.3154 7.48818 23.3613C7.3569 23.4213 7.3569 23.4213 7.22451 23.4979C7.17398 23.5259 7.12346 23.554 7.0714 23.5829C7.01751 23.6131 6.96362 23.6433 6.9081 23.6744C5.89814 24.2293 4.86908 24.6863 3.79299 25.0954C3.69853 25.1314 3.60426 25.1679 3.51031 25.2052C3.24433 25.3098 3.02514 25.3609 2.74208 25.3125C2.60695 25.2334 2.60695 25.2334 2.53115 25.1016C2.50259 24.9549 2.49264 24.8247 2.53115 24.6797C2.68727 24.494 2.8336 24.4192 3.06014 24.3379C3.12307 24.3149 3.18601 24.2918 3.25085 24.2681C3.30058 24.2502 3.30058 24.2502 3.35132 24.2321C3.52527 24.1696 3.69841 24.105 3.87155 24.0403C3.90602 24.0274 3.94049 24.0146 3.97601 24.0013C4.43648 23.8283 4.8826 23.6263 5.32607 23.4141C5.36205 23.3969 5.39804 23.3797 5.43512 23.3621C7.46754 22.3862 9.32951 21.0969 10.9944 19.5785C11.0665 19.5135 11.1389 19.4488 11.2128 19.3859C11.5318 19.1135 11.8277 18.8189 12.1235 18.5219C12.211 18.4341 12.2988 18.3466 12.3866 18.2592C12.6809 17.9651 12.9679 17.6678 13.2362 17.3496C13.2825 17.2964 13.3287 17.2431 13.3751 17.19C13.9104 16.5649 14.4026 15.9082 14.8875 15.2435C14.9175 15.2026 14.9475 15.1617 14.9785 15.1196C15.0196 15.0628 15.0196 15.0628 15.0615 15.0048C15.0859 14.9713 15.1102 14.9378 15.1353 14.9032C15.1966 14.82 15.1966 14.82 15.1874 14.7129C15.1506 14.7378 15.1506 14.7378 15.113 14.7631C13.0262 16.1729 13.0262 16.1729 12.0299 16.8354C11.2249 17.3709 10.4238 17.912 9.62307 18.4538C9.14223 18.7791 8.66102 19.1039 8.17973 19.4285C7.99147 19.5555 7.80323 19.6826 7.61501 19.8097C7.52647 19.8694 7.43785 19.9289 7.34914 19.9883C7.12985 20.1353 6.91195 20.2838 6.696 20.4357C6.65332 20.4653 6.61064 20.4948 6.56667 20.5253C6.4863 20.581 6.40638 20.6374 6.32702 20.6946C6.09432 20.8545 5.93394 20.9333 5.64247 20.8828C5.48901 20.7969 5.48901 20.7969 5.3788 20.6719C5.29059 20.2329 5.40289 19.7388 5.48427 19.3041C5.49591 19.2409 5.50755 19.1778 5.51955 19.1127C6.06895 16.2484 7.25573 13.5354 9.12294 11.2852C9.1456 11.2577 9.16825 11.2303 9.19159 11.2021C9.44686 10.8939 9.70223 10.5894 9.991 10.3116C10.0756 10.227 10.151 10.1382 10.2271 10.0459C10.3691 9.87733 10.5247 9.73611 10.6926 9.59374C10.8222 9.48206 10.9461 9.3653 11.0708 9.24829C11.4218 8.92839 11.7977 8.64333 12.1785 8.36004C12.2461 8.30975 12.3135 8.25925 12.3807 8.20843C12.9512 7.7771 13.5645 7.41973 14.1854 7.0664C14.2237 7.04445 14.2619 7.02249 14.3013 6.99987C16.7005 5.63323 19.4687 4.94722 22.2011 4.70325C22.2381 4.6999 22.2752 4.69655 22.3134 4.69309C23.6647 4.57366 23.6647 4.57366 23.9049 4.70952Z" fill="white"/>
<path d="M6.69731 1.68744C7.41613 1.93432 8.02889 2.32278 8.58236 2.84348C8.7014 2.95596 8.7014 2.95596 8.83738 3.06101C10.1188 4.0961 11.1355 6.24017 11.3379 7.85736C11.312 8.03552 11.2594 8.11037 11.1219 8.22403C11.0885 8.25214 11.0551 8.28024 11.0207 8.3092C10.9851 8.33847 10.9495 8.36773 10.9128 8.39789C10.8401 8.45908 10.7675 8.5204 10.695 8.58184C10.6602 8.61139 10.6253 8.64093 10.5893 8.67137C10.4386 8.80205 10.3001 8.94319 10.1615 9.08653C10.073 9.175 9.98096 9.25438 9.88445 9.33393C9.71811 9.47373 9.57941 9.6271 9.43909 9.79267C9.31791 9.93262 9.19084 10.0661 9.06377 10.2007C7.20364 12.2063 5.98841 14.7683 5.16802 17.3496C4.90973 17.1504 4.71741 16.9342 4.52202 16.6739C4.4923 16.6346 4.46258 16.5953 4.43196 16.5547C4.14249 16.1665 3.88207 15.7642 3.63872 15.3456C3.62005 15.3137 3.60138 15.2818 3.58215 15.249C2.20904 12.8739 2.00672 10.0477 2.70124 7.4231C3.31133 5.25291 4.46352 3.27808 6.11724 1.74018C6.30972 1.64393 6.49063 1.65459 6.69731 1.68744Z" fill="white"/>
</svg>
