<svg width="50" height="50" viewBox="0 0 50 50" fill="none" xmlns="http://www.w3.org/2000/svg">
<g clip-path="url(#clip0_1_364)">
<path d="M47.5598 -0.0342251C47.719 -0.0358591 47.8782 -0.0385455 48.0373 -0.042236C48.2704 -0.0475801 48.5032 -0.0497171 48.7363 -0.0511528C48.807 -0.0533666 48.8777 -0.0555804 48.9506 -0.0578613C49.3151 -0.0563372 49.5001 -0.00825199 49.8008 0.202477C50.0519 0.562546 50.0605 0.768525 50.0581 1.20541C50.0583 1.30986 50.0583 1.30986 50.0585 1.41642C50.058 1.64425 50.0537 1.8718 50.0489 2.09957C50.0471 2.25877 50.0453 2.41797 50.0435 2.57717C49.9709 7.28109 48.9046 11.9788 47.0887 16.3147C47.0547 16.3971 47.0207 16.4795 46.9856 16.5645C46.7872 17.0193 46.5906 17.362 46.1915 17.6757C45.8884 17.764 45.6194 17.7469 45.3126 17.6757C44.9517 17.3901 44.7512 17.1737 44.6893 16.716C44.6987 16.1277 44.9973 15.5933 45.2272 15.0634C45.5698 14.2502 45.8986 13.4406 46.161 12.5976C46.1847 12.5219 46.2085 12.4461 46.233 12.3681C46.3211 12.0767 46.3868 11.8295 46.3868 11.5234C46.2486 11.4896 46.2486 11.4896 46.1076 11.4551C43.3794 10.7701 41.1191 9.25129 39.6555 6.8216C39.0788 5.82339 38.697 4.74306 38.4767 3.61325C37.7551 3.73559 37.0826 3.93089 36.3954 4.18087C36.2911 4.21871 36.1868 4.25655 36.0793 4.29553C31.4741 6.00413 27.2959 8.5754 23.5353 11.7187C23.4849 11.7607 23.4345 11.8026 23.3825 11.8459C21.7093 13.2433 20.032 14.7422 18.6219 16.4096C18.4186 16.6464 18.2057 16.8734 17.9933 17.102C17.53 17.6101 17.1052 18.1413 16.6848 18.6851C16.4983 18.9264 16.3086 19.1646 16.1157 19.4008C15.4144 20.2599 14.7729 21.146 14.1603 22.0703C14.1161 22.1365 14.0719 22.2027 14.0264 22.2709C12.2952 24.8342 12.2952 24.8342 11.0353 27.6367C13.4039 30.0053 13.4039 30.0053 15.8204 32.4218C16.2139 32.2251 16.4178 32.0423 16.7243 31.7323C16.7742 31.6821 16.8241 31.6319 16.8756 31.5802C16.9836 31.4715 17.0914 31.3625 17.1989 31.2533C17.3693 31.0805 17.5402 30.9083 17.7113 30.7362C18.0744 30.3709 18.4367 30.0048 18.7989 29.6386C19.2187 29.2142 19.6388 28.7902 20.0597 28.3669C20.2281 28.1973 20.3958 28.0272 20.5635 27.857C20.6668 27.7529 20.7702 27.6489 20.8736 27.5449C20.9635 27.454 21.0534 27.3631 21.146 27.2694C21.5422 26.9097 21.822 26.8112 22.3664 26.8234C22.6703 26.874 22.8371 27.0298 23.047 27.2461C23.2016 27.5553 23.2075 27.8881 23.1446 28.2226C22.8845 28.6517 22.5895 28.9969 22.2346 29.3502C22.184 29.4008 22.1335 29.4513 22.0814 29.5034C21.916 29.6688 21.7498 29.8334 21.5837 29.998C21.4681 30.1131 21.3527 30.2283 21.2372 30.3436C20.9345 30.6455 20.6313 30.9469 20.3279 31.2481C20.0179 31.5561 19.7085 31.8646 19.399 32.1731C18.7926 32.7774 18.1856 33.3811 17.5782 33.9843C17.7286 34.3416 17.9436 34.5686 18.2171 34.8406C18.2619 34.8855 18.3066 34.9303 18.3528 34.9765C18.5003 35.1238 18.6485 35.2705 18.7966 35.4171C18.8993 35.5194 19.0019 35.6218 19.1045 35.7242C19.3741 35.993 19.6443 36.2613 19.9146 36.5295C20.1906 36.8034 20.466 37.0779 20.7414 37.3523C21.2815 37.8904 21.8223 38.4278 22.3634 38.9648C23.1654 38.6373 23.9282 38.2862 24.6827 37.8601C24.8397 37.7717 24.8397 37.7717 24.9998 37.6816C26.145 37.027 27.2381 36.3 28.3204 35.5468C28.4021 35.49 28.4839 35.4332 28.568 35.3747C29.5702 34.6738 30.5296 33.9293 31.4704 33.1484C31.7102 32.9504 31.9536 32.7568 32.1962 32.5622C32.7619 32.099 33.2941 31.6021 33.8277 31.1027C33.9765 30.9644 34.1266 30.8276 34.2775 30.6915C35.2421 29.8192 36.1999 28.9216 37.0412 27.9277C37.2514 27.6828 37.4705 27.4468 37.6893 27.2094C38.1376 26.7168 38.5564 26.2093 38.965 25.6836C39.0779 25.5386 39.1908 25.3936 39.3037 25.2487C39.5436 24.9406 39.7831 24.6322 40.0224 24.3236C40.0761 24.2546 40.1298 24.1856 40.1852 24.1146C40.3088 23.9557 40.4317 23.7964 40.5545 23.637C40.7626 23.3903 40.8969 23.3152 41.211 23.2422C41.6648 23.2422 41.8402 23.2911 42.1815 23.5962C42.4199 23.9863 42.4539 24.1599 42.3829 24.6093C42.1291 25.0989 41.8309 25.5236 41.4857 25.9521C41.4384 26.0115 41.3912 26.0708 41.3424 26.132C41.2015 26.3085 41.0599 26.4844 40.9181 26.6601C40.8441 26.7523 40.77 26.8444 40.6938 26.9394C40.4776 27.2061 40.2591 27.4707 40.0392 27.7343C39.9757 27.8105 39.9757 27.8105 39.9109 27.8882C38.8128 29.1999 37.6388 30.4349 36.432 31.6467C36.3558 31.7234 36.2795 31.8001 36.201 31.8791C35.7919 32.2871 35.3744 32.6789 34.9365 33.0558C34.7246 33.2386 34.5196 33.4283 34.3141 33.6181C33.709 34.1639 33.0671 34.6594 32.422 35.1562C32.3609 35.2034 32.2998 35.2505 32.2369 35.2991C31.876 35.5777 31.5145 35.8556 31.1525 36.1328C31.1925 36.2543 31.2325 36.3757 31.2738 36.5009C31.327 36.665 31.3801 36.8292 31.4332 36.9934C31.4595 37.0729 31.4858 37.1524 31.5129 37.2343C31.8304 38.2215 31.9701 39.1672 31.9642 40.2038C31.9637 40.3062 31.9631 40.4085 31.9626 40.514C31.9234 43.0384 30.9672 45.3073 29.2329 47.1439C28.8905 47.4635 28.5896 47.5586 28.1251 47.5586C27.6162 47.3274 27.2672 46.9078 26.889 46.509C26.7362 46.3497 26.5833 46.1905 26.4304 46.0312C26.3095 45.9048 26.3095 45.9048 26.1861 45.7758C25.7576 45.3293 25.3251 44.8867 24.8931 44.4437C24.3437 43.8802 23.7956 43.3157 23.2532 42.7454C22.8145 42.2841 22.3708 41.828 21.9237 41.3748C21.7545 41.2015 21.5871 41.0264 21.4215 40.8497C20.642 39.9344 20.642 39.9344 19.6069 39.4184C19.1118 39.4442 18.7041 39.6324 18.2618 39.8437C18.1044 39.892 17.9459 39.9375 17.7862 39.9777C17.656 40.0167 17.5259 40.056 17.3959 40.0955C17.2497 40.1388 17.1035 40.182 16.9572 40.2252C16.7353 40.291 16.5135 40.3572 16.292 40.4245C14.4825 40.9724 14.4825 40.9724 13.8673 40.8203C13.686 40.6951 13.686 40.6951 13.5063 40.5298C13.4046 40.4366 13.4046 40.4366 13.3009 40.3416C12.9223 39.9805 12.5496 39.6141 12.1801 39.2437C12.0969 39.1606 12.0137 39.0775 11.9279 38.9918C11.7536 38.8176 11.5794 38.6432 11.4053 38.4686C11.1378 38.2006 10.8698 37.9331 10.6017 37.6657C10.432 37.4959 10.2623 37.3261 10.0927 37.1563C10.0123 37.0761 9.93195 36.9959 9.84916 36.9134C9.77544 36.8393 9.70172 36.7653 9.62576 36.689C9.52813 36.5913 9.52813 36.5913 9.42853 36.4916C9.12451 36.1626 9.15273 35.8666 9.15757 35.4366C9.19637 34.9472 9.34086 34.495 9.48574 34.0278C9.51655 33.9239 9.54736 33.82 9.5791 33.713C9.70993 33.2718 9.84382 32.8316 9.9776 32.3913C10.0752 32.0684 10.1711 31.7451 10.267 31.4216C10.2979 31.322 10.3288 31.2224 10.3607 31.1198C10.3881 31.0272 10.4154 30.9346 10.4437 30.8392C10.4684 30.758 10.4931 30.6768 10.5186 30.5931C10.5542 30.3147 10.4929 30.22 10.3517 29.9804C10.2058 29.8079 10.2058 29.8079 10.0323 29.6421C9.96639 29.577 9.90053 29.5118 9.83267 29.4447C9.76047 29.3743 9.68827 29.3039 9.61389 29.2313C9.53782 29.1563 9.46174 29.0813 9.38337 29.004C9.21816 28.8412 9.05275 28.6786 8.88716 28.5162C8.62518 28.2589 8.36402 28.0009 8.10311 27.7426C7.36124 27.0082 6.61879 26.2744 5.87367 25.5433C5.41791 25.0961 4.96397 24.6471 4.51101 24.197C4.33809 24.0259 4.16455 23.8553 3.99037 23.6854C3.74676 23.4477 3.50535 23.2079 3.26432 22.9676C3.19193 22.898 3.11953 22.8283 3.04495 22.7566C2.72881 22.4373 2.50548 22.1991 2.43701 21.7453C2.44396 21.1923 2.66254 20.9777 3.0244 20.6001C4.99016 18.7064 7.59825 18.0162 10.2658 18.0454C11.5277 18.078 12.6884 18.4191 13.8673 18.8476C13.9183 18.7778 13.9693 18.7079 14.0218 18.6359C14.5113 17.9732 15.0231 17.3381 15.5595 16.7129C15.7911 16.4426 16.0137 16.1659 16.2355 15.8874C17.2048 14.7025 18.2989 13.6257 19.3788 12.5427C19.429 12.4922 19.4792 12.4418 19.5309 12.3898C20.0994 11.8191 20.6748 11.2638 21.2892 10.7422C21.395 10.6495 21.5006 10.5567 21.6062 10.4637C22.4796 9.70184 23.387 8.99265 24.3165 8.30075C24.4207 8.22276 24.4207 8.22276 24.527 8.1432C26.1977 6.89731 27.9471 5.77805 29.784 4.79356C29.9669 4.69485 30.1482 4.59383 30.3292 4.49177C35.4972 1.63033 41.657 0.0101344 47.5598 -0.0342251ZM40.5275 2.92965C40.594 4.7922 41.6879 6.35254 42.9689 7.61715C43.2491 7.86723 43.5378 8.08884 43.8478 8.30075C43.917 8.35047 43.9862 8.40019 44.0576 8.45143C44.5847 8.80136 45.1379 9.01501 45.7338 9.21627C45.8476 9.25481 45.8476 9.25481 45.9638 9.29412C46.3498 9.41828 46.6613 9.48517 47.0704 9.47262C47.2762 8.696 47.4414 7.92266 47.5648 7.12887C47.5813 7.02317 47.5979 6.91748 47.6149 6.80858C47.8579 5.21556 47.9821 3.66229 47.9493 2.05075C45.7416 1.97734 42.5295 1.92863 40.5275 2.92965ZM5.07824 21.582C5.2217 21.913 5.40615 22.1299 5.66017 22.3845C5.73968 22.4646 5.8192 22.5448 5.90113 22.6273C5.98709 22.7129 6.07305 22.7985 6.16161 22.8866C6.24974 22.9749 6.33787 23.0633 6.42868 23.1543C6.61495 23.3407 6.80141 23.5269 6.98821 23.7127C7.22795 23.9514 7.4668 24.1909 7.7054 24.4306C7.93293 24.659 8.16119 24.8867 8.38939 25.1144C8.47535 25.2008 8.56131 25.2871 8.64988 25.3761C8.72939 25.455 8.80891 25.5339 8.89084 25.6152C8.96094 25.6851 9.03105 25.7551 9.10328 25.8272C9.26392 25.9977 9.26392 25.9977 9.47277 25.9765C9.51314 25.8971 9.51314 25.8971 9.55433 25.8162C10.4629 24.0373 11.4751 22.3542 12.5978 20.7031C10.3323 19.1928 7.14379 20.3142 5.07824 21.582ZM12.3048 31.9336C12.0708 32.6233 11.8536 33.3169 11.6456 34.0149C11.6135 34.1194 11.5814 34.224 11.5483 34.3317C11.5185 34.4322 11.4887 34.5327 11.4579 34.6363C11.4307 34.7268 11.4034 34.8174 11.3753 34.9107C11.3243 35.1766 11.3385 35.2941 11.4259 35.5468C11.5488 35.7195 11.5488 35.7195 11.7083 35.8811C11.7678 35.9443 11.8272 36.0075 11.8884 36.0726C11.9532 36.1395 12.0179 36.2065 12.0847 36.2754C12.1851 36.3794 12.1851 36.3794 12.2874 36.4854C12.4294 36.6314 12.5719 36.777 12.7148 36.9222C12.9323 37.1447 13.1455 37.3708 13.359 37.5972C13.4975 37.7388 13.6363 37.88 13.7754 38.0211C13.8384 38.0892 13.9014 38.1573 13.9663 38.2275C14.3206 38.5806 14.3206 38.5806 14.7944 38.6741C15.0475 38.6255 15.2833 38.5583 15.5275 38.4765C15.638 38.4485 15.7485 38.4205 15.8624 38.3916C16.0082 38.3502 16.0082 38.3502 16.1569 38.3079C16.2639 38.2777 16.3709 38.2475 16.4811 38.2164C16.5894 38.1854 16.6977 38.1544 16.8092 38.1225C16.9212 38.0908 17.0333 38.0591 17.1487 38.0264C17.4222 37.9489 17.6956 37.8711 17.9689 37.7929C17.9689 37.4357 17.859 37.3554 17.6167 37.1103C17.5389 37.0338 17.5388 37.0338 17.4594 36.9557C17.4053 36.9014 17.3512 36.8471 17.2954 36.7911C17.1158 36.6112 16.9353 36.4325 16.7546 36.2537C16.63 36.1294 16.5055 36.005 16.3809 35.8806C16.1197 35.6198 15.8581 35.3595 15.596 35.0996C15.2593 34.7657 14.9234 34.4308 14.5878 34.0957C14.3306 33.8389 14.0731 33.5823 13.8155 33.3259C13.6915 33.2025 13.5675 33.079 13.4437 32.9555C13.2709 32.7834 13.0977 32.6116 12.9245 32.4399C12.8728 32.3883 12.8211 32.3367 12.7679 32.2836C12.5697 32.0411 12.5697 32.0411 12.3048 31.9336ZM29.297 37.4023C29.2082 37.4626 29.1195 37.5229 29.028 37.585C27.4257 38.6675 25.7616 39.6762 24.0235 40.5273C24.167 40.8583 24.3515 41.0752 24.6055 41.3298C24.685 41.41 24.7645 41.4901 24.8464 41.5726C24.9324 41.6582 25.0184 41.7438 25.1069 41.8319C25.1951 41.9203 25.2832 42.0086 25.374 42.0996C25.5603 42.286 25.7467 42.4722 25.9335 42.6581C26.1733 42.8967 26.4121 43.1362 26.6507 43.3759C26.8782 43.6043 27.1065 43.832 27.3347 44.0597C27.4207 44.1461 27.5066 44.2324 27.5952 44.3214C27.6747 44.4003 27.7542 44.4792 27.8361 44.5605C27.9413 44.6654 27.9413 44.6654 28.0486 44.7725C28.2092 44.943 28.2092 44.943 28.4181 44.9218C29.2988 43.4641 29.9225 42.0511 29.9195 40.3198C29.9195 40.2317 29.9195 40.1436 29.9195 40.0528C29.9046 39.1622 29.8007 38.1578 29.297 37.4023Z" fill="#2D6B5E"/>
<path d="M35.4797 13.6413C36.9079 14.8983 37.8035 16.622 37.928 18.5238C37.9972 20.3622 37.5099 22.078 36.2854 23.4802C36.1388 23.6306 35.9903 23.7792 35.8398 23.9257C35.7751 23.9936 35.7104 24.0615 35.6438 24.1314C34.4479 25.3067 32.6967 25.8818 31.0486 25.9033C29.172 25.8866 27.4541 25.1995 26.0986 23.9013C24.8134 22.5593 24.1291 20.8574 24.0845 19.0002C24.1295 17.3238 24.6449 15.7175 25.7812 14.4531C25.849 14.3753 25.9167 14.2975 25.9865 14.2173C28.4761 11.5331 32.6634 11.4232 35.4797 13.6413ZM27.3407 15.7825C26.4387 16.876 26.071 18.1238 26.1719 19.5312C26.4044 20.9501 27.0444 22.0154 28.1506 22.9381C29.2264 23.705 30.5393 23.9926 31.8386 23.7796C33.2906 23.4489 34.382 22.6963 35.2081 21.4473C35.8484 20.3048 36.013 19.0382 35.73 17.7612C35.3795 16.5377 34.6554 15.4746 33.5407 14.8265C31.4145 13.6838 29.0221 13.9885 27.3407 15.7825Z" fill="#2D6B5E"/>
<path d="M10.2906 38.5742C10.3752 38.6387 10.4598 38.7031 10.547 38.7695C10.6276 38.8239 10.7081 38.8783 10.7911 38.9343C11.5825 39.6663 12.0139 40.6577 12.058 41.7263C12.0726 42.9201 11.7764 43.8493 10.9376 44.7266C9.0336 46.5031 6.21952 47.5894 3.93188 48.7612C3.62099 48.9219 3.31209 49.0859 3.00343 49.2508C2.81412 49.35 2.62478 49.4492 2.43542 49.5484C2.30926 49.6173 2.30926 49.6173 2.18055 49.6876C1.61786 49.9782 1.12287 50.1024 0.488396 50C0.18322 49.8169 0.18322 49.8169 0.000114635 49.5117C-0.116261 48.7713 0.088509 48.2214 0.428887 47.5754C0.473418 47.4872 0.517949 47.3989 0.56383 47.308C0.707671 47.0243 0.854279 46.7422 1.00109 46.46C1.10089 46.2649 1.20056 46.0697 1.30009 45.8744C1.57987 45.3275 1.86325 44.7824 2.14855 44.2383C2.18343 44.1718 2.2183 44.1052 2.25424 44.0366C2.59851 43.3812 2.95446 42.7333 3.32043 42.0899C3.36627 42.0081 3.4121 41.9264 3.45933 41.8422C5.26328 38.6262 5.26328 38.6262 7.01153 38.0257C8.18025 37.8226 9.26998 37.9694 10.2906 38.5742ZM6.43551 40.8859C5.70127 41.9806 5.10893 43.1729 4.4923 44.336C4.43894 44.436 4.38558 44.536 4.33061 44.6391C4.17848 44.9243 4.02701 45.2099 3.87585 45.4956C3.82954 45.5827 3.78323 45.6697 3.73551 45.7594C3.69358 45.8393 3.65164 45.9192 3.60844 46.0015C3.57151 46.0714 3.53459 46.1414 3.49655 46.2135C3.40465 46.3847 3.40465 46.3847 3.41808 46.582C3.83641 46.4523 4.21568 46.2917 4.60522 46.0919C4.6896 46.0486 4.6896 46.0486 4.7757 46.0046C4.95822 45.9108 5.14034 45.8162 5.32238 45.7215C5.3847 45.6891 5.44702 45.6568 5.51123 45.6235C6.36948 45.1778 7.21701 44.7168 8.05065 44.2261C8.13713 44.1754 8.22362 44.1247 8.31272 44.0724C9.04068 43.6366 9.69985 43.2314 9.96105 42.3828C10.0416 41.7969 10.0057 41.3209 9.66808 40.8203C9.28938 40.3802 8.93304 40.0918 8.34858 40.0009C7.48749 39.9481 6.96638 40.211 6.43551 40.8859Z" fill="#2D6B5E"/>
<path d="M44.0428 19.5313C44.3119 19.7443 44.476 19.9094 44.6287 20.2149C44.6872 20.7294 44.5559 20.9848 44.2381 21.3867C43.9005 21.5556 43.533 21.5322 43.1639 21.4844C42.8836 21.3092 42.7253 21.1931 42.5779 20.8985C42.5212 20.2061 42.5212 20.2061 42.761 19.8303C43.1398 19.4628 43.5338 19.4504 44.0428 19.5313Z" fill="#2D6B5E"/>
</g>
<defs>
<clipPath id="clip0_1_364">
<rect width="50" height="50" fill="white"/>
</clipPath>
</defs>
</svg>
