<svg width="29" height="38" viewBox="0 0 29 38" fill="none" xmlns="http://www.w3.org/2000/svg">
<g clip-path="url(#clip0_104_1075)">
<path d="M14.4938 0C12.7022 1.63074 7.58785 5.63174 0.464936 5.93513C0.0123917 9.77179 -1.45683 26.0476 5.08336 33.822C7.41427 36.5905 10.5821 38 14.4938 38C18.4055 38 21.5733 36.5968 23.9042 33.822C30.4506 26.0476 28.9876 9.76547 28.535 5.93513C21.4121 5.63174 16.2916 1.62442 14.4876 0H14.4938ZM15.5725 8.42548C15.8142 7.59747 16.2978 6.88955 16.9363 6.42814C17.6368 5.92249 18.4675 5.75815 19.2176 5.9857C20.6992 6.44079 21.4679 8.26747 20.941 10.0689C20.4884 11.5921 19.2486 12.6098 17.984 12.6098C17.7546 12.6098 17.5252 12.5782 17.2958 12.5087C16.5457 12.2811 15.9382 11.6743 15.6283 10.8589C15.3493 10.1194 15.3307 9.25349 15.5725 8.4318V8.42548ZM10.2659 5.99202C11.016 5.75815 11.8467 5.92249 12.5472 6.43446C13.1796 6.89588 13.6631 7.60379 13.9111 8.4318C14.4442 10.2269 13.6693 12.0599 12.1877 12.515C11.9645 12.5845 11.7289 12.6161 11.4934 12.6161C10.9478 12.6161 10.3961 12.4328 9.90016 12.0725C9.26784 11.6111 8.7843 10.9032 8.53633 10.0752C8.0032 8.28011 8.7781 6.44711 10.2597 5.99202H10.2659ZM3.79392 17.1607C2.74005 15.6248 2.90743 13.6401 4.17827 12.7362C4.82299 12.2748 5.65989 12.161 6.47819 12.4265C7.2221 12.6667 7.89781 13.185 8.38135 13.8866C9.43522 15.4225 9.26784 17.4072 7.997 18.311C7.57545 18.6144 7.08571 18.7535 6.57738 18.7535C5.5669 18.7535 4.49444 18.1846 3.78772 17.1607H3.79392ZM22.5342 26.1613C22.3544 27.8237 21.2076 29.1257 19.6206 29.4797C19.0006 29.6124 16.8681 29.682 14.7356 29.682C12.603 29.682 10.4643 29.6124 9.85057 29.4797C8.26357 29.1321 7.12291 27.83 6.93693 26.1613C6.75715 24.5496 7.56925 23.0642 8.99508 22.3879C10.1605 21.8317 10.7247 20.8393 10.7247 19.3413C10.7247 16.4275 12.7394 14.9042 14.7294 14.9042C16.7193 14.9042 18.7341 16.4275 18.7341 19.3413C18.7341 20.8393 19.2982 21.838 20.4637 22.3879C21.8895 23.0642 22.6954 24.5432 22.5218 26.1613H22.5342ZM25.6834 17.1607C24.9829 18.1846 23.9104 18.7535 22.8938 18.7535C22.3854 18.7535 21.8957 18.6081 21.4741 18.311C20.8294 17.8496 20.4389 17.0848 20.3955 16.2126C20.3583 15.4225 20.6062 14.5945 21.0898 13.8866C22.1436 12.3506 24.0344 11.8323 25.2991 12.7362C26.5637 13.6401 26.7373 15.6248 25.6772 17.1607H25.6834Z" fill="#1B453C"/>
</g>
<defs>
<clipPath id="clip0_104_1075">
<rect width="29" height="38" fill="white"/>
</clipPath>
</defs>
</svg>
