<svg width="36" height="36" viewBox="0 0 36 36" fill="none" xmlns="http://www.w3.org/2000/svg">
<g clip-path="url(#clip0_104_1044)">
<path d="M35.9997 36V30.0015H32.9982C29.9967 30.0015 27.0312 30.906 24.1782 32.688C22.0677 34.0065 19.9122 35.0955 17.7207 36H35.9952H35.9997Z" fill="#1B453C"/>
<path d="M32.9985 23.9985C30.4155 23.9985 27.9045 24.48 25.497 25.3755V17.865C29.754 17.1495 32.9985 13.4595 32.9985 9C32.9985 4.0275 28.971 0 23.9985 0C19.026 0 14.9985 4.0275 14.9985 9C14.9985 13.4595 18.243 17.1495 22.5 17.865V26.7345C21.996 27.0045 21.492 27.2925 21.0015 27.603C15.3405 31.1355 9.234 32.9895 3.0015 33.003H0V36.0045H3.006C9.7965 35.991 16.3845 34.0245 22.59 30.15C25.9245 28.062 29.43 27.0045 32.9985 27.0045H36V24.003H32.9985V23.9985Z" fill="#1B453C"/>
<path d="M16.551 18.3915C13.7835 16.191 12.0015 12.8025 12.0015 9C12.0015 7.6905 12.2175 6.435 12.609 5.256C11.502 4.77 10.287 4.5 9.0045 4.5C4.0275 4.5 0 8.5275 0 13.5C0 17.955 3.2445 21.6495 7.5015 22.365V25.146C5.13 24.408 2.6145 23.9985 0 23.9985V29.997H3.0015C6.6015 29.9925 10.152 29.304 13.608 27.9675C12.618 27.3375 11.5785 26.775 10.503 26.2845V22.3605C13.032 21.933 15.21 20.4615 16.551 18.3915Z" fill="#1B453C"/>
</g>
<defs>
<clipPath id="clip0_104_1044">
<rect width="36" height="36" fill="white"/>
</clipPath>
</defs>
</svg>
