<svg width="39" height="39" viewBox="0 0 39 39" fill="none" xmlns="http://www.w3.org/2000/svg">
<g clip-path="url(#clip0_104_1052)">
<path d="M34.2479 28.592C33.3843 29.1504 31.9158 30.0044 29.9591 30.6901C28.3487 28.8179 26.8593 26.5269 21.273 26.3668C15.9828 26.2148 9.62469 27.6518 6.86699 28.3211C6.13689 28.4976 5.84902 29.3557 6.31211 29.9387C8.52745 32.7306 14.8522 39.0903 22.4912 39C29.5377 38.8522 29.8339 36.4175 29.7839 35.1858C25.1112 36.0439 19.9337 34.7547 14.6812 31.7411C16.6879 32.591 21.9405 33.9418 26.4171 33.5271C31.0855 33.1822 34.6234 31.3429 35.6914 30.842C36.5801 30.4314 36.7011 29.3434 36.0127 28.7316C35.5246 28.2882 34.8028 28.2348 34.2479 28.592Z" fill="#1B453C"/>
<path d="M13.6173 16.2175C16.3958 11.7834 18.3108 5.64948 19.0993 2.96436C19.3079 2.25407 18.6988 1.58074 17.952 1.68338C14.3891 2.17606 5.63202 4.38903 1.88555 10.9376C-1.5063 17.0182 0.487924 18.488 1.59351 19.0587C3.1747 14.6492 6.89614 10.8801 12.1779 7.90762C10.4257 9.1927 6.61244 12.9946 4.73504 17.014C2.70326 21.169 2.55307 25.0982 2.46129 26.2601C2.38202 27.2249 3.27483 27.8695 4.1593 27.5903C4.79344 27.3974 5.2023 26.8061 5.16475 26.1574C5.10634 25.1392 5.08548 23.4641 5.46097 21.4564C7.91411 21.0212 10.676 20.8939 13.6089 16.2175H13.6173Z" fill="#1B453C"/>
<path d="M36.8894 7.41076C33.2347 1.47803 30.9443 2.44287 29.8888 3.10389C32.9803 6.65532 34.4363 11.7135 34.4071 17.6996C34.1526 15.5647 32.7132 10.4161 30.1099 6.80723C27.469 3.00125 24.0855 0.903236 23.1093 0.246325C22.3041 -0.303838 21.2861 0.135471 21.09 1.03051C20.944 1.6669 21.2611 2.31149 21.8493 2.60299C22.7755 3.05873 24.2607 3.88397 25.8378 5.21011C24.995 7.51751 23.7226 9.93577 26.376 14.7764C28.8875 19.3624 33.3307 24.0594 35.2999 26.0753C35.8214 26.609 36.7184 26.4283 36.9979 25.7386C38.3455 22.454 40.7819 13.8854 36.8853 7.41897L36.8894 7.41076Z" fill="#1B453C"/>
</g>
<defs>
<clipPath id="clip0_104_1052">
<rect width="39" height="39" fill="white"/>
</clipPath>
</defs>
</svg>
