<svg width="30" height="35" viewBox="0 0 30 35" fill="none" xmlns="http://www.w3.org/2000/svg">
<g clip-path="url(#clip0_104_1078)">
<path d="M5.59375 7.5L15 2.79375L24.4062 7.5L28.8812 9.7375L30 7.5L15 0L0 7.5L1.11875 9.7375L5.59375 7.5Z" fill="#1B453C"/>
<path d="M27.5 10.4437L15 4.19373L2.5 10.4437V27.5H0.625V30H2.5V35H5V32.5H25V35H27.5V30H29.375V27.5H27.5V10.4437ZM19.375 19.375H10.625V17.5H19.375V19.375ZM19.375 9.99998H21.875C22.2188 9.99998 22.5 10.2812 22.5 10.625C22.5 10.9687 22.2188 11.25 21.875 11.25H19.375C19.0312 11.25 18.75 10.9687 18.75 10.625C18.75 10.2812 19.0312 9.99998 19.375 9.99998ZM15 8.74998C16.0375 8.74998 16.875 9.58748 16.875 10.625C16.875 11.6625 16.0375 12.5 15 12.5C13.9625 12.5 13.125 11.6625 13.125 10.625C13.125 9.58748 13.9625 8.74998 15 8.74998ZM8.125 9.99998H10.625C10.9688 9.99998 11.25 10.2812 11.25 10.625C11.25 10.9687 10.9688 11.25 10.625 11.25H8.125C7.78125 11.25 7.5 10.9687 7.5 10.625C7.5 10.2812 7.78125 9.99998 8.125 9.99998ZM11.25 20.625H18.75V27.5H11.25V20.625Z" fill="#1B453C"/>
</g>
<defs>
<clipPath id="clip0_104_1078">
<rect width="30" height="35" fill="white"/>
</clipPath>
</defs>
</svg>
