<svg width="40" height="40" viewBox="0 0 40 40" fill="none" xmlns="http://www.w3.org/2000/svg">
<g clip-path="url(#clip0_104_1057)">
<path d="M8.60639 16.4839L11.2516 11.1871C10.8451 11.0387 10.4645 10.8452 10.1032 10.6129L7.45801 15.9097C7.86446 16.0581 8.2451 16.2516 8.60639 16.4839Z" fill="#1B453C"/>
<path d="M28.781 6.81292L19.9939 5.48389C19.9681 5.9226 19.9036 6.3484 19.7939 6.76131L28.4649 8.07098C28.523 7.63873 28.6327 7.21292 28.781 6.81292Z" fill="#1B453C"/>
<path d="M35.4837 21.9678V15.4517C35.2708 15.471 35.0579 15.4839 34.8385 15.4839C34.6192 15.4839 34.4063 15.471 34.1934 15.4517V21.9678C34.4063 21.9484 34.6192 21.9355 34.8385 21.9355C35.0579 21.9355 35.2708 21.9484 35.4837 21.9678Z" fill="#1B453C"/>
<path d="M29.0451 31.2194C28.8516 30.8387 28.7032 30.4387 28.5935 30.0129L23.2129 32.0065C23.4064 32.3871 23.5548 32.7871 23.6645 33.2129L29.0451 31.2194Z" fill="#1B453C"/>
<path d="M9.10938 27.0323L12.5287 30.6323C12.8126 30.3033 13.1287 30.0065 13.4707 29.742L10.0513 26.142C9.76744 26.471 9.45131 26.7678 9.10938 27.0323Z" fill="#1B453C"/>
<path d="M11.3936 20.2838C11.5097 20.6967 11.5742 21.1225 11.6 21.5612L13.7742 21.2128C13.671 20.7999 13.6 20.3677 13.5742 19.9354L11.3936 20.2838Z" fill="#1B453C"/>
<path d="M18.1614 12.271L17.1872 10.4839C16.8324 10.729 16.4518 10.942 16.0518 11.1032L17.0324 12.8968C17.3872 12.6581 17.7679 12.4452 18.1614 12.271Z" fill="#1B453C"/>
<path d="M28.0648 23.0968C27.8583 23.471 27.6196 23.8323 27.3486 24.1678L29.1422 25.3613C29.3422 24.9807 29.5809 24.6194 29.8519 24.2904L28.0648 23.0968Z" fill="#1B453C"/>
<path d="M18.7938 26.6838L18.3486 28.458C18.7809 28.5161 19.2002 28.6193 19.6002 28.7677L20.0454 26.9935C19.6196 26.929 19.2002 26.8258 18.7938 26.6838Z" fill="#1B453C"/>
<path d="M29.1808 12.1355L26.8711 14C27.1743 14.3097 27.4453 14.6452 27.6904 15.0065L29.9163 13.2065C29.6388 12.8774 29.3937 12.5161 29.1808 12.1355Z" fill="#1B453C"/>
<path d="M14.8389 19.3548C14.8389 22.9096 17.7356 25.8064 21.2905 25.8064C24.8453 25.8064 27.7421 22.9096 27.7421 19.3548C27.7421 15.8 24.8453 12.9032 21.2905 12.9032C17.7356 12.9032 14.8389 15.8 14.8389 19.3548ZM21.2905 15.7677C22.2776 15.7677 23.084 16.5677 23.084 17.5613C23.084 18.5548 22.284 19.3548 21.2905 19.3548C20.2969 19.3548 19.4969 18.5548 19.4969 17.5613C19.4969 16.5677 20.2969 15.7677 21.2905 15.7677ZM18.426 21.5032C18.426 20.7161 19.0711 20.0709 19.8582 20.0709H22.7227C23.5098 20.0709 24.155 20.7161 24.155 21.5032V23.6387C23.3356 24.1871 22.3485 24.5097 21.2905 24.5097C20.2324 24.5097 19.2453 24.1871 18.426 23.6387V21.5032Z" fill="#1B453C"/>
<path d="M5.16129 27.0968C8.00645 27.0968 10.3226 24.7806 10.3226 21.9355C10.3226 19.0903 8.00645 16.7742 5.16129 16.7742C2.31613 16.7742 0 19.0903 0 21.9355C0 24.7806 2.31613 27.0968 5.16129 27.0968ZM5.16129 18.7097C6.05161 18.7097 6.77419 19.4322 6.77419 20.3226C6.77419 21.2129 6.05161 21.9355 5.16129 21.9355C4.27097 21.9355 3.54839 21.2129 3.54839 20.3226C3.54839 19.4322 4.27097 18.7097 5.16129 18.7097ZM2.58065 23.8709C2.58065 23.1613 3.16129 22.5806 3.87097 22.5806H6.45161C7.16129 22.5806 7.74194 23.1613 7.74194 23.8709V24.8129C7.05806 25.4258 6.15484 25.8064 5.16129 25.8064C4.16774 25.8064 3.26452 25.4258 2.58065 24.8129V23.8709Z" fill="#1B453C"/>
<path d="M13.548 0C10.7028 0 8.38672 2.31613 8.38672 5.16129C8.38672 8.00645 10.7028 10.3226 13.548 10.3226C16.3932 10.3226 18.7093 8.00645 18.7093 5.16129C18.7093 2.31613 16.3932 0 13.548 0ZM13.548 1.93548C14.4383 1.93548 15.1609 2.65806 15.1609 3.54839C15.1609 4.43871 14.4383 5.16129 13.548 5.16129C12.6577 5.16129 11.9351 4.43871 11.9351 3.54839C11.9351 2.65806 12.6577 1.93548 13.548 1.93548ZM16.1287 8.03871C15.4448 8.65161 14.5416 9.03226 13.548 9.03226C12.5545 9.03226 11.6512 8.65161 10.9674 8.03871V7.09677C10.9674 6.3871 11.548 5.80645 12.2577 5.80645H14.8383C15.548 5.80645 16.1287 6.3871 16.1287 7.09677V8.03871Z" fill="#1B453C"/>
<path d="M34.839 3.87097C31.9939 3.87097 29.6777 6.1871 29.6777 9.03226C29.6777 11.8774 31.9939 14.1936 34.839 14.1936C37.6842 14.1936 40.0003 11.8774 40.0003 9.03226C40.0003 6.1871 37.6842 3.87097 34.839 3.87097ZM34.839 5.80646C35.7293 5.80646 36.4519 6.52904 36.4519 7.41936C36.4519 8.30968 35.7293 9.03226 34.839 9.03226C33.9487 9.03226 33.2261 8.30968 33.2261 7.41936C33.2261 6.52904 33.9487 5.80646 34.839 5.80646ZM37.4197 11.9097C36.7358 12.5226 35.8326 12.9032 34.839 12.9032C33.8455 12.9032 32.9423 12.5226 32.2584 11.9097V10.9677C32.2584 10.2581 32.839 9.67742 33.5487 9.67742H36.1293C36.839 9.67742 37.4197 10.2581 37.4197 10.9677V11.9097Z" fill="#1B453C"/>
<path d="M22.5804 34.8387C22.5804 31.9935 20.2643 29.6774 17.4191 29.6774C14.5739 29.6774 12.2578 31.9935 12.2578 34.8387C12.2578 37.6838 14.5739 39.9999 17.4191 39.9999C20.2643 39.9999 22.5804 37.6838 22.5804 34.8387ZM17.4191 31.6129C18.3094 31.6129 19.032 32.3354 19.032 33.2258C19.032 34.1161 18.3094 34.8387 17.4191 34.8387C16.5288 34.8387 15.8062 34.1161 15.8062 33.2258C15.8062 32.3354 16.5288 31.6129 17.4191 31.6129ZM19.9997 37.7161C19.3159 38.329 18.4127 38.7096 17.4191 38.7096C16.4256 38.7096 15.5223 38.329 14.8385 37.7161V36.7741C14.8385 36.0645 15.4191 35.4838 16.1288 35.4838H18.7094C19.4191 35.4838 19.9997 36.0645 19.9997 36.7741V37.7161Z" fill="#1B453C"/>
<path d="M34.839 23.2258C31.9939 23.2258 29.6777 25.542 29.6777 28.3871C29.6777 31.2323 31.9939 33.5484 34.839 33.5484C37.6842 33.5484 40.0003 31.2323 40.0003 28.3871C40.0003 25.542 37.6842 23.2258 34.839 23.2258ZM34.839 25.1613C35.7293 25.1613 36.4519 25.8839 36.4519 26.7742C36.4519 27.6645 35.7293 28.3871 34.839 28.3871C33.9487 28.3871 33.2261 27.6645 33.2261 26.7742C33.2261 25.8839 33.9487 25.1613 34.839 25.1613ZM37.4197 31.2645C36.7358 31.8774 35.8326 32.2581 34.839 32.2581C33.8455 32.2581 32.9423 31.8774 32.2584 31.2645V30.3226C32.2584 29.6129 32.839 29.0323 33.5487 29.0323H36.1293C36.839 29.0323 37.4197 29.6129 37.4197 30.3226V31.2645Z" fill="#1B453C"/>
</g>
<defs>
<clipPath id="clip0_104_1057">
<rect width="40" height="40" fill="white"/>
</clipPath>
</defs>
</svg>
