<svg width="37" height="29" viewBox="0 0 37 29" fill="none" xmlns="http://www.w3.org/2000/svg">
<path d="M1.41496 28.6007C1.41496 27.2601 2.0841 26.0499 3.16349 25.182C3.79679 24.6727 4.57347 24.2775 5.43778 24.0452V21.6412C4.09949 21.6901 2.98027 21.2541 2.08012 20.3332C1.12818 19.3634 0.439125 17.8476 0.00896173 15.794C-0.00298724 15.741 -0.00298724 15.684 0.00896173 15.6269C0.0527746 15.4069 0.263873 15.2684 0.478955 15.3132C2.47045 15.7492 3.94017 16.446 4.90804 17.4198C5.11516 17.6317 5.28643 17.8395 5.4338 18.0555V16.0915C4.09949 16.1404 2.98027 15.7044 2.08012 14.7835C1.12818 13.8056 0.439125 12.2898 0.00896173 10.2362C-0.00298724 10.1832 -0.00298724 10.1262 0.00896173 10.0691C0.0527746 9.84908 0.263873 9.71054 0.478955 9.75536C2.48638 10.1913 3.97204 10.9003 4.91999 11.8742C5.11117 12.0698 5.28244 12.2817 5.4338 12.4976V11.4097C4.35839 10.4521 3.82068 9.29085 3.82068 7.92583C3.82068 6.56082 4.38229 4.97985 5.49752 3.21552C5.61701 3.02809 5.86396 2.97512 6.04718 3.09736C6.09896 3.12995 6.13878 3.17478 6.16667 3.22367C7.2819 4.98393 7.83952 6.55267 7.83952 7.92583C7.83952 9.299 7.30182 10.4521 6.22641 11.4097V12.4161C6.36183 12.2287 6.51319 12.0453 6.68446 11.8742C7.63639 10.9003 9.11806 10.1954 11.1255 9.75536C11.3406 9.71054 11.5517 9.84908 11.5955 10.0691C11.6074 10.1262 11.6074 10.1832 11.5955 10.2362C11.1693 12.2898 10.4763 13.8096 9.51238 14.7916C8.61621 15.6962 7.52487 16.1241 6.22641 16.0874V17.9699C6.36183 17.7824 6.51319 17.5991 6.6964 17.4157C7.66427 16.4419 9.134 15.741 11.1255 15.3091C11.3406 15.2643 11.5517 15.4028 11.5955 15.6229C11.6074 15.6799 11.6074 15.737 11.5955 15.7899C11.1693 17.8436 10.4763 19.3634 9.52433 20.3332C8.63612 21.2418 7.53682 21.6778 6.22243 21.6412V23.8781C6.55302 23.8292 6.89555 23.8048 7.24207 23.8048C7.52487 23.8048 7.81164 23.8211 8.09443 23.8537C8.29757 23.8781 8.49672 23.9107 8.69587 23.9556C9.1101 23.5236 9.63187 23.1692 10.2293 22.9165C10.8746 22.6394 11.6114 22.4846 12.3881 22.4846C12.6908 22.4846 12.9895 22.5091 13.2763 22.5539C13.4595 22.5824 13.6467 22.6191 13.826 22.668C14.2004 22.0853 14.75 21.5923 15.4192 21.2337C16.0525 20.8955 16.7933 20.6755 17.5899 20.6184V18.6096C16.2556 18.6585 15.1364 18.2225 14.2362 17.3016C13.2803 16.3237 12.5912 14.8079 12.1611 12.7543C12.1491 12.7013 12.1491 12.6443 12.1611 12.5872C12.2049 12.3672 12.416 12.2287 12.6311 12.2735C14.6385 12.7095 16.1202 13.4185 17.0721 14.3923C17.2633 14.5879 17.4385 14.7998 17.5859 15.0198V13.0558C16.2516 13.1047 15.1324 12.6687 14.2322 11.7479C13.2763 10.7699 12.5872 9.25417 12.1571 7.20054C12.1451 7.14757 12.1451 7.09053 12.1571 7.03348C12.2009 6.81345 12.412 6.67491 12.6271 6.71973C14.6345 7.15572 16.1162 7.86471 17.0681 8.83856C17.2593 9.03414 17.4306 9.24195 17.5819 9.46198V8.37812C16.5065 7.42058 15.9688 6.2593 15.9688 4.89428C15.9688 3.52927 16.5304 1.9483 17.6456 0.183972C17.7651 -0.00346221 18.0121 -0.0564328 18.1953 0.0658071C18.2471 0.0984044 18.2869 0.143226 18.3148 0.192122C19.43 1.95238 19.9876 3.52112 19.9876 4.89428C19.9876 6.26745 19.4499 7.42058 18.3745 8.37812V9.38456C18.51 9.19713 18.6653 9.01377 18.8326 8.83856C19.7845 7.86471 21.2662 7.1598 23.2736 6.71973C23.4887 6.67491 23.6998 6.81345 23.7436 7.03348C23.7556 7.09053 23.7556 7.14757 23.7436 7.20054C23.3174 9.25417 22.6244 10.7699 21.6725 11.7438C20.7803 12.6524 19.681 13.0884 18.3706 13.0558V14.9383C18.506 14.7509 18.6613 14.5675 18.8286 14.3923C19.7805 13.4185 21.2622 12.7095 23.2696 12.2735C23.4847 12.2287 23.6958 12.3672 23.7396 12.5872C23.7516 12.6443 23.7516 12.7013 23.7396 12.7543C23.3134 14.8079 22.6204 16.3196 21.6685 17.2976C20.7763 18.2062 19.677 18.6422 18.3666 18.6096V20.6184C19.1632 20.6714 19.904 20.8955 20.5373 21.2337C21.2064 21.5923 21.7561 22.0853 22.1305 22.668C22.3097 22.6191 22.4969 22.5824 22.6801 22.5498C22.9669 22.505 23.2656 22.4805 23.5684 22.4805C24.345 22.4805 25.0819 22.6354 25.7271 22.9124C26.3246 23.1651 26.8503 23.5236 27.2646 23.9515C27.4637 23.9067 27.6669 23.8741 27.866 23.8496C28.1488 23.817 28.4316 23.8007 28.7184 23.8007C29.4632 23.8007 30.1761 23.9148 30.8333 24.1226V21.9834C29.511 22.0323 28.3997 21.6045 27.4916 20.6877C26.5277 19.7016 25.8387 18.1858 25.4085 16.1322C25.3965 16.0792 25.3965 16.0222 25.4085 15.9651C25.4523 15.7451 25.6634 15.6066 25.8785 15.6514C27.8859 16.0874 29.3676 16.7964 30.3195 17.7702C30.5107 17.9658 30.682 18.1777 30.8333 18.3936V16.4297C29.495 16.4786 28.3758 16.0426 27.4757 15.1217C26.5237 14.1478 25.8347 12.6321 25.4045 10.5784C25.3926 10.5255 25.3926 10.4684 25.4045 10.4114C25.4483 10.1913 25.6594 10.0528 25.8745 10.0976C27.866 10.5295 29.3357 11.2304 30.3036 12.2042C30.5107 12.4161 30.682 12.6198 30.8293 12.8399V11.756C29.7539 10.7985 29.2162 9.63719 29.2162 8.27218C29.2162 6.90717 29.7778 5.3262 30.8931 3.56187C31.0126 3.37443 31.2595 3.32146 31.4427 3.4437C31.4945 3.4763 31.5343 3.52112 31.5622 3.57002C32.6775 5.33027 33.2351 6.89902 33.2351 8.27218C33.2351 9.64534 32.6974 10.7985 31.622 11.756V12.7625C31.7574 12.575 31.9127 12.3917 32.08 12.2165C33.0319 11.2426 34.5136 10.5377 36.521 10.0976C36.7361 10.0528 36.9472 10.1913 36.991 10.4114C37.003 10.4684 37.003 10.5255 36.991 10.5784C36.5649 12.6321 35.8718 14.1478 34.9199 15.1217C34.0317 16.0303 32.9324 16.4663 31.618 16.4297V18.3122C31.7534 18.1247 31.9087 17.9414 32.076 17.7661C33.028 16.7923 34.5096 16.0833 36.5171 15.6473C36.7321 15.6025 36.9432 15.741 36.9871 15.9611C36.999 16.0181 36.999 16.0752 36.9871 16.1281C36.5609 18.1818 35.8678 19.6975 34.9159 20.6714C34.0237 21.58 32.9244 22.016 31.614 21.9834V24.4364C32.0481 24.6401 32.4425 24.8887 32.7969 25.1698C33.8763 26.0377 34.5455 27.2479 34.5455 28.5925C34.5455 28.8166 34.3662 29 34.1472 29H1.80529C1.58623 29 1.40699 28.8166 1.40699 28.5925V28.6007H1.41496Z" fill="#1B453C"/>
</svg>
